<svg width="24" height="24" viewBox="0 0 24 24" fill="none" xmlns="http://www.w3.org/2000/svg">
<path d="M1.32613 9.39882C1.4111 9.43343 1.501 9.45064 1.59091 9.45064C1.68393 9.45064 1.77695 9.43214 1.86429 9.39534L3.96748 8.50762C4.3251 8.35656 4.49283 7.9442 4.34176 7.5864C4.1907 7.22861 3.77852 7.06106 3.42054 7.21213L2.906 7.42911C4.50235 3.79549 8.114 1.40628 12.1325 1.40628C16.7271 1.40628 20.7394 4.5131 21.8897 8.96137C21.9715 9.27833 22.257 9.48872 22.5699 9.48872C22.6282 9.48872 22.6875 9.4814 22.7464 9.4662C23.1224 9.36897 23.3485 8.98536 23.2513 8.60943C21.9404 3.54024 17.3682 0 12.1325 0C7.5275 0 3.39179 2.7536 1.58853 6.93362L1.35104 6.37092C1.20015 6.01331 0.787791 5.84558 0.429995 5.99665C0.0721996 6.14753 -0.0955285 6.56007 0.0555367 6.91769L0.943068 9.02088C1.01558 9.19264 1.15328 9.32869 1.32613 9.39882Z" fill="url(#paint0_radial)"/>
<path d="M23.9451 16.9399L23.0575 14.8368C22.985 14.6651 22.8471 14.529 22.6745 14.4587C22.5018 14.3886 22.3081 14.3899 22.1363 14.4624L20.0331 15.3501C19.6753 15.501 19.5078 15.9135 19.6588 16.2713C19.8097 16.6291 20.2223 16.7967 20.5799 16.6456L21.1688 16.3971C19.6125 20.1282 15.9503 22.5939 11.8681 22.5939C7.2735 22.5939 3.26121 19.4871 2.11091 15.0386C2.01368 14.6627 1.62989 14.4369 1.25415 14.534C0.878222 14.6312 0.652265 15.0148 0.749496 15.3907C2.06019 20.4598 6.63243 24 11.8681 24C16.4991 24 20.6555 21.2153 22.4423 16.9957L22.6494 17.4866C22.7627 17.7551 23.0233 17.9166 23.2976 17.9166C23.3886 17.9166 23.4814 17.8986 23.5706 17.8609C23.9284 17.71 24.0959 17.2977 23.9451 16.9399Z" fill="url(#paint1_radial)"/>
<path d="M15.3005 14.8083C15.4799 14.6709 15.6548 14.5246 15.8245 14.3696C17.8014 12.5637 18.7559 9.9013 18.1458 7.89533C18.0828 7.68824 17.9281 7.52161 17.7261 7.44379C16.1591 6.83971 14.3955 7.20263 12.9233 7.83289C14.0301 8.8649 14.8797 10.1311 15.2913 11.3801C15.6328 12.4163 15.6824 13.4203 15.4391 14.3644C15.4001 14.5159 15.3534 14.6636 15.3005 14.8083Z" fill="url(#paint2_radial)"/>
<path d="M11.4941 17.9417L12.0579 19.8406C12.1486 20.1462 12.4284 20.3438 12.7316 20.3438C12.7979 20.3438 12.8653 20.3344 12.9321 20.3145C13.3042 20.204 13.5166 19.8125 13.406 19.4405L12.8332 17.5112C12.4084 17.7222 11.9585 17.8674 11.4941 17.9417Z" fill="url(#paint3_radial)"/>
<path d="M13.9558 11.8202C13.1446 9.35906 10.3286 7.0495 8.147 7.0495C8.13821 7.0495 8.12906 7.0495 8.12045 7.04968C7.87033 7.05188 7.64034 7.18665 7.51619 7.40382C7.39204 7.62098 7.39259 7.88777 7.51766 8.10439C7.99576 8.9326 7.79488 9.66064 7.42775 10.78C7.17506 11.55 6.91376 12.3459 7.01264 13.2307C7.15748 14.5281 8.06534 15.7258 9.3255 16.2821C9.7981 16.4906 10.2832 16.5937 10.7591 16.5937C11.4474 16.5937 12.1168 16.3778 12.702 15.9528C13.4167 15.4337 13.8794 14.7813 14.0774 14.0133C14.2524 13.3344 14.2116 12.5964 13.9558 11.8202Z" fill="url(#paint4_radial)"/>
<defs>
<radialGradient id="paint0_radial" cx="0" cy="0" r="1" gradientUnits="userSpaceOnUse" gradientTransform="translate(-14.6189 -18.0286) scale(90.053 36.7146)">
<stop stop-color="#FB72AD"/>
<stop offset="1" stop-color="#B643D5"/>
</radialGradient>
<radialGradient id="paint1_radial" cx="0" cy="0" r="1" gradientUnits="userSpaceOnUse" gradientTransform="translate(-13.8918 -3.8196) scale(90.0521 37.1179)">
<stop stop-color="#FB72AD"/>
<stop offset="1" stop-color="#B643D5"/>
</radialGradient>
<radialGradient id="paint2_radial" cx="0" cy="0" r="1" gradientUnits="userSpaceOnUse" gradientTransform="translate(9.52824 -7.44509) scale(20.914 29.6912)">
<stop stop-color="#FB72AD"/>
<stop offset="1" stop-color="#B643D5"/>
</radialGradient>
<radialGradient id="paint3_radial" cx="0" cy="0" r="1" gradientUnits="userSpaceOnUse" gradientTransform="translate(10.2749 12.1294) scale(7.51074 10.9598)">
<stop stop-color="#FB72AD"/>
<stop offset="1" stop-color="#B643D5"/>
</radialGradient>
<radialGradient id="paint4_radial" cx="0" cy="0" r="1" gradientUnits="userSpaceOnUse" gradientTransform="translate(2.47331 -11.0845) scale(27.8305 36.9292)">
<stop stop-color="#FB72AD"/>
<stop offset="1" stop-color="#B643D5"/>
</radialGradient>
</defs>
</svg>
