<svg width="24" height="24" viewBox="0 0 24 24" fill="none" xmlns="http://www.w3.org/2000/svg">
<path d="M1.32613 9.39882C1.41109 9.43342 1.501 9.45064 1.59091 9.45064C1.68393 9.45064 1.77695 9.43214 1.86429 9.39534L3.96748 8.50762C4.3251 8.35656 4.49282 7.9442 4.34176 7.5864C4.19069 7.22861 3.77852 7.06106 3.42054 7.21213L2.906 7.42911C4.50235 3.79549 8.11399 1.40628 12.1325 1.40628C16.7271 1.40628 20.7394 4.51309 21.8897 8.96137C21.9715 9.27833 22.257 9.48872 22.5699 9.48872C22.6282 9.48872 22.6875 9.4814 22.7464 9.4662C23.1224 9.36897 23.3485 8.98536 23.2513 8.60943C21.9404 3.54024 17.3682 0 12.1325 0C7.52749 0 3.39179 2.7536 1.58853 6.93362L1.35103 6.37092C1.20015 6.01331 0.787791 5.84558 0.429995 5.99665C0.0721996 6.14753 -0.0955285 6.56007 0.0555367 6.91769L0.943067 9.02088C1.01558 9.19264 1.15328 9.32869 1.32613 9.39882Z" fill="#DADADA"/>
<path d="M23.945 16.9399L23.0575 14.8368C22.9849 14.6651 22.8471 14.529 22.6744 14.4587C22.5017 14.3886 22.308 14.3899 22.1362 14.4624L20.033 15.3501C19.6752 15.501 19.5077 15.9135 19.6588 16.2713C19.8096 16.6291 20.2222 16.7967 20.5798 16.6456L21.1687 16.3971C19.6124 20.1282 15.9503 22.5939 11.868 22.5939C7.27344 22.5939 3.26115 19.4871 2.11085 15.0386C2.01362 14.6627 1.62982 14.4369 1.25408 14.534C0.878161 14.6312 0.652204 15.0148 0.749435 15.3907C2.06013 20.4598 6.63237 24 11.868 24C16.499 24 20.6554 21.2153 22.4422 16.9957L22.6493 17.4866C22.7627 17.7551 23.0232 17.9166 23.2975 17.9166C23.3885 17.9166 23.4814 17.8986 23.5705 17.8609C23.9283 17.71 24.0959 17.2977 23.945 16.9399Z" fill="#DADADA"/>
<path d="M17.2004 13.5885C18.3882 11.9858 18.8107 9.95233 18.3025 8.28183C18.2396 8.07473 18.0848 7.9081 17.8829 7.83028C16.8584 7.43531 15.5896 7.37452 14.3106 7.65962C13.3559 7.87221 12.4839 8.25765 11.8362 8.74436C10.7006 7.72938 9.33038 7.0495 8.14694 7.0495C8.13815 7.0495 8.129 7.0495 8.12039 7.04968C7.87026 7.0517 7.64028 7.18665 7.51613 7.40382C7.39198 7.62098 7.39253 7.88759 7.5176 8.10421C7.99569 8.93241 7.79482 9.66064 7.42769 10.78C7.175 11.5498 6.9137 12.3459 7.01258 13.2307C7.15742 14.528 8.06528 15.7258 9.32543 16.2819C9.79804 16.4904 10.2831 16.5937 10.759 16.5937C10.8606 16.5937 10.9619 16.5884 11.0624 16.5791L11.6603 18.5929C11.7509 18.8983 12.0307 19.0961 12.3339 19.0961C12.4002 19.0961 12.4676 19.0866 12.5342 19.0668C12.9065 18.9564 13.1189 18.5649 13.0083 18.1926L12.4178 16.2031C13.3493 16.142 14.2258 15.8964 15.0287 15.4696C15.8802 15.0168 16.6108 14.3839 17.2004 13.5885ZM17.0411 9.03312C17.2649 10.2092 16.9019 11.6296 16.0706 12.7512C15.6953 13.2576 15.0071 13.9895 13.9387 14.4314C13.9942 14.2961 14.0403 14.1567 14.0773 14.0133C14.2524 13.3344 14.2115 12.5964 13.9557 11.8202C13.721 11.1079 13.3179 10.4085 12.8115 9.77398C13.8459 9.06883 15.6436 8.6561 17.0411 9.03312ZM9.89326 14.9955C9.09527 14.643 8.49906 13.8712 8.41007 13.0747C8.34525 12.4937 8.5485 11.8742 8.76384 11.2183C9.01818 10.4427 9.29614 9.59582 9.17766 8.68155C10.581 9.24681 12.1332 10.7829 12.6201 12.2602C12.9602 13.2922 12.745 14.1236 11.9816 14.7337L11.3861 12.7281C11.2757 12.3558 10.8842 12.1436 10.512 12.254C10.1397 12.3646 9.9275 12.7559 10.0381 13.1282L10.6478 15.1825C10.3406 15.1642 10.0765 15.0763 9.89326 14.9955Z" fill="#DADADA"/>
</svg>
