<svg width="22" height="22" viewBox="0 0 22 22" fill="none" xmlns="http://www.w3.org/2000/svg">
<path d="M21.1406 12.1154C21.6153 12.1154 22 11.7307 22 11.2561V2.57784C22 1.74025 21.5912 0.952289 20.9064 0.469965C20.2215 -0.012316 19.3419 -0.131726 18.5533 0.150364C18.529 0.159043 18.5051 0.16884 18.4817 0.179668L11.597 3.36752C10.0813 4.06929 8.46592 4.43009 6.79572 4.43981L3.43475 4.4594C1.5406 4.46095 0 6.00241 0 7.89694V10.1313C0 11.6557 1.00745 12.968 2.40625 13.4096V19.3862C2.40625 20.0855 2.6938 20.7688 3.19516 21.2606C3.68122 21.7375 4.31501 21.9983 4.98489 21.9983C5.0013 21.9983 5.01785 21.9981 5.0343 21.9978C5.71257 21.9848 6.34807 21.711 6.82378 21.2266C7.30018 20.7416 7.5625 20.1001 7.5625 19.4201V13.5659C9.013 13.6752 10.4469 14.059 11.7543 14.6923L18.4602 17.9403C18.4866 17.9531 18.5137 17.9645 18.5413 17.9745C19.3309 18.2616 20.2131 18.145 20.9011 17.663C21.5892 17.1809 22 16.3916 22 15.5514C22 15.0768 21.6153 14.6921 21.1406 14.6921C20.666 14.6921 20.2812 15.0768 20.2812 15.5514C20.2812 15.8357 20.1477 16.0922 19.9149 16.2553C19.6922 16.4113 19.4202 16.4527 19.1632 16.371L12.5035 13.1454C10.9639 12.3998 9.2715 11.9552 7.5625 11.843V6.13308C9.21181 6.03107 10.8086 5.62665 12.3191 4.92729L19.1629 1.75838C19.4209 1.67653 19.6938 1.71829 19.9167 1.8753C20.1484 2.03845 20.2812 2.29455 20.2812 2.57793V11.2562C20.2812 11.7307 20.666 12.1154 21.1406 12.1154ZM5.84375 19.4201C5.84375 19.885 5.46593 20.2704 5.00143 20.2793C4.7792 20.2835 4.56457 20.1964 4.3988 20.0337C4.22482 19.863 4.125 19.627 4.125 19.3862V12.703C4.125 12.2506 3.77425 11.8756 3.32282 11.8455C2.42335 11.7855 1.71875 11.0325 1.71875 10.1313V7.89694C1.71875 6.94922 2.48978 6.17819 3.4375 6.17819H3.44253L5.84375 6.16418V19.4201Z" fill="#F6CA13"/>
</svg>
