<svg width="30" height="30" viewBox="0 0 30 30" fill="none" xmlns="http://www.w3.org/2000/svg">
<path d="M28.8281 16.5211C29.4754 16.5211 30 15.9964 30 15.3492V3.51524C30 2.37307 29.4425 1.29858 28.5087 0.640862C27.5748 -0.0167945 26.3753 -0.179627 25.3 0.205041C25.2669 0.216877 25.2343 0.230237 25.2023 0.245002L15.8141 4.59207C13.7472 5.54903 11.5444 6.04104 9.26689 6.05428L4.68375 6.081C2.10082 6.08311 0 8.1851 0 10.7686V13.8154C0 15.8942 1.37379 17.6837 3.28125 18.2858V26.4358C3.28125 27.3894 3.67336 28.3211 4.35703 28.9917C5.01984 29.642 5.8841 29.9977 6.79758 29.9977C6.81996 29.9977 6.84252 29.9974 6.86496 29.997C7.78986 29.9793 8.65646 29.6059 9.30516 28.9454C9.95479 28.284 10.3125 27.4092 10.3125 26.482V18.4989C12.2904 18.648 14.2457 19.1714 16.0286 20.035L25.173 24.464C25.209 24.4815 25.2459 24.497 25.2836 24.5107C26.3603 24.9021 27.5633 24.7432 28.5015 24.0859C29.4398 23.4286 30 22.3522 30 21.2065C30 20.5593 29.4754 20.0346 28.8281 20.0346C28.1809 20.0346 27.6562 20.5593 27.6562 21.2065C27.6562 21.5941 27.4742 21.9439 27.1567 22.1663C26.853 22.3791 26.482 22.4355 26.1316 22.3241L17.0503 17.9256C14.9508 16.9088 12.6429 16.3025 10.3125 16.1495V8.36328C12.5616 8.22418 14.739 7.6727 16.7988 6.71903L26.1313 2.3978C26.483 2.28617 26.8552 2.34313 27.1591 2.55723C27.4751 2.77971 27.6562 3.12893 27.6562 3.51535V15.3493C27.6562 15.9964 28.1809 16.5211 28.8281 16.5211ZM7.96875 26.482C7.96875 27.1159 7.45354 27.6415 6.82014 27.6536C6.51709 27.6593 6.22441 27.5405 5.99836 27.3187C5.76111 27.0859 5.625 26.7641 5.625 26.4357V17.3223C5.625 16.7053 5.1467 16.194 4.53111 16.153C3.30457 16.0712 2.34375 15.0444 2.34375 13.8154V10.7686C2.34375 9.47621 3.39516 8.42481 4.6875 8.42481H4.69436L7.96875 8.40571V26.482Z" fill="#F6CA13"/>
</svg>
