<svg width="340" height="99" viewBox="0 0 340 99" fill="none" xmlns="http://www.w3.org/2000/svg">
<g filter="url(#filter0_d)">
<rect x="10" y="6" width="320" height="78.1023" rx="10" fill="white"/>
</g>
<g clip-path="url(#clip0)">
<path d="M285.781 85.0005C285.212 85.0005 284.75 84.5858 284.75 84.0747V61.8004C284.75 60.8907 285.391 60.0736 286.346 59.7662L299.872 55.4298C300.189 55.3286 300.539 55.3718 300.814 55.5446C301.086 55.7174 301.25 56.0001 301.25 56.3013V67.4107C301.25 67.9217 300.788 68.3365 300.219 68.3365C299.649 68.3365 299.188 67.9217 299.188 67.4107V57.6147L287.041 61.5091C286.905 61.5536 286.812 61.6708 286.812 61.8004V84.0747C286.812 84.5858 286.35 85.0005 285.781 85.0005Z" fill="#CACACA"/>
<path d="M291.969 67.1016H285.781C285.212 67.1016 284.75 66.6868 284.75 66.1758C284.75 65.6648 285.212 65.25 285.781 65.25H291.969C292.538 65.25 293 65.6648 293 66.1758C293 66.6868 292.538 67.1016 291.969 67.1016Z" fill="#CACACA"/>
<path d="M291.969 72.0391H285.781C285.212 72.0391 284.75 71.6243 284.75 71.1133C284.75 70.6022 285.212 70.1875 285.781 70.1875H291.969C292.538 70.1875 293 70.6022 293 71.1133C293 71.6243 292.538 72.0391 291.969 72.0391Z" fill="#CACACA"/>
<path d="M311.219 73.2734H305.031C304.462 73.2734 304 72.8587 304 72.3477C304 71.8366 304.462 71.4219 305.031 71.4219H311.219C311.788 71.4219 312.25 71.8366 312.25 72.3477C312.25 72.8587 311.788 73.2734 311.219 73.2734Z" fill="#CACACA"/>
<path d="M311.219 78.2109H305.031C304.462 78.2109 304 77.7962 304 77.2852C304 76.7741 304.462 76.3594 305.031 76.3594H311.219C311.788 76.3594 312.25 76.7741 312.25 77.2852C312.25 77.7962 311.788 78.2109 311.219 78.2109Z" fill="#CACACA"/>
<path d="M311.219 85C310.649 85 310.188 84.5853 310.188 84.0742V68.6445C310.188 68.4742 310.033 68.3359 309.844 68.3359H299.531C299.342 68.3359 299.188 68.4742 299.188 68.6445V84.0742C299.188 84.5853 298.725 85 298.156 85C297.587 85 297.125 84.5853 297.125 84.0742V68.6445C297.125 67.4534 298.204 66.4844 299.531 66.4844H309.844C311.171 66.4844 312.25 67.4534 312.25 68.6445V84.0742C312.25 84.5853 311.788 85 311.219 85Z" fill="#CACACA"/>
</g>
<defs>
<filter id="filter0_d" x="0" y="0" width="340" height="98.1023" filterUnits="userSpaceOnUse" color-interpolation-filters="sRGB">
<feFlood flood-opacity="0" result="BackgroundImageFix"/>
<feColorMatrix in="SourceAlpha" type="matrix" values="0 0 0 0 0 0 0 0 0 0 0 0 0 0 0 0 0 0 127 0"/>
<feOffset dy="4"/>
<feGaussianBlur stdDeviation="5"/>
<feColorMatrix type="matrix" values="0 0 0 0 0 0 0 0 0 0 0 0 0 0 0 0 0 0 0.08 0"/>
<feBlend mode="normal" in2="BackgroundImageFix" result="effect1_dropShadow"/>
<feBlend mode="normal" in="SourceGraphic" in2="effect1_dropShadow" result="shape"/>
</filter>
<clipPath id="clip0">
<rect x="282" y="55.375" width="33" height="29.625" fill="white"/>
</clipPath>
</defs>
</svg>
