<svg width="28" height="28" viewBox="0 0 28 28" fill="none" xmlns="http://www.w3.org/2000/svg">
<path d="M26.2053 1.79473C25.048 0.637383 23.5092 0 21.8725 0C20.2357 0 18.697 0.637383 17.5397 1.79473L15.4286 3.90578L4.78904 10.4798C4.55673 10.6233 4.48482 10.928 4.62831 11.1604C4.77192 11.3927 5.07648 11.4647 5.3089 11.3211L15.6645 4.92248L17.1498 6.40773L5.94585 15.3623L5.29282 15.3374C3.81664 15.2812 2.42233 14.738 1.30589 13.7946L3.59538 12.3799C3.82769 12.2364 3.8996 11.9317 3.7561 11.6994C3.6126 11.4671 3.30789 11.3952 3.07552 11.5386L0.234612 13.294C0.106862 13.373 0.021823 13.5058 0.00366672 13.655C-0.0144348 13.8042 0.0362605 13.9534 0.141315 14.0608L0.147987 14.0675C1.50544 15.4499 3.31926 16.2518 5.2552 16.3255L5.58677 16.3381C5.57053 17.9491 6.1985 19.4964 7.35055 20.6468C8.50085 21.7955 10.0457 22.4226 11.6545 22.4046L11.6689 22.7585C11.7478 24.694 12.5542 26.5055 13.9398 27.8592C14.0328 27.95 14.157 28 14.2854 28C14.3053 28 14.3254 27.9987 14.3455 27.9963C14.4944 27.9781 14.6271 27.8931 14.706 27.7654L24.0943 12.5715L26.2053 10.4604C27.3627 9.30305 28.0001 7.76426 28.0001 6.12752C28.0001 4.49088 27.3627 2.95209 26.2053 1.79473ZM14.2051 26.6948C13.2619 25.5818 12.717 24.1913 12.657 22.7183L12.6296 22.0453L19.1131 13.9465C19.2838 13.7334 19.2493 13.4222 19.0361 13.2515C18.8229 13.0808 18.5117 13.1153 18.3411 13.3285L11.8732 21.4079C10.4485 21.4865 9.06467 20.9611 8.04935 19.9472C7.03238 18.9317 6.5047 17.5459 6.58361 16.1186L17.8533 7.1114L19.371 8.62909L20.8884 10.1465L19.615 11.737C19.4444 11.9501 19.4788 12.2613 19.692 12.4321C19.7832 12.5051 19.8923 12.5406 20.0007 12.5406C20.1457 12.5406 20.2893 12.4771 20.387 12.3551L21.5919 10.85L23.0775 12.3356L14.2051 26.6948ZM25.5061 9.76123L25.2972 9.97008L21.3589 6.0317C21.1658 5.8386 20.8527 5.8386 20.6596 6.0317C20.4665 6.2248 20.4665 6.53789 20.6596 6.73094L24.598 10.6693L23.704 11.5633L20.0704 7.92974L16.4368 4.29614L17.3308 3.40205L19.3741 5.4454C19.4707 5.54192 19.5972 5.59027 19.7238 5.59027C19.8503 5.59027 19.9769 5.54203 20.0734 5.4454C20.2665 5.2523 20.2665 4.93921 20.0734 4.74616L18.03 2.70282L18.2389 2.49397C19.2094 1.52338 20.4999 0.988914 21.8725 0.988914C23.2451 0.988914 24.5355 1.52337 25.5061 2.49402C27.5097 4.49761 27.5097 7.75759 25.5061 9.76123Z" fill="#DA5BC1"/>
</svg>
