<svg width="28" height="28" viewBox="0 0 28 28" fill="none" xmlns="http://www.w3.org/2000/svg">
<path d="M26.2053 1.79473C25.0479 0.637383 23.5091 0 21.8724 0C20.2357 0 18.6969 0.637383 17.5396 1.79473L15.4285 3.90578L4.78898 10.4798C4.55667 10.6233 4.48475 10.928 4.62825 11.1604C4.77186 11.3927 5.07642 11.4647 5.30884 11.3211L15.6645 4.92248L17.1497 6.40773L5.94579 15.3623L5.29276 15.3374C3.81658 15.2812 2.42227 14.738 1.30582 13.7946L3.59532 12.3799C3.82763 12.2364 3.89954 11.9317 3.75604 11.6994C3.61254 11.4671 3.30782 11.3952 3.07546 11.5386L0.234551 13.294C0.106801 13.373 0.0217619 13.5058 0.00360568 13.655C-0.0144959 13.8042 0.0361994 13.9534 0.141254 14.0608L0.147926 14.0675C1.50538 15.4499 3.3192 16.2518 5.25514 16.3255L5.58671 16.3381C5.57047 17.9491 6.19844 19.4964 7.35049 20.6468C8.50079 21.7955 10.0456 22.4226 11.6544 22.4046L11.6689 22.7585C11.7477 24.694 12.5542 26.5055 13.9398 27.8592C14.0328 27.95 14.1569 28 14.2853 28C14.3053 28 14.3253 27.9987 14.3454 27.9963C14.4944 27.9781 14.627 27.8931 14.706 27.7654L24.0942 12.5715L26.2053 10.4604C27.3626 9.30305 28 7.76426 28 6.12752C28 4.49088 27.3626 2.95209 26.2053 1.79473ZM14.205 26.6948C13.2619 25.5818 12.717 24.1913 12.657 22.7183L12.6296 22.0453L19.1131 13.9465C19.2837 13.7334 19.2493 13.4222 19.0361 13.2515C18.8228 13.0808 18.5117 13.1153 18.341 13.3285L11.8731 21.4079C10.4484 21.4865 9.06461 20.9611 8.04929 19.9472C7.03232 18.9317 6.50464 17.5459 6.58355 16.1186L17.8533 7.1114L19.371 8.62909L20.8884 10.1465L19.615 11.737C19.4444 11.9501 19.4788 12.2613 19.692 12.4321C19.7831 12.5051 19.8922 12.5406 20.0006 12.5406C20.1456 12.5406 20.2893 12.4771 20.3869 12.3551L21.5918 10.85L23.0774 12.3356L14.205 26.6948ZM25.506 9.76123L25.2972 9.97008L21.3588 6.0317C21.1657 5.8386 20.8526 5.8386 20.6596 6.0317C20.4665 6.2248 20.4665 6.53789 20.6596 6.73094L24.5979 10.6693L23.7039 11.5633L20.0703 7.92974L16.4367 4.29614L17.3307 3.40205L19.3741 5.4454C19.4706 5.54192 19.5972 5.59027 19.7237 5.59027C19.8502 5.59027 19.9768 5.54203 20.0733 5.4454C20.2664 5.2523 20.2664 4.93921 20.0733 4.74616L18.03 2.70282L18.2389 2.49397C19.2094 1.52338 20.4998 0.988914 21.8724 0.988914C23.245 0.988914 24.5355 1.52337 25.506 2.49402C27.5096 4.49761 27.5096 7.75759 25.506 9.76123Z" fill="#F6CA13"/>
</svg>
