<svg width="28" height="28" viewBox="0 0 28 28" fill="none" xmlns="http://www.w3.org/2000/svg">
<path d="M14 0C6.2681 0 0 6.2681 0 14C0 21.7319 6.2681 28 14 28C21.7319 28 28 21.7319 28 14C27.9913 6.27174 21.7283 0.00865888 14 0ZM26.4879 10.1527C24.9072 9.78223 23.2825 9.63434 21.6608 9.71364C21.7757 7.98802 22.3768 6.33031 23.3949 4.93213C24.8211 6.40573 25.8806 8.19401 26.4879 10.1527ZM22.7165 4.27565C21.5375 5.87321 20.8514 7.78044 20.7425 9.76263C19.2445 9.87747 17.7566 10.0996 16.2905 10.4273C15.7678 7.05993 14.5236 3.84544 12.6433 1.00374C13.094 0.957031 13.5468 0.933561 14 0.933333C17.2188 0.931283 20.3242 2.12188 22.7165 4.27565ZM12.9024 27.0172C10.8263 26.8445 8.82246 26.1746 7.06016 25.0637C10.6821 20.3299 12.355 16.1467 12.0399 12.6093C13.1749 12.2318 14.337 11.8879 15.505 11.5949C15.987 15.7817 15.4766 20.9385 12.9024 27.0172ZM11.8964 11.6368C11.8635 11.4739 11.8337 11.3101 11.7922 11.1501C10.8552 7.54642 7.83581 5.4405 5.28874 4.27132C7.07155 2.67057 9.26133 1.59232 11.6172 1.15505C13.5755 3.98945 14.8611 7.23356 15.3763 10.6399C14.2898 10.9038 13.1325 11.2312 11.8964 11.6368ZM4.5696 4.97178C6.99111 6.02269 10.0049 7.97731 10.891 11.3848C10.9377 11.5664 10.9746 11.7526 11.009 11.9387C7.61797 13.1444 4.31917 14.5959 1.1391 16.2816C0.404915 12.1798 1.6805 7.97458 4.5696 4.97178ZM1.33757 17.2275C4.49486 15.5638 7.76608 14.1251 11.1262 12.9224C11.3278 16.1845 9.70612 20.0826 6.28747 24.5387C3.84134 22.7477 2.0918 20.1637 1.33757 17.2275ZM14 27.0667C13.9635 27.0667 13.9278 27.0644 13.8913 27.0639C16.4443 20.8968 16.934 15.6484 16.4233 11.3759C17.8502 11.0462 19.299 10.819 20.7582 10.696C20.936 13.2626 22.2633 16.2616 25.8622 19.4694C23.7255 24.0962 19.0964 27.061 14 27.0667ZM26.2454 18.5571C23.0856 15.6636 21.839 12.9878 21.672 10.6415C23.3876 10.5453 25.1073 10.734 26.7611 11.2C27.3023 13.6511 27.1241 16.2066 26.2477 18.5589L26.2454 18.5571Z" fill="#F6CA13"/>
<path d="M2.97326 12.4602C3.23097 12.4602 3.43993 12.2512 3.43993 11.9935C3.48299 10.2597 4.14517 8.59854 5.3066 7.31042C5.48866 7.1279 5.48843 6.83236 5.30591 6.65029C5.12339 6.46823 4.82785 6.46846 4.64579 6.65098C3.30184 8.10931 2.54054 10.0106 2.50659 11.9935C2.50659 12.2512 2.71554 12.4602 2.97326 12.4602Z" fill="#F6CA13"/>
<path d="M6.48055 22.4869C6.69907 22.4897 6.89025 22.3402 6.94038 22.1274C6.99051 21.9145 6.88638 21.6956 6.6895 21.6003C5.51531 20.9124 4.69318 19.7532 4.43227 18.4175C4.37872 18.1682 4.13468 18.008 3.88449 18.0579C3.63429 18.1081 3.47068 18.3496 3.51717 18.6005C3.83139 20.2192 4.83719 21.6199 6.27046 22.4352C6.3354 22.4685 6.40741 22.4862 6.48055 22.4869Z" fill="#F6CA13"/>
<path d="M11.1406 24.0833L9.63689 23.5822C9.39216 23.5006 9.12738 23.6328 9.04581 23.8777C8.96423 24.1227 9.09662 24.3872 9.34158 24.4688L10.845 24.9667C11.09 25.0483 11.3545 24.9159 11.4361 24.6712C11.5177 24.4262 11.3853 24.1617 11.1406 24.0801V24.0833Z" fill="#F6CA13"/>
</svg>
