<svg width="22" height="22" viewBox="0 0 22 22" fill="none" xmlns="http://www.w3.org/2000/svg">
<path d="M19.4219 7.99223H18.9891C18.8753 7.99223 18.7721 7.92052 18.7274 7.81232L18.7197 7.79376C18.6734 7.6823 18.6956 7.55825 18.7761 7.47772L19.0821 7.1717C20.0873 6.16649 20.0873 4.53088 19.0821 3.52567L18.4745 2.91801C17.9875 2.43104 17.34 2.16287 16.6514 2.16287C15.9627 2.16287 15.3153 2.43104 14.8284 2.91801L14.5224 3.22399C14.4418 3.30455 14.3177 3.32664 14.2067 3.28054L14.1905 3.27383C14.0795 3.22798 14.0079 3.12482 14.0079 3.01099V2.57812C14.0079 1.15655 12.8513 0 11.4297 0H10.5704C9.14878 0 7.99223 1.15655 7.99223 2.57812V3.01099C7.99223 3.12482 7.92056 3.22798 7.81052 3.2734L7.79371 3.28036C7.68238 3.32668 7.5582 3.30455 7.47772 3.22403L7.1717 2.91801C6.68478 2.43104 6.03732 2.16287 5.34866 2.16287C4.66 2.16287 4.01259 2.43104 3.52563 2.91801L2.91796 3.52559C1.91275 4.53084 1.91275 6.1664 2.91801 7.17166L3.22399 7.47764C3.30451 7.5582 3.3266 7.68225 3.27903 7.79689L3.27383 7.80944C3.22803 7.92043 3.12477 7.99214 3.01095 7.99214H2.57812C1.15655 7.99214 0 9.14869 0 10.5703V11.4296C0 12.8512 1.15655 14.0078 2.57812 14.0078H3.01091C3.12477 14.0078 3.22794 14.0795 3.27267 14.1877L3.28032 14.2062C3.3266 14.3177 3.30447 14.4418 3.22395 14.5223L2.91796 14.8283C2.431 15.3153 2.16283 15.9627 2.16283 16.6513C2.16283 17.34 2.431 17.9874 2.91792 18.4743L3.52559 19.082C4.01255 19.569 4.66 19.8371 5.34862 19.8371C6.03732 19.8371 6.68473 19.569 7.17166 19.082L7.47764 18.776C7.55812 18.6954 7.68234 18.6734 7.79333 18.7195L7.80953 18.7262C7.92052 18.772 7.99219 18.8752 7.99219 18.989V19.4219C7.99219 20.8435 9.14873 22 10.5703 22H11.4297C12.8513 22 14.0078 20.8435 14.0078 19.4219V18.989C14.0078 18.8752 14.0795 18.772 14.1895 18.7266L14.2063 18.7196C14.3177 18.6734 14.4418 18.6955 14.5223 18.776L14.8283 19.082C15.3153 19.569 15.9627 19.8371 16.6514 19.8371C17.34 19.8371 17.9874 19.569 18.4744 19.082L19.0821 18.4743C19.569 17.9874 19.8372 17.34 19.8372 16.6513C19.8372 15.9627 19.569 15.3153 19.0821 14.8283L18.7761 14.5223C18.6955 14.4418 18.6734 14.3177 18.7197 14.2063L18.7262 14.1906C18.772 14.0796 18.8752 14.0079 18.9891 14.0079H19.4219C20.8435 14.0079 22 12.8513 22 11.4297V10.5704C22 9.14878 20.8435 7.99223 19.4219 7.99223ZM20.2812 11.4297C20.2812 11.9035 19.8957 12.2891 19.4219 12.2891H18.9891C18.1767 12.2891 17.45 12.7779 17.1376 13.5344L17.132 13.5479C16.8184 14.3041 16.9866 15.1635 17.5606 15.7376L17.8667 16.0437C18.029 16.206 18.1184 16.4218 18.1184 16.6513C18.1184 16.8809 18.029 17.0967 17.8667 17.259L17.259 17.8667C17.0967 18.029 16.8809 18.1184 16.6513 18.1184C16.4218 18.1184 16.206 18.029 16.0437 17.8667L15.7376 17.5606C15.1632 16.9863 14.3033 16.8183 13.5466 17.1325L13.5345 17.1376C12.7779 17.45 12.2891 18.1767 12.2891 18.989V19.4219C12.2891 19.8957 11.9035 20.2812 11.4297 20.2812H10.5703C10.0965 20.2812 9.71094 19.8957 9.71094 19.4219V18.989C9.71094 18.1767 9.22208 17.45 8.46463 17.1372L8.45303 17.1324C8.19994 17.0272 7.93538 16.9761 7.6737 16.9761C7.15331 16.9761 6.64456 17.1785 6.26235 17.5606L5.95633 17.8667C5.79399 18.029 5.57825 18.1184 5.34866 18.1184C5.11912 18.1184 4.90329 18.029 4.741 17.8667L4.13334 17.259C3.971 17.0967 3.88162 16.8809 3.88162 16.6513C3.88162 16.4218 3.971 16.206 4.13334 16.0437L4.43936 15.7376C5.01346 15.1635 5.18164 14.3041 4.86802 13.5479L4.86243 13.5344C4.54996 12.7779 3.82323 12.2891 3.01095 12.2891H2.57812C2.10427 12.2891 1.71875 11.9035 1.71875 11.4297V10.5703C1.71875 10.0965 2.10427 9.71094 2.57812 9.71094H3.01095C3.82327 9.71094 4.55 9.22213 4.86359 8.46282L4.86759 8.45307C5.18177 7.69665 5.01368 6.83676 4.43932 6.26235L4.13334 5.95637C3.79822 5.62126 3.79822 5.07607 4.13334 4.741L4.74096 4.13334C4.90334 3.97104 5.11912 3.88162 5.34866 3.88162C5.57825 3.88162 5.79403 3.971 5.95633 4.13334L6.26239 4.4394C6.83684 5.01372 7.69678 5.18182 8.45341 4.86746L8.46553 4.86243C9.22208 4.55005 9.71094 3.82332 9.71094 3.01099V2.57812C9.71094 2.10427 10.0965 1.71875 10.5703 1.71875H11.4297C11.9035 1.71875 12.2891 2.10427 12.2891 2.57812V3.01099C12.2891 3.82332 12.7779 4.55005 13.5354 4.86277L13.547 4.86759C14.3033 5.18169 15.1632 5.01364 15.7376 4.43932L16.0437 4.13325C16.206 3.97096 16.4218 3.88158 16.6513 3.88158C16.8809 3.88158 17.0967 3.971 17.259 4.13329L17.8667 4.74096C18.2018 5.07603 18.2018 5.62121 17.8667 5.95629L17.5606 6.26235C16.9863 6.83676 16.8182 7.69661 17.1311 8.44989L17.1376 8.46557C17.45 9.22213 18.1768 9.71094 18.9891 9.71094H19.4219C19.8957 9.71094 20.2812 10.0965 20.2812 10.5703V11.4297Z" fill="#F6CA13"/>
</svg>
