<svg width="26" height="26" viewBox="0 0 26 26" fill="none" xmlns="http://www.w3.org/2000/svg">
<path d="M23.7031 19.3431C23.5998 18.7918 23.0691 18.4286 22.5177 18.5319C21.9665 18.6352 21.6032 19.1659 21.7065 19.7172C21.7832 20.1262 21.6034 20.4177 21.4894 20.5551C21.3757 20.692 21.123 20.9219 20.7084 20.9219H5.29162C4.87699 20.9219 4.62431 20.6921 4.51061 20.5551C4.39665 20.4177 4.21684 20.1262 4.29352 19.7172C4.5816 18.1799 5.15964 17.1688 5.71864 16.191C6.39754 15.0035 7.09954 13.7756 7.09954 11.8828V10.3593C7.09954 7.1567 9.70274 4.51582 12.9039 4.46936H13.0959C16.2863 4.51572 18.8808 7.1566 18.8808 10.3594V11.8828C18.8808 13.4937 19.4078 14.6023 19.9017 15.5148C20.0856 15.8545 20.4349 16.0472 20.7958 16.0472C20.9591 16.0472 21.1247 16.0078 21.2783 15.9246C21.7717 15.6576 21.9551 15.0413 21.6881 14.548C21.1966 13.6399 20.9121 12.9127 20.9121 11.8828V10.3594C20.9121 8.26917 20.1025 6.295 18.6323 4.80055C17.3724 3.5198 15.7547 2.72055 14.0058 2.49996V1.01562C14.0058 0.454695 13.5511 0 12.9902 0C12.4293 0 11.9746 0.454695 11.9746 1.01562V2.50296C8.09195 3.00671 5.06834 6.35685 5.06834 10.3594V11.8828C5.06834 13.236 4.57713 14.0951 3.95526 15.1829C3.34264 16.2546 2.64821 17.4692 2.297 19.3431C2.12937 20.2376 2.36652 21.1522 2.94766 21.8524C3.52824 22.552 4.38264 22.9531 5.29162 22.9531H9.96294C9.96294 24.6332 11.3298 26 13.0098 26C14.6899 26 16.0567 24.6332 16.0567 22.9531H20.7084C21.6174 22.9531 22.4718 22.552 23.0524 21.8524C23.6335 21.1523 23.8707 20.2376 23.7031 19.3431ZM13.0098 23.9688C12.4498 23.9688 11.9942 23.5131 11.9942 22.9531H14.0254C14.0254 23.5131 13.5699 23.9688 13.0098 23.9688Z" fill="black"/>
</svg>
