<svg width="25" height="32" viewBox="0 0 25 32" fill="none" xmlns="http://www.w3.org/2000/svg">
<path d="M21.1923 1H3.88461C2.29808 1 1 2.29808 1 3.88462V24.6538C1 25.5481 1.49038 26.2981 2.18269 26.8173C2.18269 26.8462 2.15385 26.9038 2.15385 26.9615V28.9808C2.15385 30.1058 3.04808 31 4.17308 31H4.75C5.875 31 6.76923 30.1058 6.76923 28.9808V27.5385H18.3077V28.9808C18.3077 30.1058 19.2019 31 20.3269 31H20.9038C22.0288 31 22.9231 30.1058 22.9231 28.9808V26.9615C23.6154 26.4423 24.0769 25.6058 24.0769 24.6538V3.88462C24.0769 2.29808 22.7788 1 21.1923 1ZM5.61538 28.9808C5.61538 29.4712 5.24038 29.8462 4.75 29.8462H4.17308C3.68269 29.8462 3.30769 29.4712 3.30769 28.9808V27.3942C3.59615 27.4808 3.88461 27.5385 4.17308 27.5385H5.61538V28.9808ZM21.7692 28.9808C21.7692 29.4712 21.3942 29.8462 20.9038 29.8462H20.3269C19.8365 29.8462 19.4615 29.4712 19.4615 28.9808V27.5385H21.1923C21.3942 27.5385 21.5962 27.5096 21.7692 27.4808V28.9808ZM22.9231 24.6538C22.9231 25.6058 22.1442 26.3846 21.1923 26.3846H4.17308C3.25 26.3846 2.15385 25.6058 2.15385 24.6538V19.4615H22.9231V24.6538ZM22.9231 18.3077H2.15385V6.76923H22.9231V18.3077ZM22.9231 5.61538H2.15385V3.88462C2.15385 2.93269 2.93269 2.15385 3.88461 2.15385H21.1923C22.1442 2.15385 22.9231 2.93269 22.9231 3.88462V5.61538Z" fill="#DA5BC1" stroke="#DA5BC1" stroke-width="0.3"/>
<path d="M11.3846 3.30768H7.6346C7.31729 3.30768 7.05768 3.56729 7.05768 3.8846C7.05768 4.20191 7.31729 4.46152 7.6346 4.46152H11.3846C11.7019 4.46152 11.9615 4.20191 11.9615 3.8846C11.9615 3.56729 11.7019 3.30768 11.3846 3.30768Z" fill="#DA5BC1" stroke="#DA5BC1" stroke-width="0.3"/>
<path d="M14.8462 3.30768H13.9808C13.6635 3.30768 13.4039 3.56729 13.4039 3.8846C13.4039 4.20191 13.6635 4.46152 13.9808 4.46152H14.8462C15.1635 4.46152 15.4231 4.20191 15.4231 3.8846C15.4231 3.56729 15.1635 3.30768 14.8462 3.30768Z" fill="#DA5BC1" stroke="#DA5BC1" stroke-width="0.3"/>
<path d="M5.3269 24.3654C6.27882 24.3654 7.05767 23.5866 7.05767 22.6346C7.05767 21.6827 6.27882 20.9039 5.3269 20.9039C4.37498 20.9039 3.59613 21.6827 3.59613 22.6346C3.59613 23.5866 4.37498 24.3654 5.3269 24.3654ZM5.3269 22.0577C5.64421 22.0577 5.90382 22.3173 5.90382 22.6346C5.90382 22.9519 5.64421 23.2116 5.3269 23.2116C5.00959 23.2116 4.74998 22.9519 4.74998 22.6346C4.74998 22.3173 5.00959 22.0577 5.3269 22.0577Z" fill="#DA5BC1" stroke="#DA5BC1" stroke-width="0.3"/>
<path d="M19.75 24.3654C20.7019 24.3654 21.4808 23.5866 21.4808 22.6346C21.4808 21.6827 20.7019 20.9039 19.75 20.9039C18.7981 20.9039 18.0192 21.6827 18.0192 22.6346C18.0192 23.5866 18.7981 24.3654 19.75 24.3654ZM19.75 22.0577C20.0673 22.0577 20.3269 22.3173 20.3269 22.6346C20.3269 22.9519 20.0673 23.2116 19.75 23.2116C19.4327 23.2116 19.1731 22.9519 19.1731 22.6346C19.1731 22.3173 19.4327 22.0577 19.75 22.0577Z" fill="#DA5BC1" stroke="#DA5BC1" stroke-width="0.3"/>
</svg>
