<svg width="19" height="17" viewBox="0 0 19 17" fill="none" xmlns="http://www.w3.org/2000/svg">
<path fill-rule="evenodd" clip-rule="evenodd" d="M17 3.77778H13.2222V1.88889L11.3333 0H7.55556L5.66667 1.88889V3.77778H1.88889C0.85 3.77778 0 4.62778 0 5.66667V10.3889C0 11.0972 0.377778 11.6922 0.944444 12.0228V15.1111C0.944444 16.1594 1.785 17 2.83333 17H16.0556C17.1039 17 17.9444 16.1594 17.9444 15.1111V12.0133C18.5017 11.6828 18.8889 11.0783 18.8889 10.3889V5.66667C18.8889 4.62778 18.0389 3.77778 17 3.77778ZM7.55553 1.88895H11.3333V3.77784H7.55553V1.88895ZM17 5.66667H1.88886V10.3889H6.61108V7.55556H12.2777V10.3889H17V5.66667ZM10.3889 11.3333H8.5V9.44439H10.3889V11.3333ZM2.83333 15.1111H16.0556V12.2777H12.2778V13.2222H6.61111V12.2777H2.83333V15.1111Z" fill="black"/>
</svg>
