<svg width="30" height="30" viewBox="0 0 30 30" fill="none" xmlns="http://www.w3.org/2000/svg">
<path d="M29.9971 24.1729C29.9553 23.0125 29.4719 21.9296 28.636 21.1236C26.9994 19.5455 25.6282 18.6345 24.3208 18.2567C22.5193 17.736 20.8505 18.2094 19.3613 19.6639C19.3591 19.666 19.3569 19.6683 19.3546 19.6705L17.7703 21.243C16.7801 20.6849 14.8547 19.4593 12.7745 17.3791L12.6203 17.225C10.5397 15.1445 9.31424 13.2188 8.7566 12.2297L10.3293 10.6453C10.3315 10.6431 10.3337 10.6408 10.3359 10.6385C11.7903 9.14944 12.2637 7.48081 11.7431 5.67911C11.3653 4.37171 10.4543 3.0005 8.87613 1.36392C8.07023 0.528193 6.98736 0.0447947 5.82691 0.00295877C4.66576 -0.0389358 3.55154 0.365244 2.68739 1.14091L2.65376 1.17114C2.63817 1.18515 2.62294 1.19962 2.60806 1.21444C0.887801 2.9347 -0.0139578 5.34296 0.000163335 8.17896C0.0242454 12.9967 2.67204 18.5061 7.08293 22.9169C7.91467 23.7487 8.85996 24.5718 9.8925 25.3635C10.4061 25.7573 11.1417 25.6602 11.5355 25.1466C11.9293 24.633 11.8322 23.8974 11.3186 23.5036C10.3673 22.7741 9.4998 22.0192 8.74019 21.2598C4.75605 17.2756 2.36489 12.3813 2.34386 8.16729C2.33302 5.98315 2.99003 4.16013 4.24411 2.89298L4.25308 2.88489C5.10486 2.1203 6.39445 2.16683 7.1891 2.99083C10.223 6.1372 10.0034 7.62261 8.66273 8.99733L6.49043 11.1859C6.14976 11.5292 6.0549 12.0464 6.2516 12.4882C6.30673 12.6121 7.64086 15.5601 10.9634 18.8827L11.1177 19.0367C14.4399 22.3589 17.3879 23.693 17.5118 23.7481C17.9535 23.945 18.4709 23.85 18.8141 23.5094L21.0027 21.337C22.3776 19.9963 23.863 19.7768 27.0092 22.8107C27.8332 23.6052 27.8798 24.8949 27.1153 25.7465L27.107 25.7557C25.8502 26.9996 24.0466 27.6561 21.8862 27.6561C21.8684 27.6561 21.8506 27.6561 21.8328 27.656C20.1059 27.6474 18.1063 27.174 16.0502 26.2871C15.456 26.0307 14.7663 26.3047 14.51 26.899C14.2537 27.4933 14.5276 28.1829 15.1219 28.4392C17.4986 29.4644 19.7525 29.9894 21.8211 29.9997C21.8431 29.9998 21.8649 29.9999 21.8868 29.9999C24.6943 29.9999 27.0787 29.0987 28.7856 27.3918C28.8004 27.377 28.8148 27.3618 28.8289 27.3461L28.8593 27.3123C29.6349 26.4483 30.039 25.3333 29.9971 24.1729Z" fill="#F6CA13"/>
</svg>
