<svg width="20" height="20" viewBox="0 0 20 20" fill="none" xmlns="http://www.w3.org/2000/svg">
<path d="M17.0461 2.67624C15.1606 0.950427 12.6581 0 10 0C7.34189 0 4.83951 0.950427 2.95393 2.67624C1.04909 4.41964 2.60473e-05 6.74315 2.60473e-05 9.21873C2.60473e-05 11.1494 0.631353 12.9786 1.83088 14.5379L0.0569791 18.9258C-0.0622004 19.2207 0.00916666 19.5583 0.237487 19.7796C0.386315 19.9239 0.58233 19.9999 0.78147 19.9999C0.887837 19.9999 0.995103 19.9782 1.09643 19.9336L6.12205 17.7182C7.35021 18.1956 8.65318 18.4375 10 18.4375C11.6858 18.4375 13.3527 18.0435 14.8203 17.2981C15.205 17.1027 15.3584 16.6325 15.1631 16.2477C14.9677 15.863 14.4974 15.7096 14.1127 15.905C12.8633 16.5395 11.4411 16.875 10 16.875C8.74794 16.875 7.54228 16.6314 6.41654 16.1512C6.21771 16.0663 5.99264 16.0677 5.79482 16.1549L2.22666 17.7278L3.4519 14.697C3.561 14.4271 3.51104 14.1189 3.32217 13.8973C2.171 12.5468 1.56252 10.929 1.56252 9.21873C1.56252 4.99706 5.34756 1.5625 10 1.5625C14.6525 1.5625 18.4375 4.99706 18.4375 9.21873C18.4375 10.6725 17.9864 12.0869 17.1329 13.3091C16.8859 13.6629 16.9723 14.1499 17.3261 14.3969C17.6798 14.644 18.167 14.5574 18.4139 14.2037C19.4516 12.7179 20 10.9941 20 9.21873C20 6.74315 18.951 4.41964 17.0461 2.67624Z" fill="#F6CA13"/>
</svg>
