<svg width="38" height="38" viewBox="0 0 38 38" fill="none" xmlns="http://www.w3.org/2000/svg">
<path d="M36.3852 1.61441C35.5631 0.79483 34.2277 0.79538 33.4081 1.61496L19.1088 15.9139C18.4686 15.3745 17.5081 15.405 16.9055 16.0079L16.0793 16.834L15.4028 16.1576C14.7283 15.483 13.6266 15.4915 12.7244 16.1784L1.67785 24.5723C1.27877 24.876 1.03954 25.3303 1.00438 25.8519C0.966752 26.4075 1.1733 26.9681 1.55617 27.3513L3.73367 29.5287L3.73477 29.5296L6.10206 31.8969L10.6488 36.4435C11.0023 36.797 11.5063 37 12.0185 37C12.0616 37 12.105 36.9984 12.1484 36.9956C12.6697 36.9604 13.1243 36.7212 13.428 36.3219L19.2462 28.6669L19.2497 28.6622L21.8225 25.2773C22.5072 24.3748 22.516 23.2729 21.8436 22.598L21.1663 21.921L21.9925 21.0948C22.5951 20.4925 22.6258 19.5328 22.0872 18.8926L26.6966 14.2836C26.9026 14.0776 26.9026 13.7433 26.6966 13.537C26.4903 13.3308 26.156 13.3308 25.95 13.537L21.3459 18.1411L19.8603 16.6552L34.1544 2.36148C34.5631 1.95279 35.2294 1.95306 35.6387 2.36093C36.0476 2.771 36.0476 3.43842 35.6392 3.84793L27.9836 11.5035C27.7776 11.7097 27.7776 12.044 27.9836 12.25C28.1896 12.4563 28.5239 12.4563 28.7301 12.25L36.3863 4.5939C37.2048 3.77295 37.2048 2.43674 36.3852 1.61441ZM12.5879 35.683C12.4387 35.8788 12.2278 35.9321 12.0773 35.9423C11.8243 35.9596 11.5637 35.8654 11.3953 35.6973L9.66576 33.9675L13.5775 29.0863C13.7598 28.8589 13.723 28.5265 13.4956 28.3444C13.2679 28.162 12.9359 28.1986 12.7535 28.4263L8.91457 33.2166L7.22239 31.5244L10.08 28.6685C10.2862 28.4625 10.2862 28.1283 10.0802 27.922C9.87423 27.7157 9.53997 27.7157 9.3337 27.922L6.47587 30.7779L4.89493 29.197L9.66988 25.3704C9.8973 25.1881 9.93383 24.856 9.75173 24.6283C9.56936 24.4009 9.23702 24.3641 9.0096 24.5464L4.14374 28.4458L2.3027 26.6047C2.1346 26.4366 2.04067 26.1752 2.0577 25.923C2.06786 25.7725 2.12115 25.5616 2.3167 25.4127L9.61935 19.8635L12.445 22.6876C12.548 22.7906 12.6832 22.8419 12.8183 22.8419C12.9534 22.8419 13.0886 22.7903 13.1916 22.6873C13.3976 22.481 13.3976 22.1468 13.1913 21.9408L10.4678 19.2189L11.8702 18.1532L19.8485 26.1296L18.7825 27.5323L14.9337 23.6851C14.7275 23.4789 14.3932 23.4789 14.1872 23.6851C13.9809 23.8914 13.9809 24.2256 14.1872 24.4316L18.1379 28.3804L12.5879 35.683ZM20.9815 24.639L20.4934 25.2812L12.7186 17.5086L13.3635 17.0186C13.6016 16.8373 13.8958 16.7099 14.1666 16.7099C14.3482 16.7099 14.5195 16.767 14.6563 16.9041L21.0957 23.3434C21.4363 23.6854 21.2839 24.2408 20.9815 24.639ZM21.246 20.3486L20.4198 21.1745L16.8256 17.5806L17.6518 16.7544C17.8764 16.53 18.2415 16.5297 18.4661 16.7544L21.2462 19.5345C21.4706 19.7586 21.4706 20.1239 21.246 20.3486Z" fill="#DA5BC1"/>
<path d="M6.10206 31.8969L3.73477 29.5296L3.73367 29.5287L1.55617 27.3513C1.1733 26.9681 0.966752 26.4075 1.00438 25.8519C1.03954 25.3303 1.27877 24.876 1.67785 24.5723L12.7244 16.1784C13.6266 15.4915 14.7283 15.483 15.4028 16.1576L16.0793 16.834L16.9055 16.0079C17.5081 15.405 18.4686 15.3745 19.1088 15.9139L33.4081 1.61496C34.2277 0.79538 35.5631 0.79483 36.3852 1.61441C37.2048 2.43674 37.2048 3.77295 36.3863 4.5939L28.7301 12.25C28.5239 12.4563 28.1896 12.4563 27.9836 12.25C27.7776 12.044 27.7776 11.7097 27.9836 11.5035L35.6392 3.84793C36.0476 3.43842 36.0476 2.771 35.6387 2.36093C35.2294 1.95306 34.5631 1.95279 34.1544 2.36148L19.8603 16.6552L21.3459 18.1411L25.95 13.537C26.156 13.3308 26.4903 13.3308 26.6966 13.537C26.9026 13.7433 26.9026 14.0776 26.6966 14.2836L22.0872 18.8926C22.6258 19.5328 22.5951 20.4925 21.9925 21.0948L21.1663 21.921L21.8436 22.598M6.10206 31.8969V31.8969ZM6.10206 31.8969L10.6488 36.4435C11.0023 36.797 11.5063 37 12.0185 37C12.0616 37 12.105 36.9984 12.1484 36.9956C12.6697 36.9604 13.1243 36.7212 13.428 36.3219L19.2462 28.6669L19.2497 28.6622L21.8225 25.2773C22.5072 24.3748 22.516 23.2729 21.8436 22.598M21.8436 22.598V22.598ZM12.5879 35.683C12.4387 35.8788 12.2278 35.9321 12.0773 35.9423C11.8243 35.9596 11.5637 35.8654 11.3953 35.6973L9.66576 33.9675L13.5775 29.0863C13.7598 28.8589 13.723 28.5265 13.4956 28.3444C13.2679 28.162 12.9359 28.1986 12.7535 28.4263L8.91457 33.2166L7.22239 31.5244L10.08 28.6685C10.2862 28.4625 10.2862 28.1283 10.0802 27.922C9.87423 27.7157 9.53997 27.7157 9.3337 27.922L6.47587 30.7779L4.89493 29.197L9.66988 25.3704C9.8973 25.1881 9.93383 24.856 9.75173 24.6283C9.56936 24.4009 9.23702 24.3641 9.0096 24.5464L4.14374 28.4458L2.3027 26.6047C2.1346 26.4366 2.04067 26.1752 2.0577 25.923C2.06786 25.7725 2.12115 25.5616 2.3167 25.4127L9.61935 19.8635L12.445 22.6876C12.548 22.7906 12.6832 22.8419 12.8183 22.8419C12.9534 22.8419 13.0886 22.7903 13.1916 22.6873C13.3976 22.481 13.3976 22.1468 13.1913 21.9408L10.4678 19.2189L11.8702 18.1532L19.8485 26.1296L18.7825 27.5323L14.9337 23.6851C14.7275 23.4789 14.3932 23.4789 14.1872 23.6851C13.9809 23.8914 13.9809 24.2256 14.1872 24.4316L18.1379 28.3804L12.5879 35.683ZM20.9815 24.639L20.4934 25.2812L12.7186 17.5086L13.3635 17.0186C13.6016 16.8373 13.8958 16.7099 14.1666 16.7099C14.3482 16.7099 14.5195 16.767 14.6563 16.9041L21.0957 23.3434C21.4363 23.6854 21.2839 24.2408 20.9815 24.639ZM21.246 20.3486L20.4198 21.1745L16.8256 17.5806L17.6518 16.7544C17.8764 16.53 18.2415 16.5297 18.4661 16.7544L21.2462 19.5345C21.4706 19.7586 21.4706 20.1239 21.246 20.3486Z" stroke="#DA5BC1" stroke-width="0.5"/>
</svg>
