<svg width="36" height="24" viewBox="0 0 36 24" fill="none" xmlns="http://www.w3.org/2000/svg">
<path d="M29.4319 17.5484C28.5522 17.5484 27.7166 17.8853 27.0861 18.4946C26.4557 19.1111 26.1038 19.914 26.1038 20.7742C26.1038 21.6344 26.4484 22.4373 27.0861 23.0538C27.7239 23.6631 28.5522 24 29.4319 24C31.2352 24 32.7013 22.552 32.7013 20.7742C32.7013 18.9964 31.2352 17.5484 29.4319 17.5484ZM29.4319 22.5663C28.4203 22.5663 27.5699 21.7491 27.5699 20.7742C27.5699 19.7993 28.4203 18.9821 29.4319 18.9821C30.4288 18.9821 31.2352 19.7849 31.2352 20.7742C31.2352 21.7634 30.4288 22.5663 29.4319 22.5663ZM30.2822 6.80286C30.1503 6.681 29.9743 6.61649 29.7911 6.61649H26.0305C25.6274 6.61649 25.2975 6.93907 25.2975 7.33333V13.2115C25.2975 13.6057 25.6274 13.9283 26.0305 13.9283H31.9976C32.4007 13.9283 32.7306 13.6057 32.7306 13.2115V9.27598C32.7306 9.07527 32.6426 8.88172 32.4887 8.74552L30.2822 6.80286ZM31.2645 12.4946H26.7636V8.04301H29.5052L31.2645 9.5914V12.4946ZM11.5308 17.5484C10.6512 17.5484 9.81552 17.8853 9.18509 18.4946C8.55467 19.1111 8.20281 19.914 8.20281 20.7742C8.20281 21.6344 8.54734 22.4373 9.18509 23.0538C9.82285 23.6631 10.6512 24 11.5308 24C13.3341 24 14.8002 22.552 14.8002 20.7742C14.8002 18.9964 13.3341 17.5484 11.5308 17.5484ZM11.5308 22.5663C10.5192 22.5663 9.66891 21.7491 9.66891 20.7742C9.66891 19.7993 10.5192 18.9821 11.5308 18.9821C12.5278 18.9821 13.3341 19.7849 13.3341 20.7742C13.3341 21.7634 12.5278 22.5663 11.5308 22.5663ZM6.64142 18.4301H5.16799V16.5233C5.16799 16.129 4.83812 15.8065 4.43494 15.8065C4.03177 15.8065 3.70189 16.129 3.70189 16.5233V19.147C3.70189 19.5412 4.03177 19.8638 4.43494 19.8638H6.64142C7.04459 19.8638 7.37446 19.5412 7.37446 19.147C7.37446 18.7527 7.04459 18.4301 6.64142 18.4301ZM10.358 14.5233C10.358 14.129 10.0281 13.8065 9.62492 13.8065H0.733048C0.329872 13.8065 0 14.129 0 14.5233C0 14.9176 0.329872 15.2401 0.733048 15.2401H9.62492C10.0281 15.2401 10.358 14.9247 10.358 14.5233ZM2.22114 11.9355L11.113 11.9857C11.5162 11.9857 11.8461 11.6703 11.8534 11.276C11.8607 10.8746 11.5308 10.552 11.1277 10.552L2.2358 10.5018C2.22847 10.5018 2.22847 10.5018 2.22847 10.5018C1.82529 10.5018 1.49542 10.8172 1.49542 11.2115C1.48809 11.6129 1.81796 11.9355 2.22114 11.9355ZM3.71655 8.681H12.6084C13.0116 8.681 13.3415 8.35842 13.3415 7.96416C13.3415 7.56989 13.0116 7.24731 12.6084 7.24731H3.71655C3.31338 7.24731 2.98351 7.56989 2.98351 7.96416C2.98351 8.35842 3.31338 8.681 3.71655 8.681ZM35.7288 7.71326L30.4801 3.46236C30.3482 3.35484 30.1869 3.29749 30.011 3.29749H23.8387V0.716846C23.8387 0.322581 23.5089 0 23.1057 0H4.43494C4.03177 0 3.70189 0.322581 3.70189 0.716846V5.96416C3.70189 6.35842 4.03177 6.681 4.43494 6.681C4.83812 6.681 5.16799 6.35842 5.16799 5.96416V1.43369H22.38V18.4301H16.369C15.9658 18.4301 15.6359 18.7527 15.6359 19.147C15.6359 19.5412 15.9658 19.8638 16.369 19.8638H25.3195C25.7227 19.8638 26.0525 19.5412 26.0525 19.147C26.0525 18.7527 25.7227 18.4301 25.3195 18.4301H23.8461V4.73118H29.7544L34.5339 8.60215L34.4826 18.4158H33.7202C33.317 18.4158 32.9872 18.7383 32.9872 19.1326C32.9872 19.5269 33.317 19.8495 33.7202 19.8495H35.2083C35.6115 19.8495 35.9414 19.534 35.9414 19.1398L36 8.2724C35.9927 8.05735 35.8974 7.84946 35.7288 7.71326Z" fill="#DA5BC1"/>
</svg>
