<svg width="17" height="17" viewBox="0 0 17 17" fill="none" xmlns="http://www.w3.org/2000/svg">
<path d="M8.5 17C13.1944 17 17 13.1944 17 8.5C17 3.80558 13.1944 0 8.5 0C3.80558 0 0 3.80558 0 8.5C0 13.1944 3.80558 17 8.5 17Z" fill="#F0F0F0"/>
<path d="M1.75714 3.32507C1.08946 4.19377 0.585997 5.19501 0.292847 6.28271H4.71477L1.75714 3.32507Z" fill="#0052B4"/>
<path d="M16.7072 6.28275C16.414 5.19507 15.9106 4.19383 15.2429 3.32513L12.2853 6.28275H16.7072Z" fill="#0052B4"/>
<path d="M0.292847 10.7175C0.58603 11.8052 1.08949 12.8064 1.75714 13.6751L4.71467 10.7175H0.292847Z" fill="#0052B4"/>
<path d="M13.675 1.75717C12.8063 1.08949 11.8051 0.58603 10.7174 0.292847V4.71474L13.675 1.75717Z" fill="#0052B4"/>
<path d="M3.32507 15.2429C4.19377 15.9106 5.19501 16.414 6.28268 16.7072V12.2853L3.32507 15.2429Z" fill="#0052B4"/>
<path d="M6.28264 0.292847C5.19497 0.58603 4.19373 1.08949 3.32507 1.75714L6.28264 4.71471V0.292847Z" fill="#0052B4"/>
<path d="M10.7174 16.7072C11.8051 16.414 12.8063 15.9106 13.675 15.2429L10.7174 12.2853V16.7072Z" fill="#0052B4"/>
<path d="M12.2853 10.7175L15.2429 13.6751C15.9106 12.8065 16.414 11.8052 16.7072 10.7175H12.2853Z" fill="#0052B4"/>
<path d="M16.928 7.39131H9.60875H9.60872V0.0719512C9.24578 0.0247031 8.87576 0 8.5 0C8.12417 0 7.75422 0.0247031 7.39131 0.0719512V7.39125V7.39128H0.0719512C0.0247031 7.75422 0 8.12424 0 8.5C0 8.87583 0.0247031 9.24578 0.0719512 9.60869H7.39125H7.39128V16.928C7.75422 16.9753 8.12417 17 8.5 17C8.87576 17 9.24578 16.9753 9.60869 16.928V9.60875V9.60872H16.928C16.9753 9.24578 17 8.87583 17 8.5C17 8.12424 16.9753 7.75422 16.928 7.39131Z" fill="#D80027"/>
<path d="M10.7175 10.7175L14.5105 14.5105C14.6849 14.3361 14.8513 14.1538 15.0101 13.9648L11.7628 10.7175H10.7175V10.7175Z" fill="#D80027"/>
<path d="M6.28264 10.7175H6.28257L2.48962 14.5105C2.66401 14.6849 2.84632 14.8513 3.03532 15.0101L6.28264 11.7627V10.7175Z" fill="#D80027"/>
<path d="M6.28262 6.28272V6.28266L2.48963 2.48962C2.31518 2.66401 2.14877 2.84633 1.98999 3.03532L5.23736 6.28269H6.28262V6.28272Z" fill="#D80027"/>
<path d="M10.7175 6.28272L14.5105 2.48966C14.3361 2.31521 14.1538 2.1488 13.9648 1.99005L10.7175 5.23742V6.28272Z" fill="#D80027"/>
</svg>
