<svg width="31" height="31" viewBox="0 0 31 31" fill="none" xmlns="http://www.w3.org/2000/svg">
<path d="M25.7509 3.8836C23.0166 1.46796 19.4266 0 15.5 0C10.5527 0 6.14005 2.33033 3.30028 5.95049C3.2249 6.04657 3.26026 6.18934 3.37185 6.23887C5.94212 7.37818 9.39541 8.02216 13.0274 8.02216C19.3546 8.02216 24.0382 6.14872 25.7678 4.15006C25.8357 4.07147 25.8287 3.95238 25.7509 3.8836Z" fill="url(#paint0_linear)"/>
<path d="M29.4572 21.605C29.4562 21.605 29.4552 21.605 29.4542 21.605C24.7804 21.605 20.3483 22.8583 16.9744 25.1341C14.7122 26.6599 13.1495 28.531 12.461 30.4773C12.4223 30.5869 12.4883 30.7067 12.6026 30.7284C13.5415 30.9066 14.51 31 15.5 31C21.7772 31 27.1941 27.2488 29.6288 21.8707C29.6849 21.7468 29.5933 21.6051 29.4572 21.605Z" fill="url(#paint1_linear)"/>
<path d="M27.8807 6.18545C27.8111 6.09318 27.674 6.08489 27.5945 6.16874C24.964 8.94112 19.3737 10.7336 13.0274 10.7336C8.8459 10.7336 4.82819 9.93518 1.86515 8.52983C1.77209 8.48575 1.66062 8.52287 1.61472 8.61508C0.581432 10.6903 0 13.0286 0 15.5C0 21.9612 3.97418 27.5116 9.60637 29.8356C9.7076 29.8774 9.82191 29.823 9.85697 29.7192C10.7178 27.1696 12.6558 24.7764 15.4582 22.8863C19.2753 20.3116 24.2459 18.8937 29.4542 18.8937C29.791 18.8937 30.1269 18.9002 30.4622 18.9115C30.5533 18.9146 30.6344 18.8526 30.6536 18.7633C30.8801 17.7109 31 16.6193 31 15.5C31 12.0067 29.8378 8.78031 27.8807 6.18545Z" fill="url(#paint2_linear)"/>
<defs>
<linearGradient id="paint0_linear" x1="14.5373" y1="0" x2="14.5373" y2="8.02216" gradientUnits="userSpaceOnUse">
<stop stop-color="#CA51C9"/>
<stop offset="1" stop-color="#F9ACCD"/>
</linearGradient>
<linearGradient id="paint1_linear" x1="21.0477" y1="21.605" x2="21.0477" y2="31" gradientUnits="userSpaceOnUse">
<stop stop-color="#CA51C9"/>
<stop offset="1" stop-color="#F9ACCD"/>
</linearGradient>
<linearGradient id="paint2_linear" x1="15.5" y1="6.11072" x2="15.5" y2="29.8497" gradientUnits="userSpaceOnUse">
<stop stop-color="#CA51C9"/>
<stop offset="1" stop-color="#F9ACCD"/>
</linearGradient>
</defs>
</svg>
