<svg width="22" height="22" viewBox="0 0 22 22" fill="none" xmlns="http://www.w3.org/2000/svg">
<path d="M20.2812 14.2656V3.4375C20.2812 2.48984 19.5102 1.71875 18.5625 1.71875H3.4375C2.48984 1.71875 1.71875 2.48984 1.71875 3.4375V18.5625C1.71875 19.5102 2.48984 20.2812 3.4375 20.2812H18.5625C19.5102 20.2812 20.2812 19.5102 20.2812 18.5625C20.2812 18.0878 20.666 17.7031 21.1406 17.7031C21.6153 17.7031 22 18.0878 22 18.5625C22 20.458 20.458 22 18.5625 22H3.4375C1.54201 22 0 20.458 0 18.5625V3.4375C0 1.54201 1.54201 0 3.4375 0H18.5625C20.458 0 22 1.54201 22 3.4375V14.2656C22 14.7403 21.6153 15.125 21.1406 15.125C20.666 15.125 20.2812 14.7403 20.2812 14.2656ZM10.1406 8.16406V16.8438C10.1406 17.3184 10.5253 17.7031 11 17.7031C11.4747 17.7031 11.8594 17.3184 11.8594 16.8438V8.16406C11.8594 7.68939 11.4747 7.30469 11 7.30469C10.5253 7.30469 10.1406 7.68939 10.1406 8.16406ZM11 4.29688C10.5253 4.29688 10.1406 4.68158 10.1406 5.15625C10.1406 5.63092 10.5253 6.01562 11 6.01562C11.4747 6.01562 11.8594 5.63092 11.8594 5.15625C11.8594 4.68158 11.4747 4.29688 11 4.29688Z" fill="#F6CA13"/>
</svg>
