<svg width="20" height="20" viewBox="0 0 20 20" fill="none" xmlns="http://www.w3.org/2000/svg">
<path d="M4.6875 7.92969H3.14379C3.40457 4.375 6.37992 1.5625 10 1.5625C12.8646 1.5625 15.4567 3.3668 16.4502 6.0523C16.5999 6.45695 17.0493 6.66363 17.454 6.51398C17.8586 6.36426 18.0654 5.91488 17.9157 5.5102C17.3236 3.90957 16.2716 2.53988 14.8737 1.54918C13.4436 0.535703 11.7583 0 10 0C7.74629 0 5.62742 0.877656 4.03379 2.47129C2.46094 4.04414 1.58613 6.12867 1.56355 8.34949C0.629883 8.89051 0 9.90012 0 11.0547V13.7109C0 15.4341 1.40188 16.8359 3.125 16.8359H4.6875C5.11898 16.8359 5.46875 16.4862 5.46875 16.0547V8.71094C5.46875 8.27945 5.11898 7.92969 4.6875 7.92969ZM3.90625 15.2734H3.125C2.26344 15.2734 1.5625 14.5725 1.5625 13.7109V11.0547C1.5625 10.1931 2.26344 9.49219 3.125 9.49219H3.90625V15.2734Z" fill="#F6CA13"/>
<path d="M16.875 7.92969H15.3125C14.881 7.92969 14.5312 8.27945 14.5312 8.71094V14.0625V16.0547V16.875C14.5312 17.3058 14.1808 17.6562 13.75 17.6562H11.3672V17.681C11.1007 17.2004 10.5884 16.875 10 16.875C9.13707 16.875 8.4375 17.5746 8.4375 18.4375C8.4375 19.3004 9.13707 20 10 20C10.5884 20 11.1007 19.6746 11.3672 19.194V19.2188H13.75C15.0423 19.2188 16.0938 18.1673 16.0938 16.875V16.8359H16.875C18.5981 16.8359 20 15.4341 20 13.7109V11.0547C20 9.33156 18.5981 7.92969 16.875 7.92969ZM18.4375 13.7109C18.4375 14.5725 17.7366 15.2734 16.875 15.2734H16.0938V14.0625V9.49219H16.875C17.7366 9.49219 18.4375 10.1931 18.4375 11.0547V13.7109Z" fill="#F6CA13"/>
</svg>
