<svg width="22" height="22" viewBox="0 0 22 22" fill="none" xmlns="http://www.w3.org/2000/svg">
<path d="M18.7782 3.22182C16.7006 1.14421 13.9382 0 11 0C10.9909 0 10.9817 0.000335693 10.9726 0.000335693C10.9674 0.000335693 10.9622 0 10.957 0C10.9377 0 10.9186 0.00100708 10.8995 0.00117493C7.9989 0.0270233 5.27576 1.16805 3.22182 3.22182C1.14421 5.29942 0 8.06184 0 11C0 13.9382 1.14421 16.7006 3.22182 18.7782C5.27576 20.832 7.9989 21.973 10.8995 21.9988C10.9186 21.999 10.9377 22 10.957 22C10.9622 22 10.9674 21.9997 10.9726 21.9997C10.9817 21.9997 10.9909 22 11 22C13.0115 22 14.9796 21.4518 16.6917 20.4147C17.0977 20.1688 17.2274 19.6404 16.9816 19.2344C16.7355 18.8285 16.2071 18.6988 15.8013 18.9447C15.5849 19.0758 15.3635 19.1973 15.1381 19.3098C15.2887 19.0793 15.4338 18.8356 15.5725 18.5778C16.5582 16.7457 17.1457 14.3863 17.2546 11.8594H20.241C20.098 13.3844 19.575 14.8536 18.7074 16.1514C18.4437 16.5458 18.5496 17.0796 18.9442 17.3434C19.3388 17.6071 19.8725 17.501 20.1362 17.1066C21.3556 15.2829 22 13.1713 22 11C22 8.06184 20.8558 5.29942 18.7782 3.22182ZM20.2411 10.1406H17.2546C17.1457 7.61369 16.5582 5.25427 15.5725 3.42223C15.4348 3.16643 15.2908 2.92456 15.1416 2.69579C17.943 4.09865 19.94 6.87752 20.2411 10.1406ZM7.85506 17.7632C6.99904 16.1725 6.48459 14.1013 6.37968 11.8594H10.0977V20.1012C9.28075 19.7611 8.49371 18.9502 7.85506 17.7632ZM6.37968 10.1406C6.48459 7.8987 6.99904 5.82747 7.85506 4.23679C8.49371 3.04977 9.28075 2.23891 10.0977 1.89885V10.1406H6.37968ZM11.8164 1.89885C12.6333 2.23891 13.4203 3.04977 14.059 4.23679C14.915 5.82747 15.4295 7.8987 15.5344 10.1406H11.8164V1.89885ZM6.73048 2.76091C6.59621 2.97055 6.46629 3.1906 6.34158 3.42223C5.35582 5.25427 4.76836 7.61369 4.65942 10.1406H1.75887C2.05528 6.92737 3.99626 4.18358 6.73048 2.76091ZM1.75887 11.8594H4.65942C4.76836 14.3863 5.35582 16.7457 6.34158 18.5778C6.46613 18.8094 6.59621 19.0294 6.73048 19.2391C3.99626 17.8164 2.05528 15.0726 1.75887 11.8594ZM14.059 17.7632C13.4203 18.9502 12.6333 19.7611 11.8164 20.1012V11.8594H15.5344C15.4295 14.1013 14.915 16.1725 14.059 17.7632Z" fill="#F6CA13"/>
</svg>
