<svg width="27" height="32" viewBox="0 0 27 32" fill="none" xmlns="http://www.w3.org/2000/svg">
<path d="M25.3682 11.0646C25.0858 11.0646 24.857 11.2934 24.857 11.5757V29.5205C24.857 29.7726 24.652 29.9777 24.3999 29.9777H6.49426C6.21196 29.9777 5.98309 30.2065 5.98309 30.4888C5.98309 30.7711 6.21196 31 6.49426 31H24.3998C25.2157 31 25.8793 30.3363 25.8793 29.5205V11.5757C25.8794 11.2934 25.6505 11.0646 25.3682 11.0646Z" fill="#DA5BC1" stroke="#DA5BC1" stroke-width="0.3"/>
<path d="M24.3999 1H2.47949C1.66369 1 1 1.66375 1 2.47949V29.5205C1 30.3363 1.66363 30.9999 2.47949 30.9999H4.79042C5.07273 30.9999 5.30159 30.7711 5.30159 30.4888C5.30159 30.2065 5.07273 29.9776 4.79042 29.9776H2.47949C2.22742 29.9776 2.02234 29.7725 2.02234 29.5205V7.29442H24.857V9.93998C24.857 10.2223 25.0858 10.4512 25.3682 10.4512C25.6505 10.4512 25.8793 10.2223 25.8793 9.93998V2.47949C25.8794 1.66375 25.2157 1 24.3999 1ZM4.36609 2.0224H6.83499V3.00443H4.36609V2.0224ZM8.8093 6.27208H2.02234V2.47949C2.02234 2.22742 2.22742 2.02234 2.47949 2.02234H3.34375V3.51554C3.34375 3.79785 3.57261 4.02671 3.85492 4.02671H7.34622C7.62852 4.02671 7.85739 3.79785 7.85739 3.51554V2.0224H8.8093V6.27208ZM24.857 6.27208H18.0701V3.19263C18.0701 2.91033 17.8413 2.68146 17.5589 2.68146C17.2766 2.68146 17.0477 2.91033 17.0477 3.19263V6.27202H9.83164V2.0224H24.3999C24.652 2.0224 24.857 2.22748 24.857 2.47955V6.27208Z" fill="#DA5BC1" stroke="#DA5BC1" stroke-width="0.3"/>
<path d="M13.44 9.08179C8.12796 9.08179 3.80627 13.4035 3.80627 18.7156C3.80627 24.0276 8.12802 28.3494 13.4401 28.3494C15.5734 28.3494 17.5948 27.6663 19.2855 26.3739C19.5098 26.2024 19.5526 25.8816 19.3812 25.6574C19.2097 25.4331 18.8889 25.3902 18.6646 25.5617C17.1537 26.7166 15.3471 27.327 13.44 27.327C8.69169 27.327 4.82862 23.4639 4.82862 18.7156C4.82862 13.9673 8.69169 10.1042 13.44 10.1042C18.1884 10.1042 22.0514 13.9673 22.0514 18.7156C22.0514 20.7675 21.3177 22.7548 19.9856 24.3115C19.8021 24.5261 19.8272 24.8487 20.0416 25.0323C20.2561 25.216 20.5789 25.1906 20.7623 24.9762C22.2528 23.2346 23.0737 21.0112 23.0737 18.7156C23.0738 13.4034 18.7521 9.08179 13.44 9.08179Z" fill="#DA5BC1" stroke="#DA5BC1" stroke-width="0.3"/>
<path d="M23.4992 2.73834H19.4099C19.1276 2.73834 18.8987 2.96721 18.8987 3.24951C18.8987 3.53182 19.1276 3.76068 19.4099 3.76068H23.4992C23.7816 3.76068 24.0104 3.53182 24.0104 3.24951C24.0105 2.96727 23.7816 2.73834 23.4992 2.73834Z" fill="#DA5BC1"/>
<path d="M23.4992 4.53357H19.4099C19.1276 4.53357 18.8987 4.76244 18.8987 5.04474C18.8987 5.32704 19.1276 5.55591 19.4099 5.55591H23.4992C23.7816 5.55591 24.0104 5.32704 24.0104 5.04474C24.0104 4.76244 23.7816 4.53357 23.4992 4.53357Z" fill="#DA5BC1"/>
</svg>
