<svg width="22" height="22" viewBox="0 0 22 22" fill="none" xmlns="http://www.w3.org/2000/svg">
<path d="M15.5332 16.8438V18.5625C15.5332 20.458 13.9912 22 12.0957 22H3.45898C1.56349 22 0.0214844 20.458 0.0214844 18.5625V3.4375C0.0214844 1.54201 1.56349 0 3.45898 0H12.0957C13.9912 0 15.5332 1.54201 15.5332 3.4375V5.15625C15.5332 5.63092 15.1485 6.01562 14.6738 6.01562C14.1992 6.01562 13.8145 5.63092 13.8145 5.15625V3.4375C13.8145 2.48984 13.0434 1.71875 12.0957 1.71875H3.45898C2.51132 1.71875 1.74023 2.48984 1.74023 3.4375V18.5625C1.74023 19.5102 2.51132 20.2812 3.45898 20.2812H12.0957C13.0434 20.2812 13.8145 19.5102 13.8145 18.5625V16.8438C13.8145 16.3691 14.1992 15.9844 14.6738 15.9844C15.1485 15.9844 15.5332 16.3691 15.5332 16.8438ZM21.3922 9.52379L19.4679 7.59943C19.1322 7.26373 18.588 7.26373 18.2525 7.59943C17.9168 7.93495 17.9168 8.47911 18.2525 8.81464L19.6213 10.1836H9.30273C8.82806 10.1836 8.44336 10.5683 8.44336 11.043C8.44336 11.5176 8.82806 11.9023 9.30273 11.9023H19.6213L18.2525 13.2713C17.9168 13.6068 17.9168 14.151 18.2525 14.4865C18.4203 14.6544 18.6402 14.7383 18.8601 14.7383C19.0801 14.7383 19.3 14.6544 19.4679 14.4865L21.3922 12.5621C22.2299 11.7244 22.2299 10.3615 21.3922 9.52379Z" fill="#F6CA13"/>
</svg>
