<svg width="30" height="30" viewBox="0 0 30 30" fill="none" xmlns="http://www.w3.org/2000/svg">
<path d="M28.8281 17.0801C29.4754 17.0801 30 16.5554 30 15.9082V8.23242C30 5.64773 27.8972 3.54492 25.3125 3.54492H4.6875C2.10281 3.54492 0 5.64773 0 8.23242V21.7676C0 24.3523 2.10281 26.4551 4.6875 26.4551H25.3125C27.8972 26.4551 30 24.3523 30 21.7676C30 21.1204 29.4754 20.5957 28.8281 20.5957C28.1809 20.5957 27.6562 21.1204 27.6562 21.7676C27.6562 23.0599 26.6048 24.1113 25.3125 24.1113H4.6875C3.39516 24.1113 2.34375 23.0599 2.34375 21.7676V8.48074L12.5247 14.8115C13.2881 15.2862 14.1441 15.5235 15 15.5235C15.8559 15.5235 16.7119 15.2862 17.4753 14.8115L27.6562 8.48074V15.9082C27.6562 16.5554 28.1809 17.0801 28.8281 17.0801ZM16.2376 12.8211C15.4743 13.2958 14.5257 13.2959 13.7624 12.8211L3.32162 6.32883C3.70646 6.05191 4.17826 5.88867 4.6875 5.88867H25.3125C25.8217 5.88867 26.2935 6.05197 26.6784 6.32889L16.2376 12.8211Z" fill="#F6CA13"/>
</svg>
