<svg width="30" height="30" viewBox="0 0 30 30" fill="none" xmlns="http://www.w3.org/2000/svg">
<path d="M21.3281 28.8281C21.3281 29.4754 20.8035 30 20.1562 30H5.85938C3.27461 30 1.17188 27.8973 1.17188 25.3125V12.3047C1.17188 11.6574 1.69647 11.1328 2.34375 11.1328C2.99103 11.1328 3.51562 11.6574 3.51562 12.3047V25.3125C3.51562 26.6048 4.56711 27.6562 5.85938 27.6562H20.1562C20.8035 27.6562 21.3281 28.1808 21.3281 28.8281ZM30 3.51562V7.03125C30 7.67853 29.4754 8.20312 28.8281 8.20312V16.7578C28.8281 17.4051 28.3035 17.9297 27.6562 17.9297C27.009 17.9297 26.4844 17.4051 26.4844 16.7578V8.20312H1.17188C0.524597 8.20312 0 7.67853 0 7.03125V3.51562C0 1.577 1.577 0 3.51562 0H26.4844C28.423 0 30 1.577 30 3.51562ZM2.34375 5.85938H27.6562V3.51562C27.6562 2.86949 27.1305 2.34375 26.4844 2.34375H3.51562C2.86949 2.34375 2.34375 2.86949 2.34375 3.51562V5.85938ZM17.5781 12.8906C18.2254 12.8906 18.75 12.366 18.75 11.7188C18.75 11.0715 18.2254 10.5469 17.5781 10.5469H12.3047C11.6574 10.5469 11.1328 11.0715 11.1328 11.7188C11.1328 12.366 11.6574 12.8906 12.3047 12.8906H17.5781ZM24.8145 19.6289H18.6333L20.1013 18.1771C20.5616 17.7219 20.5657 16.9798 20.1105 16.5198C19.6555 16.0597 18.9134 16.0554 18.4534 16.5106L16.2772 18.6626C15.7191 19.2144 15.4113 19.9493 15.4102 20.7321C15.409 21.5149 15.7148 22.2505 16.2712 22.804L18.4509 24.9715C18.6797 25.199 18.9784 25.3125 19.2773 25.3125C19.5783 25.3125 19.8793 25.1971 20.1084 24.9669C20.5648 24.508 20.5625 23.7662 20.1036 23.3098L18.7592 21.9727H24.8145C26.3814 21.9727 27.6562 23.2475 27.6562 24.8145C27.6562 26.3814 26.396 27.6562 24.847 27.6562C24.1997 27.6562 23.6751 28.1808 23.6751 28.8281C23.6751 29.4754 24.1997 30 24.847 30C26.2324 30 27.5306 29.4589 28.502 28.4766C29.4681 27.4997 30 26.1992 30 24.8145C30 21.955 27.6739 19.6289 24.8145 19.6289Z" fill="black"/>
<path d="M24.8145 19.6289H18.6333L20.1013 18.1771C20.5616 17.7219 20.5657 16.9798 20.1105 16.5198C19.6555 16.0597 18.9134 16.0554 18.4534 16.5106L16.2772 18.6626C15.7191 19.2144 15.4113 19.9493 15.4102 20.7321C15.409 21.5149 15.7148 22.2505 16.2712 22.804L18.4509 24.9715C18.6797 25.199 18.9784 25.3125 19.2773 25.3125C19.5783 25.3125 19.8793 25.1971 20.1084 24.9669C20.5648 24.508 20.5625 23.7662 20.1036 23.3098L18.7592 21.9727H24.8145C26.3814 21.9727 27.6562 23.2475 27.6562 24.8145C27.6562 26.3814 26.396 27.6562 24.847 27.6562C24.1997 27.6562 23.6751 28.1808 23.6751 28.8281C23.6751 29.4754 24.1997 30 24.847 30C26.2324 30 27.5306 29.4589 28.502 28.4766C29.4681 27.4997 30 26.1992 30 24.8145C30 21.955 27.6739 19.6289 24.8145 19.6289Z" fill="#F6CA13"/>
</svg>
