<svg width="31" height="31" viewBox="0 0 31 31" fill="none" xmlns="http://www.w3.org/2000/svg">
<g clip-path="url(#clip0)">
<path d="M29.4352 1.15039H6.75452C5.89173 1.15039 5.19 1.85236 5.19 2.71515V5.09043H1.56476C0.701965 5.09043 0 5.7924 0 6.65519V26.7894C0 28.4627 1.35592 29.8255 3.02711 29.8375H3.03326C3.0387 29.8378 3.04366 29.8383 3.0491 29.8383H19.1127C19.3634 29.8383 19.5668 29.6351 19.5668 29.3842C19.5668 29.1335 19.3634 28.9301 19.1127 28.9301H5.21815C5.76189 28.3792 6.09821 27.6229 6.09821 26.7894V16.1703C6.09821 15.9196 5.89481 15.7162 5.6441 15.7162C5.39317 15.7162 5.19 15.9196 5.19 16.1703V26.7894C5.19 27.9658 4.23592 28.9234 3.06069 28.9298C3.05691 28.9298 3.05312 28.9293 3.0491 28.9293C1.86868 28.9291 0.908203 27.9691 0.908203 26.7894V6.65519C0.908203 6.29333 1.20266 5.99863 1.56476 5.99863H5.19V14.475C5.19 14.7259 5.39317 14.9291 5.6441 14.9291C5.89481 14.9291 6.09821 14.7259 6.09821 14.475V2.71515C6.09821 2.35305 6.39266 2.05859 6.75452 2.05859H29.4352C29.7973 2.05859 30.0918 2.35305 30.0918 2.71515V26.7894C30.0918 27.9698 29.1313 28.9301 27.9509 28.9301H20.808C20.5571 28.9301 20.3539 29.1335 20.3539 29.3842C20.3539 29.6351 20.5571 29.8383 20.808 29.8383H27.9509C29.6323 29.8383 31 28.4705 31 26.7894V2.71515C31 1.85236 30.298 1.15039 29.4352 1.15039V1.15039Z" fill="#F6CA13"/>
<path d="M9.9491 19.2696H16.1772C16.7696 19.2696 17.2516 18.7876 17.2516 18.1951V11.967C17.2516 11.3746 16.7696 10.8926 16.1772 10.8926H9.9491C9.35664 10.8926 8.87463 11.3746 8.87463 11.967V18.1951C8.87463 18.7876 9.35664 19.2696 9.9491 19.2696ZM9.78284 11.967C9.78284 11.8753 9.85734 11.8008 9.9491 11.8008H16.1772C16.2687 11.8008 16.3434 11.8753 16.3434 11.967V18.1951C16.3434 18.2866 16.2687 18.3614 16.1772 18.3614H9.9491C9.85734 18.3614 9.78284 18.2866 9.78284 18.1951V11.967Z" fill="#F6CA13"/>
<path d="M18.9022 11.8008H27.3303C27.581 11.8008 27.7844 11.5976 27.7844 11.3467C27.7844 11.0957 27.581 10.8926 27.3303 10.8926H18.9022C18.6515 10.8926 18.4481 11.0957 18.4481 11.3467C18.4481 11.5976 18.6515 11.8008 18.9022 11.8008Z" fill="#F6CA13"/>
<path d="M18.9022 15.5352H27.3303C27.581 15.5352 27.7844 15.3318 27.7844 15.0811C27.7844 14.8301 27.581 14.627 27.3303 14.627H18.9022C18.6515 14.627 18.4481 14.8301 18.4481 15.0811C18.4481 15.3318 18.6515 15.5352 18.9022 15.5352Z" fill="#F6CA13"/>
<path d="M18.9022 19.2695H27.3303C27.581 19.2695 27.7844 19.0661 27.7844 18.8154C27.7844 18.5645 27.581 18.3613 27.3303 18.3613H18.9022C18.6515 18.3613 18.4481 18.5645 18.4481 18.8154C18.4481 19.0661 18.6515 19.2695 18.9022 19.2695Z" fill="#F6CA13"/>
<path d="M9.32874 23.0039H27.3303C27.581 23.0039 27.7844 22.8007 27.7844 22.5498C27.7844 22.2991 27.581 22.0957 27.3303 22.0957H9.32874C9.07803 22.0957 8.87463 22.2991 8.87463 22.5498C8.87463 22.8007 9.07803 23.0039 9.32874 23.0039Z" fill="#F6CA13"/>
<path d="M9.32874 26.7383H27.3303C27.581 26.7383 27.7844 26.5351 27.7844 26.2842C27.7844 26.0332 27.581 25.8301 27.3303 25.8301H9.32874C9.07803 25.8301 8.87463 26.0332 8.87463 26.2842C8.87463 26.5351 9.07803 26.7383 9.32874 26.7383Z" fill="#F6CA13"/>
<path d="M8.88623 8.56932V3.77098C8.88623 3.67236 8.93306 3.59715 9.02672 3.54559C9.12038 3.49379 9.2339 3.46777 9.36682 3.46777C9.54444 3.46777 9.67973 3.49994 9.77362 3.56403C9.86704 3.62813 9.97063 3.76625 10.0842 3.97793L11.511 6.73589V3.76365C11.511 3.66502 11.5579 3.59123 11.6515 3.5418C11.7449 3.49261 11.8585 3.46777 11.9916 3.46777C12.1248 3.46777 12.2381 3.49261 12.3317 3.5418C12.4254 3.59123 12.4722 3.66502 12.4722 3.76365V8.56932C12.4722 8.66322 12.424 8.73701 12.3279 8.79117C12.2319 8.84557 12.1198 8.87253 11.9916 8.87253C11.7303 8.87253 11.5453 8.77154 11.437 8.56932L9.84741 5.59708V8.56932C9.84741 8.66322 9.7994 8.73701 9.70338 8.79117C9.60735 8.84557 9.49501 8.87253 9.36682 8.87253C9.2339 8.87253 9.12038 8.84557 9.02695 8.79117C8.93306 8.73701 8.88623 8.66322 8.88623 8.56932Z" fill="#F6CA13"/>
<path d="M13.3594 8.56932V3.77098C13.3594 3.67732 13.4012 3.60353 13.4852 3.54913C13.5689 3.49497 13.6673 3.46777 13.7808 3.46777H16.413C16.5114 3.46777 16.5868 3.50987 16.6384 3.5936C16.6902 3.67732 16.7162 3.77358 16.7162 3.8819C16.7162 4.00016 16.689 4.10139 16.6348 4.18511C16.5804 4.26907 16.5064 4.3107 16.413 4.3107H14.3206V5.78937H15.4445C15.5379 5.78937 15.6119 5.82768 15.6663 5.90408C15.7205 5.98047 15.7477 6.07034 15.7477 6.17393C15.7477 6.26759 15.7217 6.3525 15.6699 6.42913C15.6181 6.50552 15.5431 6.5436 15.4445 6.5436H14.3206V8.02984H16.413C16.5064 8.02984 16.5804 8.0717 16.6348 8.15543C16.689 8.23939 16.7162 8.34038 16.7162 8.45863C16.7162 8.56696 16.6902 8.66322 16.6384 8.74694C16.5868 8.8309 16.5114 8.87253 16.413 8.87253H13.7808C13.6673 8.87253 13.5689 8.84557 13.4852 8.7914C13.4012 8.73701 13.3594 8.66322 13.3594 8.56932Z" fill="#F6CA13"/>
<path d="M17.1968 3.85234C17.1968 3.74875 17.2632 3.65887 17.3964 3.58248C17.5293 3.50609 17.6674 3.46777 17.8103 3.46777C17.9879 3.46777 18.0939 3.53187 18.1282 3.66006L19.2965 7.6675L19.9249 5.0945C19.9692 4.91688 20.1269 4.82819 20.398 4.82819C20.6643 4.82819 20.8194 4.91688 20.8639 5.0945L21.4923 7.6675L22.6604 3.66006C22.695 3.53187 22.8009 3.46777 22.9785 3.46777C23.1214 3.46777 23.2593 3.50609 23.3924 3.58248C23.5256 3.65887 23.592 3.74875 23.592 3.85234C23.592 3.8819 23.5871 3.91147 23.5774 3.94103L22.1134 8.59155C22.0393 8.80867 21.8298 8.91699 21.485 8.91699C21.3371 8.91699 21.204 8.88861 21.0857 8.83185C20.9675 8.77532 20.8958 8.69514 20.8712 8.59155L20.3982 6.5954L19.9176 8.59155C19.8928 8.69514 19.8213 8.77532 19.7031 8.83185C19.5848 8.88861 19.4517 8.91699 19.3039 8.91699C19.1511 8.91699 19.0155 8.88861 18.8973 8.83185C18.7788 8.77532 18.705 8.69514 18.6754 8.59155L17.2114 3.94103C17.2015 3.91147 17.1968 3.8819 17.1968 3.85234Z" fill="#F6CA13"/>
<path d="M23.8361 8.02229C23.8361 7.909 23.8791 7.7943 23.9654 7.67841C24.0515 7.56275 24.149 7.50481 24.2575 7.50481C24.3214 7.50481 24.3942 7.53555 24.4756 7.59705C24.5569 7.6583 24.6357 7.72642 24.7121 7.80045C24.7885 7.87471 24.8982 7.94259 25.0413 8.00408C25.1842 8.06557 25.3419 8.09608 25.5143 8.09608C25.7511 8.09608 25.9481 8.04192 26.1059 7.93336C26.2636 7.82504 26.3424 7.66492 26.3424 7.45301C26.3424 7.30495 26.2993 7.17322 26.213 7.05733C26.1269 6.94167 26.0134 6.84541 25.8729 6.76902C25.7326 6.69263 25.5784 6.6186 25.411 6.54717C25.2433 6.47575 25.0744 6.39557 24.9044 6.30688C24.7343 6.21819 24.5792 6.11838 24.4387 6.00745C24.2982 5.89653 24.1847 5.74871 24.0986 5.56376C24.0123 5.37904 23.9692 5.16831 23.9692 4.9318C23.9692 4.66667 24.0222 4.43253 24.1282 4.23007C24.2341 4.02738 24.3758 3.86987 24.5532 3.75729C24.7305 3.64471 24.9202 3.56216 25.1224 3.50966C25.3244 3.45715 25.5389 3.43066 25.7658 3.43066C25.8937 3.43066 26.0292 3.43965 26.1723 3.45739C26.3152 3.47513 26.4668 3.50422 26.6271 3.54466C26.7872 3.58511 26.9178 3.64849 27.0188 3.73434C27.1198 3.82043 27.1704 3.92166 27.1704 4.03826C27.1704 4.148 27.1359 4.26153 27.067 4.37884C26.998 4.49615 26.9043 4.55457 26.7861 4.55457C26.7416 4.55457 26.6207 4.50774 26.4237 4.41408C26.2265 4.32042 26.0072 4.27359 25.7658 4.27359C25.4994 4.27359 25.2937 4.3242 25.1485 4.42519C25.003 4.52642 24.9302 4.66549 24.9302 4.84287C24.9302 4.98596 24.9893 5.11037 25.1078 5.21632C25.226 5.32228 25.3727 5.40861 25.5477 5.47507C25.7225 5.54153 25.9124 5.62549 26.117 5.72648C26.3213 5.82747 26.5112 5.93721 26.6863 6.05547C26.861 6.17372 27.0079 6.34496 27.1262 6.56917C27.2444 6.79362 27.3036 7.05614 27.3036 7.35675C27.3036 7.86217 27.142 8.25242 26.8194 8.52701C26.4963 8.8016 26.0713 8.93901 25.5439 8.93901C25.0756 8.93901 24.674 8.84275 24.3389 8.65047C24.0035 8.45866 23.8361 8.24911 23.8361 8.02229Z" fill="#F6CA13"/>
</g>
<defs>
<clipPath id="clip0">
<path d="M0 0H31V31H0V0Z" fill="white"/>
</clipPath>
</defs>
</svg>
