<svg width="21" height="21" viewBox="0 0 21 21" fill="none" xmlns="http://www.w3.org/2000/svg">
<path d="M19.6791 9.88519L0.598087 0.0669386C0.533287 0.013896 0.458086 -0.00854146 0.383536 0.0029244C0.308986 0.0143903 0.23902 0.0591546 0.183922 0.130638C0.0785923 0.264898 0.012994 0.449842 0.00012118 0.648837V7.55931C0.00172709 7.99297 0.106781 8.41334 0.298485 8.75322C0.490188 9.0931 0.757469 9.33285 1.05759 9.43413L4.36601 10.5325L1.05759 11.6309C0.757643 11.7085 0.486923 11.9327 0.293376 12.2639C0.0998295 12.5951 -0.00405501 13.0118 0.00012118 13.4403V20.3525C0.0132915 20.5509 0.078865 20.7351 0.183922 20.869C0.267754 20.9405 0.361987 20.9847 0.459624 20.9981C0.484716 21.0024 0.51018 20.9988 0.534143 20.9875C0.558105 20.9761 0.579956 20.9574 0.598087 20.9327L19.6791 11.049C19.7701 11.0133 19.8505 10.9374 19.9085 10.8327C19.9665 10.7279 19.9991 10.5998 20.0013 10.4671C19.9924 10.3372 19.9574 10.2135 19.9003 10.1104C19.8433 10.0074 19.7665 9.92929 19.6791 9.88519Z" fill="url(#paint0_radial)"/>
<defs>
<radialGradient id="paint0_radial" cx="0" cy="0" r="1" gradientUnits="userSpaceOnUse" gradientTransform="translate(-12.5633 -39.8997) rotate(69.7602) scale(80.7613 77.8634)">
<stop stop-color="#FB72AD"/>
<stop offset="1" stop-color="#B643D5"/>
</radialGradient>
</defs>
</svg>
