<svg width="34" height="34" viewBox="0 0 34 34" fill="none" xmlns="http://www.w3.org/2000/svg">
<path d="M30.8063 12.194C29.6854 5.72535 23.7313 1.10026 17.2571 1.07153C10.7829 1.04279 4.78818 5.61496 3.60978 12.0733C2.18528 12.2891 1.08754 13.51 1.08099 14.9845L1.07405 16.5476C1.07135 17.1565 2.01554 17.1607 2.01824 16.5518L2.02518 14.9887C2.03011 13.8779 2.94753 12.9783 4.07029 12.9833L5.05552 12.9877L5.01204 22.7839L4.02681 22.7795C2.90404 22.7746 1.99465 21.8669 1.99958 20.7562L2.00762 18.9437C2.01033 18.3349 1.06614 18.3307 1.06344 18.9396L1.05539 20.752C1.04815 22.3834 2.37923 23.7165 4.02262 23.7238L5.0582 23.7284C5.48873 25.3649 7.99641 25.0543 8.00394 23.3589L8.05241 12.4394C8.05992 10.7469 5.55594 10.4083 5.11007 12.0438L4.57767 12.0414C5.76348 6.12451 11.3039 1.98931 17.2529 2.01571C23.2019 2.04212 28.7055 6.22628 29.8388 12.1536L29.3064 12.1512C28.8759 10.5147 26.3682 10.8253 26.3606 12.5206L26.3122 23.4402C26.3047 25.1327 28.8088 25.4714 29.2546 23.8358L29.7807 23.8381C28.9136 28.3206 24.7997 31.2269 20.3428 31.3483C20.1447 30.7604 19.5871 30.3342 18.9295 30.3313L15.3252 30.3153C14.514 30.3117 13.825 30.9831 13.8214 31.7969C13.8178 32.6107 14.5008 33.2882 15.312 33.2918L18.9163 33.3078C19.5778 33.3107 20.1421 32.8844 20.3423 32.2927C25.3358 32.1677 29.8756 28.8334 30.7458 23.8078C32.1747 23.5958 33.2771 22.3727 33.2836 20.8951L33.3092 15.1276C33.3158 13.6531 32.2289 12.4225 30.8063 12.194ZM6.0022 12.4303C6.00532 11.7279 7.11134 11.7324 7.10822 12.4352L7.05975 23.3547C7.05663 24.0572 5.95061 24.0527 5.95373 23.3498L6.0022 12.4303ZM18.9205 32.3636L15.3162 32.3476C14.6051 32.3444 14.6094 31.2563 15.321 31.2594L18.9253 31.2754C19.6365 31.2786 19.6321 32.3668 18.9205 32.3636ZM28.3624 23.4493C28.3593 24.1517 27.2532 24.1472 27.2564 23.4444L27.3048 12.5248C27.3079 11.8224 28.414 11.827 28.4109 12.5297L28.3624 23.4493ZM32.3395 20.8909C32.3345 22.0016 31.417 22.9012 30.2942 22.8962L29.3091 22.8918L29.3526 13.0956L30.3377 13.1C31.4605 13.105 32.37 14.0127 32.3651 15.1234L32.3395 20.8909Z" fill="#DA5BC1" stroke="#DA5BC1" stroke-width="0.5"/>
</svg>
