<svg width="46" height="46" viewBox="0 0 46 46" fill="none" xmlns="http://www.w3.org/2000/svg">
<circle cx="23" cy="23" r="22" stroke="url(#paint0_radial)"/>
<path d="M15.7359 16.2757C15.0568 16.9252 14.3194 17.7008 14.055 18.231C13.3855 19.5737 14.3898 23.2662 18.072 27.2943C21.0177 30.5168 24.6553 31.9044 26.7754 32.1282C28.0256 32.2602 29.1982 31.1391 29.9499 30.197C30.5007 29.5068 30.3724 28.5376 29.7591 27.9022L28.3758 26.4688C27.5309 25.5934 26.1197 25.683 25.2791 26.5625C24.953 26.9037 24.6428 27.1888 24.4322 27.2945C23.344 27.84 18.4068 22.595 18.7415 21.5878C18.9127 21.3302 19.1715 21.0507 19.4619 20.7773C20.3933 19.9004 20.5427 18.3995 19.6183 17.5153L18.3637 16.3152C17.6263 15.6098 16.4733 15.5703 15.7359 16.2757Z" stroke="url(#paint1_radial)" stroke-width="2"/>
<path fill-rule="evenodd" clip-rule="evenodd" d="M23.763 13.5385C23.2107 13.5385 22.763 13.9862 22.763 14.5385C22.763 15.0908 23.2107 15.5385 23.763 15.5385C25.0796 15.5385 26.7675 16.363 28.1698 17.7302C29.5677 19.0931 30.4621 20.7814 30.4621 22.2591C30.4621 22.8114 30.9098 23.2591 31.4621 23.2591C32.0144 23.2591 32.4621 22.8114 32.4621 22.2591C32.4621 20.0444 31.1807 17.8724 29.5659 16.2981C27.9555 14.7281 25.7938 13.5385 23.763 13.5385ZM23.763 16.8953C23.2107 16.8953 22.763 17.343 22.763 17.8953C22.763 18.4476 23.2107 18.8953 23.763 18.8953C23.8352 18.8953 24.0771 18.931 24.4453 19.0796C24.7937 19.2202 25.1938 19.4375 25.5774 19.7347C26.3432 20.3282 26.9905 21.1941 27.1208 22.3692C27.1816 22.9182 27.6759 23.3138 28.2248 23.253C28.7737 23.1922 29.1694 22.6979 29.1086 22.149C28.9041 20.303 27.8777 18.987 26.8024 18.1538C26.2654 17.7377 25.7032 17.4305 25.1938 17.2249C24.7042 17.0274 24.1929 16.8953 23.763 16.8953Z" fill="url(#paint2_radial)"/>
<defs>
<radialGradient id="paint0_radial" cx="0" cy="0" r="1" gradientUnits="userSpaceOnUse" gradientTransform="translate(-26.6375 -82.6) rotate(68.8374) scale(170.248)">
<stop stop-color="#FB72AD"/>
<stop offset="1" stop-color="#B643D5"/>
</radialGradient>
<radialGradient id="paint1_radial" cx="0" cy="0" r="1" gradientUnits="userSpaceOnUse" gradientTransform="translate(3.22699 -17.3445) rotate(68.9874) scale(65.9559 65.5758)">
<stop stop-color="#FB72AD"/>
<stop offset="1" stop-color="#B643D5"/>
</radialGradient>
<radialGradient id="paint2_radial" cx="0" cy="0" r="1" gradientUnits="userSpaceOnUse" gradientTransform="translate(16.6707 -4.93076) rotate(68.8802) scale(37.6012 37.5395)">
<stop stop-color="#FB72AD"/>
<stop offset="1" stop-color="#B643D5"/>
</radialGradient>
</defs>
</svg>
