<svg width="46" height="46" viewBox="0 0 46 46" fill="none" xmlns="http://www.w3.org/2000/svg">
  <circle cx="23" cy="23" r="22" stroke="url(#paint0_radial)" />
  <path d="M30.8818 14H15.4182C14.1999 14 13.2091 15.0091 13.2091 16.25V21.875H15.4182V18.5L22.4873 23.9C22.6786 24.0459 22.9111 24.1247 23.15 24.1247C23.389 24.1247 23.6215 24.0459 23.8127 23.9L30.8818 18.5V28.625H22.0455V30.875H30.8818C32.1001 30.875 33.0909 29.8659 33.0909 28.625V16.25C33.0909 15.0091 32.1001 14 30.8818 14ZM23.15 21.5938L16.1538 16.25H30.1462L23.15 21.5938Z" fill="url(#paint1_radial)" />
  <path d="M11 22.9998H18.7318V25.2498H11V22.9998ZM13.2091 26.3748H19.8364V28.6248H13.2091V26.3748ZM16.5227 29.7498H20.9409V31.9998H16.5227V29.7498Z" fill="url(#paint2_radial)" />
  <defs>
    <radialGradient id="paint0_radial" cx="0" cy="0" r="1" gradientUnits="userSpaceOnUse" gradientTransform="translate(-26.6375 -82.6) rotate(68.8374) scale(170.248)">
      <stop stop-color="#FB72AD" />
      <stop offset="1" stop-color="#B643D5" />
    </radialGradient>
    <radialGradient id="paint1_radial" cx="0" cy="0" r="1" gradientUnits="userSpaceOnUse" gradientTransform="translate(0.720841 -18.0625) rotate(65.4822) scale(66.9252 75.0535)">
      <stop stop-color="#FB72AD" />
      <stop offset="1" stop-color="#B643D5" />
    </radialGradient>
    <radialGradient id="paint2_radial" cx="0" cy="0" r="1" gradientUnits="userSpaceOnUse" gradientTransform="translate(4.75587 5.89982) rotate(66.8486) scale(35.3193 37.9243)">
      <stop stop-color="#FB72AD" />
      <stop offset="1" stop-color="#B643D5" />
    </radialGradient>
  </defs>
</svg>