<svg width="28" height="28" viewBox="0 0 28 28" fill="none" xmlns="http://www.w3.org/2000/svg">
<g clip-path="url(#clip0)">
<path d="M23.0405 24.5027C22.8121 24.5027 22.6027 24.3544 22.5258 24.1398C22.4497 23.9276 22.5153 23.685 22.6869 23.5391C22.8656 23.3872 23.1296 23.3684 23.329 23.4914C23.5201 23.6093 23.6206 23.8427 23.5763 24.0625C23.5255 24.3147 23.2985 24.5027 23.0405 24.5027Z" fill="#F6CA13"/>
<path d="M24.3806 4.60719C21.6399 1.5774 17.724 -0.0998286 13.6365 0.00460168C13.6354 0.00460168 13.6344 0.00465635 13.6333 0.00471103C13.6331 0.00471103 13.6329 0.00471103 13.6326 0.00471103C12.7005 0.0287136 11.768 0.146266 10.8612 0.354033C10.855 0.355455 10.8488 0.35704 10.8426 0.358681C8.5336 0.890619 6.37906 2.01683 4.61074 3.61641C2.83855 5.21945 1.50014 7.25682 0.740262 9.50831C0.740098 9.5088 0.739879 9.50929 0.739715 9.50978C0.442609 10.3904 0.232545 11.3055 0.115375 12.2297C0.115321 12.2303 0.115211 12.2309 0.115157 12.2314C-0.399231 16.2894 0.878209 20.3552 3.61997 23.3863C6.35861 26.4139 10.1617 28.0002 14.0097 28C16.5357 27.9999 19.0814 27.316 21.3566 25.9075C21.6133 25.7485 21.6926 25.4115 21.5336 25.1548C21.3746 24.8981 21.0377 24.8187 20.7809 24.9777C18.6835 26.2763 16.3381 26.9066 14.0092 26.9063C10.4625 26.9061 6.95534 25.4436 4.43086 22.6527C2.0101 19.9765 0.827634 16.4251 1.14863 12.8431C1.41348 12.8362 1.67997 12.8215 1.94542 12.7989C2.56571 12.7458 3.15654 12.9753 3.56622 13.4282L3.58416 13.448C3.89384 13.7904 4.07121 14.2338 4.08367 14.6966C4.15049 17.1726 5.11048 19.5435 6.78678 21.3727C8.66368 23.4211 11.2173 24.6081 13.9773 24.7152C14.1132 24.7204 14.2486 24.723 14.3839 24.723C16.9974 24.723 19.4793 23.7423 21.4113 21.937C23.3953 20.0832 24.5516 17.5667 24.6669 14.8513C24.7824 12.1328 23.8407 9.52422 22.0152 7.50609C20.369 5.6861 18.1235 4.51216 15.6924 4.20046C15.2302 4.14124 14.805 3.92003 14.4951 3.57743L14.4777 3.55813C14.0732 3.11105 13.8983 2.49294 14.0097 1.90469C14.06 1.63869 14.1028 1.3675 14.1375 1.09423C17.7329 1.13256 21.149 2.66484 23.5695 5.34083C27.7139 9.92253 28.0285 16.8236 24.3174 21.7503L24.2806 21.7989C24.0975 22.0391 24.1439 22.3821 24.384 22.5652C24.4831 22.6406 24.5995 22.6771 24.715 22.6771C24.8798 22.6771 25.0427 22.6029 25.1503 22.4617L25.191 22.408C29.217 17.0634 28.8761 9.57709 24.3806 4.60719ZM5.34433 4.42736C6.7748 3.13341 8.47876 2.1756 10.3123 1.62907C10.1341 3.22084 10.6508 4.84355 11.7333 6.04035L11.751 6.05992C12.652 7.05589 13.8845 7.69887 15.2218 7.8705C16.7786 8.07007 18.2168 8.82213 19.2714 9.98803C20.4412 11.2812 21.0446 12.9526 20.9705 14.6943C20.8966 16.4342 20.156 18.0462 18.8852 19.2332C18.8836 19.2347 18.882 19.2361 18.8805 19.2377C18.8555 19.2616 18.8302 19.2843 18.8028 19.3092C17.497 20.4903 15.8167 21.096 14.0719 21.0156C12.3249 20.9348 10.7065 20.1739 9.51459 18.8729C8.44033 17.701 7.82528 16.1824 7.7828 14.5966C7.74606 13.2513 7.22959 11.9618 6.32827 10.9653L6.31055 10.9457C5.24323 9.76572 3.70023 9.09206 2.10901 9.09206C2.09348 9.09206 2.07812 9.09212 2.06259 9.09223C2.7901 7.32167 3.9139 5.7212 5.34433 4.42736ZM15.5535 5.28506C17.726 5.56363 19.7329 6.61291 21.2043 8.23962C24.5546 11.9434 24.3125 17.7296 20.6647 21.138C18.8477 22.8358 16.4877 23.7184 14.0197 23.6224C11.5536 23.5267 9.27129 22.4654 7.59308 20.6339C6.09464 18.9988 5.23656 16.8797 5.17685 14.6671C5.15739 13.9436 4.87975 13.2501 4.39521 12.7143L4.37722 12.6945C3.74589 11.9965 2.80219 11.6284 1.85275 11.7092C1.6669 11.725 1.48051 11.7366 1.29473 11.7441C1.38653 11.2246 1.51009 10.7104 1.66411 10.2068C1.68407 10.2053 1.70414 10.2036 1.72415 10.2019C3.14199 10.0809 4.55339 10.6333 5.49982 11.6796L5.51754 11.6991C6.24374 12.502 6.66004 13.5416 6.68967 14.6261C6.73921 16.4751 7.45617 18.2457 8.70835 19.6116C10.0967 21.1272 11.9835 22.0138 14.0213 22.108C14.1416 22.1135 14.2615 22.1163 14.3811 22.1163C16.2864 22.1163 18.1051 21.4147 19.5381 20.1184C19.5704 20.0892 19.6022 20.0603 19.6338 20.0302C21.1142 18.6465 21.9769 16.7681 22.0631 14.7408C22.1495 12.7104 21.446 10.762 20.0824 9.2545C18.853 7.89527 17.1762 7.01855 15.361 6.78585C14.2822 6.64741 13.2882 6.12908 12.5622 5.32645L12.5444 5.30687C11.5964 4.2588 11.1868 2.80585 11.4485 1.42108C11.4534 1.39533 11.4582 1.36941 11.463 1.34333C11.9794 1.24043 12.5034 1.16892 13.0296 1.12955C13.0024 1.32212 12.971 1.51305 12.9354 1.70113C12.7607 2.62373 13.0341 3.59208 13.667 4.29177L13.6844 4.31107C14.1689 4.84683 14.8327 5.19271 15.5535 5.28506Z" fill="#F6CA13"/>
</g>
<defs>
<clipPath id="clip0">
<rect width="28" height="28" fill="white"/>
</clipPath>
</defs>
</svg>
