<svg width="28" height="28" viewBox="0 0 28 28" fill="none" xmlns="http://www.w3.org/2000/svg">
<g clip-path="url(#clip0)">
<path d="M23.0405 24.5028C22.8121 24.5028 22.6027 24.3545 22.5257 24.1399C22.4496 23.9277 22.5153 23.6851 22.6869 23.5392C22.8656 23.3873 23.1296 23.3685 23.329 23.4915C23.5201 23.6093 23.6206 23.8428 23.5763 24.0626C23.5255 24.3148 23.2985 24.5028 23.0405 24.5028Z" fill="#DA5BC1"/>
<path d="M24.3806 4.60719C21.64 1.5774 17.724 -0.0998286 13.6366 0.00460168C13.6355 0.00460168 13.6344 0.00465635 13.6333 0.00471103C13.6331 0.00471103 13.6329 0.00471103 13.6327 0.00471103C12.7005 0.0287136 11.768 0.146266 10.8612 0.354033C10.855 0.355455 10.8488 0.35704 10.8426 0.358681C8.53364 0.890619 6.37909 2.01683 4.61077 3.61641C2.83858 5.21945 1.50017 7.25682 0.740293 9.50831C0.740129 9.5088 0.73991 9.50929 0.739746 9.50978C0.442639 10.3904 0.232576 11.3055 0.115406 12.2297C0.115351 12.2303 0.115242 12.2309 0.115187 12.2314C-0.3992 16.2894 0.878239 20.3552 3.62 23.3863C6.35864 26.4139 10.1618 28.0002 14.0097 28C16.5357 27.9999 19.0815 27.316 21.3566 25.9075C21.6133 25.7485 21.6926 25.4115 21.5336 25.1548C21.3747 24.8981 21.0377 24.8187 20.7809 24.9777C18.6835 26.2763 16.3381 26.9066 14.0093 26.9063C10.4625 26.9061 6.95537 25.4436 4.43089 22.6527C2.01013 19.9765 0.827664 16.4251 1.14866 12.8431C1.41351 12.8362 1.68 12.8215 1.94545 12.7989C2.56575 12.7458 3.15657 12.9753 3.56625 13.4282L3.58419 13.448C3.89387 13.7904 4.07124 14.2338 4.0837 14.6966C4.15052 17.1726 5.11051 19.5435 6.78681 21.3727C8.66371 23.4211 11.2173 24.6081 13.9774 24.7152C14.1132 24.7204 14.2487 24.723 14.3839 24.723C16.9974 24.723 19.4793 23.7423 21.4113 21.937C23.3954 20.0832 24.5516 17.5667 24.667 14.8513C24.7824 12.1328 23.8408 9.52422 22.0153 7.50609C20.369 5.6861 18.1236 4.51216 15.6925 4.20046C15.2302 4.14124 14.805 3.92003 14.4951 3.57743L14.4777 3.55813C14.0733 3.11105 13.8983 2.49294 14.0097 1.90469C14.0601 1.63869 14.1028 1.3675 14.1375 1.09423C17.7329 1.13256 21.149 2.66484 23.5696 5.34083C27.7139 9.92253 28.0285 16.8236 24.3174 21.7503L24.2806 21.7989C24.0976 22.0391 24.1439 22.3821 24.3841 22.5652C24.4831 22.6406 24.5995 22.6771 24.7151 22.6771C24.8799 22.6771 25.0427 22.6029 25.1504 22.4617L25.191 22.408C29.217 17.0634 28.8761 9.57709 24.3806 4.60719ZM5.34436 4.42736C6.77483 3.13341 8.4788 2.1756 10.3123 1.62907C10.1342 3.22084 10.6508 4.84355 11.7334 6.04035L11.7511 6.05992C12.652 7.05589 13.8846 7.69887 15.2219 7.8705C16.7787 8.07007 18.2168 8.82213 19.2714 9.98803C20.4413 11.2812 21.0447 12.9526 20.9706 14.6943C20.8966 16.4342 20.156 18.0462 18.8852 19.2332C18.8836 19.2347 18.882 19.2361 18.8805 19.2377C18.8555 19.2616 18.8302 19.2843 18.8028 19.3092C17.497 20.4903 15.8167 21.096 14.0719 21.0156C12.3249 20.9348 10.7065 20.1739 9.51462 18.8729C8.44036 17.701 7.82531 16.1824 7.78283 14.5966C7.74609 13.2513 7.22962 11.9618 6.3283 10.9653L6.31058 10.9457C5.24326 9.76572 3.70026 9.09206 2.10904 9.09206C2.09351 9.09206 2.07815 9.09212 2.06262 9.09223C2.79013 7.32167 3.91393 5.7212 5.34436 4.42736ZM15.5535 5.28506C17.726 5.56363 19.7329 6.61291 21.2044 8.23962C24.5546 11.9434 24.3126 17.7296 20.6648 21.138C18.8477 22.8358 16.4878 23.7184 14.0198 23.6224C11.5536 23.5267 9.27132 22.4654 7.59311 20.6339C6.09467 18.9988 5.23659 16.8797 5.17689 14.6671C5.15742 13.9436 4.87978 13.2501 4.39524 12.7143L4.37726 12.6945C3.74592 11.9965 2.80222 11.6284 1.85278 11.7092C1.66693 11.725 1.48054 11.7366 1.29476 11.7441C1.38656 11.2246 1.51012 10.7104 1.66415 10.2068C1.6841 10.2053 1.70417 10.2036 1.72418 10.2019C3.14203 10.0809 4.55342 10.6333 5.49985 11.6796L5.51757 11.6991C6.24377 12.502 6.66007 13.5416 6.6897 14.6261C6.73924 16.4751 7.4562 18.2457 8.70838 19.6116C10.0968 21.1272 11.9836 22.0138 14.0213 22.108C14.1416 22.1135 14.2615 22.1163 14.3811 22.1163C16.2864 22.1163 18.1051 21.4147 19.5381 20.1184C19.5704 20.0892 19.6023 20.0603 19.6338 20.0302C21.1143 18.6465 21.9769 16.7681 22.0632 14.7408C22.1495 12.7104 21.446 10.762 20.0824 9.2545C18.853 7.89527 17.1762 7.01855 15.361 6.78585C14.2822 6.64741 13.2882 6.12908 12.5622 5.32645L12.5445 5.30687C11.5964 4.2588 11.1868 2.80585 11.4485 1.42108C11.4534 1.39533 11.4582 1.36941 11.463 1.34333C11.9794 1.24043 12.5035 1.16892 13.0296 1.12955C13.0024 1.32212 12.971 1.51305 12.9354 1.70113C12.7607 2.62373 13.0341 3.59208 13.667 4.29177L13.6845 4.31107C14.1689 4.84683 14.8327 5.19271 15.5535 5.28506Z" fill="#DA5BC1"/>
</g>
<defs>
<clipPath id="clip0">
<rect width="28" height="28" fill="white"/>
</clipPath>
</defs>
</svg>
