<svg width="31" height="30" viewBox="0 0 31 30" fill="none" xmlns="http://www.w3.org/2000/svg">
<path d="M28.7188 22.5232C26.0333 19.8377 26.2094 20.0078 26.1338 19.952L19.0252 14.7036L21.7829 11.9462C24 12.7362 26.5102 12.19 28.1996 10.5006C30.0402 8.66007 30.5233 5.84616 29.4019 3.49862C29.1405 2.95166 28.4156 2.82777 27.9875 3.256L25.7141 5.52934C25.3715 5.87194 24.8141 5.872 24.4713 5.52934C24.1278 5.18586 24.1278 4.63005 24.4713 4.28656L26.7447 2.01316C27.1733 1.58458 27.0487 0.859875 26.5021 0.598849C24.1545 -0.522615 21.3407 -0.039476 19.5001 1.80101C17.8103 3.49083 17.2647 6.00117 18.0545 8.21772L14.8742 11.3978C14.2266 10.8942 15.0811 11.7544 8.98238 5.28759L9.6217 4.64827C10.0261 4.24396 9.9418 3.56695 9.45245 3.27334L4.74566 0.44923C3.51185 -0.291067 1.93965 -0.0975535 0.922213 0.919887C-0.0951688 1.93727 -0.288741 3.50958 0.451556 4.74333L3.27567 9.45018C3.56975 9.94047 4.24705 10.023 4.6506 9.61944L5.25353 9.01651C11.3207 15.4499 10.5221 14.576 11.0017 15.1927C11.0131 15.2073 11.0258 15.2202 11.0378 15.2339L8.2177 18.0538C6.00127 17.264 3.49075 17.8095 1.80105 19.4993C-0.0394941 21.3399 -0.522633 24.1538 0.598889 26.5013C0.860326 27.0484 1.58503 27.1721 2.01326 26.744L4.2866 24.4706C4.62938 24.1279 5.18677 24.128 5.52944 24.4706C5.87292 24.8141 5.87292 25.3699 5.52944 25.7133L3.25598 27.9867C2.82734 28.4153 2.95205 29.14 3.4986 29.4011C4.3424 29.8042 5.2462 30 6.14368 30C7.743 29.9999 9.32159 29.3779 10.5006 28.199C12.1904 26.5091 12.736 23.9988 11.9461 21.7822L14.3546 19.3739L19.9621 26.1885C20.0048 26.2402 19.864 26.0962 22.372 28.6041C23.285 29.5172 24.4989 29.9904 25.6925 29.9904C26.5683 29.9904 27.4332 29.7354 28.1597 29.2122C30.3768 27.6154 30.6382 24.4424 28.7188 22.5232ZM5.91137 7.15234C5.5707 6.79116 4.99959 6.78483 4.6506 7.13388L4.20362 7.5808L1.95864 3.83906C1.63409 3.29813 1.71889 2.60876 2.16499 2.16266C2.61109 1.7165 3.30046 1.63176 3.84132 1.95631L7.58307 4.20135L7.13609 4.64821C6.79999 4.98431 6.79202 5.52676 7.11816 5.87253C14.1257 13.303 13.0234 12.1849 13.6216 12.6502L12.2879 13.9837C11.827 13.391 12.8972 14.5599 5.91137 7.15234ZM10.2884 20.9543C10.025 21.2176 9.95628 21.6184 10.1169 21.9545C10.9179 23.6313 10.5726 25.6413 9.25782 26.9561C8.41544 27.7984 7.28788 28.2429 6.1452 28.2428C5.93967 28.2428 5.73373 28.2284 5.52879 28.1994L6.77215 26.956C7.80249 25.9257 7.80266 24.258 6.77215 23.2276C5.74428 22.1997 4.07164 22.1997 3.04377 23.2276L1.80041 24.471C1.61006 23.1269 2.04995 21.7359 3.04377 20.7421C4.35863 19.4271 6.36854 19.082 8.04535 19.883C8.38139 20.0435 8.78207 19.9749 9.04556 19.7114L19.7122 9.04552C19.9756 8.78215 20.0443 8.38141 19.8838 8.04531C19.0828 6.36856 19.4281 4.35853 20.7429 3.04373C21.7369 2.04979 23.1277 1.60996 24.4718 1.80037L23.2284 3.04373C22.7304 3.54164 22.4562 4.20375 22.4562 4.90795C22.4562 5.61215 22.7304 6.27415 23.2284 6.77217C24.2563 7.80011 25.9289 7.80005 26.9568 6.77217L28.2002 5.52881C28.3905 6.87292 27.9506 8.2639 26.9568 9.25773C25.6419 10.5726 23.632 10.9178 21.9552 10.1168C21.6192 9.9563 21.2184 10.025 20.955 10.2884L10.2884 20.9543ZM15.5995 18.129L17.7684 15.9603L19.9789 17.5923L17.3379 20.2334C15.5423 18.0513 15.6543 18.1828 15.5995 18.129ZM27.1325 27.7861C26.1075 28.5243 24.5951 28.3418 23.6147 27.3614L21.2921 25.0389L18.4599 21.5969L21.4087 18.6481L25.037 21.3268L27.476 23.7659C28.5908 24.8807 28.5192 26.7873 27.1325 27.7861Z" fill="#DA5BC1"/>
</svg>
