<svg width="29" height="29" viewBox="0 0 29 29" fill="none" xmlns="http://www.w3.org/2000/svg">
<g clip-path="url(#clip0)">
<path d="M8.69748 5.09255L9.29815 4.49188C9.68954 4.10049 9.6069 3.44601 9.13469 3.1627L4.58392 0.43212C3.38915 -0.283079 1.86914 -0.096392 0.887622 0.887622C-0.096392 1.87084 -0.283079 3.39084 0.43212 4.58392L3.16264 9.13396C3.4463 9.60673 4.104 9.68869 4.49182 9.29742L5.09334 8.69675L9.68994 13.2863L13.2901 9.68586L8.69748 5.09255Z" fill="url(#paint0_linear)"/>
<path d="M28.4216 3.38342C28.172 2.85978 27.4718 2.72939 27.0543 3.14859L24.8564 5.34646C24.5344 5.6684 23.9769 5.6684 23.655 5.34646C23.3239 5.0154 23.3239 4.47612 23.655 4.14506L25.8529 1.94719C26.2663 1.53377 26.1475 0.83222 25.618 0.579831C23.3472 -0.505399 20.6274 -0.0382859 18.8485 1.74221C17.2149 3.37503 16.6872 5.80191 17.4505 7.94501L7.94514 17.45C5.80368 16.6867 3.37601 17.2144 1.74233 18.8481C-0.0373693 20.6278 -0.504483 23.3483 0.579955 25.6175C0.832968 26.1483 1.53497 26.2647 1.94731 25.8524L4.14519 23.6545C4.47704 23.3243 5.01637 23.3234 5.34659 23.6554C5.67754 23.9846 5.67997 24.5208 5.34659 24.8559L3.14871 27.0538C2.73529 27.4672 2.85407 28.1687 3.38354 28.4211C4.19905 28.811 5.07273 29.0002 5.94058 29.0002C7.48714 29.0002 9.01293 28.3987 10.1521 27.2586C11.7866 25.6258 12.3134 23.1989 11.5501 21.0558L21.0556 11.551C23.1963 12.3135 25.6248 11.7866 27.2593 10.1529C29.0389 8.37321 29.5061 5.65266 28.4216 3.38342Z" fill="url(#paint1_linear)"/>
<path d="M27.7457 21.8158C24.8616 18.9423 23.2805 17.8007 19.8996 15.1714L15.0947 19.9768C17.4712 23.0274 18.9103 24.995 21.6093 27.695C22.4921 28.5778 23.6653 28.9896 24.8194 28.9896C25.6665 28.9896 26.5028 28.7885 27.2056 28.2832C28.2302 27.5448 28.8757 26.4073 28.9761 25.1636C29.0765 23.9183 28.6285 22.6986 27.7457 21.8158ZM25.2985 25.302C24.9603 25.6102 24.4332 25.5806 24.1097 25.2571L20.745 21.8923C20.4215 21.5688 20.3919 21.0418 20.7 20.7035C21.0289 20.3425 21.5881 20.3327 21.9295 20.6741L25.3279 24.0725C25.6694 24.414 25.6596 24.9731 25.2985 25.302Z" fill="url(#paint2_linear)"/>
</g>
<defs>
<linearGradient id="paint0_linear" x1="6.64503" y1="0" x2="6.64503" y2="13.2863" gradientUnits="userSpaceOnUse">
<stop stop-color="#E483CB"/>
<stop offset="1" stop-color="#FABED8"/>
</linearGradient>
<linearGradient id="paint1_linear" x1="14.5008" y1="0.000183105" x2="14.5008" y2="29.0002" gradientUnits="userSpaceOnUse">
<stop stop-color="#E483CB"/>
<stop offset="1" stop-color="#FABED8"/>
</linearGradient>
<linearGradient id="paint2_linear" x1="22.0424" y1="15.1714" x2="22.0424" y2="28.9896" gradientUnits="userSpaceOnUse">
<stop stop-color="#E483CB"/>
<stop offset="1" stop-color="#FABED8"/>
</linearGradient>
<clipPath id="clip0">
<path d="M0 0H29V29H0V0Z" fill="white"/>
</clipPath>
</defs>
</svg>
