<svg width="16" height="16" viewBox="0 0 16 16" fill="#727376" xmlns="http://www.w3.org/2000/svg">
<path fill-rule="evenodd" clip-rule="evenodd" d="M5.29652 2.29437L4.44238 1.27051L1.37085 3.83291L2.22492 4.85677L5.29652 2.29437ZM11.5579 1.27093L14.6295 3.83333L13.7754 4.8572L10.7038 2.2948L11.5579 1.27093ZM8.33342 5.39694H7.33342V9.39694L10.5001 11.2969L11.0001 10.4769L8.33342 8.89694V5.39694ZM8.00014 2.73028C4.68681 2.73028 2.00014 5.41695 2.00014 8.73028C2.00014 12.0436 4.68681 14.7303 8.00014 14.7303C11.3135 14.7303 14.0001 12.0436 14.0001 8.73028C14.0001 5.41695 11.3135 2.73028 8.00014 2.73028ZM3.33342 8.73027C3.33342 11.3036 5.42676 13.3969 8.00009 13.3969C10.5734 13.3969 12.6668 11.3036 12.6668 8.73027C12.6668 6.15693 10.5734 4.0636 8.00009 4.0636C5.42676 4.0636 3.33342 6.15693 3.33342 8.73027Z"/>
</svg>
