<svg width="16" height="16" viewBox="0 0 16 16" fill="none" xmlns="http://www.w3.org/2000/svg">
<path fill-rule="evenodd" clip-rule="evenodd" d="M7.9935 1.33301C4.3135 1.33301 1.3335 4.31967 1.3335 7.99967C1.3335 11.6797 4.3135 14.6663 7.9935 14.6663C11.6802 14.6663 14.6668 11.6797 14.6668 7.99967C14.6668 4.31967 11.6802 1.33301 7.9935 1.33301ZM8.0002 13.3331C5.05354 13.3331 2.66687 10.9464 2.66687 7.99973C2.66687 5.05306 5.05354 2.6664 8.0002 2.6664C10.9469 2.6664 13.3335 5.05306 13.3335 7.99973C13.3335 10.9464 10.9469 13.3331 8.0002 13.3331ZM7.3335 4.6664H8.3335V8.1664L11.3335 9.9464L10.8335 10.7664L7.3335 8.6664V4.6664Z" fill="black"/>
</svg>
