<svg width="33" height="30" viewBox="0 0 33 30" fill="none" xmlns="http://www.w3.org/2000/svg">
<g clip-path="url(#clip0)">
<path d="M3.78125 30.0005C3.212 30.0005 2.75 29.5858 2.75 29.0747V6.80045C2.75 5.89071 3.39075 5.07355 4.34637 4.7662L17.8723 0.429837C18.1885 0.328618 18.5391 0.371821 18.8141 0.544633C19.0864 0.717446 19.25 1.00012 19.25 1.30131V12.4107C19.25 12.9217 18.788 13.3365 18.2188 13.3365C17.6495 13.3365 17.1875 12.9217 17.1875 12.4107V2.61468L5.04075 6.50913C4.90462 6.55357 4.8125 6.67084 4.8125 6.80045V29.0747C4.8125 29.5858 4.3505 30.0005 3.78125 30.0005Z" fill="#CACACA"/>
<path d="M9.96875 12.1016H3.78125C3.212 12.1016 2.75 11.6868 2.75 11.1758C2.75 10.6648 3.212 10.25 3.78125 10.25H9.96875C10.538 10.25 11 10.6648 11 11.1758C11 11.6868 10.538 12.1016 9.96875 12.1016Z" fill="#CACACA"/>
<path d="M9.96875 17.0391H3.78125C3.212 17.0391 2.75 16.6243 2.75 16.1133C2.75 15.6022 3.212 15.1875 3.78125 15.1875H9.96875C10.538 15.1875 11 15.6022 11 16.1133C11 16.6243 10.538 17.0391 9.96875 17.0391Z" fill="#CACACA"/>
<path d="M29.2188 18.2734H23.0312C22.462 18.2734 22 17.8587 22 17.3477C22 16.8366 22.462 16.4219 23.0312 16.4219H29.2188C29.788 16.4219 30.25 16.8366 30.25 17.3477C30.25 17.8587 29.788 18.2734 29.2188 18.2734Z" fill="#CACACA"/>
<path d="M29.2188 23.2109H23.0312C22.462 23.2109 22 22.7962 22 22.2852C22 21.7741 22.462 21.3594 23.0312 21.3594H29.2188C29.788 21.3594 30.25 21.7741 30.25 22.2852C30.25 22.7962 29.788 23.2109 29.2188 23.2109Z" fill="#CACACA"/>
<path d="M29.2188 30C28.6495 30 28.1875 29.5853 28.1875 29.0742V13.6445C28.1875 13.4742 28.0335 13.3359 27.8438 13.3359H17.5312C17.3415 13.3359 17.1875 13.4742 17.1875 13.6445V29.0742C17.1875 29.5853 16.7255 30 16.1562 30C15.587 30 15.125 29.5853 15.125 29.0742V13.6445C15.125 12.4534 16.2044 11.4844 17.5312 11.4844H27.8438C29.1706 11.4844 30.25 12.4534 30.25 13.6445V29.0742C30.25 29.5853 29.788 30 29.2188 30Z" fill="#CACACA"/>
</g>
<defs>
<clipPath id="clip0">
<rect y="0.375" width="33" height="29.625" fill="white"/>
</clipPath>
</defs>
</svg>
