<svg width="24" height="24" viewBox="0 0 24 24" fill="none" xmlns="http://www.w3.org/2000/svg">
<circle cx="12" cy="12" r="12" fill="url(#paint0_radial)"/>
<path fill-rule="evenodd" clip-rule="evenodd" d="M2.85714 9.81818C1.28171 9.81818 0 11.0999 0 12.6753C0 14.2507 1.28171 15.5325 2.85714 15.5325C4.43257 15.5325 5.71429 14.2507 5.71429 12.6753C5.71429 11.0999 4.43257 9.81818 2.85714 9.81818ZM12 9.81818C10.4246 9.81818 9.14289 11.0999 9.14289 12.6753C9.14289 14.2507 10.4246 15.5325 12 15.5325C13.5755 15.5325 14.8572 14.2507 14.8572 12.6753C14.8572 11.0999 13.5755 9.81818 12 9.81818ZM18.2858 12.6753C18.2858 11.0999 19.5675 9.81818 21.1429 9.81818C22.7183 9.81818 24.0001 11.0999 24.0001 12.6753C24.0001 14.2507 22.7183 15.5325 21.1429 15.5325C19.5675 15.5325 18.2858 14.2507 18.2858 12.6753Z" fill="white"/>
<defs>
<radialGradient id="paint0_radial" cx="0" cy="0" r="1" gradientUnits="userSpaceOnUse" gradientTransform="translate(-15.075 -45.6) scale(92.8628)">
<stop stop-color="#FB72AD"/>
<stop offset="1" stop-color="#B643D5"/>
</radialGradient>
</defs>
</svg>
