<svg width="28" height="28" viewBox="0 0 28 28" fill="none" xmlns="http://www.w3.org/2000/svg">
<path d="M23.9531 0H4.04688C1.81541 0 0 1.81541 0 4.04688C0 6.27834 1.81541 8.09375 4.04688 8.09375H23.9531C26.1846 8.09375 28 6.27834 28 4.04688C28 1.81541 26.1846 0 23.9531 0ZM23.9531 5.90625H4.04688C3.02159 5.90625 2.1875 5.07216 2.1875 4.04688C2.1875 3.02159 3.02159 2.1875 4.04688 2.1875H23.9531C24.9784 2.1875 25.8125 3.02159 25.8125 4.04688C25.8125 5.07216 24.9784 5.90625 23.9531 5.90625Z" fill="#CACACA"/>
<path d="M23.9531 9.95312H4.04688C1.81541 9.95312 0 11.7685 0 14C0 16.2315 1.81541 18.0469 4.04688 18.0469H23.9531C26.1846 18.0469 28 16.2315 28 14C28 11.7685 26.1846 9.95312 23.9531 9.95312ZM23.9531 15.8594H4.04688C3.02159 15.8594 2.1875 15.0253 2.1875 14C2.1875 12.9747 3.02159 12.1406 4.04688 12.1406H23.9531C24.9784 12.1406 25.8125 12.9747 25.8125 14C25.8125 15.0253 24.9784 15.8594 23.9531 15.8594Z" fill="#CACACA"/>
<path d="M23.9531 19.9062H4.04688C1.81541 19.9062 0 21.7217 0 23.9531C0 26.1846 1.81541 28 4.04688 28H18.4844C19.0885 28 19.5781 27.5103 19.5781 26.9062C19.5781 26.3022 19.0885 25.8125 18.4844 25.8125H4.04688C3.02159 25.8125 2.1875 24.9784 2.1875 23.9531C2.1875 22.9278 3.02159 22.0938 4.04688 22.0938H23.9531C24.9784 22.0938 25.8125 22.9278 25.8125 23.9531C25.8125 24.9784 24.9784 25.8125 23.9531 25.8125C23.349 25.8125 22.8594 26.3022 22.8594 26.9062C22.8594 27.5103 23.349 28 23.9531 28C26.1846 28 28 26.1846 28 23.9531C28 21.7217 26.1846 19.9062 23.9531 19.9062Z" fill="#CACACA"/>
</svg>
