<svg width="24" height="6" viewBox="0 0 24 6" fill="none" xmlns="http://www.w3.org/2000/svg">
<path d="M2.85714 0C1.28171 0 0 1.28171 0 2.85714C0 4.43257 1.28171 5.71429 2.85714 5.71429C4.43257 5.71429 5.71429 4.43257 5.71429 2.85714C5.71429 1.28171 4.43257 0 2.85714 0Z" fill="#DADADA"/>
<path d="M12 0C10.4245 0 9.14282 1.28171 9.14282 2.85714C9.14282 4.43257 10.4245 5.71429 12 5.71429C13.5754 5.71429 14.8571 4.43257 14.8571 2.85714C14.8571 1.28171 13.5754 0 12 0Z" fill="#DADADA"/>
<path d="M21.1428 0C19.5674 0 18.2857 1.28171 18.2857 2.85714C18.2857 4.43257 19.5674 5.71429 21.1428 5.71429C22.7183 5.71429 24 4.43257 24 2.85714C24 1.28171 22.7183 0 21.1428 0Z" fill="#DADADA"/>
</svg>
