<svg width="24" height="24" viewBox="0 0 24 24" fill="none" xmlns="http://www.w3.org/2000/svg">
<path d="M20.4851 3.51471C18.2186 1.24841 15.2053 0.000183105 12 0C8.79474 0.000183105 5.78119 1.24841 3.51471 3.51471C1.24823 5.78137 -0.000183085 8.79474 2.01393e-08 11.9998C2.01393e-08 14.3377 0.668884 16.5914 1.93726 18.5387L0.961487 22.335C0.899597 22.5758 0.969543 22.8314 1.14532 23.0072C1.32111 23.183 1.5769 23.2529 1.8175 23.191L5.67627 22.1993C7.57379 23.3784 9.75311 24 11.9998 24C15.2051 24 18.2186 22.7518 20.4851 20.4853C22.7518 18.2186 24 15.2053 24 11.9998C23.9998 8.79456 22.7516 5.78119 20.4851 3.51471ZM11.9998 22.5938C9.92322 22.5938 7.91217 21.9924 6.18402 20.855C6.06812 20.7786 5.93353 20.7391 5.7973 20.7391C5.73889 20.7391 5.68011 20.7464 5.62244 20.7612L2.61969 21.533L3.37775 18.5837C3.42847 18.3865 3.39111 18.1769 3.27539 18.0093C2.05261 16.2378 1.40625 14.1597 1.40625 11.9998C1.40607 9.17029 2.50818 6.51013 4.50897 4.50916C6.50995 2.50836 9.17029 1.40625 12 1.40625C17.8412 1.40643 22.5936 6.15875 22.5938 11.9998C22.5938 17.8412 17.8412 22.5938 11.9998 22.5938Z" fill="#DADADA"/>
</svg>
