<svg width="30" height="30" viewBox="0 0 30 30" fill="none" xmlns="http://www.w3.org/2000/svg">
<path d="M25.5692 4.01437C22.7408 1.42564 18.9872 0 15 0C11.0128 0 7.25927 1.42564 4.4309 4.01437C1.57363 6.62946 3.90709e-05 10.1147 3.90709e-05 13.8281C3.90709e-05 16.7241 0.947031 19.4679 2.74633 21.8069L0.0854687 28.3888C-0.0933007 28.831 0.01375 29.3374 0.35623 29.6694C0.579472 29.8858 0.873496 29.9999 1.17221 29.9999C1.33176 29.9999 1.49266 29.9674 1.64465 29.9004L9.18308 26.5773C11.0253 27.2934 12.9798 27.6562 15 27.6562C17.5288 27.6562 20.029 27.0652 22.2304 25.9471C22.8075 25.6541 23.0377 24.9487 22.7446 24.3716C22.4515 23.7946 21.7462 23.5644 21.1691 23.8575C19.2949 24.8093 17.1617 25.3125 15 25.3125C13.1219 25.3125 11.3134 24.9472 9.62482 24.2268C9.32658 24.0995 8.98896 24.1016 8.69224 24.2323L3.34 26.5917L5.17785 22.0454C5.3415 21.6406 5.26656 21.1783 4.98326 20.846C3.2565 18.8203 2.34379 16.3935 2.34379 13.8281C2.34379 7.49559 8.02134 2.34375 15 2.34375C21.9787 2.34375 27.6563 7.49559 27.6563 13.8281C27.6563 16.0087 26.9796 18.1304 25.6994 19.9637C25.3288 20.4943 25.4585 21.2248 25.9892 21.5954C26.5197 21.966 27.2505 21.8361 27.6209 21.3055C29.1774 19.0768 30 16.4911 30 13.8281C30 10.1147 28.4265 6.62946 25.5692 4.01437Z" fill="#CACACA"/>
</svg>
