<svg width="375" height="812" viewBox="0 0 375 812" fill="none" xmlns="http://www.w3.org/2000/svg">
<rect width="375" height="812" fill="url(#paint0_radial)"/>
<path fill-rule="evenodd" clip-rule="evenodd" d="M99 292C183.5 292 252 223.5 252 139C252 54.5004 183.5 -14 99 -14C14.5004 -14 -54 54.5004 -54 139C-54 223.5 14.5004 292 99 292Z" fill="url(#paint1_linear)" fill-opacity="0.6"/>
<path fill-rule="evenodd" clip-rule="evenodd" d="M341 602C256.5 602 188 670.5 188 755C188 839.5 256.5 908 341 908C425.5 908 494 839.5 494 755C494 670.5 425.5 602 341 602Z" fill="url(#paint2_linear)" fill-opacity="0.6"/>
<path fill-rule="evenodd" clip-rule="evenodd" d="M239 602C218.013 602 201 619.013 201 640C201 660.987 218.013 678 239 678C259.987 678 277 660.987 277 640C277 619.013 259.987 602 239 602Z" fill="url(#paint3_linear)" fill-opacity="0.6"/>
<defs>
<radialGradient id="paint0_radial" cx="0" cy="0" r="1" gradientUnits="userSpaceOnUse" gradientTransform="translate(-15 33.9564) rotate(66.2624) scale(1156.38 853.257)">
<stop stop-color="#8C1BAB"/>
<stop offset="1" stop-color="#F761A1"/>
</radialGradient>
<linearGradient id="paint1_linear" x1="587" y1="380.5" x2="251" y2="-48.5" gradientUnits="userSpaceOnUse">
<stop stop-color="white"/>
<stop offset="1" stop-color="white" stop-opacity="0.01"/>
</linearGradient>
<linearGradient id="paint2_linear" x1="-147" y1="513.5" x2="189" y2="942.5" gradientUnits="userSpaceOnUse">
<stop stop-color="white"/>
<stop offset="1" stop-color="white" stop-opacity="0.01"/>
</linearGradient>
<linearGradient id="paint3_linear" x1="117.797" y1="580.019" x2="201.248" y2="686.568" gradientUnits="userSpaceOnUse">
<stop stop-color="white"/>
<stop offset="1" stop-color="white" stop-opacity="0.01"/>
</linearGradient>
</defs>
</svg>
