<svg width="150" height="150" viewBox="0 0 150 150" fill="none" xmlns="http://www.w3.org/2000/svg">
  <rect x="-19" y="-26" width="189" height="203" fill="white" />
  <path fill-rule="evenodd" clip-rule="evenodd" d="M34.5 48C48.031 48 59 37.031 59 23.5C59 9.96902 48.031 -1 34.5 -1C20.969 -1 10 9.96902 10 23.5C10 37.031 20.969 48 34.5 48Z" fill="url(#paint0_radial)" fill-opacity="0.8" />
  <path fill-rule="evenodd" clip-rule="evenodd" d="M19 42C38.33 42 54 26.33 54 7C54 -12.33 38.33 -28 19 -28C-0.329966 -28 -16 -12.33 -16 7C-16 26.33 -0.329966 42 19 42Z" fill="url(#paint1_radial)" />
  <defs>
    <radialGradient id="paint0_radial" cx="0" cy="0" r="1" gradientUnits="userSpaceOnUse" gradientTransform="translate(43.5 33) rotate(-135) scale(38.1838)">
      <stop stop-color="#F9AACC" />
      <stop offset="1" stop-color="#F9AACC" stop-opacity="0.01" />
    </radialGradient>
    <radialGradient id="paint1_radial" cx="0" cy="0" r="1" gradientUnits="userSpaceOnUse" gradientTransform="translate(34.5 27.5) rotate(-137.222) scale(118.53)">
      <stop stop-color="#F9AACC" />
      <stop offset="1" stop-color="#F9AACC" stop-opacity="0.01" />
    </radialGradient>
  </defs>
</svg>