<svg width="216" height="216" viewBox="0 0 216 216" fill="none" xmlns="http://www.w3.org/2000/svg">
<path d="M117.141 163.621H72.1483V198.324H117.141V163.621Z" fill="#EBEBEB"/>
<path d="M105.87 198.081C105.81 198.081 105.758 190.344 105.758 180.801C105.758 171.259 105.81 163.521 105.87 163.521C105.931 163.521 105.983 171.259 105.983 180.801C105.983 190.344 105.931 198.081 105.87 198.081Z" fill="#E0E0E0"/>
<path d="M113.327 190.428H109.879V194.329H113.327V190.428Z" fill="#FAFAFA"/>
<path d="M90.9878 163.713H85.8772V171.117H90.9878V163.713Z" fill="#E0E0E0"/>
<path d="M90.9878 190.816H85.8772V198.221H90.9878V190.816Z" fill="#E0E0E0"/>
<path d="M198.785 154.92H142.05V198.677H198.785V154.92Z" fill="#EBEBEB"/>
<path d="M184.568 198.368C184.507 198.368 184.455 188.617 184.455 176.586C184.455 164.555 184.507 154.805 184.568 154.805C184.628 154.805 184.68 164.555 184.68 176.586C184.68 188.617 184.632 198.368 184.568 198.368Z" fill="#E0E0E0"/>
<path d="M193.972 188.717H189.622V193.633H193.972V188.717Z" fill="#FAFAFA"/>
<path d="M165.802 155.033H159.356V164.369H165.802V155.033Z" fill="#E0E0E0"/>
<path d="M165.802 189.209H159.356V198.545H165.802V189.209Z" fill="#E0E0E0"/>
<path d="M35.1908 156.208C37.489 155.024 40.1933 154.869 42.7421 155.292C44.1116 155.517 45.5372 155.927 46.4703 156.955C47.4034 157.983 47.5762 159.793 46.5092 160.679C45.8698 161.206 44.9842 161.284 44.1548 161.275C42.1589 161.249 39.9471 160.899 38.353 162.1C37.4415 162.787 36.8367 163.923 35.761 164.26C34.6853 164.597 33.4973 163.962 32.9357 163.003C32.4162 162.003 32.3017 160.841 32.616 159.759C32.7432 159.009 33.0417 158.298 33.4883 157.682C33.9348 157.067 34.5174 156.562 35.1908 156.208Z" fill="#EBEBEB"/>
<path d="M29.929 146.052C31.333 148.056 34.0632 147.395 35.329 146.168C36.5947 144.942 37.1304 143.17 37.6143 141.481C38.7288 137.615 39.8477 133.558 39.0226 129.623C38.8239 128.429 38.2991 127.314 37.5063 126.4C37.1048 125.951 36.5931 125.615 36.0218 125.425C35.4504 125.235 34.8393 125.197 34.249 125.316C32.8709 125.679 32.0155 127.044 31.3978 128.31C29.5764 132.094 28.623 136.236 28.6071 140.436C28.6071 142.393 28.8274 144.44 29.929 146.052Z" fill="#EBEBEB"/>
<path d="M26.0755 148.928C27.6005 147.118 27.8899 144.483 27.2117 142.215C26.5334 139.947 24.9998 138.02 23.2329 136.443C21.1548 134.595 18.7367 133.169 16.1136 132.244C15.0969 131.834 14.0034 131.648 12.9081 131.7C12.3618 131.731 11.8313 131.895 11.363 132.179C10.8946 132.462 10.5026 132.855 10.2211 133.324C9.46942 134.754 10.1909 136.487 10.9685 137.903C12.3378 140.397 13.9007 142.779 15.6427 145.027C17.0467 146.833 18.6667 148.617 20.7878 149.434C22.9089 150.25 25.1467 150.155 26.2785 148.673" fill="#EBEBEB"/>
<path d="M29.8339 176.301C29.909 176.004 29.9524 175.7 29.9635 175.394C30.0283 174.729 30.1061 173.895 30.2055 172.906C30.3293 171.682 30.5153 170.465 30.7627 169.26C31.0873 167.786 31.5309 166.341 32.089 164.94C32.6363 163.547 33.3765 162.238 34.2879 161.052C35.0329 160.087 35.9813 159.298 37.0656 158.74C37.8031 158.377 38.5933 158.132 39.4071 158.015C39.7134 158.003 40.0175 157.958 40.3143 157.881C40.0085 157.847 39.6999 157.847 39.3941 157.881C38.549 157.944 37.7223 158.16 36.9533 158.516C35.8082 159.056 34.8041 159.855 34.02 160.849C33.0662 162.051 32.2974 163.389 31.7391 164.819C31.1816 166.237 30.748 167.701 30.4431 169.195C30.208 170.415 30.045 171.649 29.9549 172.888C29.8771 173.947 29.8469 174.802 29.8339 175.394C29.8021 175.696 29.8021 176 29.8339 176.301Z" fill="#E0E0E0"/>
<path d="M30.0067 174.39C30.0323 174.248 30.041 174.103 30.0326 173.958C30.0326 173.639 30.0326 173.237 30.0326 172.749C30.0326 171.699 30.0326 170.178 30.0844 168.304C30.1795 164.554 30.5164 160.528 31.1256 154.83C31.7174 149.477 32.508 143.252 33.346 139.204C33.5232 138.284 33.7046 137.454 33.8774 136.729C34.0502 136.003 34.1755 135.372 34.3094 134.867C34.4433 134.361 34.5168 134.003 34.5945 133.692C34.6368 133.551 34.6615 133.406 34.668 133.26C34.6029 133.386 34.5536 133.519 34.5211 133.657C34.426 133.964 34.3094 134.344 34.1668 134.815C34.0243 135.286 33.8515 135.942 33.67 136.664C33.4886 137.385 33.2812 138.215 33.0868 139.135C32.0491 143.922 31.2689 148.762 30.7497 153.633C30.1276 159.335 29.8468 164.528 29.8209 168.286C29.8209 170.166 29.8209 171.69 29.8857 172.74C29.916 173.228 29.9419 173.63 29.9592 173.946C29.9571 174.095 29.973 174.245 30.0067 174.39Z" fill="#E0E0E0"/>
<path d="M30.0326 164.378C30.0655 163.957 30.0655 163.534 30.0326 163.112C29.985 162.3 29.8727 161.13 29.6438 159.691C29.3612 158.009 28.9833 156.345 28.5119 154.706C27.9671 152.689 27.2696 150.716 26.4254 148.805C24.98 145.283 22.9057 142.054 20.3039 139.275C19.8525 138.797 19.3705 138.35 18.861 137.935C18.6407 137.745 18.429 137.56 18.2476 137.413L17.7119 137.028C17.3757 136.772 17.0188 136.543 16.6449 136.346C16.5844 136.428 18.1526 137.352 20.1311 139.456C22.6479 142.261 24.667 145.475 26.1014 148.96C26.931 150.859 27.631 152.812 28.1966 154.805C28.6716 156.429 29.0652 158.075 29.3759 159.739C29.6351 161.16 29.8079 162.331 29.877 163.125C29.8955 163.546 29.9475 163.965 30.0326 164.378Z" fill="#E0E0E0"/>
<path d="M19.6819 180.518L20.6841 194.268H38.3486L39.3508 180.518H19.6819Z" fill="#EBEBEB"/>
<path d="M41.4547 175.1H17.9755V180.517H41.4547V175.1Z" fill="#EBEBEB"/>
<path d="M17.9755 193.74V195.239H19.0814H41.0702V193.74H17.9755Z" fill="#E0E0E0"/>
<path d="M20.1614 197.72L19.0814 195.076H40.2278L38.9664 197.72H20.1614Z" fill="#E0E0E0"/>
<path d="M39.0225 185.01C39.0005 185.057 38.9729 185.1 38.9405 185.14C38.8713 185.231 38.7806 185.347 38.6769 185.49L37.6488 186.786L37.6013 186.846L37.5581 186.786L35.0309 183.291H35.1734L32.6851 186.812L32.6073 186.924L32.5209 186.82L29.5704 183.308H29.7389L29.579 183.516L26.9395 186.82L26.8488 186.933L26.771 186.816L24.2784 183.295H24.4253L21.3581 186.786L21.3062 186.851L21.263 186.777L20.304 185.187C20.2003 185.015 20.1225 184.872 20.0577 184.755C20.0252 184.707 19.999 184.655 19.98 184.6C20.0204 184.641 20.0553 184.688 20.0837 184.738L20.3558 185.149L21.3624 186.734H21.2673L24.2913 183.2L24.3648 183.109L24.4339 183.205L26.9481 186.712H26.784L29.4149 183.399C29.471 183.33 29.5272 183.261 29.5747 183.196L29.6611 183.088L29.7475 183.192L32.6894 186.712H32.5253L35.0395 183.209L35.1129 183.105L35.1821 183.209C36.18 184.63 37.0267 185.835 37.6574 186.743H37.5667L38.6381 185.447C38.7547 185.313 38.8497 185.205 38.9232 185.114C38.9537 185.077 38.9869 185.042 39.0225 185.01Z" fill="#F5F5F5"/>
<path d="M39.5971 180.426C39.5971 180.487 35.1691 180.539 29.7129 180.539C24.2567 180.539 19.8287 180.487 19.8287 180.426C19.8287 180.366 24.2524 180.318 29.7129 180.318C35.1734 180.318 39.5971 180.366 39.5971 180.426Z" fill="#F5F5F5"/>
<path d="M163.478 24.539L159.858 24.5586L159.956 42.5727L163.576 42.5531L163.478 24.539Z" fill="#E0E0E0"/>
<path d="M137.87 24.588L128.496 24.6387L128.55 34.5832L137.924 34.5324L137.87 24.588Z" fill="#EBEBEB"/>
<path d="M147.201 24.5372L137.827 24.5879L137.88 34.5324L147.255 34.4817L147.201 24.5372Z" fill="#F5F5F5"/>
<path d="M128.507 27.3897C134.739 27.4415 140.975 27.4127 147.213 27.3033C147.239 27.3033 147.264 27.2928 147.283 27.2742C147.302 27.2555 147.312 27.2303 147.312 27.2039C147.312 27.1776 147.302 27.1523 147.283 27.1337C147.264 27.115 147.239 27.1046 147.213 27.1046C140.983 27.07 134.736 27.1046 128.507 27.2212C128.488 27.2255 128.471 27.2363 128.459 27.2516C128.446 27.2669 128.44 27.2859 128.44 27.3054C128.44 27.325 128.446 27.344 128.459 27.3593C128.471 27.3746 128.488 27.3853 128.507 27.3897Z" fill="#E0E0E0"/>
<path d="M139.686 34.3668L122.652 34.459L122.696 42.5632L139.729 42.471L139.686 34.3668Z" fill="#EBEBEB"/>
<path d="M156.637 34.275L139.603 34.3672L139.647 42.4714L156.68 42.3792L156.637 34.275Z" fill="#F5F5F5"/>
<path d="M122.662 36.7217C133.976 36.8469 145.329 36.7217 156.648 36.5532C156.674 36.5532 156.699 36.5427 156.718 36.5241C156.736 36.5055 156.747 36.4802 156.747 36.4538C156.747 36.4275 156.736 36.4022 156.718 36.3836C156.699 36.3649 156.674 36.3545 156.648 36.3545C145.333 36.294 133.976 36.2983 122.662 36.5489C122.639 36.5489 122.617 36.558 122.601 36.5742C122.585 36.5904 122.576 36.6124 122.576 36.6353C122.576 36.6582 122.585 36.6802 122.601 36.6964C122.617 36.7126 122.639 36.7217 122.662 36.7217Z" fill="#E0E0E0"/>
<path d="M182.282 42.5703H116.29V45.4734H182.282V42.5703Z" fill="#E0E0E0"/>
<path d="M129.773 43.9668H127.094V53.8726H129.773V43.9668Z" fill="#E0E0E0"/>
<path d="M169.763 43.9668H167.085V53.8726H169.763V43.9668Z" fill="#E0E0E0"/>
<path d="M167.01 17.8203L163.39 17.8398L163.524 42.6147L167.144 42.5951L167.01 17.8203Z" fill="#EBEBEB"/>
<path d="M172.664 22.4325L167.04 22.4629L167.148 42.542L172.773 42.5115L172.664 22.4325Z" fill="#F5F5F5"/>
<path d="M172.627 26.3096C170.758 26.4417 168.881 26.4417 167.011 26.3096C168.881 26.1833 170.757 26.1833 172.627 26.3096Z" fill="#E0E0E0"/>
<path d="M172.627 25.4897C171.693 25.5842 170.753 25.616 169.815 25.5847C168.876 25.6158 167.937 25.5841 167.003 25.4897C168.872 25.3576 170.749 25.3576 172.619 25.4897H172.627Z" fill="#E0E0E0"/>
<path d="M172.627 39.499C170.758 39.6311 168.881 39.6311 167.011 39.499C168.881 39.3727 170.757 39.3727 172.627 39.499Z" fill="#E0E0E0"/>
<path d="M172.627 38.6576C170.757 38.784 168.881 38.784 167.011 38.6576C168.881 38.5256 170.758 38.5256 172.627 38.6576Z" fill="#E0E0E0"/>
<path d="M169.906 36.816C169.854 36.816 169.811 34.7899 169.811 32.293C169.811 29.796 169.854 27.7656 169.906 27.7656C169.957 27.7656 170.005 29.7917 170.005 32.293C170.005 34.7943 169.962 36.816 169.906 36.816Z" fill="#E0E0E0"/>
<path d="M178.813 27.373H172.692V42.5276H178.813V27.373Z" fill="#EBEBEB"/>
<path d="M165.145 23.1018C165.72 23.1018 166.186 22.6356 166.186 22.0606C166.186 21.4857 165.72 21.0195 165.145 21.0195C164.57 21.0195 164.104 21.4857 164.104 22.0606C164.104 22.6356 164.57 23.1018 165.145 23.1018Z" fill="#E0E0E0"/>
<path d="M165.469 24.9238H164.825V39.6637H165.469V24.9238Z" fill="#E0E0E0"/>
<path d="M200.733 198.438C200.733 198.503 159.209 198.551 108.004 198.551C56.7993 198.551 15.2668 198.503 15.2668 198.438C15.2668 198.374 56.782 198.326 108.004 198.326C159.227 198.326 200.733 198.378 200.733 198.438Z" fill="#263238"/>
<path d="M64.4588 39.8965C66.496 42.3896 67.5991 45.5156 67.5778 48.7352C67.5562 50.5582 67.2193 52.567 68.282 54.0488C69.0855 55.172 70.5543 55.7379 71.2066 56.9562C71.9929 58.4206 71.3233 60.2739 71.8071 61.8637C72.4897 64.1187 75.1335 65.0648 76.7017 66.823C77.3701 67.6005 77.8378 68.5301 78.0637 69.5302C78.2897 70.5304 78.267 71.5707 77.9977 72.56C77.712 73.5452 77.1953 74.448 76.4905 75.1934C75.7857 75.9388 74.9132 76.5051 73.9455 76.8454C72.9122 77.2528 71.7596 77.2341 70.7401 76.7936C69.6817 76.2666 69.0121 75.1822 68.4937 74.1238C67.4525 72.0416 58.3071 60.788 57.7887 58.5157" fill="#263238"/>
<path d="M57.806 37.2452C54.0648 36.6404 50.462 39.1244 48.8938 42.5718C47.3256 46.0191 47.2738 49.9158 47.1658 53.7174C47.0578 57.519 46.7813 61.4588 44.8503 64.7161C43.6234 66.7854 41.7226 68.6041 41.4245 70.9844C41.1567 73.1185 42.2626 75.2699 41.8954 77.391C41.5757 79.2399 40.1674 80.847 40.2236 82.7175C40.2927 84.9726 42.6125 86.6703 44.8632 86.7308C47.114 86.7913 49.2221 85.6119 50.989 84.2123C53.8677 81.9266 56.1713 78.9987 57.7152 75.663" fill="#263238"/>
<path d="M51.6499 46.1599C51.5324 45.2188 51.6051 44.2638 51.8638 43.3513C52.1225 42.4389 52.5618 41.5878 53.1557 40.8484C53.7496 40.109 54.486 39.4965 55.3212 39.0472C56.1564 38.5978 57.0733 38.3209 58.0176 38.2327C61.7889 37.8698 65.1456 40.6821 65.7115 44.4319C66.2083 47.7194 66.6317 51.0372 66.6187 52.2425C66.5712 55.8756 64.4587 57.2882 63.5947 57.7159C63.2839 57.8275 62.9626 57.9071 62.6357 57.9535V57.9794L63.4392 62.1525C63.8064 64.8871 62.2814 67.3365 59.5512 67.721C56.8209 68.1055 54.6739 66.019 54.2549 63.2844L51.6499 46.1599Z" fill="#FFBE9D"/>
<path d="M64.9685 46.0225C64.908 46.1089 64.4285 45.854 63.8151 45.9447C63.2016 46.0354 62.7912 46.4069 62.7135 46.3421C62.6357 46.2773 62.7135 46.1693 62.9035 45.9965C63.1398 45.7664 63.4417 45.6154 63.7676 45.5645C64.0872 45.5152 64.4143 45.5698 64.7007 45.7201C64.9167 45.8583 64.9988 45.9879 64.9685 46.0225Z" fill="#263238"/>
<path d="M59.4994 47.3523C59.4389 47.4387 58.9594 47.1795 58.3416 47.2702C57.7239 47.3609 57.3221 47.7368 57.2444 47.672C57.1666 47.6072 57.2444 47.4948 57.4344 47.3263C57.6707 47.0962 57.9726 46.9452 58.2984 46.8943C58.6185 46.8488 58.9449 46.9047 59.2316 47.0542C59.4432 47.1881 59.5296 47.3134 59.4994 47.3523Z" fill="#263238"/>
<path d="M61.7415 50.6499C62.0505 50.5013 62.3771 50.3924 62.7135 50.3259C62.869 50.2871 63.0116 50.2352 63.0246 50.1229C63.0106 49.9651 62.9505 49.8148 62.8518 49.6909L62.2081 48.5418C61.3138 46.9348 60.6442 45.6042 60.709 45.5653C60.7738 45.5264 61.573 46.8095 62.437 48.4165C62.6574 48.8139 62.869 49.1941 63.0591 49.5527C63.1847 49.7283 63.2457 49.942 63.2319 50.1575C63.2177 50.2164 63.19 50.2713 63.151 50.3177C63.112 50.3642 63.0629 50.401 63.0073 50.4253C62.923 50.4622 62.8345 50.4883 62.7438 50.5031C62.4175 50.5955 62.0806 50.6449 61.7415 50.6499Z" fill="#263238"/>
<path d="M62.6012 57.9586C62.6012 57.9586 60.2554 58.4986 57.024 57.1465C57.024 57.1465 58.4194 60.1489 62.8215 59.0818L62.6012 57.9586Z" fill="#EB996E"/>
<path d="M59.184 45.7417C59.1494 45.9188 58.523 45.9274 57.8145 46.1218C57.1061 46.3162 56.5488 46.5927 56.4321 46.4588C56.3803 46.394 56.4581 46.2212 56.6697 46.0268C56.9548 45.783 57.2915 45.6073 57.6546 45.513C58.0176 45.4187 58.3973 45.4082 58.7649 45.4825C59.0501 45.5473 59.184 45.6596 59.184 45.7417Z" fill="#263238"/>
<path d="M64.4631 44.6608C64.3767 44.8164 63.9317 44.7343 63.422 44.7991C62.9122 44.8639 62.4932 45.0324 62.3722 44.8984C62.3204 44.8336 62.3722 44.6868 62.5364 44.5269C62.7629 44.3261 63.0472 44.2021 63.3485 44.1727C63.6461 44.1368 63.9475 44.1926 64.2125 44.3325C64.4199 44.4492 64.502 44.5831 64.4631 44.6608Z" fill="#263238"/>
<path d="M58.1645 48.1483C58.174 48.2151 58.1967 48.2794 58.2312 48.3375C58.2658 48.3955 58.3115 48.446 58.3658 48.4862C58.42 48.5264 58.4817 48.5554 58.5473 48.5716C58.6128 48.5877 58.681 48.5907 58.7477 48.5803C58.8126 48.5728 58.8753 48.5525 58.9322 48.5206C58.9892 48.4886 59.0392 48.4457 59.0794 48.3942C59.1196 48.3428 59.1492 48.2838 59.1664 48.2208C59.1836 48.1579 59.1881 48.0921 59.1797 48.0273C59.1594 47.8928 59.0867 47.7718 58.9773 47.6908C58.868 47.6099 58.7311 47.5755 58.5965 47.5953C58.5314 47.6022 58.4683 47.6222 58.4111 47.6539C58.3538 47.6857 58.3036 47.7286 58.2633 47.7802C58.223 47.8318 58.1934 47.891 58.1765 47.9542C58.1595 48.0175 58.1554 48.0834 58.1645 48.1483Z" fill="#263238"/>
<path d="M63.612 46.9686C63.6323 47.1031 63.705 47.2241 63.8143 47.3051C63.9237 47.3861 64.0606 47.4204 64.1952 47.4006C64.2601 47.3931 64.3228 47.3728 64.3798 47.3409C64.4367 47.3089 64.4867 47.266 64.5269 47.2145C64.5671 47.1631 64.5967 47.1041 64.6139 47.0412C64.6311 46.9782 64.6357 46.9124 64.6272 46.8476C64.6069 46.7131 64.5342 46.5921 64.4249 46.5111C64.3155 46.4302 64.1786 46.3958 64.044 46.4156C63.9789 46.4225 63.9158 46.4425 63.8586 46.4742C63.8014 46.506 63.7511 46.549 63.7108 46.6005C63.6705 46.6521 63.641 46.7113 63.624 46.7745C63.607 46.8378 63.6029 46.9038 63.612 46.9686Z" fill="#263238"/>
<path d="M62.7092 51.841C62.5396 51.7882 62.3568 51.7965 62.1927 51.8643C62.0286 51.9322 61.8934 52.0554 61.8106 52.2125C61.7315 52.3568 61.6994 52.5221 61.7187 52.6855C61.7381 52.8489 61.808 53.0022 61.9186 53.124C62.0363 53.2397 62.1914 53.3097 62.356 53.3216C62.5206 53.3334 62.684 53.2864 62.8172 53.1888C62.9838 53.0371 63.0846 52.8263 63.098 52.6013C63.1273 52.3951 63.0779 52.1853 62.9597 52.0138C62.899 51.9299 62.8124 51.8684 62.7132 51.8387C62.614 51.809 62.5078 51.8129 62.4111 51.8496" fill="#EB996E"/>
<path d="M65.232 41.4732C64.8929 40.1044 64.0468 38.9155 62.8647 38.1468C61.8971 37.4478 60.7477 37.0442 59.5555 36.9847C58.356 36.933 57.1848 37.3586 56.2983 38.1684C55.6692 38.7919 55.3094 39.6371 55.296 40.5228L55.3651 39.918C55.1836 40.4101 55.1836 40.9508 55.3651 41.4429C55.4645 41.7064 55.5855 41.9743 55.6891 42.2378C55.9984 42.9993 56.5721 43.6236 57.3048 43.996C57.6367 44.174 58.0083 44.2647 58.3848 44.2596C58.5733 44.2558 58.7587 44.2109 58.9281 44.1281C59.0975 44.0453 59.2467 43.9265 59.3655 43.78C59.6337 43.3118 59.7169 42.76 59.5987 42.2335C59.8822 42.7538 60.2867 43.1983 60.7781 43.5295C61.029 43.6898 61.3274 43.7589 61.6233 43.725C61.9191 43.6912 62.1942 43.5566 62.4024 43.3437C62.7567 42.9117 62.6184 42.2292 62.4024 41.6935C62.7366 42.1987 63.2048 42.6011 63.7546 42.8556C63.8993 42.9385 64.0596 42.9906 64.2254 43.0085C64.3912 43.0263 64.5589 43.0095 64.7179 42.9592C64.8451 42.8962 64.9562 42.8051 65.043 42.6929C65.1298 42.5806 65.19 42.4501 65.2191 42.3112C65.2832 42.036 65.2876 41.7502 65.232 41.4732Z" fill="#263238"/>
<path d="M62.1086 42.6228C62.0697 42.6228 62.0784 42.1087 61.9099 41.3268C61.7155 40.2878 61.1932 39.3384 60.4195 38.6181C59.9943 38.2315 59.4812 37.9542 58.9248 37.8103C58.469 37.6984 57.9945 37.6867 57.5337 37.7757C57.1091 37.875 56.7034 38.0428 56.3328 38.2725C56.3328 38.2725 56.4062 38.1645 56.5963 38.0263C56.8691 37.8355 57.1754 37.6977 57.4992 37.6202C57.9837 37.5068 58.4878 37.5068 58.9723 37.6202C59.5692 37.7693 60.119 38.0664 60.5707 38.4842C61.3808 39.2342 61.9098 40.2388 62.0697 41.3311C62.1211 41.654 62.1471 41.9805 62.1475 42.3074C62.1528 42.414 62.1397 42.5207 62.1086 42.6228Z" fill="#455A64"/>
<path d="M101.896 92.9879L85.2855 86.4C85.2855 86.4 76.7794 75.2414 76.9565 75.0254L70.9819 81.5659L79.6651 93.3119L99.792 98.0294L103.248 97.0703C102.488 93.4027 101.896 92.9879 101.896 92.9879Z" fill="#FFBE9D"/>
<path d="M65.6942 61.155L63.4305 60.291L53.6587 61.5309V63.2589L53.3779 63.2934C51.2715 63.7413 49.2511 64.5261 47.3947 65.6176C45.6558 66.6791 44.2741 68.2364 43.4273 70.0894C42.5805 71.9424 42.3072 74.0063 42.6427 76.0158C43.0401 78.4869 43.8091 81.4893 45.2952 83.2259C48.1334 86.548 50.7254 82.444 50.7254 82.444C50.7254 82.444 52.5053 86.5048 52.4016 88.4272C52.3152 90.0385 51.6067 93.3909 51.3777 94.4363C51.3683 94.4781 51.3675 94.5213 51.3754 94.5634C51.3833 94.6055 51.3996 94.6456 51.4235 94.6812C51.4473 94.7167 51.4782 94.7471 51.5141 94.7703C51.5501 94.7936 51.5904 94.8093 51.6326 94.8165L72.2477 98.631L72.347 93.5896L71.6904 72.8536L70.7616 64.8011C70.7616 64.8011 70.7918 60.9563 65.6942 61.155Z" fill="#F6CA13"/>
<path d="M70.4463 63.4629L78.3087 74.8202L71.9799 82.5271L70.4463 63.4629Z" fill="#F6CA13"/>
<path d="M72.144 87.3603C72.1158 87.1166 72.1057 86.8712 72.1138 86.6259C72.1138 86.1162 72.1138 85.4466 72.0879 84.6301C72.0496 82.4387 71.8924 80.251 71.617 78.0767C71.293 75.5279 70.7962 73.2512 70.4203 71.5967L69.9624 69.6527C69.896 69.4175 69.8469 69.1779 69.8156 68.9355C69.9138 69.16 69.9919 69.3928 70.0488 69.6311C70.1827 70.0631 70.3642 70.7413 70.5716 71.5621C71.1293 73.6936 71.5535 75.8578 71.8416 78.0421C72.1193 80.2256 72.255 82.4247 72.2477 84.6258C72.2477 85.4898 72.2261 86.1551 72.2002 86.6259C72.2024 86.8719 72.1836 87.1176 72.144 87.3603Z" fill="#263238"/>
<path d="M52.7904 70.0934C52.7904 70.1279 52.1943 70.1236 51.2396 70.1711C49.9938 70.2387 48.7549 70.399 47.533 70.6507C46.3114 70.907 45.1102 71.2521 43.9388 71.6831C43.0402 72.0158 42.5002 72.262 42.4829 72.2275C42.5936 72.1407 42.7157 72.0694 42.8458 72.0158C43.0834 71.8862 43.4376 71.722 43.8826 71.5363C46.2137 70.5736 48.7049 70.0578 51.2266 70.0156C51.7104 70.0156 52.0906 70.0156 52.3714 70.0415C52.5129 70.037 52.6543 70.0545 52.7904 70.0934Z" fill="#FAFAFA"/>
<path d="M70.9993 75.2893C70.6833 75.4041 70.3536 75.4767 70.0186 75.5053C68.4212 75.7385 66.8028 75.7935 65.1932 75.6694C64.857 75.6636 64.523 75.6143 64.1996 75.5226C64.533 75.4929 64.8684 75.4929 65.2018 75.5226C65.8153 75.5226 66.6663 75.5226 67.6037 75.5226C68.5412 75.5226 69.3879 75.4275 70.0013 75.3714C70.3308 75.3138 70.6648 75.2863 70.9993 75.2893Z" fill="#FAFAFA"/>
<path d="M74.6065 70.1537C74.1303 70.7039 73.5597 71.1647 72.9217 71.5145C72.3193 71.9217 71.6471 72.2146 70.9388 72.3785C70.9129 72.318 71.8028 71.9465 72.805 71.3071C73.8073 70.6678 74.5633 70.1019 74.6065 70.1537Z" fill="#FAFAFA"/>
<path d="M71.4312 64.8879C70.0682 66.114 68.3316 66.8445 66.5021 66.9615C66.5021 66.8924 67.6901 66.7109 69.0552 66.1277C70.4203 65.5445 71.388 64.8317 71.4312 64.8879Z" fill="#FAFAFA"/>
<path d="M71.8589 84.0853C71.7318 84.1707 71.5956 84.2417 71.4528 84.297C71.1807 84.4266 70.7875 84.5864 70.2864 84.7721C68.9845 85.24 67.6405 85.5814 66.2731 85.7917C64.9058 86.0027 63.5211 86.0794 62.1389 86.0206C61.6075 85.999 61.1799 85.9601 60.8861 85.9213C60.7323 85.9111 60.5801 85.8835 60.4325 85.8392C60.4325 85.8003 61.0891 85.8392 62.1605 85.8651C64.9072 85.8907 67.6398 85.4706 70.2519 84.621C71.2368 84.297 71.8459 84.0507 71.8589 84.0853Z" fill="#FAFAFA"/>
<path d="M72.0188 89.9395C72.0188 89.9395 71.9583 89.9827 71.833 90.0475L71.28 90.2894C70.8048 90.514 70.1007 90.8078 69.2194 91.1534C68.3381 91.499 67.2711 91.8316 66.0701 92.1599C63.4592 92.863 60.7793 93.2788 58.0781 93.3998C56.834 93.4473 55.7151 93.443 54.7733 93.3998C53.8316 93.3566 53.0756 93.2875 52.5528 93.214L51.9524 93.1319C51.8816 93.1268 51.8119 93.1123 51.745 93.0887C51.8151 93.0776 51.8866 93.0776 51.9567 93.0887L52.5615 93.1276C53.0842 93.1708 53.8575 93.214 54.7776 93.2399C55.6978 93.2659 56.834 93.2399 58.0695 93.1967C59.305 93.1535 60.6615 92.998 62.0741 92.7647C63.4868 92.5314 64.8173 92.2506 66.0183 91.9482C67.2192 91.6458 68.282 91.3046 69.1632 90.9892C70.0445 90.6738 70.7616 90.4103 71.2455 90.2116L71.8071 89.9913C71.8756 89.9667 71.9466 89.9493 72.0188 89.9395Z" fill="#FAFAFA"/>
<path d="M34.128 181.777L31.7909 192.331L27.5271 200.146C27.4546 200.279 27.4102 200.426 27.3967 200.578C27.3832 200.729 27.4009 200.881 27.4487 201.025C27.4965 201.17 27.5733 201.302 27.6745 201.416C27.7757 201.529 27.899 201.62 28.0368 201.684C28.1969 201.757 28.3722 201.791 28.548 201.783C28.7239 201.775 28.8953 201.725 29.0477 201.636C31.0263 200.496 38.2882 196.249 38.4135 195.467C38.5647 194.565 41.6189 184.499 41.6189 184.499L34.128 181.777Z" fill="#F6CA13"/>
<g opacity="0.6">
<path opacity="0.6" d="M28.0369 201.685L38.5906 194.773L38.4783 195.205C38.386 195.591 38.1593 195.931 37.8389 196.164C36.9749 196.782 34.5687 198.441 29.0823 201.647C28.9248 201.739 28.7469 201.791 28.5645 201.797C28.3821 201.804 28.2008 201.766 28.0369 201.685Z" fill="white"/>
</g>
<g opacity="0.6">
<path opacity="0.6" d="M37.2644 190.846C37.1119 190.91 36.9884 191.027 36.9174 191.176C36.8464 191.325 36.8331 191.496 36.8799 191.654C36.9376 191.808 37.0521 191.934 37.1999 192.007C37.3478 192.079 37.5177 192.092 37.6748 192.043C37.8379 191.975 37.9701 191.849 38.0452 191.689C38.1203 191.53 38.133 191.347 38.0808 191.179C38.0043 191.026 37.8722 190.908 37.7115 190.849C37.5509 190.791 37.3739 190.796 37.2168 190.863" fill="white"/>
</g>
<path d="M31.5619 197.685C31.3876 197.296 31.143 196.943 30.8404 196.644C30.492 196.401 30.1006 196.226 29.687 196.13C29.687 196.099 29.8382 196.052 30.0931 196.078C30.4248 196.121 30.7369 196.259 30.9916 196.475C31.2484 196.684 31.4377 196.963 31.536 197.279C31.6094 197.525 31.5878 197.685 31.5619 197.685Z" fill="#263238"/>
<path d="M30.4689 198.905C30.4085 198.94 30.1536 198.517 29.6481 198.227C29.3257 198.077 28.9938 197.949 28.6545 197.843C28.841 197.782 29.0394 197.766 29.2332 197.797C29.427 197.827 29.6107 197.904 29.7691 198.02C30.3437 198.352 30.5294 198.892 30.4689 198.905Z" fill="#263238"/>
<path d="M33.3937 196.225C33.0263 195.818 32.6276 195.439 32.2013 195.094C31.7317 194.807 31.2406 194.557 30.7325 194.346C31.3168 194.334 31.8863 194.53 32.3396 194.899C32.8393 195.2 33.2136 195.671 33.3937 196.225Z" fill="#263238"/>
<path d="M34.3742 193.074C34.331 193.13 33.8083 192.746 33.0782 192.534C32.3481 192.322 31.6872 192.357 31.6829 192.283C32.1637 192.159 32.6692 192.167 33.146 192.306C33.6228 192.445 34.0531 192.71 34.3915 193.074H34.3742Z" fill="#263238"/>
<path d="M35.1389 189.994C34.7175 189.734 34.2626 189.532 33.7868 189.394C33.2965 189.327 32.7995 189.327 32.3093 189.394C32.3093 189.368 32.4432 189.264 32.7197 189.182C33.0832 189.083 33.4646 189.071 33.8337 189.146C34.2027 189.221 34.5491 189.381 34.8452 189.614C35.0655 189.821 35.1562 189.977 35.1389 189.994Z" fill="#263238"/>
<path d="M33.9466 188.811C33.9469 188.673 33.9764 188.538 34.033 188.413C34.1554 188.057 34.3494 187.729 34.6032 187.45C34.7693 187.229 35.0028 187.068 35.2685 186.992C35.359 186.977 35.4518 186.99 35.535 187.028C35.6181 187.067 35.6878 187.129 35.7351 187.208C35.8145 187.369 35.8314 187.554 35.7826 187.726C35.6718 188.073 35.444 188.37 35.1383 188.567C34.8325 188.764 34.4677 188.849 34.1064 188.806C33.7501 188.756 33.4169 188.6 33.1486 188.361C32.8803 188.121 32.689 187.807 32.5987 187.458C32.578 187.37 32.5761 187.278 32.5932 187.189C32.6104 187.099 32.6461 187.015 32.6981 186.94C32.7578 186.87 32.8381 186.821 32.9274 186.8C33.0168 186.78 33.1104 186.788 33.1949 186.823C33.4391 186.945 33.6475 187.128 33.7997 187.355C34.0287 187.654 34.2027 187.992 34.3138 188.353C34.3664 188.481 34.3914 188.62 34.3872 188.759C34.2131 188.293 33.9699 187.856 33.6658 187.463C33.5242 187.278 33.3405 187.13 33.1301 187.031C33.0838 187.011 33.0323 187.006 32.9832 187.018C32.9342 187.029 32.8902 187.057 32.8579 187.096C32.8278 187.146 32.8083 187.203 32.8009 187.262C32.7935 187.32 32.7982 187.38 32.8147 187.437C32.9049 187.73 33.0759 187.992 33.3083 188.192C33.5406 188.392 33.8248 188.523 34.128 188.569C34.4336 188.604 34.7421 188.535 35.0034 188.373C35.2647 188.21 35.4632 187.964 35.5666 187.674C35.6084 187.557 35.6084 187.429 35.5666 187.312C35.5421 187.267 35.5043 187.232 35.4586 187.21C35.4129 187.188 35.3615 187.182 35.3117 187.191C35.0866 187.252 34.8859 187.382 34.7371 187.562C34.4058 187.931 34.1385 188.353 33.9466 188.811Z" fill="#263238"/>
<g opacity="0.3">
<path opacity="0.3" d="M33.843 182.922L33.3375 185.341L40.9796 186.611L41.619 184.499L34.1151 181.777L33.843 182.922Z" fill="black"/>
</g>
<path d="M68.2561 185.683L67.6253 194.116C67.6253 194.116 75.9889 197.572 76.0234 199.161L59.6074 198.526L60.0394 185.342L68.2561 185.683Z" fill="#F6CA13"/>
<g opacity="0.6">
<path opacity="0.6" d="M62.5926 193.208C62.4332 193.251 62.2951 193.351 62.2043 193.488C62.1136 193.626 62.0765 193.792 62.1001 193.955C62.1364 194.116 62.2326 194.257 62.369 194.349C62.5054 194.441 62.6718 194.478 62.8345 194.452C63.0039 194.407 63.1507 194.301 63.2464 194.154C63.3422 194.008 63.3801 193.831 63.3529 193.657C63.2983 193.493 63.1824 193.357 63.0294 193.276C62.8764 193.196 62.6982 193.178 62.5321 193.225" fill="white"/>
</g>
<g opacity="0.6">
<path opacity="0.6" d="M59.616 198.528L59.711 197.197L75.4142 198.29C75.4142 198.29 76.1356 198.636 76.032 199.154L59.616 198.528Z" fill="white"/>
</g>
<path d="M67.9018 194.042C67.9018 194.124 67.4957 194.145 67.094 194.387C66.6922 194.629 66.4676 194.957 66.3942 194.923C66.3207 194.888 66.459 194.43 66.9514 194.145C67.4439 193.86 67.9234 193.968 67.9018 194.042Z" fill="#263238"/>
<path d="M69.5952 194.833C69.5952 194.915 69.2582 195.036 68.9731 195.364C68.688 195.692 68.5973 196.046 68.5152 196.042C68.4331 196.038 68.4029 195.58 68.7658 195.178C69.1286 194.776 69.5952 194.746 69.5952 194.833Z" fill="#263238"/>
<path d="M70.4938 196.919C70.4203 196.919 70.3253 196.526 70.5456 196.099C70.7659 195.671 71.1504 195.507 71.1806 195.576C71.2109 195.645 70.9733 195.87 70.7962 196.224C70.619 196.578 70.5715 196.915 70.4938 196.919Z" fill="#263238"/>
<path d="M67.824 192.107C67.7894 192.176 67.4265 192.051 66.96 192.064C66.4934 192.077 66.1478 192.206 66.096 192.137C66.0441 192.068 66.407 191.796 66.96 191.787C67.5129 191.779 67.8758 192.046 67.824 192.107Z" fill="#263238"/>
<g opacity="0.3">
<path opacity="0.3" d="M68.1393 187.355L68.027 188.858L59.9702 188.469L60.0264 186.732L68.1393 187.355Z" fill="black"/>
</g>
<path d="M67.932 190.4C67.6606 190.466 67.3762 190.454 67.1112 190.366C66.8117 190.304 66.5214 190.203 66.2472 190.068C66.0873 189.989 65.9329 189.899 65.785 189.8C65.6948 189.745 65.6133 189.676 65.5431 189.597C65.4954 189.535 65.4696 189.459 65.4696 189.381C65.4696 189.303 65.4954 189.227 65.5431 189.165C65.5851 189.11 65.6395 189.066 65.7019 189.037C65.7643 189.008 65.8328 188.994 65.9016 188.996C66.0057 189.001 66.1087 189.018 66.2084 189.048C66.3812 189.099 66.549 189.165 66.7095 189.247C66.9823 189.38 67.2317 189.557 67.4482 189.77C67.8154 190.137 67.932 190.444 67.9061 190.457C67.8802 190.47 67.6944 190.223 67.3186 189.917C67.0979 189.744 66.8571 189.599 66.6015 189.485C66.4491 189.421 66.2933 189.367 66.1349 189.32C65.9621 189.269 65.8152 189.264 65.7677 189.32C65.7202 189.377 65.7677 189.364 65.7677 189.415C65.8195 189.473 65.8792 189.522 65.9448 189.562C66.0834 189.659 66.2277 189.747 66.3768 189.826C66.626 189.963 66.8878 190.076 67.1588 190.163C67.4218 190.224 67.6803 190.303 67.932 190.4Z" fill="#263238"/>
<path d="M67.824 190.513C67.6804 190.271 67.6155 189.99 67.6382 189.71C67.6399 189.406 67.6895 189.104 67.7851 188.815C67.8471 188.646 67.9237 188.483 68.0141 188.327C68.0626 188.22 68.1377 188.128 68.2323 188.058C68.3268 187.988 68.4376 187.944 68.5541 187.93C68.6278 187.934 68.6987 187.96 68.7584 188.004C68.8181 188.047 68.8641 188.107 68.891 188.176C68.9285 188.273 68.9518 188.375 68.9601 188.478C68.9885 188.662 68.9885 188.848 68.9601 189.031C68.9024 189.337 68.7703 189.623 68.5757 189.865C68.2387 190.297 67.9017 190.362 67.8931 190.336C67.8845 190.31 68.1523 190.15 68.4158 189.748C68.567 189.519 68.6659 189.26 68.7053 188.988C68.7271 188.83 68.7271 188.671 68.7053 188.513C68.6837 188.34 68.6232 188.193 68.5584 188.21C68.4936 188.228 68.3337 188.331 68.2603 188.47C68.176 188.608 68.1023 188.752 68.04 188.902C67.94 189.163 67.876 189.436 67.8499 189.714C67.7937 190.198 67.8672 190.513 67.824 190.513Z" fill="#263238"/>
<path d="M51.2871 94.7394C51.2871 94.7394 48.6951 94.856 46.9671 103.721C45.2391 112.585 32.0674 184.414 32.0674 184.414L41.6189 184.5L59.616 116.21L58.4194 186.626L68.1221 187.369C68.1221 187.369 75.4013 109.484 75.4661 104.952C75.5525 99.3013 72.3082 93.5859 72.3082 93.5859L51.2871 94.7394Z" fill="#263238"/>
<path d="M64.4156 93.9824C64.4761 93.9824 63.4825 99.0584 62.1994 105.292C60.9164 111.526 59.8278 116.572 59.7673 116.559C59.7068 116.546 60.6961 111.483 61.9791 105.249C63.2622 99.0152 64.3681 93.9695 64.4156 93.9824Z" fill="#455A64"/>
<path d="M65.9017 95.2478C65.9017 95.2218 66.1609 95.1441 66.4589 95.4076C66.5436 95.4844 66.6106 95.5786 66.6554 95.6837C66.7001 95.7889 66.7215 95.9025 66.7182 96.0167C66.7073 96.1612 66.6557 96.2996 66.5693 96.4158C66.4829 96.5321 66.3652 96.6214 66.23 96.6734C66.0981 96.7332 65.952 96.7549 65.8084 96.7358C65.6648 96.7167 65.5295 96.6576 65.4178 96.5654C65.3343 96.487 65.2684 96.3918 65.2244 96.2861C65.1805 96.1803 65.1595 96.0664 65.163 95.9519C65.163 95.5545 65.4308 95.4162 65.4351 95.4422C65.3623 95.6008 65.324 95.7731 65.3228 95.9476C65.3286 96.0353 65.3518 96.121 65.3911 96.1996C65.4305 96.2783 65.4851 96.3483 65.5518 96.4055C65.637 96.4643 65.7356 96.5007 65.8386 96.5114C65.9416 96.522 66.0456 96.5067 66.141 96.4667C66.2365 96.4267 66.3204 96.3633 66.385 96.2824C66.4496 96.2016 66.4929 96.1057 66.5108 96.0038C66.5172 95.9162 66.5059 95.8283 66.4777 95.7452C66.4495 95.6621 66.4049 95.5855 66.3466 95.5199C66.135 95.2737 65.8974 95.2823 65.9017 95.2478Z" fill="#455A64"/>
<path d="M65.4913 98.7564C65.4913 98.7305 65.7591 98.7564 65.9233 99.115C65.965 99.2173 65.9839 99.3276 65.9787 99.438C65.9735 99.5484 65.9442 99.6564 65.893 99.7543C65.8187 99.8708 65.7141 99.9648 65.5904 100.026C65.4667 100.088 65.3286 100.114 65.1909 100.103C65.0532 100.092 64.9212 100.044 64.8089 99.9632C64.6967 99.8827 64.6085 99.7732 64.5538 99.6463C64.5193 99.5422 64.508 99.4318 64.5207 99.3228C64.5334 99.2139 64.5697 99.109 64.6273 99.0156C64.8303 98.6916 65.1068 98.7002 65.0981 98.7262C65.0895 98.7521 64.8908 98.8126 64.7655 99.089C64.7021 99.2441 64.7021 99.4178 64.7655 99.5729C64.8106 99.6586 64.8767 99.7315 64.9575 99.7849C65.0384 99.8382 65.1314 99.8703 65.2279 99.878C65.3245 99.8858 65.4214 99.869 65.5098 99.8293C65.5981 99.7895 65.675 99.7281 65.7332 99.6506C65.8146 99.5029 65.8347 99.3292 65.7893 99.1668C65.6641 98.873 65.4697 98.7866 65.4913 98.7564Z" fill="#455A64"/>
<path d="M56.3372 95.3342C56.3194 95.4826 56.2816 95.6279 56.2248 95.7662C56.0899 96.1617 55.9208 96.5448 55.7194 96.911C55.0603 98.133 54.1083 99.1725 52.9487 99.9363C51.7892 100.7 50.4583 101.164 49.0753 101.287C48.6599 101.323 48.2421 101.323 47.8268 101.287C47.6804 101.283 47.5353 101.259 47.3948 101.218C47.3948 101.175 48.0471 101.248 49.0796 101.119C50.4252 100.955 51.7146 100.482 52.8465 99.7364C53.9784 98.9905 54.9219 97.9923 55.6028 96.8203C56.1082 95.9476 56.2983 95.3212 56.3372 95.3342Z" fill="#455A64"/>
<path d="M74.9218 101.638C74.9218 101.638 74.8095 101.586 74.6323 101.465C74.3849 101.287 74.1536 101.087 73.9411 100.869C73.2307 100.15 72.6763 99.2915 72.3128 98.3482C71.9493 97.4049 71.7845 96.3967 71.8287 95.3867C71.8386 95.0827 71.8776 94.7804 71.9453 94.4839C71.9928 94.2722 72.0231 94.1599 72.0403 94.1642C72.0576 94.1685 71.9885 94.6351 71.9885 95.3911C71.9892 97.3755 72.7266 99.2891 74.0578 100.761C74.5632 101.318 74.9434 101.603 74.9218 101.638Z" fill="#455A64"/>
<path d="M108.432 101.888C108.575 101.543 108.536 101.681 106.246 100.16C106.246 100.16 109.529 102.32 109.188 101.292C108.893 100.903 108.532 100.568 108.121 100.303C108.985 100.813 109.486 100.869 109.637 100.661C109.896 100.303 108.017 98.9333 107.123 98.3156C107.941 98.9004 108.798 99.4273 109.689 99.8924C110.22 100.057 109.966 99.4344 109.607 98.9808C109.248 98.5272 106.466 95.8488 105.719 95.0496C105.648 94.9888 105.591 94.9133 105.552 94.8283C105.512 94.7433 105.492 94.6508 105.492 94.5572C105.492 94.4636 105.512 94.3711 105.552 94.2861C105.591 94.201 105.648 94.1255 105.719 94.0647C107.058 93.2007 107.646 91.8226 107.628 91.369C107.614 91.2669 107.567 91.1721 107.495 91.0982C107.423 91.0244 107.329 90.9753 107.227 90.9581C107.125 90.9408 107.021 90.9562 106.928 91.0021C106.836 91.048 106.76 91.122 106.713 91.2135C106.375 91.6337 105.981 92.0057 105.542 92.3194C105.202 92.5848 104.819 92.7907 104.41 92.9285C103.935 93.084 101.598 92.9544 101.097 92.6996L99.5026 98.1039C99.5026 98.1039 105.287 100.808 106.384 101.335C107.732 101.975 108.333 102.152 108.432 101.888Z" fill="#FFBE9D"/>
<path d="M105.205 99.3609C105.157 99.4257 105.909 99.9744 106.881 100.592C107.853 101.21 108.67 101.655 108.709 101.59C108.747 101.525 107.996 100.972 107.028 100.359C106.06 99.7454 105.248 99.2789 105.205 99.3609Z" fill="#EB996E"/>
<path d="M105.749 98.3016C105.706 98.3664 106.475 98.9971 107.477 99.7142C108.48 100.431 109.309 100.963 109.352 100.902C109.395 100.842 108.631 100.207 107.624 99.4896C106.618 98.7724 105.797 98.2411 105.749 98.3016Z" fill="#EB996E"/>
<path d="M106.324 97.2314C106.281 97.2919 106.998 97.9053 107.927 98.5966C108.855 99.2878 109.655 99.7975 109.689 99.737C109.724 99.6766 109.02 99.0631 108.091 98.3719C107.162 97.6807 106.371 97.171 106.324 97.2314Z" fill="#EB996E"/>
<path d="M47.4897 77.6581L51.732 77.8914C52.0325 79.0757 52.4343 80.232 52.9329 81.3474C56.35 75.4203 58.9809 67.4759 59.6548 64.2834C59.5598 63.9695 59.4432 63.6152 59.3049 63.2207C59.2014 62.6242 59.2191 62.013 59.3568 61.4235C59.4734 60.7151 59.6721 59.756 59.7283 59.3154C59.914 57.9676 60.13 57.7515 60.5923 57.9071C61.2316 58.1144 60.3288 61.6957 60.8515 61.7735C61.1366 61.8124 61.4779 60.5855 61.5816 59.5789C61.6853 58.5724 62.1345 55.4792 62.4672 55.2589C62.9553 54.9565 63.3787 55.436 63.2577 56.4383C63.1368 57.4405 62.9769 60.4775 63.5083 60.5164C64.0396 60.5552 64.4717 55.4231 64.4717 55.4231C64.4717 55.4231 64.3896 54.3085 65.003 54.3344C66.1133 54.3819 65.2493 59.7949 65.1542 60.309C65.0851 60.6632 65.664 60.741 65.7158 60.3435C65.7676 59.9461 66.0355 55.2071 67.163 55.2459C68.027 55.2762 66.4934 59.7042 66.9816 60.7324C67.4697 61.7605 67.8067 57.2461 68.6361 57.3066C68.9429 57.3325 69.1718 57.393 68.6059 59.9461C68.0536 61.9763 67.3917 63.9751 66.623 65.9336C65.327 73.0184 59.5425 95.6811 50.5051 91.5339C45.4507 89.2141 43.0876 77.7099 43.0876 77.7099L47.4897 77.6581Z" fill="#FFBE9D"/>
<path d="M66.6317 65.9711C66.6392 65.9176 66.6537 65.8653 66.6749 65.8156C66.7138 65.7033 66.7613 65.5564 66.8261 65.3836C66.9687 64.9732 67.1631 64.4029 67.418 63.6556C67.6729 62.9082 67.9796 62.001 68.282 60.9296C68.4375 60.3983 68.5671 59.8194 68.6837 59.2016C68.7442 58.8906 68.8004 58.5709 68.8393 58.2426C68.85 58.0801 68.85 57.917 68.8393 57.7545C68.8393 57.586 68.8004 57.4477 68.6665 57.4434C68.5325 57.4391 68.4375 57.5212 68.3425 57.6637C68.2564 57.8163 68.1855 57.9769 68.1308 58.1432C68.0098 58.4845 67.9148 58.8474 67.8197 59.2146C67.7247 59.5818 67.6383 59.9663 67.526 60.3551C67.477 60.5681 67.3891 60.7702 67.2668 60.9512C67.236 60.9867 67.1954 61.0123 67.1501 61.0247C67.1216 61.031 67.092 61.0307 67.0636 61.024C67.0352 61.0173 67.0087 61.0042 66.986 60.9858C66.9363 60.9403 66.8954 60.8861 66.865 60.826C66.8194 60.7199 66.7889 60.6079 66.7743 60.4933C66.7546 59.622 66.8417 58.7515 67.0335 57.9013C67.1069 57.4693 67.1847 57.0373 67.2409 56.6053C67.2668 56.385 67.2927 56.1733 67.297 55.9401C67.3013 55.7068 67.2668 55.4605 67.1761 55.4216C67.0853 55.3828 66.865 55.5037 66.7441 55.6852C66.6247 55.8768 66.5303 56.083 66.4633 56.2986C66.316 56.7499 66.2047 57.2121 66.1306 57.681C66.0485 58.1562 65.9837 58.6401 65.9276 59.1325C65.906 59.3788 65.8801 59.625 65.8585 59.8756L65.8239 60.2514C65.8285 60.3317 65.8154 60.412 65.7856 60.4866C65.7557 60.5613 65.7098 60.6285 65.6511 60.6834C65.5771 60.7375 65.4879 60.7666 65.3962 60.7666C65.3046 60.7666 65.2153 60.7375 65.1413 60.6834C65.0994 60.6557 65.0639 60.6195 65.0371 60.577C65.0103 60.5346 64.9928 60.4869 64.9858 60.4372C64.9793 60.3913 64.9793 60.3448 64.9858 60.2989V60.2082L65.1025 59.4522C65.1759 58.9424 65.2364 58.4327 65.2839 57.9143C65.3314 57.3959 65.3703 56.8732 65.3789 56.3505C65.4043 55.8329 65.3518 55.3145 65.2234 54.8125C65.1936 54.6851 65.1164 54.5739 65.0074 54.5015C64.9553 54.4848 64.8993 54.4849 64.8473 54.502C64.7953 54.5191 64.75 54.5522 64.718 54.5965C64.5781 54.8523 64.5208 55.145 64.5538 55.4346C64.4588 56.4498 64.3508 57.4477 64.2039 58.4284C64.1305 58.9165 64.0484 59.4047 63.9274 59.8842C63.8929 60.0008 63.8583 60.1218 63.8151 60.2428C63.774 60.3894 63.6879 60.5193 63.5689 60.6143C63.5162 60.6401 63.4564 60.6474 63.3991 60.6348C63.3418 60.6223 63.2905 60.5907 63.2535 60.5452C63.2008 60.4898 63.1609 60.4234 63.1369 60.3508C63.0903 60.2309 63.0569 60.1063 63.0375 59.9792C62.9363 59.0392 62.9276 58.0914 63.0116 57.1496C63.0754 56.7106 63.1 56.2668 63.085 55.8234C63.071 55.6342 62.9843 55.4577 62.8431 55.3309C62.8099 55.3103 62.7729 55.2966 62.7343 55.2907C62.6957 55.2847 62.6563 55.2867 62.6185 55.2964C62.5781 55.31 62.539 55.3273 62.5018 55.3482C62.4629 55.3828 62.4673 55.3482 62.4413 55.4216C62.2851 55.8102 62.1707 56.2142 62.1001 56.6269C62.0137 57.0589 61.9402 57.452 61.8754 57.8581C61.8106 58.2642 61.7501 58.6617 61.6983 59.0591C61.6465 59.4565 61.6205 59.8453 61.5428 60.2341C61.4757 60.614 61.3744 60.987 61.2404 61.3487C61.2048 61.4407 61.1629 61.5302 61.1151 61.6165C61.0546 61.6986 61.0201 61.8023 60.8559 61.8541C60.8139 61.8618 60.7706 61.8569 60.7313 61.84C60.6921 61.8231 60.6588 61.7949 60.6356 61.7591C60.6054 61.7092 60.5821 61.6554 60.5665 61.5992C60.5471 61.5053 60.5355 61.41 60.5319 61.3141C60.5319 60.5754 60.6313 59.9015 60.6701 59.2492C60.6983 58.9373 60.6983 58.6236 60.6701 58.3117C60.6701 58.1735 60.6053 58.0093 60.5276 57.9791C60.4731 57.9524 60.4133 57.9385 60.3526 57.9385C60.292 57.9385 60.2321 57.9524 60.1777 57.9791C59.9963 58.1738 59.884 58.4228 59.858 58.6876C59.7932 58.9511 59.7673 59.2189 59.7197 59.4738C59.5383 60.4933 59.3482 61.3746 59.2575 62.0917C59.2149 62.4071 59.2149 62.7268 59.2575 63.0421C59.318 63.3013 59.4087 63.5346 59.4562 63.7161C59.5037 63.8975 59.5513 64.0271 59.5815 64.1481C59.5976 64.1943 59.6092 64.2421 59.6161 64.2906C59.5902 64.2488 59.5698 64.2038 59.5556 64.1567L59.4087 63.7247C59.3482 63.5389 59.2575 63.3316 59.1841 63.0465C59.1379 62.7227 59.1379 62.3939 59.1841 62.0701C59.2661 61.34 59.4389 60.4674 59.6161 59.4436C59.6636 59.1887 59.6895 58.9209 59.7457 58.6444C59.7766 58.4983 59.8155 58.3541 59.8623 58.2124C59.9055 58.0552 59.9997 57.9169 60.1301 57.8193C60.2087 57.7776 60.2962 57.7559 60.385 57.7559C60.4739 57.7559 60.5614 57.7776 60.6399 57.8193C60.7244 57.8725 60.7938 57.9465 60.8414 58.0343C60.8891 58.122 60.9134 58.2205 60.9121 58.3204C60.9423 58.6451 60.9423 58.972 60.9121 59.2967C60.8818 59.9533 60.7781 60.6402 60.7954 61.3401C60.7986 61.4228 60.8087 61.5052 60.8257 61.5863C60.8257 61.6684 60.8861 61.7029 60.8775 61.6856C60.8689 61.6684 60.9596 61.6165 60.9941 61.5474C61.0367 61.4708 61.0743 61.3914 61.1065 61.3098C61.2344 60.9596 61.3285 60.598 61.3873 60.2298C61.4607 59.854 61.4866 59.4652 61.5385 59.0634C61.5903 58.6617 61.6421 58.2642 61.7069 57.8538C61.7717 57.4434 61.8452 57.033 61.9273 56.614C61.9975 56.1763 62.1193 55.7486 62.2901 55.3396C62.3247 55.271 62.3769 55.2128 62.4413 55.1711C62.4987 55.1396 62.5596 55.115 62.6228 55.0977C62.6952 55.0769 62.7713 55.072 62.8458 55.0832C62.9203 55.0944 62.9916 55.1214 63.0548 55.1625C63.155 55.2421 63.2378 55.3414 63.298 55.4544C63.3582 55.5673 63.3945 55.6915 63.4047 55.8191C63.4371 56.0541 63.4371 56.2925 63.4047 56.5276C63.3831 56.7479 63.3615 56.9596 63.3485 57.2015C63.2644 58.1216 63.273 59.0479 63.3745 59.9663C63.393 60.0754 63.4219 60.1824 63.4609 60.286C63.4738 60.3278 63.496 60.3661 63.5257 60.3983C63.5257 60.3983 63.5257 60.3983 63.5473 60.3983C63.5473 60.4976 63.5473 60.3983 63.5473 60.4372C63.5473 60.476 63.5473 60.4372 63.5473 60.4026C63.6012 60.3304 63.6434 60.2503 63.6725 60.165C63.7129 60.0585 63.7474 59.9461 63.7762 59.8281C63.8929 59.3701 63.9706 58.8863 64.0441 58.4025C64.1909 57.4305 64.2989 56.4325 64.3897 55.4216V55.4433C64.3513 55.0872 64.4285 54.7282 64.61 54.4194C64.6793 54.3312 64.7743 54.2667 64.8819 54.235C64.9895 54.2032 65.1044 54.2058 65.2105 54.2423C65.3011 54.2926 65.3807 54.3605 65.4445 54.4422C65.5083 54.5238 65.5551 54.6174 65.582 54.7175C65.7203 55.2487 65.7771 55.7978 65.7505 56.3461C65.7505 56.8818 65.7029 57.4089 65.6554 57.9316C65.6079 58.4543 65.5431 58.9684 65.4697 59.4781C65.4308 59.7373 65.3919 59.9879 65.353 60.2428C65.3185 60.4026 65.3271 60.4069 65.353 60.4545C65.383 60.4747 65.4184 60.4855 65.4545 60.4855C65.4907 60.4855 65.5261 60.4747 65.5561 60.4545C65.6079 60.4156 65.6165 60.3421 65.6295 60.1996L65.6597 59.8237L65.7375 59.0764C65.7893 58.5839 65.8585 58.0914 65.9405 57.6119C66.0205 57.1302 66.136 56.6552 66.2861 56.1906C66.3646 55.9558 66.4704 55.731 66.6015 55.521C66.6729 55.4078 66.767 55.3107 66.878 55.2359C66.9396 55.1913 67.0109 55.1622 67.0861 55.1509C67.1613 55.1396 67.238 55.1466 67.31 55.1711C67.3762 55.2119 67.432 55.2675 67.4732 55.3334C67.5144 55.3993 67.5399 55.4739 67.5476 55.5513C67.5654 55.6728 67.5726 55.7957 67.5692 55.9185C67.5692 56.1561 67.5389 56.385 67.513 56.614C67.4525 57.046 67.3705 57.5039 67.2927 57.9402C67.1071 58.7608 67.0173 59.6002 67.0249 60.4415C67.037 60.5318 67.0603 60.6203 67.094 60.705C67.1097 60.7357 67.1285 60.7646 67.1501 60.7914C67.1501 60.7914 67.1501 60.7914 67.1501 60.7612C67.2471 60.605 67.3186 60.4344 67.3618 60.2557C67.4741 59.8799 67.5649 59.4997 67.6642 59.1282C67.7533 58.7586 67.8615 58.3937 67.9882 58.0353C68.0481 57.8577 68.1262 57.6868 68.2215 57.5255C68.273 57.4376 68.3404 57.3599 68.4202 57.2965C68.4637 57.2589 68.5155 57.2322 68.5714 57.2188C68.6272 57.21 68.6841 57.21 68.7399 57.2188C68.7989 57.2247 68.8552 57.2462 68.903 57.2811C68.9509 57.3161 68.9885 57.3631 69.0121 57.4175C69.0481 57.5083 69.0672 57.6049 69.0682 57.7026C69.0716 57.8774 69.0615 58.0521 69.038 58.2253C68.9991 58.5623 68.9343 58.882 68.8738 59.1973C68.7485 59.8151 68.6103 60.4026 68.4418 60.9253C68.1178 61.9967 67.7938 62.9039 67.5303 63.6426C67.2668 64.3813 67.0421 64.9386 66.8909 65.3361C66.8175 65.5175 66.757 65.6601 66.7138 65.7681C66.6945 65.8387 66.6669 65.9069 66.6317 65.9711Z" fill="#EB996E"/>
<path d="M43.0488 78.1451C43.8696 81.0438 45.4767 85.515 47.2003 90.2411C47.2547 90.3934 47.353 90.5261 47.4828 90.6224C47.6126 90.7188 47.7681 90.7744 47.9296 90.7823C48.0911 90.7901 48.2513 90.7499 48.3898 90.6666C48.5284 90.5834 48.6392 90.4608 48.708 90.3146L52.933 81.3765C52.933 81.3765 51.9135 74.0325 51.9999 74.296C52.0863 74.5595 43.2821 75.2464 43.2821 75.2464L43.0488 78.1451Z" fill="#F6CA13"/>
<path d="M52.5701 76.7072C52.5701 76.7418 52.0431 76.8973 51.2093 77.217C50.1197 77.6306 49.0699 78.1424 48.073 78.7462C47.0774 79.3529 46.1377 80.0468 45.265 80.8198C44.5954 81.4117 44.2109 81.8177 44.185 81.7918C44.1591 81.7659 44.2584 81.6709 44.4226 81.4765C44.654 81.2063 44.8991 80.9482 45.157 80.7032C46.0085 79.8832 46.9472 79.1589 47.9564 78.5432C48.9658 77.935 50.0375 77.4368 51.1532 77.0571C51.4904 76.9409 51.8336 76.8429 52.1813 76.7634C52.3071 76.724 52.4384 76.7051 52.5701 76.7072Z" fill="#FAFAFA"/>
<path d="M54.2463 78.9368C53.9718 78.66 53.7337 78.3493 53.5378 78.0123C53.0333 77.2257 52.5996 76.3959 52.2418 75.5326C51.8838 74.6667 51.6047 73.7703 51.408 72.8542C51.3074 72.4795 51.2565 72.0931 51.2568 71.7051C51.3857 72.0673 51.4882 72.4383 51.5636 72.8153C51.795 73.7099 52.0836 74.5886 52.4276 75.4462C52.7869 76.2993 53.1996 77.1289 53.6631 77.9302C53.8788 78.2529 54.0736 78.5891 54.2463 78.9368Z" fill="#263238"/>
<path d="M57.0629 39.3554C56.33 40.5633 55.8757 41.9195 55.7329 43.3252C55.5902 44.7309 55.7626 46.1507 56.2378 47.4813C56.6698 48.6693 57.361 49.84 57.2357 51.1015C57.1104 52.3629 56.1255 53.6114 56.4711 54.8556C56.6784 55.5943 57.3091 56.1516 57.5554 56.8687C57.8362 57.7327 57.5554 58.6442 57.4042 59.5298C57.0586 61.7935 57.7843 64.0701 57.9615 66.3511C58.1386 68.632 57.5295 71.3061 55.4904 72.2997C54.8727 72.6021 54.0648 72.6885 53.5507 72.2263C52.8941 71.6431 53.0755 70.589 53.257 69.725C55.0455 61.085 49.5202 52.6524 50.7816 43.9087C50.9847 42.509 51.7666 40.133 52.7731 39.1567C53.7797 38.1804 56.5747 38.2927 57.5251 39.3295" fill="#263238"/>
<path d="M48.5525 64.4219C48.5525 64.4219 48.816 64.1109 49.2048 63.4974C49.7504 62.6311 50.1326 61.672 50.3323 60.6678C50.4627 59.9761 50.5076 59.271 50.4662 58.5683C50.3907 57.7513 50.3604 56.9307 50.3755 56.1102C50.4013 55.661 50.484 55.2168 50.6218 54.7883C50.7796 54.347 50.9793 53.9217 51.2179 53.5182C51.7018 52.7018 52.3109 51.9414 52.8725 51.1293C53.4492 50.3617 53.8503 49.4769 54.0475 48.5373C54.1433 47.6523 54.0922 46.7575 53.8963 45.8891C53.7329 45.0821 53.669 44.258 53.7062 43.4354C53.7577 42.7168 53.9029 42.0081 54.1382 41.3272C54.4682 40.3392 54.9877 39.4251 55.6675 38.6358C55.8481 38.4213 56.0445 38.2206 56.255 38.0354C56.3218 37.9642 56.3973 37.9018 56.4797 37.8496C56.4797 37.8496 56.1902 38.1304 55.7323 38.7136C54.6417 40.0674 54.0039 41.7297 53.9093 43.4656C53.8804 44.2748 53.9515 45.0844 54.121 45.8762C54.327 46.7679 54.3825 47.6878 54.2851 48.5978C54.0803 49.5636 53.6676 50.4731 53.0755 51.2632C52.5096 52.0883 51.9005 52.8443 51.4253 53.6392C51.1916 54.0277 50.9976 54.4387 50.8464 54.8661C50.7097 55.277 50.627 55.7039 50.6002 56.1362C50.5811 56.9475 50.6041 57.7594 50.6693 58.5683C50.7036 59.2852 50.6485 60.0035 50.5051 60.7067C50.2887 61.7246 49.878 62.6912 49.2955 63.5536C49.1378 63.7867 48.9647 64.009 48.7771 64.2189C48.7099 64.2946 48.6346 64.3627 48.5525 64.4219Z" fill="#455A64"/>
<path d="M44.4572 65.0657C44.492 64.965 44.5368 64.868 44.5911 64.7763C44.6991 64.5732 44.8373 64.3054 45.0231 63.9684C45.386 63.2643 45.926 62.2404 46.4573 60.9444C47.1073 59.4308 47.4678 57.8087 47.52 56.1622C47.5203 55.6878 47.4842 55.2141 47.412 54.7452C47.3386 54.2614 47.2263 53.7732 47.1528 53.2635C47.063 52.7362 47.0747 52.1966 47.1874 51.6737C47.3335 51.1369 47.6339 50.6547 48.0514 50.287C48.8636 49.5483 49.8442 49.0644 50.354 48.1961C50.7956 47.3351 51.0559 46.3926 51.1186 45.427C51.21 44.5418 51.4103 43.6712 51.7148 42.835C52.3995 41.0398 53.6196 39.4985 55.2096 38.42C55.4631 38.2493 55.7272 38.0949 56.0002 37.9577C56.0924 37.9025 56.191 37.859 56.294 37.8281C56.294 37.8281 55.9052 38.0355 55.2615 38.4934C54.3542 39.1408 53.5688 39.9438 52.9416 40.8651C52.5067 41.4966 52.1525 42.1802 51.8876 42.8998C51.5964 43.738 51.4079 44.6083 51.326 45.4918C51.1964 46.412 51.0927 47.4401 50.5397 48.3516C49.9868 49.2632 48.9759 49.7816 48.2026 50.5116C47.8085 50.8536 47.5244 51.3045 47.3861 51.8076C47.2811 52.3023 47.2708 52.8125 47.3559 53.311C47.425 53.8078 47.533 54.3003 47.6064 54.7884C47.6812 55.2686 47.7158 55.7541 47.7101 56.24C47.6514 57.9166 47.2716 59.5664 46.5912 61.1C46.1493 62.1363 45.6474 63.146 45.0879 64.124L44.63 64.8022C44.5818 64.8959 44.5239 64.9842 44.4572 65.0657Z" fill="#455A64"/>
<path d="M187.389 187.133C187.409 187.07 187.435 187.009 187.466 186.951C187.527 186.822 187.609 186.649 187.708 186.429C188.009 185.754 188.25 185.054 188.43 184.338C188.905 182.48 189.073 179.642 188.369 176.272C187.987 174.435 187.486 172.624 186.87 170.851C186.239 168.928 185.501 166.889 184.9 164.682C184.222 162.38 183.895 159.988 183.928 157.588C184.019 155.078 184.762 152.577 185.579 150.08C186.395 147.583 187.237 145.151 187.488 142.689C187.767 140.327 187.292 137.938 186.131 135.863C185.051 133.872 183.691 132.165 182.675 130.403C181.725 128.765 181.025 126.994 180.598 125.15C179.985 122.479 179.939 119.709 180.464 117.019C180.655 116.035 180.944 115.073 181.328 114.146C181.316 114.211 181.299 114.275 181.276 114.337L181.103 114.885C180.956 115.369 180.762 116.095 180.576 117.045C180.093 119.723 180.165 122.471 180.788 125.119C181.221 126.942 181.924 128.689 182.874 130.303C183.889 132.031 185.255 133.759 186.36 135.759C187.549 137.877 188.037 140.316 187.756 142.728C187.501 145.225 186.654 147.683 185.838 150.175C185.021 152.668 184.287 155.143 184.196 157.61C184.157 159.986 184.478 162.354 185.147 164.634C185.738 166.829 186.464 168.868 187.091 170.799C187.701 172.582 188.191 174.403 188.559 176.251C189.246 179.646 189.052 182.515 188.559 184.377C188.367 185.095 188.108 185.793 187.786 186.463L187.518 186.977C187.481 187.034 187.438 187.086 187.389 187.133Z" fill="#263238"/>
<path d="M184.058 132.144C184.058 132.144 181.993 125.53 185.7 121.66C185.728 121.628 185.765 121.606 185.806 121.594C185.847 121.583 185.89 121.583 185.931 121.595C185.971 121.606 186.008 121.629 186.037 121.66C186.065 121.692 186.085 121.73 186.093 121.772C186.291 122.865 186.538 126.191 184.058 132.144Z" fill="#F6CA13"/>
<path d="M185.298 123.861C185.291 124.271 185.245 124.679 185.16 125.08C185.021 125.922 184.861 126.907 184.689 127.996C184.516 129.084 184.356 130.073 184.222 130.912C184.184 131.32 184.112 131.725 184.006 132.121C183.966 131.713 183.974 131.301 184.032 130.894C184.101 130.138 184.235 129.101 184.421 127.961C184.607 126.821 184.81 125.801 184.969 125.054C185.033 124.645 185.143 124.245 185.298 123.861Z" fill="#263238"/>
<path d="M186.486 147.743C186.486 147.743 187.751 140.93 192.84 139.245C192.881 139.231 192.924 139.229 192.965 139.238C193.007 139.247 193.045 139.267 193.075 139.297C193.106 139.327 193.127 139.364 193.138 139.405C193.148 139.447 193.147 139.49 193.134 139.53C192.797 140.58 191.462 143.634 186.486 147.743Z" fill="#F6CA13"/>
<path d="M191.454 140.994C191.256 141.354 191.025 141.694 190.763 142.009L188.978 144.364L187.207 146.727C186.984 147.07 186.731 147.392 186.451 147.69C186.609 147.31 186.812 146.95 187.056 146.619C187.488 145.984 188.075 145.128 188.784 144.208C189.492 143.288 190.136 142.48 190.624 141.893C190.867 141.564 191.145 141.262 191.454 140.994Z" fill="#263238"/>
<path d="M185.112 164.819C185.112 164.819 184.343 157.933 188.724 154.845C188.757 154.818 188.798 154.802 188.841 154.798C188.883 154.794 188.926 154.802 188.964 154.822C189.002 154.841 189.034 154.871 189.056 154.908C189.077 154.945 189.088 154.988 189.086 155.03C189.073 156.141 188.68 159.45 185.112 164.819Z" fill="#F6CA13"/>
<path d="M187.92 156.928C187.84 157.33 187.717 157.722 187.553 158.098L186.533 160.872C186.153 161.909 185.812 162.846 185.522 163.645C185.412 164.039 185.267 164.422 185.09 164.79C185.13 164.38 185.22 163.977 185.358 163.589C185.57 162.863 185.898 161.861 186.3 160.781C186.702 159.701 187.095 158.729 187.393 158.034C187.531 157.648 187.707 157.277 187.92 156.928Z" fill="#263238"/>
<path d="M188.944 182.004C188.944 182.004 188.425 175.092 192.91 172.163C192.945 172.139 192.986 172.125 193.028 172.123C193.071 172.121 193.113 172.131 193.15 172.152C193.188 172.172 193.218 172.203 193.239 172.24C193.26 172.277 193.27 172.32 193.268 172.362C193.216 173.472 192.707 176.769 188.944 182.004Z" fill="#F6CA13"/>
<path d="M192.02 174.221C191.923 174.62 191.785 175.008 191.609 175.378C191.29 176.165 190.909 177.106 190.49 178.113C190.071 179.12 189.704 180.057 189.384 180.848C189.256 181.238 189.093 181.615 188.896 181.975C188.954 181.567 189.059 181.166 189.212 180.783C189.449 180.066 189.812 179.081 190.253 178.014C190.693 176.947 191.117 175.988 191.441 175.305C191.595 174.924 191.789 174.561 192.02 174.221Z" fill="#263238"/>
<path d="M181.086 126.333C181.086 126.333 174.96 123.119 174.826 117.766C174.826 117.724 174.837 117.683 174.858 117.647C174.879 117.611 174.91 117.581 174.946 117.56C174.983 117.54 175.024 117.53 175.066 117.531C175.108 117.533 175.149 117.545 175.185 117.568C176.096 118.198 178.628 120.376 181.086 126.333Z" fill="#F6CA13"/>
<path d="M176.1 119.607C176.388 119.901 176.644 120.224 176.865 120.571C177.366 121.258 177.949 122.07 178.593 122.964L180.321 125.349C180.584 125.662 180.819 125.999 181.021 126.355C180.705 126.092 180.422 125.792 180.179 125.461C179.69 124.882 179.051 124.053 178.377 123.115C177.703 122.178 177.111 121.31 176.705 120.674C176.467 120.341 176.264 119.983 176.1 119.607Z" fill="#263238"/>
<path d="M187.682 140.533C187.682 140.533 181.358 137.704 180.913 132.36C180.909 132.318 180.917 132.276 180.936 132.238C180.955 132.2 180.984 132.168 181.02 132.146C181.055 132.124 181.097 132.112 181.139 132.111C181.181 132.111 181.222 132.122 181.259 132.144C182.205 132.718 184.861 134.731 187.682 140.533Z" fill="#F6CA13"/>
<path d="M182.304 134.121C182.609 134.395 182.884 134.701 183.125 135.033L185 137.318L186.879 139.595C187.16 139.892 187.415 140.215 187.639 140.558C187.308 140.313 187.006 140.031 186.741 139.715C186.222 139.163 185.531 138.376 184.801 137.482C184.071 136.588 183.431 135.754 182.982 135.145C182.719 134.83 182.491 134.486 182.304 134.121Z" fill="#263238"/>
<path d="M184.032 156.383C184.032 156.383 179.712 150.983 181.729 146.015C181.745 145.976 181.772 145.942 181.806 145.917C181.84 145.893 181.88 145.877 181.922 145.874C181.964 145.87 182.006 145.878 182.044 145.897C182.081 145.916 182.113 145.945 182.136 145.981C182.736 146.918 184.175 149.925 184.032 156.383Z" fill="#F6CA13"/>
<path d="M182.166 148.209C182.313 148.593 182.421 148.991 182.485 149.397C182.667 150.226 182.879 151.203 183.112 152.283C183.345 153.363 183.565 154.335 183.747 155.164C183.862 155.558 183.942 155.961 183.984 156.369C183.795 156.002 183.65 155.613 183.552 155.212C183.341 154.482 183.082 153.484 182.84 152.335C182.598 151.185 182.408 150.175 182.287 149.432C182.202 149.03 182.161 148.62 182.166 148.209Z" fill="#263238"/>
<path d="M188.352 175.007C188.352 175.007 182.075 172.074 181.721 166.726C181.717 166.683 181.725 166.64 181.744 166.602C181.763 166.564 181.792 166.531 181.828 166.509C181.865 166.486 181.907 166.474 181.95 166.475C181.993 166.475 182.034 166.487 182.071 166.51C183 167.102 185.622 169.162 188.352 175.007Z" fill="#F6CA13"/>
<path d="M183.069 168.506C183.365 168.789 183.635 169.1 183.872 169.435L185.708 171.746L187.548 174.057C187.825 174.359 188.074 174.686 188.291 175.033C187.97 174.781 187.68 174.491 187.427 174.169C186.913 173.608 186.239 172.809 185.522 171.901C184.805 170.994 184.183 170.152 183.743 169.534C183.479 169.219 183.252 168.874 183.069 168.506Z" fill="#263238"/>
<path d="M200.841 147.773C200.841 147.773 200.841 147.825 200.841 147.925C200.841 148.024 200.841 148.188 200.841 148.357C200.841 148.789 200.798 149.337 200.768 150.037C200.69 151.515 200.573 153.575 200.439 156.038C200.007 158.543 198.711 161.321 196.983 164.021C195.726 166.008 194.391 167.814 193.268 169.494C192.243 170.969 191.322 172.514 190.512 174.117C189.976 175.2 189.542 176.331 189.216 177.495C189.108 177.905 189.022 178.229 188.974 178.45C188.954 178.564 188.923 178.677 188.883 178.787C188.885 178.67 188.899 178.554 188.926 178.441C188.957 178.216 189.022 177.888 189.121 177.469C189.412 176.285 189.824 175.134 190.352 174.035C191.155 172.419 192.075 170.864 193.104 169.382C194.236 167.689 195.545 165.879 196.798 163.904C198.504 161.217 199.774 158.483 200.254 156.016C200.426 153.558 200.569 151.502 200.686 150.024C200.742 149.324 200.789 148.767 200.824 148.348C200.824 148.175 200.854 148.028 200.867 147.916C200.852 147.87 200.844 147.822 200.841 147.773Z" fill="#263238"/>
<path d="M197.104 163.523C197.104 163.523 199.761 157.13 196.422 152.935C196.396 152.901 196.361 152.876 196.321 152.861C196.282 152.845 196.239 152.842 196.197 152.85C196.155 152.858 196.117 152.877 196.085 152.906C196.054 152.935 196.031 152.972 196.02 153.013C195.722 154.084 195.173 157.372 197.104 163.523Z" fill="#F6CA13"/>
<path d="M196.62 155.168C196.735 155.562 196.806 155.968 196.832 156.378C196.927 157.129 197.031 158.17 197.113 159.324C197.195 160.477 197.234 161.523 197.234 162.283C197.26 162.693 197.235 163.105 197.16 163.51C197.086 163.107 197.05 162.697 197.052 162.287C196.996 161.423 196.927 160.443 196.854 159.341C196.78 158.239 196.711 157.242 196.651 156.395C196.6 155.988 196.59 155.577 196.62 155.168Z" fill="#263238"/>
<g opacity="0.3">
<path opacity="0.3" d="M197.104 163.523C197.104 163.523 199.761 157.13 196.422 152.935C196.396 152.901 196.361 152.876 196.321 152.861C196.282 152.845 196.239 152.842 196.197 152.85C196.155 152.858 196.117 152.877 196.085 152.906C196.054 152.935 196.031 152.972 196.02 153.013C195.722 154.084 195.173 157.372 197.104 163.523Z" fill="black"/>
</g>
<path d="M188.875 178.943C188.875 178.943 191.004 172.351 187.332 168.446C187.304 168.414 187.267 168.392 187.227 168.38C187.186 168.368 187.143 168.368 187.103 168.379C187.062 168.39 187.025 168.413 186.997 168.443C186.968 168.474 186.948 168.512 186.939 168.554C186.732 169.642 186.451 172.969 188.875 178.943Z" fill="#F6CA13"/>
<path d="M187.713 170.639C187.862 171.023 187.967 171.423 188.024 171.831C188.179 172.57 188.365 173.602 188.542 174.743C188.719 175.883 188.84 176.924 188.905 177.68C188.961 178.088 188.968 178.502 188.927 178.911C188.824 178.515 188.755 178.11 188.719 177.702C188.594 176.859 188.447 175.875 188.287 174.782C188.127 173.689 187.972 172.704 187.855 171.861C187.768 171.459 187.72 171.05 187.713 170.639Z" fill="#263238"/>
<g opacity="0.3">
<path opacity="0.3" d="M188.875 178.943C188.875 178.943 191.004 172.351 187.332 168.446C187.304 168.414 187.267 168.392 187.227 168.38C187.186 168.368 187.143 168.368 187.103 168.379C187.062 168.39 187.025 168.413 186.997 168.443C186.968 168.474 186.948 168.512 186.939 168.554C186.732 169.642 186.451 172.969 188.875 178.943Z" fill="black"/>
</g>
<path d="M200.491 155.71C200.491 155.71 206.163 151.735 205.593 146.404C205.589 146.362 205.573 146.322 205.547 146.289C205.522 146.256 205.487 146.23 205.448 146.215C205.409 146.199 205.366 146.195 205.324 146.203C205.283 146.21 205.244 146.229 205.213 146.257C204.388 147 202.176 149.471 200.491 155.71Z" fill="#F6CA13"/>
<g opacity="0.3">
<path opacity="0.3" d="M200.491 155.71C200.491 155.71 206.163 151.735 205.593 146.404C205.589 146.362 205.573 146.322 205.547 146.289C205.522 146.256 205.487 146.23 205.448 146.215C205.409 146.199 205.366 146.195 205.324 146.203C205.283 146.21 205.244 146.229 205.213 146.257C204.388 147 202.176 149.471 200.491 155.71Z" fill="black"/>
</g>
<path d="M204.565 148.396C204.452 148.792 204.294 149.173 204.094 149.533C203.77 150.215 203.299 151.148 202.751 152.168C202.202 153.187 201.675 154.09 201.269 154.73C201.069 155.089 200.827 155.422 200.547 155.723C200.699 155.343 200.887 154.979 201.109 154.635C201.515 153.887 201.995 153.015 202.522 152.043L203.93 149.451C204.107 149.079 204.319 148.726 204.565 148.396Z" fill="#263238"/>
<path d="M191.164 172.406C191.164 172.406 198.007 171.339 199.839 166.302C199.854 166.263 199.857 166.22 199.85 166.179C199.842 166.138 199.823 166.099 199.795 166.068C199.767 166.037 199.731 166.014 199.69 166.002C199.65 165.99 199.607 165.989 199.567 166C198.5 166.319 195.407 167.551 191.164 172.406Z" fill="#F6CA13"/>
<g opacity="0.3">
<path opacity="0.3" d="M191.164 172.406C191.164 172.406 198.007 171.339 199.839 166.302C199.854 166.263 199.857 166.22 199.85 166.179C199.842 166.138 199.823 166.099 199.795 166.068C199.767 166.037 199.731 166.014 199.69 166.002C199.65 165.99 199.607 165.989 199.567 166C198.5 166.319 195.407 167.551 191.164 172.406Z" fill="black"/>
</g>
<path d="M198.042 167.637C197.764 167.939 197.454 168.21 197.117 168.445C196.525 168.92 195.692 169.55 194.754 170.224C193.817 170.898 192.94 171.473 192.292 171.87C191.954 172.106 191.588 172.299 191.203 172.445C191.51 172.172 191.841 171.927 192.192 171.715L194.603 170.013L197.009 168.285C197.329 168.033 197.676 167.815 198.042 167.637Z" fill="#263238"/>
<path d="M184.632 185.004L182.637 198.439H195.078L193.467 185.004H184.632Z" fill="#455A64"/>
<path d="M193.968 189.163C193.968 189.236 191.722 189.292 188.952 189.292C186.183 189.292 183.933 189.236 183.933 189.163C185.603 189.035 187.278 188.991 188.952 189.033C190.625 188.991 192.299 189.035 193.968 189.163Z" fill="#263238"/>
<path d="M194.21 190.235C194.21 190.309 191.89 190.365 189.026 190.365C186.162 190.365 183.842 190.309 183.842 190.235C183.842 190.162 186.162 190.105 189.026 190.105C191.89 190.105 194.21 190.162 194.21 190.235Z" fill="#263238"/>
<path d="M145.83 54.6662C145.83 54.6662 145.714 54.6662 145.489 54.6662C145.161 54.6467 144.832 54.6467 144.504 54.6662C143.235 54.7404 141.989 55.0327 140.819 55.5302C138.965 56.3073 137.352 57.5643 136.145 59.1719C135.401 60.1757 134.847 61.3076 134.512 62.5113C133.756 65.3785 134.164 68.4285 135.648 70.9958C136.052 71.7065 136.546 72.3627 137.117 72.9484C137.693 73.5689 138.363 74.0938 139.104 74.5036C139.864 74.9313 140.725 75.1476 141.597 75.13C142.496 75.1192 143.358 74.7707 144.012 74.1537C144.328 73.8225 144.575 73.4323 144.741 73.0053C144.906 72.5784 144.986 72.1231 144.975 71.6654C144.968 70.7144 144.666 69.789 144.111 69.0172C142.992 67.4404 141.178 66.382 139.247 65.8118C137.244 65.2494 135.13 65.2196 133.112 65.7254C132.082 65.9933 131.09 66.3879 130.157 66.9004C129.216 67.4317 128.361 68.1032 127.621 68.8919C127.444 69.095 127.241 69.2807 127.081 69.5054L126.593 70.162C126.296 70.6247 126.031 71.1067 125.798 71.6049C125.336 72.6163 125.021 73.6883 124.861 74.7887C124.547 76.9871 124.846 79.2293 125.725 81.2687C126.565 83.2614 128.027 84.9286 129.894 86.0207C130.799 86.5378 131.809 86.8435 132.849 86.915C133.868 86.972 134.882 86.7287 135.765 86.2151C136.641 85.731 137.333 84.9719 137.735 84.0551C138.113 83.1516 138.14 82.1388 137.808 81.2169C137.467 80.3274 136.908 79.5374 136.184 78.9186C135.481 78.3113 134.671 77.841 133.795 77.5319C132.087 76.9933 130.259 76.9618 128.533 77.4412C126.918 77.8788 125.435 78.7049 124.213 79.8474C123.1 80.9138 122.252 82.2262 121.738 83.6793C120.838 86.2006 120.879 88.9621 121.854 91.4553C122.615 93.3165 123.839 94.9524 125.41 96.2073C126.399 97.001 127.501 97.643 128.68 98.1124C129.086 98.2636 129.401 98.3759 129.617 98.4364L129.937 98.5401C129.937 98.5401 129.825 98.5185 129.609 98.458C129.29 98.3726 128.975 98.2702 128.667 98.1513C127.473 97.7026 126.356 97.07 125.358 96.2764C123.76 95.0224 122.512 93.3785 121.733 91.5028C120.741 88.9861 120.69 86.1958 121.591 83.6447C122.106 82.1696 122.963 80.8373 124.092 79.7567C125.331 78.5912 126.837 77.746 128.477 77.2943C130.239 76.8027 132.106 76.8327 133.851 77.3807C134.753 77.6952 135.587 78.1774 136.309 78.802C137.062 79.441 137.641 80.2597 137.994 81.1823C138.349 82.1455 138.334 83.2063 137.951 84.1588C137.524 85.1117 136.802 85.9012 135.89 86.4095C134.975 86.9429 133.924 87.1981 132.866 87.1439C131.801 87.0696 130.767 86.7534 129.842 86.2194C127.933 85.1121 126.434 83.416 125.569 81.3854C124.672 79.3086 124.364 77.0247 124.68 74.7844C124.844 73.6617 125.167 72.568 125.639 71.5358C125.876 71.027 126.147 70.5349 126.451 70.0626L126.952 69.393C127.112 69.1641 127.319 68.961 127.501 68.7623C128.257 67.9587 129.131 67.2741 130.093 66.7319C131.047 66.2097 132.063 65.8091 133.117 65.5396C135.172 65.0244 137.327 65.0557 139.368 65.6303C141.337 66.2178 143.182 67.2935 144.344 68.9265C144.928 69.7305 145.246 70.6975 145.251 71.6913C145.272 72.6693 144.904 73.6156 144.228 74.3222C143.536 74.971 142.627 75.3364 141.679 75.346C140.772 75.3666 139.876 75.1412 139.087 74.6937C138.328 74.2753 137.643 73.737 137.056 73.0996C136.478 72.5008 135.977 71.8317 135.566 71.1081C134.056 68.4931 133.645 65.3854 134.425 62.4681C134.771 61.2505 135.338 60.1068 136.097 59.0942C137.326 57.4743 138.967 56.2138 140.849 55.4438C142.029 54.9559 143.285 54.6809 144.56 54.6316C144.891 54.6098 145.223 54.6098 145.554 54.6316L145.83 54.6662Z" fill="#263238"/>
<path d="M160.255 97.8926H99.6841V144.609H160.255V97.8926Z" fill="#F6CA13"/>
<path d="M99.6841 97.8926L110.873 108.33H170.415L160.255 97.8926H99.6841Z" fill="#F6CA13"/>
<path d="M99.6841 97.8912L160.272 97.7832H160.32L160.354 97.8134L170.411 108.143L170.515 108.251L170.701 108.441H170.433L110.89 108.393H110.864L99.6841 97.8912L110.916 108.259H110.869L170.411 108.216L170.333 108.406L170.225 108.298L160.173 97.969L160.25 98.0035L99.6841 97.8912Z" fill="#263238"/>
<path d="M117.88 119.436C117.552 119.447 117.241 119.588 117.016 119.826C116.79 120.064 116.667 120.382 116.673 120.71C116.679 121.038 116.813 121.351 117.047 121.581C117.282 121.811 117.597 121.94 117.925 121.94C118.254 121.94 118.569 121.811 118.803 121.581C119.037 121.351 119.172 121.038 119.178 120.71C119.184 120.382 119.061 120.064 118.835 119.826C118.609 119.588 118.299 119.447 117.971 119.436" fill="#263238"/>
<path d="M132.192 119.436C131.865 119.448 131.556 119.588 131.332 119.826C131.107 120.064 130.985 120.38 130.991 120.707C130.998 121.034 131.132 121.345 131.365 121.574C131.599 121.803 131.913 121.932 132.24 121.932C132.567 121.932 132.881 121.803 133.114 121.574C133.347 121.345 133.482 121.034 133.488 120.707C133.494 120.38 133.372 120.064 133.147 119.826C132.923 119.588 132.614 119.448 132.287 119.436" fill="#263238"/>
<path d="M132.274 130.617C132.024 129.662 131.619 128.756 131.073 127.934C130.467 127.055 129.688 126.308 128.784 125.739C127.693 125.016 126.421 124.613 125.113 124.577C123.804 124.541 122.512 124.874 121.383 125.536C120.451 126.057 119.633 126.759 118.977 127.601C118.386 128.393 117.932 129.278 117.634 130.219C117.637 130.149 117.649 130.079 117.668 130.012C117.71 129.817 117.763 129.625 117.828 129.437C118.065 128.743 118.41 128.092 118.852 127.506C119.503 126.625 120.332 125.889 121.284 125.346C122.442 124.655 123.772 124.308 125.12 124.344C126.468 124.381 127.778 124.801 128.896 125.554C129.816 126.145 130.601 126.922 131.203 127.835C131.613 128.444 131.924 129.115 132.123 129.822C132.176 130.014 132.218 130.208 132.248 130.405C132.263 130.475 132.272 130.546 132.274 130.617Z" fill="#263238"/>
<path opacity="0.5" d="M99.8223 98.4062L110.536 111.988H160.255V108.329H110.873L99.8223 98.4062Z" fill="black"/>
<path d="M148.31 144.505C148.249 144.505 148.198 136.379 148.198 126.361C148.198 116.343 148.249 108.217 148.31 108.217C148.37 108.217 148.427 116.338 148.427 126.361C148.427 136.383 148.375 144.505 148.31 144.505Z" fill="#263238"/>
<path d="M157.823 133.912H152.483V139.947H157.823V133.912Z" fill="#F5F5F5"/>
<path d="M99.6841 97.8926L87.2511 108.33H99.6841V97.8926Z" fill="#F6CA13"/>
<g opacity="0.4">
<path opacity="0.4" d="M99.6841 97.8926L87.2511 108.33H99.6841V97.8926Z" fill="black"/>
</g>
<path d="M162.043 144.607H92.4005V198.322H162.043V144.607Z" fill="#F6CA13"/>
<path opacity="0.3" d="M162.043 144.607H92.4005V198.322H162.043V144.607Z" fill="black"/>
<path d="M144.595 197.942C144.534 197.942 144.482 185.971 144.482 171.206C144.482 156.44 144.534 144.465 144.595 144.465C144.655 144.465 144.707 156.436 144.707 171.206C144.707 185.976 144.655 197.942 144.595 197.942Z" fill="#263238"/>
<path d="M156.138 186.098H150.798V192.133H156.138V186.098Z" fill="#F5F5F5"/>
<path d="M121.556 144.75H113.646V156.211H121.556V144.75Z" fill="#263238"/>
<path d="M121.556 186.703H113.646V198.164H121.556V186.703Z" fill="#263238"/>
<path d="M161.438 144.608H161.257H160.734L158.725 144.629L151.325 144.664L126.922 144.72L102.509 144.69L95.1135 144.655L93.1047 144.634H92.5776H92.4005H92.5776H93.1047L95.1135 144.612L102.509 144.578L126.922 144.543L151.325 144.578L158.725 144.612L160.734 144.634H161.257L161.438 144.608Z" fill="#263238"/>
<path d="M42.0855 51.6113L34.4996 49.745H34.5557C32.597 50.9909 30.332 51.6712 28.0109 51.7106C26.6368 51.7169 25.2695 51.5174 23.9545 51.1188C21.6425 50.3764 19.5913 48.9877 18.0434 47.1168C16.4955 45.2458 15.5156 42.9708 15.2194 40.5607C14.9868 38.7379 15.1581 36.8863 15.721 35.1371C16.2839 33.3879 17.2247 31.7839 18.4767 30.4389C19.1349 29.716 19.8725 29.0697 20.6756 28.5122C21.0817 28.2573 21.4877 27.9938 21.9111 27.7735L22.5548 27.4625L22.8745 27.3069L23.2114 27.186C24.9461 26.5136 26.8069 26.229 28.6633 26.3522C31.1511 26.5137 33.5355 27.4081 35.5159 28.9226C37.4962 30.4371 38.984 32.5039 39.7916 34.8626C40.2403 36.1821 40.4765 37.5644 40.4914 38.958C40.5022 41.274 39.8728 43.5479 38.6727 45.5287V45.4596C40.7809 49.2655 41.8436 51.1879 42.0812 51.6113C41.8349 51.1793 40.7333 49.2914 38.5517 45.5244V45.4898V45.4553C39.7088 43.4936 40.3064 41.2525 40.2797 38.9753C40.2597 37.604 40.0205 36.2448 39.5713 34.949C38.7724 32.6386 37.3098 30.6151 35.3664 29.1321C33.423 27.649 31.0853 26.7722 28.646 26.6114C26.8262 26.4928 25.0025 26.7729 23.3021 27.4322L22.9738 27.5489L22.6585 27.7044L22.0277 28.0068C21.5957 28.2271 21.2156 28.482 20.8138 28.7325C20.0262 29.2751 19.3017 29.9039 18.6538 30.6074C17.4247 31.9278 16.5008 33.5022 15.9477 35.2192C15.3945 36.9362 15.2255 38.7539 15.4527 40.5434C15.8532 43.822 17.5353 46.8087 20.1313 48.8508C21.2919 49.7704 22.609 50.4729 24.0193 50.9244C25.3107 51.3236 26.6549 51.526 28.0066 51.5249C30.2999 51.5003 32.542 50.8441 34.4866 49.6284H34.5125H34.5601L42.0855 51.6113Z" fill="#263238"/>
<path d="M26.7841 33.393L27.1686 39.7434C27.1839 39.9939 27.2903 40.2301 27.4678 40.4075C27.6452 40.585 27.8815 40.6914 28.1319 40.7068C28.3955 40.7217 28.6547 40.635 28.8564 40.4647C29.0581 40.2944 29.1869 40.0532 29.2163 39.7909L29.9204 33.4276C29.9327 33.3137 29.9206 33.1986 29.885 33.0897C29.8494 32.9809 29.791 32.8809 29.7138 32.7963C29.6366 32.7118 29.5423 32.6446 29.4371 32.5993C29.332 32.5539 29.2184 32.5314 29.1039 32.5333H27.5617C27.4535 32.5365 27.347 32.5616 27.2487 32.607C27.1504 32.6524 27.0623 32.7172 26.9897 32.7975C26.9171 32.8778 26.8614 32.9719 26.8261 33.0742C26.7908 33.1766 26.7765 33.285 26.7841 33.393Z" fill="#F6CA13"/>
<path d="M29.8081 44.2543C29.7114 44.5443 29.5309 44.7993 29.2894 44.9868C29.0479 45.1744 28.7562 45.2861 28.4513 45.3079C28.1463 45.3297 27.8416 45.2607 27.5759 45.1094C27.3101 44.9582 27.0952 44.7315 26.9582 44.4582C26.8212 44.1848 26.7683 43.877 26.8062 43.5735C26.8442 43.2701 26.9712 42.9848 27.1712 42.7535C27.3713 42.5222 27.6354 42.3555 27.9302 42.2743C28.225 42.1931 28.5372 42.2011 28.8275 42.2973C29.0205 42.3613 29.1989 42.4626 29.3527 42.5957C29.5064 42.7287 29.6325 42.8907 29.7235 43.0724C29.8146 43.2542 29.869 43.4521 29.8835 43.6549C29.898 43.8577 29.8724 44.0614 29.8081 44.2543Z" fill="#F6CA13"/>
</svg>
