<svg width="241" height="251" viewBox="0 0 241 251" fill="none" xmlns="http://www.w3.org/2000/svg">
  <g opacity="0.1">
    <path d="M125.504 154.874C103.159 154.874 85.0451 136.971 85.0451 114.887C85.0451 92.8027 103.159 74.8999 125.504 74.8999C147.849 74.8999 165.964 92.8027 165.964 114.887C165.964 136.971 147.849 154.874 125.504 154.874Z" fill="white" stroke="#090909" stroke-width="1.782" />
    <path d="M59.758 1C82.522 1 100.976 18.9028 100.976 40.987C100.976 49.1332 98.465 56.7103 94.1531 63.0299C102.735 71.201 108.056 82.5722 108.056 95.1467C108.056 120.026 87.2248 140.195 61.5281 140.195C35.8313 140.195 15 120.026 15 95.1467C15 83.5982 19.4882 73.0647 26.868 65.0921C21.6412 58.3904 18.5402 50.04 18.5402 40.987C18.5402 18.9028 36.994 1 59.758 1Z" fill="white" stroke="#090909" stroke-width="1.782" />
    <path fill-rule="evenodd" clip-rule="evenodd" d="M61.7809 68.6011H62.2866C62.8452 68.6011 63.2981 69.0543 63.2981 69.6134V163.111L60.7694 164.248V69.6134C60.7694 69.0543 61.2223 68.6011 61.7809 68.6011Z" fill="#090909" />
    <path fill-rule="evenodd" clip-rule="evenodd" d="M126.01 107.351H126.516C127.074 107.351 127.527 107.804 127.527 108.363V167.421L124.999 167.989V108.363C124.999 107.804 125.451 107.351 126.01 107.351Z" fill="#090909" />
    <path d="M67.0684 162.973C75.4224 162.973 82.1946 169.814 82.1946 178.253C82.1946 178.438 82.1939 178.624 82.192 178.812C83.2065 178.45 84.2984 178.253 85.4359 178.253C89.1754 178.253 92.4219 180.385 94.0488 183.511C95.0562 182.846 96.259 182.46 97.5507 182.46C98.9289 182.46 100.206 182.9 101.253 183.648C101.595 178.811 105.57 174.994 110.424 174.994C112.355 174.994 114.146 175.598 115.625 176.63C117.279 171.352 122.147 167.528 127.895 167.528C135.005 167.528 140.769 173.378 140.769 180.594C140.769 180.752 140.768 180.912 140.766 181.072C141.63 180.762 142.559 180.594 143.527 180.594C148.098 180.594 151.803 184.354 151.803 188.993C151.803 190.585 151.366 192.074 150.608 193.343L92.749 193.343C92.7488 193.343 92.7487 193.343 92.7485 193.343L25.9358 193.343C24.6437 191.972 23.8506 190.117 23.8506 188.075C23.8506 183.856 27.2367 180.435 31.4137 180.435C33.0332 180.435 34.5337 180.95 35.7635 181.825C36.1656 176.168 40.8367 171.704 46.5399 171.704C48.8081 171.704 50.913 172.41 52.6507 173.617C54.5938 167.445 60.3141 162.973 67.0684 162.973Z" stroke="#090909" stroke-width="1.782" />
    <path d="M41.0076 96.0464C42.8 108.322 49.687 115.221 61.6685 116.744" stroke="#090909" stroke-width="3.564" stroke-linecap="round" stroke-linejoin="round" />
    <path d="M47.9365 68.6011C47.8183 77.8499 52.1149 83.0243 60.8264 84.1243" stroke="#090909" stroke-width="3.564" stroke-linecap="round" stroke-linejoin="round" />
    <path d="M78.676 77.4878C78.676 91.5477 73.0193 99.384 61.706 100.997" stroke="#090909" stroke-width="3.564" stroke-linecap="round" stroke-linejoin="round" />
    <path d="M109.209 117.869C110.768 127.52 116.387 132.956 126.067 134.178" stroke="#090909" stroke-width="3.564" stroke-linecap="round" stroke-linejoin="round" />
    <path d="M139.005 105.38C138.899 116.101 134.652 121.989 126.263 123.042" stroke="#090909" stroke-width="3.564" stroke-linecap="round" stroke-linejoin="round" />
  </g>
  <g opacity="0.4">
    <path d="M70.185 169.94H65.339V192.622H70.185V169.94Z" fill="#090909" stroke="#090909" stroke-width="1.782" />
    <path d="M168.531 169.94H163.685V192.622H168.531V169.94Z" fill="#090909" stroke="#090909" stroke-width="1.782" />
    <path d="M69.6623 136.56H66.2416V169.084H69.6623V136.56Z" fill="#090909" stroke="#090909" stroke-width="1.782" />
    <path d="M168.009 136.56H164.588V169.084H168.009V136.56Z" fill="#090909" stroke="#090909" stroke-width="1.782" />
    <path d="M180.836 133.137H53.4138V138.7H180.836V133.137Z" fill="white" stroke="#090909" stroke-width="1.782" />
    <path d="M180.836 143.835H53.4138V149.399H180.836V143.835Z" fill="white" stroke="#090909" stroke-width="1.782" />
    <path d="M180.836 154.534H53.4138V160.098H180.836V154.534Z" fill="white" stroke="#090909" stroke-width="1.782" />
    <path d="M187.25 168.657H47V170.797H187.25V168.657Z" fill="white" stroke="#090909" stroke-width="1.782" />
    <path d="M67.952 136.988C68.4243 136.988 68.8072 136.605 68.8072 136.132C68.8072 135.66 68.4243 135.276 67.952 135.276C67.4797 135.276 67.0968 135.66 67.0968 136.132C67.0968 136.605 67.4797 136.988 67.952 136.988Z" fill="#090909" />
    <path d="M166.298 136.988C166.771 136.988 167.153 136.605 167.153 136.132C167.153 135.66 166.771 135.276 166.298 135.276C165.826 135.276 165.443 135.66 165.443 136.132C165.443 136.605 165.826 136.988 166.298 136.988Z" fill="#090909" />
    <path d="M166.298 147.687C166.771 147.687 167.153 147.304 167.153 146.831C167.153 146.359 166.771 145.976 166.298 145.976C165.826 145.976 165.443 146.359 165.443 146.831C165.443 147.304 165.826 147.687 166.298 147.687Z" fill="#090909" />
    <path d="M166.298 158.386C166.771 158.386 167.153 158.003 167.153 157.53C167.153 157.058 166.771 156.674 166.298 156.674C165.826 156.674 165.443 157.058 165.443 157.53C165.443 158.003 165.826 158.386 166.298 158.386Z" fill="#090909" />
    <path d="M67.952 147.687C68.4243 147.687 68.8072 147.304 68.8072 146.831C68.8072 146.359 68.4243 145.976 67.952 145.976C67.4797 145.976 67.0968 146.359 67.0968 146.831C67.0968 147.304 67.4797 147.687 67.952 147.687Z" fill="#090909" />
    <path d="M67.952 157.958C68.4243 157.958 68.8072 157.575 68.8072 157.102C68.8072 156.629 68.4243 156.246 67.952 156.246C67.4797 156.246 67.0968 156.629 67.0968 157.102C67.0968 157.575 67.4797 157.958 67.952 157.958Z" fill="#090909" />
    <path fill-rule="evenodd" clip-rule="evenodd" d="M223.304 48.4971L222.033 188.593H227.053L224.771 48.4971H223.304Z" stroke="#090909" stroke-width="1.782" />
    <path fill-rule="evenodd" clip-rule="evenodd" d="M217.395 38.1099L220.069 48.1575C220.122 48.3575 220.303 48.4967 220.51 48.4967H227.663C227.87 48.4967 228.051 48.3575 228.104 48.1575L230.779 38.1099C230.843 37.8662 230.699 37.616 230.455 37.551C230.417 37.5408 230.377 37.5356 230.338 37.5356H217.835C217.583 37.5356 217.379 37.7401 217.379 37.9924C217.379 38.032 217.384 38.0716 217.395 38.1099Z" fill="#B643D5" stroke="#090909" stroke-width="1.782" />
    <path fill-rule="evenodd" clip-rule="evenodd" d="M217.242 34.9456V37.079C217.242 37.2051 217.344 37.3074 217.47 37.3074H230.703C230.829 37.3074 230.932 37.2051 230.932 37.079V34.9417C230.932 34.8959 230.918 34.8512 230.892 34.8133C228.711 31.6044 226.48 30 224.199 30C221.918 30 219.613 31.6038 217.285 34.8113C217.257 34.8503 217.242 34.8973 217.242 34.9456Z" fill="#090909" />
    <path fill-rule="evenodd" clip-rule="evenodd" d="M222.288 37.9639L222.716 47.8068H222.288L219.295 37.9639H222.288Z" fill="#DA5BC1" />
    <path fill-rule="evenodd" clip-rule="evenodd" d="M220.409 48.4971H227.764C227.89 48.4971 227.992 48.5993 227.992 48.7254C227.992 48.7953 227.96 48.8614 227.906 48.9047L224.086 51.9224L220.267 48.9047C220.168 48.8265 220.151 48.6829 220.23 48.5839C220.273 48.5291 220.339 48.4971 220.409 48.4971Z" fill="#090909" />
    <path d="M216.557 37.1934H231.388" stroke="black" stroke-width="1.782" stroke-linecap="round" />
    <path fill-rule="evenodd" clip-rule="evenodd" d="M220.967 130.764H227.626C228.25 130.764 228.758 131.265 228.767 131.89L229.641 192.817H218.952L219.826 131.89C219.835 131.265 220.343 130.764 220.967 130.764Z" fill="#090909" stroke="#090909" stroke-width="1.782" />
  </g>
  <path d="M95.9126 41.8125C100.807 48.9491 114.895 62.8154 132.087 61.1874" stroke="black" stroke-linecap="round" />
  <path d="M1 147.024C5.89463 154.161 19.9821 168.027 37.1748 166.399" stroke="black" stroke-linecap="round" />
  <path d="M96.4644 50.2402C98.6675 54.1317 105.305 61.8959 114.229 61.8209" stroke="black" stroke-linecap="round" />
  <path d="M1.55176 155.452C3.75492 159.344 10.3922 167.108 19.316 167.033" stroke="black" stroke-linecap="round" />
  <path d="M99.8712 235.624V242.272L95.4792 235.624H94.3872V244H95.4792V237.34L99.8712 244H100.963V235.624H99.8712ZM109.275 240.7C109.275 238.624 107.823 237.316 105.951 237.316C104.091 237.316 102.627 238.624 102.627 240.7C102.627 242.788 104.043 244.108 105.903 244.108C107.775 244.108 109.275 242.788 109.275 240.7ZM103.743 240.7C103.743 239.044 104.787 238.264 105.939 238.264C107.067 238.264 108.159 239.044 108.159 240.7C108.159 242.368 107.043 243.148 105.903 243.148C104.763 243.148 103.743 242.368 103.743 240.7ZM114.57 242.2C114.57 243.52 115.23 244 116.394 244H117.378V243.076H116.574C115.902 243.076 115.662 242.848 115.662 242.2V238.324H117.378V237.424H115.662V235.768H114.57V237.424H113.718V238.324H114.57V242.2ZM118.911 244H120.003V237.424H118.911V244ZM119.475 236.356C119.871 236.356 120.195 236.032 120.195 235.612C120.195 235.192 119.871 234.868 119.475 234.868C119.055 234.868 118.731 235.192 118.731 235.612C118.731 236.032 119.055 236.356 119.475 236.356ZM121.666 240.7C121.666 242.788 122.998 244.108 124.87 244.108C126.502 244.108 127.57 243.196 127.906 241.888H126.73C126.49 242.716 125.842 243.184 124.87 243.184C123.67 243.184 122.782 242.332 122.782 240.7C122.782 239.092 123.67 238.24 124.87 238.24C125.842 238.24 126.502 238.744 126.73 239.536H127.906C127.57 238.156 126.502 237.316 124.87 237.316C122.998 237.316 121.666 238.636 121.666 240.7ZM129.573 244H130.665V241.096L133.245 244H134.733L131.625 240.7L134.721 237.424H133.197L130.665 240.34V235.12H129.573V244ZM138.755 238.24C139.883 238.24 140.843 238.948 140.831 240.232H136.679C136.799 238.948 137.687 238.24 138.755 238.24ZM141.827 241.972H140.651C140.411 242.68 139.787 243.184 138.803 243.184C137.687 243.184 136.751 242.452 136.667 241.12H141.923C141.947 240.892 141.959 240.7 141.959 240.46C141.959 238.66 140.711 237.316 138.803 237.316C136.883 237.316 135.551 238.624 135.551 240.7C135.551 242.788 136.931 244.108 138.803 244.108C140.435 244.108 141.491 243.172 141.827 241.972ZM143.85 242.2C143.85 243.52 144.51 244 145.674 244H146.658V243.076H145.854C145.182 243.076 144.942 242.848 144.942 242.2V238.324H146.658V237.424H144.942V235.768H143.85V237.424H142.998V238.324H143.85V242.2ZM152.919 242.212C152.871 239.86 149.055 240.712 149.055 239.152C149.055 238.624 149.535 238.24 150.339 238.24C151.215 238.24 151.719 238.72 151.767 239.38H152.859C152.787 238.096 151.827 237.316 150.375 237.316C148.911 237.316 147.963 238.144 147.963 239.152C147.963 241.6 151.851 240.748 151.851 242.212C151.851 242.752 151.371 243.184 150.507 243.184C149.583 243.184 149.019 242.704 148.959 242.068H147.831C147.903 243.268 148.983 244.108 150.519 244.108C151.971 244.108 152.919 243.292 152.919 242.212Z" fill="#4E5053" />
</svg>