<svg width="241" height="251" viewBox="0 0 241 251" fill="none" xmlns="http://www.w3.org/2000/svg">
  <g opacity="0.1">
    <path d="M125.504 154.874C103.159 154.874 85.0451 136.972 85.0451 114.887C85.0451 92.8032 103.159 74.9004 125.504 74.9004C147.849 74.9004 165.964 92.8032 165.964 114.887C165.964 136.972 147.849 154.874 125.504 154.874Z" fill="white" stroke="#090909" stroke-width="1.782" />
    <path d="M59.758 1C82.522 1 100.976 18.9028 100.976 40.987C100.976 49.1332 98.465 56.7103 94.1531 63.0299C102.735 71.201 108.056 82.5722 108.056 95.1467C108.056 120.026 87.2248 140.195 61.5281 140.195C35.8313 140.195 15 120.026 15 95.1467C15 83.5982 19.4882 73.0647 26.868 65.0921C21.6412 58.3904 18.5402 50.04 18.5402 40.987C18.5402 18.9028 36.994 1 59.758 1Z" fill="white" stroke="#090909" stroke-width="1.782" />
    <path fill-rule="evenodd" clip-rule="evenodd" d="M61.7809 68.6016H62.2866C62.8452 68.6016 63.2981 69.0548 63.2981 69.6139V163.112L60.7694 164.248V69.6139C60.7694 69.0548 61.2223 68.6016 61.7809 68.6016Z" fill="#090909" />
    <path fill-rule="evenodd" clip-rule="evenodd" d="M126.01 107.351H126.516C127.074 107.351 127.527 107.804 127.527 108.363V167.42L124.999 167.988V108.363C124.999 107.804 125.451 107.351 126.01 107.351Z" fill="#090909" />
    <path d="M67.0684 162.973C75.4224 162.973 82.1946 169.814 82.1946 178.253C82.1946 178.438 82.1939 178.624 82.192 178.812C83.2065 178.45 84.2984 178.253 85.4359 178.253C89.1754 178.253 92.4219 180.385 94.0488 183.511C95.0562 182.846 96.259 182.46 97.5507 182.46C98.9289 182.46 100.206 182.9 101.253 183.648C101.595 178.811 105.57 174.994 110.424 174.994C112.355 174.994 114.146 175.598 115.625 176.63C117.279 171.352 122.147 167.528 127.895 167.528C135.005 167.528 140.769 173.378 140.769 180.594C140.769 180.752 140.768 180.912 140.766 181.072C141.63 180.762 142.559 180.594 143.527 180.594C148.098 180.594 151.803 184.354 151.803 188.993C151.803 190.585 151.366 192.074 150.608 193.343L92.749 193.343C92.7488 193.343 92.7487 193.343 92.7485 193.343L25.9358 193.343C24.6437 191.972 23.8506 190.117 23.8506 188.075C23.8506 183.856 27.2367 180.435 31.4137 180.435C33.0332 180.435 34.5337 180.95 35.7635 181.825C36.1656 176.168 40.8367 171.704 46.5399 171.704C48.8081 171.704 50.913 172.41 52.6507 173.617C54.5938 167.445 60.3141 162.973 67.0684 162.973Z" stroke="#090909" stroke-width="1.782" />
    <path d="M41.0076 96.0469C42.8 108.322 49.687 115.221 61.6685 116.744" stroke="#090909" stroke-width="3.564" stroke-linecap="round" stroke-linejoin="round" />
    <path d="M47.9365 68.6016C47.8183 77.8504 52.1149 83.0248 60.8264 84.1248" stroke="#090909" stroke-width="3.564" stroke-linecap="round" stroke-linejoin="round" />
    <path d="M78.676 77.4873C78.676 91.5472 73.0193 99.3835 61.706 100.996" stroke="#090909" stroke-width="3.564" stroke-linecap="round" stroke-linejoin="round" />
    <path d="M109.209 117.869C110.768 127.52 116.387 132.957 126.067 134.179" stroke="#090909" stroke-width="3.564" stroke-linecap="round" stroke-linejoin="round" />
    <path d="M139.005 105.38C138.899 116.101 134.652 121.989 126.263 123.042" stroke="#090909" stroke-width="3.564" stroke-linecap="round" stroke-linejoin="round" />
  </g>
  <g opacity="0.4">
    <path d="M70.185 169.94H65.339V192.622H70.185V169.94Z" fill="#090909" stroke="#090909" stroke-width="1.782" />
    <path d="M168.531 169.94H163.685V192.622H168.531V169.94Z" fill="#090909" stroke="#090909" stroke-width="1.782" />
    <path d="M69.6623 136.561H66.2416V169.085H69.6623V136.561Z" fill="#090909" stroke="#090909" stroke-width="1.782" />
    <path d="M168.009 136.561H164.588V169.085H168.009V136.561Z" fill="#090909" stroke="#090909" stroke-width="1.782" />
    <path d="M180.836 133.137H53.4138V138.7H180.836V133.137Z" fill="white" stroke="#090909" stroke-width="1.782" />
    <path d="M180.836 143.836H53.4138V149.399H180.836V143.836Z" fill="white" stroke="#090909" stroke-width="1.782" />
    <path d="M180.836 154.534H53.4138V160.098H180.836V154.534Z" fill="white" stroke="#090909" stroke-width="1.782" />
    <path d="M187.25 168.656H47V170.796H187.25V168.656Z" fill="white" stroke="#090909" stroke-width="1.782" />
    <path d="M67.952 136.988C68.4243 136.988 68.8072 136.605 68.8072 136.132C68.8072 135.66 68.4243 135.276 67.952 135.276C67.4797 135.276 67.0968 135.66 67.0968 136.132C67.0968 136.605 67.4797 136.988 67.952 136.988Z" fill="#090909" />
    <path d="M166.298 136.988C166.771 136.988 167.153 136.605 167.153 136.132C167.153 135.66 166.771 135.276 166.298 135.276C165.826 135.276 165.443 135.66 165.443 136.132C165.443 136.605 165.826 136.988 166.298 136.988Z" fill="#090909" />
    <path d="M166.298 147.687C166.771 147.687 167.153 147.304 167.153 146.831C167.153 146.359 166.771 145.976 166.298 145.976C165.826 145.976 165.443 146.359 165.443 146.831C165.443 147.304 165.826 147.687 166.298 147.687Z" fill="#090909" />
    <path d="M166.298 158.386C166.771 158.386 167.153 158.002 167.153 157.53C167.153 157.057 166.771 156.674 166.298 156.674C165.826 156.674 165.443 157.057 165.443 157.53C165.443 158.002 165.826 158.386 166.298 158.386Z" fill="#090909" />
    <path d="M67.952 147.687C68.4243 147.687 68.8072 147.304 68.8072 146.831C68.8072 146.359 68.4243 145.976 67.952 145.976C67.4797 145.976 67.0968 146.359 67.0968 146.831C67.0968 147.304 67.4797 147.687 67.952 147.687Z" fill="#090909" />
    <path d="M67.952 157.958C68.4243 157.958 68.8072 157.575 68.8072 157.102C68.8072 156.629 68.4243 156.246 67.952 156.246C67.4797 156.246 67.0968 156.629 67.0968 157.102C67.0968 157.575 67.4797 157.958 67.952 157.958Z" fill="#090909" />
    <path fill-rule="evenodd" clip-rule="evenodd" d="M223.304 48.4971L222.033 188.593H227.053L224.771 48.4971H223.304Z" stroke="#090909" stroke-width="1.782" />
    <path fill-rule="evenodd" clip-rule="evenodd" d="M217.395 38.1104L220.069 48.158C220.122 48.358 220.303 48.4972 220.51 48.4972H227.663C227.87 48.4972 228.051 48.358 228.104 48.158L230.779 38.1104C230.843 37.8667 230.699 37.6165 230.455 37.5515C230.417 37.5413 230.377 37.5361 230.338 37.5361H217.835C217.583 37.5361 217.379 37.7406 217.379 37.9928C217.379 38.0325 217.384 38.0721 217.395 38.1104Z" fill="#B643D5" stroke="#090909" stroke-width="1.782" />
    <path fill-rule="evenodd" clip-rule="evenodd" d="M217.242 34.9456V37.079C217.242 37.2051 217.344 37.3074 217.47 37.3074H230.703C230.829 37.3074 230.932 37.2051 230.932 37.079V34.9417C230.932 34.8959 230.918 34.8512 230.892 34.8133C228.711 31.6044 226.48 30 224.199 30C221.918 30 219.613 31.6038 217.285 34.8113C217.257 34.8503 217.242 34.8973 217.242 34.9456Z" fill="#090909" />
    <path fill-rule="evenodd" clip-rule="evenodd" d="M222.288 37.9639L222.716 47.8068H222.288L219.295 37.9639H222.288Z" fill="#DA5BC1" />
    <path fill-rule="evenodd" clip-rule="evenodd" d="M220.409 48.4971H227.764C227.89 48.4971 227.992 48.5993 227.992 48.7254C227.992 48.7953 227.96 48.8614 227.906 48.9047L224.086 51.9224L220.267 48.9047C220.168 48.8265 220.151 48.6829 220.23 48.5839C220.273 48.5291 220.339 48.4971 220.409 48.4971Z" fill="#090909" />
    <path d="M216.557 37.1934H231.388" stroke="black" stroke-width="1.782" stroke-linecap="round" />
    <path fill-rule="evenodd" clip-rule="evenodd" d="M220.967 130.764H227.626C228.25 130.764 228.758 131.265 228.767 131.889L229.641 192.817H218.952L219.826 131.889C219.835 131.265 220.343 130.764 220.967 130.764Z" fill="#090909" stroke="#090909" stroke-width="1.782" />
  </g>
  <path d="M95.9126 41.8125C100.807 48.9491 114.895 62.8154 132.087 61.1874" stroke="black" stroke-linecap="round" />
  <path d="M1 147.024C5.89463 154.161 19.9821 168.027 37.1748 166.399" stroke="black" stroke-linecap="round" />
  <path d="M96.4644 50.2402C98.6675 54.1317 105.305 61.8959 114.229 61.8209" stroke="black" stroke-linecap="round" />
  <path d="M1.55176 155.452C3.75492 159.344 10.3922 167.108 19.316 167.033" stroke="black" stroke-linecap="round" />
  <path d="M61.6168 244H60.5248L56.1328 237.34V244H55.0408V235.624H56.1328L60.5248 242.272V235.624H61.6168V244ZM66.5563 244.108C65.9403 244.108 65.3803 243.968 64.8763 243.688C64.3803 243.408 63.9883 243.012 63.7003 242.5C63.4203 241.98 63.2803 241.38 63.2803 240.7C63.2803 240.028 63.4243 239.436 63.7123 238.924C64.0083 238.404 64.4083 238.008 64.9123 237.736C65.4163 237.456 65.9803 237.316 66.6043 237.316C67.2283 237.316 67.7923 237.456 68.2963 237.736C68.8003 238.008 69.1963 238.4 69.4843 238.912C69.7803 239.424 69.9283 240.02 69.9283 240.7C69.9283 241.38 69.7763 241.98 69.4723 242.5C69.1763 243.012 68.7723 243.408 68.2603 243.688C67.7483 243.968 67.1803 244.108 66.5563 244.108ZM66.5563 243.148C66.9483 243.148 67.3163 243.056 67.6603 242.872C68.0043 242.688 68.2803 242.412 68.4883 242.044C68.7043 241.676 68.8123 241.228 68.8123 240.7C68.8123 240.172 68.7083 239.724 68.5003 239.356C68.2923 238.988 68.0203 238.716 67.6843 238.54C67.3483 238.356 66.9843 238.264 66.5923 238.264C66.1923 238.264 65.8243 238.356 65.4883 238.54C65.1603 238.716 64.8963 238.988 64.6963 239.356C64.4963 239.724 64.3963 240.172 64.3963 240.7C64.3963 241.236 64.4923 241.688 64.6843 242.056C64.8843 242.424 65.1483 242.7 65.4763 242.884C65.8043 243.06 66.1643 243.148 66.5563 243.148ZM74.5753 240.7C74.5753 240.02 74.7113 239.428 74.9833 238.924C75.2553 238.412 75.6313 238.016 76.1113 237.736C76.5993 237.456 77.1553 237.316 77.7793 237.316C78.5873 237.316 79.2513 237.512 79.7713 237.904C80.2993 238.296 80.6473 238.84 80.8153 239.536H79.6393C79.5273 239.136 79.3073 238.82 78.9793 238.588C78.6593 238.356 78.2593 238.24 77.7793 238.24C77.1553 238.24 76.6513 238.456 76.2673 238.888C75.8833 239.312 75.6913 239.916 75.6913 240.7C75.6913 241.492 75.8833 242.104 76.2673 242.536C76.6513 242.968 77.1553 243.184 77.7793 243.184C78.2593 243.184 78.6593 243.072 78.9793 242.848C79.2993 242.624 79.5193 242.304 79.6393 241.888H80.8153C80.6393 242.56 80.2873 243.1 79.7593 243.508C79.2313 243.908 78.5713 244.108 77.7793 244.108C77.1553 244.108 76.5993 243.968 76.1113 243.688C75.6313 243.408 75.2553 243.012 74.9833 242.5C74.7113 241.988 74.5753 241.388 74.5753 240.7ZM85.7464 237.304C86.2424 237.304 86.6904 237.412 87.0904 237.628C87.4904 237.836 87.8024 238.152 88.0264 238.576C88.2584 239 88.3744 239.516 88.3744 240.124V244H87.2944V240.28C87.2944 239.624 87.1304 239.124 86.8024 238.78C86.4744 238.428 86.0264 238.252 85.4584 238.252C84.8824 238.252 84.4224 238.432 84.0784 238.792C83.7424 239.152 83.5744 239.676 83.5744 240.364V244H82.4824V235.12H83.5744V238.36C83.7904 238.024 84.0864 237.764 84.4624 237.58C84.8464 237.396 85.2744 237.304 85.7464 237.304ZM89.9601 240.688C89.9601 240.016 90.0961 239.428 90.3681 238.924C90.6401 238.412 91.0121 238.016 91.4841 237.736C91.9641 237.456 92.4961 237.316 93.0801 237.316C93.6561 237.316 94.1561 237.44 94.5801 237.688C95.0041 237.936 95.3201 238.248 95.5281 238.624V237.424H96.6321V244H95.5281V242.776C95.3121 243.16 94.9881 243.48 94.5561 243.736C94.1321 243.984 93.6361 244.108 93.0681 244.108C92.4841 244.108 91.9561 243.964 91.4841 243.676C91.0121 243.388 90.6401 242.984 90.3681 242.464C90.0961 241.944 89.9601 241.352 89.9601 240.688ZM95.5281 240.7C95.5281 240.204 95.4281 239.772 95.2281 239.404C95.0281 239.036 94.7561 238.756 94.4121 238.564C94.0761 238.364 93.7041 238.264 93.2961 238.264C92.8881 238.264 92.5161 238.36 92.1801 238.552C91.8441 238.744 91.5761 239.024 91.3761 239.392C91.1761 239.76 91.0761 240.192 91.0761 240.688C91.0761 241.192 91.1761 241.632 91.3761 242.008C91.5761 242.376 91.8441 242.66 92.1801 242.86C92.5161 243.052 92.8881 243.148 93.2961 243.148C93.7041 243.148 94.0761 243.052 94.4121 242.86C94.7561 242.66 95.0281 242.376 95.2281 242.008C95.4281 241.632 95.5281 241.196 95.5281 240.7ZM100.02 238.324V242.2C100.02 242.52 100.088 242.748 100.224 242.884C100.36 243.012 100.596 243.076 100.932 243.076H101.736V244H100.752C100.144 244 99.6875 243.86 99.3835 243.58C99.0795 243.3 98.9275 242.84 98.9275 242.2V238.324H98.0755V237.424H98.9275V235.768H100.02V237.424H101.736V238.324H100.02ZM106.27 240.7C106.27 240.02 106.406 239.428 106.678 238.924C106.95 238.412 107.326 238.016 107.806 237.736C108.294 237.456 108.85 237.316 109.474 237.316C110.282 237.316 110.946 237.512 111.466 237.904C111.994 238.296 112.342 238.84 112.51 239.536H111.334C111.222 239.136 111.002 238.82 110.674 238.588C110.354 238.356 109.954 238.24 109.474 238.24C108.85 238.24 108.346 238.456 107.962 238.888C107.578 239.312 107.386 239.916 107.386 240.7C107.386 241.492 107.578 242.104 107.962 242.536C108.346 242.968 108.85 243.184 109.474 243.184C109.954 243.184 110.354 243.072 110.674 242.848C110.994 242.624 111.214 242.304 111.334 241.888H112.51C112.334 242.56 111.982 243.1 111.454 243.508C110.926 243.908 110.266 244.108 109.474 244.108C108.85 244.108 108.294 243.968 107.806 243.688C107.326 243.408 106.95 243.012 106.678 242.5C106.406 241.988 106.27 241.388 106.27 240.7ZM117.045 244.108C116.429 244.108 115.869 243.968 115.365 243.688C114.869 243.408 114.477 243.012 114.189 242.5C113.909 241.98 113.769 241.38 113.769 240.7C113.769 240.028 113.913 239.436 114.201 238.924C114.497 238.404 114.897 238.008 115.401 237.736C115.905 237.456 116.469 237.316 117.093 237.316C117.717 237.316 118.281 237.456 118.785 237.736C119.289 238.008 119.685 238.4 119.973 238.912C120.269 239.424 120.417 240.02 120.417 240.7C120.417 241.38 120.265 241.98 119.961 242.5C119.665 243.012 119.261 243.408 118.749 243.688C118.237 243.968 117.669 244.108 117.045 244.108ZM117.045 243.148C117.437 243.148 117.805 243.056 118.149 242.872C118.493 242.688 118.769 242.412 118.977 242.044C119.193 241.676 119.301 241.228 119.301 240.7C119.301 240.172 119.197 239.724 118.989 239.356C118.781 238.988 118.509 238.716 118.173 238.54C117.837 238.356 117.473 238.264 117.081 238.264C116.681 238.264 116.313 238.356 115.977 238.54C115.649 238.716 115.385 238.988 115.185 239.356C114.985 239.724 114.885 240.172 114.885 240.7C114.885 241.236 114.981 241.688 115.173 242.056C115.373 242.424 115.637 242.7 115.965 242.884C116.293 243.06 116.653 243.148 117.045 243.148ZM125.267 237.304C126.067 237.304 126.715 237.548 127.211 238.036C127.707 238.516 127.955 239.212 127.955 240.124V244H126.875V240.28C126.875 239.624 126.711 239.124 126.383 238.78C126.055 238.428 125.607 238.252 125.039 238.252C124.463 238.252 124.003 238.432 123.659 238.792C123.323 239.152 123.155 239.676 123.155 240.364V244H122.063V237.424H123.155V238.36C123.371 238.024 123.663 237.764 124.031 237.58C124.407 237.396 124.819 237.304 125.267 237.304ZM132.396 242.992L134.436 237.424H135.6L133.02 244H131.748L129.168 237.424H130.344L132.396 242.992ZM142.885 240.46C142.885 240.668 142.873 240.888 142.849 241.12H137.593C137.633 241.768 137.853 242.276 138.253 242.644C138.661 243.004 139.153 243.184 139.729 243.184C140.201 243.184 140.593 243.076 140.905 242.86C141.225 242.636 141.449 242.34 141.577 241.972H142.753C142.577 242.604 142.225 243.12 141.697 243.52C141.169 243.912 140.513 244.108 139.729 244.108C139.105 244.108 138.545 243.968 138.049 243.688C137.561 243.408 137.177 243.012 136.897 242.5C136.617 241.98 136.477 241.38 136.477 240.7C136.477 240.02 136.613 239.424 136.885 238.912C137.157 238.4 137.537 238.008 138.025 237.736C138.521 237.456 139.089 237.316 139.729 237.316C140.353 237.316 140.905 237.452 141.385 237.724C141.865 237.996 142.233 238.372 142.489 238.852C142.753 239.324 142.885 239.86 142.885 240.46ZM141.757 240.232C141.757 239.816 141.665 239.46 141.481 239.164C141.297 238.86 141.045 238.632 140.725 238.48C140.413 238.32 140.065 238.24 139.681 238.24C139.129 238.24 138.657 238.416 138.265 238.768C137.881 239.12 137.661 239.608 137.605 240.232H141.757ZM145.628 238.492C145.82 238.116 146.092 237.824 146.444 237.616C146.804 237.408 147.24 237.304 147.752 237.304V238.432H147.464C146.24 238.432 145.628 239.096 145.628 240.424V244H144.536V237.424H145.628V238.492ZM151.551 244.108C151.047 244.108 150.595 244.024 150.195 243.856C149.795 243.68 149.479 243.44 149.247 243.136C149.015 242.824 148.887 242.468 148.863 242.068H149.991C150.023 242.396 150.175 242.664 150.447 242.872C150.727 243.08 151.091 243.184 151.539 243.184C151.955 243.184 152.283 243.092 152.523 242.908C152.763 242.724 152.883 242.492 152.883 242.212C152.883 241.924 152.755 241.712 152.499 241.576C152.243 241.432 151.847 241.292 151.311 241.156C150.823 241.028 150.423 240.9 150.111 240.772C149.807 240.636 149.543 240.44 149.319 240.184C149.103 239.92 148.995 239.576 148.995 239.152C148.995 238.816 149.095 238.508 149.295 238.228C149.495 237.948 149.779 237.728 150.147 237.568C150.515 237.4 150.935 237.316 151.407 237.316C152.135 237.316 152.723 237.5 153.171 237.868C153.619 238.236 153.859 238.74 153.891 239.38H152.799C152.775 239.036 152.635 238.76 152.379 238.552C152.131 238.344 151.795 238.24 151.371 238.24C150.979 238.24 150.667 238.324 150.435 238.492C150.203 238.66 150.087 238.88 150.087 239.152C150.087 239.368 150.155 239.548 150.291 239.692C150.435 239.828 150.611 239.94 150.819 240.028C151.035 240.108 151.331 240.2 151.707 240.304C152.179 240.432 152.563 240.56 152.859 240.688C153.155 240.808 153.407 240.992 153.615 241.24C153.831 241.488 153.943 241.812 153.951 242.212C153.951 242.572 153.851 242.896 153.651 243.184C153.451 243.472 153.167 243.7 152.799 243.868C152.439 244.028 152.023 244.108 151.551 244.108ZM155.295 240.688C155.295 240.016 155.431 239.428 155.703 238.924C155.975 238.412 156.347 238.016 156.819 237.736C157.299 237.456 157.831 237.316 158.415 237.316C158.991 237.316 159.491 237.44 159.915 237.688C160.339 237.936 160.655 238.248 160.863 238.624V237.424H161.967V244H160.863V242.776C160.647 243.16 160.323 243.48 159.891 243.736C159.467 243.984 158.971 244.108 158.403 244.108C157.819 244.108 157.291 243.964 156.819 243.676C156.347 243.388 155.975 242.984 155.703 242.464C155.431 241.944 155.295 241.352 155.295 240.688ZM160.863 240.7C160.863 240.204 160.763 239.772 160.563 239.404C160.363 239.036 160.091 238.756 159.747 238.564C159.411 238.364 159.039 238.264 158.631 238.264C158.223 238.264 157.851 238.36 157.515 238.552C157.179 238.744 156.911 239.024 156.711 239.392C156.511 239.76 156.411 240.192 156.411 240.688C156.411 241.192 156.511 241.632 156.711 242.008C156.911 242.376 157.179 242.66 157.515 242.86C157.851 243.052 158.223 243.148 158.631 243.148C159.039 243.148 159.411 243.052 159.747 242.86C160.091 242.66 160.363 242.376 160.563 242.008C160.763 241.632 160.863 241.196 160.863 240.7ZM165.354 238.324V242.2C165.354 242.52 165.422 242.748 165.558 242.884C165.694 243.012 165.93 243.076 166.266 243.076H167.07V244H166.086C165.478 244 165.022 243.86 164.718 243.58C164.414 243.3 164.262 242.84 164.262 242.2V238.324H163.41V237.424H164.262V235.768H165.354V237.424H167.07V238.324H165.354ZM169.167 236.356C168.959 236.356 168.783 236.284 168.639 236.14C168.495 235.996 168.423 235.82 168.423 235.612C168.423 235.404 168.495 235.228 168.639 235.084C168.783 234.94 168.959 234.868 169.167 234.868C169.367 234.868 169.535 234.94 169.671 235.084C169.815 235.228 169.887 235.404 169.887 235.612C169.887 235.82 169.815 235.996 169.671 236.14C169.535 236.284 169.367 236.356 169.167 236.356ZM169.695 237.424V244H168.603V237.424H169.695ZM174.634 244.108C174.018 244.108 173.458 243.968 172.954 243.688C172.458 243.408 172.066 243.012 171.778 242.5C171.498 241.98 171.358 241.38 171.358 240.7C171.358 240.028 171.502 239.436 171.79 238.924C172.086 238.404 172.486 238.008 172.99 237.736C173.494 237.456 174.058 237.316 174.682 237.316C175.306 237.316 175.87 237.456 176.374 237.736C176.878 238.008 177.274 238.4 177.562 238.912C177.858 239.424 178.006 240.02 178.006 240.7C178.006 241.38 177.854 241.98 177.55 242.5C177.254 243.012 176.85 243.408 176.338 243.688C175.826 243.968 175.258 244.108 174.634 244.108ZM174.634 243.148C175.026 243.148 175.394 243.056 175.738 242.872C176.082 242.688 176.358 242.412 176.566 242.044C176.782 241.676 176.89 241.228 176.89 240.7C176.89 240.172 176.786 239.724 176.578 239.356C176.37 238.988 176.098 238.716 175.762 238.54C175.426 238.356 175.062 238.264 174.67 238.264C174.27 238.264 173.902 238.356 173.566 238.54C173.238 238.716 172.974 238.988 172.774 239.356C172.574 239.724 172.474 240.172 172.474 240.7C172.474 241.236 172.57 241.688 172.762 242.056C172.962 242.424 173.226 242.7 173.554 242.884C173.882 243.06 174.242 243.148 174.634 243.148ZM182.856 237.304C183.656 237.304 184.304 237.548 184.8 238.036C185.296 238.516 185.544 239.212 185.544 240.124V244H184.464V240.28C184.464 239.624 184.3 239.124 183.972 238.78C183.644 238.428 183.196 238.252 182.628 238.252C182.052 238.252 181.592 238.432 181.248 238.792C180.912 239.152 180.744 239.676 180.744 240.364V244H179.652V237.424H180.744V238.36C180.96 238.024 181.252 237.764 181.62 237.58C181.996 237.396 182.408 237.304 182.856 237.304ZM189.866 244.108C189.362 244.108 188.91 244.024 188.51 243.856C188.11 243.68 187.794 243.44 187.562 243.136C187.33 242.824 187.202 242.468 187.178 242.068H188.306C188.338 242.396 188.49 242.664 188.762 242.872C189.042 243.08 189.406 243.184 189.854 243.184C190.27 243.184 190.598 243.092 190.838 242.908C191.078 242.724 191.198 242.492 191.198 242.212C191.198 241.924 191.07 241.712 190.814 241.576C190.558 241.432 190.162 241.292 189.626 241.156C189.138 241.028 188.738 240.9 188.426 240.772C188.122 240.636 187.858 240.44 187.634 240.184C187.418 239.92 187.31 239.576 187.31 239.152C187.31 238.816 187.41 238.508 187.61 238.228C187.81 237.948 188.094 237.728 188.462 237.568C188.83 237.4 189.25 237.316 189.722 237.316C190.45 237.316 191.038 237.5 191.486 237.868C191.934 238.236 192.174 238.74 192.206 239.38H191.114C191.09 239.036 190.95 238.76 190.694 238.552C190.446 238.344 190.11 238.24 189.686 238.24C189.294 238.24 188.982 238.324 188.75 238.492C188.518 238.66 188.402 238.88 188.402 239.152C188.402 239.368 188.47 239.548 188.606 239.692C188.75 239.828 188.926 239.94 189.134 240.028C189.35 240.108 189.646 240.2 190.022 240.304C190.494 240.432 190.878 240.56 191.174 240.688C191.47 240.808 191.722 240.992 191.93 241.24C192.146 241.488 192.258 241.812 192.266 242.212C192.266 242.572 192.166 242.896 191.966 243.184C191.766 243.472 191.482 243.7 191.114 243.868C190.754 244.028 190.338 244.108 189.866 244.108Z" fill="#4E5053" />
</svg>