<svg width="216" height="115" viewBox="0 0 216 115" fill="none" xmlns="http://www.w3.org/2000/svg">
<path d="M169.527 47.1524H158.706V94.8637H169.527V47.1524Z" fill="url(#paint0_linear)"/>
<path d="M181.328 97H147.392L159.443 93.3206H168.541L181.328 97Z" fill="url(#paint1_linear)"/>
<path d="M111 22.7044C111 22.7044 156.743 0.869479 216 22.7044V41.5728C216 41.5728 169.526 55.1033 111.002 41.5728L111 22.7044Z" fill="url(#paint2_linear)"/>
<path d="M114.321 23.1841C114.321 23.1841 157.166 2.72711 212.68 23.1841V40.8621C212.68 40.8621 169.145 53.5365 114.321 40.8621V23.1841Z" fill="url(#paint3_linear)"/>
<path d="M176.408 33.6242H150.344V44.3057H176.408V33.6242Z" fill="url(#paint4_linear)"/>
<path d="M174.195 34.5299H152.557V43.398H174.195V34.5299Z" fill="url(#paint5_linear)"/>
<g opacity="0.1">
<path opacity="0.1" d="M172.499 60.5844L164.277 53.7476L156.985 60.3445L150.658 53.4308L144.075 60.4703L143.845 60.426C146.5 56.685 143.867 46.0802 143.845 45.9731L143.744 45.5759L150.665 53.1384L156.435 46.9654L164.285 53.496L171.464 46.9922L177.545 53.6905L183.447 46.0302L184.924 45.8881L184.89 45.9743C184.847 46.0837 180.815 56.3402 183.107 59.8181L183.652 60.4191L183.435 60.4738C183.199 60.2797 183.012 60.0729 182.875 59.8577L177.567 54.0073L172.499 60.5844ZM164.413 53.6206L172.448 60.3072L177.422 53.8536L171.442 47.2671L164.413 53.6206ZM150.783 53.2817L156.985 60.0731L164.123 53.6229L156.447 47.2252L150.783 53.2817ZM144.166 46.3446C144.586 48.1709 146.22 55.9617 144.492 59.7214L150.525 53.2817L144.166 46.3446ZM177.69 53.8512L182.533 59.1856C181.061 55.3886 184.222 47.0598 184.618 46.0418L183.636 46.1362L177.69 53.8512Z" fill="url(#paint6_linear)"/>
</g>
<g opacity="0.1">
<path opacity="0.1" d="M151.077 60.5995L144.977 53.228L145.206 53.1837L151.09 60.2885L156.985 53.7952L149.125 46.8256L149.34 46.7685L157.108 53.6578L162.998 47.1726H163.071L180.561 46.3748L164.359 60.3316L157.137 53.9257L151.077 60.5995ZM157.262 53.7894L164.362 60.0858L180.122 46.5111L163.172 47.2845L157.262 53.7894Z" fill="url(#paint7_linear)"/>
</g>
<g opacity="0.1">
<path opacity="0.1" d="M177.163 60.2328L177.038 60.1163L162.53 46.5859L162.749 46.5311L177.132 59.9439L182.537 53.184L182.766 53.2271L177.163 60.2328Z" fill="url(#paint8_linear)"/>
</g>
<path d="M163.869 44.1868C152.325 44.1868 142.969 44.9311 142.969 45.8489C142.969 46.7667 152.327 47.511 163.869 47.511C175.411 47.511 184.769 46.7667 184.769 45.8489C184.769 44.9311 175.411 44.1868 163.869 44.1868ZM163.869 46.7981C153.276 46.7981 144.69 46.3194 144.69 45.7301C144.69 45.1407 153.276 44.6632 163.869 44.6632C174.463 44.6632 183.046 45.1396 183.046 45.7301C183.046 46.3206 174.461 46.7981 163.869 46.7981Z" fill="url(#paint9_linear)"/>
<g opacity="0.2">
<path opacity="0.2" d="M163.869 44.1868C152.325 44.1868 142.969 44.9311 142.969 45.8489C142.969 46.7667 152.327 47.511 163.869 47.511C175.411 47.511 184.769 46.7667 184.769 45.8489C184.769 44.9311 175.411 44.1868 163.869 44.1868ZM163.869 46.7981C153.276 46.7981 144.69 46.3194 144.69 45.7301C144.69 45.1407 153.276 44.6632 163.869 44.6632C174.463 44.6632 183.046 45.1396 183.046 45.7301C183.046 46.3206 174.461 46.7981 163.869 46.7981Z" fill="url(#paint10_linear)"/>
</g>
<path d="M163.869 43.8315C152.325 43.8315 142.969 44.5758 142.969 45.4936C142.969 46.4113 152.327 47.1556 163.869 47.1556C175.411 47.1556 184.769 46.4113 184.769 45.4936C184.769 44.5758 175.411 43.8315 163.869 43.8315ZM163.869 46.4428C153.276 46.4428 144.69 45.9641 144.69 45.3748C144.69 44.7854 153.278 44.3067 163.869 44.3067C174.461 44.3067 183.046 44.7796 183.046 45.3736C183.046 45.9676 174.461 46.4416 163.869 46.4416V46.4428Z" fill="url(#paint11_linear)"/>
<path d="M169.412 47.2999H158.794V94.1215H169.412V47.2999Z" fill="#E8EAF1"/>
<path d="M180.995 96.2177H147.694L159.519 92.6071H168.447L180.995 96.2177Z" fill="#E8EAF1"/>
<path d="M111.979 23.3062C111.979 23.3062 156.864 1.87546 215.02 23.3062V41.8252C215.02 41.8252 169.412 55.1029 111.979 41.8252V23.3062Z" fill="#E8EAF1"/>
<path d="M115.238 23.7787C115.238 23.7787 157.285 3.70261 211.763 23.7787V41.126C211.763 41.126 169.051 53.5639 115.238 41.126V23.7787Z" fill="#F3F5F7"/>
<path d="M176.169 34.0212H150.59V44.5036H176.169V34.0212Z" fill="white"/>
<path d="M173.997 34.9124H152.761V43.6152H173.997V34.9124Z" fill="#F3F5F7"/>
<path opacity="0.1" d="M172.332 60.4807L164.262 53.7672L157.093 60.2442L150.884 53.4597L144.436 60.3688L144.212 60.3258C146.828 56.6534 144.233 46.2467 144.212 46.1418L144.113 45.7516L150.906 53.1732L156.569 47.1167L164.272 53.5226L171.335 47.14L177.303 53.7137L183.094 46.1954L184.542 46.0556L184.509 46.1407C184.465 46.249 180.508 56.3133 182.759 59.7271L183.295 60.3164L183.08 60.37C182.848 60.1796 182.664 59.9767 182.53 59.7655L177.317 54.0235L172.332 60.4807ZM164.398 53.6461L172.284 60.2081L177.163 53.8756L171.297 47.4114L164.398 53.6461ZM151.019 53.3177L157.115 59.9798L164.113 53.6496L156.572 47.3741L151.019 53.3177ZM144.525 46.5099C144.938 48.3012 146.54 55.9441 144.844 59.6374L150.754 53.3177L144.525 46.5099ZM177.424 53.8721L182.175 59.1051C180.727 55.378 183.83 47.2052 184.221 46.2071L183.256 46.3002L177.424 53.8721Z" fill="black"/>
<path opacity="0.1" d="M151.31 60.4959L145.323 53.2618L145.547 53.2187L151.322 60.1942L157.113 53.8186L149.391 46.9794L149.604 46.9235L157.227 53.6788L163.018 47.3148H163.088L180.253 46.5321L164.343 60.2326L157.256 53.9432L151.31 60.4959ZM157.379 53.8127L164.345 59.9915L179.814 46.6695L163.18 47.4278L157.379 53.8127Z" fill="black"/>
<path opacity="0.1" d="M176.91 60.1369L176.785 60.0216L162.547 46.7439L162.762 46.6903L176.877 59.8527L182.183 53.2185L182.407 53.2604L176.91 60.1369Z" fill="black"/>
<path d="M163.862 44.3887C152.535 44.3887 143.351 45.119 143.351 46.0193C143.351 46.9197 152.535 47.6499 163.862 47.6499C175.189 47.6499 184.374 46.9197 184.374 46.0193C184.374 45.119 175.189 44.3887 163.862 44.3887ZM163.862 46.9511C153.466 46.9511 145.04 46.4852 145.04 45.9029C145.04 45.3205 153.466 44.8546 163.862 44.8546C174.258 44.8546 182.685 45.3205 182.685 45.9029C182.685 46.4852 174.258 46.9511 163.862 46.9511Z" fill="#5F546F"/>
<path opacity="0.2" d="M163.862 44.3887C152.535 44.3887 143.351 45.119 143.351 46.0193C143.351 46.9197 152.535 47.6499 163.862 47.6499C175.189 47.6499 184.374 46.9197 184.374 46.0193C184.374 45.119 175.189 44.3887 163.862 44.3887ZM163.862 46.9511C153.466 46.9511 145.04 46.4852 145.04 45.9029C145.04 45.3205 153.466 44.8546 163.862 44.8546C174.258 44.8546 182.685 45.3205 182.685 45.9029C182.685 46.4852 174.258 46.9511 163.862 46.9511Z" fill="black"/>
<path d="M163.862 44.0383C152.535 44.0383 143.351 44.7685 143.351 45.6688C143.351 46.5691 152.535 47.2994 163.862 47.2994C175.189 47.2994 184.374 46.5691 184.374 45.6688C184.374 44.7685 175.189 44.0383 163.862 44.0383ZM163.862 46.6006C153.466 46.6006 145.04 46.1347 145.04 45.5524C145.04 44.97 153.466 44.5041 163.862 44.5041C174.258 44.5041 182.685 44.97 182.685 45.5524C182.685 46.1347 174.258 46.6006 163.862 46.6006Z" fill="#5F546F"/>
<path opacity="0.1" d="M169.293 92.3159H158.675V92.8983H169.293V92.3159Z" fill="black"/>
<path opacity="0.3" d="M140.011 16.7299L115.238 28.7811V31.6347L143.351 16.2092L140.011 16.7299Z" fill="white"/>
<path opacity="0.3" d="M148.561 15.5702L115.238 35.9434V38.9635L156.874 14.9716L148.561 15.5702Z" fill="white"/>
<path d="M4.87705 105.999C7.00877 105.721 10.9494 102.665 10.9494 102.665C11.2351 102.276 11.6257 101.959 12.0837 101.747C12.5417 101.534 13.0519 101.432 13.5653 101.451L17.4786 96.4314C18.9955 94.0535 20.795 91.8353 22.8444 89.817C23.1794 89.478 23.5255 89.1493 23.8828 88.8308C24.9383 87.8735 26.0724 86.9913 27.2753 86.1917C28.0667 85.6534 28.8138 85.0629 29.5106 84.4249C30.1547 83.8397 30.7646 83.224 31.3378 82.5803L34.0603 79.1022L34.243 78.8661C34.1735 78.5264 34.155 78.1797 34.1882 77.8354C34.1882 77.7549 34.2064 77.6743 34.2186 77.5937L45.4558 65.5428L48.8057 59.3089C48.8453 59.3395 48.9792 59.4423 49.1894 59.5867L49.2503 59.4284V59.3561V58.8311C49.2673 54.5162 48.0933 50.2667 45.8365 46.4745C45.0785 45.2015 44.6818 43.7757 44.6823 42.327C44.6823 42.2103 44.6823 42.0936 44.6823 41.977L44.7402 41.9186C44.8468 41.8103 45.0904 41.5603 45.4041 41.1908C45.3645 41.1185 45.3218 41.0435 45.2822 40.9741C43.8875 38.635 41.9476 38.235 41.9476 38.235C35.4185 37.4016 30.7104 33.3874 30.7104 33.3874C25.8379 30.8872 26.7515 28.6648 26.7515 28.6648L31.155 18.9695L33.8958 13.8441L34.6541 11.4884C34.9025 9.92145 35.2533 8.36948 35.7047 6.84076C36.3534 4.58502 39.5845 3.94331 41.1437 5.79068C41.1802 5.83513 41.2198 5.88236 41.2563 5.93236C41.9466 6.84244 42.2399 7.9547 42.0789 9.0516C41.9178 10.1485 41.3139 11.1511 40.3854 11.8634C38.8627 13.0468 37.538 14.2608 37.538 14.2608C34.7972 14.9525 32.97 27.8341 32.97 27.8341L34.7972 28.9453C36.1985 29.0116 37.5695 29.3421 38.8237 29.9158C40.078 30.4896 41.1883 31.2942 42.0847 32.2789H47.8159C47.8159 32.2567 47.8007 32.2345 47.7916 32.2095L48.7417 32.015L51.4825 31.4594L52.4966 31.2511L52.5118 31.3094L52.7981 31.2511V31.2872C53.183 30.7309 53.5288 30.1528 53.8335 29.5565C53.7517 29.5678 53.6686 29.5678 53.5868 29.5565C53.5655 29.5148 53.5472 29.4732 53.532 29.4315H53.4345C53.0112 28.5981 53.3767 27.5563 52.9686 26.7063C52.7483 26.3476 52.5042 26.0016 52.2377 25.6701C51.6287 24.7117 51.7017 23.5116 51.8814 22.4115C52.0763 21.228 52.3748 20.0196 53.1209 19.0334C53.867 18.0472 55.1551 17.3249 56.4707 17.4805C57.5061 17.6055 58.4136 18.2528 59.4551 18.3139C60.1921 18.3528 60.8986 18.0889 61.5868 17.8833C62.3404 17.6619 63.1139 17.5011 63.8982 17.4027C64.419 17.3361 65.0311 17.3277 65.3813 17.6805L65.4118 17.7166C65.4558 17.7474 65.4965 17.7818 65.5336 17.8194C65.6711 17.976 65.7744 18.1552 65.8381 18.3473L66.5111 20.0391C66.5458 20.0965 66.5639 20.161 66.5639 20.2266C66.5639 20.2921 66.5458 20.3567 66.5111 20.4141C66.4502 20.4835 66.3436 20.503 66.2614 20.5502C65.7285 20.8641 66.4441 21.6392 66.0025 22.0198C65.7376 22.2476 65.1712 22.2726 64.6108 22.2698C65.1206 23.0026 65.4292 23.8367 65.5106 24.7015C65.5919 25.5662 65.4436 26.4361 65.0782 27.2375C64.7128 28.0388 64.141 28.748 63.4113 29.305C62.6816 29.862 61.8155 30.2503 60.8864 30.4371C60.8864 30.5288 60.8864 30.6205 60.8864 30.7149C60.8719 31.4475 60.9351 32.1797 61.0752 32.9012L61.5198 32.9373C62.2598 32.9734 63.7551 33.0262 65.0615 32.9707C65.499 32.9548 65.9351 32.9168 66.368 32.8568C66.368 32.8568 66.4197 33.3624 66.5202 34.1374L66.8248 34.2152C69.6648 34.9596 72.1311 36.5846 73.7985 38.81L80.6322 42.4214C80.6322 42.4214 83.6775 41.7297 92.4754 48.6553L98.8523 51.7111C98.8523 51.7111 108.594 54.328 106.773 56.9559C104.952 59.5839 95.8405 53.7724 95.8405 53.7724L92.1861 52.25L81.1012 47.8052C81.1012 47.8052 77.4468 45.5828 74.7243 44.7494C72.0018 43.916 69.258 41.4158 69.258 41.4158L68.5728 41.3825L68.2682 41.3658C68.3136 41.4404 68.3634 41.5128 68.4175 41.5825C68.4449 41.6214 68.4753 41.6575 68.5058 41.6908V63.9899L68.5545 64.6094H68.5332L69.2641 73.6795C69.2641 73.6795 69.1118 77.8465 69.7209 80.1884C70.3299 82.5303 69.2641 92.1005 69.2641 92.1005C69.2641 92.1005 68.8651 92.1005 68.2165 92.0588L68.2347 92.3366L68.5027 96.2564C68.5027 96.2564 69.0143 97.7676 66.0665 98.5538C65.3914 98.7323 64.7489 99.0009 64.1601 99.3511L60.7616 101.382L57.2686 103.326L56.5621 104.679L56.5286 104.746L57.2716 104.332C57.2716 104.332 57.8807 105.721 55.9043 107.518C55.1642 108.122 54.5868 108.874 54.2171 109.715C53.8474 110.556 53.6952 111.463 53.7726 112.366C53.7726 112.366 53.468 115.7 51.6408 114.866C51.6408 114.866 48.7569 114.311 48.9001 109.741C48.9001 109.741 50.0512 105.935 48.7113 104.326C48.6747 104.282 48.6361 104.239 48.5955 104.199C47.0729 102.676 49.0523 100.309 49.0523 100.309C49.0523 100.309 52.5697 99.0149 52.7676 101.165L52.9138 101.107C53.5472 100.829 54.6831 100.154 55.886 98.5093C55.886 98.5093 57.8594 93.9395 60.8955 93.5228L60.387 90.8921L60.3291 90.5893C59.2846 90.1392 58.438 89.5586 58.0116 88.8113L57.9934 88.778V88.7641V88.7447V88.7252V88.7058L57.9781 88.678V88.6558L57.9629 88.6252L57.9446 88.5919V88.5641L57.9233 88.5252L57.8655 88.4974L57.8441 88.4557L57.8259 88.4196L57.8015 88.3724L57.7802 88.3335L57.7558 88.2863L57.7284 88.2363L57.7071 88.1974L57.6767 88.1391L57.6553 88.1002L57.5244 87.8418L57.5061 87.8085L57.4696 87.7362L57.4422 87.6835L57.4026 87.6029L57.3782 87.5557L57.3325 87.4612L57.3143 87.4223L57.2655 87.3251L57.2412 87.2779L57.1924 87.1779L57.1711 87.1334L57.1194 87.0279L57.098 86.9862L57.0432 86.875L57.025 86.8334L56.9701 86.7167L56.9519 86.6778L56.891 86.5528V86.5306C55.9195 84.4693 54.6983 81.5052 54.7592 79.7495C54.7513 79.6097 54.7513 79.4697 54.7592 79.33H54.7958V79.3022C54.7958 79.2439 54.8202 79.1883 54.8384 79.1355L46.6404 80.8023L41.768 85.65H41.7466H41.7284H41.707H41.6827H41.6583L41.6279 85.6361H41.6005L41.5609 85.6194L41.5304 85.6055L41.4878 85.5861L41.4512 85.5694L41.3995 85.5444L41.366 85.5277L41.3081 85.5L41.2716 85.4805L41.2107 85.4527L41.168 85.4305L41.101 85.3972L41.0584 85.3777L40.9884 85.3416L40.9396 85.3166L40.8635 85.2777L40.8117 85.1638L40.7264 85.1194L40.6808 85.0971L40.5925 85.0527L40.5407 85.0249L40.4493 84.9777L40.4006 84.9499L40.3032 84.8971L40.2514 84.8693L40.1509 84.8138L40.1022 84.786L39.9956 84.7277H39.9773L39.8068 84.9082L37.6751 87.164C35.5433 87.9974 30.6891 92.1505 30.6891 92.1505C30.1288 93.3756 27.7565 95.1257 26.5444 95.9647C26.1979 96.1984 25.8301 96.4048 25.4451 96.5814C24.7812 96.8953 23.8463 97.6426 22.9906 98.3982C21.8739 99.405 20.6758 100.334 19.4062 101.176C18.2322 101.993 17.1879 102.954 16.3031 104.032L16.1995 104.154C16.9243 106.377 12.7766 108.635 12.7766 108.635C11.2539 108.357 6.55198 112.247 6.55198 112.247C6.55198 112.247 2.14845 115.433 0.327362 111.969C-1.49374 108.505 4.87705 105.999 4.87705 105.999ZM12.9228 102.287L13.5318 101.501C13.3665 101.572 13.2242 101.681 13.119 101.818C13.0138 101.954 12.9494 102.113 12.9319 102.279L12.9228 102.287Z" fill="url(#paint12_linear)"/>
<path d="M50.7923 34.2846C50.7923 34.2846 66.1558 42.4492 62.873 37.821C61.4532 35.8717 60.7103 33.5773 60.7413 31.2372C60.7419 30.4731 60.8545 29.7126 61.0762 28.9759L54.6628 26.2534C54.7739 27.0548 54.695 27.8686 54.4314 28.6397C53.533 31.5344 50.7923 34.2846 50.7923 34.2846Z" fill="#DB8B8B"/>
<path opacity="0.1" d="M54.4401 28.6427C55.0487 29.6346 55.9901 30.4222 57.1259 30.8897C58.2617 31.3572 59.532 31.4801 60.75 31.2401C60.7506 30.4761 60.8632 29.7156 61.085 28.9788L54.6715 26.2563C54.7826 27.0577 54.7037 27.8715 54.4401 28.6427Z" fill="black"/>
<path d="M59.5167 31.0866C56.3043 31.0866 53.7002 28.711 53.7002 25.7806C53.7002 22.8502 56.3043 20.4746 59.5167 20.4746C62.7291 20.4746 65.3333 22.8502 65.3333 25.7806C65.3333 28.711 62.7291 31.0866 59.5167 31.0866Z" fill="#DB8B8B"/>
<path opacity="0.1" d="M63.2346 22.9583C62.6725 23.0633 62.1763 23.3617 61.849 23.7917C61.4653 24.3473 61.4744 25.1085 60.9354 25.5418C60.5287 25.8161 60.0202 25.9338 59.5193 25.8696C59.0243 25.804 58.5229 25.7881 58.0241 25.8224C57.2171 25.9419 56.5562 26.4863 56.1085 27.1086C55.7015 27.7539 55.3394 28.422 55.0244 29.1088C54.8956 29.3812 54.7117 29.6291 54.4823 29.8394C54.3665 29.9437 54.2253 30.0216 54.0703 30.067C53.9153 30.1124 53.7508 30.1239 53.5901 30.1005C53.1729 29.2671 53.5322 28.2559 53.1333 27.4253C52.9176 27.0735 52.6785 26.7339 52.4176 26.4086C51.8085 25.4668 51.8908 24.2889 52.0704 23.2083C52.2623 22.0443 52.5546 20.8581 53.2886 19.8914C54.0225 18.9246 55.2863 18.2246 56.5653 18.3662C57.5825 18.4885 58.4748 19.1246 59.498 19.1802C60.2197 19.2191 60.9171 18.9607 61.6054 18.7579C62.3451 18.5405 63.1042 18.3824 63.8741 18.2857C64.3857 18.2218 64.9857 18.2107 65.3298 18.5635C65.4666 18.7164 65.5699 18.8918 65.6343 19.0802L66.2952 20.747C66.3293 20.8036 66.3472 20.8671 66.3472 20.9317C66.3472 20.9963 66.3293 21.0599 66.2952 21.1165C66.2343 21.1831 66.1307 21.2026 66.0515 21.2526C65.5277 21.5609 66.2312 22.3221 65.7988 22.6972C65.3663 23.0722 63.8406 22.8277 63.2346 22.9583Z" fill="black"/>
<path d="M63.0857 22.8218C62.5236 22.9268 62.0274 23.2253 61.7001 23.6552C61.3164 24.2108 61.3255 24.972 60.7865 25.4054C60.3798 25.6796 59.8713 25.7973 59.3704 25.7332C58.8754 25.6675 58.374 25.6517 57.8752 25.6859C57.0682 25.8054 56.4073 26.3499 55.9597 26.9722C55.5526 27.6174 55.1905 28.2855 54.8755 28.9723C54.7468 29.2448 54.5629 29.4926 54.3335 29.7029C54.2176 29.8072 54.0764 29.8852 53.9214 29.9305C53.7665 29.9759 53.6019 29.9874 53.4412 29.9641C53.024 29.1307 53.3833 28.1195 52.9844 27.2888C52.7687 26.937 52.5297 26.5975 52.2687 26.2721C51.6597 25.3304 51.7419 24.1525 51.9216 23.0718C52.1134 21.9078 52.4058 20.7216 53.1397 19.7549C53.8736 18.7881 55.1374 18.0881 56.4165 18.2298C57.4336 18.352 58.3259 18.9882 59.3491 19.0437C60.0708 19.0826 60.7682 18.8243 61.4564 18.6215C62.1961 18.404 62.9553 18.246 63.7252 18.1492C64.2368 18.0853 64.8368 18.0742 65.1809 18.427C65.3176 18.5799 65.421 18.7553 65.4854 18.9437L66.1462 20.6105C66.1804 20.6671 66.1982 20.7307 66.1982 20.7953C66.1982 20.8599 66.1804 20.9234 66.1462 20.98C66.0853 21.0467 65.9818 21.0661 65.9026 21.1161C65.3788 21.4245 66.0823 22.1856 65.6498 22.5607C65.2174 22.9357 63.6917 22.6912 63.0857 22.8218Z" fill="#472727"/>
<path d="M31.1028 33.8749C31.1028 33.8749 35.7256 37.8197 42.139 38.6364C42.139 38.6364 44.0454 39.0309 45.4158 41.3283C45.9151 42.1918 46.2692 43.1189 46.4664 44.0785L53.3488 33.4415L53.7751 32.7831H42.2913C41.4096 31.8176 40.3183 31.0292 39.0861 30.4674C37.8539 29.9056 36.5075 29.5827 35.1317 29.519L33.3411 28.43C33.3411 28.43 35.1317 15.7762 37.8147 15.0956C37.8147 15.0956 39.1241 13.901 40.6133 12.7398C41.5275 12.0398 42.1221 11.0534 42.2804 9.97418C42.4387 8.89494 42.1493 7.80069 41.469 6.906C41.4325 6.85877 41.3959 6.81155 41.3564 6.7671C39.8337 4.95306 36.6514 5.58367 36.0118 7.80052C35.5677 9.30638 35.223 10.8352 34.9795 12.3787L34.2334 14.6928L31.5474 19.7265L27.2231 29.2495C27.2231 29.2495 26.3308 31.4275 31.1028 33.8749Z" fill="#DB8B8B"/>
<path d="M65.4084 34.4197L66.3037 41.6425L68.3167 41.7453L68.9897 41.7786C68.9897 41.7786 71.6757 44.2288 74.3586 45.0428C77.0415 45.8567 80.6228 48.0375 80.6228 48.0375L91.5098 52.3823L95.088 53.8796C95.088 53.8796 104.038 59.6051 105.829 57.0076C107.619 54.4102 98.0633 51.8267 98.0633 51.8267L91.7991 48.832C83.1474 42.0286 80.166 42.7204 80.166 42.7204L73.4663 39.184C71.8289 36.9978 69.4068 35.4013 66.6174 34.6697C66.2217 34.5594 65.8176 34.4759 65.4084 34.4197Z" fill="#DB8B8B"/>
<path opacity="0.1" d="M45.4163 41.3296C45.9156 42.1932 46.2698 43.1203 46.467 44.0799L53.3494 33.4428C53.1853 33.2353 53.0416 33.015 52.92 32.7844C52.7438 32.4585 52.605 32.1168 52.5058 31.7649L51.51 31.9705L48.8149 32.5261L47.88 32.7178C47.88 32.74 47.8983 32.7622 47.9044 32.7844C49.159 36.1458 46.7928 39.6656 45.4163 41.3296Z" fill="black"/>
<path opacity="0.1" d="M65.4091 34.4197L66.3044 41.6426L68.3174 41.7454C67.4617 40.3563 66.88 36.6782 66.615 34.6808C66.2206 34.5669 65.8176 34.4796 65.4091 34.4197Z" fill="black"/>
<path d="M45.9579 46.5956C48.1955 50.356 49.3482 54.5737 49.3078 58.8522V59.3855V59.455C49.3078 59.455 47.6663 63.5359 49.3078 63.5359C50.9492 63.5359 50.8 65.5777 52.886 65.9861C54.972 66.3944 62.2838 69.2502 64.5191 68.0279C66.7544 66.8056 68.2466 64.2193 68.2466 64.2193V42.0397C68.2161 42.0063 68.1857 41.9702 68.1583 41.9313C66.8701 40.2645 66.1575 33.3195 66.1575 33.3195C65.7318 33.3793 65.3027 33.4173 64.8724 33.4334C63.5903 33.489 62.1316 33.4334 61.3946 33.4001L60.9378 33.3751C59.6497 34.2946 57.8925 34.428 57.0215 34.428C56.7158 34.429 56.4106 34.4494 56.1079 34.4891C53.5895 34.8113 52.822 31.7583 52.822 31.7583L51.8262 31.9639L49.1311 32.5195L48.1962 32.7112C49.8742 37.0476 45.4554 41.6841 44.8981 42.2453L44.8403 42.3036C44.7929 43.799 45.1784 45.2794 45.9579 46.5956Z" fill="url(#paint13_radial)"/>
<path opacity="0.3" d="M64.8698 33.4456C64.8698 35.2485 65.3418 41.224 68.241 42.088V42.0407C68.2105 42.0074 68.1801 41.9713 68.1527 41.9324C66.8645 40.2656 66.1519 33.3206 66.1519 33.3206C65.7274 33.3839 65.2994 33.4256 64.8698 33.4456Z" fill="white"/>
<path opacity="0.3" d="M44.8838 42.2538C50.341 41.9982 49.6954 35.4866 49.1168 32.5308L48.1819 32.7224C49.8599 37.0561 45.4442 41.6927 44.8838 42.2538Z" fill="white"/>
<g opacity="0.1">
<path opacity="0.1" d="M44.8257 42.4491C44.8273 42.435 44.8338 42.4218 44.8442 42.4113C44.8546 42.4008 44.8684 42.3936 44.8836 42.3908C46.1017 42.113 44.7496 42.5158 46.1017 42.113C46.1535 42.0963 46.0286 41.9102 46.0286 41.9102C45.9875 43.404 46.3782 44.8814 47.1615 46.1938C49.3991 49.9542 50.5518 54.1719 50.5113 58.4504V58.9838V59.0505C50.5113 59.0505 48.8699 63.1314 50.5113 63.1314C52.1528 63.1314 52.0035 65.1732 54.0896 65.5816C56.002 65.9566 62.2906 68.3818 65.0527 67.8456C64.8822 67.9595 64.7086 68.0679 64.5289 68.1651C62.2906 69.3902 54.9819 66.5316 52.8958 66.1233C50.8098 65.7149 50.956 63.6731 49.3176 63.6731C47.6792 63.6731 49.3176 59.5922 49.3176 59.5922V59.5227V58.9893C49.3581 54.7108 48.2053 50.4932 45.9677 46.7328C45.1813 45.4212 44.7874 43.9437 44.8257 42.4491Z" fill="black"/>
<path opacity="0.1" d="M60.5761 33.6649C60.6461 33.6203 60.7192 33.5728 60.7862 33.5254H60.9446C60.8228 33.5812 60.6979 33.6231 60.5761 33.6649Z" fill="black"/>
</g>
<path d="M13.5046 101.77L15.2922 105.442C15.8025 104.677 16.3618 103.939 16.9671 103.234C17.8355 102.176 18.8604 101.232 20.0124 100.431C21.2593 99.6033 22.4361 98.6914 23.5328 97.7028C24.3733 96.961 25.293 96.2249 25.9447 95.9165C26.3233 95.7431 26.685 95.5405 27.0258 95.3109C28.2134 94.4775 30.5462 92.769 31.0974 91.5662C31.0974 91.5662 35.8694 87.4853 37.9584 86.6686L40.0414 84.4462L42.4351 81.8988L36.3201 76.3206L34.5203 78.618L31.8435 82.0349C30.6326 83.4074 29.2475 84.6439 27.7171 85.7185C26.1925 86.7272 24.7844 87.8749 23.5145 89.1438C21.5125 91.1298 19.756 93.3107 18.2766 95.647L14.4304 100.578L14.403 100.617L13.7939 101.392L13.5046 101.77Z" fill="#DB8B8B"/>
<path d="M51.388 102.179L53.7755 107.349L55.7123 105.443L56.5102 103.915L57.2045 102.585L60.6366 100.679L63.9864 98.6843C64.565 98.3404 65.1961 98.0764 65.8593 97.9009C68.7554 97.1286 68.256 95.6452 68.256 95.6452L67.991 91.7949L67.8083 89.1141L59.8905 88.2974L60.2864 90.3392L60.7858 92.9227C57.8014 93.3311 55.8646 97.8204 55.8646 97.8204C54.6861 99.4344 53.5684 100.104 52.9442 100.371C52.7816 100.445 52.6098 100.502 52.4325 100.54L51.388 102.179Z" fill="#DB8B8B"/>
<path opacity="0.1" d="M14.4031 100.622L14.4731 100.584H14.4305L14.4031 100.622Z" fill="black"/>
<path opacity="0.1" d="M13.5048 101.77L15.2924 105.443C15.8027 104.677 16.3619 103.94 16.9673 103.234C16.6932 103.473 15.1614 104.745 14.6711 103.584C14.4832 103.111 14.2667 102.647 14.0225 102.195C13.8711 101.955 13.7942 101.681 13.8002 101.404L13.5048 101.77Z" fill="black"/>
<path opacity="0.1" d="M13.6507 101.529L14.2597 100.754L14.2871 100.715L18.1334 95.7838C19.616 93.4489 21.3756 91.2699 23.3804 89.286C24.6503 88.0171 26.0584 86.8695 27.583 85.8607C29.1134 84.7861 30.4985 83.5496 31.7093 82.1771L34.377 78.774L36.1768 76.4766L36.4387 76.7155L34.8277 78.774L32.1509 82.1909C30.9384 83.5597 29.5523 84.7925 28.0215 85.8635C26.4969 86.8722 25.0888 88.0199 23.819 89.2888C21.8175 91.2722 20.0609 93.4503 18.581 95.7838L14.7287 100.72L14.7013 100.759L14.0922 101.534L13.7877 101.912L15.3895 105.201C15.222 105.443 15.1276 105.585 15.1276 105.585L13.337 101.912L13.6507 101.529Z" fill="black"/>
<path opacity="0.1" d="M51.388 102.178L53.7756 107.348L55.7124 105.442L56.5103 103.915L54.2202 105.304C51.9697 104.02 52.8376 100.739 52.9411 100.373C52.7786 100.447 52.6069 100.504 52.4295 100.542L51.388 102.178Z" fill="black"/>
<path d="M52.8043 100.479C52.8043 100.479 51.6866 104.09 54.0711 105.446L57.2048 103.54C57.2048 103.54 57.8138 104.901 55.8618 106.671C55.1356 107.265 54.5694 108.003 54.207 108.829C53.8447 109.655 53.6961 110.546 53.7727 111.432C53.7727 111.432 53.4682 114.697 51.6836 113.883C51.6836 113.883 48.8484 113.327 48.9976 108.849C48.9976 108.849 50.1274 105.112 48.8119 103.532C48.7753 103.489 48.7378 103.448 48.6992 103.407C47.207 101.909 49.1468 99.5981 49.1468 99.5981C49.1468 99.5981 52.655 98.3036 52.8043 100.479Z" fill="#535461"/>
<path opacity="0.1" d="M49.3 63.5402C50.9414 63.5402 50.7922 65.5821 52.8782 65.9904C54.9643 66.3988 62.2761 69.2546 64.5113 68.0323C66.7466 66.8099 68.2388 64.2236 68.2388 64.2236V63.9458C64.5113 65.7154 59.8855 63.9458 59.8855 63.9458C56.5905 64.5236 50.9231 60.5816 49.2969 59.3843V59.4537C49.2969 59.4537 47.6616 63.5402 49.3 63.5402Z" fill="black"/>
<path opacity="0.1" d="M67.7967 89.1167L59.8789 88.3L60.2748 90.3418C62.7263 91.3807 66.2558 91.7002 67.9673 91.7974L67.7967 89.1167Z" fill="black"/>
<path opacity="0.1" d="M34.5267 78.6242C34.9012 81.1244 37.9648 83.2718 40.0478 84.458L42.4414 81.9106L36.3264 76.3323L34.5267 78.6242Z" fill="black"/>
<path d="M59.8915 64.2167C59.8915 64.2167 64.5143 65.9863 68.2448 64.2167L68.9909 73.4703C68.9909 73.4703 68.8417 77.5512 69.4386 79.8597C70.0355 82.1682 68.9909 91.5607 68.9909 91.5607C68.9909 91.5607 59.7423 91.4246 57.9547 88.2966C57.9547 88.2966 54.078 81.2209 54.8211 78.7735L46.7662 80.407L41.9912 85.1629C41.9912 85.1629 33.7871 81.6265 34.5332 77.2706L45.5725 65.439L48.8523 59.3274C48.8523 59.3274 56.0118 64.8973 59.8915 64.2167Z" fill="#6C63FF"/>
<path d="M41.9906 85.1629L46.7626 80.4014L54.8205 78.7735C54.8022 78.8346 54.787 78.8985 54.7717 78.9652C54.747 79.0955 54.7327 79.2274 54.7291 79.3596C54.6042 82.1904 57.951 88.2993 57.951 88.2993C59.7417 91.4301 68.9873 91.5634 68.9873 91.5634C68.9873 91.5634 70.047 82.1793 69.438 79.8652C68.8289 77.5512 68.9903 73.4758 68.9903 73.4758L68.2716 64.5667L68.2442 64.225C67.2028 64.7033 66.0597 64.9688 64.8944 65.0029C63.2439 65.0464 61.5994 64.8022 60.0493 64.2834L59.8909 64.225C59.8036 64.2398 59.7143 64.2519 59.6229 64.2611C56.4193 64.5834 51.2818 61.0998 49.4942 59.8024C49.0892 59.508 48.8547 59.3274 48.8547 59.3274L45.5718 65.439L34.5356 77.2761C34.5119 77.4122 34.4977 77.5496 34.493 77.6873C34.3011 81.8543 41.9906 85.1629 41.9906 85.1629Z" fill="url(#paint14_radial)"/>
<path opacity="0.3" d="M51.8122 31.9718C55.1347 37.4474 60.0346 34.4165 61.3928 33.4109L60.936 33.3859C59.6479 34.3054 57.8907 34.4387 57.0197 34.4387C56.714 34.4398 56.4088 34.4602 56.1061 34.4999C53.5877 34.8221 52.8202 31.769 52.8202 31.769L51.8122 31.9718Z" fill="white"/>
<path d="M14.3177 100.72C13.8068 100.694 13.2973 100.79 12.8396 100.999C12.3819 101.207 11.9917 101.521 11.7078 101.909C11.7078 101.909 7.83419 104.887 5.74815 105.165C5.74815 105.165 -0.516066 107.615 1.27458 111.016C3.06523 114.416 7.38958 111.294 7.38958 111.294C7.38958 111.294 12.0124 107.485 13.5046 107.757C13.5046 107.757 17.6066 105.512 16.8544 103.334C16.8544 103.334 15.0577 105.001 14.5156 103.721C14.3289 103.247 14.1133 102.783 13.87 102.332C13.5807 101.809 13.4315 101.129 14.3177 100.72Z" fill="#535461"/>
<path opacity="0.1" d="M60.8719 64.2506C62.4311 64.6645 65.5678 65.2173 68.2416 63.9478L68.2903 64.5561C65.047 65.6312 61.4597 64.4589 60.8719 64.2506Z" fill="black"/>
<path opacity="0.1" d="M57.4819 63.7717C58.2587 64.0012 59.0828 64.0649 59.8908 63.9579C59.8908 63.9579 60.2197 64.0829 60.7678 64.2357C59.8146 64.3829 58.6696 64.169 57.4819 63.7717Z" fill="black"/>
<path opacity="0.1" d="M34.4901 77.6906C34.6333 81.727 41.9907 84.8995 41.9907 84.8995L42.0943 84.7967C40.057 83.7772 34.8251 80.7964 35.4281 77.2795L46.4673 65.4396L49.4944 59.7919C49.0894 59.4975 48.8549 59.3169 48.8549 59.3169L45.572 65.4285L34.5358 77.2656C34.5104 77.4062 34.4951 77.5482 34.4901 77.6906Z" fill="black"/>
<path opacity="0.1" d="M55.7127 78.7737C54.9666 81.2238 58.8463 88.2965 58.8463 88.2965C59.3762 89.2216 60.5547 89.8855 61.9556 90.3605C60.1771 89.8772 58.5905 89.141 57.951 88.0243C57.951 88.0243 54.5098 81.7461 54.7352 78.9709L55.7127 78.7737Z" fill="black"/>
<path opacity="0.3" d="M58.2491 43.4688C60.3504 43.4688 62.0527 45.6912 62.0527 48.4358C62.0527 51.1805 60.3504 53.4029 58.2491 53.4029C56.1479 53.4029 54.4456 51.1805 54.4456 48.4358C54.4456 45.6912 56.1479 43.4688 58.2491 43.4688ZM58.2491 51.3611C59.4855 51.3611 60.4905 50.0526 60.4905 48.4358C60.4905 46.819 59.4886 45.5106 58.2491 45.5106C57.0097 45.5106 56.0078 46.819 56.0078 48.4358C56.0078 50.0526 57.0127 51.3611 58.2491 51.3611Z" fill="white"/>
<path d="M33.3207 8.41505C33.3207 8.57617 33.3207 8.73545 33.3207 8.89287C33.3207 8.97899 33.3207 9.0651 33.342 9.14844C33.4698 10.5755 33.9938 11.9493 34.8647 13.1404C34.9225 13.221 34.9834 13.2988 35.0444 13.3766C35.8748 14.4389 36.9712 15.3051 38.2423 15.9032C39.5135 16.5014 40.9228 16.8142 42.3531 16.8157C42.5571 16.8157 42.7612 16.8157 42.9622 16.7963C43.1632 16.7768 43.3367 16.7685 43.5225 16.7463C44.8135 16.5866 46.0514 16.174 47.1511 15.5367C48.2508 14.8994 49.1862 14.0525 49.8933 13.0543C49.942 12.9904 49.9877 12.921 50.0303 12.8571V12.8432C50.9234 11.51 51.3945 9.97741 51.3916 8.41505C51.3921 7.9986 51.3596 7.58265 51.2941 7.1705L51.2454 6.8927C50.9984 5.62168 50.4337 4.41967 49.595 3.37999C48.7563 2.34031 47.6663 1.49093 46.4095 0.897764L46.0806 0.75053C45.0116 0.300552 43.8559 0.0475603 42.6795 0.00608535C41.5031 -0.0353896 40.3294 0.135461 39.2256 0.508836C38.9381 0.606318 38.6566 0.717597 38.382 0.8422C36.359 1.76135 34.7791 3.32924 33.945 5.24534C33.9145 5.30924 33.8902 5.37035 33.8658 5.43425C33.4905 6.3902 33.3059 7.39973 33.3207 8.41505Z" fill="#FB745B"/>
<path opacity="0.5" d="M33.902 5.4351C34.4813 5.59184 35.0824 5.67137 35.6866 5.67123H35.7901H36.0277C36.1738 5.67123 36.317 5.65457 36.454 5.6379C37.6384 5.50871 38.7732 5.12814 39.7673 4.5267C42.4259 2.05428 45.0296 1.20977 46.4365 0.9153L46.1076 0.768066C44.7251 1.08754 42.4807 1.87926 40.1449 3.87942C39.5427 4.39917 38.8323 4.80347 38.0558 5.0684C37.5222 5.24838 36.9672 5.37052 36.4022 5.43232C36.2804 5.43232 36.1617 5.45455 36.0429 5.46288H35.8023C35.185 5.47828 34.5687 5.40707 33.9751 5.25175C33.9538 5.3212 33.9264 5.38232 33.902 5.4351Z" fill="white"/>
<path opacity="0.5" d="M33.336 8.89229C33.336 8.97841 33.336 9.06452 33.3573 9.14786C34.1361 8.69346 34.9687 8.32071 35.8392 8.03669L36.0676 7.96169C38.143 7.32564 40.2868 6.89353 42.4628 6.67272C47.5789 6.07825 50.1309 6.63384 51.3459 7.16164L51.2972 6.88385C49.9816 6.35604 47.3901 5.87546 42.4323 6.45049C40.2579 6.67199 38.1146 7.09931 36.0372 7.72556L35.8088 7.80056C34.9435 8.08157 34.1144 8.44764 33.336 8.89229Z" fill="white"/>
<path opacity="0.5" d="M35.8087 7.82112C35.8087 7.89613 35.827 7.97114 35.8361 8.04892C35.8889 8.42858 35.964 8.82584 36.0615 9.24069C36.1366 9.55368 36.2198 9.85463 36.3112 10.1435C36.3355 10.2186 36.3599 10.2936 36.3843 10.3658C37.5415 13.7466 39.8955 15.4607 41.7562 16.3163C42.1513 16.4995 42.558 16.6609 42.9743 16.7997L43.5347 16.7497C42.9501 16.5837 42.3817 16.3737 41.8354 16.1218C40.0082 15.2884 37.6968 13.5855 36.57 10.238C36.5457 10.1713 36.5244 10.1019 36.503 10.0324C36.4178 9.76388 36.3406 9.48608 36.2716 9.19901C36.1721 8.78231 36.096 8.37487 36.0432 7.97669C36.0432 7.90168 36.0249 7.8239 36.0158 7.74889C35.9381 7.05991 35.9381 6.36548 36.0158 5.6765C36.0158 5.60427 36.031 5.53204 36.0432 5.46259C36.2288 3.9662 36.9403 2.56478 38.0714 1.46781C38.4408 1.1148 38.849 0.797359 39.2895 0.520508C39.0021 0.61799 38.7205 0.729269 38.446 0.853873C38.2673 0.996477 38.0907 1.15204 37.9161 1.32058C36.7521 2.46263 36.0246 3.91765 35.8422 5.46815C35.8422 5.5376 35.824 5.60983 35.8148 5.67928C35.7314 6.3911 35.7293 7.10891 35.8087 7.82112Z" fill="white"/>
<path opacity="0.5" d="M34.8888 13.1431C34.9467 13.2237 35.0076 13.3015 35.0685 13.3792C35.3242 12.368 35.7342 11.3945 36.2866 10.4873C36.3157 10.4422 36.3516 10.4011 36.3932 10.3651C36.4541 10.3145 36.5229 10.2723 36.5973 10.2401C37.7697 9.70948 41.2718 10.5984 43.8756 11.8819C45.8794 12.8709 48.5014 13.0459 49.9357 13.057L50.0728 12.8598V12.8459C48.7024 12.8459 46.0103 12.6959 43.9821 11.6958C41.5459 10.5012 37.922 9.47336 36.5272 10.029C36.4533 10.0584 36.3829 10.0947 36.3171 10.1373C36.2214 10.1996 36.1406 10.279 36.0796 10.3707C35.552 11.2435 35.1517 12.1756 34.8888 13.1431Z" fill="white"/>
<defs>
<linearGradient id="paint0_linear" x1="164.116" y1="94.8637" x2="164.116" y2="47.1524" gradientUnits="userSpaceOnUse">
<stop stop-color="#808080" stop-opacity="0.25"/>
<stop offset="0.54" stop-color="#808080" stop-opacity="0.12"/>
<stop offset="1" stop-color="#808080" stop-opacity="0.1"/>
</linearGradient>
<linearGradient id="paint1_linear" x1="9744.1" y1="2980.81" x2="9744.1" y2="2864.57" gradientUnits="userSpaceOnUse">
<stop stop-color="#808080" stop-opacity="0.25"/>
<stop offset="0.54" stop-color="#808080" stop-opacity="0.12"/>
<stop offset="1" stop-color="#808080" stop-opacity="0.1"/>
</linearGradient>
<linearGradient id="paint2_linear" x1="39591" y1="14439.7" x2="39591" y2="4168.21" gradientUnits="userSpaceOnUse">
<stop stop-color="#808080" stop-opacity="0.25"/>
<stop offset="0.54" stop-color="#808080" stop-opacity="0.12"/>
<stop offset="1" stop-color="#808080" stop-opacity="0.1"/>
</linearGradient>
<linearGradient id="paint3_linear" x1="37097.3" y1="13225.8" x2="37097.3" y2="4211.26" gradientUnits="userSpaceOnUse">
<stop stop-color="#808080" stop-opacity="0.25"/>
<stop offset="0.54" stop-color="#808080" stop-opacity="0.12"/>
<stop offset="1" stop-color="#808080" stop-opacity="0.1"/>
</linearGradient>
<linearGradient id="paint4_linear" x1="7414.69" y1="3583.42" x2="7414.69" y2="2603.82" gradientUnits="userSpaceOnUse">
<stop stop-color="#808080" stop-opacity="0.25"/>
<stop offset="0.54" stop-color="#808080" stop-opacity="0.12"/>
<stop offset="1" stop-color="#808080" stop-opacity="0.1"/>
</linearGradient>
<linearGradient id="paint5_linear" x1="6183.43" y1="2912.59" x2="6183.43" y2="2237.37" gradientUnits="userSpaceOnUse">
<stop stop-color="#808080" stop-opacity="0.25"/>
<stop offset="0.54" stop-color="#808080" stop-opacity="0.12"/>
<stop offset="1" stop-color="#808080" stop-opacity="0.1"/>
</linearGradient>
<linearGradient id="paint6_linear" x1="15768.7" y1="7980.58" x2="15768.7" y2="6046.73" gradientUnits="userSpaceOnUse">
<stop stop-color="#808080" stop-opacity="0.25"/>
<stop offset="0.54" stop-color="#808080" stop-opacity="0.12"/>
<stop offset="1" stop-color="#808080" stop-opacity="0.1"/>
</linearGradient>
<linearGradient id="paint7_linear" x1="13417.1" y1="7568.79" x2="13417.1" y2="5831.11" gradientUnits="userSpaceOnUse">
<stop stop-color="#808080" stop-opacity="0.25"/>
<stop offset="0.54" stop-color="#808080" stop-opacity="0.12"/>
<stop offset="1" stop-color="#808080" stop-opacity="0.1"/>
</linearGradient>
<linearGradient id="paint8_linear" x1="6580.13" y1="6473.85" x2="6580.13" y2="4861.98" gradientUnits="userSpaceOnUse">
<stop stop-color="#808080" stop-opacity="0.25"/>
<stop offset="0.54" stop-color="#808080" stop-opacity="0.12"/>
<stop offset="1" stop-color="#808080" stop-opacity="0.1"/>
</linearGradient>
<linearGradient id="paint9_linear" x1="15923.8" y1="1428.49" x2="15923.8" y2="1333.65" gradientUnits="userSpaceOnUse">
<stop stop-color="#808080" stop-opacity="0.25"/>
<stop offset="0.54" stop-color="#808080" stop-opacity="0.12"/>
<stop offset="1" stop-color="#808080" stop-opacity="0.1"/>
</linearGradient>
<linearGradient id="paint10_linear" x1="15923.8" y1="1428.49" x2="15923.8" y2="1333.65" gradientUnits="userSpaceOnUse">
<stop stop-color="#808080" stop-opacity="0.25"/>
<stop offset="0.54" stop-color="#808080" stop-opacity="0.12"/>
<stop offset="1" stop-color="#808080" stop-opacity="0.1"/>
</linearGradient>
<linearGradient id="paint11_linear" x1="15923.8" y1="1417.95" x2="15923.8" y2="1323.12" gradientUnits="userSpaceOnUse">
<stop stop-color="#808080" stop-opacity="0.25"/>
<stop offset="0.54" stop-color="#808080" stop-opacity="0.12"/>
<stop offset="1" stop-color="#808080" stop-opacity="0.1"/>
</linearGradient>
<linearGradient id="paint12_linear" x1="-73223.3" y1="74598.7" x2="-73223.3" y2="30833.3" gradientUnits="userSpaceOnUse">
<stop stop-color="#808080" stop-opacity="0.25"/>
<stop offset="0.54" stop-color="#808080" stop-opacity="0.12"/>
<stop offset="1" stop-color="#808080" stop-opacity="0.1"/>
</linearGradient>
<radialGradient id="paint13_radial" cx="0" cy="0" r="1" gradientUnits="userSpaceOnUse" gradientTransform="translate(82.9511 -37.7278) rotate(103.918) scale(135.954 94.2797)">
<stop stop-color="#FB72AD"/>
<stop offset="1" stop-color="#B643D5"/>
</radialGradient>
<radialGradient id="paint14_radial" cx="0" cy="0" r="1" gradientUnits="userSpaceOnUse" gradientTransform="translate(91.6973 -1.9211) rotate(112.878) scale(126.25 134.319)">
<stop stop-color="#FB72AD"/>
<stop offset="1" stop-color="#B643D5"/>
</radialGradient>
</defs>
</svg>
