<svg width="73" height="124" viewBox="0 0 73 124" fill="none" xmlns="http://www.w3.org/2000/svg">
  <g clip-path="url(#clip0)">
    <path d="M32.0039 61.9854C32.0039 61.9854 34.4589 65.2932 42.7705 66.5746C51.0821 67.8561 53.2413 66.1276 53.2413 66.1276V61.9854L46.5566 56.1445L34.7843 58.0219L32.0039 61.9854Z" fill="#D5FCFF" />
    <path d="M20.6459 46.8466C20.6459 46.8466 19.5219 51.7041 25.3193 54.0286L27.6264 48.9029L24.9348 44.552L20.6459 46.8466Z" fill="#AA9517" />
    <path d="M26.4136 78.7034C26.4136 78.7034 29.4897 86.3621 38.8957 84.7529L39.8127 79.4484L44.2791 79.21L41.3508 86.6601C41.3508 86.6601 46.4087 89.8488 54.5428 85.9449L50.7272 76.9749L36.1449 70.1804L28.3953 76.1107L26.4136 78.7034Z" fill="#D7D5CA" />
    <path d="M12.068 85.617L11.4764 87.1369L10.7961 88.4779C10.7961 88.4779 10.7074 89.0739 9.93832 89.2825C9.16927 89.4911 7.69034 89.5507 6.77341 90.4447C5.85647 91.3387 4.37754 93.8122 3.22398 95.1532C2.07041 96.4942 0.561901 96.6134 0.0886435 95.5406C-0.384614 94.438 1.15347 87.8819 1.9521 86.2131C2.75072 84.5442 3.22398 84.1568 3.16482 83.4714C3.07608 82.786 3.63808 81.1172 3.99302 80.1338C4.34796 79.1801 4.46628 78.2563 5.29448 78.1073C6.12268 77.9583 9.19885 80.0146 10.7665 80.2828C12.3046 80.551 13.3694 80.5808 13.3103 81.594C13.192 82.5476 12.068 85.617 12.068 85.617Z" fill="#F162FF" />
    <path d="M10.6482 81.8621C8.93265 81.3853 6.15226 81.1767 4.46628 81.5641C4.14091 81.6237 3.81555 81.6237 3.51976 81.5641C3.31271 82.3091 3.13524 83.0541 3.16482 83.4415C3.25355 84.1269 2.75072 84.5143 1.9521 86.1832C1.15347 87.852 -0.384614 94.4379 0.0886435 95.5107C0.561901 96.6133 2.07041 96.4941 3.22398 95.1233C4.37754 93.7823 5.82689 91.3089 6.77341 90.4148C7.69034 89.5208 9.16927 89.4612 9.93832 89.2526C10.7074 89.044 10.7961 88.448 10.7961 88.448L11.4764 87.107L12.068 85.5872C12.068 85.5872 12.9553 83.1733 13.2215 81.9515C12.275 82.0707 11.2989 82.0707 10.6482 81.8621Z" fill="url(#paint0_radial)" />
    <path d="M5.26494 78.0774C4.43674 78.2264 4.31842 79.1503 3.96348 80.1039C3.60853 81.0575 3.04654 82.7561 3.13528 83.4415C3.22401 84.1269 2.72118 84.5144 1.92255 86.1832C1.12393 87.852 -0.414155 94.4379 0.0591025 95.5107C0.295731 96.0174 0.739411 96.2558 1.27183 96.2558C1.27183 94.5273 2.04087 91.4281 2.51413 89.9083C3.07612 88.15 4.02264 86.0938 4.70294 84.9316C5.38325 83.7693 5.47199 81.7429 6.0044 80.4019C6.27061 79.7761 6.71429 79.1503 7.09881 78.7033C6.30019 78.3158 5.61988 78.0178 5.26494 78.0774Z" fill="#E5FACF" />
    <path d="M0.0886278 95.5109C0.118206 95.5705 0.147785 95.6301 0.177364 95.6897C0.206942 95.7195 0.206942 95.7493 0.236521 95.7493C0.266099 95.7791 0.266099 95.8089 0.295678 95.8387C0.325257 95.8685 0.354835 95.8983 0.384414 95.9281C0.413992 95.9579 0.413992 95.9579 0.443571 95.9877C0.47315 96.0175 0.502728 96.0473 0.561885 96.0771L0.591464 96.1069C0.621043 96.1367 0.6802 96.1665 0.709779 96.1665H0.739357C0.798514 96.1963 0.828093 96.1963 0.88725 96.2261C0.88725 96.2261 0.88725 96.2261 0.916829 96.2261C0.975986 96.2261 1.03514 96.2559 1.0943 96.2559C1.15346 96.2559 1.21261 96.2559 1.30135 96.2559C1.30135 94.5275 2.07039 91.4282 2.54365 89.9084C3.10565 88.1501 4.05216 86.0939 4.73247 84.9317C5.26488 84.0377 5.44236 82.6072 5.73814 81.4152C5.26488 81.445 4.85078 81.5046 4.46626 81.594C4.1409 81.6536 3.81553 81.6536 3.51975 81.594C3.43101 81.8622 3.37185 82.1304 3.3127 82.3986V82.4284C3.28312 82.488 3.28312 82.5774 3.25354 82.637C3.25354 82.6668 3.25354 82.6668 3.25354 82.6966C3.25354 82.7562 3.22396 82.8158 3.22396 82.8456C3.22396 82.8754 3.22396 82.9052 3.22396 82.935C3.22396 82.9946 3.22396 83.0245 3.19438 83.0543C3.19438 83.0841 3.19438 83.1138 3.19438 83.1138C3.19438 83.1436 3.19438 83.2032 3.19438 83.233C3.19438 83.2628 3.19438 83.2629 3.19438 83.2927C3.19438 83.3523 3.19438 83.4119 3.19438 83.4417C3.19438 83.5609 3.19438 83.6801 3.19438 83.7993C3.1648 83.9185 3.13522 84.0377 3.07607 84.1569C3.04649 84.2463 2.98733 84.3357 2.92817 84.4251C2.72112 84.8125 2.39576 85.3489 2.01124 86.1833C1.56756 87.1369 0.88725 89.6104 0.47315 91.8156C0.413992 92.1732 0.325257 92.5308 0.295678 92.8884C0.236521 93.2162 0.206942 93.544 0.177364 93.842C0.147785 94.0506 0.147785 94.2294 0.118206 94.4082C0.118206 94.4976 0.118206 94.5871 0.118206 94.6467C-0.000108022 95.0639 0.0294706 95.3619 0.0886278 95.5109Z" fill="#F162FF" />
    <path d="M31.3827 108.414L32.0039 109.934L32.418 111.365C32.418 111.365 32.7729 111.841 32.3588 112.527C31.9447 113.212 30.9095 114.285 30.8799 115.567C30.8207 116.848 31.4419 119.649 31.5306 121.437C31.6193 123.195 30.6137 124.358 29.5193 123.881C28.4249 123.434 25.0233 117.593 24.4613 115.835C23.8993 114.076 23.9585 113.451 23.4557 113.004C22.9232 112.557 22.1838 110.947 21.7697 110.024C21.3556 109.1 20.8232 108.325 21.326 107.64C21.8288 106.954 25.467 106.299 26.7685 105.405C28.0699 104.54 28.8685 103.795 29.4897 104.57C30.0813 105.405 31.3827 108.414 31.3827 108.414Z" fill="#F162FF" />
    <path opacity="0.8" d="M31.4126 108.534L31.3535 108.414C31.3535 108.414 30.052 105.405 29.4308 104.63C28.8097 103.855 28.0111 104.57 26.7096 105.464C25.4082 106.328 21.77 107.014 21.2672 107.699C20.7643 108.385 21.2967 109.13 21.7108 110.083C22.1249 111.007 22.8644 112.616 23.3968 113.063C23.9292 113.51 23.8405 114.136 24.4025 115.894C24.8166 117.206 26.8279 120.782 28.2773 122.719C27.5674 119.47 27.5378 114.434 27.5378 112.557C27.5378 110.381 28.9576 109.934 28.9576 109.934L29.283 108.057C29.283 107.997 30.7027 108.385 31.4126 108.534Z" fill="url(#paint1_radial)" />
    <path d="M34.6069 102.872C34.6069 102.872 34.1337 101.829 32.7139 102.186C31.2941 102.544 28.6616 105.405 28.1884 106.06C27.7447 106.746 27.2419 107.908 27.7447 108.772C28.2475 109.636 29.342 110.262 30.1406 110.083C30.9392 109.905 32.004 110.53 32.3885 111.365C32.3885 111.365 32.1815 110.054 33.1872 109.458C34.1928 108.861 36.8253 108.772 36.9437 107.491C37.0324 106.209 34.6069 102.872 34.6069 102.872Z" fill="#F2D611" />
    <path d="M35.021 103.438C34.7844 103.08 34.6365 102.872 34.6365 102.872C34.6365 102.872 34.1632 101.829 32.7434 102.186C31.3237 102.544 28.6912 105.405 28.2179 106.06C27.7742 106.746 27.2714 107.908 27.7742 108.772C28.0405 109.249 28.4841 109.636 28.987 109.875C29.5194 109.07 30.2589 108.206 31.1758 107.55C33.335 106.06 34.2224 106.865 34.2224 106.865C33.1871 105.345 33.3942 102.961 33.3942 102.961C33.3942 102.961 34.7548 103.497 35.021 103.438Z" fill="#E0AD0B" />
    <path d="M15.9428 82.3986C14.9372 82.041 13.9019 82.3688 13.0737 82.19C12.8667 82.1304 12.7188 82.1006 12.5709 82.0708C11.6835 81.9516 10.6778 81.594 9.96796 82.1602C9.25808 82.7264 8.57777 84.6635 8.96229 85.4979C9.37639 86.3323 11.0919 86.8389 10.7962 88.3885C10.7962 88.3885 11.6835 87.6137 12.0385 87.7031C12.3934 87.7925 13.0441 89.0739 14.1385 88.9845C15.233 88.8951 16.6527 83.7695 16.6527 83.7695C16.6527 83.7695 16.9485 82.7562 15.9428 82.3986Z" fill="#F2D611" />
    <path d="M15.7061 85.4384L14.3455 88.2099C14.3455 88.2099 13.7244 87.6735 13.8131 86.6602C13.8723 86.1536 14.3751 84.753 14.8484 83.5312C14.2864 83.3822 13.6061 83.3226 12.8074 82.9352C11.2989 82.22 10.6778 81.8624 10.6778 81.8624C10.4411 81.8922 10.2045 81.9816 10.027 82.1306C9.31716 82.6968 8.63685 84.6338 9.02137 85.4682C9.43547 86.3026 11.151 86.8093 10.8552 88.3589C10.8552 88.3589 11.7426 87.5841 12.0975 87.6735C12.4525 87.7629 13.1032 89.0443 14.1976 88.9549C14.9963 88.8953 15.9428 86.243 16.416 84.753C16.3273 84.753 16.2386 84.6934 16.1794 84.6636L15.7061 85.4384Z" fill="#E0AD0B" />
    <path d="M40.1087 80.7301C40.1087 80.7301 36.5592 87.2266 34.1042 89.9086C31.6492 92.5907 29.5195 93.1271 27.0053 92.8887C24.4911 92.6503 14.1682 88.1504 14.1682 88.1504C14.1682 88.1504 14.4048 84.7829 15.6767 83.2333C15.6767 83.2333 20.3797 84.0677 22.4502 84.0081C24.4911 83.9187 25.6447 83.3227 27.8335 84.4551C27.8335 84.4551 28.2476 78.0182 31.3534 74.4422C34.4591 70.8363 37.979 74.9786 37.979 74.9786L40.1087 80.7301Z" fill="#FFBF8F" />
    <path d="M37.979 74.9782C37.979 74.9782 34.4591 70.8658 31.3534 74.4418C28.2476 78.0477 27.8335 84.4548 27.8335 84.4548C25.6151 83.2926 24.4911 83.9184 22.4502 84.0078C20.4093 84.0972 15.6767 83.233 15.6767 83.233C14.3753 84.7528 14.1682 88.1501 14.1682 88.1501C14.1682 88.1501 24.5207 92.6798 27.0053 92.8884C28.1589 93.0076 29.2237 92.948 30.2886 92.5904C29.3125 92.3818 28.1589 92.0539 27.1236 91.5473C24.6095 90.2957 24.3137 86.6302 27.6561 86.6898C30.9984 86.7494 32.5365 79.0609 32.5365 79.0609C35.1099 79.2695 37.3283 82.2496 38.3339 83.7992C39.3692 82.0708 40.1087 80.7297 40.1087 80.7297L37.979 74.9782Z" fill="#E8A370" />
    <path d="M52.7683 83.4715C52.7683 83.4715 42.327 79.5378 42.1791 82.9648C42.0608 85.4681 43.9539 93.3056 43.9539 93.3056C41.2918 94.1102 39.3987 96.1665 37.5353 98.5803C35.6718 100.964 33.3943 102.961 33.3943 102.961C33.3943 102.961 33.7492 105.107 35.9085 107.044C35.9085 107.044 39.5171 105.434 42.5341 103.736C50.1949 99.4445 51.7922 95.9579 51.8809 95.7195C52.2063 94.8255 52.295 91.9944 52.295 91.8752C52.6795 87.9415 52.7683 83.4715 52.7683 83.4715Z" fill="#FFBF8F" />
    <path d="M42.1493 82.965C42.031 85.4682 43.9241 93.3058 43.9241 93.3058C41.262 94.1104 39.369 96.1666 37.5055 98.5805C35.6421 100.965 33.3645 102.961 33.3645 102.961C33.3645 102.961 33.5716 104.243 34.6955 105.733C35.5533 104.57 36.8252 103.021 38.452 101.352C41.8831 97.8951 45.9058 95.9282 46.6157 94.319C47.3552 92.7098 45.6396 89.7595 46.0537 87.6139C46.4678 85.4682 48.5087 85.7066 51.0525 85.7662C51.7328 85.7662 52.2652 85.796 52.6793 85.796C52.7385 84.4252 52.7385 83.5014 52.7385 83.5014C52.7385 83.5014 42.3268 79.5677 42.1493 82.965Z" fill="#E8A370" />
    <path d="M49.7807 68.452L51.8808 66.3064C51.8808 66.3064 52.2061 62.4621 50.7864 59.4225C49.3666 56.353 43.5396 51.9724 43.5396 51.9724L35.583 55.012L34.0745 61.4191L49.7807 68.452Z" fill="#E8A370" />
    <path d="M17.3035 34.3006L15.588 33.347L14.9668 34.39L14.4344 34.5092L13.9316 35.5522L13.902 35.8204L13.5175 35.88L13.2217 37.2509L13.2513 38.5025L15.233 39.4859L17.4514 37.6383L17.3035 34.3006Z" fill="#E8A370" />
    <path d="M39.6354 11.9801L39.6945 11.8907C40.0791 11.2648 40.4932 10.6092 40.8185 9.95362L40.7002 10.1324L39.9312 9.62581L40.434 8.851L41.1143 9.29801C41.1439 9.26821 41.1439 9.20861 41.1735 9.17881L40.5227 8.7318L41.0256 7.95698L41.4988 8.28479C41.4988 8.22519 41.5284 8.19539 41.5284 8.13579L41.0847 7.83778L41.5876 7.06297C41.5876 6.97357 41.5876 6.88417 41.6171 6.76496L41.558 6.85436L40.7889 6.34776L41.2918 5.57294L41.7059 5.84115C41.7059 5.78155 41.7059 5.72194 41.7059 5.69214L41.3805 5.45374L41.7059 4.97693C41.7059 4.88753 41.7059 4.79813 41.7059 4.73853L41.2918 5.36434L40.5227 4.85773L41.0256 4.08292L41.7059 4.52992C41.7059 4.44052 41.7059 4.44052 41.7059 4.44052L41.6763 4.32132L41.1143 3.93391L41.4397 3.4571L41.3805 3.2783L40.996 3.84451L40.227 3.3379L40.7298 2.56309L41.2622 2.92069L41.203 2.71209L40.8185 2.50349L40.9664 2.29488L40.8777 2.17568L40.7298 2.41409L39.9312 1.90748L40.2565 1.43067L40.1678 1.31147L39.8424 1.81808L39.0734 1.31147L39.4283 0.775057L39.31 0.685655L38.9551 1.22206L38.186 0.715456L38.4227 0.357849C38.3635 0.357849 38.3043 0.357849 38.2452 0.357849L38.0677 0.626054L37.7128 0.38765C37.624 0.38765 37.5649 0.38765 37.4761 0.38765L37.979 0.715456L37.4761 1.49027L36.7071 0.98366L37.0916 0.41745C37.0325 0.41745 36.9733 0.41745 36.9142 0.41745L36.5888 0.924059L35.9381 0.477051C35.7902 0.477051 35.7014 0.477051 35.7014 0.477051C35.7014 0.477051 35.6423 0.506852 35.5831 0.536652L35.1394 1.22206L34.7253 0.95386C34.6662 0.98366 34.6366 1.01346 34.5774 1.01346L35.0507 1.34127L34.5479 2.11608L33.7788 1.60947L33.9267 1.37107C33.838 1.40087 33.7492 1.46047 33.6901 1.49027L33.6605 1.52007H33.6309C33.5718 1.54987 33.5422 1.57967 33.483 1.57967L33.5718 1.63927L33.0689 2.41409L32.6252 2.11608C32.5957 2.14588 32.5365 2.17568 32.5069 2.20548L33.0098 2.56309L32.5069 3.3379L31.7379 2.83129L31.8266 2.71209C31.6492 2.86109 31.5013 2.9803 31.4125 3.0995L31.0576 3.63591H31.028C30.9984 3.66571 30.9688 3.72531 30.9688 3.75511L30.7322 4.11272C30.466 4.55972 30.1702 5.09613 29.904 5.63254L30.6731 6.13915L30.1702 6.91397L29.5195 6.46696C29.4899 6.49676 29.4899 6.55636 29.4603 6.58616L30.0815 7.00337L29.5491 7.74838L29.0758 7.45038C29.0462 7.50998 29.0462 7.53978 29.0167 7.56958L29.4603 7.86758L28.9575 8.6424L28.78 8.52319C28.78 8.5828 28.78 8.6424 28.78 8.6722L28.8688 8.7318L28.78 8.8808C28.78 8.9404 28.78 9.0298 28.8096 9.0894L28.9871 8.8212L29.7561 9.32781L29.2533 10.1324L28.9575 9.95362C28.9871 10.0132 28.9871 10.0728 29.0167 10.1622L29.1941 10.2814L29.1054 10.4304C29.135 10.49 29.135 10.5496 29.1646 10.6092L29.3124 10.3708L30.0815 10.8774L29.5787 11.6522L29.5195 11.6224C29.5491 11.7119 29.5787 11.7715 29.6082 11.8609L30.3773 12.3675L30.1111 12.7847C30.1406 12.8145 30.1702 12.8443 30.1998 12.9039L30.4956 12.4569L31.2646 12.9635L30.9097 13.4999L31.028 13.5893L31.3829 13.0529L32.152 13.5595L31.797 14.0959L31.9154 14.1853L32.2703 13.6489L33.0393 14.1555L32.7436 14.6025C32.8027 14.6025 32.8323 14.6323 32.8915 14.6323L33.1577 14.2151L33.9267 14.7217V14.7515C34.0154 14.7515 34.1042 14.7515 34.1929 14.7217L34.1338 14.6919L34.6366 13.9171L35.4056 14.4237L35.2873 14.5727C35.3465 14.5727 35.4056 14.5429 35.4648 14.5429L35.4944 14.4833L35.5535 14.5131C35.6127 14.5131 35.6718 14.4833 35.7606 14.4833L35.5831 14.3641L36.0859 13.5893L36.855 14.0959L36.7367 14.2747C36.7958 14.2747 36.855 14.2449 36.9142 14.2449L36.9733 14.1853L37.0325 14.2449C37.062 14.2449 37.062 14.2449 37.0916 14.2449C37.1212 14.2449 37.1804 14.2151 37.2099 14.2151L37.0325 14.0959L37.5353 13.3211L38.1565 13.7383C38.186 13.7085 38.2452 13.6787 38.2748 13.6489L37.5945 13.2019L38.0973 12.4271L38.8663 12.9337L38.541 13.4403C38.6593 13.3211 38.7776 13.2317 38.8663 13.1125C39.0438 12.8741 39.2509 12.6059 39.4579 12.3079L39.5762 12.1291C39.6058 12.0695 39.6354 12.0099 39.6354 11.9801ZM30.7026 5.99015L29.9336 5.48354L30.4364 4.70873L31.2055 5.21534L30.7026 5.99015ZM31.2942 5.09613L30.5252 4.58952L31.028 3.81471L31.797 4.32132L31.2942 5.09613ZM31.8858 4.20212L31.1167 3.69551L31.6196 2.92069L32.3886 3.4273L31.8858 4.20212ZM29.8449 9.23841L29.0758 8.7318L29.5787 7.95698L30.3477 8.46359L29.8449 9.23841ZM30.4069 8.34439L29.6378 7.83778L30.1406 7.06297L30.9097 7.56958L30.4069 8.34439ZM30.9984 7.45038L30.2294 6.94377L30.7322 6.16895L31.5013 6.67556L30.9984 7.45038ZM31.59 6.55636L30.821 6.04975L31.3238 5.27494L32.0928 5.78155L31.59 6.55636ZM32.1816 5.69214L31.4125 5.18553L31.9154 4.41072L32.6844 4.91733L32.1816 5.69214ZM32.7731 4.79813L32.0041 4.29152L32.5069 3.51671L33.276 4.02331L32.7731 4.79813ZM33.3647 3.90411L32.5957 3.3975L33.0985 2.62269L33.8676 3.1293L33.3647 3.90411ZM33.9563 3.0101L33.1872 2.50349L33.6901 1.72867L34.4591 2.23528L33.9563 3.0101ZM30.1111 10.7284L29.342 10.2218L29.8449 9.44701L30.6139 9.95362L30.1111 10.7284ZM30.7026 9.83442L29.9336 9.32781L30.4364 8.553L31.2055 9.0596L30.7026 9.83442ZM31.2942 8.9404L30.5252 8.43379L31.028 7.65898L31.797 8.16559L31.2942 8.9404ZM31.8858 8.04639L31.1167 7.53978L31.6196 6.76496L32.3886 7.27157L31.8858 8.04639ZM32.4774 7.15237L31.7083 6.64576L32.2111 5.87095L32.9802 6.37756L32.4774 7.15237ZM33.0689 6.28815L32.2999 5.78155L32.8027 5.00673L33.5718 5.51334L33.0689 6.28815ZM33.6605 5.39414L32.8915 4.88753L33.3943 4.11272L34.1633 4.61933L33.6605 5.39414ZM34.2521 4.50012L33.483 3.99351L33.9859 3.2187L34.7549 3.72531L34.2521 4.50012ZM34.8436 3.60611L34.0746 3.0995L34.5774 2.32468L35.3465 2.83129L34.8436 3.60611ZM35.4352 2.71209L34.6662 2.20548L35.169 1.43067L35.9381 1.93728L35.4352 2.71209ZM35.9972 1.84788L35.2282 1.34127L35.731 0.566453L36.5 1.07306L35.9972 1.84788ZM30.4069 12.1887L29.6378 11.6821L30.1406 10.9072L30.9097 11.4138L30.4069 12.1887ZM30.9984 11.3244L30.2294 10.8178L30.7322 10.043L31.5013 10.5496L30.9984 11.3244ZM31.59 10.4304L30.821 9.92382L31.3238 9.14901L32.0928 9.65561L31.59 10.4304ZM32.1816 9.53641L31.4125 9.0298L31.9154 8.25499L32.6844 8.7616L32.1816 9.53641ZM32.7731 8.6424L32.0041 8.13579L32.5069 7.36097L33.276 7.86758L32.7731 8.6424ZM33.3647 7.74838L32.5957 7.24177L33.0985 6.46696L33.8676 6.97357L33.3647 7.74838ZM33.9563 6.85436L33.1872 6.34776L33.6901 5.57294L34.4591 6.07955L33.9563 6.85436ZM34.5479 5.99015L33.7788 5.48354L34.2817 4.70873L35.0507 5.21534L34.5479 5.99015ZM35.1394 5.09613L34.3704 4.58952L34.8732 3.81471L35.6423 4.32132L35.1394 5.09613ZM35.7014 4.20212L34.9324 3.69551L35.4352 2.92069L36.2043 3.4273L35.7014 4.20212ZM36.293 3.3081L35.524 2.80149L36.0268 2.02668L36.7958 2.53329L36.293 3.3081ZM36.8846 2.41409L36.1155 1.90748L36.6184 1.13266L37.3874 1.63927L36.8846 2.41409ZM31.2942 12.7847L30.5252 12.2781L31.028 11.5032L31.797 12.0099L31.2942 12.7847ZM31.8858 11.8907L31.1167 11.384L31.6196 10.6092L32.3886 11.1158L31.8858 11.8907ZM32.4774 11.0264L31.7083 10.5198L32.2111 9.74502L32.9802 10.2516L32.4774 11.0264ZM33.0689 10.1324L32.2999 9.62581L32.8027 8.851L33.5718 9.35761L33.0689 10.1324ZM33.6605 9.23841L32.8915 8.7318L33.3943 7.95698L34.1633 8.46359L33.6605 9.23841ZM34.2521 8.34439L33.483 7.83778L33.9859 7.06297L34.7549 7.56958L34.2521 8.34439ZM34.8436 7.45038L34.0746 6.94377L34.5774 6.16895L35.3465 6.67556L34.8436 7.45038ZM35.4056 6.58616L34.6366 6.07955L35.1394 5.30474L35.9085 5.81135L35.4056 6.58616ZM35.9972 5.69214L35.2282 5.18553L35.731 4.41072L36.5 4.91733L35.9972 5.69214ZM36.5888 4.79813L35.8197 4.29152L36.3226 3.51671L37.0916 4.02331L36.5888 4.79813ZM37.1804 3.90411L36.4113 3.3975L36.9142 2.62269L37.6832 3.1293L37.1804 3.90411ZM37.7719 3.0101L37.0029 2.50349L37.5057 1.72867L38.2748 2.23528L37.7719 3.0101ZM38.3635 2.14588L37.5945 1.63927L38.0973 0.864458L38.8663 1.37107L38.3635 2.14588ZM32.1816 13.3807L31.4125 12.8741L31.9154 12.0993L32.6844 12.6059L32.1816 13.3807ZM32.7731 12.4867L32.0041 11.9801L32.5069 11.2052L33.276 11.7119L32.7731 12.4867ZM33.3647 11.6224L32.5957 11.1158L33.0985 10.341L33.8676 10.8476L33.3647 11.6224ZM33.9563 10.7284L33.1872 10.2218L33.6901 9.44701L34.4591 9.95362L33.9563 10.7284ZM34.5479 9.83442L33.7788 9.32781L34.2817 8.553L35.0507 9.0596L34.5479 9.83442ZM35.1099 8.9404L34.3408 8.43379L34.8436 7.65898L35.6127 8.16559L35.1099 8.9404ZM35.7014 8.04639L34.9324 7.53978L35.4352 6.76496L36.2043 7.27157L35.7014 8.04639ZM36.293 7.15237L35.524 6.64576L36.0268 5.87095L36.7958 6.37756L36.293 7.15237ZM36.8846 6.28815L36.1155 5.78155L36.6184 5.00673L37.3874 5.51334L36.8846 6.28815ZM37.4761 5.39414L36.7071 4.88753L37.2099 4.11272L37.979 4.61933L37.4761 5.39414ZM38.0677 4.50012L37.2987 3.99351L37.8015 3.2187L38.5705 3.72531L38.0677 4.50012ZM38.6593 3.60611L37.8902 3.0995L38.3931 2.32468L39.1621 2.83129L38.6593 3.60611ZM39.2509 2.71209L38.4818 2.20548L38.9847 1.43067L39.7537 1.93728L39.2509 2.71209ZM33.0689 13.9767L32.2999 13.4701L32.8027 12.6953L33.5718 13.2019L33.0689 13.9767ZM33.6605 13.0827L32.8915 12.5761L33.3943 11.8013L34.1633 12.3079L33.6605 13.0827ZM34.2521 12.1887L33.483 11.6821L33.9859 10.9072L34.7549 11.4138L34.2521 12.1887ZM34.8141 11.3244L34.045 10.8178L34.5479 10.043L35.3169 10.5496L34.8141 11.3244ZM35.4056 10.4304L34.6366 9.92382L35.1394 9.14901L35.9085 9.65561L35.4056 10.4304ZM35.9972 9.53641L35.2282 9.0298L35.731 8.25499L36.5 8.7616L35.9972 9.53641ZM36.5888 8.6424L35.8197 8.13579L36.3226 7.36097L37.0916 7.86758L36.5888 8.6424ZM37.1804 7.74838L36.4113 7.24177L36.9142 6.46696L37.6832 6.97357L37.1804 7.74838ZM37.7719 6.88417L37.0029 6.37756L37.5057 5.60274L38.2748 6.10935L37.7719 6.88417ZM38.3635 5.99015L37.5945 5.48354L38.0973 4.70873L38.8663 5.21534L38.3635 5.99015ZM38.9551 5.09613L38.186 4.58952L38.6889 3.81471L39.4579 4.32132L38.9551 5.09613ZM39.5466 4.20212L38.7776 3.69551L39.2804 2.92069L40.0495 3.4273L39.5466 4.20212ZM40.1382 3.3081L39.3692 2.80149L39.872 2.02668L40.6411 2.53329L40.1382 3.3081ZM33.9563 14.5727L33.1872 14.0661L33.6901 13.2913L34.4591 13.7979L33.9563 14.5727ZM34.5183 13.6787L33.7492 13.1721L34.2521 12.3973L35.0211 12.9039L34.5183 13.6787ZM35.1099 12.7847L34.3408 12.2781L34.8436 11.5032L35.6127 12.0099L35.1099 12.7847ZM35.7014 11.9205L34.9324 11.4138L35.4352 10.639L36.2043 11.1456L35.7014 11.9205ZM36.293 11.0264L35.524 10.5198L36.0268 9.74502L36.7958 10.2516L36.293 11.0264ZM36.8846 10.1324L36.1155 9.62581L36.6184 8.851L37.3874 9.35761L36.8846 10.1324ZM37.4761 9.23841L36.7071 8.7318L37.2099 7.95698L37.979 8.46359L37.4761 9.23841ZM38.0677 8.34439L37.2987 7.83778L37.8015 7.06297L38.5705 7.56958L38.0677 8.34439ZM38.6593 7.45038L37.8902 6.94377L38.3931 6.16895L39.1621 6.67556L38.6593 7.45038ZM39.2509 6.58616L38.4818 6.07955L38.9847 5.30474L39.7537 5.81135L39.2509 6.58616ZM39.8424 5.69214L39.0734 5.18553L39.5762 4.41072L40.3453 4.91733L39.8424 5.69214ZM40.4044 4.79813L39.6354 4.29152L40.1382 3.51671L40.9073 4.02331L40.4044 4.79813ZM35.4056 14.2747L34.6366 13.7681L35.1394 12.9933L35.9085 13.4999L35.4056 14.2747ZM35.9972 13.3807L35.2282 12.8741L35.731 12.0993L36.5 12.6059L35.9972 13.3807ZM36.5888 12.4867L35.8197 11.9801L36.3226 11.2052L37.0916 11.7119L36.5888 12.4867ZM37.1804 11.6224L36.4113 11.1158L36.9142 10.341L37.6832 10.8476L37.1804 11.6224ZM37.7719 10.7284L37.0029 10.2218L37.5057 9.44701L38.2748 9.95362L37.7719 10.7284ZM38.3635 9.83442L37.5945 9.32781L38.0973 8.553L38.8663 9.0596L38.3635 9.83442ZM38.9551 8.9404L38.186 8.43379L38.6889 7.65898L39.4579 8.16559L38.9551 8.9404ZM39.5466 8.04639L38.7776 7.53978L39.2804 6.76496L40.0495 7.27157L39.5466 8.04639ZM40.1086 7.18217L39.3396 6.67556L39.8424 5.90075L40.6115 6.40736L40.1086 7.18217ZM40.7002 6.28815L39.9312 5.78155L40.434 5.00673L41.203 5.51334L40.7002 6.28815ZM36.8846 13.9767L36.1155 13.4701L36.6184 12.6953L37.3874 13.2019L36.8846 13.9767ZM37.4761 13.0827L36.7071 12.5761L37.2099 11.8013L37.979 12.3079L37.4761 13.0827ZM38.0677 12.2185L37.2987 11.7119L37.8015 10.937L38.5705 11.4436L38.0677 12.2185ZM38.6593 11.3244L37.8902 10.8178L38.3931 10.043L39.1621 10.5496L38.6593 11.3244ZM39.2509 10.4304L38.4818 9.92382L38.9847 9.14901L39.7537 9.65561L39.2509 10.4304ZM39.8424 9.53641L39.0734 9.0298L39.5762 8.25499L40.3453 8.7616L39.8424 9.53641ZM40.4044 8.6424L39.6354 8.13579L40.1382 7.36097L40.9073 7.86758L40.4044 8.6424ZM40.996 7.74838L40.227 7.24177L40.7298 6.46696L41.4988 6.97357L40.996 7.74838ZM38.9551 12.7847L38.186 12.2781L38.6889 11.5032L39.4579 12.0099L38.9551 12.7847ZM39.5466 11.9205L38.7776 11.4138L39.2804 10.639L40.0495 11.1456L39.5466 11.9205ZM40.1086 11.0264L39.3396 10.5198L39.8424 9.74502L40.6115 10.2516L40.1086 11.0264Z" fill="#D6FFA6" />
    <path d="M40.0198 0.715383C37.0324 -1.31105 32.1519 1.16239 29.8152 4.70865C27.8039 7.74831 28.0109 11.1158 30.1997 13.2912C30.4068 13.47 30.4955 13.7382 30.5251 13.9766C30.5547 14.215 30.4955 14.4832 30.3476 14.7216L18.5753 32.4827L17.126 33.2874L18.9598 34.5092L19.1373 32.8403L30.9096 15.0792C30.9983 14.9302 31.1462 14.811 31.2941 14.7216C31.5899 14.5428 31.9449 14.5428 32.2998 14.662C35.1393 15.8839 38.3043 14.7812 40.3156 11.7416C42.6227 8.22511 43.0073 2.74182 40.0198 0.715383ZM31.5012 13.5594C28.6912 11.682 28.218 8.28472 30.318 5.09606C32.4477 1.8776 37.0028 -0.506439 39.6353 1.28159C42.2678 3.06962 41.8537 8.19531 39.6945 11.4138C37.624 14.5726 34.3111 15.4368 31.5012 13.5594Z" fill="#B643D5" />
    <path d="M18.9305 34.5052L17.1101 33.2809L12.9061 39.6259L14.7265 40.8502L18.9305 34.5052Z" fill="#E24949" />
    <path d="M14.73 40.8566L12.8962 39.6348L12.5708 39.9626L14.5821 41.3335L14.73 40.8566Z" fill="#B643D5" />
    <path d="M26.7094 44.8202L23.3079 45.9526C23.3079 45.9526 20.5867 47.9492 19.4331 48.9625C19.4035 48.2174 19.3148 47.4724 19.0782 46.9062C18.3387 44.999 18.4274 43.2408 18.6049 41.3633C18.7824 39.4859 19.581 37.9959 19.5218 36.774C19.4627 35.5522 19.0486 35.2244 18.2204 34.5688C17.3922 33.9132 16.564 33.347 16.3569 33.9132C16.1203 34.4794 17.2443 34.5688 17.3626 35.4926C17.4513 36.4164 16.4752 37.072 16.3273 38.0555C16.3273 38.0555 15.4104 39.1879 15.1146 39.8137C14.8188 40.4395 14.7005 40.8567 14.7005 40.8567C14.7005 40.8567 15.3808 41.8103 15.1442 43.1215C14.9076 44.4328 12.8666 53.3729 13.9019 55.2504C14.9371 57.1278 18.1021 56.5318 20.143 55.8464C22.036 55.3696 27.8038 51.5849 28.6912 49.7671C29.6081 47.9194 26.7094 44.8202 26.7094 44.8202Z" fill="#FFBF8F" />
    <path d="M28.6023 50.0054L25.4374 45.2671L23.3669 45.9525C23.3669 45.9525 22.657 46.4889 21.7992 47.1445C21.8288 47.1743 21.8584 47.1743 21.888 47.2041C23.8402 48.6941 24.1064 51.9424 24.1064 51.9424C24.1064 51.9424 18.4864 54.4754 17.4512 54.8032C16.3863 55.131 16.061 53.7006 15.9131 51.9424C15.7356 50.1544 16.2976 44.8797 16.5638 43.3896C16.8596 41.8996 16.0018 41.2142 16.0018 40.1116C15.9722 39.009 17.185 39.3368 17.185 39.3368C17.185 39.3368 16.8892 38.7408 16.83 37.7871C16.83 37.5189 16.8596 37.1911 16.9483 36.8931C16.7117 37.2507 16.5047 37.6381 16.4455 38.0553C16.4455 38.0553 15.5286 39.1878 15.2328 39.8136C14.937 40.4394 14.8187 40.8566 14.8187 40.8566C14.8187 40.8566 15.499 41.8102 15.2624 43.1214C15.0257 44.4327 12.9848 53.3728 14.0201 55.2502C15.0553 57.1277 18.2202 56.5317 20.2611 55.8463C21.9767 55.3694 27.36 51.9126 28.6023 50.0054Z" fill="#E8A370" />
    <path d="M16.3865 35.0754C16.3865 35.0754 16.0316 33.347 15.4104 33.2278C14.7893 33.1086 14.3752 33.8834 14.878 34.8072C15.3808 35.731 16.1499 36.178 16.3569 35.9396C16.6527 35.6416 16.3865 35.0754 16.3865 35.0754Z" fill="#FFBF8F" />
    <path d="M15.5584 35.8205C15.5584 35.8205 14.671 34.3007 14.0499 34.3901C13.4287 34.4795 13.2808 35.3735 14.0499 36.0589C14.8189 36.7741 15.6767 36.9529 15.8246 36.6251C15.9725 36.2377 15.5584 35.8205 15.5584 35.8205Z" fill="#FFBF8F" />
    <path d="M14.9668 37.0125C14.9668 37.0125 13.8132 35.6715 13.2216 35.8801C12.63 36.0887 12.63 36.9827 13.5174 37.5191C14.4048 38.0853 15.2921 38.1151 15.3513 37.7873C15.44 37.3701 14.9668 37.0125 14.9668 37.0125Z" fill="#FFBF8F" />
    <path d="M14.4343 38.3534C14.4343 38.3534 13.2807 37.0124 12.6891 37.221C12.0976 37.4296 12.0976 38.3236 12.9849 38.86C13.8723 39.4262 14.7596 39.456 14.8188 39.1282C14.9075 38.711 14.4343 38.3534 14.4343 38.3534Z" fill="#FFBF8F" />
    <path d="M72.3196 14.4832C72.0533 14.3342 72.1421 15.1388 72.2012 16.0626C72.2604 16.9864 72.0238 17.791 72.0238 17.791C72.0238 17.791 72.0533 16.3904 71.9055 15.4964C71.728 14.5726 71.2547 13.2613 70.9589 13.2911C70.6336 13.3209 70.8702 14.215 71.0477 15.1388C71.2547 16.0328 70.8998 17.0758 70.8998 17.0758C70.8998 17.0758 70.8998 15.7646 70.7223 14.8408C70.5153 13.9467 69.6575 12.3971 69.3913 12.5163C69.0955 12.6355 69.3321 13.1421 69.6575 14.0063C69.8645 14.5726 69.9533 15.556 69.9828 16.1818C69.8645 15.3176 69.4504 14.3044 69.273 13.9169C69.0659 13.4401 68.4448 12.6951 68.149 12.8143C67.8532 12.9335 68.8589 15.2282 68.7405 16.1818C68.6222 17.1354 67.3799 19.1618 67.3799 19.1618C66.9067 17.5228 65.7531 16.301 65.3982 16.5394C65.0432 16.7778 66.1968 19.1618 66.2264 19.8473C66.2264 20.2645 66.4926 21.2181 66.6996 21.9035C66.6996 21.9035 66.6996 21.9035 66.67 21.9035C66.0785 23.0657 62.7065 27.804 60.6952 29.6218C59.0388 31.1119 58.0035 32.7807 57.2641 33.8237C57.2049 33.8535 57.1162 33.9131 57.057 33.9429C56.0809 34.4495 51.2004 34.9859 51.2004 34.9859C51.2004 34.9859 52.6202 40.6778 54.602 40.6778C55.8739 40.6778 58.6247 39.3666 60.636 38.4726C60.636 38.4726 61.9966 37.5488 63.0615 36.1779C63.1206 36.1183 63.1502 36.0885 63.2093 36.0289C63.3868 35.8203 63.5643 35.6415 63.7122 35.4627C64.9545 33.9429 68.356 25.8372 69.4504 23.7511C69.8941 23.3041 71.1956 21.9631 71.6984 21.1883C72.497 19.9069 72.8815 18.387 72.9999 17.1354C73.0886 15.854 72.5858 14.6322 72.3196 14.4832Z" fill="#FFBF8F" />
    <path d="M72.9702 16.3608C72.8519 16.8972 72.1716 20.1156 71.1363 21.1289C70.0123 22.2613 69.1546 22.6785 68.7405 22.6785C68.3559 22.6785 67.7052 21.9037 67.7052 21.9037C67.7052 21.9037 67.7052 22.7083 68.4151 23.3341C68.4151 23.3341 66.877 27.3274 65.3981 29.9498C63.9191 32.5723 61.2867 35.9397 60.4289 36.4165C59.6007 36.8933 55.7555 38.7112 55.7555 38.7112C55.7555 38.7112 55.3709 35.7907 54.0695 35.2543C53.33 34.9563 52.8567 37.0423 52.6201 38.9198C53.1525 39.9032 53.8033 40.678 54.5427 40.7078C55.8146 40.7078 58.5654 39.3966 60.5768 38.5026C60.5768 38.5026 61.9374 37.5787 63.0022 36.2079C63.0614 36.1483 63.0909 36.1185 63.1501 36.0589C63.3276 35.8503 63.505 35.6715 63.6529 35.4927C64.8952 33.9729 68.2968 25.8671 69.3912 23.7811C69.8349 23.3341 71.1363 21.9931 71.6392 21.2183C72.4378 19.9368 72.8223 18.417 72.9406 17.1654C72.9998 16.8376 72.9998 16.5992 72.9702 16.3608Z" fill="#E8A370" />
    <path d="M53.0935 34.0326C53.0935 34.0326 51.3483 34.1816 49.13 34.122C48.0947 34.0922 47.0299 34.0624 46.0242 34.122C45.5509 34.0624 45.0777 34.0624 44.6044 34.1518C42.7114 34.42 39.6352 35.4928 39.6352 35.4928L31.5898 37.3703C31.5898 37.3703 28.839 38.8603 27.6559 39.7245C26.4727 40.5887 24.4022 43.39 23.0712 44.6714C21.7106 45.9528 20.6458 46.8468 20.6458 46.8468C20.6458 46.8468 23.1599 47.0256 24.5205 49.4693C25.8812 51.9129 25.3192 53.9989 25.3192 53.9989C25.3192 53.9989 30.9095 50.7209 31.5011 49.4693C31.5011 49.4693 32.8913 51.2871 33.6308 53.5519C34.3702 55.8168 32.0927 59.7207 32.0039 61.9855C32.0039 61.9855 41.6466 58.7074 47.8581 61.2703C53.5372 63.5947 53.271 65.9192 53.1822 66.3066C53.3005 65.8 54.2766 61.9855 53.2118 59.4226C52.0878 56.6512 50.9934 55.9658 50.8159 51.8831C50.6385 47.7706 50.7272 44.7906 50.3723 43.1516C50.3723 43.1516 53.3597 42.4363 54.7203 42.2277C54.9274 42.2873 55.1048 42.2873 55.2823 42.1979C55.2823 42.1681 55.6372 35.91 53.0935 34.0326Z" fill="url(#paint2_radial)" />
    <path d="M37.8606 27.1484C39.1325 24.6749 38.5705 22.3803 38.5705 22.3803C38.3634 23.3339 38.038 23.8107 38.038 23.8107C38.4226 20.5029 36.5887 17.6718 36.5887 17.6718C36.5887 17.6718 35.8197 18.387 33.9562 19.4002C32.9209 19.9665 31.442 20.1751 30.0814 20.7115C30.4955 20.1155 30.9688 19.8175 30.9688 19.8175C25.6742 21.5757 26.4728 24.9133 26.8278 25.8372C26.8573 25.9266 26.8869 26.0458 26.8869 26.1352C26.4728 26.7908 26.0883 27.9828 26.6207 29.9794C27.0052 31.4099 27.9222 32.3337 29.0166 32.8701C29.0166 32.8701 31.5308 34.1813 30.7617 36.0885C30.7617 36.0885 33.0097 35.2839 32.2998 33.5555C32.7435 33.5257 33.1576 33.4661 33.4534 33.3469C35.1393 32.7211 39.1325 30.0092 39.1325 30.0092V28.4596L37.8606 27.1484Z" fill="#5E4942" />
    <path d="M34.4293 23.2443C35.1984 23.2145 35.9379 23.5721 36.4111 24.198C36.7365 24.6152 37.121 25.092 37.2689 25.3602C37.5943 25.8668 37.5943 26.4032 38.1267 26.6416C38.6295 26.88 39.0732 27.0588 39.3394 28.0124C39.6056 28.966 40.2268 30.9925 40.0493 31.8269C39.9014 32.6613 39.0732 32.1845 38.8957 33.3169C38.7182 34.4493 38.9253 35.6116 39.2802 36.1182L39.6056 37.6678C39.6056 37.6678 38.4816 37.7274 38.0675 37.489C37.6534 37.2506 37.89 36.595 36.8844 36.6844C35.9083 36.7738 32.0039 36.5056 32.0039 36.5056C32.0039 36.5056 32.2405 34.7175 32.0039 34.0023C31.7673 33.2871 31.4419 31.9759 31.4419 31.9759C31.4419 31.9759 30.4658 31.8865 29.6968 31.0223C28.9573 30.1581 29.7559 28.966 30.6433 29.3534L31.2053 29.5024L31.4419 29.264C31.4419 29.264 31.2053 27.9528 30.6433 27.3866C30.0813 26.8204 30.4067 25.1516 30.7912 24.7344C31.856 23.5423 33.3645 23.2741 34.4293 23.2443Z" fill="#FFBF8F" />
    <path d="M39.3395 36.0888C38.955 35.5821 38.7479 34.4199 38.955 33.2875C39.1029 32.3637 39.6649 32.5127 39.9607 32.1551C39.9607 32.1551 39.3691 32.6021 37.9493 32.6915C36.9732 32.7511 34.9323 32.5723 34.0154 32.3935C33.3351 32.2743 32.5364 31.3505 32.5364 31.3505C32.5364 31.3505 32.7139 31.8869 31.5308 31.8869C31.5308 31.8869 31.8561 33.1981 32.0928 33.9133C32.3294 34.6285 32.0928 36.4166 32.0928 36.4166C32.0928 36.4166 35.9676 36.6848 36.9732 36.5954C37.9493 36.506 37.7127 37.1616 38.1564 37.4C38.5705 37.6384 39.6945 37.5788 39.6945 37.5788L39.3395 36.0888Z" fill="#E8A370" />
    <path d="M30.0222 30.0092C30.0222 30.0092 30.88 29.8304 31.2941 30.3072C31.7378 30.784 31.3828 30.9926 31.1462 30.933C30.88 30.8734 30.9096 30.5754 30.9983 30.4562C30.9983 30.4562 30.7617 30.0986 30.0222 30.0092Z" fill="#E8A370" />
    <path d="M32.1519 35.463C32.1519 35.463 32.2702 36.2676 33.0688 36.3272C33.8674 36.3868 37.269 36.0888 37.7422 36.4762C38.1859 36.8636 38.2747 37.1318 38.6592 37.3404C39.0437 37.549 39.6649 37.6384 39.6649 37.6384C39.6649 37.6384 39.5761 37.5788 39.0733 37.8172C38.5704 38.0556 38.2155 39.784 37.8901 39.6946C37.5648 39.635 34.0745 38.2046 33.2759 37.9662C32.4773 37.7576 31.8265 37.7874 31.6491 37.3106C31.442 36.8636 31.442 35.6716 32.1519 35.463Z" fill="#E24949" />
    <path d="M38.8958 34.7476C38.8958 34.7476 39.3986 34.5985 39.931 35.1052C40.4634 35.6118 41.7057 37.8468 41.262 37.7872C40.7888 37.7276 39.6648 37.6382 39.6648 37.6382C39.6648 37.6382 39.4577 36.327 39.2803 35.9694C39.0732 35.6118 38.9253 35.135 38.8958 34.7476Z" fill="#E24949" />
    <path d="M34.104 61.3893C34.104 61.3893 46.0833 59.6907 51.8808 66.2766C51.8808 66.2766 54.2175 77.422 54.5428 85.945C54.5428 85.945 46.1721 82.5477 41.3508 86.6602L40.1085 82.5179L38.8662 84.7529C38.8662 84.7529 38.5408 80.0445 34.7843 78.2862C30.6433 76.3492 26.4136 78.7034 26.4136 78.7034C26.4136 78.7034 28.4841 73.2797 30.4363 69.5845C32.3885 65.8892 33.4533 62.9986 34.104 61.3893Z" fill="#434C51" />
    <path d="M37.5649 61.2104C35.4944 61.2104 34.1042 61.4191 34.1042 61.4191C33.4535 62.9985 32.4182 65.8891 30.4661 69.6142C28.5139 73.3393 26.4434 78.7332 26.4434 78.7332C26.4434 78.7332 30.3477 76.5577 34.3113 78.1074C34.1338 76.7067 34.1042 74.9485 34.8141 73.6075C36.1747 70.985 31.8267 73.6075 33.276 69.495C33.9859 67.3494 35.8789 63.9819 37.5649 61.2104Z" fill="#4E5053" />
    <path d="M52.2949 68.3923C52.0583 67.0811 51.8808 66.3063 51.8808 66.3063C46.0834 59.7204 34.1041 61.419 34.1041 61.419C33.8675 61.9554 33.6012 62.6706 33.2759 63.505C36.6478 63.3262 46.113 63.3858 52.2949 68.3923Z" fill="#4E5053" />
    <path d="M21.2964 107.67C20.7936 108.355 21.326 109.1 21.7401 110.054C22.1542 110.978 22.8937 112.587 23.4261 113.034C23.9585 113.481 23.8698 114.107 24.4318 115.865C24.9938 117.623 28.3953 123.434 29.4897 123.911C29.9926 124.12 30.4954 124 30.8503 123.613C29.6672 122.361 28.0995 119.59 27.3896 118.13C26.591 116.491 25.8516 114.345 25.5558 113.034C25.26 111.723 23.9289 110.203 23.3965 108.862C23.1303 108.206 23.0416 107.491 23.012 106.895C22.2134 107.133 21.5035 107.401 21.2964 107.67Z" fill="#E5FACF" />
    <path d="M24.5501 116.163C24.5797 116.252 24.6093 116.341 24.6684 116.431C24.698 116.52 24.7572 116.639 24.8163 116.759C24.8163 116.788 24.8459 116.818 24.8459 116.848C24.9051 116.967 24.9642 117.086 25.0234 117.206C25.0825 117.325 25.1417 117.444 25.2009 117.593C25.2304 117.623 25.2304 117.653 25.26 117.682C25.3192 117.802 25.4079 117.951 25.4671 118.07C25.5558 118.219 25.615 118.338 25.7037 118.487C25.7333 118.517 25.7333 118.547 25.7629 118.576C25.9107 118.874 26.0882 119.172 26.2657 119.47C26.2953 119.5 26.2953 119.53 26.3248 119.56C26.5023 119.858 26.6798 120.156 26.8573 120.454C26.8868 120.484 26.8868 120.513 26.9164 120.513C27.0939 120.811 27.2714 121.109 27.4784 121.378C27.4784 121.407 27.508 121.407 27.508 121.437C27.6855 121.705 27.8629 121.974 28.0404 122.242C28.0404 122.272 28.07 122.272 28.07 122.301C28.1587 122.421 28.2475 122.54 28.3362 122.659C28.0996 121.527 27.9221 120.186 27.8038 118.845C27.6559 118.576 27.5376 118.338 27.4193 118.1C26.6206 116.461 25.8812 114.315 25.5854 113.004C25.2896 111.692 23.9586 110.173 23.4261 108.832C23.1599 108.176 23.0712 107.461 23.0416 106.865C22.6275 107.014 22.243 107.133 21.9176 107.282C21.8289 107.312 21.7697 107.342 21.7106 107.371C21.6514 107.401 21.5923 107.431 21.5627 107.461C21.5627 107.461 21.5627 107.461 21.5331 107.461C21.474 107.491 21.4444 107.52 21.4148 107.55C21.4148 107.55 21.4148 107.55 21.3852 107.58C21.3556 107.61 21.3261 107.64 21.2965 107.669C21.0303 108.057 21.0599 108.444 21.2373 108.921C21.2669 109.01 21.3261 109.13 21.3556 109.219C21.3852 109.279 21.4148 109.338 21.4148 109.368C21.5035 109.577 21.6218 109.815 21.7402 110.053C22.036 110.709 22.4501 111.663 22.8642 112.348C22.8937 112.408 22.9529 112.467 22.9825 112.527C23.1304 112.765 23.2783 112.944 23.3966 113.033C23.6036 113.212 23.6924 113.391 23.8107 113.659C23.8402 113.689 23.8402 113.749 23.8698 113.808C23.929 114.017 23.9881 114.225 24.0473 114.523C24.136 114.881 24.2543 115.328 24.4318 115.864C24.4614 115.924 24.491 116.014 24.5206 116.103C24.5206 116.133 24.5501 116.133 24.5501 116.163Z" fill="#F162FF" />
    <path d="M19.4627 48.9625C19.4627 48.9625 19.6106 50.2141 19.1965 51.2273C19.1965 51.2273 19.9064 49.9161 19.8768 48.6049L19.4627 48.9625Z" fill="#E8A370" />
    <path d="M68.5337 19.6983C68.5337 19.6983 70.0718 19.1619 70.9 19.6983C70.9296 19.6983 69.8352 18.5659 68.5337 19.6983Z" fill="#E8A370" />
    <path d="M57.0571 33.9133C57.0571 33.9133 58.2403 33.4662 59.4234 35.0457C59.4234 35.0457 59.453 33.9133 57.5008 33.4662L57.0571 33.9133Z" fill="#E8A370" />
    <path d="M40.1382 82.5476C40.1382 82.5476 44.9299 79.7762 47.03 75.4253C47.03 75.4253 46.2314 79.0014 46.2314 81.5642C46.2314 84.1271 46.7342 84.6635 46.7342 84.6635C46.7342 84.6635 42.534 85.1701 41.3805 86.6601L40.1382 82.5476Z" fill="#4E5053" />
    <path d="M30.7911 27.3869C30.7024 26.9995 30.6136 26.4035 30.6728 25.9863C30.7615 25.2711 31.501 24.3175 33.187 23.5129C33.3645 23.4235 33.5419 23.3639 33.7194 23.3043C32.7729 23.4235 31.6489 23.7811 30.8799 24.6751C30.4953 25.0923 30.17 26.7611 30.732 27.3273C30.732 27.3273 30.7615 27.3571 30.7911 27.3869Z" fill="#E8A370" />
    <path d="M48.9526 38.264C50.0766 39.6646 50.402 43.0917 50.402 43.0917C50.402 43.0917 53.3894 42.3765 54.75 42.1679C54.9571 42.2275 55.1346 42.2275 55.312 42.1381C55.312 42.1381 55.4008 40.7076 55.1937 39.009C54.0697 39.5156 51.7922 40.4096 51.2006 39.456C50.402 38.2044 48.9526 38.264 48.9526 38.264Z" fill="#FFD79D" />
    <path d="M31.5012 49.4691C31.5012 49.4691 32.8913 51.2869 33.6308 53.5517C34.3703 55.8166 32.0927 59.7205 32.004 61.9853C32.004 61.9853 35.1689 60.9125 39.0437 60.4655C37.6535 59.6907 36.0267 58.439 36.2337 57.0086C36.5887 54.5352 37.1507 53.6114 35.583 51.9425C34.0153 50.2737 34.3999 48.4559 34.0745 46.6976C33.7491 44.9394 32.0336 43.1514 32.0336 43.1514C31.9153 45.5652 30.9392 47.3234 29.6081 48.6049C28.8391 49.3201 26.7094 50.0651 25.0234 50.5717C25.7037 52.5087 25.3488 53.9988 25.3488 53.9988C25.3488 53.9988 30.9096 50.7505 31.5012 49.4691Z" fill="#FFD79D" />
    <path d="M48.0597 11.8486L48.897 9.6507L48.538 9.51189L47.7007 11.7098L48.0597 11.8486Z" fill="#F24141" />
    <path d="M48.0399 11.8679L48.2307 11.3671L47.8717 11.2282L47.6809 11.729L48.0399 11.8679Z" fill="#D33333" />
    <path d="M47.6815 11.7114C46.9716 11.3836 46.5575 10.6982 46.7941 10.1022C47.0308 9.50615 47.7998 9.26775 48.5393 9.50615L47.6815 11.7114ZM50.6689 14.1848C51.0239 14.1252 50.876 13.6484 50.876 13.6484C50.876 13.6484 51.2901 13.9762 51.4971 13.708C51.7042 13.3802 51.2901 13.0822 51.2901 13.0822C51.2901 13.0822 51.8225 13.2014 51.9112 12.9034C52.0295 12.6054 51.5267 12.3372 51.5267 12.3372C52.0591 12.5458 52.2366 12.218 52.2366 12.218C52.2366 12.218 52.3253 11.8604 51.7929 11.6518C51.7929 11.6518 52.3549 11.771 52.4436 11.473C52.562 11.175 52.0887 10.9068 52.0887 10.9068C52.0887 10.9068 52.6211 10.9664 52.6803 10.579C52.7394 10.2512 52.207 10.1916 52.207 10.1916C52.207 10.1916 52.6211 9.95316 52.4141 9.65516C52.207 9.35715 51.3492 9.62535 50.876 9.74456C50.0478 9.92336 49.5449 9.83396 48.9238 9.62535L48.5097 10.728L48.0956 11.8306C48.6872 12.0988 49.1308 12.3372 49.6041 13.0524C49.8407 13.4696 50.314 14.2444 50.6689 14.1848Z" fill="#F0BAFF" />
    <path d="M47.6809 11.7116C47.0006 11.4136 46.616 10.7878 46.7344 10.2513C46.971 10.5791 47.3259 10.9368 47.8583 11.2348L47.6809 11.7116ZM48.2429 11.3838L48.0654 11.8606C48.657 12.1288 49.1007 12.3672 49.5739 13.0824C49.8401 13.4698 50.3134 14.2446 50.6683 14.185C51.0233 14.1254 50.8754 13.6486 50.8754 13.6486C50.8754 13.6486 51.2895 13.9764 51.4965 13.7082C50.7275 11.7712 48.2429 11.3838 48.2429 11.3838Z" fill="#F0BAFF" />
  </g>
  <defs>
    <radialGradient id="paint0_radial" cx="0" cy="0" r="1" gradientUnits="userSpaceOnUse" gradientTransform="translate(-8.30478 53.067) rotate(71.0324) scale(56.8212 51.8789)">
      <stop stop-color="#FB72AD" />
      <stop offset="1" stop-color="#B643D5" />
    </radialGradient>
    <radialGradient id="paint1_radial" cx="0" cy="0" r="1" gradientUnits="userSpaceOnUse" gradientTransform="translate(14.5617 69.3025) rotate(77.7279) scale(68.0175 41.9614)">
      <stop stop-color="#FB72AD" />
      <stop offset="1" stop-color="#B643D5" />
    </radialGradient>
    <radialGradient id="paint2_radial" cx="0" cy="0" r="1" gradientUnits="userSpaceOnUse" gradientTransform="translate(-1.12094 -27.288) rotate(67.429) scale(126.115 132.768)">
      <stop stop-color="#FB72AD" />
      <stop offset="1" stop-color="#B643D5" />
    </radialGradient>
    <clipPath id="clip0">
      <path d="M0 0H73V124H0V0Z" fill="white" />
    </clipPath>
  </defs>
</svg>