<svg width="241" height="251" viewBox="0 0 241 251" fill="none" xmlns="http://www.w3.org/2000/svg">
<g opacity="0.1">
<path d="M125.504 154.874C103.159 154.874 85.0451 136.972 85.0451 114.887C85.0451 92.8032 103.159 74.9004 125.504 74.9004C147.849 74.9004 165.964 92.8032 165.964 114.887C165.964 136.972 147.849 154.874 125.504 154.874Z" fill="white" stroke="#090909" stroke-width="1.782"/>
<path d="M59.758 1C82.522 1 100.976 18.9028 100.976 40.987C100.976 49.1332 98.465 56.7103 94.1531 63.0299C102.735 71.201 108.056 82.5722 108.056 95.1467C108.056 120.026 87.2248 140.195 61.5281 140.195C35.8313 140.195 15 120.026 15 95.1467C15 83.5982 19.4882 73.0647 26.868 65.0921C21.6412 58.3904 18.5402 50.04 18.5402 40.987C18.5402 18.9028 36.994 1 59.758 1Z" fill="white" stroke="#090909" stroke-width="1.782"/>
<path fill-rule="evenodd" clip-rule="evenodd" d="M61.7809 68.6016H62.2866C62.8452 68.6016 63.2981 69.0548 63.2981 69.6139V163.112L60.7694 164.248V69.6139C60.7694 69.0548 61.2223 68.6016 61.7809 68.6016Z" fill="#090909"/>
<path fill-rule="evenodd" clip-rule="evenodd" d="M126.01 107.351H126.516C127.074 107.351 127.527 107.804 127.527 108.363V167.42L124.999 167.988V108.363C124.999 107.804 125.451 107.351 126.01 107.351Z" fill="#090909"/>
<path d="M67.0684 162.973C75.4224 162.973 82.1946 169.814 82.1946 178.253C82.1946 178.438 82.1939 178.624 82.192 178.812C83.2065 178.45 84.2984 178.253 85.4359 178.253C89.1754 178.253 92.4219 180.385 94.0488 183.511C95.0562 182.846 96.259 182.46 97.5507 182.46C98.9289 182.46 100.206 182.9 101.253 183.648C101.595 178.811 105.57 174.994 110.424 174.994C112.355 174.994 114.146 175.598 115.625 176.63C117.279 171.352 122.147 167.528 127.895 167.528C135.005 167.528 140.769 173.378 140.769 180.594C140.769 180.752 140.768 180.912 140.766 181.072C141.63 180.762 142.559 180.594 143.527 180.594C148.098 180.594 151.803 184.354 151.803 188.993C151.803 190.585 151.366 192.074 150.608 193.343L92.749 193.343C92.7488 193.343 92.7487 193.343 92.7485 193.343L25.9358 193.343C24.6437 191.972 23.8506 190.117 23.8506 188.075C23.8506 183.856 27.2367 180.435 31.4137 180.435C33.0332 180.435 34.5337 180.95 35.7635 181.825C36.1656 176.168 40.8367 171.704 46.5399 171.704C48.8081 171.704 50.913 172.41 52.6507 173.617C54.5938 167.445 60.3141 162.973 67.0684 162.973Z" stroke="#090909" stroke-width="1.782"/>
<path d="M41.0076 96.0469C42.8 108.322 49.687 115.221 61.6685 116.744" stroke="#090909" stroke-width="3.564" stroke-linecap="round" stroke-linejoin="round"/>
<path d="M47.9365 68.6016C47.8183 77.8504 52.1149 83.0248 60.8264 84.1248" stroke="#090909" stroke-width="3.564" stroke-linecap="round" stroke-linejoin="round"/>
<path d="M78.676 77.4873C78.676 91.5472 73.0193 99.3835 61.706 100.996" stroke="#090909" stroke-width="3.564" stroke-linecap="round" stroke-linejoin="round"/>
<path d="M109.209 117.869C110.768 127.52 116.387 132.957 126.067 134.179" stroke="#090909" stroke-width="3.564" stroke-linecap="round" stroke-linejoin="round"/>
<path d="M139.005 105.38C138.899 116.101 134.652 121.989 126.263 123.042" stroke="#090909" stroke-width="3.564" stroke-linecap="round" stroke-linejoin="round"/>
</g>
<g opacity="0.4">
<path d="M70.185 169.94H65.339V192.622H70.185V169.94Z" fill="#090909" stroke="#090909" stroke-width="1.782"/>
<path d="M168.531 169.94H163.685V192.622H168.531V169.94Z" fill="#090909" stroke="#090909" stroke-width="1.782"/>
<path d="M69.6623 136.561H66.2416V169.085H69.6623V136.561Z" fill="#090909" stroke="#090909" stroke-width="1.782"/>
<path d="M168.009 136.561H164.588V169.085H168.009V136.561Z" fill="#090909" stroke="#090909" stroke-width="1.782"/>
<path d="M180.836 133.137H53.4138V138.7H180.836V133.137Z" fill="white" stroke="#090909" stroke-width="1.782"/>
<path d="M180.836 143.836H53.4138V149.399H180.836V143.836Z" fill="white" stroke="#090909" stroke-width="1.782"/>
<path d="M180.836 154.534H53.4138V160.098H180.836V154.534Z" fill="white" stroke="#090909" stroke-width="1.782"/>
<path d="M187.25 168.656H47V170.796H187.25V168.656Z" fill="white" stroke="#090909" stroke-width="1.782"/>
<path d="M67.952 136.988C68.4243 136.988 68.8072 136.605 68.8072 136.132C68.8072 135.66 68.4243 135.276 67.952 135.276C67.4797 135.276 67.0968 135.66 67.0968 136.132C67.0968 136.605 67.4797 136.988 67.952 136.988Z" fill="#090909"/>
<path d="M166.298 136.988C166.771 136.988 167.153 136.605 167.153 136.132C167.153 135.66 166.771 135.276 166.298 135.276C165.826 135.276 165.443 135.66 165.443 136.132C165.443 136.605 165.826 136.988 166.298 136.988Z" fill="#090909"/>
<path d="M166.298 147.687C166.771 147.687 167.153 147.304 167.153 146.831C167.153 146.359 166.771 145.976 166.298 145.976C165.826 145.976 165.443 146.359 165.443 146.831C165.443 147.304 165.826 147.687 166.298 147.687Z" fill="#090909"/>
<path d="M166.298 158.386C166.771 158.386 167.153 158.002 167.153 157.53C167.153 157.057 166.771 156.674 166.298 156.674C165.826 156.674 165.443 157.057 165.443 157.53C165.443 158.002 165.826 158.386 166.298 158.386Z" fill="#090909"/>
<path d="M67.952 147.687C68.4243 147.687 68.8072 147.304 68.8072 146.831C68.8072 146.359 68.4243 145.976 67.952 145.976C67.4797 145.976 67.0968 146.359 67.0968 146.831C67.0968 147.304 67.4797 147.687 67.952 147.687Z" fill="#090909"/>
<path d="M67.952 157.958C68.4243 157.958 68.8072 157.575 68.8072 157.102C68.8072 156.629 68.4243 156.246 67.952 156.246C67.4797 156.246 67.0968 156.629 67.0968 157.102C67.0968 157.575 67.4797 157.958 67.952 157.958Z" fill="#090909"/>
<path fill-rule="evenodd" clip-rule="evenodd" d="M223.304 48.4971L222.033 188.593H227.053L224.771 48.4971H223.304Z" stroke="#090909" stroke-width="1.782"/>
<path fill-rule="evenodd" clip-rule="evenodd" d="M217.395 38.1104L220.069 48.158C220.122 48.358 220.303 48.4972 220.51 48.4972H227.663C227.87 48.4972 228.051 48.358 228.104 48.158L230.779 38.1104C230.843 37.8667 230.699 37.6165 230.455 37.5515C230.417 37.5413 230.377 37.5361 230.338 37.5361H217.835C217.583 37.5361 217.379 37.7406 217.379 37.9928C217.379 38.0325 217.384 38.0721 217.395 38.1104Z" fill="#B643D5" stroke="#090909" stroke-width="1.782"/>
<path fill-rule="evenodd" clip-rule="evenodd" d="M217.242 34.9456V37.079C217.242 37.2051 217.344 37.3074 217.47 37.3074H230.703C230.829 37.3074 230.932 37.2051 230.932 37.079V34.9417C230.932 34.8959 230.918 34.8512 230.892 34.8133C228.711 31.6044 226.48 30 224.199 30C221.918 30 219.613 31.6038 217.285 34.8113C217.257 34.8503 217.242 34.8973 217.242 34.9456Z" fill="#090909"/>
<path fill-rule="evenodd" clip-rule="evenodd" d="M222.288 37.9639L222.716 47.8068H222.288L219.295 37.9639H222.288Z" fill="#DA5BC1"/>
<path fill-rule="evenodd" clip-rule="evenodd" d="M220.409 48.4971H227.764C227.89 48.4971 227.992 48.5993 227.992 48.7254C227.992 48.7953 227.96 48.8614 227.906 48.9047L224.086 51.9224L220.267 48.9047C220.168 48.8265 220.151 48.6829 220.23 48.5839C220.273 48.5291 220.339 48.4971 220.409 48.4971Z" fill="#090909"/>
<path d="M216.557 37.1934H231.388" stroke="black" stroke-width="1.782" stroke-linecap="round"/>
<path fill-rule="evenodd" clip-rule="evenodd" d="M220.967 130.764H227.626C228.25 130.764 228.758 131.265 228.767 131.889L229.641 192.817H218.952L219.826 131.889C219.835 131.265 220.343 130.764 220.967 130.764Z" fill="#090909" stroke="#090909" stroke-width="1.782"/>
</g>
<path d="M95.9126 41.8125C100.807 48.9491 114.895 62.8154 132.087 61.1874" stroke="black" stroke-linecap="round"/>
<path d="M1 147.024C5.89463 154.161 19.9821 168.027 37.1748 166.399" stroke="black" stroke-linecap="round"/>
<path d="M96.4644 50.2402C98.6675 54.1317 105.305 61.8959 114.229 61.8209" stroke="black" stroke-linecap="round"/>
<path d="M1.55176 155.452C3.75492 159.344 10.3922 167.108 19.316 167.033" stroke="black" stroke-linecap="round"/>
<path d="M68.0878 235.624V242.272L63.6958 235.624H62.6038V244H63.6958V237.34L68.0878 244H69.1798V235.624H68.0878ZM77.4913 240.7C77.4913 238.624 76.0393 237.316 74.1673 237.316C72.3073 237.316 70.8433 238.624 70.8433 240.7C70.8433 242.788 72.2593 244.108 74.1193 244.108C75.9913 244.108 77.4913 242.788 77.4913 240.7ZM71.9593 240.7C71.9593 239.044 73.0033 238.264 74.1553 238.264C75.2833 238.264 76.3753 239.044 76.3753 240.7C76.3753 242.368 75.2593 243.148 74.1193 243.148C72.9793 243.148 71.9593 242.368 71.9593 240.7ZM92.0383 244H93.1183V240.124C93.1183 238.24 91.9543 237.304 90.4543 237.304C89.4463 237.304 88.5103 237.82 88.1263 238.768C87.6943 237.784 86.7943 237.304 85.7143 237.304C84.8503 237.304 84.0703 237.676 83.6383 238.372V237.424H82.5463V244H83.6383V240.376C83.6383 238.96 84.3943 238.252 85.4983 238.252C86.5783 238.252 87.2983 238.936 87.2983 240.28V244H88.3783V240.376C88.3783 238.96 89.1343 238.252 90.2383 238.252C91.3183 238.252 92.0383 238.936 92.0383 240.28V244ZM101.36 240.7C101.36 238.624 99.9076 237.316 98.0356 237.316C96.1756 237.316 94.7116 238.624 94.7116 240.7C94.7116 242.788 96.1276 244.108 97.9876 244.108C99.8596 244.108 101.36 242.788 101.36 240.7ZM95.8276 240.7C95.8276 239.044 96.8716 238.264 98.0236 238.264C99.1516 238.264 100.244 239.044 100.244 240.7C100.244 242.368 99.1276 243.148 97.9876 243.148C96.8476 243.148 95.8276 242.368 95.8276 240.7ZM102.225 237.424L104.805 244H106.077L108.657 237.424H107.493L105.453 242.992L103.401 237.424H102.225ZM109.942 244H111.034V237.424H109.942V244ZM110.506 236.356C110.902 236.356 111.226 236.032 111.226 235.612C111.226 235.192 110.902 234.868 110.506 234.868C110.086 234.868 109.762 235.192 109.762 235.612C109.762 236.032 110.086 236.356 110.506 236.356ZM117.917 244H118.997V240.124C118.997 238.24 117.833 237.304 116.309 237.304C115.421 237.304 114.629 237.676 114.197 238.36V237.424H113.105V244H114.197V240.364C114.197 238.948 114.965 238.252 116.081 238.252C117.185 238.252 117.917 238.936 117.917 240.28V244ZM120.583 240.688C120.583 242.728 121.939 244.108 123.703 244.108C124.903 244.108 125.755 243.472 126.151 242.764V244.144C126.151 245.548 125.275 246.292 124.111 246.292C123.031 246.292 122.251 245.752 122.011 244.96H120.931C121.147 246.364 122.383 247.24 124.111 247.24C126.043 247.24 127.255 245.956 127.255 244.144V237.424H126.151V238.624C125.767 237.916 124.903 237.316 123.703 237.316C121.939 237.316 120.583 238.636 120.583 240.688ZM126.151 240.7C126.151 242.248 125.119 243.148 123.919 243.148C122.719 243.148 121.699 242.236 121.699 240.688C121.699 239.14 122.719 238.264 123.919 238.264C125.119 238.264 126.151 239.176 126.151 240.7ZM133.811 240.424C133.811 238.9 134.603 238.432 135.647 238.432H135.935V237.304C134.891 237.304 134.183 237.76 133.811 238.492V237.424H132.719V244H133.811V240.424ZM140.202 238.24C141.33 238.24 142.29 238.948 142.278 240.232H138.126C138.246 238.948 139.134 238.24 140.202 238.24ZM143.274 241.972H142.098C141.858 242.68 141.234 243.184 140.25 243.184C139.134 243.184 138.198 242.452 138.114 241.12H143.37C143.394 240.892 143.406 240.7 143.406 240.46C143.406 238.66 142.158 237.316 140.25 237.316C138.33 237.316 136.998 238.624 136.998 240.7C136.998 242.788 138.378 244.108 140.25 244.108C141.882 244.108 142.938 243.172 143.274 241.972ZM144.649 240.688C144.649 242.728 146.005 244.108 147.745 244.108C148.969 244.108 149.845 243.46 150.217 242.788V247.12H151.321V237.424H150.217V238.624C149.845 237.94 148.981 237.316 147.781 237.316C146.005 237.316 144.649 238.636 144.649 240.688ZM150.217 240.7C150.217 242.248 149.185 243.148 147.985 243.148C146.785 243.148 145.765 242.236 145.765 240.688C145.765 239.14 146.785 238.264 147.985 238.264C149.185 238.264 150.217 239.176 150.217 240.7ZM159.209 237.424H158.117V241.036C158.117 242.452 157.361 243.148 156.233 243.148C155.129 243.148 154.397 242.464 154.397 241.132V237.424H153.317V241.276C153.317 243.16 154.505 244.096 156.017 244.096C156.893 244.096 157.697 243.712 158.117 243.028V244H159.209V237.424ZM164.059 238.24C165.187 238.24 166.147 238.948 166.135 240.232H161.983C162.103 238.948 162.991 238.24 164.059 238.24ZM167.131 241.972H165.955C165.715 242.68 165.091 243.184 164.107 243.184C162.991 243.184 162.055 242.452 161.971 241.12H167.227C167.251 240.892 167.263 240.7 167.263 240.46C167.263 238.66 166.015 237.316 164.107 237.316C162.187 237.316 160.855 238.624 160.855 240.7C160.855 242.788 162.235 244.108 164.107 244.108C165.739 244.108 166.795 243.172 167.131 241.972ZM173.642 242.212C173.594 239.86 169.778 240.712 169.778 239.152C169.778 238.624 170.258 238.24 171.062 238.24C171.938 238.24 172.442 238.72 172.49 239.38H173.582C173.51 238.096 172.55 237.316 171.098 237.316C169.634 237.316 168.686 238.144 168.686 239.152C168.686 241.6 172.574 240.748 172.574 242.212C172.574 242.752 172.094 243.184 171.23 243.184C170.306 243.184 169.742 242.704 169.682 242.068H168.554C168.626 243.268 169.706 244.108 171.242 244.108C172.694 244.108 173.642 243.292 173.642 242.212ZM175.634 242.2C175.634 243.52 176.294 244 177.458 244H178.442V243.076H177.638C176.966 243.076 176.726 242.848 176.726 242.2V238.324H178.442V237.424H176.726V235.768H175.634V237.424H174.782V238.324H175.634V242.2ZM184.703 242.212C184.655 239.86 180.839 240.712 180.839 239.152C180.839 238.624 181.319 238.24 182.123 238.24C182.999 238.24 183.503 238.72 183.551 239.38H184.643C184.571 238.096 183.611 237.316 182.159 237.316C180.695 237.316 179.747 238.144 179.747 239.152C179.747 241.6 183.635 240.748 183.635 242.212C183.635 242.752 183.155 243.184 182.291 243.184C181.367 243.184 180.803 242.704 180.743 242.068H179.615C179.687 243.268 180.767 244.108 182.303 244.108C183.755 244.108 184.703 243.292 184.703 242.212Z" fill="#4E5053"/>
</svg>
