<svg width="154" height="105" viewBox="0 0 154 105" fill="none" xmlns="http://www.w3.org/2000/svg">
<path d="M154 20.1741C154 20.2096 147.551 20.2804 139.616 20.2804C131.681 20.2804 125.231 20.245 125.231 20.1741C125.231 20.1387 131.681 20.0679 139.616 20.0679C147.551 20.0679 154 20.1033 154 20.1741Z" fill="#263238"/>
<path d="M144.869 21.8387C144.869 21.8741 138.42 21.9449 130.485 21.9449C122.55 21.9449 116.1 21.9095 116.1 21.8387C116.1 21.8033 122.55 21.7324 130.485 21.7324C138.456 21.7678 144.869 21.8033 144.869 21.8387Z" fill="#263238"/>
<path d="M93.0559 93.3382C93.0559 93.3736 86.1716 93.4445 77.693 93.4445C69.2144 93.4445 62.3301 93.409 62.3301 93.3382C62.3301 93.3028 69.2144 93.2319 77.693 93.2319C86.1716 93.2319 93.0559 93.2674 93.0559 93.3382Z" fill="#263238"/>
<path d="M78.3449 95.6038C78.3449 95.6392 73.1635 95.7101 66.7864 95.7101C60.4094 95.7101 55.228 95.6747 55.228 95.6038C55.228 95.533 60.4094 95.4976 66.7864 95.4976C73.1997 95.4976 78.3449 95.533 78.3449 95.6038Z" fill="#263238"/>
<path d="M86.1345 58.8452L58.8508 69.7879C56.9305 70.567 55.2637 71.8773 54.1043 73.5772L38.3428 96.6667L45.0097 100.491C45.0097 100.491 60.8074 81.8285 62.5104 79.7037C62.5104 79.7037 87.7288 75.5957 88.9969 75.2416C95.1566 73.5064 95.9175 68.3006 95.9175 68.3006L86.1345 58.8452Z" fill="#B78876"/>
<path d="M37.4734 97.7999L42.7997 90.186L50.0101 94.6127L43.8142 101.943L37.4734 97.7999Z" fill="#EBEBEB"/>
<path d="M49.0325 95.6757C49.0325 95.6757 48.9962 95.6757 48.96 95.6403C48.8875 95.6048 48.8151 95.5694 48.7426 95.534C48.5614 95.4278 48.3078 95.2861 47.9817 95.1091C47.3295 94.7549 46.4237 94.2237 45.4816 93.6217C44.5033 93.0197 43.6699 92.4531 43.054 91.9927C42.7641 91.7802 42.5105 91.6032 42.3293 91.4615C42.2568 91.4261 42.1844 91.3553 42.1481 91.3199C42.1119 91.2845 42.0757 91.2845 42.0757 91.249C42.0757 91.2136 42.1119 91.249 42.1481 91.2845C42.2206 91.3199 42.2931 91.3553 42.3293 91.4261C42.5467 91.5678 42.7641 91.7448 43.054 91.9219C43.6699 92.3469 44.5033 92.9135 45.4816 93.5155C46.4599 94.1175 47.3295 94.6487 47.9817 95.0028C48.2716 95.1799 48.5252 95.3215 48.7426 95.4278C48.8151 95.4632 48.8875 95.4986 48.96 95.534C48.9962 95.6402 49.0325 95.6757 49.0325 95.6757Z" fill="#E8505B"/>
<path d="M48.7417 96.101C48.7417 96.101 48.7055 96.101 48.6692 96.0655C48.5968 96.0301 48.5243 95.9947 48.4518 95.9593C48.2707 95.8531 48.017 95.7114 47.6909 95.5343C47.0387 95.1802 46.1329 94.649 45.1908 94.047C44.2125 93.445 43.3792 92.8784 42.7632 92.418C42.4733 92.2055 42.2197 92.0284 42.0385 91.8868C41.9661 91.8514 41.8936 91.7806 41.8574 91.7451C41.8211 91.7097 41.7849 91.7097 41.7849 91.6743C41.7849 91.6743 41.8211 91.6743 41.8574 91.7097C41.9298 91.7451 42.0023 91.7806 42.0385 91.8514C42.2559 91.993 42.4733 92.1701 42.7632 92.3472C43.3792 92.7721 44.2125 93.3387 45.1908 93.9408C46.1691 94.5428 47.0387 95.074 47.6909 95.4281C47.9808 95.6052 48.2344 95.7468 48.4518 95.8531C48.5243 95.8885 48.5968 95.9239 48.6692 95.9593C48.7055 96.101 48.7417 96.101 48.7417 96.101Z" fill="#E8505B"/>
<path d="M37.3647 97.5877C39.6474 99.1813 41.7489 100.633 44.1766 101.519L42.5823 103.785L42.1475 103.537C40.2634 102.404 32.7268 97.6585 31.7848 96.4899C30.734 95.1442 37.3647 97.5877 37.3647 97.5877Z" fill="#F162FF"/>
<path d="M42.8 103.68C42.8 103.68 42.7638 103.645 42.6913 103.609C42.5826 103.538 42.4739 103.467 42.3652 103.397C42.0391 103.184 41.6406 102.936 41.1333 102.653C40.1188 102.016 38.7057 101.095 37.1839 100.068C35.6621 99.0408 34.2852 98.0493 33.3069 97.341C32.8359 96.9869 32.4735 96.7036 32.1474 96.4911C32.0387 96.4203 31.93 96.314 31.8213 96.2432C31.7489 96.1724 31.7126 96.1724 31.7126 96.1724C31.7126 96.1724 31.7489 96.2078 31.8213 96.2432C31.93 96.314 32.0387 96.3848 32.1474 96.4557C32.4735 96.6681 32.8721 96.9514 33.3069 97.2702C34.2852 97.9784 35.6621 98.9346 37.1839 99.9616C38.7057 100.989 40.1188 101.909 41.1333 102.582C41.6043 102.901 42.0029 103.149 42.329 103.361C42.4377 103.432 42.5464 103.503 42.6551 103.574C42.7638 103.645 42.8 103.68 42.8 103.68Z" fill="#263238"/>
<path d="M41.6405 100.35C41.6405 100.386 40.8433 100.421 39.865 100.492C38.8867 100.563 38.0896 100.563 38.0896 100.563C38.0896 100.527 38.8867 100.492 39.865 100.421C40.8433 100.35 41.6405 100.315 41.6405 100.35Z" fill="#FAFAFA"/>
<path d="M40.4809 99.6069C40.4809 99.6423 39.72 99.7132 38.8142 99.784C37.8721 99.8548 37.1475 99.8903 37.1475 99.8903C37.1475 99.8548 37.9084 99.784 38.8142 99.7132C39.72 99.6424 40.4809 99.6069 40.4809 99.6069Z" fill="#FAFAFA"/>
<path d="M35.0817 97.7999C35.0454 97.7999 35.1906 97.5874 35.227 97.3395C35.2633 97.0562 35.1906 96.8438 35.1906 96.8438C35.1906 96.8438 35.3359 97.0562 35.2996 97.3395C35.2633 97.6229 35.0817 97.7999 35.0817 97.7999Z" fill="#263238"/>
<path d="M34.3568 97.4818C34.3205 97.4818 34.4657 97.3047 34.5384 97.0568C34.5747 96.8089 34.5021 96.6318 34.5384 96.6318C34.5384 96.6318 34.6836 96.8089 34.611 97.0922C34.5384 97.3401 34.3568 97.4818 34.3568 97.4818Z" fill="#263238"/>
<path d="M35.8068 98.0836C35.7705 98.0836 35.9157 97.8711 35.952 97.5878C35.9884 97.3045 35.9157 97.0921 35.9157 97.0566C35.9157 97.0566 36.061 97.2691 36.0247 97.5878C35.9884 97.9066 35.8068 98.0836 35.8068 98.0836Z" fill="#263238"/>
<path d="M36.2775 97.2336C36.2775 97.2336 36.2413 97.1982 36.1688 97.1274C36.0964 97.0565 36.0239 96.9503 35.9514 96.8087C35.879 96.667 35.7703 96.4545 35.7703 96.242C35.7703 96.1358 35.7703 95.9941 35.8065 95.8879C35.8427 95.7817 35.9514 95.64 36.0964 95.6046C36.2413 95.5692 36.35 95.6754 36.3862 95.7817C36.4225 95.8879 36.4587 95.9941 36.4587 96.1004C36.4587 96.3129 36.4587 96.4899 36.4225 96.6316C36.3862 96.9503 36.2775 97.1628 36.2413 97.269V97.3044V97.269C36.2413 97.2336 36.2413 97.1982 36.2413 97.1982C36.2413 97.1982 36.2413 97.2336 36.2775 97.269C36.3138 97.1628 36.3862 96.9503 36.4225 96.6316C36.4225 96.4899 36.4587 96.3129 36.4225 96.1004C36.4225 95.9941 36.3862 95.9233 36.35 95.8171C36.3138 95.7108 36.2413 95.6754 36.1326 95.6754C35.9152 95.7462 35.8427 96.0296 35.8427 96.242C35.8427 96.4545 35.9152 96.6316 36.0239 96.8087C36.1688 97.0566 36.3138 97.2336 36.2775 97.2336Z" fill="#263238"/>
<path d="M36.2773 97.1629C36.2773 97.1629 36.2773 97.1275 36.3136 97.0567C36.3498 96.9859 36.4223 96.8796 36.4947 96.8088C36.6034 96.7026 36.7121 96.5963 36.8571 96.4901C36.9295 96.4547 37.002 96.3839 37.1107 96.3485C37.1832 96.313 37.3643 96.313 37.4368 96.4193C37.5093 96.5255 37.4368 96.6672 37.3643 96.738C37.2919 96.8088 37.2194 96.8796 37.1469 96.9151C37.002 97.0213 36.8571 97.0921 36.7121 97.1275C36.5672 97.1629 36.4585 97.1984 36.386 97.1984C36.3136 97.1984 36.2773 97.1984 36.2773 97.1984C36.2773 97.1984 36.4585 97.163 36.7121 97.0567C36.8571 97.0213 37.002 96.9151 37.1469 96.8088C37.2919 96.7026 37.5093 96.5609 37.4006 96.3839C37.3643 96.313 37.2556 96.313 37.1832 96.3485C37.1107 96.3839 37.002 96.4193 36.9295 96.4901C36.7846 96.5963 36.6397 96.7026 36.5672 96.8088C36.386 97.0213 36.2773 97.1629 36.2773 97.1629Z" fill="#263238"/>
<path d="M42.7272 100.917C42.7272 100.917 42.546 100.952 42.2199 100.988C41.8213 101.059 41.4228 101.094 40.988 101.165C40.5169 101.236 40.0821 101.271 39.756 101.307C39.6473 101.307 39.5024 101.342 39.3937 101.342C39.3212 101.342 39.2488 101.342 39.2488 101.342C39.2488 101.342 39.4299 101.307 39.756 101.271C40.1546 101.2 40.5532 101.165 40.988 101.094C41.459 101.023 41.8938 100.988 42.2199 100.952C42.3286 100.952 42.4735 100.917 42.5822 100.917C42.6909 100.917 42.7272 100.917 42.7272 100.917Z" fill="#FAFAFA"/>
<path d="M82.8372 56.2248L98.0189 83.8118C99.6856 86.8573 102.548 89.0884 105.918 90.0091L138.02 98.7562L140.376 91.6381L110.048 80.8371L98.9248 55.0562L82.8372 56.2248Z" fill="#B78876"/>
<path d="M138.926 99.0752L129.832 96.6671L131.752 88.522L140.883 91.8508L138.926 99.0752Z" fill="#EBEBEB"/>
<path d="M133.129 89.0879C133.129 89.0879 133.129 89.1233 133.129 89.1587C133.129 89.2295 133.092 89.3004 133.092 89.4066C133.056 89.6191 133.02 89.9024 132.947 90.2565C132.803 90.9648 132.621 91.9563 132.331 93.0542C132.078 94.152 131.788 95.1081 131.571 95.8164C131.462 96.1705 131.353 96.4538 131.317 96.6309C131.281 96.7017 131.281 96.7725 131.244 96.8434C131.208 96.8788 131.208 96.9142 131.208 96.9142C131.208 96.9142 131.208 96.8788 131.208 96.8434C131.244 96.7725 131.244 96.7017 131.281 96.6309C131.353 96.383 131.426 96.0997 131.534 95.781C131.752 95.0727 132.005 94.1165 132.295 93.0187C132.549 91.9209 132.766 90.9294 132.911 90.2211C132.984 89.9024 133.02 89.6191 133.092 89.3712C133.092 89.3004 133.129 89.2295 133.129 89.1233C133.092 89.1233 133.092 89.0879 133.129 89.0879Z" fill="#E8505B"/>
<path d="M133.636 89.2305C133.636 89.2305 133.636 89.2659 133.636 89.3013C133.636 89.3721 133.6 89.4429 133.6 89.5492C133.563 89.7617 133.527 90.045 133.455 90.3991C133.31 91.1074 133.129 92.0989 132.839 93.1967C132.585 94.2945 132.295 95.2507 132.078 95.959C131.969 96.3131 131.861 96.5964 131.824 96.7735C131.788 96.8443 131.788 96.9151 131.752 96.9859C131.716 97.0213 131.716 97.0568 131.716 97.0568C131.716 97.0568 131.716 97.0213 131.716 96.9859C131.752 96.9151 131.752 96.8443 131.788 96.7735C131.861 96.5256 131.933 96.2423 132.042 95.9235C132.259 95.2153 132.513 94.2591 132.803 93.1613C133.056 92.0635 133.274 91.0719 133.419 90.3637C133.491 90.045 133.527 89.7617 133.6 89.5138C133.6 89.4429 133.636 89.3721 133.636 89.2659V89.2305Z" fill="#E8505B"/>
<path d="M138.782 99.2166C139.579 96.596 140.304 94.1879 140.34 91.6382L143.058 92.3819L142.949 92.8422C142.478 94.9316 140.376 103.466 139.543 104.706C138.601 106.158 138.782 99.2166 138.782 99.2166Z" fill="#F162FF"/>
<path d="M142.912 92.2407C142.912 92.2407 142.912 92.2761 142.876 92.3824C142.84 92.4886 142.84 92.6303 142.804 92.7719C142.731 93.1615 142.586 93.6218 142.478 94.153C142.188 95.3217 141.753 96.9153 141.246 98.6505C140.738 100.421 140.231 101.979 139.869 103.113C139.688 103.644 139.543 104.104 139.434 104.458C139.398 104.6 139.362 104.706 139.289 104.812C139.253 104.883 139.253 104.954 139.253 104.954C139.253 104.954 139.253 104.919 139.289 104.812C139.325 104.706 139.362 104.565 139.398 104.458C139.507 104.104 139.651 103.644 139.833 103.113C140.195 101.979 140.666 100.386 141.173 98.6505C141.681 96.9153 142.115 95.3217 142.405 94.153C142.55 93.6218 142.659 93.1615 142.768 92.7719C142.804 92.6303 142.84 92.524 142.876 92.4178C142.876 92.2761 142.912 92.2407 142.912 92.2407Z" fill="#263238"/>
<path d="M140.05 94.4004C140.086 94.4004 140.376 95.1087 140.775 95.994C141.137 96.8794 141.427 97.623 141.427 97.623C141.391 97.623 141.101 96.9148 140.702 96.0294C140.304 95.1087 140.014 94.4004 140.05 94.4004Z" fill="#FAFAFA"/>
<path d="M139.724 95.7104C139.76 95.7104 140.05 96.3833 140.448 97.1978C140.811 98.0477 141.137 98.7206 141.1 98.7206C141.064 98.7206 140.774 98.0477 140.376 97.2332C139.977 96.3833 139.687 95.7104 139.724 95.7104Z" fill="#FAFAFA"/>
<path d="M139.724 101.306C139.724 101.341 139.507 101.27 139.217 101.306C138.963 101.341 138.782 101.518 138.746 101.483C138.746 101.483 138.891 101.27 139.18 101.235C139.507 101.164 139.724 101.27 139.724 101.306Z" fill="#263238"/>
<path d="M139.651 102.05C139.651 102.085 139.434 102.014 139.216 102.05C138.963 102.085 138.818 102.227 138.781 102.191C138.781 102.191 138.926 102.014 139.18 101.979C139.47 101.943 139.687 102.05 139.651 102.05Z" fill="#263238"/>
<path d="M139.76 100.527C139.76 100.562 139.507 100.491 139.217 100.527C138.927 100.598 138.746 100.739 138.709 100.704C138.709 100.704 138.891 100.491 139.181 100.456C139.543 100.385 139.76 100.491 139.76 100.527Z" fill="#263238"/>
<path d="M138.782 100.35C138.782 100.35 138.745 100.385 138.709 100.491C138.673 100.562 138.564 100.668 138.456 100.81C138.347 100.952 138.166 101.093 137.948 101.164C137.84 101.2 137.731 101.235 137.586 101.235C137.441 101.235 137.296 101.2 137.224 101.058C137.151 100.952 137.224 100.81 137.296 100.739C137.369 100.668 137.477 100.633 137.586 100.598C137.767 100.527 137.948 100.456 138.129 100.456C138.456 100.385 138.709 100.42 138.782 100.42H138.818H138.782C138.745 100.456 138.709 100.456 138.709 100.456C138.709 100.456 138.709 100.456 138.745 100.42C138.637 100.42 138.419 100.42 138.093 100.491C137.948 100.527 137.767 100.562 137.586 100.668C137.513 100.704 137.405 100.739 137.332 100.81C137.26 100.881 137.224 100.987 137.26 101.058C137.405 101.235 137.695 101.2 137.912 101.129C138.129 101.058 138.274 100.916 138.383 100.81C138.673 100.527 138.782 100.35 138.782 100.35Z" fill="#263238"/>
<path d="M138.71 100.386C138.71 100.386 138.674 100.386 138.601 100.386C138.529 100.386 138.42 100.35 138.275 100.279C138.13 100.244 137.985 100.138 137.84 100.031C137.768 99.9606 137.695 99.9252 137.623 99.8544C137.55 99.7836 137.478 99.6419 137.587 99.5357C137.695 99.4294 137.84 99.4648 137.913 99.5003C138.021 99.5357 138.094 99.6065 138.166 99.6419C138.311 99.7482 138.456 99.8544 138.529 99.9606C138.637 100.067 138.674 100.173 138.71 100.244C138.746 100.315 138.746 100.35 138.746 100.35C138.746 100.35 138.674 100.209 138.456 99.9961C138.348 99.8898 138.239 99.7836 138.094 99.6773C137.949 99.6065 137.732 99.4294 137.587 99.5711C137.514 99.6419 137.55 99.7127 137.623 99.7836C137.695 99.8544 137.768 99.9252 137.84 99.9606C137.985 100.067 138.13 100.138 138.275 100.209C138.565 100.35 138.71 100.386 138.71 100.386Z" fill="#263238"/>
<path d="M140.231 93.1958C140.231 93.1958 140.34 93.3729 140.485 93.6562C140.666 94.0103 140.847 94.3645 141.064 94.754C141.282 95.179 141.499 95.5685 141.608 95.8519C141.644 95.9581 141.717 96.0643 141.753 96.206C141.789 96.2768 141.789 96.3477 141.789 96.3477C141.789 96.3477 141.68 96.1706 141.535 95.8873C141.354 95.5331 141.173 95.179 140.956 94.7894C140.738 94.3645 140.521 93.9749 140.412 93.6916C140.376 93.5854 140.303 93.4791 140.267 93.3375C140.267 93.2312 140.231 93.1958 140.231 93.1958Z" fill="#FAFAFA"/>
<path d="M108.165 83.2104C108.129 83.175 108.382 82.5376 108.962 81.8647C109.505 81.1919 110.085 80.7669 110.121 80.8023C110.158 80.8378 109.65 81.2981 109.107 81.971C108.563 82.6438 108.237 83.2458 108.165 83.2104Z" fill="#AA6550"/>
<path d="M107.15 82.4311C107.114 82.3957 107.621 81.8645 108.454 81.4395C109.288 81.0146 110.048 80.9437 110.048 80.9791C110.048 81.05 109.36 81.1916 108.563 81.5812C107.766 81.9707 107.222 82.4665 107.15 82.4311Z" fill="#AA6550"/>
<path d="M41.3142 71.0276L43.3433 68.6549C43.3433 68.6549 35.6618 63.7324 32.582 61.1119C29.5021 58.4913 26.7122 52.7897 25.8788 51.3024C25.0455 49.8504 23.3063 40.218 13.7407 37.987C5.66063 36.11 2.21847 40.7846 2.21847 40.7846C-2.96289 48.2214 2.07354 53.8875 5.7331 56.7914C9.35643 59.6953 14.0305 60.1203 17.8713 60.2619C22.4004 60.4036 28.5238 61.8555 30.4442 62.7763C31.8211 63.4137 41.3142 71.0276 41.3142 71.0276ZM23.27 55.6582C23.27 55.6582 18.1974 62.9533 7.10997 56.0832C2.83444 53.4272 1.4938 50.2045 1.20394 47.6548C0.732904 43.7239 3.26924 40.0763 7.1462 38.9431C9.9724 38.0932 13.7407 37.987 18.9945 41.8116C18.9583 41.847 27.0383 48.611 23.27 55.6582ZM22.1106 59.9078C21.7482 59.8016 20.4801 59.6245 22.3642 58.1725C24.5382 56.4727 24.6831 55.0916 24.973 54.2771C25.0817 53.9584 25.1904 53.7459 25.2991 53.6042C25.444 53.4272 25.7339 53.4272 25.8788 53.5688C27.1108 54.702 30.7703 60.439 30.2993 61.1119C29.7558 61.8909 22.6903 60.0849 22.1106 59.9078Z" fill="#D7D5CA"/>
<path d="M24.2482 51.4442C24.2119 51.4796 24.1757 51.5504 24.1395 51.5858C23.7409 51.2671 23.3423 50.9484 22.9075 50.5942C23.2699 50.1339 23.6322 49.7089 23.9221 49.3194C23.9221 49.2839 23.8858 49.2485 23.8858 49.2131C23.4873 48.8944 23.0887 48.5757 22.6901 48.2215C22.9075 47.9737 23.0887 47.7258 23.2699 47.4779C23.2699 47.4779 23.2699 47.4425 23.2336 47.4425C23.0525 47.6549 22.8351 47.9028 22.6177 48.1861C22.2191 47.8674 21.7843 47.5133 21.3857 47.1946C21.7843 46.6988 22.1104 46.2738 22.4003 45.9197C22.364 45.8489 22.3278 45.778 22.2916 45.7072C21.9292 45.4239 21.5669 45.1052 21.1683 44.8219C21.277 44.7156 21.3495 44.6094 21.422 44.5031C21.422 44.5031 21.422 44.5031 21.422 44.4677C21.3495 44.574 21.2408 44.6802 21.1683 44.7864C20.7698 44.4677 20.335 44.1136 19.9002 43.7949C20.0813 43.547 20.2263 43.3699 20.3712 43.1928C20.2263 43.3345 20.0813 43.547 19.9002 43.7949C19.6465 43.5824 19.3567 43.3699 19.103 43.1574C18.9581 43.0512 18.8132 42.9095 18.6682 42.8033C18.9219 42.4846 19.103 42.2367 19.248 42.0596C19.103 42.2367 18.8856 42.4846 18.632 42.8033C18.1972 42.4492 17.7986 42.1304 17.3638 41.8117C17.5812 41.5284 17.7624 41.3159 17.9073 41.1389C17.9073 41.1389 17.9073 41.1389 17.8711 41.1389C17.7262 41.3159 17.545 41.5284 17.3276 41.8117C16.8928 41.4576 16.4942 41.1389 16.0594 40.8201C16.2044 40.6431 16.3493 40.466 16.458 40.3244C16.458 40.3244 16.458 40.3244 16.4218 40.3244C16.3131 40.466 16.1681 40.6431 16.0232 40.8201C15.5884 40.466 15.1898 40.1473 14.755 39.8286C14.8275 39.7577 14.8637 39.6869 14.9362 39.6161H14.9C14.8637 39.6869 14.7913 39.7577 14.7188 39.8286C14.5014 39.6515 14.284 39.4744 14.0666 39.2974C13.9941 39.262 13.9579 39.262 13.8854 39.2265C14.1391 39.439 14.4289 39.6515 14.6826 39.864C14.3927 40.2181 14.0304 40.6431 13.6318 41.1389C13.197 40.7847 12.7984 40.466 12.3999 40.1473C12.726 39.7223 13.0158 39.3682 13.2695 39.0495H13.2332C12.9796 39.3682 12.6897 39.7223 12.3636 40.1473C11.9288 39.7932 11.5303 39.4744 11.1317 39.1557C11.2404 39.0141 11.3853 38.837 11.494 38.6953C11.4578 38.6953 11.4578 38.6953 11.4216 38.6953C11.3129 38.837 11.2042 38.9786 11.0955 39.1203C10.8781 38.9432 10.6969 38.8016 10.4795 38.6245C10.4433 38.6245 10.407 38.6245 10.3708 38.6245C10.5882 38.8016 10.8056 38.9786 11.023 39.1557C10.6969 39.5453 10.3708 39.9702 9.97223 40.4306C9.53743 40.0765 9.13887 39.7577 8.7403 39.439C8.9577 39.1557 9.1751 38.9078 9.3925 38.6599C9.35627 38.6599 9.35627 38.6599 9.32003 38.6599C9.13887 38.9078 8.92147 39.1557 8.70407 39.4036C8.45043 39.2265 8.23303 39.0495 8.01563 38.8724C7.9794 38.8724 7.9794 38.8724 7.94317 38.8724C8.16057 39.0495 8.4142 39.262 8.66783 39.439C8.34173 39.8286 7.9794 40.2889 7.61707 40.7139C7.25473 40.4306 6.92863 40.1827 6.63877 39.9348C6.8924 39.6161 7.14603 39.2974 7.39967 39.0141C7.36343 39.0141 7.3272 39.0495 7.29097 39.0495C7.07357 39.3328 6.81993 39.6161 6.60253 39.8994C6.42137 39.7577 6.2402 39.6161 6.09527 39.4744C6.09527 39.4744 6.05903 39.4744 6.05903 39.5098C6.2402 39.6515 6.42137 39.7932 6.60253 39.9348C6.27643 40.3598 5.9141 40.7847 5.55177 41.2097C5.18944 40.9264 4.8271 40.6431 4.501 40.3952L4.46477 40.4306C4.79087 40.6785 5.11697 40.9618 5.51553 41.2805C5.18944 41.7055 4.8271 42.1304 4.46477 42.5554C3.99374 42.2013 3.59517 41.8471 3.23284 41.5638L3.1966 41.5992C3.55894 41.918 3.99374 42.2367 4.42854 42.5908C4.10244 43.0158 3.7401 43.4407 3.414 43.8657C3.414 43.8657 3.414 43.8657 3.37777 43.9011C2.94297 43.547 2.5444 43.2283 2.18207 42.9449C2.18207 42.9449 2.18207 42.9804 2.14584 42.9804C2.50817 43.2637 2.90674 43.5824 3.3053 43.9365C2.94297 44.3615 2.61687 44.8219 2.25454 45.2114C1.96467 44.9635 1.6748 44.751 1.42117 44.5386V44.574C1.6748 44.7864 1.92844 44.9989 2.2183 45.2114C1.85597 45.6364 1.52987 46.0967 1.16754 46.4863C1.1313 46.4509 1.09507 46.4155 1.05884 46.4155C1.05884 46.4509 1.05884 46.4509 1.05884 46.4863C1.09507 46.5217 1.09507 46.5217 1.1313 46.5571C1.09507 46.5925 1.09507 46.6279 1.05884 46.6634C1.05884 46.6988 1.05884 46.7342 1.05884 46.7696C1.09507 46.6988 1.1313 46.6634 1.20377 46.5925C1.52987 46.8404 1.85597 47.1237 2.18207 47.3716C1.85597 47.7612 1.52987 48.1861 1.24 48.5403C1.24 48.5757 1.24 48.6111 1.24 48.6111C1.5661 48.2215 1.8922 47.7966 2.2183 47.3716C2.61687 47.6903 3.01544 48.0091 3.45024 48.3632C3.0879 48.7882 2.7618 49.2485 2.4357 49.6381C2.03714 49.3194 1.63857 49.0006 1.27624 48.7173C1.27624 48.7527 1.27624 48.7882 1.31247 48.8236C1.6748 49.1069 2.03714 49.3902 2.39947 49.7089C2.2183 49.9568 2.0009 50.2047 1.81974 50.4172C1.81974 50.4526 1.85597 50.4526 1.85597 50.488C2.03714 50.2401 2.25454 49.9922 2.47194 49.7443C2.8705 50.063 3.26907 50.3818 3.70387 50.7359C3.34154 51.1963 3.01544 51.6212 2.68934 52.0108C2.72557 52.0816 2.7618 52.1524 2.79804 52.1878C3.16037 52.4712 3.55894 52.7899 3.92127 53.1086C3.8488 53.2148 3.77634 53.2857 3.70387 53.3919L3.7401 53.4273C3.81257 53.3211 3.88504 53.2503 3.9575 53.144C4.35607 53.4627 4.75464 53.7815 5.18944 54.1356C5.08074 54.2772 4.97204 54.4189 4.86334 54.5605L4.89957 54.596C5.00827 54.4543 5.11697 54.3127 5.22567 54.171C5.62423 54.4897 6.05903 54.8084 6.4576 55.1626C6.3489 55.3042 6.2402 55.4459 6.1315 55.5875L6.16773 55.623C6.27643 55.4813 6.38513 55.3396 6.49383 55.2334C6.85617 55.5167 7.18227 55.8 7.5446 56.0833C7.61707 56.1187 7.6533 56.1896 7.72577 56.225C7.6533 56.3312 7.58083 56.402 7.50837 56.5083L7.5446 56.5437C7.61707 56.4375 7.68953 56.3666 7.762 56.2604C8.16057 56.5791 8.59537 56.9332 8.99393 57.252L8.9577 57.2874C8.99393 57.2874 8.99393 57.3228 9.03017 57.3228L9.0664 57.2874C9.13887 57.3228 9.1751 57.3936 9.24757 57.429C9.35627 57.4645 9.42873 57.5353 9.53743 57.5707C9.3925 57.4644 9.24757 57.3228 9.10263 57.2166C9.42873 56.827 9.79106 56.402 10.1172 55.9417C10.5157 56.2604 10.9505 56.6145 11.3491 56.9332C11.0592 57.2874 10.7694 57.6415 10.4795 57.9956C10.5157 57.9956 10.5157 57.9957 10.552 58.0311C10.8056 57.7123 11.0955 57.3582 11.3853 57.0041C11.8201 57.3228 12.2187 57.6769 12.6173 57.9956C12.4361 58.2081 12.2912 58.4206 12.11 58.5977C12.1462 58.5977 12.1462 58.5977 12.1825 58.6331C12.3274 58.456 12.5086 58.2435 12.6535 58.0311C13.0521 58.3498 13.4869 58.6685 13.8492 58.9872C13.8854 58.9872 13.9217 58.9872 13.9941 59.0226C14.3202 58.5977 14.6826 58.1727 15.0087 57.7478C15.4435 58.1019 15.842 58.4206 16.2406 58.7393C16.1319 58.881 15.987 59.0226 15.8783 59.1997C15.9145 59.1997 15.9507 59.1997 15.987 59.1997C16.0957 59.0581 16.2044 58.9164 16.3131 58.8102C16.458 58.9164 16.6029 59.0581 16.7479 59.1643C16.7841 59.1643 16.8203 59.1643 16.8203 59.1643C16.6392 59.0226 16.4942 58.9164 16.3131 58.7747C16.6392 58.3498 17.0015 57.9248 17.3638 57.4999C17.7986 57.854 18.1972 58.1727 18.5958 58.4914C18.4871 58.6331 18.3421 58.8102 18.2334 58.9518C18.2697 58.9518 18.3059 58.9164 18.3421 58.9164C18.4508 58.7747 18.5595 58.6685 18.6682 58.5268C18.7769 58.5977 18.8494 58.6685 18.9219 58.7393C18.9581 58.7393 18.9581 58.7393 18.9943 58.7039C18.8856 58.6331 18.8132 58.5623 18.7045 58.456C18.9219 58.1727 19.1755 57.8894 19.3929 57.6061C19.5016 57.4645 19.6103 57.3228 19.7552 57.1811C20.0813 57.429 20.4074 57.7123 20.6973 57.9248L20.7335 57.8894C20.4437 57.6415 20.1176 57.3936 19.7552 57.1103C20.1176 56.6854 20.4437 56.2604 20.806 55.8354C21.277 56.225 21.7118 56.5437 22.1104 56.8978L22.1466 56.8624C21.7481 56.5437 21.277 56.1896 20.8422 55.8C21.2046 55.3751 21.5307 54.9147 21.893 54.5251C22.364 54.9147 22.8351 55.2688 23.2699 55.623C23.2699 55.623 23.2699 55.5875 23.3061 55.5875C22.8713 55.2334 22.4365 54.8793 21.9655 54.4897C22.3278 54.0293 22.6539 53.6044 23.0162 53.2148C23.3423 53.4627 23.6322 53.7106 23.9583 53.9585C23.9583 53.9231 23.9583 53.9231 23.9583 53.8877C23.6684 53.6398 23.3786 53.3919 23.0525 53.144C23.4148 52.6836 23.7771 52.2587 24.1032 51.8691C24.1395 51.9045 24.1757 51.94 24.2119 51.9754C24.2119 51.94 24.2119 51.94 24.2119 51.9045C24.1757 51.8691 24.1757 51.8691 24.1395 51.8337C24.1757 51.7983 24.1757 51.7629 24.2119 51.7275C24.2482 51.515 24.2482 51.4796 24.2482 51.4442ZM23.8858 49.284C23.5597 49.6735 23.2336 50.0985 22.8351 50.5588C22.4365 50.2401 22.0379 49.9214 21.6031 49.5673C21.9655 49.1069 22.3278 48.6819 22.6177 48.2924C23.0887 48.6465 23.4873 48.9652 23.8858 49.284ZM7.03733 46.7342C7.4359 47.0529 7.83447 47.3716 8.26927 47.7258C8.23303 47.7612 8.23303 47.7612 8.1968 47.7966C7.8707 48.1861 7.5446 48.6111 7.2185 49.0006C6.7837 48.6819 6.38513 48.3278 5.98657 48.0091C6.31267 47.6195 6.63877 47.1946 7.0011 46.7696L7.03733 46.7342ZM9.64613 48.7173C10.0085 48.2924 10.3346 47.8674 10.6607 47.4425C11.0592 47.7612 11.4578 48.0799 11.8926 48.434C11.5665 48.859 11.2042 49.284 10.8781 49.7089C10.4433 49.3902 10.0447 49.0361 9.64613 48.7173ZM10.8056 49.7797C10.7694 49.8152 10.7331 49.886 10.6969 49.9214C10.407 50.3109 10.0809 50.6651 9.79107 51.0546C9.3925 50.7359 8.9577 50.3818 8.55913 50.063C8.849 49.6735 9.1751 49.2839 9.5012 48.8944C9.53743 48.859 9.57367 48.8236 9.6099 48.7882C10.0085 49.1069 10.407 49.4256 10.8056 49.7797ZM14.5014 48.257C14.4289 48.2215 14.3927 48.1861 14.3202 48.1153C14.6826 47.6903 15.0087 47.2654 15.3348 46.8404C15.4072 46.9112 15.4797 46.9467 15.5522 47.0175C15.8783 47.3008 16.2044 47.5487 16.5667 47.832C16.2406 48.257 15.8783 48.6819 15.5522 49.1069C15.2261 48.8236 14.8637 48.5403 14.5014 48.257ZM15.5159 49.1777C15.1898 49.6027 14.8275 50.0276 14.5014 50.4526C14.1391 50.1693 13.7405 49.8506 13.3782 49.5318C13.3419 49.4964 13.3057 49.4964 13.2695 49.461C13.6318 49.0361 13.9579 48.6111 14.284 48.1861C14.3565 48.2215 14.3927 48.257 14.4652 48.3278C14.8275 48.6111 15.1898 48.8944 15.5159 49.1777ZM14.284 48.0799C13.8854 47.7612 13.4506 47.407 13.0521 47.0883C13.4144 46.6634 13.7405 46.2384 14.0666 45.8134C14.4652 46.1322 14.8637 46.4509 15.2985 46.805C15.0087 47.23 14.6463 47.6549 14.284 48.0799ZM14.2478 48.1507C13.9217 48.5757 13.5593 49.0006 13.2332 49.4256C12.8347 49.1069 12.3999 48.7527 12.0013 48.434C12.3636 48.0091 12.6897 47.5841 13.0158 47.1591C13.4144 47.4779 13.8492 47.7966 14.2478 48.1507ZM11.9288 48.3986C11.5303 48.0799 11.0955 47.7258 10.6969 47.407C11.0592 46.9821 11.3853 46.5571 11.7114 46.1322C12.11 46.4509 12.5086 46.7696 12.9434 47.1237C12.6173 47.5133 12.2912 47.9382 11.9288 48.3986ZM10.6607 47.3362C10.2259 47.0175 9.8273 46.6634 9.42873 46.3446C9.79107 45.9197 10.1172 45.4947 10.4433 45.0698C10.8418 45.3885 11.2404 45.7072 11.6752 46.0613C11.3491 46.4863 11.023 46.9113 10.6607 47.3362ZM10.6244 47.407C10.2983 47.832 9.936 48.257 9.6099 48.6819C9.21133 48.3632 8.77653 48.0091 8.37797 47.6903C8.7403 47.2654 9.0664 46.8404 9.3925 46.4155C9.79106 46.7342 10.1896 47.0883 10.6244 47.407ZM11.9651 48.4694C12.3636 48.7882 12.7622 49.1069 13.197 49.461C12.8709 49.886 12.5086 50.3109 12.1825 50.7359C11.7839 50.4172 11.3491 50.063 10.9505 49.7443C11.2766 49.3194 11.6027 48.8944 11.9651 48.4694ZM13.2332 49.5318C13.2695 49.5673 13.3057 49.5673 13.3419 49.6027C13.7405 49.9214 14.1028 50.2047 14.4652 50.5234C14.1391 50.9484 13.7767 51.3733 13.4506 51.7983C13.0521 51.4796 12.6535 51.1609 12.2549 50.8421C12.2549 50.8421 12.2187 50.8421 12.2187 50.8067C12.5448 50.3464 12.9071 49.9214 13.2332 49.5318ZM14.5014 50.5588C14.9 50.8776 15.3348 51.2317 15.7333 51.5504C15.4072 51.9754 15.0449 52.4003 14.7188 52.8253C14.3202 52.5066 13.9217 52.1878 13.4869 51.8337C13.8492 51.3733 14.1753 50.9484 14.5014 50.5588ZM14.5739 50.488C14.9362 50.063 15.2623 49.6381 15.5884 49.2131C15.987 49.5318 16.4218 49.886 16.8203 50.2047C16.4942 50.6297 16.1319 51.0546 15.8058 51.4796C15.371 51.1609 14.9724 50.8067 14.5739 50.488ZM16.8566 50.2401C17.2914 50.5588 17.6899 50.913 18.0885 51.2317C17.7624 51.6567 17.4001 52.0816 17.074 52.5066C16.6754 52.1878 16.2768 51.8691 15.842 51.515C16.2044 51.09 16.5305 50.6651 16.8566 50.2401ZM16.929 50.1693C17.2914 49.7443 17.6175 49.3194 17.9436 48.8944C18.3784 49.2131 18.7769 49.5673 19.1755 49.886C18.8494 50.3109 18.4871 50.7359 18.161 51.1609C17.7262 50.8421 17.3276 50.5234 16.929 50.1693ZM16.8566 50.1339C16.458 49.8152 16.0594 49.4964 15.6246 49.1423C15.987 48.7173 16.3131 48.2924 16.6392 47.8674C17.0377 48.1861 17.4725 48.5403 17.8711 48.859C17.545 49.284 17.2189 49.7089 16.8566 50.1339ZM16.7116 47.832C17.074 47.3716 17.4001 46.9467 17.7262 46.5571C18.161 46.8758 18.5595 47.23 18.9581 47.5487C18.632 47.9382 18.3059 48.3632 17.9436 48.8236C17.545 48.4694 17.1102 48.1507 16.7116 47.832ZM16.6392 47.7966C16.3131 47.5487 15.987 47.2654 15.6246 46.9821C15.5522 46.9113 15.4797 46.8404 15.4072 46.805C15.7696 46.3446 16.0957 45.9197 16.4218 45.5301C16.5305 45.601 16.6392 45.7072 16.7116 45.778C17.0377 46.0259 17.3276 46.2738 17.6537 46.5217C17.3638 46.9113 17.0015 47.3362 16.6392 47.7966ZM15.371 46.7342C14.9724 46.4155 14.5376 46.0613 14.1391 45.7426C14.5014 45.2822 14.8275 44.8573 15.1536 44.4677C15.5522 44.7864 15.987 45.1406 16.3855 45.4593C16.0594 45.8843 15.7333 46.3092 15.371 46.7342ZM14.1028 45.7072C13.668 45.3885 13.2695 45.0343 12.8709 44.7156C13.2332 44.2552 13.5593 43.8303 13.8854 43.4407C14.284 43.7595 14.7188 44.1136 15.1174 44.4323C14.7913 44.8573 14.4652 45.2822 14.1028 45.7072ZM14.0304 45.778C13.7043 46.203 13.3419 46.6279 13.0158 47.0529C12.6173 46.7342 12.1825 46.38 11.7839 46.0613C12.1462 45.6364 12.4723 45.2114 12.7984 44.7864C13.197 45.1052 13.6318 45.4593 14.0304 45.778ZM11.7477 46.0259C11.3129 45.7072 10.9143 45.3531 10.5157 45.0343C10.8781 44.6094 11.2042 44.1844 11.5303 43.7595C11.9288 44.0782 12.3274 44.3969 12.7622 44.751C12.4361 45.176 12.0738 45.601 11.7477 46.0259ZM10.4433 44.9989C10.0085 44.6802 9.6099 44.3261 9.21133 44.0073C9.57366 43.5824 9.89977 43.122 10.2259 42.7325C10.6244 43.0512 11.023 43.3699 11.4578 43.724C11.1317 44.1136 10.8056 44.5386 10.4433 44.9989ZM10.407 45.0343C10.0809 45.4593 9.7186 45.8843 9.3925 46.3092C8.9577 45.9905 8.55913 45.6364 8.16057 45.3177C8.5229 44.8927 8.849 44.4677 9.1751 44.0428C9.57367 44.3969 9.97223 44.7156 10.407 45.0343ZM8.0881 45.2822C7.6533 44.9281 7.25473 44.6094 6.85617 44.2907C7.2185 43.8657 7.5446 43.4407 7.8707 43.0158C8.26927 43.3345 8.66783 43.6532 9.10263 44.0073C8.77653 44.4323 8.45043 44.8573 8.0881 45.2822ZM8.05187 45.3531C7.72577 45.778 7.36343 46.203 7.03733 46.6279C6.60253 46.2738 6.20397 45.9551 5.8054 45.6364C6.16773 45.2114 6.49383 44.7864 6.85617 44.3615C7.2185 44.6802 7.61707 44.9989 8.05187 45.3531ZM8.0881 45.3885C8.48667 45.7072 8.88523 46.0259 9.32003 46.3801C8.99393 46.805 8.6316 47.23 8.3055 47.6549C7.8707 47.3362 7.47213 46.9821 7.07357 46.6634C7.4359 46.2384 7.762 45.8134 8.0881 45.3885ZM8.26927 47.832C8.3055 47.7966 8.3055 47.7966 8.34173 47.7612C8.7403 48.0799 9.13887 48.3986 9.57366 48.7528C9.53743 48.7882 9.5012 48.8236 9.46496 48.859C9.13887 49.2485 8.849 49.6381 8.5229 50.0276C8.12433 49.7089 7.68953 49.3548 7.29097 49.0361C7.61707 48.6465 7.90693 48.257 8.26927 47.832ZM8.45043 50.063C8.0881 50.488 7.762 50.913 7.4359 51.3379C7.0011 51.0192 6.60253 50.6651 6.20397 50.3464C6.53007 49.9214 6.8924 49.4964 7.2185 49.0715C7.6533 49.4256 8.05187 49.7443 8.45043 50.063ZM8.5229 50.1339C8.92147 50.4526 9.32003 50.7713 9.75483 51.1254C9.3925 51.5504 9.0664 51.9754 8.7403 52.4003C8.34173 52.0816 7.90693 51.7275 7.50837 51.4088C7.83447 50.9838 8.16057 50.5588 8.5229 50.1339ZM9.79107 51.1609C10.1896 51.4796 10.5882 51.7983 11.023 52.1524C10.6607 52.5774 10.3346 53.0024 10.0085 53.4273L9.97223 53.3919C9.57367 53.0732 9.1751 52.7545 8.81277 52.4357C9.10263 52.0108 9.46497 51.5858 9.79107 51.1609ZM9.86353 51.09C10.1534 50.7359 10.4433 50.3464 10.7694 49.9568C10.8056 49.9214 10.8418 49.8506 10.8781 49.8152C11.2766 50.1339 11.6752 50.4526 12.11 50.8067C12.0738 50.8776 12.0013 50.9484 11.9651 50.9838C11.6752 51.3379 11.3853 51.6921 11.0955 52.0816C10.6607 51.7275 10.2621 51.4088 9.86353 51.09ZM12.0013 51.0546C12.0375 50.9838 12.11 50.913 12.1462 50.8776C12.1462 50.8776 12.1462 50.8776 12.1825 50.913C12.581 51.2317 12.9796 51.5504 13.3782 51.8691C13.3057 51.94 13.2695 52.0108 13.197 52.117C12.9071 52.4712 12.6173 52.8253 12.3636 53.144C11.9651 52.8253 11.5665 52.5066 11.1317 52.1524C11.4216 51.7629 11.7114 51.4088 12.0013 51.0546ZM13.2695 52.117C13.3419 52.0462 13.3782 51.9754 13.4506 51.8691C13.8492 52.1879 14.284 52.542 14.6826 52.8607C14.6101 52.9669 14.5376 53.0378 14.4652 53.144C14.1753 53.4981 13.9217 53.8169 13.668 54.1356C13.2695 53.8169 12.8709 53.4981 12.4361 53.144C12.6897 52.7899 12.9796 52.4712 13.2695 52.117ZM14.5014 53.1794C14.5739 53.0732 14.6463 53.0024 14.7188 52.8961C15.1174 53.2148 15.5522 53.569 15.9507 53.8877C15.8783 53.9939 15.7696 54.1002 15.6971 54.2064C15.4435 54.5251 15.1898 54.8439 14.9362 55.1626C14.5376 54.8439 14.1391 54.5251 13.7043 54.171C13.9579 53.8523 14.2478 53.4981 14.5014 53.1794ZM14.755 52.8607C15.1174 52.4357 15.4435 52.0108 15.7696 51.5858C16.1681 51.9045 16.6029 52.2587 17.0015 52.5774C16.6754 53.0024 16.3131 53.4273 15.987 53.8523C15.5884 53.4981 15.1898 53.1794 14.755 52.8607ZM17.074 52.6128C17.5088 52.9315 17.9073 53.2857 18.3059 53.6044C17.9798 54.0293 17.6175 54.4543 17.2914 54.8793C16.8928 54.5606 16.4942 54.2418 16.0594 53.8877C16.3855 53.4273 16.7479 53.0024 17.074 52.6128ZM17.1102 52.542C17.4725 52.117 17.7986 51.6921 18.1247 51.2671C18.5595 51.5858 18.9581 51.94 19.3567 52.2587C19.0306 52.6836 18.6682 53.1086 18.3421 53.5336C17.9436 53.2148 17.545 52.8961 17.1102 52.542ZM18.1972 51.1963C18.5595 50.7713 18.8856 50.3109 19.2117 49.9214C19.6465 50.2755 20.0451 50.5942 20.4437 50.913C20.1176 51.3379 19.7552 51.7629 19.4291 52.1878C19.0306 51.8691 18.632 51.5504 18.1972 51.1963ZM19.2842 49.886C19.6465 49.4256 19.9726 49.0006 20.2987 48.6111C20.7335 48.9652 21.1321 49.2839 21.5307 49.6027C21.2046 49.9922 20.8785 50.4172 20.5161 50.8776C20.0813 50.5588 19.6828 50.2047 19.2842 49.886ZM19.2117 49.8506C18.8132 49.5318 18.4146 49.2131 17.9798 48.859C18.3421 48.3986 18.6682 47.9737 18.9943 47.5841C19.4291 47.9382 19.8277 48.257 20.2263 48.5757C19.9364 48.9652 19.5741 49.3902 19.2117 49.8506ZM19.0668 47.5133C19.4291 47.0529 19.7915 46.6279 20.0813 46.2384C20.5161 46.5925 20.9147 46.9113 21.3133 47.23C20.9872 47.6195 20.6611 48.0445 20.2987 48.5049C19.9002 48.1861 19.4654 47.8674 19.0668 47.5133ZM18.9943 47.4779C18.5958 47.1591 18.161 46.805 17.7624 46.4863C18.1247 46.0259 18.4871 45.601 18.7769 45.2114C19.2117 45.5655 19.6103 45.8843 20.0089 46.203C19.719 46.5925 19.3929 47.0175 18.9943 47.4779ZM17.7262 46.4509C17.4363 46.203 17.1102 45.9551 16.7841 45.7072C16.6754 45.6364 16.5667 45.5301 16.4942 45.4593C16.8566 44.9989 17.2189 44.574 17.5088 44.1844C17.6175 44.2907 17.7624 44.3969 17.8711 44.4677C18.161 44.7156 18.4508 44.9281 18.7407 45.176C18.4508 45.5655 18.0885 45.9905 17.7262 46.4509ZM16.458 45.4239C16.0232 45.1052 15.6246 44.751 15.2261 44.4323C15.5884 43.9719 15.9507 43.547 16.2406 43.1574C16.6392 43.4762 17.074 43.8303 17.4725 44.149C17.1464 44.5386 16.8203 44.9635 16.458 45.4239ZM15.1536 44.3969C14.7188 44.0782 14.3202 43.724 13.9217 43.4053C14.284 42.9449 14.6463 42.52 14.9362 42.1304C15.3348 42.4492 15.7696 42.8033 16.1681 43.122C15.8783 43.5116 15.5522 43.9365 15.1536 44.3969ZM13.8854 43.3699C13.4506 43.0158 13.0521 42.6971 12.6535 42.3783C13.0158 41.918 13.3782 41.493 13.668 41.1035C14.0666 41.4222 14.5014 41.7763 14.9 42.095C14.6101 42.4846 14.2478 42.9095 13.8854 43.3699ZM13.8492 43.4053C13.5231 43.7949 13.197 44.2198 12.8347 44.6802C12.3999 44.3615 12.0013 44.0074 11.6027 43.6886C11.9651 43.2283 12.2912 42.8033 12.6173 42.4137C13.0158 42.7679 13.4144 43.0866 13.8492 43.4053ZM11.5303 43.6532C11.0955 43.2991 10.6969 42.9804 10.2983 42.6616C10.6607 42.2013 10.9868 41.7763 11.3129 41.3868C11.7114 41.7055 12.11 42.0242 12.5448 42.3783C12.2187 42.8033 11.8926 43.2283 11.5303 43.6532ZM10.2259 42.6262C9.79107 42.2721 9.3925 41.9534 8.99393 41.6347C9.35627 41.1743 9.68237 40.7493 10.0085 40.3598C10.407 40.6785 10.8056 40.9972 11.2404 41.3513C10.9505 41.7763 10.5882 42.2013 10.2259 42.6262ZM10.1896 42.6971C9.86353 43.122 9.5012 43.547 9.1751 43.9719C8.7403 43.6178 8.34173 43.2991 7.94317 42.9804C8.3055 42.5554 8.6316 42.095 8.9577 41.7055C9.35627 42.0242 9.75483 42.3429 10.1896 42.6971ZM7.8707 42.9449C7.4359 42.5908 7.03733 42.2721 6.63877 41.9534C7.0011 41.493 7.3272 41.068 7.68953 40.6785C8.0881 40.9972 8.48667 41.3159 8.92147 41.6701C8.59537 42.0596 8.23303 42.4846 7.8707 42.9449ZM7.83447 42.9804C7.50837 43.4053 7.14603 43.8303 6.7837 44.2552C6.3489 43.9011 5.95033 43.5824 5.55177 43.2637C5.9141 42.8387 6.2402 42.3783 6.60253 41.9888C7.0011 42.3075 7.39967 42.6616 7.83447 42.9804ZM6.7837 44.3261C6.4576 44.751 6.09527 45.176 5.73293 45.601C5.29813 45.2468 4.89957 44.9281 4.501 44.6094C4.86334 44.1844 5.18944 43.7595 5.55177 43.3345C5.9141 43.6532 6.3489 43.9719 6.7837 44.3261ZM5.6967 45.6364C5.33437 46.0613 5.00827 46.4863 4.64594 46.9113C4.21114 46.5571 3.81257 46.2384 3.414 45.9197C3.7401 45.4947 4.10244 45.0698 4.46477 44.6448C4.86334 44.9635 5.2619 45.3176 5.6967 45.6364ZM5.73293 45.7072C6.1315 46.0259 6.53007 46.3446 6.96487 46.6988L6.92863 46.7342C6.60253 47.1591 6.2402 47.5841 5.9141 47.9737C5.4793 47.6195 5.08074 47.3008 4.68217 46.9821C5.0445 46.5571 5.40683 46.1322 5.73293 45.7072ZM5.9141 48.0091C5.55177 48.434 5.22567 48.859 4.89957 49.284C4.46477 48.9298 4.0662 48.6111 3.66764 48.2924C3.99374 47.8674 4.35607 47.4425 4.7184 47.0175C5.08074 47.3362 5.4793 47.6903 5.9141 48.0091ZM5.95033 48.0445C6.3489 48.3632 6.74747 48.6819 7.18227 49.0361C6.81993 49.461 6.49383 49.886 6.16773 50.3109C5.73293 49.9922 5.33437 49.6381 4.9358 49.3194C5.2619 48.9298 5.62423 48.5049 5.95033 48.0445ZM6.09527 50.3818C5.73293 50.8067 5.40684 51.2317 5.08074 51.6566C4.64594 51.3025 4.24737 50.9838 3.8488 50.6651C4.1749 50.2401 4.53724 49.8152 4.86334 49.3902C5.29814 49.7089 5.6967 50.0276 6.09527 50.3818ZM6.16773 50.4172C6.5663 50.7359 6.96487 51.0546 7.39967 51.4088C7.03733 51.8337 6.71123 52.2587 6.38513 52.6836C5.95033 52.3649 5.55177 52.0108 5.1532 51.6921C5.4793 51.2671 5.8054 50.8421 6.16773 50.4172ZM7.4359 51.4442C7.83447 51.7629 8.23303 52.0816 8.66783 52.4357C8.3055 52.8607 7.9794 53.2857 7.6533 53.7106C7.25473 53.3919 6.81993 53.0378 6.42137 52.7191C6.74747 52.3295 7.1098 51.9045 7.4359 51.4442ZM8.7403 52.4712C9.13887 52.7899 9.5012 53.1086 9.89977 53.4273L9.936 53.4627C9.57366 53.8877 9.24757 54.3127 8.92147 54.7376C8.88523 54.7022 8.849 54.6668 8.81277 54.6314C8.45043 54.3481 8.05187 54.0293 7.68953 53.746C8.01563 53.3565 8.37797 52.9315 8.7403 52.4712ZM10.0085 53.4981C10.407 53.8169 10.8418 54.171 11.2404 54.4897C10.8781 54.9147 10.552 55.3396 10.2259 55.7646C9.8273 55.4459 9.42873 55.1272 8.99393 54.773C9.32003 54.3835 9.64613 53.9585 10.0085 53.4981ZM10.0447 53.4627C10.3708 53.0378 10.7331 52.6128 11.0592 52.1878C11.4578 52.5066 11.8926 52.8607 12.2912 53.1794C11.9288 53.6044 11.6027 54.0293 11.2766 54.4543C10.8781 54.1002 10.4795 53.7815 10.0447 53.4627ZM12.3636 53.2148C12.7622 53.5336 13.197 53.8877 13.5956 54.2064C13.2332 54.6314 12.9071 55.0563 12.581 55.4813C12.1825 55.1626 11.7839 54.8439 11.3491 54.4897C11.6752 54.0648 12.0013 53.6398 12.3636 53.2148ZM13.668 54.2418C14.0666 54.5606 14.5014 54.9147 14.9 55.2334C14.5376 55.6584 14.2115 56.0833 13.8854 56.5083C13.4869 56.1896 13.0883 55.8708 12.6535 55.5167C12.9434 55.0917 13.3057 54.6668 13.668 54.2418ZM14.9362 55.2688C15.371 55.5875 15.7696 55.9417 16.1681 56.2604C15.8058 56.6854 15.4797 57.1103 15.1536 57.5353C14.755 57.2166 14.3565 56.8978 13.9217 56.5437C14.2478 56.1187 14.5739 55.6938 14.9362 55.2688ZM14.9724 55.198C15.2261 54.8793 15.4797 54.5606 15.7696 54.2418C15.842 54.1356 15.9507 54.0293 16.0232 53.9231C16.458 54.2418 16.8566 54.596 17.2551 54.9147C17.1464 55.0209 17.074 55.1626 16.9653 55.2688C16.7116 55.5875 16.458 55.9063 16.2044 56.1896C15.8058 55.8708 15.4072 55.5521 14.9724 55.198ZM17.0015 55.3042C17.1102 55.198 17.1827 55.0563 17.2914 54.9501C17.7262 55.3042 18.1247 55.623 18.5233 55.9417C18.4146 56.0833 18.3059 56.1896 18.1972 56.3312C17.9436 56.6145 17.7262 56.9332 17.4725 57.2166C17.074 56.8978 16.6754 56.5791 16.2406 56.225C16.4942 55.9417 16.7479 55.623 17.0015 55.3042ZM17.3276 54.9147C17.6899 54.4897 18.016 54.0648 18.3421 53.6398C18.7769 53.9939 19.1755 54.3127 19.5741 54.6314C19.248 55.0563 18.8856 55.4813 18.5233 55.9063C18.161 55.5875 17.7624 55.2334 17.3276 54.9147ZM18.4146 53.569C18.7769 53.144 19.103 52.7191 19.4291 52.2941C19.8639 52.6482 20.2625 52.9669 20.6611 53.2857C20.335 53.7106 19.9726 54.1356 19.6103 54.5605C19.248 54.2418 18.8132 53.9231 18.4146 53.569ZM19.4654 52.2587C19.8277 51.8337 20.1538 51.3733 20.4799 50.9838C20.9147 51.3379 21.3133 51.6566 21.7118 51.9754C21.3857 52.4003 21.0234 52.8253 20.6611 53.2503C20.2987 52.8961 19.9002 52.5774 19.4654 52.2587ZM20.5524 50.913C20.9147 50.4526 21.2408 50.0276 21.5669 49.6381C22.0017 49.9922 22.4003 50.3109 22.7988 50.6297C22.4727 51.0192 22.1104 51.4442 21.7481 51.9045C21.3857 51.5858 20.9872 51.2671 20.5524 50.913ZM22.6177 48.257C22.2916 48.6465 21.9655 49.0715 21.5669 49.5318C21.1683 49.2131 20.7698 48.8944 20.335 48.5403C20.6973 48.0799 21.0596 47.6549 21.3495 47.2654C21.7843 47.6195 22.2191 47.9382 22.6177 48.257ZM22.4003 45.9197C22.1104 46.2738 21.7843 46.6988 21.3495 47.1946C20.9509 46.8758 20.5161 46.5217 20.1176 46.203C20.5161 45.7072 20.8422 45.2822 21.1321 44.9281C21.5669 45.2468 22.0017 45.5655 22.4003 45.9197ZM21.1321 44.8927C20.8422 45.2468 20.5161 45.6718 20.0813 46.1676C19.6828 45.8488 19.248 45.4947 18.8494 45.176C19.248 44.6802 19.5741 44.2552 19.8639 43.9011C20.2987 44.2198 20.6973 44.5386 21.1321 44.8927ZM19.0306 43.1928C19.2842 43.4053 19.5741 43.6178 19.8277 43.8303C19.5378 44.1844 19.2117 44.6094 18.8132 45.1052C18.5233 44.8573 18.2334 44.6448 17.9436 44.3969C17.8349 44.2907 17.6899 44.1844 17.5812 44.1136C17.9798 43.6178 18.3059 43.1928 18.5958 42.8387C18.7407 42.9804 18.8856 43.0866 19.0306 43.1928ZM18.5595 42.8387C18.2697 43.1928 17.9073 43.6178 17.545 44.1136C17.1102 43.7595 16.7116 43.4407 16.3131 43.122C16.7116 42.6262 17.0377 42.2013 17.3276 41.8471C17.7262 42.1659 18.1247 42.4846 18.5595 42.8387ZM17.2551 41.8117C16.9653 42.1659 16.6029 42.5908 16.2406 43.0866C15.8058 42.7325 15.4072 42.4137 15.0087 42.095C15.4072 41.5992 15.7333 41.1743 16.0232 40.8201C16.4218 41.1034 16.8566 41.4576 17.2551 41.8117ZM14.755 39.7577C15.1536 40.0765 15.5884 40.4306 16.0232 40.7493C15.7333 41.1035 15.371 41.5284 14.9724 42.0242C14.5376 41.6701 14.1391 41.3513 13.7405 41.0326C14.1028 40.5368 14.4652 40.1119 14.755 39.7577ZM13.6318 41.068C13.3057 41.4576 12.9796 41.8825 12.6173 42.3429C12.1825 41.9888 11.7839 41.6701 11.3853 41.3513C11.7477 40.891 12.11 40.466 12.3999 40.0765C12.7984 40.3952 13.197 40.7139 13.6318 41.068ZM11.0955 39.0495C11.494 39.3682 11.8926 39.6869 12.3274 40.041C12.0013 40.4306 11.6752 40.8556 11.2766 41.3159C10.8418 40.9618 10.4433 40.6431 10.0447 40.3244C10.4433 39.864 10.8056 39.439 11.0955 39.0495ZM8.7403 39.3328C9.13887 39.6515 9.53743 39.9702 9.97223 40.3244C9.64613 40.7139 9.2838 41.1389 8.92147 41.5992C8.48667 41.2451 8.0881 40.9264 7.68953 40.6077C8.0881 40.1827 8.4142 39.7577 8.7403 39.3328ZM6.63877 39.8286C6.96487 40.0765 7.29097 40.3598 7.61707 40.6077C7.29097 41.0326 6.92863 41.4576 6.5663 41.8825C6.20397 41.5992 5.87787 41.3513 5.588 41.1035C5.95033 40.6785 6.31267 40.2535 6.63877 39.8286ZM5.588 41.1743C5.9141 41.4222 6.2402 41.7055 6.5663 41.9534C6.2402 42.3783 5.87787 42.8033 5.51553 43.2283C5.1532 42.9449 4.8271 42.6971 4.53724 42.4492C4.89957 42.0242 5.22567 41.5992 5.588 41.1743ZM3.48647 43.7595C3.8488 43.3345 4.1749 42.9095 4.501 42.4846C4.8271 42.7325 5.1532 43.0158 5.4793 43.2637C5.1532 43.6886 4.79087 44.1136 4.42854 44.5386C4.10244 44.2907 3.77634 44.0428 3.48647 43.7595C3.45024 43.7949 3.48647 43.7595 3.48647 43.7595ZM3.414 43.8303C3.7401 44.0782 4.0662 44.3615 4.3923 44.6094C4.02997 45.0343 3.70387 45.4593 3.34154 45.8843C3.01544 45.601 2.6531 45.3531 2.36324 45.1052C2.72557 44.6802 3.0879 44.2552 3.414 43.8303ZM1.31247 46.4509C1.63857 46.0259 2.0009 45.601 2.36324 45.176C2.68934 45.4239 3.01544 45.7072 3.34154 45.9551C2.9792 46.38 2.6531 46.8404 2.29077 47.23C1.96467 46.9467 1.63857 46.6988 1.31247 46.4509ZM2.36324 47.2654C2.68934 46.8404 3.05167 46.4155 3.414 45.9905C3.81257 46.3092 4.21114 46.6279 4.64594 46.9821C4.2836 47.407 3.9575 47.832 3.6314 48.257C3.16037 47.9382 2.7618 47.5841 2.36324 47.2654ZM2.58064 49.6381C2.90674 49.2131 3.26907 48.7882 3.6314 48.3632C4.02997 48.6819 4.42854 49.0006 4.86334 49.3548C4.501 49.7797 4.1749 50.2401 3.8488 50.6297C3.37777 50.2755 2.9792 49.9568 2.58064 49.6381ZM2.7618 52.0108C3.0879 51.6212 3.45024 51.1963 3.77634 50.7359C4.1749 51.0546 4.57347 51.3733 5.00827 51.7275C4.64594 52.1878 4.31984 52.6128 3.99374 53.0024C3.59517 52.6482 3.1966 52.3295 2.7618 52.0108ZM4.0662 53.0378C4.3923 52.6482 4.75464 52.2233 5.08074 51.7629C5.4793 52.0816 5.87787 52.4003 6.31267 52.7545C5.95033 53.2148 5.62423 53.6398 5.29813 54.0293C4.86333 53.6752 4.46477 53.3565 4.0662 53.0378ZM5.33437 54.0648C5.66047 53.6752 6.0228 53.2503 6.3489 52.7899C6.74747 53.1086 7.14603 53.4273 7.58083 53.7815C7.2185 54.2418 6.8924 54.6668 6.5663 55.0563C6.16773 54.7022 5.73293 54.3835 5.33437 54.0648ZM7.68953 55.9063C7.3272 55.623 7.0011 55.3396 6.63877 55.0563C6.96487 54.6668 7.29097 54.2418 7.6533 53.7815C8.01563 54.0648 8.37797 54.3835 8.77653 54.6668C8.81277 54.7022 8.849 54.7376 8.88523 54.773C8.5229 55.2334 8.1968 55.6584 7.8707 56.0479C7.79823 56.0125 7.72577 55.9771 7.68953 55.9063ZM9.13887 57.1103C8.7403 56.7916 8.3055 56.4375 7.90693 56.1187C8.23303 55.7292 8.55913 55.3042 8.92147 54.8439C9.32003 55.1626 9.75483 55.5167 10.1534 55.8354C9.8273 56.2604 9.46496 56.6854 9.13887 57.1103ZM10.2621 55.8C10.5882 55.3751 10.9505 54.9501 11.2766 54.5251C11.6752 54.8439 12.11 55.198 12.5086 55.5167C12.1462 55.9417 11.8201 56.3666 11.494 56.7916C11.0955 56.4729 10.6969 56.1542 10.2621 55.8ZM11.5665 56.827C11.8926 56.402 12.2549 55.9771 12.581 55.5521C13.0158 55.8708 13.4144 56.225 13.813 56.5437C13.4506 56.9687 13.1245 57.3936 12.7984 57.8186C12.3636 57.4999 11.9651 57.1811 11.5665 56.827ZM14.0666 58.8456C13.668 58.5269 13.2695 58.2081 12.8347 57.854C13.1608 57.429 13.5231 57.0041 13.8492 56.5791C14.284 56.8978 14.6826 57.252 15.0811 57.5707C14.7188 57.9956 14.3927 58.456 14.0666 58.8456ZM16.4218 58.5623C16.0232 58.2435 15.6246 57.9248 15.1898 57.5707C15.5159 57.1457 15.8783 56.7208 16.2044 56.2958C16.6392 56.6499 17.0377 56.9687 17.4363 57.2874C17.074 57.7123 16.7479 58.1373 16.4218 58.5623ZM19.4654 57.3936C19.248 57.6769 18.9943 57.9602 18.7769 58.2435C18.3784 57.9248 17.9798 57.6061 17.545 57.252C17.7986 56.9687 18.016 56.6499 18.2697 56.3666C18.3784 56.225 18.4871 56.1187 18.5958 55.9771C19.0306 56.3312 19.4291 56.6499 19.8277 56.9687C19.6828 57.1103 19.5741 57.252 19.4654 57.3936ZM19.8277 56.9332C19.4291 56.6145 19.0306 56.2958 18.5958 55.9417C18.9581 55.5167 19.2842 55.0918 19.6103 54.6668C20.0451 55.0209 20.4437 55.3396 20.8422 55.6584C20.5524 56.0479 20.19 56.4729 19.8277 56.9332ZM20.9147 55.5875C20.5161 55.2688 20.1176 54.9501 19.6828 54.596C20.0451 54.171 20.3712 53.746 20.6973 53.3211C21.1321 53.6752 21.5307 53.9939 21.9292 54.3127C21.6031 54.7376 21.277 55.1626 20.9147 55.5875ZM22.0017 54.2418C21.6031 53.9231 21.2046 53.6044 20.7698 53.2503C21.1321 52.7899 21.4582 52.3649 21.7843 51.9754C22.2191 52.3295 22.6177 52.6482 23.0162 52.9669C22.6901 53.3919 22.3278 53.8169 22.0017 54.2418ZM23.0525 52.9315C22.6539 52.6128 22.2553 52.2941 21.8205 51.94C22.1829 51.4796 22.509 51.0546 22.8351 50.6651C23.2699 51.0192 23.6684 51.3379 24.067 51.6566C23.7771 52.0462 23.4148 52.4712 23.0525 52.9315Z" fill="#263238"/>
<path d="M36.2778 67.062L38.017 65.1143L43.3071 68.6556L41.3143 71.0283L36.2778 67.062Z" fill="#F5F5F5"/>
<path d="M68.8153 8.45304C68.4167 7.07192 68.7428 5.54915 69.6486 4.41593C70.5545 3.31812 72.04 2.68068 73.4894 2.75151C74.6126 2.82234 75.772 3.28271 76.8228 2.89316C77.4388 2.68068 77.8736 2.1849 78.3084 1.72453C78.7069 1.22874 79.1055 0.732955 79.649 0.378823C80.1925 0.0246906 80.8809 -0.152375 81.4607 0.166344C82.0404 0.44965 82.294 1.29957 81.8592 1.72453C82.9825 1.19333 84.5405 1.37039 85.3014 2.36196C86.0985 3.31812 85.8087 5.01795 84.6492 5.51374C85.9174 5.26585 87.2218 6.18659 87.5479 7.42605C87.874 8.66551 87.258 9.9758 86.2435 10.7549C85.2289 11.534 83.8883 11.7819 82.5839 11.6756C81.3157 11.5694 80.0838 11.109 78.9243 10.5424C77.7649 9.9758 76.6417 9.33836 75.4822 8.84258C74.7213 8.48845 73.8879 8.20514 73.0183 8.27597C72.185 8.3468 71.3154 8.80717 71.0255 9.62167" fill="#263238"/>
<path d="M62.692 24.8844C61.8224 24.9552 61.1339 24.2115 60.7716 23.4324C60.4093 22.6533 60.2281 21.8034 59.7208 21.1305C59.3585 20.6347 58.8512 20.2806 58.5976 19.714C58.344 19.112 58.4164 18.4391 58.199 17.8371C57.9092 16.9872 57.112 16.3851 56.7859 15.5352C56.3511 14.3666 57.0758 12.9146 58.2715 12.5605C59.5034 12.2063 60.9165 13.0209 61.2064 14.2249" fill="#263238"/>
<path d="M71.026 11.1089L71.4245 12.2775L77.6929 29.8072C78.4176 31.8611 77.2219 34.0922 74.9754 34.8359C72.7289 35.5795 70.2651 34.5526 69.5042 32.4986C68.707 30.3384 67.8012 28.1073 67.8012 28.1073C67.8012 28.1073 64.7938 28.6739 62.8735 25.2388C61.8952 23.539 60.9169 20.5643 60.156 18.1207C59.5038 15.8897 60.8444 13.5878 63.1271 13.0212L71.026 11.1089Z" fill="#B78876"/>
<path d="M67.801 28.1066C67.801 28.1066 70.3374 27.3629 72.2577 25.061C72.2577 25.061 71.9679 27.965 68.1634 28.9565L67.801 28.1066Z" fill="#AA6550"/>
<path d="M79.5764 23.2552C79.5764 23.2552 79.5764 23.2906 79.5764 23.3614C79.5764 23.4323 79.5764 23.5385 79.5402 23.6802C79.4677 23.9635 79.2141 24.353 78.7068 24.5655C78.2358 24.8134 77.4749 24.7425 76.9314 24.353C76.6415 24.1405 76.3879 23.8572 76.2067 23.5385C76.0256 23.2198 75.9169 22.7594 76.1343 22.3699C76.243 22.1928 76.4241 22.0157 76.6415 21.9803C76.8589 21.9449 77.0763 21.9803 77.2575 22.122C77.4387 22.2636 77.4749 22.5115 77.4387 22.6886C77.3662 22.8657 77.2213 23.0427 77.0401 23.1135C76.6778 23.2552 76.3154 23.1844 76.0256 23.0781C75.7357 22.9365 75.5183 22.7594 75.3371 22.5469C75.011 22.1574 74.9023 21.697 74.9023 21.4137C74.9023 21.2721 74.9023 21.1658 74.9386 21.095C74.9386 21.0242 74.9748 20.9888 74.9748 20.9888C74.9748 20.9888 74.9748 21.1304 74.9748 21.4137C75.011 21.697 75.1197 22.0866 75.4458 22.4407C75.627 22.6178 75.8444 22.7948 76.098 22.9011C76.3517 23.0073 76.6778 23.0781 76.9676 22.9365C77.1126 22.8657 77.2213 22.7594 77.2575 22.6178C77.2937 22.4761 77.2575 22.3345 77.1488 22.2282C77.0401 22.122 76.8589 22.0866 76.714 22.122C76.5691 22.1574 76.4241 22.2636 76.3517 22.4407C76.1705 22.7594 76.243 23.1136 76.4241 23.4323C76.5691 23.751 76.8227 23.9989 77.0763 24.1759C77.6198 24.5655 78.272 24.6363 78.7068 24.4238C79.1779 24.2114 79.4315 23.8926 79.504 23.6447C79.5764 23.3969 79.5764 23.2552 79.5764 23.2552Z" fill="#263238"/>
<path d="M78.526 19.3237C78.526 19.3237 78.7072 19.5362 78.5985 19.9258C78.5623 20.1028 78.4536 20.3507 78.2362 20.5278C78.055 20.7049 77.7651 20.8465 77.439 20.882C76.8231 20.9882 76.2796 20.7049 75.9535 20.5278C75.6274 20.3153 75.4824 20.1383 75.4824 20.1028C75.5187 20.0674 75.6998 20.2091 76.0259 20.3862C76.352 20.5632 76.8593 20.7757 77.4028 20.6695C77.6927 20.6341 77.91 20.5278 78.0912 20.3507C78.2724 20.2091 78.3811 19.9966 78.4173 19.8549C78.5985 19.5716 78.4898 19.3591 78.526 19.3237Z" fill="#263238"/>
<path d="M59.5035 19.9614C59.5035 19.9614 59.3948 19.9614 59.2499 19.8906C59.0687 19.8552 58.8513 19.7489 58.5614 19.6427C58.2716 19.5011 57.9455 19.324 57.6918 19.0053C57.402 18.6865 57.2933 18.1907 57.2933 17.7304C57.2933 17.27 57.3657 16.8096 57.3657 16.4201C57.3657 16.0305 57.3295 15.6764 57.2208 15.4285C56.9672 14.8619 56.5686 14.7556 56.6048 14.7202C56.6048 14.7202 56.7136 14.7202 56.8585 14.8265C57.0034 14.9327 57.2208 15.1098 57.3295 15.3931C57.4744 15.6764 57.5469 16.0659 57.5469 16.4555C57.5469 16.845 57.4744 17.3054 57.5107 17.7304C57.5107 18.1907 57.6194 18.5803 57.873 18.899C58.0904 19.2177 58.4165 19.3948 58.6702 19.5365C59.1412 19.7844 59.5397 19.926 59.5035 19.9614Z" fill="#263238"/>
<path d="M59.974 18.1206C59.974 18.1206 59.9378 17.554 59.3218 16.2083C58.6696 14.7918 63.235 11.9588 71.315 13.2336L72.2933 15.0751C72.2933 15.0751 60.9886 14.4731 59.974 18.1206Z" fill="#E8505B"/>
<path d="M66.3878 9.72778C66.6052 10.861 66.7863 12.0297 66.6052 13.1629C66.3878 14.2961 65.7718 15.3939 64.721 15.9251C63.8877 16.3501 62.9456 16.3501 62.0398 16.3501C61.1702 16.3501 60.2643 16.3855 59.3947 16.3855C58.8875 16.3855 58.344 16.3855 57.8367 16.2438C56.8222 15.8897 56.1337 14.8627 56.025 13.8003C55.8801 12.313 56.7497 10.861 58.0179 10.0111C59.286 9.16117 60.8441 8.91327 62.3659 8.9841C63.8877 9.05493 65.3732 9.47989 66.8226 9.90485" fill="#263238"/>
<path d="M73.4528 16.7388C73.4528 16.7388 73.6702 16.7034 74.0325 16.668C74.3949 16.6326 74.9746 16.5618 75.6268 16.4201C76.279 16.243 77.0761 15.9951 77.6559 15.3223C77.9457 15.0036 78.1994 14.614 78.3443 14.1537C78.4892 13.6933 78.4168 13.1975 78.1994 12.7725C77.982 12.3476 77.6196 11.9934 77.2211 11.7101C76.8225 11.4622 76.3877 11.2852 75.9529 11.1435C75.0833 10.8956 74.2862 10.7186 73.634 10.4707C72.9818 10.2228 72.5107 9.90407 72.2571 9.65617C72.1122 9.51452 72.0397 9.40828 71.9672 9.33745C71.8948 9.26663 71.8948 9.1958 71.8948 9.1958C71.8948 9.1958 72.0397 9.37287 72.2933 9.62076C72.5832 9.86865 73.0542 10.152 73.6702 10.3644C74.3224 10.6123 75.1195 10.7186 75.9891 11.0019C76.4239 11.1435 76.895 11.3206 77.2935 11.5685C77.7283 11.8518 78.0907 12.2059 78.3443 12.6663C78.5979 13.1267 78.6342 13.6933 78.4892 14.1891C78.3443 14.6849 78.0907 15.0744 77.7646 15.4285C77.1124 16.1014 76.279 16.3847 75.6268 16.5263C74.9384 16.668 74.3949 16.7034 73.9963 16.7034C73.634 16.7742 73.4528 16.7742 73.4528 16.7388Z" fill="#263238"/>
<path d="M58.0906 15.889C58.0906 15.889 58.0543 15.8536 57.9819 15.7828C57.9094 15.712 57.8007 15.6057 57.692 15.4641C57.4384 15.1808 57.076 14.7558 56.7499 14.1184C56.605 13.7996 56.4601 13.4455 56.4601 13.0205C56.4238 12.5956 56.5325 12.1706 56.7137 11.7457C57.1485 10.8957 58.0181 10.2229 59.0689 9.97498C60.1196 9.72708 61.2066 9.90415 62.0762 10.1875C62.9821 10.4708 63.7067 10.8957 64.3227 11.1436C64.9387 11.4269 65.5184 11.4269 65.8807 11.3207C66.2431 11.2145 66.388 11.0374 66.388 11.0374C66.388 11.0374 66.3518 11.0728 66.2793 11.1436C66.2068 11.2145 66.0619 11.2853 65.8807 11.3561C65.6996 11.4269 65.4459 11.4623 65.1561 11.4623C64.8662 11.4623 64.5401 11.3915 64.214 11.2499C63.5618 11.002 62.8371 10.577 61.9675 10.3291C61.0979 10.0458 60.0834 9.90415 59.0689 10.152C58.0543 10.3999 57.221 11.0728 56.8224 11.8519C56.3876 12.631 56.5325 13.4809 56.8224 14.0829C57.1123 14.685 57.4746 15.1099 57.692 15.4287C57.9456 15.712 58.0906 15.889 58.0906 15.889Z" fill="#455A64"/>
<path d="M72.5838 10.0102C72.5838 10.0102 72.6562 10.1164 72.5838 10.2935C72.5475 10.3997 72.4751 10.4705 72.3664 10.5768C72.2577 10.6476 72.0765 10.7184 71.9316 10.7184C71.2069 10.683 70.4822 10.1518 69.5402 9.90394C69.0691 9.79771 68.5981 9.83312 68.2358 9.93935C67.8372 10.081 67.5111 10.2935 67.2937 10.506C66.8227 10.9309 66.714 11.3204 66.6777 11.3204C66.6777 11.3204 66.6777 11.2142 66.7502 11.0371C66.8227 10.8601 66.9676 10.6476 67.185 10.3997C67.4024 10.1518 67.7285 9.93935 68.1633 9.76229C68.5619 9.62064 69.1054 9.54982 69.5764 9.69147C70.5547 9.93936 71.3156 10.506 71.9316 10.5414C72.2577 10.5768 72.4388 10.3997 72.5113 10.2581C72.5838 10.1164 72.5475 10.0102 72.5838 10.0102Z" fill="#455A64"/>
<path d="M71.7136 45.8492L65.8076 36.8896L55.771 47.6907L37.292 58.9167L35.0455 58.8105C34.647 58.8459 34.1759 58.8459 33.6324 58.8459C33.1614 58.8459 32.6904 58.7751 32.2556 58.598C31.7121 58.421 31.0236 58.1376 30.6613 57.8543C30.2265 57.5356 29.6105 57.8543 29.7555 58.3147C29.8642 58.7751 31.0236 59.7312 32.6904 60.1562C34.3571 60.5812 31.8932 61.679 30.9874 62.1039C30.9874 62.1039 29.7917 62.4581 29.6105 62.7414C29.4294 63.0247 29.9004 63.7684 31.6034 63.4851C31.6034 63.4851 31.241 64.1933 31.857 64.4766C32.328 64.6537 33.3788 64.2641 33.3788 64.2641C33.3788 64.2641 32.9802 64.6891 33.2701 65.0787C33.6687 65.6807 34.8644 65.2203 34.8644 65.2203C34.8644 65.2203 34.6107 66.2119 35.4803 66.2473C36.1325 66.2827 36.8572 65.6807 38.1978 64.7245L39.5022 63.6267L61.4958 54.313L71.7136 45.8492Z" fill="#B78876"/>
<path d="M124.687 35.1184C124.143 34.3393 127.622 35.9329 127.912 35.2954C128.02 35.0475 128.057 34.8705 125.919 34.233C124.759 33.8789 122.513 33.5248 120.629 33.2415L120.411 33.206L104.143 25.8047C103.273 25.4151 102.295 25.2026 101.316 25.2026H84.0332L86.1347 33.5602L102.15 32.5686L118.274 38.3056L118.962 39.0138C119.143 39.2263 119.361 39.4388 119.614 39.6867C119.868 40.0054 120.085 40.3241 120.267 40.7137C120.448 41.174 120.665 41.7761 120.701 42.1656C120.738 42.626 121.281 42.8385 121.535 42.4843C121.752 42.1302 121.752 40.8553 121.064 39.545C120.375 38.2347 122.513 39.1909 123.31 39.5096C124.107 39.8637 126.607 40.7845 126.897 40.6074C127.332 40.3595 127.151 39.8637 126.354 39.545C125.557 39.2263 123.238 38.0931 123.419 37.7035C123.6 37.314 127.622 39.0846 127.622 39.0846C127.622 39.0846 128.419 39.6158 128.673 39.1555C129.107 38.341 124.723 36.7474 124.288 36.6057C123.999 36.4995 124.18 36.0745 124.506 36.1808C124.832 36.3224 128.455 38.0222 128.89 37.2077C129.18 36.5703 125.23 35.8975 124.687 35.1184Z" fill="#B78876"/>
<path d="M68.8877 65.787L73.2357 77.9692C73.2357 77.9692 84.7941 76.0569 86.6058 75.7028C87.9826 75.4549 90.6639 75.2778 92.4031 73.6488L94.3597 77.2255L97.1497 82.3251L109.469 77.261L100.012 56.7212L78.562 61.8915L68.8877 65.787Z" fill="#263238"/>
<path d="M96.6428 67.7344C96.6428 67.7344 96.6791 68.1239 96.5704 68.7968C96.4617 69.4696 96.1356 70.4258 95.4471 71.4528C94.7587 72.4444 93.6355 73.5068 92.1137 74.1796C90.6281 74.8525 88.8527 75.3128 87.0048 75.6316C83.309 76.3044 79.9393 76.9064 77.4754 77.3668C76.2797 77.5793 75.3014 77.7564 74.5767 77.8626C74.2506 77.9334 73.997 77.9688 73.7796 78.0043C73.5984 78.0397 73.4897 78.0397 73.4897 78.0397C73.4897 78.0397 73.5984 78.0043 73.7434 77.9688C73.9245 77.9334 74.2144 77.8626 74.5405 77.7918C75.2289 77.6501 76.2072 77.4731 77.4029 77.2252C79.8668 76.7648 83.2003 76.1274 86.8961 75.4545C88.744 75.1358 90.4832 74.6754 91.9687 74.038C93.4543 73.4005 94.5775 72.3735 95.266 71.4174C95.9906 70.4258 96.2805 69.505 96.4254 68.8322C96.6428 68.1239 96.6066 67.7344 96.6428 67.7344Z" fill="#455A64"/>
<path d="M97.3308 82.1835C97.2946 82.2189 96.2438 80.342 94.9756 78.0401C93.7075 75.7383 92.7292 73.8259 92.8016 73.7905C92.8379 73.7551 93.8886 75.632 95.1568 77.9339C96.3887 80.2712 97.367 82.1481 97.3308 82.1835Z" fill="#455A64"/>
<path d="M87.1861 59.6963C87.1861 59.6963 87.2223 59.7671 87.2223 59.9088C87.2223 60.0504 87.2585 60.2629 87.2585 60.5108C87.2585 61.042 87.2223 61.8211 86.9324 62.7772C86.7875 63.2376 86.5701 63.7334 86.2078 64.1938C85.8454 64.6541 85.3382 65.0437 84.7947 65.3978C83.6714 66.0707 82.367 66.6373 80.9539 67.1331C78.164 68.1601 75.5552 68.9391 73.671 69.5058C72.7652 69.7891 72.0043 70.037 71.4608 70.214C71.2072 70.2848 71.026 70.3557 70.8448 70.3911C70.6999 70.4265 70.6274 70.4619 70.6274 70.4619C70.6274 70.4619 70.6999 70.4265 70.8448 70.3557C70.9898 70.2848 71.2072 70.214 71.4246 70.1432C71.9318 69.9661 72.6927 69.6828 73.6348 69.3995C75.4827 68.7975 78.0915 68.0184 80.8815 66.956C82.2946 66.4248 83.599 65.8936 84.686 65.2207C85.2295 64.8666 85.7367 64.5125 86.0628 64.0875C86.3889 63.6272 86.6063 63.1668 86.7875 62.7064C87.0774 61.7857 87.1498 61.0066 87.1861 60.4754C87.1861 60.1921 87.1861 60.015 87.1861 59.8734C87.1861 59.7671 87.1861 59.6963 87.1861 59.6963Z" fill="#EBEBEB"/>
<path d="M89.1783 59.3418C89.1783 59.3418 89.2146 59.4126 89.2508 59.5897C89.287 59.7313 89.3233 59.9792 89.3957 60.298C89.4682 60.9 89.5407 61.8207 89.3595 62.9186C89.2508 63.4498 89.0696 64.0518 88.7798 64.6538C88.4899 65.2559 88.0551 65.8225 87.5116 66.3537C86.3884 67.3807 84.7941 67.9473 83.1998 68.5493C79.9751 69.7534 77.0039 70.7095 74.8299 71.347C73.7429 71.6657 72.8733 71.9136 72.2574 72.0552C71.6414 72.1969 71.2791 72.2323 71.2791 72.1615C71.2791 72.2677 72.6197 71.8782 74.7937 71.2053C76.9315 70.5325 79.9026 69.5409 83.1274 68.3368C84.7216 67.6994 86.2797 67.1682 87.4029 66.1766C87.9464 65.6808 88.345 65.1142 88.6348 64.5476C88.9247 63.981 89.1059 63.3789 89.2146 62.8477C89.432 61.7853 89.3595 60.8646 89.3233 60.2626C89.287 59.9438 89.2508 59.7313 89.2146 59.5543C89.1783 59.448 89.1783 59.3418 89.1783 59.3418Z" fill="#EBEBEB"/>
<path d="M100.265 80.7316C100.265 80.7316 100.193 80.6253 100.048 80.3774C99.9031 80.1295 99.7219 79.8108 99.5045 79.4213C99.0335 78.6068 98.4175 77.5089 97.7291 76.2695C97.0044 75.0654 96.3522 73.9676 95.8812 73.1531C95.6638 72.7989 95.4826 72.4802 95.3377 72.1969C95.1927 71.9844 95.1565 71.8428 95.1565 71.8428C95.1565 71.8428 95.2652 71.949 95.4101 72.1615C95.5551 72.374 95.7725 72.6927 96.0261 73.0822C96.5334 73.8613 97.1856 74.9592 97.9102 76.1632C98.6349 77.3673 99.2146 78.5005 99.6494 79.315C99.8668 79.74 100.012 80.0587 100.12 80.3066C100.229 80.5899 100.265 80.7316 100.265 80.7316Z" fill="#455A64"/>
<path d="M100.556 56.6156L94.7226 48.4705L88.7803 33.1011L88.563 25.0269L84.7222 25.0977C81.425 25.1685 78.2002 25.9122 75.2291 27.3287C73.9609 27.9308 72.7652 28.6744 71.6782 29.5598L69.7216 31.1534C67.2215 33.4198 64.033 36.7487 62.0039 39.5818L56.7139 46.0624L65.0475 52.3306L71.0985 46.452L79.1423 55.9428L78.5626 61.9276L100.556 56.6156Z" fill="url(#paint0_radial)"/>
<path d="M87.3667 25.0967L93.6713 24.9551L94.6496 34.1272L88.4537 34.8354L87.3667 25.0967Z" fill="#D902EE"/>
<path d="M70.0476 44.7505C70.0476 45.7421 70.0838 46.769 70.3012 47.7606C70.5549 48.7522 71.0259 49.7083 71.823 50.3104C72.6926 50.9832 73.8159 51.2311 74.9029 51.1957C75.9899 51.1603 77.0769 50.877 78.1276 50.5937" fill="#D902EE"/>
<g opacity="0.2">
<path opacity="0.2" d="M70.229 47.3005C70.229 47.3005 70.3739 48.3275 70.8812 49.1774C71.3885 50.0627 72.1131 50.5939 72.9827 50.9126C73.7799 51.196 75.2654 51.196 75.2654 51.196C75.2654 51.196 77.4032 53.9582 78.2003 54.8435C79.1424 55.9059 79.9395 55.4456 79.9395 55.4456C80.3381 55.1623 80.3381 54.3477 80.3381 54.4186C80.3381 54.5248 80.2656 53.7811 80.0845 53.2853C79.3598 51.0543 77.9829 49.0712 76.2075 47.513C76.2075 47.513 76.1713 47.513 76.1713 47.4776C74.7582 46.2381 72.6566 46.0256 70.9899 46.8755L70.229 47.3005Z" fill="black"/>
</g>
<g opacity="0.2">
<path opacity="0.2" d="M89.3963 34.6933C88.5992 33.0289 88.2368 31.2228 88.3455 29.3813C89.6499 30.8333 90.1934 32.9227 89.7949 34.7996" fill="black"/>
</g>
<path d="M72.1858 44.2201C72.1496 44.2201 72.5482 43.6181 72.7656 42.5203C73.0192 41.4579 72.983 39.8289 72.1496 38.3061C71.3162 36.8187 69.9394 35.898 68.8524 35.5085C67.8016 35.1189 67.0407 35.1189 67.0769 35.0835C67.0769 35.0835 67.1132 35.0835 67.2219 35.0835C67.2943 35.0835 67.4393 35.0835 67.5842 35.1189C67.9103 35.1543 68.3813 35.2251 68.9248 35.4376C69.4683 35.6147 70.0843 35.9334 70.7003 36.3938C71.3162 36.8542 71.896 37.4916 72.3308 38.2353C72.7656 39.0144 72.983 39.8289 73.0554 40.5725C73.1279 41.3162 73.0554 41.9891 72.9105 42.5557C72.7655 43.1223 72.5844 43.5472 72.4395 43.8305C72.367 43.9722 72.2945 44.0784 72.2583 44.1493C72.2221 44.1847 72.1858 44.2201 72.1858 44.2201Z" fill="#263238"/>
<path d="M87.1136 28.1421C87.1136 28.1421 87.1498 28.2483 87.2223 28.4254C87.2947 28.6379 87.4034 28.8858 87.5121 29.1691C87.7658 29.8065 88.0556 30.6918 88.418 31.6834C88.7803 32.675 89.0702 33.5603 89.2876 34.1977C89.505 34.8352 89.6137 35.2601 89.5774 35.2601C89.5412 35.2601 89.3963 34.8706 89.1426 34.2332C88.889 33.5957 88.5629 32.7104 88.2368 31.7188C87.8745 30.7272 87.5846 29.8419 87.4034 29.1691C87.186 28.567 87.0773 28.1421 87.1136 28.1421Z" fill="#263238"/>
<path d="M92.9834 50.1343C92.9834 50.1343 92.8747 50.2051 92.6935 50.3113C92.5123 50.4176 92.1863 50.5592 91.8239 50.7009C91.4254 50.8425 90.9543 50.9842 90.447 51.0904C89.9035 51.1966 89.3238 51.2675 88.6716 51.2675C88.0557 51.2675 87.4397 51.1966 86.8962 51.0904C86.3527 50.9842 85.8817 50.8425 85.5193 50.7009C85.1208 50.5592 84.8309 50.4176 84.6497 50.3113C84.4323 50.2051 84.3599 50.1343 84.3599 50.1343C84.3599 50.0988 84.8309 50.3467 85.5918 50.5946C85.9904 50.7363 86.4252 50.8425 86.9687 50.9487C87.5122 51.055 88.0919 51.0904 88.7079 51.0904C89.3238 51.0904 89.9035 51.0196 90.447 50.9487C90.9543 50.8425 91.4254 50.7363 91.8239 50.5946C92.5124 50.3467 92.9834 50.0988 92.9834 50.1343Z" fill="#263238"/>
<path d="M69.9395 36.0747C69.9395 36.0747 69.8308 36.2518 69.5771 36.6059C69.3597 36.9246 68.9974 37.385 68.5626 37.9516C67.693 39.0848 66.4611 40.643 65.0842 42.3429C63.7073 44.0427 62.4029 45.5301 61.4609 46.6279C60.9898 47.1591 60.5913 47.5841 60.3376 47.9028C60.0478 48.1861 59.9028 48.3632 59.9028 48.3632C59.9028 48.3632 60.0115 48.1861 60.3014 47.8674C60.5913 47.5487 60.9536 47.0883 61.3884 46.5571C62.2942 45.4593 63.5986 43.9365 64.9755 42.2366C66.3524 40.5368 67.6205 39.014 68.4901 37.8808C68.9249 37.3496 69.2873 36.8892 69.5409 36.5705C69.7945 36.2518 69.9395 36.0747 69.9395 36.0747Z" fill="#EBEBEB"/>
<path d="M68.3083 35.2955C68.3083 35.2955 68.1996 35.4726 67.9822 35.7913C67.7648 36.11 67.4025 36.5704 66.9677 37.137C66.0981 38.2702 64.9024 39.793 63.5618 41.4574C62.1849 43.1218 60.9167 44.5738 60.0109 45.6361C59.5399 46.1673 59.1775 46.5923 58.8877 46.8756C58.634 47.1589 58.4529 47.336 58.4529 47.3006C58.4529 47.3006 58.5616 47.1235 58.8152 46.8048C59.1051 46.4861 59.4312 46.0611 59.866 45.5299C60.7718 44.4675 62.0037 42.9802 63.3806 41.3157C64.7575 39.6513 65.9532 38.1286 66.8228 37.0307C67.2576 36.4996 67.5837 36.0746 67.8735 35.7205C68.1272 35.4372 68.2721 35.2601 68.3083 35.2955Z" fill="#EBEBEB"/>
<path d="M93.6354 25.5919C93.6354 25.6273 93.2006 25.6273 92.476 25.6273C91.7513 25.6273 90.773 25.6273 89.686 25.6627C88.599 25.6982 87.6207 25.6981 86.896 25.7336C86.1714 25.769 85.7366 25.769 85.7366 25.7336C85.7366 25.6981 86.1714 25.6627 86.896 25.5919C87.6207 25.5211 88.599 25.4856 89.686 25.4502C90.773 25.4148 91.7513 25.4502 92.476 25.4856C93.2006 25.5211 93.6354 25.5565 93.6354 25.5919Z" fill="#EBEBEB"/>
<path d="M93.9252 26.6549C93.9252 26.6903 92.2585 26.7611 90.1932 26.7965C88.1279 26.8319 86.4612 26.7965 86.4612 26.7611C86.4612 26.7257 88.1279 26.6549 90.1932 26.6195C92.2585 26.584 93.9252 26.584 93.9252 26.6549Z" fill="#EBEBEB"/>
<path d="M72.5476 9.62052C72.765 9.833 72.9824 10.0455 73.236 10.2225C73.7795 10.5413 74.4317 10.6475 75.0114 10.86C75.9535 11.2141 76.7144 11.9932 77.0767 12.9494C77.4391 13.9055 77.3304 14.9679 76.8594 15.8533C76.6057 16.3136 76.2434 16.7386 76.1347 17.2344C76.026 17.7656 76.1709 18.3322 76.2071 18.8634C76.2071 19.7487 75.8086 20.5986 75.1202 21.1653C74.4317 21.6965 73.4534 21.9089 72.5838 21.7319C71.9316 21.5902 71.3157 21.1653 71.1345 20.5278C70.9533 19.7841 71.3881 19.005 71.207 18.2968C71.0258 17.5885 70.3011 17.1281 70.0475 16.4199C69.7939 15.6054 70.2287 14.6492 69.7939 13.9409C69.3591 13.2327 68.3808 13.1973 67.5836 12.9494C66.3879 12.5598 65.4821 11.462 65.3372 10.2225L65.9894 9.86842C66.1343 9.37263 66.3517 8.87684 66.8227 8.45188C66.7865 8.38106 69.1779 6.99994 72.5476 9.62052Z" fill="#263238"/>
<path d="M27.6181 25.7339C27.6181 25.7339 27.5456 25.7693 27.3645 25.8401C27.1833 25.911 26.9297 25.9818 26.6398 26.0526C26.0238 26.2651 25.118 26.5838 24.0672 27.115C23.0165 27.6462 21.8208 28.3899 20.6251 29.3815C20.0453 29.8773 19.4656 30.4439 18.8859 31.0813C18.3424 31.7187 17.7989 32.3916 17.2916 33.1353C16.6032 34.1623 16.0959 35.2247 15.6973 36.2517L15.6249 36.3933L15.5162 36.2871C14.6828 35.2247 13.6683 34.4456 12.69 33.879C11.7117 33.3123 10.7334 32.9936 9.90002 32.7811C9.06665 32.6041 8.41445 32.5333 7.94342 32.4978C7.72602 32.4978 7.54485 32.4978 7.39992 32.4978C7.29122 32.4978 7.21875 32.4978 7.21875 32.4978C7.21875 32.4978 7.29122 32.4978 7.39992 32.4624C7.50862 32.4624 7.68978 32.427 7.94342 32.4624C8.41445 32.4624 9.10288 32.4978 9.93625 32.6749C10.7696 32.852 11.7479 33.1707 12.7624 33.7373C13.777 34.3039 14.7915 35.1184 15.6611 36.1808L15.5162 36.2162C15.9147 35.1893 16.4582 34.0914 17.1467 33.0645C17.6177 32.3208 18.1974 31.6125 18.7409 30.9751C19.3207 30.3376 19.9004 29.771 20.5164 29.2752C21.7121 28.2836 22.944 27.54 23.9948 27.0088C25.0455 26.4776 25.9876 26.1943 26.6036 25.9818C26.9297 25.911 27.1471 25.8401 27.3645 25.8047C27.5456 25.7339 27.6181 25.7339 27.6181 25.7339Z" fill="#263238"/>
<path d="M23.4512 23.8572C23.4512 23.8218 24.0671 23.7864 24.7918 23.8218C25.5165 23.8572 26.1324 23.9281 26.1324 23.9635C26.1324 23.9989 25.5165 24.0343 24.7918 23.9989C24.0309 23.9635 23.4512 23.8926 23.4512 23.8572Z" fill="#263238"/>
<path d="M24.7556 21.6617C24.7918 21.6263 25.2629 21.8034 25.8064 22.0867C26.3499 22.37 26.7847 22.6533 26.7484 22.6887C26.7122 22.7242 26.2412 22.5471 25.6977 22.2638C25.1904 21.9804 24.7556 21.6971 24.7556 21.6617Z" fill="#263238"/>
<path d="M30.1185 29.6299C30.0823 29.6299 29.9374 28.9925 30.0461 28.2134C30.1548 27.4343 30.4809 26.8677 30.5171 26.8677C30.5533 26.9031 30.3359 27.4697 30.2272 28.2134C30.1185 28.9925 30.191 29.5945 30.1185 29.6299Z" fill="#263238"/>
<path d="M33.8503 29.7365C33.8141 29.7719 33.5242 29.2053 33.1981 28.4616C32.9083 27.7533 32.6909 27.1512 32.7271 27.1158C32.7633 27.0804 33.0532 27.647 33.3793 28.3907C33.7054 29.1344 33.9228 29.7365 33.8503 29.7365Z" fill="#263238"/>
<path d="M31.2048 24.7076C32.8057 24.7076 34.1035 23.4392 34.1035 21.8746C34.1035 20.3099 32.8057 19.0415 31.2048 19.0415C29.6039 19.0415 28.3062 20.3099 28.3062 21.8746C28.3062 23.4392 29.6039 24.7076 31.2048 24.7076Z" fill="#455A64"/>
<path d="M30.4439 24.7426C30.4077 24.7426 30.5888 24.4947 30.6975 24.0344C30.8062 23.6094 30.8062 22.9366 30.4439 22.3346C30.0816 21.7325 29.5018 21.4138 29.067 21.2722C28.6323 21.1305 28.3424 21.1659 28.3062 21.1305C28.3062 21.1305 28.596 21.0243 29.067 21.1659C29.5381 21.2722 30.1903 21.6263 30.5888 22.2637C30.9874 22.9012 30.9512 23.6448 30.8062 24.0698C30.6975 24.5302 30.4801 24.778 30.4439 24.7426Z" fill="#263238"/>
<path d="M33.8501 23.3273C33.8501 23.3627 33.524 23.2919 33.1254 23.044C32.6906 22.7961 32.1471 22.3357 31.821 21.6628C31.4949 20.99 31.4225 20.2817 31.4949 19.8213C31.5674 19.3255 31.7123 19.0776 31.7123 19.0776C31.7485 19.0776 31.6399 19.3609 31.6399 19.8213C31.6036 20.2817 31.6761 20.9546 32.0022 21.5566C32.3283 22.194 32.7993 22.6544 33.1979 22.9023C33.5965 23.221 33.8863 23.2919 33.8501 23.3273Z" fill="#263238"/>
<defs>
<radialGradient id="paint0_radial" cx="0" cy="0" r="1" gradientUnits="userSpaceOnUse" gradientTransform="translate(29.1754 -45.0846) rotate(65.3) scale(146.559 165.263)">
<stop stop-color="#FB72AD"/>
<stop offset="1" stop-color="#B643D5"/>
</radialGradient>
</defs>
</svg>
