<svg width="178" height="160" viewBox="0 0 178 160" fill="none" xmlns="http://www.w3.org/2000/svg">
<mask id="mask0" mask-type="alpha" maskUnits="userSpaceOnUse" x="0" y="0" width="178" height="160">
<rect width="178" height="160" rx="5" fill="white"/>
</mask>
<g mask="url(#mask0)">
<path opacity="0.2" fill-rule="evenodd" clip-rule="evenodd" d="M97.117 21.8055C86.7333 21.4073 76.8425 17.6889 67.3969 13.6333C57.9513 9.57767 48.5961 5.06277 38.4604 2.90788C31.9409 1.52182 24.4864 1.32615 19.2314 5.20056C14.178 8.929 12.5442 15.3673 11.6658 21.3387C11.004 25.8322 10.6172 30.5635 12.4274 34.7695C13.6832 37.6876 15.9148 40.1445 17.4582 42.9417C22.8281 52.6768 19.0324 64.6801 13.2136 74.1843C10.4834 78.6319 7.31563 82.8857 5.21151 87.6233C3.10802 92.3609 2.13037 97.8089 3.97265 102.648C5.80049 107.442 10.1525 111.052 14.8769 113.589C24.4562 118.737 35.746 120.21 46.7463 121.046C71.1078 122.892 95.6 122.088 120.027 121.292C129.067 120.996 138.146 120.696 147.038 119.145C151.977 118.284 157.076 116.919 160.661 113.622C165.213 109.437 166.341 102.348 163.293 97.1004C158.178 88.2965 144.032 86.1101 140.458 76.6626C138.49 71.4625 140.51 65.6679 143.371 60.8453C149.507 50.4993 159.791 41.4223 160.332 29.5965C160.708 21.4677 155.76 13.3395 148.112 9.49588C140.099 5.46733 128.99 5.9738 123.077 12.643C116.983 19.5172 106.286 22.1597 97.117 21.8055Z" fill="#F8AFA6"/>
<path d="M86.0124 143.602C86.0124 143.602 80.0624 133.064 71.0959 130.028C67.3328 128.753 64.0489 126.356 61.8029 123.081C60.7404 121.525 59.8224 119.876 59.0608 118.152" stroke="#535461" stroke-width="2"/>
<path fill-rule="evenodd" clip-rule="evenodd" d="M53.4235 116.203C54.4444 117.193 59.2021 118.218 59.2021 118.218C59.2021 118.218 58.0379 113.498 57.0132 112.506C56.519 112.048 55.8654 111.802 55.1923 111.819C54.5185 111.837 53.8787 112.117 53.4096 112.601C52.9406 113.084 52.6794 113.732 52.6819 114.405C52.6844 115.078 52.9506 115.724 53.4235 116.203Z" fill="#FA7268" fill-opacity="0.6"/>
<path fill-rule="evenodd" clip-rule="evenodd" d="M56.1141 124.747C57.5112 125.023 62.0641 123.3 62.0641 123.3C62.0641 123.3 58.5164 119.97 57.1206 119.693C56.7859 119.62 56.44 119.615 56.1028 119.677C55.7656 119.739 55.4447 119.867 55.1578 120.055C54.8714 120.243 54.6253 120.486 54.4332 120.77C54.2417 121.053 54.1085 121.373 54.042 121.708C53.9754 122.044 53.976 122.39 54.0451 122.726C54.1136 123.062 54.2479 123.38 54.4413 123.663C54.6347 123.946 54.8821 124.187 55.1697 124.374C55.4573 124.559 55.7794 124.686 56.1166 124.747H56.1141Z" fill="#FA7268" fill-opacity="0.6"/>
<path fill-rule="evenodd" clip-rule="evenodd" d="M65.9138 133.988C67.2594 133.523 70.3123 129.739 70.3123 129.739C70.3123 129.739 65.5685 128.654 64.2235 129.12C63.5975 129.358 63.0889 129.83 62.805 130.436C62.5212 131.043 62.4848 131.736 62.7033 132.368C62.9218 133.001 63.3783 133.524 63.9761 133.827C64.5739 134.129 65.2652 134.187 65.905 133.988H65.9138Z" fill="#FA7268" fill-opacity="0.6"/>
<path fill-rule="evenodd" clip-rule="evenodd" d="M74.9041 139.318C76.3087 139.087 79.9619 135.874 79.9619 135.874C79.9619 135.874 75.4692 134.004 74.0646 134.235C73.4009 134.358 72.8125 134.737 72.4251 135.288C72.0371 135.841 71.882 136.523 71.9919 137.188C72.1017 137.853 72.4678 138.449 73.0128 138.848C73.5572 139.246 74.236 139.414 74.9041 139.318Z" fill="#FA7268" fill-opacity="0.6"/>
<path fill-rule="evenodd" clip-rule="evenodd" d="M66.0293 119.611C66.0293 121.033 63.4536 125.16 63.4536 125.16C63.4536 125.16 60.8748 121.035 60.8729 119.613C60.8729 118.93 61.1448 118.274 61.6283 117.791C62.1118 117.308 62.7673 117.037 63.4511 117.037C64.1349 117.037 64.7904 117.308 65.2739 117.791C65.7574 118.274 66.0293 118.93 66.0293 119.613V119.611Z" fill="#FA7268" fill-opacity="0.6"/>
<path fill-rule="evenodd" clip-rule="evenodd" d="M76.4639 125.973C76.0382 127.331 72.3455 130.498 72.3455 130.498C72.3455 130.498 71.1192 125.791 71.5443 124.434C71.6341 124.098 71.791 123.783 72.0051 123.51C72.2199 123.236 72.4874 123.008 72.7919 122.84C73.0971 122.673 73.4324 122.568 73.779 122.534C74.125 122.499 74.4747 122.535 74.8062 122.639C75.1384 122.743 75.4461 122.913 75.7104 123.139C75.9748 123.365 76.1908 123.642 76.3452 123.953C76.4997 124.265 76.5895 124.604 76.6096 124.952C76.6291 125.299 76.5782 125.646 76.4601 125.973H76.4639Z" fill="#FA7268" fill-opacity="0.6"/>
<path fill-rule="evenodd" clip-rule="evenodd" d="M85.7563 133.549C85.5673 134.958 82.4629 138.704 82.4629 138.704C82.4629 138.704 80.458 134.273 80.652 132.862C80.6972 132.527 80.8077 132.204 80.9779 131.912C81.1481 131.619 81.3741 131.363 81.6429 131.158C81.9122 130.953 82.2186 130.803 82.5458 130.716C82.8729 130.629 83.2139 130.608 83.5498 130.653C83.8851 130.698 84.2079 130.809 84.5005 130.979C84.7931 131.148 85.0499 131.374 85.2552 131.644C85.4599 131.912 85.6106 132.219 85.6973 132.546C85.7839 132.873 85.8053 133.214 85.76 133.549H85.7563Z" fill="#FA7268" fill-opacity="0.6"/>
<path opacity="0.25" fill-rule="evenodd" clip-rule="evenodd" d="M53.4235 116.203C54.4444 117.193 59.2021 118.218 59.2021 118.218C59.2021 118.218 58.0379 113.498 57.0132 112.506C56.519 112.048 55.8654 111.802 55.1923 111.819C54.5185 111.837 53.8787 112.117 53.4096 112.601C52.9406 113.084 52.6794 113.732 52.6819 114.405C52.6844 115.078 52.9506 115.724 53.4235 116.203Z" fill="#FA7268"/>
<path opacity="0.25" fill-rule="evenodd" clip-rule="evenodd" d="M56.1141 124.747C57.5112 125.023 62.0641 123.3 62.0641 123.3C62.0641 123.3 58.5164 119.97 57.1206 119.693C56.7859 119.62 56.44 119.615 56.1028 119.677C55.7656 119.739 55.4447 119.867 55.1578 120.055C54.8714 120.243 54.6253 120.486 54.4332 120.77C54.2417 121.053 54.1085 121.373 54.042 121.708C53.9754 122.044 53.976 122.39 54.0451 122.726C54.1136 123.062 54.2479 123.38 54.4413 123.663C54.6347 123.946 54.8821 124.187 55.1697 124.374C55.4573 124.559 55.7794 124.686 56.1166 124.747H56.1141Z" fill="#FA7268"/>
<path opacity="0.25" fill-rule="evenodd" clip-rule="evenodd" d="M65.9138 133.988C67.2594 133.523 70.3123 129.739 70.3123 129.739C70.3123 129.739 65.5685 128.654 64.2235 129.12C63.5975 129.358 63.0889 129.83 62.805 130.436C62.5212 131.043 62.4848 131.736 62.7033 132.368C62.9218 133.001 63.3783 133.524 63.9761 133.827C64.5739 134.129 65.2652 134.187 65.905 133.988H65.9138Z" fill="#FA7268"/>
<path opacity="0.25" fill-rule="evenodd" clip-rule="evenodd" d="M74.9041 139.318C76.3087 139.087 79.9619 135.874 79.9619 135.874C79.9619 135.874 75.4692 134.004 74.0646 134.235C73.4009 134.358 72.8125 134.737 72.4251 135.288C72.0371 135.841 71.882 136.523 71.9919 137.188C72.1017 137.853 72.4678 138.449 73.0128 138.848C73.5572 139.246 74.236 139.414 74.9041 139.318Z" fill="#FA7268"/>
<path opacity="0.25" fill-rule="evenodd" clip-rule="evenodd" d="M66.0293 119.611C66.0293 121.033 63.4536 125.16 63.4536 125.16C63.4536 125.16 60.8748 121.035 60.8729 119.613C60.8729 118.93 61.1448 118.274 61.6283 117.791C62.1118 117.308 62.7673 117.037 63.4511 117.037C64.1349 117.037 64.7904 117.308 65.2739 117.791C65.7574 118.274 66.0293 118.93 66.0293 119.613V119.611Z" fill="#FA7268"/>
<path opacity="0.25" fill-rule="evenodd" clip-rule="evenodd" d="M76.4639 125.973C76.0382 127.331 72.3455 130.498 72.3455 130.498C72.3455 130.498 71.1192 125.791 71.5443 124.434C71.6341 124.098 71.791 123.783 72.0051 123.51C72.2199 123.236 72.4874 123.008 72.7919 122.84C73.0971 122.673 73.4324 122.568 73.779 122.534C74.125 122.499 74.4747 122.535 74.8062 122.639C75.1384 122.743 75.4461 122.913 75.7104 123.139C75.9748 123.365 76.1908 123.642 76.3452 123.953C76.4997 124.265 76.5895 124.604 76.6096 124.952C76.6291 125.299 76.5782 125.646 76.4601 125.973H76.4639Z" fill="#FA7268"/>
<path opacity="0.25" fill-rule="evenodd" clip-rule="evenodd" d="M85.7563 133.549C85.5673 134.958 82.4629 138.704 82.4629 138.704C82.4629 138.704 80.458 134.273 80.652 132.862C80.6972 132.527 80.8077 132.204 80.9779 131.912C81.1481 131.619 81.3741 131.363 81.6429 131.158C81.9122 130.953 82.2186 130.803 82.5458 130.716C82.8729 130.629 83.2139 130.608 83.5498 130.653C83.8851 130.698 84.2079 130.809 84.5005 130.979C84.7931 131.148 85.0499 131.374 85.2552 131.644C85.4599 131.912 85.6106 132.219 85.6973 132.546C85.7839 132.873 85.8053 133.214 85.76 133.549H85.7563Z" fill="black"/>
<path d="M85.6697 143.391C85.6697 143.391 84.5055 131.347 77.5376 124.94C74.6141 122.251 72.5835 118.735 71.8588 114.826C71.5179 112.973 71.3477 111.093 71.3509 109.209" stroke="#535461" stroke-width="2"/>
<path fill-rule="evenodd" clip-rule="evenodd" d="M66.9862 105.146C67.518 106.466 71.4519 109.33 71.4519 109.33C71.4519 109.33 72.2989 104.54 71.7671 103.22C71.6409 102.906 71.4531 102.62 71.2164 102.378C70.979 102.136 70.6965 101.944 70.385 101.811C70.073 101.678 69.7383 101.608 69.3999 101.605C69.0608 101.601 68.7249 101.665 68.4103 101.791C68.0963 101.918 67.81 102.105 67.5682 102.342C67.3265 102.579 67.1331 102.862 67.0006 103.173C66.8681 103.485 66.7978 103.819 66.7947 104.158C66.7915 104.496 66.8549 104.832 66.9812 105.146H66.9862Z" fill="#F45C43"/>
<path fill-rule="evenodd" clip-rule="evenodd" d="M65.9816 114.046C67.1457 114.865 72.0051 115.132 72.0051 115.132C72.0051 115.132 70.1132 110.652 68.949 109.832C68.6721 109.63 68.3582 109.486 68.0254 109.407C67.6926 109.328 67.3473 109.316 67.0094 109.371C66.6716 109.427 66.3483 109.549 66.0588 109.731C65.7687 109.913 65.5175 110.151 65.321 110.43C65.1238 110.71 64.9844 111.026 64.911 111.36C64.8375 111.694 64.8312 112.039 64.8928 112.376C64.9543 112.713 65.0824 113.033 65.2695 113.32C65.456 113.607 65.6984 113.853 65.9816 114.045V114.046Z" fill="#F45C43"/>
<path fill-rule="evenodd" clip-rule="evenodd" d="M71.1913 126.467C72.6142 126.586 76.9398 124.365 76.9398 124.365C76.9398 124.365 73.0424 121.449 71.6233 121.333C71.2824 121.298 70.937 121.33 70.608 121.428C70.279 121.527 69.9738 121.691 69.7088 121.909C69.4439 122.128 69.226 122.397 69.0665 122.701C68.9076 123.005 68.8103 123.338 68.7814 123.68C68.7532 124.022 68.7927 124.366 68.8988 124.693C69.005 125.018 69.1751 125.32 69.3999 125.58C69.6241 125.84 69.8985 126.052 70.2061 126.204C70.5138 126.357 70.8491 126.446 71.1913 126.467Z" fill="#F45C43"/>
<path fill-rule="evenodd" clip-rule="evenodd" d="M77.25 134.979C78.6289 135.336 83.2717 133.877 83.2717 133.877C83.2717 133.877 79.923 130.348 78.5454 129.991C77.8873 129.832 77.1935 129.937 76.6133 130.285C76.0331 130.633 75.6124 131.194 75.4429 131.849C75.2727 132.503 75.3676 133.198 75.706 133.784C76.0444 134.369 76.5995 134.798 77.2519 134.979H77.25Z" fill="#F45C43"/>
<path fill-rule="evenodd" clip-rule="evenodd" d="M77.1288 113.366C76.5517 114.667 72.5237 117.396 72.5237 117.396C72.5237 117.396 71.838 112.581 72.4138 111.281C72.6926 110.659 73.2069 110.173 73.8429 109.929C74.479 109.685 75.186 109.703 75.8095 109.979C76.4324 110.254 76.9209 110.765 77.1683 111.4C77.4157 112.034 77.4013 112.742 77.1288 113.366Z" fill="#F45C43"/>
<path fill-rule="evenodd" clip-rule="evenodd" d="M84.088 123.409C83.1486 124.478 78.4883 125.878 78.4883 125.878C78.4883 125.878 79.2763 121.078 80.215 120.01C80.4386 119.756 80.7098 119.548 81.0131 119.399C81.317 119.25 81.6473 119.162 81.9845 119.139C82.3223 119.118 82.6614 119.163 82.9816 119.272C83.3018 119.38 83.5976 119.552 83.8519 119.774C84.1062 119.998 84.314 120.269 84.4634 120.572C84.6129 120.875 84.7014 121.206 84.7234 121.543C84.7447 121.88 84.7002 122.219 84.5915 122.539C84.4823 122.859 84.3115 123.155 84.088 123.409Z" fill="#F45C43"/>
<path fill-rule="evenodd" clip-rule="evenodd" d="M89.513 134.099C88.7627 135.311 84.4113 137.479 84.4113 137.479C84.4113 137.479 84.3749 132.616 85.1202 131.403C85.4781 130.82 86.0526 130.403 86.7182 130.244C87.3832 130.084 88.0852 130.196 88.6679 130.554C89.2512 130.911 89.6688 131.486 89.8276 132.151C89.9871 132.816 89.876 133.517 89.5181 134.1L89.513 134.099Z" fill="#F45C43"/>
<path opacity="0.1" fill-rule="evenodd" clip-rule="evenodd" d="M95.9302 153C119.511 153 138.628 151.31 138.628 149.225C138.628 147.14 119.511 145.45 95.9302 145.45C72.3492 145.45 53.2325 147.14 53.2325 149.225C53.2325 151.31 72.3492 153 95.9302 153Z" fill="#8C1BAB"/>
<path fill-rule="evenodd" clip-rule="evenodd" d="M146.934 77.9576C147.148 78.4441 147.522 79.2959 147.449 79.4945C147.408 79.6073 147.534 79.8739 147.68 80.1809C147.892 80.6271 148.144 81.1585 147.982 81.4273C147.754 81.8318 147.551 82.2502 147.375 82.6799C147.375 82.6799 146.189 84.933 145.584 85.3596C144.979 85.7861 142.203 89.3673 142.203 89.3673C142.203 89.3673 139.228 92.7736 139.228 93.8256C139.228 93.8256 139.059 93.5482 138.781 93.1291L139.226 100.639C139.226 100.639 138.193 101.515 137.965 101.616C136.906 102.348 135.113 101.194 134.836 100.97C134.686 100.848 133.694 100.88 132.814 100.935C133.009 105.004 132.186 105.78 132.186 105.78L132.086 109.31C132.086 109.31 132.205 114.697 131.827 115.548C131.45 116.398 131.45 119.83 131.45 119.83C131.45 119.83 131.7 121.459 131.424 121.808C131.148 122.158 131.351 123.461 131.553 124.135C131.755 124.81 131.578 126.491 131.578 126.491L131.517 135.947C131.517 135.947 131.24 138.402 130.886 138.754C130.784 138.857 130.711 138.986 130.676 139.127C130.641 139.268 130.643 139.416 130.684 139.555C130.684 139.555 130.382 140.956 130.458 141.207C130.532 141.458 130.687 142.032 130.105 142.309C129.523 142.585 129.674 143.462 129.674 143.462C129.617 143.449 129.553 143.437 129.487 143.428C129.504 143.532 129.524 143.636 129.547 143.737C129.576 143.925 129.646 144.104 129.75 144.263C130.002 144.54 130.155 145.765 130.155 145.765C130.155 145.765 131.063 147.568 130.96 147.97C130.885 148.269 130.797 148.801 130.755 149.059L130.734 149.197C130.734 149.197 130.228 150.302 127.428 150.701C124.627 151.101 124.627 149.774 124.627 149.774C124.627 149.774 124.638 149.631 124.656 149.416C124.705 148.837 124.806 147.714 124.88 147.477C124.981 147.145 124.805 145.722 124.805 145.722L124.774 144.229V143.932C124.513 143.985 124.356 144.02 124.356 144.02C124.356 144.02 123.569 142.416 123.244 141.339C122.918 140.262 123.728 139.586 124.254 139.511C124.78 139.436 123.875 138.509 123.875 138.509C123.875 138.509 123.973 138.385 123.723 137.483C123.484 136.616 123.755 134.455 123.843 133.753C123.846 133.725 123.85 133.698 123.853 133.675C123.928 133.073 124.307 130.169 124.307 130.169C124.307 130.169 124.11 126.486 124.256 126.335C124.403 126.186 124.915 124.735 124.661 124.258C124.408 123.781 124.004 120.65 124.004 120.474C124.004 120.298 123.677 116.242 123.677 116.242C123.677 116.242 123.373 113.412 123.449 112.811C123.525 112.21 123.246 109.981 123.246 109.981C123.246 108.126 122.162 106.122 122.162 106.122L122.135 106.195L119.784 112.317C119.784 112.317 119.404 114.17 119.076 115.222C118.87 115.936 118.706 116.662 118.584 117.396L118.561 117.526C118.558 117.542 118.555 117.558 118.552 117.573C118.545 117.609 118.539 117.641 118.539 117.668L118.524 117.767C118.524 117.767 118.698 119.096 118.421 119.521C118.144 119.947 117.842 121.223 117.842 121.574C117.842 121.926 117.867 123.278 117.867 123.278C117.867 123.278 117.975 125.949 117.695 126.25C117.414 126.552 117.565 126.802 117.565 126.802C117.565 126.802 118.019 128.831 117.817 129.357C117.616 129.883 117.767 131.109 117.767 131.109C117.767 131.109 117.364 134.995 117.313 135.192C117.261 135.39 116.985 136.945 117.287 137.07C117.59 137.196 118.171 137.947 118.171 137.947C118.171 137.947 118.297 141.228 117.843 141.479C117.389 141.729 117.64 143.006 117.64 143.006L117.446 143.043C117.466 143.136 117.485 143.234 117.503 143.333C117.572 143.711 117.624 144.091 117.59 144.239C117.508 144.563 117.767 144.864 117.767 144.864L117.879 145.887L117.918 146.242C117.918 146.242 115.798 147.619 114.739 147.419C113.679 147.219 112.593 147.77 112.593 147.77C111.861 148.563 110.942 149.158 109.918 149.499C108.203 150.074 105.806 149.849 104.443 149.398C103.796 149.185 103.744 148.909 104.055 148.569C104.384 148.208 105.123 147.773 105.989 147.263L106.106 147.194C107.847 146.167 109.713 144.138 109.713 144.138C109.713 144.138 109.739 143.637 110.042 143.413C110.228 143.253 110.398 143.076 110.552 142.885L110.698 142.709C110.587 142.692 110.521 142.685 110.521 142.685L110.78 141.861C110.764 141.89 110.597 142.158 110.478 141.132C110.351 140.056 111.412 140.582 111.412 140.582C111.412 140.582 112.237 140.786 110.899 139.482C109.562 138.179 110.213 136.853 110.294 136.853C110.376 136.853 110.553 134.925 110.553 134.925C110.553 134.925 110.78 133.771 110.604 132.87C110.427 131.969 110.276 129.163 110.276 129.163C110.276 129.163 110.403 127.035 110.176 126.258C109.966 125.543 110.269 124.296 110.378 123.85C110.388 123.811 110.396 123.778 110.402 123.753C110.478 123.428 110.176 120.447 110.176 120.447C110.176 120.447 110.427 119.046 110.276 118.018C110.125 116.99 110.427 113.209 110.427 113.209L110.881 108.851C110.881 108.851 111.218 107.501 111.169 106.948C111.119 106.396 111.547 104.469 111.547 104.469C111.547 104.469 111.491 103.767 111.75 103.267C111.851 103.018 111.919 102.757 111.952 102.491C111.222 101.952 110.788 100.99 110.788 100.99V100.984C110.689 100.808 110.636 100.69 110.636 100.69L111.04 98.9867C111.04 98.9867 111.063 96.6311 111.316 96.1812C111.569 95.7314 111.721 94.4284 111.721 94.4284C111.721 94.4284 112.184 91.5543 112.265 90.9377C112.176 90.9214 112.086 90.9214 111.998 90.9377L112.061 90.6238C111.99 90.6181 111.917 90.6225 111.846 90.6364C111.846 90.6364 112.932 85.1979 113.513 83.9754C114.093 82.7523 113.993 79.3913 113.993 79.3913C113.993 79.3913 112.857 79.7405 112.806 80.0374C112.756 80.335 111.291 82.3647 111.291 82.3647C111.291 82.3647 110.964 83.591 109.45 84.3925C107.935 85.1941 106.269 84.2428 106.017 83.9169C105.794 83.6292 101.543 81.7644 100.548 81.3281L100.494 81.3046C100.44 81.2825 100.388 81.2605 100.339 81.2372C100.339 81.2372 100.342 81.2177 100.35 81.1844V81.1586L100.187 81.0888L100.354 81.1404C100.378 81.0328 100.423 80.839 100.494 80.5879C100.496 80.5828 100.498 80.5775 100.5 80.5721C100.504 80.5615 100.509 80.5505 100.509 80.5401L100.532 80.4577L100.535 80.4475C100.547 80.4065 100.56 80.3634 100.575 80.3193L100.591 80.2702C100.604 80.2237 100.62 80.1746 100.637 80.1255L100.638 80.1227C100.64 80.1162 100.642 80.1101 100.643 80.1035C100.721 79.872 100.813 79.6134 100.923 79.3548L100.276 78.5237L100.199 78.467L98.0073 79.5618C97.9301 79.6002 97.8415 79.6064 97.7599 79.58C97.6783 79.553 97.6105 79.4951 97.5715 79.4183L95.502 75.3319C95.4982 75.3344 95.4938 75.3357 95.4894 75.3363C95.485 75.3363 95.4806 75.3363 95.4768 75.3344C95.4724 75.3331 95.4687 75.3313 95.4655 75.3281C95.4624 75.3256 95.4593 75.3218 95.458 75.318L95.2407 74.8915C95.237 74.8833 95.2364 74.8745 95.2389 74.8663C95.2414 74.8581 95.247 74.8512 95.2546 74.8474L95.1679 74.6776C95.1641 74.6801 95.1597 74.6813 95.1547 74.682C95.1503 74.682 95.1459 74.682 95.1415 74.6801C95.1371 74.6788 95.1327 74.6763 95.1296 74.6732C95.1258 74.67 95.1233 74.6662 95.1214 74.6625L94.908 74.2434C94.9042 74.2353 94.9036 74.2258 94.9061 74.217C94.9092 74.2082 94.9155 74.2013 94.9237 74.1969L94.8056 73.9653C94.7987 73.9691 94.7899 73.9697 94.7824 73.9672C94.7742 73.9641 94.7679 73.9584 94.7642 73.9515L94.6518 73.73C94.6499 73.7269 94.6486 73.7231 94.648 73.7187C94.648 73.7149 94.648 73.7105 94.6493 73.7068C94.6505 73.703 94.6524 73.6992 94.6555 73.6961C94.6581 73.6929 94.6612 73.6904 94.665 73.6891H94.6712L94.3516 73.0619C94.3328 73.0241 94.3215 72.9826 94.3184 72.9404C94.3152 72.8983 94.3209 72.8555 94.3341 72.8152C94.3479 72.775 94.3686 72.7378 94.3968 72.7057C94.4245 72.6737 94.4584 72.6479 94.4967 72.629L97.3518 71.2071C97.4284 71.1681 97.5169 71.1611 97.5985 71.1882C97.6808 71.2146 97.7486 71.2725 97.7875 71.3493L97.9307 71.6324C99.8232 71.8715 102.789 75.2765 102.789 75.2765L103.186 75.7169L103.335 75.8812C103.366 75.7459 103.352 75.6043 103.294 75.4779C103.197 75.3426 103.831 75.9321 104.128 76.2121C104.128 76.2096 104.128 76.2064 104.128 76.2033C104.131 76.2102 104.135 76.2165 104.14 76.2228L104.279 76.3518C104.733 77.1533 106.728 77.6044 106.728 77.6044L107.585 77.0785C107.661 76.1026 109.05 74.9494 109.05 74.9494C109.05 74.9494 109.452 74.5083 109.68 73.5274C109.907 72.5459 110.741 72.6755 110.741 72.6755L110.842 71.2536C110.842 71.2536 111.6 70.8541 111.523 70.0513C111.447 69.2485 112.33 67.697 112.33 67.697C112.33 67.697 112.735 67.5497 112.81 65.9686C112.885 64.3875 113.642 64.2881 113.642 64.2881L115.788 64.1591C115.964 63.5577 120.557 62.831 120.557 62.831C120.557 62.831 121.364 62.5315 121.794 61.8797C122.223 61.2285 122.677 61.4531 122.677 61.4531L122.746 61.5192C122.745 61.5127 122.744 61.5065 122.744 61.5003C122.739 61.4628 122.736 61.4285 122.729 61.382C122.725 61.359 122.722 61.3362 122.719 61.3133C122.715 61.2824 122.711 61.2512 122.707 61.2191C121.713 60.727 120.878 59.9676 120.292 59.0264C119.707 58.0852 119.397 56.9999 119.396 55.8919V55.8063V55.6528C119.231 55.7302 119.06 55.7931 118.885 55.8403C118.842 55.8516 118.799 55.8623 118.755 55.8711C118.585 55.907 118.411 55.9202 118.238 55.9101C118.219 55.909 118.2 55.9064 118.181 55.9037C118.156 55.9003 118.132 55.8969 118.108 55.8969C118.034 55.8862 117.96 55.8699 117.887 55.8491L117.854 55.8403V55.8334C117.879 55.7547 117.906 55.6774 117.935 55.6C118.184 54.9198 118.572 54.2988 119.075 53.7766C119.192 53.6747 119.286 53.5495 119.354 53.4098C119.401 53.2859 119.41 53.1506 119.377 53.0223C119.32 52.8203 119.241 52.6253 119.143 52.4403C119.141 52.4338 119.137 52.4275 119.134 52.4214C119.128 52.4116 119.123 52.4022 119.123 52.3925L119.098 52.3371C119.095 52.3296 119.092 52.3221 119.089 52.3147C119.076 52.2835 119.064 52.2529 119.053 52.222V52.2025C119.04 52.1679 119.03 52.132 119.021 52.0961C119.018 52.0854 119.015 52.0741 119.013 52.0628C119.003 52.02 118.996 51.9772 118.992 51.9338C118.988 51.8904 118.988 51.847 118.992 51.8042C118.992 51.7986 118.992 51.7937 118.991 51.7888C118.99 51.7789 118.989 51.769 118.992 51.7526C118.993 51.7476 118.993 51.7424 118.994 51.7372C118.997 51.7168 119.001 51.6953 119.005 51.6777L119.005 51.6742C119.011 51.6531 119.017 51.6302 119.021 51.6129C119.023 51.6062 119.026 51.5994 119.029 51.5926C119.034 51.5812 119.038 51.5699 119.038 51.5588C119.135 51.309 119.296 51.0888 119.506 50.9215C119.637 50.8124 119.778 50.7183 119.919 50.6243C120.099 50.505 120.278 50.3858 120.436 50.2363C120.758 49.9328 120.969 49.5257 121.18 49.1199C121.412 48.6752 121.642 48.2321 122.016 47.9285C122.637 47.4246 123.49 47.4334 124.261 47.541C124.371 47.5562 124.482 47.5729 124.593 47.5896C125.26 47.6904 125.938 47.7927 126.577 47.5888C126.875 47.4952 127.15 47.3383 127.425 47.1813C127.664 47.0448 127.904 46.9081 128.159 46.813C129.309 46.3852 130.709 46.9552 131.302 48.094C131.503 48.4784 131.615 48.9042 131.727 49.331C131.812 49.6567 131.897 49.9829 132.023 50.2917C132.117 50.5232 132.234 50.7437 132.35 50.9641C132.47 51.1907 132.589 51.4172 132.685 51.6557C132.907 52.2138 132.996 52.8165 132.943 53.4149C132.936 53.5199 132.921 53.6244 132.903 53.7276C132.898 53.7615 132.892 53.7936 132.886 53.8263C132.871 53.9025 132.854 53.9792 132.835 54.0547C132.831 54.0682 132.828 54.0816 132.824 54.0949C132.82 54.1126 132.816 54.1302 132.81 54.1478C132.781 54.2517 132.747 54.3611 132.71 54.453C132.675 54.5449 132.636 54.6367 132.594 54.7273C132.502 54.9286 132.396 55.1244 132.291 55.3199C132.069 55.7343 131.847 56.1475 131.745 56.6091C131.744 56.6117 131.744 56.6148 131.745 56.6173C131.707 56.7903 131.686 56.9671 131.666 57.1446C131.662 57.1685 131.66 57.1921 131.657 57.2157C131.654 57.2393 131.651 57.2629 131.647 57.2868C131.642 57.2993 131.642 57.3061 131.641 57.3177C131.641 57.3255 131.641 57.3353 131.639 57.3503C131.637 57.3635 131.634 57.3788 131.632 57.3939C131.628 57.4212 131.624 57.4481 131.622 57.4623C131.62 57.4701 131.62 57.4756 131.619 57.4812C131.618 57.4914 131.616 57.5019 131.611 57.5271C131.603 57.5661 131.596 57.6045 131.587 57.6422L131.575 57.6976C131.561 57.7536 131.545 57.809 131.527 57.8631C131.44 58.1387 131.247 58.3683 130.992 58.5029C130.97 58.513 130.948 58.5218 130.926 58.5287C130.873 58.5457 130.817 58.5545 130.761 58.5552C130.752 58.5735 130.743 58.592 130.734 58.6106C130.719 58.6417 130.704 58.6729 130.688 58.7036C130.434 59.1743 130.118 59.609 129.749 59.9966C129.751 60.0073 129.754 60.018 129.757 60.0288C129.764 60.0567 129.771 60.0847 129.779 60.1123C129.834 60.2986 129.9 60.4817 129.978 60.6597H129.984L129.994 60.6773C130.076 60.8158 130.638 61.7557 130.944 61.9873C131.271 62.2377 132.028 62.8134 132.028 62.8134C132.028 62.8134 133.113 63.3148 133.492 63.3148C133.871 63.3148 135.908 63.8408 136.167 64.1164C136.289 64.2114 136.44 64.2617 136.595 64.2573C136.773 64.246 136.95 64.224 137.125 64.1912L137.226 64.2233C137.347 64.207 137.428 64.1912 137.428 64.1912C137.428 64.1912 138.261 64.4706 138.993 64.6423C139.725 64.8141 140.078 66.0202 139.927 66.4946C139.866 66.7318 139.866 66.9803 139.928 67.2169C139.99 67.4535 140.111 67.6705 140.281 67.8473C140.583 68.1481 140.734 69.1258 140.734 69.1258C140.734 69.1258 141.335 69.3013 141.593 69.8518C141.768 70.2319 141.779 70.9302 141.779 71.3178C141.777 71.4902 141.771 71.6053 141.771 71.6053C141.774 71.6053 143.285 71.6299 143.436 72.8825C143.588 74.1352 144.976 74.7115 144.976 74.7115C144.976 74.7115 146.011 75.7377 146.011 76.2134C146.011 76.5544 146.412 77.0881 146.64 77.3911C146.73 77.5112 146.793 77.5951 146.793 77.6164C146.793 77.6372 146.852 77.7703 146.934 77.9576ZM138.565 84.3038C138.591 83.9288 140.181 82.2005 140.937 82.125C140.937 82.125 141.06 81.1026 140.733 81.0781C140.406 81.0535 140.128 80.252 140.128 80.252C140.128 80.252 138.548 78.3984 138.039 76.8262L138.01 76.8652C138.01 76.8652 138.062 78.8936 137.911 79.3447C137.823 79.6033 138.014 82.3024 138.193 84.5158C138.198 84.5846 138.204 84.6531 138.21 84.721C138.217 84.8072 138.224 84.8926 138.23 84.977C138.385 84.7675 138.553 84.5014 138.565 84.3038Z" fill="url(#paint0_linear)"/>
<path fill-rule="evenodd" clip-rule="evenodd" d="M100.475 81.5525C100.475 81.5525 101.395 76.7305 104.355 76.706L106.519 81.1555L105.076 82.1502C105.076 82.1502 101.942 82.2496 100.475 81.5525Z" fill="#65617D"/>
<path opacity="0.1" fill-rule="evenodd" clip-rule="evenodd" d="M106.519 81.1542L105.076 82.1496C105.076 82.1496 102.877 82.2194 101.294 81.8318C101.012 81.7658 100.738 81.6726 100.475 81.5525C100.475 81.5525 100.475 81.5267 100.492 81.4751C100.492 81.4688 100.492 81.4625 100.492 81.4568C100.628 80.8516 100.815 80.2589 101.052 79.6857C101.142 79.4699 101.246 79.2459 101.357 79.0239C101.79 78.1902 102.4 77.3729 103.233 76.9684C103.541 76.8167 103.877 76.7293 104.22 76.7098H104.308H104.352L104.398 76.8079L105.13 78.3116L106.519 81.1542Z" fill="black"/>
<path fill-rule="evenodd" clip-rule="evenodd" d="M131.092 101.191C131.092 101.191 134.197 100.892 134.475 101.115C134.753 101.339 136.515 102.483 137.559 101.762C138.603 101.04 137.906 98.5299 137.906 98.4305C137.906 98.3311 137.808 94.7769 137.808 94.7769L135.942 92.2665L133.605 87.8712L128.829 87.3993L128.958 94.3805L128.934 97.9599L131.092 101.191Z" fill="#65617D"/>
<path opacity="0.1" fill-rule="evenodd" clip-rule="evenodd" d="M131.092 101.191C131.092 101.191 134.197 100.892 134.475 101.115C134.753 101.339 136.515 102.483 137.559 101.762C138.603 101.04 137.906 98.5299 137.906 98.4305C137.906 98.3311 137.808 94.7769 137.808 94.7769L135.942 92.2665L133.605 87.8712L128.829 87.3993L128.958 94.3805L128.934 97.9599L131.092 101.191Z" fill="black"/>
<path fill-rule="evenodd" clip-rule="evenodd" d="M103.732 76.582C103.732 76.582 103.485 79.6146 101.594 79.6637C101.594 79.6637 101.058 79.3409 100.338 78.803C98.6774 77.5604 96.0414 75.1727 96.7691 72.9518C97.8146 69.7707 102.887 75.637 102.887 75.637L103.276 76.0743L103.732 76.582Z" fill="#FBBEBE"/>
<path opacity="0.1" fill-rule="evenodd" clip-rule="evenodd" d="M103.733 76.582C103.733 76.582 103.485 79.6146 101.594 79.6637C101.594 79.6637 101.059 79.3409 100.338 78.803L100.177 78.596C100.497 78.7634 100.851 78.8584 101.212 78.8741C101.686 78.8842 102.221 78.7086 102.563 78.0235C102.76 77.6327 102.933 77.2313 103.08 76.8199C103.171 76.5789 103.235 76.3285 103.272 76.0737L103.733 76.582Z" fill="black"/>
<path fill-rule="evenodd" clip-rule="evenodd" d="M102.912 82.0753L102.487 81.5279L101.051 79.6864L100.321 78.7451C100.641 78.9131 100.995 79.0081 101.356 79.0245C101.831 79.0346 102.365 78.859 102.709 78.1726C102.906 77.7819 103.078 77.3798 103.226 76.969C103.463 76.2977 103.458 75.9529 103.375 75.8365C103.292 75.7201 103.903 76.2876 104.197 76.5657L104.207 76.5758C104.291 76.6532 104.345 76.7048 104.345 76.7048L104.396 76.806L105.116 78.2462L105.124 78.3066C105.19 78.7646 105.433 81.6638 102.912 82.0753Z" fill="#E7EFFD"/>
<path fill-rule="evenodd" clip-rule="evenodd" d="M117.811 146.058C117.811 146.058 115.722 147.426 114.678 147.221C113.634 147.017 112.563 147.57 112.563 147.57C111.843 148.356 110.936 148.946 109.926 149.285C108.235 149.857 105.873 149.633 104.531 149.185C103.894 148.974 103.844 148.7 104.149 148.364C104.489 147.987 105.269 147.534 106.172 146.997C107.887 145.978 109.728 143.965 109.728 143.965C109.728 143.965 109.752 143.468 110.051 143.245C110.234 143.088 110.402 142.915 110.553 142.728C110.82 142.412 111.07 142.081 111.07 142.081L117.214 142.28C117.214 142.28 117.319 142.724 117.401 143.176C117.469 143.547 117.523 143.924 117.488 144.071C117.413 144.392 117.662 144.691 117.662 144.691L117.772 145.706L117.811 146.058Z" fill="#65617D"/>
<path fill-rule="evenodd" clip-rule="evenodd" d="M130.672 147.772C130.598 148.069 130.509 148.603 130.469 148.854C130.454 148.939 130.448 148.99 130.448 148.99C130.448 148.99 129.95 150.084 127.19 150.482C124.43 150.88 124.43 149.562 124.43 149.562C124.43 149.562 124.44 149.419 124.458 149.206C124.506 148.625 124.606 147.512 124.678 147.275C124.778 146.952 124.604 145.535 124.604 145.535L124.574 144.054L124.553 143.02L129.13 142.546C129.159 142.889 129.209 143.228 129.278 143.565C129.306 143.75 129.374 143.926 129.478 144.082C129.727 144.357 129.876 145.574 129.876 145.574C129.876 145.574 130.769 147.373 130.672 147.772Z" fill="#65617D"/>
<path opacity="0.1" fill-rule="evenodd" clip-rule="evenodd" d="M117.22 142.278C117.22 142.278 117.324 142.722 117.406 143.174C116.742 143.296 113.841 143.798 113.115 143.447C112.295 143.049 110.528 142.825 110.528 142.825L110.558 142.724C110.825 142.409 111.075 142.078 111.075 142.078L117.22 142.278Z" fill="black"/>
<path opacity="0.1" fill-rule="evenodd" clip-rule="evenodd" d="M129.275 143.57C128.111 143.374 125.573 143.849 124.572 144.054L124.552 143.02L129.128 142.546C129.157 142.89 129.206 143.232 129.275 143.57Z" fill="black"/>
<path fill-rule="evenodd" clip-rule="evenodd" d="M131.863 105.888L131.764 109.393C131.764 109.393 131.893 114.737 131.516 115.582C131.138 116.428 131.141 119.833 131.141 119.833C131.141 119.833 131.391 121.449 131.117 121.795C130.843 122.142 131.042 123.437 131.246 124.108C131.451 124.779 131.269 126.445 131.269 126.445L131.22 135.841C131.22 135.841 130.947 138.276 130.598 138.625C130.498 138.729 130.427 138.856 130.392 138.996C130.357 139.136 130.36 139.282 130.4 139.421C130.4 139.421 130.102 140.811 130.177 141.061C130.252 141.311 130.4 141.881 129.828 142.153C129.257 142.426 129.405 143.298 129.405 143.298C128.037 142.974 124.158 143.846 124.158 143.846C124.158 143.846 123.382 142.254 123.062 141.185C122.743 140.116 123.535 139.445 124.057 139.375C124.578 139.306 123.684 138.38 123.684 138.38C123.684 138.38 123.784 138.25 123.535 137.361C123.287 136.472 123.585 134.179 123.665 133.583C123.745 132.986 124.113 130.103 124.113 130.103C124.113 130.103 123.915 126.449 124.064 126.299C124.212 126.149 124.71 124.708 124.462 124.231C124.214 123.754 123.815 120.651 123.815 120.482C123.815 120.312 123.492 116.281 123.492 116.281C123.492 116.281 123.195 113.471 123.268 112.876C123.341 112.28 123.069 110.068 123.069 110.068C123.069 108.227 122 106.238 122 106.238L121.973 106.31L119.662 112.385C119.662 112.385 119.289 114.224 118.964 115.268C118.761 115.977 118.599 116.698 118.48 117.426L118.458 117.555C118.448 117.611 118.441 117.658 118.436 117.695L118.42 117.796C118.42 117.796 118.593 119.113 118.32 119.536C118.048 119.958 117.737 121.225 117.737 121.578C117.737 121.931 117.76 123.271 117.76 123.271C117.76 123.271 117.861 125.93 117.587 126.228C117.313 126.527 117.457 126.775 117.457 126.775C117.457 126.775 117.906 128.788 117.707 129.31C117.508 129.832 117.658 131.049 117.658 131.049C117.658 131.049 117.263 134.893 117.219 135.095C117.175 135.297 116.896 136.835 117.194 136.959C117.491 137.083 118.065 137.829 118.065 137.829C118.065 137.829 118.194 141.085 117.742 141.334C117.291 141.582 117.541 142.85 117.541 142.85C117.541 142.85 113.937 143.547 113.115 143.149C112.294 142.75 110.528 142.527 110.528 142.527L110.775 141.71C110.761 141.739 110.597 142.003 110.479 140.986C110.349 139.917 111.4 140.439 111.4 140.439C111.4 140.439 112.22 140.638 110.901 139.345C109.582 138.053 110.23 136.735 110.304 136.735C110.38 136.735 110.553 134.822 110.553 134.822C110.553 134.822 110.776 133.678 110.602 132.784C110.427 131.889 110.28 129.104 110.28 129.104C110.28 129.104 110.409 126.992 110.181 126.221C109.951 125.451 110.329 124.059 110.404 123.734C110.479 123.41 110.181 120.453 110.181 120.453C110.181 120.453 110.43 119.063 110.28 118.044C110.13 117.025 110.43 113.271 110.43 113.271L110.878 108.946C110.878 108.946 111.2 107.604 111.151 107.057C111.101 106.51 111.523 104.601 111.523 104.601C111.523 104.601 111.474 103.904 111.722 103.407C111.971 102.911 112.071 101.271 112.071 101.271L114.459 95.8012L115.623 90.9793L131.417 90.8308C131.417 90.8308 131.475 91.2479 131.57 92.008C131.664 92.768 131.801 93.8942 131.958 95.2828C132.095 96.5443 132.245 98.0285 132.392 99.6782C132.858 104.943 131.863 105.888 131.863 105.888Z" fill="#B643D5"/>
<path fill-rule="evenodd" clip-rule="evenodd" d="M130.397 62.3635L126.714 66.292C126.714 66.292 121.99 64.402 122.487 63.7558C122.68 63.5048 122.648 62.7215 122.537 61.845C122.363 60.4697 121.99 58.8836 121.99 58.8836C121.99 58.8836 130.247 57.5415 129.55 58.9326C129.291 59.4416 129.34 60.0349 129.497 60.5829C129.7 61.2209 130.003 61.8224 130.397 62.3635Z" fill="#FBBEBE"/>
<path opacity="0.1" fill-rule="evenodd" clip-rule="evenodd" d="M129.55 58.9326C129.291 59.4416 129.174 59.4907 129.334 60.0387C128.254 61.2027 126.876 62.4629 125.174 62.4629C124.259 62.4641 123.356 62.2527 122.537 61.845C122.363 60.4697 121.99 58.8836 121.99 58.8836C121.99 58.8836 130.247 57.5415 129.55 58.9326Z" fill="black"/>
<path fill-rule="evenodd" clip-rule="evenodd" d="M131.092 56.3978C131.104 57.1817 130.959 57.9606 130.667 58.6886C130.375 59.4165 129.941 60.079 129.39 60.6377C128.839 61.1964 128.183 61.64 127.459 61.9432C126.735 62.2459 125.957 62.4019 125.173 62.4019C124.388 62.4019 123.611 62.2459 122.887 61.9432C122.163 61.64 121.506 61.1964 120.956 60.6377C120.405 60.079 119.97 59.4165 119.678 58.6886C119.386 57.9606 119.241 57.1817 119.253 56.3978C119.253 56.3688 119.253 56.3405 119.253 56.3122C119.265 54.743 119.899 53.2431 121.017 52.1414C122.135 51.0404 123.645 50.4282 125.215 50.4395C126.784 50.4502 128.286 51.0844 129.388 52.2018C130.49 53.3192 131.102 54.8286 131.091 56.3978H131.092Z" fill="#FBBEBE"/>
<path opacity="0.1" fill-rule="evenodd" clip-rule="evenodd" d="M131.95 95.4256C131.166 95.4325 128.554 95.4545 125.636 95.5011H125.601L124.636 95.5162H124.607C121.147 95.5722 117.737 94.8958 116.369 95.0254C113.458 95.2979 117.412 92.3401 117.412 92.3401C117.412 92.3401 120.562 93.1807 124.042 93.0096L124.879 92.9674C127.523 92.817 130.182 92.5692 131.568 92.1526C131.666 92.9209 131.8 94.0427 131.95 95.4256Z" fill="black"/>
<path fill-rule="evenodd" clip-rule="evenodd" d="M131.95 95.2771C131.166 95.2771 128.554 95.3054 125.636 95.3507H125.601L124.636 95.3677H124.607C121.147 95.4231 117.737 94.7474 116.369 94.8751C113.458 95.1481 117.412 92.1917 117.412 92.1917C117.412 92.1917 120.562 93.0304 124.042 92.8611L124.879 92.8171C127.523 92.6686 130.182 92.4188 131.568 92.0029C131.666 92.7705 131.8 93.8892 131.95 95.2771Z" fill="#E3A79F"/>
<path opacity="0.1" fill-rule="evenodd" clip-rule="evenodd" d="M123.581 64.0037L119.004 66.1417L115.473 93.4343C115.473 93.4343 117.562 92.4905 118.756 93.0863C119.95 93.6822 123.63 93.1367 123.63 93.1367C123.63 93.1367 126.316 92.9869 126.715 93.2852C127.113 93.584 131.788 92.0432 131.788 92.0432C131.788 92.0432 132.634 90.1532 131.987 89.8556C131.34 89.5586 132.187 86.6242 132.187 86.6242L131.788 66.9369L130.992 64.402L128.853 63.1091L126.662 64.8493L125.627 64.9978L123.581 64.0037Z" fill="black"/>
<path fill-rule="evenodd" clip-rule="evenodd" d="M123.581 63.7049L119.004 65.8434L115.473 93.1379C115.473 93.1379 117.562 92.1929 118.756 92.79C119.95 93.3877 123.63 92.8397 123.63 92.8397C123.63 92.8397 126.316 92.6906 126.715 92.9882C127.113 93.2852 131.788 91.7456 131.788 91.7456C131.788 91.7456 132.634 89.8568 131.987 89.5586C131.34 89.2598 132.187 86.3266 132.187 86.3266L131.788 66.6368L130.992 64.1019L128.853 62.809L126.662 64.5505L125.627 64.6977L123.581 63.7049Z" fill="#E7EFFD"/>
<path opacity="0.1" fill-rule="evenodd" clip-rule="evenodd" d="M123.506 64.9733C123.506 64.9733 124.825 66.5386 124.8 66.862C124.775 67.1854 124.726 67.9555 124.726 67.9555L123.73 69.9695C123.73 69.9695 123.183 72.4805 123.183 73.0027C123.183 73.5249 122.312 78.0442 122.312 78.0442L121.269 85.004L119.95 94.127L121.293 96.4385L122.886 95.0965L124.999 78.8395L125.446 75.6332C125.446 75.6332 125.918 69.8663 125.918 69.2705C125.918 68.6747 125.646 67.1074 125.646 67.1074C125.646 67.1074 125.969 65.6156 127.312 65.2683C128.654 64.9204 127.212 65.1928 127.212 65.1928L126.436 64.5712L125.765 64.8455C125.765 64.8455 123.905 64.278 123.506 64.9733Z" fill="black"/>
<path fill-rule="evenodd" clip-rule="evenodd" d="M123.357 64.8273C123.357 64.8273 124.675 66.3927 124.651 66.7161C124.626 67.0388 124.576 67.8095 124.576 67.8095L123.581 69.8235C123.581 69.8235 123.04 72.3314 123.04 72.8523C123.04 73.3733 122.17 77.8938 122.17 77.8938L121.118 84.8644L119.806 93.981L121.151 96.2938L122.735 94.948L124.852 78.6941L125.299 75.4885C125.299 75.4885 125.771 69.7216 125.771 69.1239C125.771 68.5268 125.498 66.9614 125.498 66.9614C125.498 66.9614 125.822 65.4709 127.164 65.1217C128.507 64.7726 127.064 65.0481 127.064 65.0481L126.288 64.4265L125.628 64.6977C125.628 64.6977 123.756 64.1277 123.357 64.8273Z" fill="#3F3D56"/>
<path opacity="0.1" fill-rule="evenodd" clip-rule="evenodd" d="M122.487 62.2144C122.487 62.2144 122.288 62.3629 122.239 63.357C122.189 64.3511 121.492 66.589 121.492 66.589C121.492 66.589 124.079 64.7984 125.373 64.9978L122.487 62.2144Z" fill="black"/>
<path fill-rule="evenodd" clip-rule="evenodd" d="M122.487 61.9155C122.487 61.9155 122.288 62.0646 122.239 63.06C122.189 64.0553 121.492 66.292 121.492 66.292C121.492 66.292 124.079 64.5027 125.373 64.7015L122.487 61.9155Z" fill="#E7EFFD"/>
<path opacity="0.1" fill-rule="evenodd" clip-rule="evenodd" d="M129.551 61.4178L125.471 64.9978C125.471 64.9978 128.904 67.0363 129.351 67.534C129.799 68.0316 130.247 62.6617 130.247 62.6617L129.551 61.4178Z" fill="black"/>
<path fill-rule="evenodd" clip-rule="evenodd" d="M129.7 61.1209L125.628 64.6977C125.628 64.6977 129.059 66.735 129.508 67.2326C129.957 67.7303 130.405 62.3604 130.405 62.3604L129.7 61.1209Z" fill="#E7EFFD"/>
<path opacity="0.1" fill-rule="evenodd" clip-rule="evenodd" d="M122.636 62.2144C122.636 62.2144 122.188 61.991 121.765 62.6372C121.342 63.2833 120.547 63.5809 120.547 63.5809C120.547 63.5809 116.019 64.302 115.846 64.8978L113.733 65.0274C113.733 65.0274 112.986 65.1255 112.911 66.6922C112.836 68.2594 112.433 68.4041 112.433 68.4041C112.433 68.4041 111.563 69.945 111.637 70.7402C111.711 71.5349 110.965 71.9331 110.965 71.9331L114.07 80.0116C114.07 80.0116 114.17 83.3431 113.596 84.5605C113.024 85.7786 111.955 91.173 111.955 91.173C111.955 91.173 112.404 91.0736 112.378 91.3706C112.352 91.6682 111.831 94.9254 111.831 94.9254C111.831 94.9254 111.682 96.2183 111.434 96.6657C111.185 97.113 111.159 99.4504 111.159 99.4504L110.761 101.14C110.761 101.14 111.707 103.254 113.149 102.95C114.591 102.646 117.219 97.0161 117.219 97.0161L118.886 90.9258L120.179 84.9109L120.552 80.8352L121.149 71.8117L122.02 65.8459C122.02 65.8459 122.985 62.6372 122.636 62.2144Z" fill="black"/>
<path fill-rule="evenodd" clip-rule="evenodd" d="M122.487 61.9156C122.487 61.9156 122.039 61.6922 121.617 62.3384C121.193 62.9851 120.398 63.2834 120.398 63.2834C120.398 63.2834 115.871 64.0038 115.697 64.6008L113.583 64.7298C113.583 64.7298 112.836 64.8299 112.763 66.3952C112.688 67.9606 112.289 68.1103 112.289 68.1103C112.289 68.1103 111.418 69.6518 111.494 70.4464C111.568 71.2417 110.822 71.64 110.822 71.64L113.927 79.7178C113.927 79.7178 114.026 83.0493 113.455 84.2673C112.883 85.4848 111.813 90.8792 111.813 90.8792C111.813 90.8792 112.26 90.7798 112.236 91.0787C112.211 91.3769 111.689 94.6322 111.689 94.6322C111.689 94.6322 111.54 95.9252 111.29 96.3725C111.041 96.8198 111.018 99.1566 111.018 99.1566L110.623 100.841C110.623 100.841 111.568 102.955 113.011 102.651C114.453 102.347 117.064 96.711 117.064 96.711L118.732 90.6207L120.026 84.6046L120.399 80.5288L120.996 71.5053L121.866 65.5396C121.866 65.5396 122.835 62.3384 122.487 61.9156Z" fill="#B643D5"/>
<path opacity="0.1" fill-rule="evenodd" clip-rule="evenodd" d="M106.519 81.1542L105.076 82.1502C105.076 82.1502 102.877 82.22 101.294 81.8318L100.492 81.4751L100.33 81.4053L100.496 81.4569C101.328 81.7041 101.978 81.6991 102.486 81.5279C104.528 80.8415 104.297 77.473 104.224 76.7104C104.216 76.6337 104.21 76.5808 104.207 76.5651C104.207 76.5626 104.207 76.5594 104.207 76.5563L104.219 76.5758C104.246 76.6217 104.278 76.6645 104.313 76.7048C104.341 76.7375 104.371 76.7708 104.403 76.8016L105.124 78.2418L105.132 78.3028L106.519 81.1542Z" fill="black"/>
<path fill-rule="evenodd" clip-rule="evenodd" d="M111.518 71.4355L110.822 71.6349L110.722 73.0568C110.722 73.0568 109.901 72.9272 109.677 73.9024C109.453 74.877 109.056 75.3244 109.056 75.3244C109.056 75.3244 107.688 76.4682 107.613 77.4365L106.768 77.9537C106.768 77.9537 104.802 77.4962 104.355 76.706C104.355 76.706 105.251 83.1191 100.475 81.5525C100.475 81.5525 105.822 83.8898 106.071 84.2132C106.319 84.536 107.962 85.4797 109.453 84.6851C110.945 83.8898 111.269 82.6667 111.269 82.6667C111.269 82.6667 112.712 80.6528 112.762 80.3546C112.813 80.0557 113.926 79.7078 113.926 79.7078L116.066 74.5366L111.518 71.4355Z" fill="#B643D5"/>
<path opacity="0.1" fill-rule="evenodd" clip-rule="evenodd" d="M128.979 64.402L129.699 61.1209C129.699 61.1209 130.022 62.1899 130.346 62.4384L131.416 63.2576C131.416 63.2576 132.486 63.7552 132.858 63.7552C133.23 63.7552 135.246 64.2724 135.494 64.5505C135.743 64.8286 136.739 64.6254 136.739 64.6254C136.739 64.6254 137.559 64.8984 138.281 65.0727C139.002 65.247 139.35 66.4405 139.2 66.9124C139.14 67.1471 139.14 67.3937 139.202 67.6284C139.263 67.8631 139.382 68.0782 139.549 68.2544C139.847 68.5526 139.997 69.5222 139.997 69.5222C140.363 69.6411 140.666 69.9003 140.841 70.2426C141.091 70.7893 141.017 71.9822 141.017 71.9822L137.311 77.2024C137.311 77.2024 137.36 79.2164 137.211 79.6587C137.062 80.101 137.728 87.7126 137.728 87.7126L138.504 100.787C138.504 100.787 137.485 101.657 137.261 101.757C137.037 101.856 136.812 97.1325 136.812 96.9595C136.812 96.7859 131.068 88.3588 131.068 88.3588C131.068 88.3588 130.292 87.1149 130.292 86.8425C130.292 86.5694 129.57 84.0578 129.57 84.0578L128.476 79.2113L128.979 64.402Z" fill="black"/>
<path fill-rule="evenodd" clip-rule="evenodd" d="M141.324 71.6985C141.324 71.869 141.315 71.9829 141.315 71.9829L137.611 77.1993C137.611 77.1993 137.663 79.212 137.513 79.6549C137.427 79.9135 137.617 82.59 137.793 84.7858C137.922 86.3725 138.036 87.7089 138.036 87.7089L138.363 93.255L138.806 100.784C138.806 100.784 137.787 101.654 137.562 101.753C137.339 101.853 137.115 97.1288 137.115 96.9545C137.115 96.7802 131.369 88.355 131.369 88.355C131.369 88.355 130.593 87.1118 130.593 86.8387C130.593 86.5663 129.872 84.0541 129.872 84.0541L128.778 79.2063L129.275 64.3932L129.698 61.1121C129.698 61.1121 130.32 62.1811 130.643 62.4283C130.967 62.675 131.712 63.2494 131.712 63.2494C131.712 63.2494 132.781 63.7471 133.156 63.7471C133.529 63.7471 135.543 64.2636 135.792 64.5417C136.04 64.8198 137.036 64.6166 137.036 64.6166C137.036 64.6166 137.856 64.8896 138.576 65.0639C139.297 65.2388 139.646 66.4317 139.498 66.9023C139.437 67.1377 139.437 67.3837 139.498 67.619C139.559 67.8536 139.678 68.0694 139.845 68.2456C140.144 68.5438 140.293 69.5121 140.293 69.5121C140.659 69.6323 140.964 69.8921 141.139 70.235C141.313 70.6213 141.33 71.3103 141.324 71.6985Z" fill="#B643D5"/>
<path opacity="0.1" fill-rule="evenodd" clip-rule="evenodd" d="M110.922 137.929C111.051 137.929 116.269 138.128 116.17 138.973C116.07 139.819 110.922 137.929 110.922 137.929Z" fill="black"/>
<path opacity="0.1" fill-rule="evenodd" clip-rule="evenodd" d="M112.091 139.346C112.091 139.346 115.598 139.917 114.678 140.439C113.758 140.962 112.091 139.346 112.091 139.346Z" fill="black"/>
<path opacity="0.1" fill-rule="evenodd" clip-rule="evenodd" d="M125.123 137.382C125.123 137.382 130.944 137.88 130.073 138.525C129.203 139.17 127.139 139.271 127.039 139.301C126.939 139.33 125.123 137.382 125.123 137.382Z" fill="black"/>
<path opacity="0.1" fill-rule="evenodd" clip-rule="evenodd" d="M124.427 139.943C124.427 139.943 127.661 140.49 127.759 141.106C127.857 141.723 124.427 139.943 124.427 139.943Z" fill="black"/>
<path opacity="0.1" fill-rule="evenodd" clip-rule="evenodd" d="M126.217 124.978C126.217 124.978 129.177 125.673 129.351 126.141L126.217 124.978Z" fill="black"/>
<path opacity="0.1" fill-rule="evenodd" clip-rule="evenodd" d="M114.801 127.116C114.801 127.116 113.259 127.563 114.752 128.458C116.244 129.353 114.801 127.116 114.801 127.116Z" fill="black"/>
<path opacity="0.1" fill-rule="evenodd" clip-rule="evenodd" d="M121.641 103.228C121.815 103.228 124.526 102.333 125.471 102.731C126.415 103.13 127.586 103.128 127.586 103.128L121.641 103.228Z" fill="black"/>
<path opacity="0.1" fill-rule="evenodd" clip-rule="evenodd" d="M121.99 106.065L121.963 106.311L119.651 112.387C119.651 112.387 119.279 114.225 118.954 115.27C118.751 115.979 118.589 116.699 118.47 117.427L120.522 104.705L121.99 106.065Z" fill="black"/>
<path fill-rule="evenodd" clip-rule="evenodd" d="M125.601 95.3513L124.637 95.3683H124.607L124.042 92.863C124.32 92.8485 124.598 92.834 124.879 92.8177L125.601 95.3513Z" fill="#3F3D56"/>
<path fill-rule="evenodd" clip-rule="evenodd" d="M137.335 92.3175L136.715 92.8265L134.646 94.5278C134.646 94.5278 129.049 97.5113 127.507 94.6782C126.148 92.1816 132.493 90.3992 134.021 90.0097C134.229 89.9569 134.347 89.9311 134.347 89.9311L137.335 92.3175Z" fill="#FBBEBE"/>
<path opacity="0.1" fill-rule="evenodd" clip-rule="evenodd" d="M113.433 67.882C113.433 67.882 114.528 68.3784 114.776 69.0749C115.024 69.772 113.433 67.882 113.433 67.882Z" fill="black"/>
<path opacity="0.1" fill-rule="evenodd" clip-rule="evenodd" d="M110.051 75.3382C110.051 75.3382 108.459 77.2773 109.106 78.0235C109.752 78.7697 110.051 75.3382 110.051 75.3382Z" fill="black"/>
<path opacity="0.1" fill-rule="evenodd" clip-rule="evenodd" d="M138.504 68.9754C138.504 68.9754 137.012 69.1239 136.963 70.4168L138.504 68.9754Z" fill="black"/>
<path opacity="0.1" fill-rule="evenodd" clip-rule="evenodd" d="M124.675 89.3579C124.824 89.2094 128.257 84.1377 129.052 84.5851L124.675 89.3579Z" fill="black"/>
<path opacity="0.1" fill-rule="evenodd" clip-rule="evenodd" d="M131.092 56.3971C131.094 57.3711 130.853 58.3305 130.393 59.1894L130.349 59.1818C129.974 59.1025 129.778 58.6646 129.491 58.3928C129.315 58.2255 129.091 58.1173 128.85 58.0833C128.61 58.0493 128.364 58.0915 128.149 58.2041C127.931 58.3349 127.754 58.5231 127.637 58.7483C127.521 58.9742 127.469 59.2271 127.489 59.48C127.3 58.6841 127.36 57.8373 127.175 57.0395C126.99 56.2417 126.432 55.4351 125.67 55.4213C125.342 55.4213 124.958 55.5427 124.721 55.2917C124.577 55.1432 124.548 54.9041 124.44 54.7292C123.895 53.8477 122.241 54.2938 121.561 54.7449C120.907 55.179 120.097 55.9189 119.255 56.3065C119.266 54.7374 119.9 53.2374 121.018 52.1364C122.137 51.0347 123.647 50.4225 125.216 50.4339C126.786 50.4452 128.287 51.0794 129.389 52.1962C130.492 53.3136 131.104 54.8229 131.092 56.3921V56.3971Z" fill="black"/>
<path fill-rule="evenodd" clip-rule="evenodd" d="M124.44 54.5851C124.548 54.7645 124.577 54.9998 124.72 55.1476C124.957 55.393 125.341 55.2678 125.67 55.2766C126.432 55.2898 126.99 56.0977 127.174 56.8954C127.359 57.6926 127.304 58.5382 127.489 59.3347C127.469 59.0818 127.521 58.8282 127.638 58.603C127.754 58.3778 127.931 58.1896 128.15 58.06C128.365 57.9474 128.61 57.9053 128.851 57.9386C129.091 57.9719 129.315 58.0802 129.491 58.2475C129.778 58.52 129.973 58.9572 130.349 59.0359C130.724 59.1145 131.086 58.7553 131.22 58.3601C131.355 57.9644 131.35 57.5309 131.435 57.1213C131.605 56.3456 132.11 55.7114 132.391 54.974C132.724 54.0768 132.715 53.0884 132.365 52.1975C132.179 51.7306 131.901 51.3103 131.718 50.8441C131.431 50.1357 131.356 49.3366 131.008 48.6615C130.422 47.5322 129.043 46.9659 127.91 47.3913C127.37 47.5938 126.9 47.9871 126.352 48.1664C125.616 48.4017 124.831 48.2249 124.069 48.1186C123.307 48.0129 122.467 48.0022 121.855 48.5068C121.152 49.0818 120.959 50.164 120.303 50.7963C120.025 51.0612 119.68 51.2304 119.386 51.4758C119.092 51.7218 118.841 52.0861 118.869 52.4856C118.913 53.0028 119.417 53.4684 119.231 53.9453C119.163 54.0831 119.07 54.2064 118.956 54.3083C118.4 54.8884 117.989 55.5893 117.751 56.3562C119.082 56.7709 120.523 55.3049 121.564 54.6122C122.238 54.151 123.895 53.71 124.44 54.5851Z" fill="#7C5C5C"/>
<path opacity="0.1" fill-rule="evenodd" clip-rule="evenodd" d="M137.335 92.3175L136.715 92.8265C136.17 91.9218 133.928 90.1029 133.928 90.1029L134.025 90.0097C134.233 89.9569 134.351 89.9311 134.351 89.9311L137.335 92.3175Z" fill="black"/>
<path fill-rule="evenodd" clip-rule="evenodd" d="M137.933 91.3971C137.933 91.3971 137.71 91.9501 137.48 92.4308C137.25 92.9121 137 93.3437 136.987 92.9907C136.963 92.2942 134.078 89.9569 134.078 89.9569L134.466 89.5769L134.92 89.1371L137.933 91.3971Z" fill="#E7EFFD"/>
<path opacity="0.1" fill-rule="evenodd" clip-rule="evenodd" d="M138.032 87.717L138.359 93.2631C137.583 92.0621 135.466 88.9842 134.101 89.0836L137.41 85.2815C137.547 85.128 137.674 84.9657 137.789 84.7946C137.916 86.3807 138.032 87.717 138.032 87.717Z" fill="black"/>
<path opacity="0.1" fill-rule="evenodd" clip-rule="evenodd" d="M137.933 91.3971C137.933 91.3971 137.71 91.9501 137.48 92.4308C136.614 91.2429 135.421 89.8392 134.469 89.5769L134.923 89.1371L137.933 91.3971Z" fill="black"/>
<path fill-rule="evenodd" clip-rule="evenodd" d="M140.42 71.2908L141.315 71.986C141.315 71.986 142.807 72.0118 142.957 73.2544C143.107 74.4964 144.474 75.0639 144.474 75.0639C144.474 75.0639 145.493 76.0831 145.493 76.555C145.493 77.0263 146.269 77.8731 146.269 77.9467C146.269 78.021 147.015 79.5385 146.916 79.8109C146.816 80.084 147.711 81.2782 147.434 81.7255C147.208 82.1269 147.009 82.5415 146.836 82.9681C146.836 82.9681 145.672 85.2054 145.07 85.6282C144.469 86.051 141.738 89.6046 141.738 89.6046C141.738 89.6046 138.803 92.9851 138.803 94.0301C138.803 94.0301 135.942 89.2573 134.251 89.3762L137.559 85.5729C137.559 85.5729 138.132 84.9525 138.156 84.5788C138.181 84.205 139.747 82.4912 140.493 82.4157C140.493 82.4157 140.623 81.3971 140.294 81.3725C139.966 81.348 139.698 80.5521 139.698 80.5521C139.698 80.5521 137.51 77.9662 137.485 76.326C137.461 74.6851 140.42 71.2908 140.42 71.2908Z" fill="#B643D5"/>
<path opacity="0.1" fill-rule="evenodd" clip-rule="evenodd" d="M141.739 73.6489C141.739 73.6489 139.648 75.1897 140.097 75.6861C140.546 76.1825 141.739 73.6489 141.739 73.6489Z" fill="black"/>
<path opacity="0.1" fill-rule="evenodd" clip-rule="evenodd" d="M141.838 80.0116C141.838 80.0116 145.718 78.769 146.115 80.0116H141.838Z" fill="black"/>
<path opacity="0.1" fill-rule="evenodd" clip-rule="evenodd" d="M117.811 146.058C117.811 146.058 115.722 147.425 114.678 147.221C113.634 147.017 112.563 147.57 112.563 147.57C111.843 148.356 110.936 148.946 109.926 149.285C108.235 149.857 105.873 149.633 104.531 149.185C103.894 148.974 103.844 148.7 104.149 148.364C105.609 148.654 108.873 149.233 109.752 148.812C110.896 148.266 112.537 147.072 112.537 147.072C112.537 147.072 114.678 146.774 114.975 146.774C115.188 146.774 116.84 146.092 117.772 145.7L117.811 146.058Z" fill="black"/>
<path opacity="0.1" fill-rule="evenodd" clip-rule="evenodd" d="M130.466 148.855C130.452 148.941 130.446 148.992 130.446 148.992C130.446 148.992 129.948 150.086 127.187 150.484C124.427 150.882 124.427 149.563 124.427 149.563C124.427 149.563 124.437 149.421 124.455 149.208C125.329 149.538 127.235 149.909 130.466 148.855Z" fill="black"/>
<path opacity="0.1" fill-rule="evenodd" clip-rule="evenodd" d="M114.466 73.35C114.466 73.35 114.466 79.0176 113.981 79.5775C113.496 80.1369 114.466 73.35 114.466 73.35Z" fill="black"/>
<path opacity="0.1" fill-rule="evenodd" clip-rule="evenodd" d="M136.888 75.1771L137.608 77.2024C137.608 77.2024 137.895 75.2142 136.888 75.1771Z" fill="black"/>
<g opacity="0.1">
<path opacity="0.1" fill-rule="evenodd" clip-rule="evenodd" d="M119.301 53.4513C119.484 52.9845 119.006 52.5283 118.944 52.0294C118.881 52.1704 118.853 52.3245 118.864 52.4793C118.897 52.8555 119.175 53.2078 119.252 53.5558C119.272 53.5224 119.288 53.4878 119.301 53.4513Z" fill="black"/>
<path opacity="0.1" fill-rule="evenodd" clip-rule="evenodd" d="M127.556 58.8043C127.378 58.0197 127.427 57.1899 127.248 56.4065C127.07 55.6226 126.507 54.8009 125.745 54.7877C125.417 54.7877 125.032 54.9079 124.794 54.6587C124.653 54.5109 124.622 54.2705 124.515 54.0962C123.971 53.2148 122.316 53.6621 121.635 54.1132C120.616 54.789 119.22 56.2021 117.916 55.8812C117.852 56.0328 117.794 56.1851 117.746 56.3417C119.077 56.7564 120.518 55.2904 121.559 54.5977C122.239 54.1466 123.896 53.693 124.44 54.5807C124.549 54.7606 124.577 54.996 124.721 55.1432C124.958 55.3892 125.342 55.2634 125.67 55.2728C126.432 55.2854 126.99 56.0932 127.175 56.891C127.359 57.6888 127.304 58.5344 127.489 59.3303C127.476 59.1522 127.499 58.9735 127.556 58.8043Z" fill="black"/>
<path opacity="0.1" fill-rule="evenodd" clip-rule="evenodd" d="M131.296 57.8706C131.166 58.2664 130.805 58.6281 130.423 58.547C130.04 58.4652 129.852 58.0298 129.567 57.7586C129.39 57.5906 129.166 57.4824 128.925 57.4491C128.684 57.4157 128.439 57.4579 128.224 57.5711C128.016 57.6945 127.846 57.8719 127.73 58.0833C127.614 58.2953 127.557 58.5344 127.564 58.776C127.663 58.4715 127.872 58.2148 128.15 58.0556C128.365 57.943 128.61 57.9008 128.851 57.9342C129.091 57.9681 129.315 58.0757 129.491 58.2431C129.779 58.5161 129.974 58.9528 130.349 59.0314C130.724 59.1107 131.086 58.7515 131.221 58.3557C131.292 58.1235 131.338 57.8838 131.358 57.6422C131.342 57.7196 131.321 57.7958 131.296 57.8706Z" fill="black"/>
<path opacity="0.1" fill-rule="evenodd" clip-rule="evenodd" d="M132.465 54.4851C132.186 55.2218 131.679 55.8579 131.511 56.6337C131.477 56.7903 131.458 56.9501 131.438 57.1106C131.609 56.3348 132.112 55.7044 132.392 54.9701C132.516 54.6373 132.593 54.2894 132.622 53.9358C132.584 54.1227 132.532 54.3064 132.465 54.4851Z" fill="black"/>
</g>
<path fill-rule="evenodd" clip-rule="evenodd" d="M98.6038 73.0191L98.5894 73.026C98.5655 73.0379 98.5555 73.0675 98.568 73.092L98.9435 73.8376C98.9561 73.8621 98.9856 73.8716 99.0094 73.8596L99.0239 73.8527C99.0477 73.8401 99.0578 73.8106 99.0452 73.7866L98.6697 73.0405C98.6572 73.0165 98.6277 73.0065 98.6038 73.0191Z" fill="#3A3768"/>
<path fill-rule="evenodd" clip-rule="evenodd" d="M94.8848 74.0579L94.8766 74.0616C94.8634 74.0685 94.8578 74.0849 94.8647 74.0981L94.9789 74.3246C94.9859 74.3378 95.0022 74.3435 95.0154 74.3366L95.0235 74.3328C95.0367 74.3259 95.0424 74.3095 95.0355 74.2963L94.9212 74.0698C94.9149 74.0566 94.8986 74.0509 94.8848 74.0579Z" fill="#3A3768"/>
<path fill-rule="evenodd" clip-rule="evenodd" d="M95.141 74.5731L95.1328 74.5775C95.1177 74.5851 95.1114 74.6039 95.119 74.619L95.3318 75.0418C95.34 75.0569 95.3582 75.0632 95.3739 75.0557L95.3821 75.0513C95.3971 75.0437 95.4034 75.0249 95.3959 75.0098L95.1824 74.587C95.1749 74.5719 95.156 74.5656 95.141 74.5731Z" fill="#3A3768"/>
<path fill-rule="evenodd" clip-rule="evenodd" d="M95.465 75.2186L95.4568 75.2224C95.4424 75.23 95.4367 75.2476 95.4436 75.2627L95.6596 75.6905C95.6672 75.7056 95.6847 75.7113 95.6998 75.7037L95.708 75.7C95.7224 75.6924 95.7281 75.6748 95.7212 75.6597L95.5052 75.2319C95.4976 75.2168 95.48 75.2111 95.465 75.2186Z" fill="#3A3768"/>
<path fill-rule="evenodd" clip-rule="evenodd" d="M97.5546 71.5915L94.6875 73.0342C94.5444 73.1065 94.4866 73.2802 94.5588 73.423L97.7637 79.7826C97.8352 79.9254 98.0098 79.9833 98.1523 79.911L101.02 78.4677C101.163 78.3959 101.22 78.2217 101.148 78.0788L97.9439 71.7198C97.8717 71.577 97.6977 71.5191 97.5546 71.5915Z" fill="#3A3768"/>
<path fill-rule="evenodd" clip-rule="evenodd" d="M97.1597 72.008C97.1433 72.0156 97.1289 72.0263 97.1163 72.0395C97.1044 72.0533 97.0956 72.069 97.09 72.086C97.0843 72.1036 97.0824 72.1213 97.0843 72.1395C97.0862 72.1577 97.0912 72.1747 97.1006 72.1905L97.1132 72.215C97.1226 72.2307 97.1276 72.2483 97.1295 72.2666C97.1314 72.2842 97.1295 72.3025 97.1239 72.3194C97.1176 72.3371 97.1088 72.3528 97.0962 72.366C97.0843 72.3792 97.0692 72.3899 97.0529 72.3975L95.6181 73.1197C95.6024 73.1292 95.5849 73.1348 95.5673 73.1361C95.5491 73.138 95.5309 73.1361 95.5139 73.1304C95.4963 73.1254 95.4806 73.116 95.4674 73.104C95.4536 73.0921 95.443 73.077 95.4354 73.0606L95.4229 73.0348C95.4153 73.0184 95.4047 73.0033 95.3915 72.9914C95.3777 72.9794 95.362 72.97 95.345 72.9643C95.3274 72.9587 95.3092 72.9568 95.2916 72.9587C95.2734 72.9606 95.2558 72.9662 95.2401 72.975L94.9607 73.1147C94.9306 73.1298 94.903 73.1512 94.881 73.177C94.8584 73.2028 94.8414 73.233 94.8308 73.2651C94.8201 73.2978 94.8157 73.3318 94.8182 73.3664C94.8207 73.4004 94.8301 73.4337 94.8458 73.4639L97.8974 79.5177C97.9125 79.5486 97.9339 79.5756 97.9596 79.5983C97.9854 79.6203 98.0155 79.6373 98.0481 79.648C98.0802 79.6587 98.1147 79.6631 98.1486 79.6606C98.1825 79.6574 98.2158 79.6486 98.2466 79.6329L100.749 78.3727C100.78 78.3569 100.807 78.3362 100.829 78.3104C100.852 78.2846 100.869 78.2544 100.879 78.2223C100.89 78.1902 100.894 78.1562 100.892 78.1222C100.889 78.0883 100.88 78.0549 100.864 78.0247L97.8171 71.9696C97.802 71.9394 97.7807 71.9124 97.7549 71.8897C97.7292 71.8677 97.699 71.8513 97.6664 71.8406C97.6344 71.83 97.6004 71.8255 97.5665 71.8287C97.5326 71.8312 97.4994 71.84 97.4692 71.8557L97.1597 72.008Z" fill="#4E5053"/>
<path fill-rule="evenodd" clip-rule="evenodd" d="M96.3296 72.4654L95.9403 72.6617C95.9177 72.6731 95.9083 72.7007 95.9202 72.724L95.9265 72.7366C95.9378 72.7599 95.966 72.7687 95.9886 72.7574L96.3779 72.5611C96.4012 72.5497 96.4106 72.5221 96.3987 72.4988L96.3924 72.4862C96.3811 72.4629 96.3528 72.4541 96.3296 72.4654Z" fill="#E6E8EC"/>
<path fill-rule="evenodd" clip-rule="evenodd" d="M96.5211 72.4824C96.5543 72.4824 96.5813 72.4554 96.5813 72.422C96.5813 72.388 96.5543 72.361 96.5211 72.361C96.4871 72.361 96.4601 72.388 96.4601 72.422C96.4601 72.4554 96.4871 72.4824 96.5211 72.4824Z" fill="#E6E8EC"/>
<path fill-rule="evenodd" clip-rule="evenodd" d="M40.5149 73.5916C40.5149 73.5916 46.1918 73.2493 45.5231 77.2257C45.5231 77.2257 45.6524 77.9278 45.0189 78.2468C45.0189 78.2468 45.0082 77.9524 44.4368 78.0518C44.2327 78.0864 44.0255 78.0964 43.8196 78.0813C43.5408 78.0625 43.2764 77.9536 43.0654 77.7712C43.0654 77.7712 41.4693 77.1118 40.8483 74.5045C40.8483 74.5045 40.3893 73.937 40.4075 73.7911L41.3657 74.1994C41.3657 74.1994 41.0386 74.8896 41.296 75.4634C41.296 75.4634 41.3268 74.2239 41.5107 74.2535C41.5484 74.2598 42.0087 74.4926 42.0087 74.4926C42.0087 74.4926 41.4461 75.6962 41.8699 76.5701C41.8699 76.5701 41.7098 75.0884 42.1845 74.5794L42.8595 74.9739C42.8595 74.9739 42.1964 76.2159 42.6435 77.237C42.6435 77.237 42.5286 75.6861 42.997 75.0758L43.6086 75.5515C43.6086 75.5515 42.9901 76.7771 43.3668 77.6202C43.3668 77.6202 43.4158 75.8101 43.7404 75.6716C43.7404 75.6716 44.2748 76.1423 44.3577 76.336C44.3577 76.336 43.9332 77.2257 44.1957 77.695C44.1957 77.695 44.3577 76.4889 44.4895 76.4833C44.4895 76.4833 45.0226 77.2823 45.0779 77.8303C45.0779 77.8303 45.0546 77.0149 44.6189 76.4084C44.9259 76.4675 45.2091 76.6141 45.4339 76.8312C45.4339 76.8312 45.351 76.2662 44.487 76.2171C44.487 76.2171 44.0469 75.6112 43.9294 75.571C43.9294 75.571 44.7884 75.4986 45.3096 75.7301C45.3096 75.7301 44.8518 75.1972 43.7718 75.4388L43.1678 74.9462C43.1678 74.9462 44.2993 74.7927 44.779 74.9632C44.779 74.9632 44.2271 74.4913 43.0058 74.8342L42.349 74.446C42.349 74.446 43.3135 74.2397 43.888 74.317C43.888 74.317 43.2814 73.9899 42.1562 74.3441L41.6866 74.1333C41.6866 74.1333 42.393 73.9936 42.6008 73.9716C42.8093 73.9496 42.818 73.893 42.818 73.893C42.371 73.8181 41.9113 73.8691 41.4913 74.0402C41.4913 74.0402 40.4942 73.6539 40.5149 73.5916Z" fill="#F45C43"/>
<path fill-rule="evenodd" clip-rule="evenodd" d="M149.301 142.909C152.615 142.909 155.301 142.456 155.301 141.896C155.301 141.336 152.615 140.882 149.301 140.882C145.987 140.882 143.3 141.336 143.3 141.896C143.3 142.456 145.987 142.909 149.301 142.909Z" fill="#FA7268"/>
<path fill-rule="evenodd" clip-rule="evenodd" d="M151.782 140.239C152.041 140 152.28 139.722 152.355 139.375C152.43 139.029 152.283 138.622 151.955 138.496C151.588 138.357 151.196 138.612 150.898 138.868C150.601 139.123 150.26 139.418 149.871 139.364C150.071 139.182 150.22 138.952 150.305 138.696C150.39 138.439 150.407 138.166 150.354 137.901C150.339 137.791 150.294 137.689 150.225 137.603C150.022 137.385 149.651 137.474 149.407 137.65C148.631 138.195 148.415 139.249 148.411 140.198C148.332 139.855 148.398 139.498 148.397 139.148C148.396 138.798 148.299 138.408 148.009 138.22C147.824 138.121 147.617 138.072 147.407 138.079C147.058 138.066 146.67 138.101 146.432 138.356C146.136 138.672 146.212 139.204 146.471 139.552C146.73 139.901 147.118 140.12 147.48 140.361C147.769 140.532 148.016 140.768 148.202 141.048C148.224 141.089 148.242 141.133 148.255 141.177H150.442C150.929 140.926 151.379 140.61 151.782 140.239Z" fill="#FA7268"/>
<path fill-rule="evenodd" clip-rule="evenodd" d="M28.4309 150.38C31.0317 150.38 33.1402 150.023 33.1402 149.584C33.1402 149.144 31.0317 148.788 28.4309 148.788C25.8295 148.788 23.7209 149.144 23.7209 149.584C23.7209 150.023 25.8295 150.38 28.4309 150.38Z" fill="#F45C43"/>
<path fill-rule="evenodd" clip-rule="evenodd" d="M30.3774 148.282C30.5922 148.107 30.7491 147.871 30.8276 147.605C30.8841 147.336 30.7705 147.013 30.513 146.914C30.2248 146.805 29.9165 147.003 29.6842 147.205C29.4513 147.407 29.1819 147.637 28.8767 147.593C29.0337 147.451 29.1517 147.27 29.2183 147.069C29.2849 146.868 29.298 146.653 29.2572 146.445C29.2434 146.359 29.207 146.278 29.1511 146.211C28.9904 146.04 28.7009 146.114 28.5044 146.248C27.8953 146.676 27.7283 147.504 27.722 148.249C27.6611 147.979 27.7126 147.701 27.7101 147.425C27.7076 147.149 27.6335 146.843 27.4011 146.696C27.2561 146.618 27.0935 146.579 26.929 146.584C26.6558 146.574 26.3507 146.603 26.1629 146.802C25.9312 147.051 25.9909 147.469 26.193 147.741C26.3946 148.014 26.7023 148.188 26.9855 148.376C27.2128 148.512 27.4068 148.697 27.5525 148.917C27.5688 148.948 27.5832 148.98 27.5952 149.012H29.3112C29.698 148.819 30.0566 148.573 30.3774 148.282Z" fill="#F45C43"/>
<path fill-rule="evenodd" clip-rule="evenodd" d="M40.3039 144.404C42.9047 144.404 45.0132 144.048 45.0132 143.608C45.0132 143.168 42.9047 142.812 40.3039 142.812C37.7025 142.812 35.594 143.168 35.594 143.608C35.594 144.048 37.7025 144.404 40.3039 144.404Z" fill="#F45C43"/>
<path fill-rule="evenodd" clip-rule="evenodd" d="M42.2517 142.306C42.4665 142.131 42.6235 141.895 42.7007 141.628C42.7591 141.36 42.6435 141.038 42.3867 140.94C42.0992 140.828 41.7915 141.029 41.5573 141.23C41.3231 141.432 41.0568 141.662 40.7517 141.618C40.9086 141.476 41.0261 141.295 41.0926 141.094C41.1585 140.892 41.1717 140.677 41.1303 140.469C41.1171 140.383 41.0807 140.303 41.0242 140.236C40.8653 140.064 40.5759 140.138 40.3843 140.273C39.7746 140.702 39.6082 141.528 39.6013 142.272C39.5392 142.003 39.5913 141.724 39.59 141.449C39.5888 141.174 39.5122 140.868 39.2805 140.72C39.1361 140.642 38.9728 140.604 38.8089 140.61C38.5345 140.6 38.2294 140.627 38.0429 140.827C37.8099 141.075 37.8708 141.493 38.0724 141.767C38.2746 142.041 38.5822 142.212 38.8654 142.402C39.0921 142.536 39.2861 142.721 39.4318 142.941C39.4494 142.972 39.4632 143.004 39.4732 143.038H41.1899C41.5755 142.843 41.9328 142.597 42.2517 142.306Z" fill="#F45C43"/>
<path fill-rule="evenodd" clip-rule="evenodd" d="M93.7815 75.9711V90.2595C93.7815 90.4476 93.7451 90.6345 93.6729 90.8088C93.6007 90.9824 93.4952 91.141 93.3621 91.2737C93.229 91.4071 93.0708 91.5128 92.8962 91.5845C92.7223 91.6563 92.5351 91.6934 92.3468 91.6934H90.8065V74.5385H92.3468C92.5351 74.5379 92.7216 74.575 92.8962 74.6467C93.0701 74.7185 93.2284 74.8242 93.3615 74.9569C93.4946 75.0903 93.6007 75.2482 93.6723 75.4225C93.7445 75.5962 93.7815 75.7824 93.7815 75.9711Z" fill="#C7CCE1"/>
<path opacity="0.2" fill-rule="evenodd" clip-rule="evenodd" d="M92.6274 74.5656V91.6657C92.5351 91.6839 92.441 91.6934 92.3468 91.6934H92.1113V74.5385H92.3468C92.441 74.5385 92.5351 74.5473 92.6274 74.5656Z" fill="black"/>
<path fill-rule="evenodd" clip-rule="evenodd" d="M86.98 96.7903H81.4255V141.299H86.98V96.7903Z" fill="#DCDFED"/>
<path fill-rule="evenodd" clip-rule="evenodd" d="M88.3006 146.051H79.4672V147.291H88.3006V146.051Z" fill="#C7CCE1"/>
<path opacity="0.1" fill-rule="evenodd" clip-rule="evenodd" d="M88.3006 146.051H79.4672V146.746H88.3006V146.051Z" fill="black"/>
<path opacity="0.1" fill-rule="evenodd" clip-rule="evenodd" d="M86.98 140.419H81.4255V141.298H86.98V140.419Z" fill="black"/>
<path fill-rule="evenodd" clip-rule="evenodd" d="M77.5244 140.601H90.242C90.9333 140.601 91.6184 140.737 92.257 141.002C92.8955 141.266 93.4757 141.654 93.9649 142.142C94.4534 142.631 94.8414 143.211 95.1058 143.849C95.3708 144.487 95.507 145.171 95.507 145.863V146.672H72.26V145.863C72.26 145.171 72.3963 144.487 72.6606 143.849C72.925 143.211 73.313 142.631 73.8015 142.142C74.2907 141.654 74.8708 141.266 75.5101 141.002C76.1486 140.737 76.8331 140.601 77.5244 140.601Z" fill="#DCDFED"/>
<path opacity="0.1" fill-rule="evenodd" clip-rule="evenodd" d="M86.98 102.917H81.4255V108.256H86.98V102.917Z" fill="black"/>
<path opacity="0.1" fill-rule="evenodd" clip-rule="evenodd" d="M86.98 102.554H81.4255V107.893H86.98V102.554Z" fill="black"/>
<path fill-rule="evenodd" clip-rule="evenodd" d="M87.5583 102.735H80.9106V108.074H87.5583V102.735Z" fill="#DCDFED"/>
<path fill-rule="evenodd" clip-rule="evenodd" d="M89.972 93.4368V95.6527C89.972 96.2039 89.7528 96.7324 89.3629 97.1224C88.9723 97.5125 88.4437 97.7315 87.8917 97.7315H80.5188C79.9675 97.7315 79.4382 97.5125 79.0483 97.1224C78.6583 96.7324 78.4392 96.2039 78.4392 95.6527V93.4368C78.4392 93.1637 78.4932 92.8938 78.5974 92.6421C78.7023 92.3899 78.8555 92.1608 79.0489 91.9683C79.2417 91.7752 79.4709 91.6229 79.7233 91.5185C79.9757 91.414 80.2457 91.3605 80.5188 91.3605H87.8917C88.1649 91.3605 88.4355 91.414 88.6873 91.5185C88.9397 91.6229 89.1689 91.7752 89.3623 91.9683C89.555 92.1608 89.7083 92.3899 89.8131 92.6421C89.918 92.8938 89.972 93.1637 89.972 93.4368Z" fill="#C7CCE1"/>
<path opacity="0.1" fill-rule="evenodd" clip-rule="evenodd" d="M89.9721 93.4368V93.6633C89.2952 94.5498 88.4224 95.2689 87.4215 95.7641C86.4213 96.2586 85.3199 96.5159 84.2035 96.5159C83.0877 96.5159 81.9864 96.2586 80.9855 95.7641C79.9852 95.2689 79.1124 94.5498 78.4355 93.6633V93.4368C78.4355 93.1637 78.4895 92.8938 78.5938 92.6422C78.6986 92.3899 78.8518 92.1608 79.0452 91.9683C79.238 91.7758 79.4672 91.6229 79.7196 91.5185C79.972 91.414 80.242 91.3605 80.5152 91.3605H87.8881C88.1618 91.3599 88.4325 91.4134 88.6849 91.5172C88.9379 91.621 89.1677 91.7739 89.3611 91.9671C89.5545 92.1596 89.7084 92.3886 89.8132 92.6409C89.9181 92.8932 89.9721 93.1637 89.9721 93.4368Z" fill="black"/>
<path fill-rule="evenodd" clip-rule="evenodd" d="M77.5351 72.7919H90.8724C91.0275 72.7919 91.177 72.8536 91.2868 72.9631C91.3967 73.0732 91.4583 73.2223 91.4583 73.3771V90.0537C91.4583 91.7204 90.7958 93.3185 89.6166 94.4969C88.4374 95.6754 86.8381 96.3372 85.1704 96.3372H83.2365C81.5687 96.3372 79.9695 95.6754 78.7902 94.4969C77.6117 93.3185 76.9492 91.7204 76.9492 90.0537V73.3771C76.9492 73.2223 77.0108 73.0732 77.1206 72.9631C77.2305 72.8536 77.3793 72.7919 77.5351 72.7919Z" fill="#C7CCE1"/>
<path fill-rule="evenodd" clip-rule="evenodd" d="M80.0002 64.178H88.4078C89 64.178 89.5676 64.4133 89.9864 64.8317C90.4052 65.2501 90.6407 65.8176 90.6407 66.4097V72.802C90.6407 73.0153 90.5559 73.2198 90.4046 73.3708C90.2539 73.5211 90.0492 73.6061 89.8357 73.6061H78.5723C78.4662 73.6061 78.362 73.5853 78.264 73.545C78.1667 73.5048 78.0775 73.445 78.0034 73.3708C77.9287 73.2959 77.8691 73.2072 77.8289 73.1097C77.7881 73.0121 77.7673 72.9077 77.7673 72.802V66.4084C77.7673 65.8164 78.0028 65.2489 78.4216 64.8305C78.8398 64.4121 79.4081 64.1768 80.0002 64.1768V64.178Z" fill="#C7CCE1"/>
<path opacity="0.2" fill-rule="evenodd" clip-rule="evenodd" d="M89.3635 70.7918H79.2863V71.4587H89.3635V70.7918Z" fill="black"/>
<path opacity="0.1" fill-rule="evenodd" clip-rule="evenodd" d="M89.9708 74.9324H78.4368V83.2978H89.9708V74.9324Z" fill="black"/>
<path fill-rule="evenodd" clip-rule="evenodd" d="M89.9708 74.7499H78.4368V83.1153H89.9708V74.7499Z" fill="#4E5053"/>
<g opacity="0.1">
<path opacity="0.1" fill-rule="evenodd" clip-rule="evenodd" d="M80.9943 84.5492H78.6038C78.5473 84.5492 78.5015 84.5951 78.5015 84.6511V85.3728C78.5015 85.4294 78.5473 85.4747 78.6038 85.4747H80.9943C81.0508 85.4747 81.0966 85.4294 81.0966 85.3728V84.6511C81.0966 84.5951 81.0508 84.5492 80.9943 84.5492Z" fill="black"/>
<path opacity="0.1" fill-rule="evenodd" clip-rule="evenodd" d="M83.9303 84.5492H81.5398C81.4833 84.5492 81.4375 84.5951 81.4375 84.6511V85.3728C81.4375 85.4294 81.4833 85.4747 81.5398 85.4747H83.9303C83.9868 85.4747 84.032 85.4294 84.032 85.3728V84.6511C84.032 84.5951 83.9868 84.5492 83.9303 84.5492Z" fill="black"/>
<path opacity="0.1" fill-rule="evenodd" clip-rule="evenodd" d="M86.8664 84.5492H84.476C84.4195 84.5492 84.3737 84.5951 84.3737 84.6511V85.3728C84.3737 85.4294 84.4195 85.4747 84.476 85.4747H86.8664C86.923 85.4747 86.9688 85.4294 86.9688 85.3728V84.6511C86.9688 84.5951 86.923 84.5492 86.8664 84.5492Z" fill="black"/>
<path opacity="0.1" fill-rule="evenodd" clip-rule="evenodd" d="M89.8038 84.5492H87.4134C87.3569 84.5492 87.311 84.5951 87.311 84.6511V85.3728C87.311 85.4294 87.3569 85.4747 87.4134 85.4747H89.8038C89.8603 85.4747 89.9062 85.4294 89.9062 85.3728V84.6511C89.9062 84.5951 89.8603 84.5492 89.8038 84.5492Z" fill="black"/>
<path opacity="0.1" fill-rule="evenodd" clip-rule="evenodd" d="M80.9936 86.3618H78.6032C78.5473 86.3618 78.5015 86.4077 78.5015 86.4637V87.1854C78.5015 87.2414 78.5473 87.2873 78.6032 87.2873H80.9936C81.0501 87.2873 81.096 87.2414 81.096 87.1854V86.4637C81.096 86.4077 81.0501 86.3618 80.9936 86.3618Z" fill="black"/>
<path opacity="0.1" fill-rule="evenodd" clip-rule="evenodd" d="M83.9303 86.3618H81.5398C81.4833 86.3618 81.4375 86.4077 81.4375 86.4637V87.1854C81.4375 87.2414 81.4833 87.2873 81.5398 87.2873H83.9303C83.9868 87.2873 84.032 87.2414 84.032 87.1854V86.4637C84.032 86.4077 83.9868 86.3618 83.9303 86.3618Z" fill="black"/>
<path opacity="0.1" fill-rule="evenodd" clip-rule="evenodd" d="M86.8664 86.3618H84.476C84.4195 86.3618 84.3737 86.4077 84.3737 86.4637V87.1854C84.3737 87.2414 84.4195 87.2873 84.476 87.2873H86.8664C86.923 87.2873 86.9688 87.2414 86.9688 87.1854V86.4637C86.9688 86.4077 86.923 86.3618 86.8664 86.3618Z" fill="black"/>
<path opacity="0.1" fill-rule="evenodd" clip-rule="evenodd" d="M80.9936 88.1292H78.6032C78.5473 88.1292 78.5015 88.1745 78.5015 88.2311V88.9521C78.5015 89.0087 78.5473 89.0547 78.6032 89.0547H80.9936C81.0501 89.0547 81.096 89.0087 81.096 88.9521V88.2311C81.096 88.1745 81.0501 88.1292 80.9936 88.1292Z" fill="black"/>
<path opacity="0.1" fill-rule="evenodd" clip-rule="evenodd" d="M83.9303 88.1292H81.5398C81.4833 88.1292 81.4375 88.1745 81.4375 88.2311V88.9521C81.4375 89.0087 81.4833 89.0547 81.5398 89.0547H83.9303C83.9868 89.0547 84.032 89.0087 84.032 88.9521V88.2311C84.032 88.1745 83.9868 88.1292 83.9303 88.1292Z" fill="black"/>
<path opacity="0.1" fill-rule="evenodd" clip-rule="evenodd" d="M86.8664 88.1292H84.476C84.4195 88.1292 84.3737 88.1745 84.3737 88.2311V88.9521C84.3737 89.0087 84.4195 89.0547 84.476 89.0547H86.8664C86.923 89.0547 86.9688 89.0087 86.9688 88.9521V88.2311C86.9688 88.1745 86.923 88.1292 86.8664 88.1292Z" fill="black"/>
<path opacity="0.1" fill-rule="evenodd" clip-rule="evenodd" d="M80.9936 90.0783H78.6032C78.5473 90.0783 78.5015 90.1242 78.5015 90.1809V90.9019C78.5015 90.9585 78.5473 91.0038 78.6032 91.0038H80.9936C81.0501 91.0038 81.096 90.9585 81.096 90.9019V90.1809C81.096 90.1242 81.0501 90.0783 80.9936 90.0783Z" fill="black"/>
<path opacity="0.1" fill-rule="evenodd" clip-rule="evenodd" d="M83.9303 90.0783H81.5398C81.4833 90.0783 81.4375 90.1242 81.4375 90.1809V90.9019C81.4375 90.9585 81.4833 91.0038 81.5398 91.0038H83.9303C83.9868 91.0038 84.032 90.9585 84.032 90.9019V90.1809C84.032 90.1242 83.9868 90.0783 83.9303 90.0783Z" fill="black"/>
<path opacity="0.1" fill-rule="evenodd" clip-rule="evenodd" d="M86.8664 90.0783H84.476C84.4195 90.0783 84.3737 90.1242 84.3737 90.1809V90.9019C84.3737 90.9585 84.4195 91.0038 84.476 91.0038H86.8664C86.923 91.0038 86.9688 90.9585 86.9688 90.9019V90.1809C86.9688 90.1242 86.923 90.0783 86.8664 90.0783Z" fill="black"/>
<path opacity="0.1" fill-rule="evenodd" clip-rule="evenodd" d="M89.8038 86.3618H87.4134C87.3569 86.3618 87.311 86.4077 87.311 86.4637V87.1854C87.311 87.2414 87.3569 87.2873 87.4134 87.2873H89.8038C89.8603 87.2873 89.9062 87.2414 89.9062 87.1854V86.4637C89.9062 86.4077 89.8603 86.3618 89.8038 86.3618Z" fill="black"/>
<path opacity="0.1" fill-rule="evenodd" clip-rule="evenodd" d="M89.5156 88.0291H87.7254C87.5847 88.0291 87.4705 88.1436 87.4705 88.2839V91.0737C87.4705 91.2146 87.5847 91.3285 87.7254 91.3285H89.5156C89.6562 91.3285 89.7705 91.2146 89.7705 91.0737V88.2839C89.7705 88.1436 89.6562 88.0291 89.5156 88.0291Z" fill="black"/>
</g>
<path fill-rule="evenodd" clip-rule="evenodd" d="M80.9936 84.3667H78.6032C78.5473 84.3667 78.5015 84.4126 78.5015 84.4686V85.1903C78.5015 85.2469 78.5473 85.2922 78.6032 85.2922H80.9936C81.0501 85.2922 81.096 85.2469 81.096 85.1903V84.4686C81.096 84.4126 81.0501 84.3667 80.9936 84.3667Z" fill="#F2F3F3"/>
<path fill-rule="evenodd" clip-rule="evenodd" d="M83.9303 84.3667H81.5398C81.4833 84.3667 81.4375 84.4126 81.4375 84.4686V85.1903C81.4375 85.2469 81.4833 85.2922 81.5398 85.2922H83.9303C83.9868 85.2922 84.032 85.2469 84.032 85.1903V84.4686C84.032 84.4126 83.9868 84.3667 83.9303 84.3667Z" fill="#F2F3F3"/>
<path fill-rule="evenodd" clip-rule="evenodd" d="M86.8658 84.3667H84.4754C84.4195 84.3667 84.3737 84.4126 84.3737 84.4686V85.1903C84.3737 85.2469 84.4195 85.2922 84.4754 85.2922H86.8658C86.9223 85.2922 86.9682 85.2469 86.9682 85.1903V84.4686C86.9682 84.4126 86.9223 84.3667 86.8658 84.3667Z" fill="#F2F3F3"/>
<path fill-rule="evenodd" clip-rule="evenodd" d="M89.8037 84.3667H87.4133C87.3568 84.3667 87.3109 84.4126 87.3109 84.4686V85.1903C87.3109 85.2469 87.3568 85.2922 87.4133 85.2922H89.8037C89.8602 85.2922 89.9061 85.2469 89.9061 85.1903V84.4686C89.9061 84.4126 89.8602 84.3667 89.8037 84.3667Z" fill="#D44F6A"/>
<path fill-rule="evenodd" clip-rule="evenodd" d="M80.9936 86.1793H78.6032C78.5473 86.1793 78.5015 86.2253 78.5015 86.2812V87.0029C78.5015 87.0589 78.5473 87.1048 78.6032 87.1048H80.9936C81.0501 87.1048 81.096 87.0589 81.096 87.0029V86.2812C81.096 86.2253 81.0501 86.1793 80.9936 86.1793Z" fill="#F2F3F3"/>
<path fill-rule="evenodd" clip-rule="evenodd" d="M83.9303 86.1793H81.5398C81.4833 86.1793 81.4375 86.2253 81.4375 86.2812V87.0029C81.4375 87.0589 81.4833 87.1048 81.5398 87.1048H83.9303C83.9868 87.1048 84.032 87.0589 84.032 87.0029V86.2812C84.032 86.2253 83.9868 86.1793 83.9303 86.1793Z" fill="#F2F3F3"/>
<path fill-rule="evenodd" clip-rule="evenodd" d="M86.8658 86.1793H84.4754C84.4195 86.1793 84.3737 86.2253 84.3737 86.2812V87.0029C84.3737 87.0589 84.4195 87.1048 84.4754 87.1048H86.8658C86.9223 87.1048 86.9682 87.0589 86.9682 87.0029V86.2812C86.9682 86.2253 86.9223 86.1793 86.8658 86.1793Z" fill="#F2F3F3"/>
<path fill-rule="evenodd" clip-rule="evenodd" d="M80.9936 87.9467H78.6032C78.5473 87.9467 78.5015 87.992 78.5015 88.0486V88.7696C78.5015 88.8262 78.5473 88.8722 78.6032 88.8722H80.9936C81.0501 88.8722 81.096 88.8262 81.096 88.7696V88.0486C81.096 87.992 81.0501 87.9467 80.9936 87.9467Z" fill="#F2F3F3"/>
<path fill-rule="evenodd" clip-rule="evenodd" d="M83.9303 87.9467H81.5398C81.4833 87.9467 81.4375 87.992 81.4375 88.0486V88.7696C81.4375 88.8262 81.4833 88.8722 81.5398 88.8722H83.9303C83.9868 88.8722 84.032 88.8262 84.032 88.7696V88.0486C84.032 87.992 83.9868 87.9467 83.9303 87.9467Z" fill="#F2F3F3"/>
<path fill-rule="evenodd" clip-rule="evenodd" d="M86.8658 87.9467H84.4754C84.4195 87.9467 84.3737 87.992 84.3737 88.0486V88.7696C84.3737 88.8262 84.4195 88.8722 84.4754 88.8722H86.8658C86.9223 88.8722 86.9682 88.8262 86.9682 88.7696V88.0486C86.9682 87.992 86.9223 87.9467 86.8658 87.9467Z" fill="#F2F3F3"/>
<path fill-rule="evenodd" clip-rule="evenodd" d="M80.9936 89.8959H78.6032C78.5473 89.8959 78.5015 89.9418 78.5015 89.9978V90.7195C78.5015 90.7761 78.5473 90.8214 78.6032 90.8214H80.9936C81.0501 90.8214 81.096 90.7761 81.096 90.7195V89.9978C81.096 89.9418 81.0501 89.8959 80.9936 89.8959Z" fill="#F2F3F3"/>
<path fill-rule="evenodd" clip-rule="evenodd" d="M83.9303 89.8959H81.5398C81.4833 89.8959 81.4375 89.9418 81.4375 89.9978V90.7195C81.4375 90.7761 81.4833 90.8214 81.5398 90.8214H83.9303C83.9868 90.8214 84.032 90.7761 84.032 90.7195V89.9978C84.032 89.9418 83.9868 89.8959 83.9303 89.8959Z" fill="#F2F3F3"/>
<path fill-rule="evenodd" clip-rule="evenodd" d="M86.8658 89.8959H84.4754C84.4195 89.8959 84.3737 89.9418 84.3737 89.9978V90.7195C84.3737 90.7761 84.4195 90.8214 84.4754 90.8214H86.8658C86.9223 90.8214 86.9682 90.7761 86.9682 90.7195V89.9978C86.9682 89.9418 86.9223 89.8959 86.8658 89.8959Z" fill="#F2F3F3"/>
<path fill-rule="evenodd" clip-rule="evenodd" d="M89.8037 86.1793H87.4133C87.3568 86.1793 87.3109 86.2253 87.3109 86.2812V87.0029C87.3109 87.0589 87.3568 87.1048 87.4133 87.1048H89.8037C89.8602 87.1048 89.9061 87.0589 89.9061 87.0029V86.2812C89.9061 86.2253 89.8602 86.1793 89.8037 86.1793Z" fill="#FECB42"/>
<path fill-rule="evenodd" clip-rule="evenodd" d="M89.5156 87.8479H87.7254C87.5847 87.8479 87.4705 87.9618 87.4705 88.1027V90.8924C87.4705 91.0334 87.5847 91.1473 87.7254 91.1473H89.5156C89.6562 91.1473 89.7705 91.0334 89.7705 90.8924V88.1027C89.7705 87.9618 89.6562 87.8479 89.5156 87.8479Z" fill="#97D25E"/>
<path fill-rule="evenodd" clip-rule="evenodd" d="M85.4304 82.0998H84.1871V82.2483H85.4304V82.0998Z" fill="#C7CCE1"/>
<path fill-rule="evenodd" clip-rule="evenodd" d="M87.1716 82.0998H85.9283V82.2483H87.1716V82.0998Z" fill="#C7CCE1"/>
<path fill-rule="evenodd" clip-rule="evenodd" d="M88.9127 82.0998H87.6694V82.2483H88.9127V82.0998Z" fill="#C7CCE1"/>
<path fill-rule="evenodd" clip-rule="evenodd" d="M33.478 50.0514C33.478 50.0514 46.043 49.2939 44.5618 58.0934C44.5618 58.0934 44.8557 59.6443 43.446 60.354C43.446 60.354 43.424 59.7078 42.1525 59.9236C41.7011 59.9985 41.2427 60.0205 40.7862 59.9884C40.1696 59.9475 39.5838 59.7059 39.1179 59.3008C39.1179 59.3008 35.5915 57.8461 34.2164 52.0729C34.2164 52.0729 33.2011 50.8139 33.2413 50.4905L35.3611 51.3959C35.3611 51.3959 34.6371 52.9248 35.2073 54.1957C35.2073 54.1957 35.2757 51.4513 35.6832 51.5161C35.7661 51.5299 36.7852 52.0458 36.7852 52.0458C36.7852 52.0458 35.5388 54.7091 36.4788 56.6444C36.4788 56.6444 36.1221 53.3633 37.1751 52.2384L38.6676 53.1098C38.6676 53.1098 37.2096 55.8592 38.198 58.1047C38.198 58.1047 37.9393 54.6625 38.9741 53.3218L40.3272 54.3756C40.3272 54.3756 38.9584 57.0899 39.7929 58.9478C39.7929 58.9478 39.9015 54.94 40.6192 54.638C40.6192 54.638 41.8028 55.6812 41.9843 56.109C41.9843 56.109 41.0462 58.0764 41.6282 59.1158C41.6282 59.1158 41.9843 56.4462 42.275 56.4336C42.275 56.4336 43.4548 58.2029 43.5779 59.4146C43.5779 59.4146 43.5258 57.6108 42.5613 56.2638C42.5613 56.2638 43.7003 56.4594 44.3722 57.1987C44.3722 57.1987 44.1882 55.9473 42.275 55.8385C42.275 55.8385 41.3011 54.4971 41.0399 54.4165C41.0399 54.4165 42.9424 54.258 44.0965 54.7682C44.0965 54.7682 43.0812 53.5879 40.692 54.1221L39.3571 53.0336C39.3571 53.0336 41.8612 52.6895 42.923 53.0682C42.923 53.0682 41.7011 52.0251 38.996 52.7851L37.5393 51.9181C37.5393 51.9181 39.6754 51.4576 40.9482 51.6243C40.9482 51.6243 39.6051 50.9008 37.1142 51.6853L36.0794 51.2185C36.0794 51.2185 37.6442 50.9108 38.1025 50.863C38.5603 50.8152 38.5848 50.6875 38.5848 50.6875C37.5939 50.5226 36.5767 50.6359 35.6462 51.014C35.6462 51.014 33.4403 50.1898 33.478 50.0514Z" fill="#F45C43"/>
</g>
<defs>
<linearGradient id="paint0_linear" x1="148.027" y1="150.78" x2="148.027" y2="46.6784" gradientUnits="userSpaceOnUse">
<stop stop-color="#808080" stop-opacity="0.25"/>
<stop offset="0.54" stop-color="#808080" stop-opacity="0.12"/>
<stop offset="1" stop-color="#808080" stop-opacity="0.1"/>
</linearGradient>
</defs>
</svg>
