<svg width="195" height="151" viewBox="0 0 195 151" fill="none" xmlns="http://www.w3.org/2000/svg">
<path fill-rule="evenodd" clip-rule="evenodd" d="M49.0834 95.0948C49.0231 96.7869 48.9676 98.5844 48 100C49.7627 99.9286 51.5194 99.6963 53.236 99.3086C53.3613 95.7578 54.2131 92.2727 54.6348 88.7468C54.9987 85.7048 55.0424 82.6368 54.9715 79.5767C54.9136 77.1003 54.7778 74.6114 54.2969 72.1724C53.9272 70.2921 53.5196 68.9412 52.5721 67.2445C52.5236 67.1584 52.4705 67.0677 52.3783 67.0246C52.2992 66.9906 52.2058 66.9986 52.1196 67.0088C50.5849 67.2083 50.8638 67.5041 50.963 68.7372C51.0433 69.7357 50.8626 70.733 50.813 71.7281C50.7161 73.6333 50.5802 75.5351 50.4254 77.4369C50.1171 81.2405 49.7355 85.0407 49.4472 88.8465C49.2877 90.9263 49.159 93.0094 49.0834 95.0948Z" fill="white"/>
<path fill-rule="evenodd" clip-rule="evenodd" d="M125.939 64.0317C126.038 64.0196 126.132 64.0119 126.215 64.0086C126.797 63.9789 127.385 64.0262 127.955 64.1484C128.057 64.1704 128.161 64.1958 128.245 64.2541C128.314 64.3014 128.364 64.3697 128.414 64.4357C128.921 65.1226 129.494 65.6852 130.109 66.284C130.571 66.732 131.28 67.4399 130.884 68.1114C130.765 68.3128 130.644 68.5198 130.458 68.6618C130.306 68.7762 130.118 68.8434 129.93 68.8984C129.785 68.9436 129.565 69.047 129.425 68.9755C129.278 68.8995 129.088 68.5308 128.984 68.3954C128.689 68.0068 128.393 67.6182 128.097 67.2296C127.809 66.8487 127.433 66.4238 126.972 66.4359C126.872 66.4381 126.774 66.4634 126.673 66.4524C126.558 66.4403 126.451 66.3831 126.349 66.3258C125.97 66.1145 125.598 65.8668 125.273 65.5773C124.976 65.3131 125.032 65.028 125.002 64.6768C124.966 64.2376 125.498 64.0857 125.939 64.0317Z" fill="#CAAA8E"/>
<path fill-rule="evenodd" clip-rule="evenodd" d="M136.65 76.5969C135.678 76.2912 134.799 75.7788 133.883 75.0053C131.628 73.095 129.635 70.853 128 68.3835C128.793 67.387 129.798 66.5711 130.936 66C132.673 67.7058 134.53 69.2821 136.485 70.7094C137.444 71.4099 138.395 71.8766 139.512 71.5579C142 70.8486 144.417 69.9435 146.737 68.8513C147.249 68.6098 147.771 68.3563 148.349 68.3063C149.409 68.2127 150.523 68.8589 151.177 69.7858C151.833 70.7137 152.067 71.8745 151.984 72.9525C151.926 73.726 151.698 74.4995 151.18 75.0293C150.645 75.5775 149.865 75.8082 149.107 75.9942C145.731 76.8253 142.191 77.1452 138.629 76.9396C137.912 76.8993 137.263 76.7894 136.65 76.5969Z" fill="#B643D5"/>
<path fill-rule="evenodd" clip-rule="evenodd" d="M150 141C149.52 140.998 149.038 140.995 148.556 140.992C148.234 139.358 148.046 137.678 148 136C148.683 136.306 149.594 136.058 149.782 137.202C149.842 137.573 149.906 141 150 141Z" fill="#E5D1BE"/>
<path fill-rule="evenodd" clip-rule="evenodd" d="M148.516 141.003C148.299 141.048 148.098 141.228 147.97 141.495C147.896 141.651 147.843 141.835 147.749 141.964C147.658 142.088 147.535 142.145 147.415 142.201C146.842 142.46 146.414 142.546 145.879 142.944C145.687 143.085 145.477 143.192 145.256 143.261C145.19 143.281 145.12 143.3 145.07 143.356C145.01 143.42 144.997 143.524 145 143.617C145.01 144.009 145.271 144.35 145.584 144.506C145.957 144.694 146.383 144.701 146.765 144.861C147.215 145.047 147.685 145.028 148.149 144.913C149.087 144.684 149.934 144.111 150.761 143.577C150.834 143.53 150.912 143.477 150.954 143.376C151.003 143.265 151.001 143.123 150.999 142.988C150.978 142.234 150.963 141.084 150.275 141.116C149.982 141.128 149.722 141.41 149.408 141.397C149.149 141.388 148.713 140.961 148.516 141.003Z" fill="#222423"/>
<path fill-rule="evenodd" clip-rule="evenodd" d="M142.22 117.233C142.101 117.92 141.983 118.614 142.002 119.312C142.024 120.062 142.204 120.798 142.381 121.528C143.968 128.019 145.556 134.51 147.145 141C148.186 140.92 149.229 140.839 150.27 140.758C150.74 140.723 151.576 140.33 152.019 140.168C152.019 140.168 152.061 139.541 152.015 139.101C151.19 131.273 149.909 125.353 150.282 118.426C150.377 116.686 151.38 115.526 152.23 114.014C155.12 108.879 155.689 104.562 156.999 101.179C157.082 100.967 148.349 100.087 147.917 100.045C146.821 99.9332 145.883 99.9557 145.286 101.016C144.626 102.188 144.575 103.871 144.342 105.168C143.999 107.071 143.66 108.973 143.325 110.876C142.953 112.992 142.584 115.113 142.22 117.233Z" fill="#B643D5"/>
<path fill-rule="evenodd" clip-rule="evenodd" d="M161 141.872C160.423 141.914 159.847 141.957 159.27 142C158.688 140.376 158.259 138.694 158 137C158.856 137.245 159.918 136.906 160.279 138.048C160.397 138.416 160.885 141.88 161 141.872Z" fill="#E5D1BE"/>
<path fill-rule="evenodd" clip-rule="evenodd" d="M159.873 141.086C159.62 141.153 159.405 141.343 159.281 141.612C159.209 141.768 159.166 141.949 159.068 142.08C158.974 142.207 158.836 142.276 158.699 142.338C158.055 142.646 157.56 142.774 156.97 143.207C156.761 143.363 156.524 143.486 156.273 143.574C156.196 143.598 156.116 143.625 156.063 143.683C155.999 143.752 155.993 143.849 156.005 143.94C156.057 144.309 156.397 144.605 156.781 144.72C157.238 144.86 157.736 144.82 158.202 144.932C158.75 145.062 159.298 144.993 159.831 144.835C160.907 144.518 161.847 143.885 162.763 143.292C162.844 143.238 162.93 143.181 162.97 143.079C163.015 142.971 163 142.835 162.984 142.707C162.887 141.994 162.752 140.905 161.95 141.007C161.608 141.049 161.331 141.343 160.959 141.366C160.653 141.385 160.101 141.027 159.873 141.086Z" fill="#222423"/>
<path fill-rule="evenodd" clip-rule="evenodd" d="M154.953 126.496C156.066 131.016 157.597 135.48 157.898 140.123C157.911 140.339 157.93 140.576 158.079 140.738C158.23 140.899 158.468 140.939 158.688 140.959C160.09 141.099 161.526 140.879 162.819 140.327C162.837 137.901 162.121 135.535 161.724 133.141C161.236 130.19 161.234 127.185 161.244 124.195C161.268 116.894 163.522 109.193 162.887 101.919C162.767 100.54 160.444 99.5312 159.896 98.2573C156.965 98.8572 153.891 98.7684 151 98C151.114 99.4931 151.452 100.822 151.692 102.274C152.007 104.186 152.009 106.191 152.18 108.123C152.528 112.067 152.955 116.006 153.608 119.914C153.978 122.124 154.417 124.32 154.953 126.496Z" fill="#B643D5"/>
<path fill-rule="evenodd" clip-rule="evenodd" d="M156.154 66.5268C156.819 66.7651 157.414 67.0918 157.875 67.523C159.331 68.8822 160.529 70.7939 161.482 72.5468C163.431 76.1378 164.788 80.1972 165.44 84.2578C166.54 91.105 165.854 98.1347 164.803 105C156.263 102.663 147.657 100.589 139 98.7814C139.93 98.9766 142.738 93.6997 143.153 92.901C144.231 90.8304 145.481 88.2084 145.607 85.8099C145.835 81.5689 144.75 77.3642 145.134 73.1221C145.279 71.5099 145.129 70.0724 146.215 68.796C147.384 67.422 149.05 66.5087 150.789 66.1751C152.287 65.8903 154.448 65.9164 156.154 66.5268Z" fill="#B643D5"/>
<path fill-rule="evenodd" clip-rule="evenodd" d="M150.178 68.5572C150.195 68.8815 150.234 69.2457 150.203 69.6282C150.131 70.5793 149.971 71.5281 149.756 72.4541C149.571 73.2579 149.336 74.0492 149.181 74.8599C149.014 75.7436 148.944 76.6456 148.886 77.5476C148.497 83.469 148.537 89.4965 146.997 95.2031C146.637 96.5379 146.191 97.8544 146.021 99.2302C145.985 99.5248 145.974 99.8628 146.166 100.081C146.327 100.265 146.582 100.306 146.817 100.338C148.614 100.572 150.413 100.792 152.213 101C152.051 98.6388 152.441 96.2776 152.685 93.9243C153.058 90.3414 153.1 86.7208 152.808 83.131C152.579 80.3085 152.145 77.51 151.927 74.6875C151.802 73.0695 151.538 71.4128 151.794 69.7949C151.917 69.0185 152.586 68.2398 152.672 67.573C152.79 66.6618 151.745 67.0729 151.051 67.2259C150.198 67.4143 150.145 67.9075 150.178 68.5572Z" fill="white"/>
<path fill-rule="evenodd" clip-rule="evenodd" d="M128 113C141.255 113 152 102.255 152 89C152 75.7451 141.255 65 128 65C114.745 65 104 75.7451 104 89C104 102.255 114.745 113 128 113Z" fill="#FFD559"/>
<path fill-rule="evenodd" clip-rule="evenodd" d="M128.5 109C139.822 109 149 99.8222 149 88.5C149 77.1778 139.822 68 128.5 68C117.178 68 108 77.1778 108 88.5C108 99.8222 117.178 109 128.5 109Z" fill="#EBB043"/>
<path fill-rule="evenodd" clip-rule="evenodd" d="M138.426 71C140.426 74.1896 141.584 77.9813 141.584 82.0506C141.584 93.3811 132.594 102.566 121.505 102.566C117.654 102.566 114.056 101.456 111 99.5356C114.569 105.227 120.814 109 127.92 109C139.009 109 148 99.8154 148 88.4849C148 81.0907 144.17 74.6105 138.426 71Z" fill="#EDBD2E"/>
<path fill-rule="evenodd" clip-rule="evenodd" d="M112.315 90.0214C112.315 80.0695 120.228 72.0039 129.989 72.0039C135.696 72.0039 140.768 74.7609 144 79.0379C140.947 73.6368 135.228 70 128.675 70C118.912 70 111 78.0668 111 88.0176C111 92.152 112.367 95.9611 114.663 99C113.169 96.3571 112.315 93.2908 112.315 90.0214Z" fill="#F7DB5E"/>
<path fill-rule="evenodd" clip-rule="evenodd" d="M126.893 88.6007H131.189V90.9381H127.849C128.096 91.9129 128.22 92.5919 128.22 92.9751C128.22 93.4148 128.082 94.1743 127.806 95.2538L128.021 95.3263C128.326 95.4322 128.604 95.53 128.856 95.621C129.108 95.7119 129.34 95.7947 129.548 95.8719C130.71 96.3403 131.557 96.5739 132.089 96.5739C132.497 96.5739 132.855 96.43 133.161 96.1446C133.322 95.9904 133.501 95.7763 133.696 95.499C133.891 95.2205 134.107 94.8764 134.345 94.4655L137 96.0721C136.362 97.4393 135.668 98.3991 134.915 98.9539C134.155 99.527 133.221 99.8147 132.119 99.8147C131.32 99.8147 130.102 99.5327 128.466 98.9688C126.875 98.3577 125.762 98.0504 125.124 98.0504C124.6 98.0504 124.188 98.1747 123.882 98.4233C123.577 98.6719 123.235 99.199 122.855 100L120 98.5522C120.886 97.1286 121.589 96.2148 122.114 95.8132C122.722 95.3252 123.536 95.0237 124.554 94.9097C124.783 94.1548 124.897 93.4723 124.897 92.86C124.897 92.2006 124.731 91.5596 124.397 90.9381H120.629V88.6007H123.214C122.289 86.7559 121.829 85.178 121.829 83.8695C121.829 81.9671 122.542 80.3456 123.969 79.0083C125.416 77.6698 127.156 77 129.194 77C131.241 77 132.92 77.6744 134.233 79.0232C135.555 80.3513 136.216 82.0707 136.216 84.1848L132.948 85.4036C132.948 83.8074 132.785 82.6887 132.462 82.0488C131.833 80.7771 130.74 80.1419 129.178 80.1419C128.028 80.1419 127.079 80.5193 126.338 81.2743C125.597 82.0189 125.224 82.9764 125.224 84.1411C125.224 85.117 125.729 86.5142 126.738 88.3291C126.757 88.3567 126.777 88.3947 126.802 88.4361C126.822 88.4787 126.855 88.5339 126.893 88.6007Z" fill="#D49A33"/>
<path fill-rule="evenodd" clip-rule="evenodd" d="M150.434 67.988C150.491 68.0786 152.248 67.629 152.442 67.5888C153.052 67.4638 153.316 67.2321 153.287 66.5726C153.254 65.8568 153.341 65.1744 153.588 64.4999C153.788 63.9528 154.179 63.5261 154.401 62.9939C154.598 62.5259 154.739 62.035 154.834 61.536C154.989 60.7228 155.025 59.8889 154.984 59.0654C154.953 58.4334 154.623 57.8759 154.449 57.268C154.317 56.8058 154.178 56.3309 153.875 55.9547C153.341 55.2952 152.417 55.0749 151.559 55.0164C149.112 54.849 144.755 55.9455 145.011 59.0115C145.067 59.6848 145.235 60.3443 145.403 61.0004C145.756 62.3825 145.914 65.0344 147.65 65.5013C148.14 65.6332 148.692 65.5253 149.145 65.7479C149.947 66.1424 149.959 67.2447 150.434 67.988Z" fill="#FFC4C8"/>
<path fill-rule="evenodd" clip-rule="evenodd" d="M158.203 55.1554C157.52 54.9753 156.96 54.5224 156.412 54.0979C155.862 53.6734 155.263 53.2478 154.565 53.1485C153.93 53.0579 153.303 53.2478 152.665 53.2642C151.996 53.2828 151.328 53.1092 150.66 53.0372C148.723 52.8277 146.731 53.513 145.484 54.8378C144.742 55.6268 143.538 57.458 144.184 58.5536C144.325 58.7926 144.579 58.9683 144.861 59.024C145.235 59.096 145.644 58.9181 146.007 59.012C146.276 59.0818 146.416 59.2663 146.608 59.4638C147.025 59.8937 147.423 60.3586 148.002 60.6031C148.549 60.8355 149.175 60.8159 149.776 60.793C149.908 60.7875 150.049 60.7799 150.162 60.7122C150.323 60.6129 150.378 60.4176 150.464 60.2539C150.629 59.9374 150.985 59.6929 151.355 59.73C151.725 59.7682 152.037 60.1578 151.903 60.4841C151.765 60.8191 151.321 60.9064 150.952 60.9839C150.839 61.0068 150.703 61.0603 150.698 61.1694C150.694 61.2426 150.755 61.3037 150.811 61.355C151.39 61.8875 151.971 62.4211 152.554 62.9537C152.906 63.2778 153.694 64.3898 154.205 63.8584C155.065 62.9613 155.1 61.7576 155.895 60.9032C156.257 60.5125 156.586 60.0934 156.875 59.6526C157.431 58.8079 157.707 57.8258 158.416 57.075C158.684 56.7901 159.024 56.5686 159.297 56.2892C159.752 55.8222 160.007 55.1914 160 54.5519C159.729 55.1412 158.885 55.3344 158.203 55.1554Z" fill="#1A3151"/>
<path fill-rule="evenodd" clip-rule="evenodd" d="M126.361 65.8625C126.441 65.8253 126.499 65.7407 126.554 65.6586C126.698 65.4406 126.841 65.2238 126.985 65.0058C127.181 65.1123 127.338 65.329 127.408 65.5855C127.452 65.7458 127.485 65.9536 127.613 65.9933C127.775 66.0446 127.882 65.7894 127.918 65.5855C127.946 65.4239 127.969 65.2636 127.986 65.102C128.004 64.9532 128.014 64.7904 127.956 64.6608C127.897 64.5352 127.787 64.4697 127.68 64.4184C127.252 64.2107 126.798 64.1132 126.343 64.0658C126.008 64.0324 125.475 63.8837 125.191 64.1876C124.969 64.4249 124.932 64.8301 125.124 65.1071C125.309 65.3713 126.082 65.9908 126.361 65.8625Z" fill="#FFC4C8"/>
<path fill-rule="evenodd" clip-rule="evenodd" d="M151.568 68.1583C151.718 68.2093 151.878 68.2869 151.955 68.4421C152.074 68.6831 151.939 68.9924 151.75 69.1662C151.563 69.3423 151.326 69.4408 151.14 69.6215C150.716 70.0397 150.683 70.758 150.679 71.3952C150.642 78.3913 150.401 85.3875 149.953 92.3663C149.501 92.5783 149.05 92.788 148.598 93C148.238 91.8021 147.992 90.5486 148 89.2847C148.006 88.3428 148.153 87.4102 148.292 86.4811C148.826 82.9303 149.254 79.3598 149.644 75.787C149.838 74.0168 150.044 72.2443 150.207 70.4718C150.26 69.888 150.098 69.1929 150.175 68.653C150.289 67.8502 150.871 67.9243 151.568 68.1583Z" fill="#686C71"/>
<path fill-rule="evenodd" clip-rule="evenodd" d="M137.055 90.3894C137.037 90.2951 137.023 90.1996 137.008 90.1042C137 90.0471 136.993 89.9901 137.011 89.9341C137.026 89.8792 137.062 89.8332 137.099 89.7882C137.51 89.2868 138.004 88.9225 138.533 88.5429C138.73 88.4035 138.741 88.3816 138.991 88.4387C139.269 88.5045 139.545 88.5988 139.815 88.6877C140.205 88.6866 140.596 88.6987 140.984 88.6647C141.968 88.5802 143.947 87.4084 144.653 88.3893C144.789 88.578 144.928 88.7733 144.977 88.9927C145.018 89.1727 144.998 89.3592 144.966 89.5413C144.941 89.6828 144.943 89.9133 144.812 89.9988C144.677 90.0888 144.246 90.0833 144.073 90.1086C143.579 90.181 143.083 90.2545 142.588 90.328C142.102 90.3993 141.537 90.5233 141.345 90.9139C141.302 90.9995 141.282 91.0927 141.226 91.1728C141.165 91.2628 141.064 91.3286 140.963 91.3879C140.597 91.6084 140.199 91.8103 139.784 91.954C139.404 92.0846 139.16 91.909 138.818 91.7774C138.461 91.6391 138.067 91.706 137.704 91.5996C137.339 91.4921 137.222 91.209 137.146 90.8678C137.114 90.7087 137.081 90.5485 137.055 90.3894Z" fill="#FFC4C8"/>
<path fill-rule="evenodd" clip-rule="evenodd" d="M154.626 87.0989C153.888 87.824 153 88.3684 151.849 88.8236C149.008 89.9503 145.975 90.6865 142.892 91C142.318 89.8354 142.013 88.5659 142 87.2886C144.408 86.5322 146.752 85.6085 149 84.5287C150.1 83.9988 150.98 83.3696 151.194 82.2295C151.672 79.6905 151.934 77.1225 151.975 74.5568C151.984 73.9889 151.985 73.41 152.203 72.8712C152.606 71.8861 153.727 71.1945 154.904 71.0383C156.079 70.8832 157.283 71.2123 158.262 71.7835C158.964 72.1918 159.589 72.7507 159.85 73.4557C160.12 74.1853 159.977 74.984 159.804 75.7437C159.03 79.1283 157.699 82.4225 155.866 85.4947C155.492 86.1161 155.088 86.6415 154.626 87.0989Z" fill="#B643D5"/>
<path fill-rule="evenodd" clip-rule="evenodd" d="M113.872 53.3979C109.785 47.8234 103.746 44.3065 96.8664 43.4944C95.8701 43.3764 94.858 43.318 93.8572 43.318C91.1978 43.318 88.5554 43.7316 86.0014 44.5472C83.6329 45.3031 81.3653 46.3968 79.2527 47.8024L77.3451 43.2724L76.8085 42L76.4066 43.325L73.2117 53.8606L73 54.557L73.7076 54.5325L84.4028 54.1527L85.8089 54.1025L84.6892 53.2238L81.4208 50.6603C85.2009 48.2183 89.4872 46.9307 93.8595 46.9307C94.7278 46.9307 95.6052 46.9821 96.4679 47.085C102.39 47.7837 107.582 50.8029 111.087 55.5864L111.389 56L111.79 55.688L113.778 54.1364L113.948 54.0055L113.974 53.7847L114 53.5638L113.872 53.3979Z" fill="#FA7268"/>
<path fill-rule="evenodd" clip-rule="evenodd" d="M73.1303 127.601C77.2181 133.176 83.2559 136.693 90.1351 137.503C91.1304 137.622 92.1436 137.681 93.1445 137.681C95.8034 137.681 98.4454 137.268 101.001 136.451C103.369 135.696 105.637 134.601 107.75 133.197L109.657 137.726L110.193 139L110.594 137.674L113.789 127.14L114 126.442L113.292 126.468L102.598 126.845L101.193 126.895L102.312 127.775L105.58 130.339C101.799 132.781 97.5131 134.067 93.14 134.067C92.2728 134.067 91.3943 134.016 90.5316 133.916C84.6106 133.215 79.4186 130.197 75.9139 125.413L75.6117 125L75.2118 125.313L73.2224 126.865L73.0517 126.995L73.0258 127.216L73 127.436L73.1303 127.601Z" fill="#98C76F"/>
<path fill-rule="evenodd" clip-rule="evenodd" d="M79.0454 63.0857C78.9924 63.0613 78.9384 63.0415 78.8809 63.0275C78.355 62.8902 77.9969 63.3104 77.5161 63.3267C77.301 63.3337 76.7965 62.9228 76.6782 63.2696C76.6354 63.3988 76.4575 63.8225 76.3032 64.2555C76.0588 64.5453 75.8269 64.8468 75.5566 65.1099C74.8741 65.7803 72.6703 66.3576 73.0419 67.6391C73.114 67.8871 73.1872 68.1408 73.3392 68.3468C73.462 68.5168 73.6298 68.6425 73.7998 68.7589C73.9316 68.8508 74.1219 69.0277 74.2739 68.9963C74.4338 68.9637 74.6962 68.6366 74.8246 68.5296C75.194 68.2141 75.5633 67.901 75.9327 67.5879C76.2942 67.2783 76.7492 66.9524 77.1917 67.1095C77.2886 67.1433 77.3787 67.2003 77.4789 67.2201C77.5926 67.2446 77.7098 67.2178 77.8212 67.191C78.2323 67.0863 78.6456 66.9454 79.024 66.7441C79.6997 66.3832 79.8382 65.1587 79.9632 64.479C79.9936 64.3091 80.0206 64.1333 79.9778 63.9669C79.908 63.6968 79.6726 63.5117 79.4542 63.3488C79.3246 63.2522 79.1906 63.1544 79.0454 63.0857Z" fill="#E5D1BE"/>
<path fill-rule="evenodd" clip-rule="evenodd" d="M65.4853 73.9507C66.0826 73.9978 66.689 74.0425 67.2773 73.9266C67.7464 73.8337 68.1896 73.6388 68.6238 73.4346C71.3169 72.1695 73.8154 70.4732 76 68.4259C75.4128 67.1333 74.5736 65.9623 73.5443 65C71.4215 66.2192 69.2043 67.2652 66.9184 68.1254C66.4516 68.3009 65.9746 68.4718 65.4785 68.5131C64.7631 68.5739 64.0544 68.3686 63.3659 68.1644C60.6931 67.3753 58.0191 66.5839 55.3463 65.7948C53.7331 65.3188 52.0592 64.8371 50.3988 65.0929C45.7956 65.8006 45.9959 71.814 50.2267 72.8198C54.9762 73.9484 60.6087 73.5734 65.4853 73.9507Z" fill="#B5D6CB"/>
<path fill-rule="evenodd" clip-rule="evenodd" d="M22 134.93C22.3161 135.335 22.7213 135.642 23.0808 136C24.5085 134.959 25.8184 133.899 27 132.561C25.9839 132.39 25.828 131.507 24.6018 132.379C24.2041 132.662 22.6799 134.534 22 134.93Z" fill="#E5D1BE"/>
<path fill-rule="evenodd" clip-rule="evenodd" d="M23.5829 135.402C23.8359 135.632 23.8457 135.891 23.8305 136.206C23.8218 136.389 23.749 136.572 23.7827 136.755C23.8164 136.938 23.8989 137.071 23.9999 137.235C24.5332 138.088 25.9646 139.88 23.9825 139.997C22.1829 140.103 20.8308 137.373 20.0955 135.757C20.0477 135.65 19.988 135.545 20.0021 135.424C20.0162 135.302 20.0738 135.177 20.1476 135.065C20.5571 134.449 21.0534 133.658 21.8093 134.159C22.1319 134.372 22.1579 134.805 22.5011 135.028C22.7824 135.212 23.3298 135.173 23.5829 135.402Z" fill="#222423"/>
<path fill-rule="evenodd" clip-rule="evenodd" d="M31.4655 103.938C31.0412 107.574 36.5284 111.377 35.4209 114.306C33.1033 120.43 28.3746 125.581 24.4773 130.329C24.199 130.669 22.3935 132.558 22 132.985C22.8326 134.166 24.0781 134.985 25.1822 136C30.7526 131.816 40.7485 124.068 43.4322 120.505C47.0751 115.67 47.845 106.589 49.5901 100.321C49.8798 99.2823 50.3143 97.7874 49.6516 96.7972C49.1441 96.0367 48.3913 95.6791 47.4276 95.4007C44.851 94.6549 41.3541 93.1442 38.8221 94.63C36.0551 96.2551 31.7894 101.144 31.4655 103.938Z" fill="#BD48CA"/>
<path fill-rule="evenodd" clip-rule="evenodd" d="M58 136.878C58.6691 136.995 59.3422 136.938 60.0113 137C60.5476 135.013 60.9716 133.067 61 131C59.8257 131.655 58.9359 131.04 58.4835 132.73C58.3372 133.277 58.3711 136.023 58 136.878Z" fill="#E5D1BE"/>
<path fill-rule="evenodd" clip-rule="evenodd" d="M60.1126 136C60.4743 136.001 60.6545 136.216 60.8546 136.469C60.9705 136.618 61.0267 136.825 61.1624 136.954C61.2982 137.085 61.4597 137.125 61.6528 137.174C62.6675 137.431 65.0363 137.799 63.4903 139.339C62.087 140.737 59.1729 139.593 57.4876 138.869C57.3764 138.821 57.2547 138.782 57.1809 138.677C57.1084 138.572 57.0768 138.428 57.0604 138.29C56.9703 137.518 56.8474 136.496 57.7965 136.332C58.2015 136.262 58.5397 136.583 58.9727 136.504C59.3309 136.438 59.7522 136 60.1126 136Z" fill="#222423"/>
<path fill-rule="evenodd" clip-rule="evenodd" d="M43.4264 107.353C46.1361 110.02 53.8919 111.976 55.1537 115.046C55.6596 116.277 56.9168 125.711 57.1703 132.121C57.1886 132.578 56.733 135.223 56.7284 135.828C58.174 136.235 59.9622 135.779 61.5198 135.886C62.6571 128.501 64 114.159 64 114.159C62.4584 107.7 55.0178 100.292 50.8899 94.4732C50.2059 93.5071 49.4065 92.1888 48.179 92.0264C47.2369 91.9018 46.4935 92.2299 45.6474 92.7696C43.383 94.2217 36.5362 96.5381 36.036 99.4286C35.4879 102.589 41.3436 105.305 43.4264 107.353Z" fill="#BD48CA"/>
<path fill-rule="evenodd" clip-rule="evenodd" d="M44.9293 66.966C42.5828 69.007 39.0494 70.873 37.6399 73.7141C34.2303 80.5846 32.162 87.96 31.0853 95.4981C30.7707 97.7029 30.4561 99.9078 30.1403 102.114C29.8302 104.282 29.9075 104.784 31.7009 104.944C35.3263 105.272 39.2504 104.094 42.7327 103.172C43.6209 102.936 44.5193 102.679 45.2905 102.184C46.4569 101.438 47.2781 100.188 48.5615 99.6609C49.168 99.4118 49.8325 99.3468 50.4855 99.2828C51.8837 99.147 53.4488 99.0595 54.5289 99.9471C55.1616 100.467 55.4784 101.29 56.1224 101.779C56.5722 101.171 55.9475 99.2783 55.8385 98.522C55.6704 97.3607 55.525 96.196 55.4989 95.0223C55.4478 92.6368 55.6 90.2512 55.8101 87.8848C56.1792 83.7466 56.3712 79.5882 56.7153 75.4612C56.9618 72.5034 57.583 70.1886 55.5455 67.6897C54.4358 66.3286 52.4027 63.9678 50.5651 64.0003C48.6161 64.0306 46.3138 65.7609 44.9293 66.966Z" fill="#BD48CA"/>
<path fill-rule="evenodd" clip-rule="evenodd" d="M55.4678 62.6519C54.8075 63.3148 53.976 63.7473 53.2252 64.2886C52.4942 64.8171 52.0801 65.4005 51.6407 66.1884C51.3215 66.7566 50.9373 67.1413 50.2107 66.9507C48.8382 66.5883 49.6432 65.6109 49.6642 64.6569C49.6885 63.5661 49.2545 62.5104 49.0745 61.4512C48.5545 58.3893 50.8081 53.7444 54.2145 54.011C57.9389 54.3033 57.473 60.6433 55.4678 62.6519Z" fill="#FFC4C8"/>
<path fill-rule="evenodd" clip-rule="evenodd" d="M51.603 58.0144C51.2262 58.2626 51.0188 58.7996 51.2284 59.203C51.3399 59.4194 51.5472 59.569 51.6755 59.7764C52.0512 60.3826 51.6141 61.1893 51.0634 61.6369C50.5115 62.0833 49.8203 62.3904 49.4491 63C47.5739 61.4533 46.139 59.2098 46.0086 56.7556C45.9138 54.9845 46.6062 53.1387 47.9016 51.9399C49.4212 50.5304 50.9586 50.6086 52.9364 50.4363C53.6822 50.3717 54.4537 50.3026 55.1895 50.4884C55.8629 50.6584 56.3601 51.149 56.9878 51.3677C58.0268 51.7314 59.7627 51.3519 60.5743 50.5746C61.0715 50.0987 61.3647 49.3724 61.9924 49.0981C62.5978 48.833 63.3559 49.1299 63.7182 49.6908C64.0805 50.2528 64.0761 51.0085 63.8041 51.6193C63.6268 52.0181 63.3481 52.3648 63.1797 52.766C62.8252 53.6146 62.9913 54.6276 62.5822 55.4502C62.1496 56.3204 61.1864 56.759 60.2766 57.0592C59.3301 57.3731 58.3011 57.6394 57.6166 58.4303C57.7414 57.9056 56.9164 56.7374 56.3713 56.6185C55.6655 56.4632 54.5473 57.2802 53.8249 57.4558C53.1281 57.6258 52.2184 57.6099 51.603 58.0144Z" fill="#1A3151"/>
<path fill-rule="evenodd" clip-rule="evenodd" d="M51.3048 72C50.4858 73.1675 49.8655 74.617 50.0252 76.0858C50.1961 77.6591 51.2362 79.0699 51.1021 80.6478C51.0417 81.3572 50.7458 82.012 50.5657 82.6953C50.3845 83.3796 50.3364 84.1788 50.7223 84.7484C51.0222 85.194 51.5617 85.4611 51.6856 86C52.6161 84.6597 53.5722 83.2591 53.8885 81.605C54.1157 80.4182 53.9898 79.1586 53.564 78.0434C53.1402 76.9327 52.4144 75.8879 52.4615 74.6852C52.5055 73.5631 53.1965 72.6685 53.7216 71.7704C54.3215 70.7472 53.7278 69.1568 53.304 68.1212C53.1023 67.6255 52.7973 67.1026 52.3161 67.0139C52.1728 66.9877 52.0264 67.0037 51.8831 67.0196C51.7112 67.04 51.5341 67.0605 51.3805 67.1503C51.228 67.2401 51.1021 67.4129 51.1113 67.6062C51.3611 67.5107 51.6436 67.6664 51.8043 67.8995C52.1534 68.4076 52.2854 69.5047 52.2035 70.1288C52.1063 70.8427 51.6948 71.4464 51.3048 72Z" fill="white"/>
<path fill-rule="evenodd" clip-rule="evenodd" d="M68.5 110C81.4784 110 92 99.4795 92 86.5C92 73.5216 81.4784 63 68.5 63C55.5216 63 45 73.5216 45 86.5C45 99.4795 55.5216 110 68.5 110Z" fill="#FFD559"/>
<path fill-rule="evenodd" clip-rule="evenodd" d="M69 107C80.0459 107 89 98.0459 89 87C89 75.9541 80.0459 67 69 67C57.9541 67 49 75.9541 49 87C49 98.0459 57.9541 107 69 107Z" fill="#EBB043"/>
<path fill-rule="evenodd" clip-rule="evenodd" d="M80.1404 70C82.0077 73.2458 82.9969 77.0467 82.7986 81.06C82.2473 92.241 72.7035 100.858 61.4826 100.309C57.5865 100.118 53.9998 98.8457 51 96.7991C54.3333 102.592 60.4682 106.625 67.6599 106.975C78.8807 107.524 88.4234 98.9086 88.9747 87.7275C89.337 80.4307 85.7755 73.8466 80.1404 70Z" fill="#EDBD2E"/>
<path fill-rule="evenodd" clip-rule="evenodd" d="M52.2607 88.0068C52.7486 78.1665 61.1854 70.585 71.1055 71.0689C76.9041 71.3513 81.9244 74.3274 85 78.7175C82.1621 73.2264 76.5276 69.3486 69.8668 69.0218C59.9467 68.5391 51.5099 76.1217 51.0219 85.9597C50.8199 90.0482 52.023 93.8804 54.2077 97C52.8198 94.3131 52.1011 91.2391 52.2607 88.0068Z" fill="#F7DB5E"/>
<path fill-rule="evenodd" clip-rule="evenodd" d="M70.9433 74.1098L70.8186 76.6646C71.828 76.8796 72.6432 77.2598 73.2652 77.8051C73.8873 78.3505 74.4655 79.1663 75 80.257L72.4085 81.5525C71.718 80.1246 70.7591 79.3801 69.5352 79.319C68.7762 79.2817 68.1351 79.4763 67.6141 79.904C67.092 80.3317 66.8146 80.8827 66.781 81.5616C66.7506 82.1794 66.9281 82.7021 67.3132 83.1298C67.6904 83.5485 68.4697 84.0633 69.6509 84.6697C70.6704 85.2004 71.5114 85.6915 72.1716 86.1474C72.833 86.6023 73.3259 87.0345 73.6515 87.4418C74.5745 88.5507 74.9989 89.8575 74.9259 91.3612C74.854 92.8389 74.351 94.1198 73.4157 95.206C72.4894 96.2831 71.2891 96.9824 69.8126 97.3014L69.6812 100L67.4176 99.8869L67.5456 97.2675C65.8692 96.9054 64.6083 96.2548 63.7639 95.3157C62.9196 94.3766 62.3312 92.9623 62 91.0727L64.8755 90.6156C65.1989 91.9553 65.6278 92.9215 66.1612 93.5144C66.7215 94.0824 67.4883 94.3902 68.4629 94.4388C69.4117 94.4852 70.219 94.2159 70.8882 93.631C71.5473 93.0528 71.8999 92.2823 71.9471 91.3171C71.9897 90.4572 71.7595 89.7534 71.2599 89.2069C71.0039 88.9422 70.6244 88.6378 70.1169 88.2938C69.6105 87.9499 68.9615 87.572 68.1688 87.1578C66.5317 86.3206 65.4673 85.5704 64.9721 84.9096C64.1816 83.9218 63.819 82.7655 63.883 81.4451C63.9144 80.8194 64.0413 80.2423 64.2658 79.7128C64.4904 79.1844 64.8014 78.708 65.1978 78.2894C65.5941 77.8696 66.0758 77.5109 66.644 77.2179C67.2121 76.9226 67.8499 76.7019 68.5573 76.5549L68.6819 74L70.9433 74.1098Z" fill="#D49A33"/>
<path fill-rule="evenodd" clip-rule="evenodd" d="M55.9431 97.9283C55.963 97.8712 55.9774 97.8142 55.9873 97.756C56.078 97.2022 55.6543 96.8624 55.6045 96.3679C55.5813 96.148 55.9342 95.5942 55.5957 95.4976C55.4707 95.465 55.0591 95.3114 54.6377 95.1846C54.3456 94.953 54.0436 94.7355 53.7748 94.4772C53.0922 93.8221 52.3842 91.5892 51.2005 92.0663C50.9715 92.1605 50.7369 92.2548 50.5533 92.427C50.4029 92.5666 50.2944 92.7481 50.196 92.9331C50.1197 93.0774 49.9659 93.2868 50.0068 93.4416C50.05 93.6045 50.3763 93.8523 50.4903 93.9757C50.8133 94.3352 51.1363 94.6924 51.4605 95.0496C51.778 95.401 52.1198 95.8467 52.0047 96.3156C51.9793 96.418 51.9328 96.5157 51.9207 96.6216C51.9063 96.7403 51.9395 96.8589 51.9749 96.973C52.1043 97.3895 52.268 97.8072 52.4849 98.1819C52.8743 98.8521 54.0425 98.9045 54.6952 98.9836C54.8578 99.0022 55.026 99.0162 55.1808 98.9603C55.432 98.8684 55.5891 98.6113 55.7273 98.3727C55.807 98.2285 55.89 98.0842 55.9431 97.9283Z" fill="#FFC4C8"/>
<path fill-rule="evenodd" clip-rule="evenodd" d="M51.9206 96C51.9692 96 52.0146 95.9697 52.0548 95.9382C52.7917 95.3952 53.4503 94.7241 54 93.9574C53.7421 93.6579 53.4852 93.3596 53.2283 93.0602C53.2092 93.038 53.1892 93.0159 53.1627 93.0054C53.1078 92.9844 53.0507 93.0287 53.0063 93.0683C52.5126 93.5134 52.0189 93.9574 51.5252 94.4013C51.3042 94.5994 50.9067 94.8674 51.0199 95.2181C51.0801 95.4069 51.7514 96.0023 51.9206 96Z" fill="#F3F3F3"/>
<path fill-rule="evenodd" clip-rule="evenodd" d="M44.339 85.0167C44.339 85.6225 44.339 86.2373 44.4905 86.8226C44.6117 87.2888 44.8259 87.721 45.0488 88.1441C46.4285 90.7667 47.9878 92.948 50.0654 95C51.2373 94.3137 52.1711 93.1113 53 92.0031C51.7037 89.9533 50.8813 88.2757 49.9106 86.0342C49.7126 85.5771 49.52 85.1097 49.4443 84.6118C49.3361 83.8949 49.4789 83.1666 49.6206 82.4565C50.1703 79.7046 50.7211 76.9516 51.2719 74.1997C51.6041 72.5391 51.9363 70.816 51.5781 69.1621C50.5848 64.5738 44.9536 65.2169 44.313 69.5558C43.5913 74.4255 44.3444 80.0733 44.339 85.0167Z" fill="#BD48CA"/>
<path fill-rule="evenodd" clip-rule="evenodd" d="M52.6592 92.2988C52.5042 92.2118 52.2462 92.2808 52.2332 92.4758C52.2222 92.6188 52.3642 92.7478 52.5072 92.7378C52.7362 92.7218 52.8712 92.4278 52.6672 92.3038C52.6652 92.3018 52.6622 92.2998 52.6592 92.2988Z" fill="#F3F3F3"/>
<path fill-rule="evenodd" clip-rule="evenodd" d="M51.6592 91.2983C51.5042 91.2113 51.2472 91.2803 51.2332 91.4753C51.2232 91.6183 51.3642 91.7473 51.5072 91.7383C51.7362 91.7203 51.8712 91.4273 51.6672 91.3033C51.6642 91.2993 51.6622 91.2993 51.6592 91.2983Z" fill="#F3F3F3"/>
<path opacity="0.1" fill-rule="evenodd" clip-rule="evenodd" d="M115.811 18.4664C103.695 18.0931 92.1546 14.6313 81.1349 10.8414C70.1152 7.05145 59.2019 2.85314 47.3752 0.846186C39.7688 -0.445775 31.068 -0.627917 24.9408 2.98211C19.0422 6.46316 17.1363 12.4557 16.1121 18.0218C15.3414 22.2099 14.8876 26.6164 16.9994 30.5353C18.4673 33.2572 21.0691 35.5447 22.8709 38.1524C29.1362 47.2233 24.7077 58.4086 17.9184 67.2645C14.7359 71.4199 11.0385 75.3874 8.58042 79.8063C6.12228 84.2252 4.98602 89.2969 7.13745 93.8086C9.26738 98.2841 14.3466 101.638 19.8491 104.002C31.0239 108.8 44.1871 110.172 57.0323 110.949C85.4559 112.672 114.03 111.925 142.529 111.18C153.078 110.904 163.669 110.623 174.046 109.179C179.808 108.377 185.756 107.105 189.94 104.033C195.249 100.132 196.565 93.5291 193.006 88.6373C187.037 80.433 170.541 78.3967 166.365 69.5917C164.069 64.7451 166.425 59.3487 169.763 54.8529C176.923 45.2118 188.922 36.753 189.552 25.7328C189.986 18.1644 184.218 10.5845 175.3 7.0028C165.953 3.2491 152.988 3.72086 146.094 9.93517C138.989 16.3328 126.51 18.7945 115.811 18.4664Z" fill="#FA7268"/>
<path opacity="0.1" fill-rule="evenodd" clip-rule="evenodd" d="M42.4994 145C57.1354 145 69 142.314 69 139C69 135.686 57.1354 133 42.4994 133C27.8635 133 16 135.686 16 139C16 142.314 27.8635 145 42.4994 145Z" fill="#B643D5"/>
<path opacity="0.1" fill-rule="evenodd" clip-rule="evenodd" d="M155.5 151C166.822 151 176 148.314 176 145C176 141.686 166.822 139 155.5 139C144.177 139 135 141.686 135 145C135 148.314 144.177 151 155.5 151Z" fill="#B643D5"/>
<path fill-rule="evenodd" clip-rule="evenodd" d="M13.5 146C20.9554 146 27 145.104 27 144C27 142.896 20.9554 142 13.5 142C6.04457 142 0 142.896 0 144C0 145.104 6.04457 146 13.5 146Z" fill="#FA7268"/>
<path fill-rule="evenodd" clip-rule="evenodd" d="M18.6539 139.98C19.2765 139.496 19.7321 138.845 19.9563 138.112C20.1269 137.373 19.7928 136.499 19.0452 136.211C18.2077 135.909 17.313 136.46 16.6367 137.014C15.9592 137.569 15.1801 138.206 14.2912 138.086C14.7479 137.695 15.0913 137.196 15.2852 136.642C15.4791 136.087 15.5165 135.493 15.3973 134.92C15.3576 134.683 15.2502 134.46 15.0878 134.275C14.6241 133.804 13.7807 134.004 13.2271 134.379C11.4574 135.557 10.9645 137.838 10.9552 139.887C10.7741 139.148 10.9271 138.376 10.9201 137.628C10.9131 136.879 10.6994 136.015 10.0219 135.617C9.60487 135.405 9.13414 135.3 8.66107 135.314C7.86561 135.286 6.98022 135.363 6.43589 135.914C5.75491 136.599 5.93946 137.748 6.52467 138.496C7.10987 139.245 8.00462 139.725 8.82811 140.244C9.4869 140.617 10.0476 141.126 10.4704 141.733C10.5218 141.817 10.5627 141.907 10.5931 142H15.5644C16.6846 141.462 17.7241 140.783 18.6539 139.98Z" fill="#FA7268"/>
<path fill-rule="evenodd" clip-rule="evenodd" d="M134.5 148C139.194 148 143 147.328 143 146.499C143 145.671 139.194 145 134.5 145C129.806 145 126 145.671 126 146.499C126 147.328 129.806 148 134.5 148Z" fill="#FA7268"/>
<path fill-rule="evenodd" clip-rule="evenodd" d="M138.135 144.737C138.536 144.435 138.828 144.028 138.972 143.57C139.081 143.108 138.868 142.561 138.386 142.382C137.848 142.193 137.273 142.537 136.838 142.884C136.403 143.231 135.901 143.628 135.33 143.553C135.624 143.309 135.845 142.997 135.969 142.652C136.093 142.304 136.118 141.934 136.042 141.575C136.016 141.427 135.947 141.287 135.843 141.172C135.545 140.878 135.002 141.002 134.647 141.237C133.509 141.972 133.191 143.398 133.186 144.679C133.069 144.217 133.168 143.735 133.163 143.267C133.159 142.799 133.021 142.259 132.586 142.011C132.318 141.879 132.015 141.813 131.712 141.821C131.199 141.804 130.631 141.851 130.28 142.196C129.843 142.624 129.961 143.342 130.337 143.81C130.714 144.278 131.29 144.579 131.818 144.902C132.242 145.136 132.603 145.453 132.874 145.833C132.908 145.885 132.933 145.942 132.953 146H136.149C136.869 145.663 137.537 145.239 138.135 144.737Z" fill="#FA7268"/>
</svg>
