<svg width="292" height="191" viewBox="0 0 292 191" fill="none" xmlns="http://www.w3.org/2000/svg">
<g clip-path="url(#clip0)">
<path d="M52.9081 162.32C58.1646 158.651 59.9328 154.131 60.5287 147.749C61.1246 141.368 58.7895 134.768 54.3082 130.184C50.573 126.366 45.428 123.856 42.6472 119.291C39.6823 114.431 39.784 107.803 35.6661 103.868C32.8369 101.164 28.6996 100.442 25.2599 98.5721C22.4548 97.0458 20.1439 94.7684 17.5763 92.869C15.0086 90.9695 11.9614 89.3947 8.77846 89.6322C3.97744 89.9907 0.237385 94.7103 0.00968805 99.5218C-0.218009 104.333 2.46591 108.937 6.13814 112.052C8.80268 114.315 12.0825 116.045 13.8266 119.069C17.1015 124.752 13.6812 132.651 17.1984 138.189C19.7661 142.235 25.5941 144.168 26.4032 148.893C26.6987 150.632 26.2094 152.401 26.2239 154.165C26.2675 159.674 31.4174 164.117 36.8385 165.096C42.2645 166.08 47.7971 164.379 52.9081 162.32Z" fill="#F5F5F5"/>
<path d="M19.1896 109.005C19.1751 109.019 19.3737 109.242 19.7661 109.649C20.2118 110.1 20.7883 110.681 21.5102 111.403C22.2805 112.149 23.2106 113.075 24.2183 114.214C25.2405 115.343 26.4565 116.578 27.6531 118.08C28.2684 118.817 28.9079 119.587 29.5765 120.392C30.2402 121.196 30.8651 122.088 31.5531 122.984C32.9483 124.753 34.2612 126.773 35.6855 128.866C38.4131 133.13 41.1503 137.986 43.5677 143.306C45.9368 148.651 47.7535 153.922 49.1294 158.792C49.7495 161.244 50.389 163.57 50.7814 165.784C50.9945 166.889 51.2465 167.95 51.4063 168.982C51.5614 170.014 51.7115 171.008 51.8569 171.957C52.1863 173.847 52.2977 175.577 52.4673 177.094C52.6466 178.605 52.7241 179.914 52.7725 180.989C52.8355 182.007 52.8839 182.826 52.9275 183.456C52.9711 184.018 53.0051 184.318 53.0244 184.318C53.0487 184.318 53.0583 184.023 53.0583 183.456C53.0487 182.821 53.039 182.002 53.0293 180.98C53.0244 179.904 52.9857 178.586 52.8355 177.065C52.6998 175.543 52.6223 173.799 52.322 171.899C52.1912 170.945 52.0555 169.947 51.915 168.905C51.7648 167.863 51.5275 166.797 51.324 165.683C50.9461 163.449 50.326 161.108 49.7204 158.637C48.3639 153.729 46.5569 148.418 44.1733 143.039C41.7365 137.685 38.9653 132.811 36.1991 128.537C34.7554 126.439 33.4182 124.423 31.9939 122.659C31.2963 121.768 30.6568 120.881 29.9786 120.077C29.2955 119.282 28.6414 118.516 28.0116 117.785C26.7908 116.297 25.5409 115.081 24.4896 113.971C23.448 112.852 22.4936 111.951 21.6894 111.229C20.9337 110.541 20.3281 109.988 19.8581 109.562C19.4318 109.179 19.2041 108.99 19.1896 109.005Z" fill="#E0E0E0"/>
<path d="M288.517 68.0449C288.517 68.0449 283.895 64.9874 278.261 76.0449C272.626 87.1023 270.49 93.479 270.49 93.479C270.49 93.479 269.003 95.7951 267.409 94.2833C265.82 92.7715 263.64 88.4736 260.936 89.2489C258.131 90.0532 257.206 93.1834 257.744 97.7818C258.277 102.38 259.081 112.502 259.149 113.418C259.216 114.315 258.703 115.642 257.453 114.785C256.203 113.927 249.019 105.922 245.424 109.561C241.829 113.2 245.424 125.769 245.792 127.15C246.16 128.531 245.889 129.122 245.23 129.467C244.576 129.811 242.41 126.889 240.274 124.699C238.137 122.504 235.274 120.338 233.375 122.61C231.476 124.883 230.871 134.317 239.848 149.634L244.469 156.461L252.739 156.001C270.374 153.941 277.534 147.773 278.207 144.89C278.881 142.007 275.427 141.028 272.389 140.64C269.351 140.253 265.723 140.287 265.597 139.555C265.476 138.823 265.781 138.251 267.108 137.714C268.431 137.176 280.63 132.476 281.371 127.417C282.112 122.358 271.396 121.438 269.957 120.958C268.518 120.478 269.269 119.267 270.025 118.782C270.795 118.288 279.36 112.832 283.352 110.487C287.344 108.141 289.287 105.52 288.241 102.797C287.228 100.171 282.49 101.019 280.32 100.66C278.154 100.301 279.104 97.7188 279.104 97.7188C279.104 97.7188 282.907 92.1755 288.337 81.0163C293.768 69.8571 288.405 67.9916 288.405 67.9916" fill="#EBEBEB"/>
<path d="M283.454 77.9395C283.454 77.9395 283.425 78.0218 283.352 78.1769C283.275 78.3416 283.168 78.5742 283.028 78.8698C282.732 79.4852 282.311 80.3767 281.763 81.5203C280.664 83.817 279.045 87.1362 277.035 91.221C273.014 99.4002 267.365 110.651 261.082 123.056C254.798 135.465 249.125 146.702 245.06 154.862C243.035 158.937 241.398 162.237 240.259 164.529C239.697 165.662 239.257 166.544 238.951 167.155C238.801 167.446 238.69 167.673 238.607 167.833C238.53 167.988 238.481 168.061 238.481 168.061C238.481 168.061 238.511 167.979 238.583 167.824C238.661 167.659 238.767 167.431 238.908 167.131C239.203 166.515 239.625 165.624 240.172 164.485C241.272 162.188 242.89 158.874 244.901 154.784C248.922 146.605 254.575 135.354 260.854 122.944C267.133 110.54 272.81 99.3033 276.87 91.1434C278.895 87.0684 280.533 83.7686 281.671 81.4767C282.233 80.3428 282.674 79.4609 282.979 78.8504C283.129 78.5597 283.241 78.3319 283.323 78.172C283.406 78.0121 283.454 77.9395 283.454 77.9395Z" fill="#E0E0E0"/>
<path d="M263.746 95.3731C263.766 95.3683 263.838 95.567 263.954 95.9304C264.076 96.2938 264.231 96.8268 264.42 97.4858C264.793 98.8037 265.263 100.64 265.742 102.67C266.207 104.676 266.634 106.494 266.953 107.879C267.104 108.504 267.229 109.033 267.331 109.454C267.423 109.827 267.462 110.036 267.447 110.04C267.433 110.045 267.355 109.847 267.234 109.483C267.118 109.12 266.958 108.587 266.779 107.928C266.42 106.605 265.975 104.764 265.49 102.733C265.011 100.732 264.575 98.92 264.24 97.5342C264.085 96.9092 263.959 96.3858 263.853 95.9594C263.77 95.5863 263.727 95.378 263.746 95.3731Z" fill="#E0E0E0"/>
<path d="M268.203 110.192C268.184 110.124 271.919 108.99 276.55 107.657C281.182 106.325 284.951 105.303 284.97 105.37C284.99 105.438 281.255 106.572 276.623 107.905C271.992 109.237 268.223 110.259 268.203 110.192Z" fill="#E0E0E0"/>
<path d="M257.7 128.808C257.7 128.789 257.918 128.779 258.311 128.779C258.756 128.779 259.308 128.784 259.967 128.784C261.363 128.789 263.291 128.784 265.422 128.702C267.549 128.624 269.477 128.488 270.868 128.377C271.522 128.324 272.074 128.28 272.515 128.246C272.903 128.217 273.121 128.212 273.125 128.227C273.125 128.246 272.917 128.285 272.529 128.343C272.142 128.401 271.58 128.479 270.887 128.556C269.497 128.711 267.569 128.881 265.437 128.958C263.305 129.041 261.367 129.016 259.972 128.968C259.275 128.939 258.708 128.91 258.32 128.881C257.913 128.852 257.7 128.828 257.7 128.808Z" fill="#E0E0E0"/>
<path d="M250.719 116.296C250.733 116.287 250.85 116.451 251.044 116.757C251.262 117.11 251.528 117.546 251.843 118.06C252.507 119.17 253.408 120.706 254.391 122.416C255.375 124.127 256.251 125.677 256.876 126.811C257.162 127.339 257.405 127.79 257.603 128.158C257.768 128.478 257.855 128.662 257.841 128.667C257.826 128.677 257.71 128.512 257.516 128.207C257.298 127.853 257.031 127.417 256.717 126.903C256.053 125.793 255.152 124.257 254.168 122.547C253.185 120.837 252.308 119.286 251.688 118.152C251.402 117.624 251.16 117.173 250.961 116.805C250.787 116.485 250.7 116.306 250.719 116.296Z" fill="#E0E0E0"/>
<path d="M239.354 131.555C239.368 131.545 239.513 131.759 239.76 132.151C240.027 132.587 240.376 133.149 240.788 133.823C241.645 135.238 242.817 137.2 244.096 139.38C245.375 141.556 246.524 143.538 247.342 144.977C247.73 145.665 248.05 146.242 248.302 146.688C248.524 147.095 248.636 147.322 248.621 147.332C248.607 147.342 248.461 147.128 248.214 146.736C247.948 146.3 247.599 145.743 247.187 145.069C246.33 143.654 245.157 141.692 243.878 139.511C242.599 137.336 241.451 135.354 240.632 133.915C240.245 133.227 239.925 132.65 239.673 132.204C239.455 131.792 239.339 131.565 239.354 131.555Z" fill="#E0E0E0"/>
<path d="M248.51 146.886C248.51 146.867 248.786 146.848 249.28 146.833C249.823 146.814 250.525 146.794 251.378 146.765C253.151 146.707 255.593 146.615 258.291 146.436C260.99 146.261 263.426 146.038 265.19 145.869C266.038 145.787 266.74 145.719 267.278 145.665C267.772 145.622 268.043 145.602 268.048 145.622C268.048 145.641 267.782 145.69 267.292 145.767C266.803 145.845 266.091 145.942 265.209 146.053C263.451 146.271 261.009 146.523 258.306 146.697C255.602 146.877 253.151 146.94 251.378 146.954C250.491 146.959 249.774 146.954 249.275 146.94C248.786 146.92 248.51 146.906 248.51 146.886Z" fill="#E0E0E0"/>
<path d="M188.911 12.4141H222.17C223.618 12.4141 224.791 13.5867 224.791 15.0355V37.0777C224.791 38.5265 223.618 39.6991 222.17 39.6991H204.656L196.328 48.0285V39.6991H188.911C187.836 39.6991 186.969 38.8269 186.969 37.756V14.3571C186.969 13.2863 187.841 12.4141 188.911 12.4141Z" fill="#E0E0E0"/>
<path d="M199.947 26.5191C199.947 27.5997 199.07 28.4767 197.99 28.4767C196.91 28.4767 196.033 27.5997 196.033 26.5191C196.033 25.4386 196.91 24.5615 197.99 24.5615C199.07 24.5615 199.947 25.4386 199.947 26.5191Z" fill="#FAFAFA"/>
<path d="M207.689 26.5191C207.689 27.5997 206.812 28.4767 205.732 28.4767C204.651 28.4767 203.775 27.5997 203.775 26.5191C203.775 25.4386 204.651 24.5615 205.732 24.5615C206.812 24.5615 207.689 25.4386 207.689 26.5191Z" fill="#FAFAFA"/>
<path d="M215.431 26.5191C215.431 27.5997 214.554 28.4767 213.474 28.4767C212.393 28.4767 211.516 27.5997 211.516 26.5191C211.516 25.4386 212.393 24.5615 213.474 24.5615C214.554 24.5615 215.431 25.4386 215.431 26.5191Z" fill="#FAFAFA"/>
<path d="M242.963 178.843C234.64 170.751 234.494 158.225 236.65 147.337C237.009 145.52 237.125 143.563 238.254 142.099C239.383 140.636 241.592 139.87 243.103 140.907C244.358 141.765 244.692 143.442 245.235 144.871C245.962 146.771 247.231 148.457 248.854 149.663C249.92 150.458 251.3 151.059 252.55 150.613C254.27 149.998 254.808 147.851 255.094 146.034C255.627 142.642 256.155 139.25 256.688 135.858C256.973 134.041 257.269 132.181 258.117 130.548C258.965 128.915 260.471 127.514 262.278 127.311C264.085 127.107 266.062 128.455 266.135 130.291C266.164 131.057 265.888 131.798 265.82 132.563C265.747 133.324 265.96 134.221 266.643 134.545C267.336 134.875 268.145 134.477 268.775 134.037C270.95 132.505 272.607 130.349 274.182 128.193C275.756 126.037 277.301 123.817 279.331 122.092C281.361 120.367 283.972 119.166 286.598 119.442C289.224 119.718 291.738 121.777 291.976 124.442C292.218 127.112 290.3 129.467 288.333 131.279C285.416 133.964 282.122 136.222 278.576 137.957C277.936 138.271 277.243 138.606 276.914 139.245C276.323 140.394 277.272 141.784 278.406 142.376C279.685 143.049 281.182 143.146 282.568 143.543C283.958 143.941 285.392 144.818 285.707 146.242C286.148 148.219 284.278 149.915 282.543 150.942C279.065 152.997 275.242 154.446 271.289 155.207C269.875 155.478 268.397 155.677 267.166 156.442C265.936 157.208 265.02 158.734 265.461 160.12C265.902 161.506 267.51 162.189 268.954 162.16C270.398 162.131 271.774 161.573 273.188 161.288C275.838 160.75 279.036 161.448 280.286 163.87C281.104 165.46 280.877 167.451 280.068 169.055C279.259 170.659 277.946 171.943 276.58 173.096C271.812 177.142 266.072 180.088 259.948 181.149C253.834 182.215 248.379 181.886 242.963 178.843Z" fill="#3F7BD3"/>
<path d="M241.5 186.934C242.604 182.661 244.387 177.694 246.911 172.437C249.421 167.174 252.652 161.636 256.232 155.957C257.133 154.542 258.02 153.142 258.897 151.761C259.774 150.385 260.646 149.023 261.581 147.744C263.436 145.176 265.418 142.845 267.37 140.694C269.317 138.537 271.246 136.565 273.062 134.734C274.884 132.907 276.613 131.23 278.256 129.777C281.531 126.85 284.447 124.805 286.506 123.483C287.533 122.819 288.347 122.329 288.904 122.005C289.171 121.85 289.384 121.728 289.539 121.641C289.684 121.559 289.757 121.52 289.762 121.53C289.767 121.535 289.694 121.583 289.558 121.675C289.403 121.772 289.2 121.903 288.938 122.068C288.396 122.412 287.591 122.916 286.574 123.599C284.539 124.951 281.657 127.02 278.411 129.961C276.783 131.424 275.068 133.106 273.256 134.937C271.449 136.779 269.531 138.756 267.593 140.907C265.655 143.058 263.688 145.384 261.842 147.943C260.917 149.217 260.055 150.569 259.173 151.95C258.296 153.331 257.409 154.726 256.508 156.141C252.933 161.815 249.702 167.339 247.182 172.577C244.653 177.81 242.851 182.748 241.722 186.997" fill="#263238"/>
<path d="M261.677 147.744C261.653 147.744 261.639 147.458 261.624 146.94C261.61 146.421 261.614 145.67 261.634 144.745C261.673 142.894 261.813 140.335 261.978 137.52C262.143 134.7 262.244 132.151 262.254 130.305C262.259 129.38 262.259 128.633 262.254 128.12C262.249 127.601 262.259 127.315 262.283 127.315C262.307 127.315 262.341 127.596 262.39 128.115C262.438 128.629 262.477 129.38 262.501 130.305C262.554 132.156 262.487 134.719 262.322 137.539C262.152 140.321 261.997 142.831 261.881 144.754C261.832 145.622 261.794 146.353 261.76 146.94C261.726 147.458 261.697 147.744 261.677 147.744Z" fill="#263238"/>
<path d="M285.75 147.187C285.746 147.211 285.406 147.197 284.801 147.148C284.19 147.105 283.314 147.037 282.224 146.983C280.043 146.867 277.03 146.809 273.702 146.891C270.374 146.979 267.365 147.187 265.19 147.4C264.105 147.497 263.223 147.604 262.617 147.671C262.012 147.744 261.673 147.768 261.668 147.749C261.663 147.725 261.997 147.652 262.598 147.541C263.199 147.434 264.076 147.294 265.161 147.163C267.331 146.886 270.349 146.639 273.687 146.552C277.025 146.47 280.048 146.567 282.228 146.746C283.318 146.828 284.2 146.935 284.806 147.017C285.421 147.105 285.755 147.163 285.75 147.187Z" fill="#263238"/>
<path d="M247.265 172.054C247.255 172.059 247.216 171.952 247.153 171.744C247.081 171.497 246.998 171.197 246.892 170.833C246.669 170.043 246.373 168.885 246.029 167.456C245.337 164.597 244.508 160.614 243.651 156.205C242.793 151.795 242.004 147.812 241.369 144.939C241.059 143.543 240.802 142.395 240.613 141.542C240.531 141.174 240.468 140.869 240.414 140.617C240.371 140.403 240.356 140.292 240.366 140.287C240.376 140.287 240.414 140.394 240.477 140.597C240.55 140.844 240.632 141.145 240.739 141.508C240.962 142.298 241.257 143.456 241.601 144.886C242.294 147.744 243.123 151.727 243.98 156.137C244.838 160.541 245.627 164.529 246.262 167.398C246.572 168.793 246.829 169.942 247.018 170.794C247.1 171.163 247.163 171.473 247.216 171.72C247.26 171.938 247.279 172.054 247.265 172.054Z" fill="#263238"/>
<path d="M279.947 167.107C279.947 167.117 279.835 167.146 279.617 167.184C279.36 167.228 279.046 167.277 278.668 167.34C277.791 167.475 276.609 167.654 275.165 167.877C272.21 168.333 268.135 169.002 263.635 169.753C259.129 170.504 255.045 171.138 252.08 171.531C250.598 171.73 249.396 171.875 248.563 171.957C248.18 171.996 247.861 172.025 247.604 172.049C247.386 172.069 247.27 172.069 247.265 172.059C247.265 172.049 247.376 172.02 247.594 171.982C247.851 171.938 248.166 171.889 248.544 171.826C249.421 171.691 250.603 171.512 252.042 171.289C254.997 170.838 259.071 170.164 263.577 169.413C268.077 168.662 272.161 168.028 275.131 167.635C276.614 167.436 277.815 167.291 278.648 167.209C279.031 167.17 279.351 167.141 279.608 167.117C279.83 167.097 279.942 167.097 279.947 167.107Z" fill="#263238"/>
<path d="M19.4269 140.616C22.0479 139.914 24.911 140.577 27.2171 142.002C29.5231 143.431 31.3253 145.563 32.7642 147.865C35.545 152.318 36.4994 158.283 36.5963 163.535C30.773 163.264 25.8218 158.661 23.4577 156.165C19.7176 152.216 15.3574 142.821 19.4269 140.616Z" fill="#3F7BD3"/>
<path d="M45.9512 167.097C43.5677 165.227 42.5164 161.932 43.0348 158.942C43.5531 155.957 45.4958 153.321 48.0053 151.62C49.168 150.835 50.6021 150.215 51.944 150.617C53.1988 150.995 54.066 152.221 54.313 153.51C54.5601 154.799 54.2791 156.132 53.8431 157.367C52.3461 161.607 50.1224 165.435 45.9512 167.097Z" fill="#3F7BD3"/>
<path d="M51.2416 183.712C51.2077 183.731 50.9994 183.397 50.6603 182.772C50.3212 182.152 49.8512 181.241 49.3038 180.097C48.2234 177.82 46.7701 174.578 46.0773 170.726C45.3893 166.869 45.8932 163.235 46.8621 160.866C47.3369 159.674 47.8649 158.772 48.2864 158.201C48.7079 157.624 48.984 157.343 49.0131 157.362C49.1149 157.43 48.0781 158.646 47.2545 161.011C46.4116 163.351 45.9901 166.869 46.6586 170.629C47.332 174.389 48.7031 177.616 49.6865 179.933C50.6845 182.244 51.3192 183.673 51.2416 183.712Z" fill="#263238"/>
<path d="M23.3802 147.482C23.4093 147.458 23.8598 147.923 24.6446 148.791C25.4295 149.658 26.5437 150.932 27.9051 152.522C30.6277 155.7 34.3145 160.148 38.2629 165.164C42.2112 170.179 45.6751 174.811 48.1265 178.198C49.3522 179.894 50.3308 181.275 50.9897 182.239C51.6486 183.203 51.9974 183.751 51.9683 183.775C51.9344 183.799 51.5226 183.3 50.8056 182.375C50.0305 181.367 49.0179 180.039 47.7971 178.445C45.2634 175.121 41.751 170.537 37.8075 165.527C33.864 160.517 30.2305 156.03 27.595 152.788C26.3306 151.223 25.2793 149.929 24.4799 148.941C23.7387 148.025 23.3511 147.507 23.3802 147.482Z" fill="#263238"/>
<path d="M42.0173 173.571C37.0274 169.578 30.0414 168.222 23.9227 170.063C22.3627 170.533 20.638 171.483 20.483 173.101C20.3279 174.724 21.8492 175.994 23.3074 176.716C29.3826 179.735 37.2696 178.581 42.2305 173.959" fill="#3F7BD3"/>
<path d="M27.7936 173.028C27.784 172.989 28.1425 172.882 28.8062 172.722C29.1356 172.635 29.5426 172.548 30.027 172.495C30.5066 172.436 31.0541 172.335 31.6645 172.33C32.8805 172.243 34.3436 172.301 35.9423 172.519C37.5362 172.771 39.2706 173.197 41.0146 173.871C42.749 174.568 44.3041 175.446 45.6412 176.356C46.959 177.297 48.0635 178.251 48.892 179.148C49.3328 179.569 49.6623 180.015 49.9723 180.388C50.2872 180.756 50.5246 181.1 50.7087 181.386C51.0817 181.953 51.2707 182.278 51.2416 182.302C51.1496 182.37 50.3163 181.115 48.6013 179.443C47.7535 178.6 46.6441 177.699 45.3409 176.807C44.0183 175.945 42.4971 175.106 40.8063 174.423C39.1058 173.764 37.4199 173.333 35.8696 173.057C34.3097 172.819 32.8853 172.718 31.6887 172.751C29.2809 172.795 27.813 173.139 27.7936 173.028Z" fill="#263238"/>
<path d="M125.728 38.8027C125.229 38.8463 120.941 39.2048 112.749 39.8881L112.797 39.8638C110.477 42.6209 107.013 45.4652 102.372 47.1224C100.061 47.9364 97.4835 48.4646 94.7512 48.513C92.0237 48.5324 89.1556 48.1593 86.3409 47.1805C83.531 46.2163 80.7841 44.6754 78.3763 42.5821C75.9686 40.4937 73.8951 37.8481 72.4271 34.8051C70.9544 31.767 70.0969 28.3315 70.0194 24.7992C69.9806 24.3582 70.0048 23.9173 70.0339 23.4715C70.0581 23.0257 70.0775 22.5848 70.1017 22.139C70.1017 21.6932 70.2131 21.2523 70.2664 20.8113C70.3343 20.3704 70.4021 19.9246 70.4699 19.4788C70.562 19.0379 70.6879 18.6066 70.7945 18.1657C70.9156 17.7296 71.0028 17.2838 71.153 16.8574C71.308 16.431 71.4631 16.0046 71.6229 15.5733L71.8603 14.9289C71.9378 14.7157 72.0541 14.517 72.1462 14.3086C73.6044 11.0864 75.7506 8.24693 78.3182 5.99377C80.8859 3.74061 83.8798 2.0786 87.0046 1.09981C90.1294 0.111327 93.3801 -0.179403 96.4662 0.106482C99.557 0.392367 102.493 1.26456 105.085 2.57284C110.283 5.19426 114.101 9.41954 116.121 13.8289C116.387 14.3765 116.659 14.9143 116.838 15.4764C117.036 16.0336 117.245 16.5763 117.429 17.119C117.695 18.2335 118.044 19.2995 118.156 20.3752C118.228 20.9082 118.33 21.4315 118.378 21.95C118.403 22.4685 118.427 22.9821 118.451 23.4812C118.461 23.7332 118.475 23.9803 118.485 24.2274C118.48 24.4745 118.466 24.7168 118.456 24.9591C118.432 25.4388 118.407 25.9136 118.388 26.3739L118.378 26.3303C122.986 34.1413 125.456 38.3423 125.728 38.8027C125.452 38.3472 122.937 34.1704 118.262 26.4079L118.252 26.3885V26.3643C118.272 25.9039 118.291 25.4339 118.315 24.9542C118.325 24.7168 118.34 24.4745 118.345 24.2274C118.33 23.9851 118.32 23.738 118.306 23.486C118.282 22.9869 118.252 22.483 118.228 21.9645C118.18 21.4509 118.078 20.9325 118.005 20.4043C117.894 19.3383 117.54 18.282 117.274 17.1723C117.09 16.6345 116.881 16.0918 116.683 15.5394C116.504 14.9773 116.232 14.4492 115.966 13.9065C113.946 9.53583 110.152 5.35416 104.998 2.76666C102.425 1.47776 99.5183 0.61526 96.4565 0.339066C93.3995 0.058027 90.1827 0.348757 87.0918 1.32755C84.001 2.30149 81.036 3.94412 78.4975 6.1779C75.954 8.40683 73.8369 11.2172 72.3884 14.4056C72.2963 14.6139 72.1801 14.8077 72.1026 15.0209L71.87 15.6557C71.715 16.0773 71.56 16.5037 71.4049 16.9252C71.2547 17.3468 71.1724 17.7926 71.0513 18.2238C70.9447 18.6599 70.8187 19.0863 70.7267 19.5224C70.6589 19.9634 70.591 20.4043 70.5232 20.8404C70.4699 21.2813 70.3585 21.7126 70.3585 22.1584C70.3343 22.5993 70.3149 23.0402 70.2907 23.4763C70.2664 23.9173 70.2374 24.3534 70.2761 24.7895C70.3536 28.2879 71.1966 31.6895 72.6548 34.6937C74.1082 37.7076 76.1527 40.3241 78.5362 42.398C80.9198 44.4767 83.6328 46.0031 86.4184 46.9625C89.2041 47.9316 92.0479 48.3095 94.7512 48.2998C97.4593 48.2611 100.017 47.7426 102.314 46.9431C106.921 45.3102 110.375 42.4998 112.696 39.7718L112.715 39.7475H112.744C120.936 39.1515 125.229 38.8366 125.728 38.8027Z" fill="#263238"/>
<path d="M238.69 189.232H55.1319C51.2319 189.232 48.0732 186.072 48.0732 182.172V65.5453C48.0732 61.6446 51.2319 58.4854 55.1319 58.4854H238.69C242.59 58.4854 245.748 61.6446 245.748 65.5453V182.172C245.748 186.072 242.59 189.232 238.69 189.232Z" fill="#455A64"/>
<path d="M245.627 191H48.703C43.9408 191 40.0796 187.138 40.0796 182.375V179.56H254.246V182.375C254.246 187.138 250.39 191 245.627 191Z" fill="#455A64"/>
<path d="M240.163 63.6846H53.6542V174.094H240.163V63.6846Z" fill="#F5F5F5"/>
<path d="M127.699 179.56C127.695 179.56 127.767 179.555 127.903 179.555C128.053 179.555 128.261 179.55 128.528 179.55C129.095 179.545 129.913 179.54 130.965 179.535C133.106 179.526 136.187 179.516 140 179.497C147.693 179.482 158.337 179.458 170.216 179.434H170.439L170.327 179.627C169.949 180.277 169.538 180.979 169.126 181.682C168.695 182.418 168.268 183.155 167.857 183.853L167.818 183.916H167.745C151.312 183.887 137.277 183.858 130.349 183.848H130.316L130.301 183.819C129.448 182.433 128.794 181.367 128.344 180.635C128.131 180.286 127.966 180.02 127.85 179.826C127.748 179.647 127.699 179.56 127.699 179.56C127.699 179.56 127.767 179.656 127.884 179.841C128.01 180.03 128.179 180.301 128.407 180.65C128.867 181.362 129.536 182.404 130.403 183.761L130.354 183.732C137.282 183.717 151.317 183.693 167.75 183.664L167.639 183.727C168.05 183.024 168.477 182.292 168.908 181.556C169.32 180.853 169.727 180.151 170.109 179.501L170.221 179.695C158.39 179.671 147.79 179.647 140.131 179.632C136.299 179.618 133.203 179.603 131.052 179.594C129.986 179.589 129.158 179.584 128.576 179.579C128.3 179.574 128.087 179.574 127.927 179.574C127.782 179.564 127.699 179.56 127.699 179.56Z" fill="#263238"/>
<path fill-rule="evenodd" clip-rule="evenodd" d="M121.905 84.2197C122.249 83.7593 122.647 83.3523 123.092 83.0083L122.811 81.4626L125.2 80.445L126.12 81.7194C126.677 81.637 127.244 81.6322 127.816 81.7L128.707 80.4062L131.12 81.3753L130.873 82.9259C131.333 83.2699 131.74 83.6673 132.084 84.1131L133.629 83.832L134.647 86.2208L133.373 87.1415C133.455 87.6987 133.46 88.2656 133.392 88.8374L134.685 89.729L133.716 92.142L132.166 91.8949C131.822 92.3552 131.425 92.7623 130.979 93.1063L131.26 94.652L128.872 95.6696L127.951 94.3952C127.399 94.4776 126.827 94.4824 126.256 94.4146L125.364 95.7083L122.952 94.7392L123.199 93.1887C122.739 92.8446 122.332 92.4473 121.988 92.0015L120.442 92.2826L119.425 89.8937L120.699 88.9731C120.617 88.4207 120.612 87.8489 120.68 87.2772L119.391 86.3856L120.36 83.9725L121.905 84.2197ZM124.487 86.9089C123.916 88.3383 124.604 89.9616 126.033 90.5333C127.462 91.1051 129.085 90.4122 129.657 88.9876C130.228 87.5582 129.536 85.935 128.111 85.3632C126.687 84.7866 125.064 85.4795 124.487 86.9089Z" fill="#E0E0E0"/>
<path fill-rule="evenodd" clip-rule="evenodd" d="M112.221 134.332C113.214 132.999 114.372 131.827 115.656 130.824L114.837 126.347L121.76 123.391L124.424 127.078C126.033 126.846 127.68 126.821 129.332 127.025L131.919 123.284L138.905 126.09L138.183 130.582C139.515 131.575 140.688 132.738 141.691 134.017L146.167 133.198L149.122 140.122L145.436 142.787C145.668 144.396 145.692 146.044 145.489 147.696L149.229 150.283L146.424 157.271L141.933 156.549C140.94 157.881 139.777 159.054 138.498 160.057L139.317 164.534L132.394 167.49L129.729 163.802C128.121 164.035 126.474 164.059 124.822 163.856L122.235 167.596L115.249 164.791L115.971 160.299C114.638 159.306 113.466 158.148 112.463 156.864L107.987 157.682L105.031 150.758L108.718 148.093C108.486 146.484 108.461 144.837 108.665 143.185L104.925 140.597L107.73 133.61L112.221 134.332ZM119.711 142.114C118.049 146.252 120.055 150.957 124.192 152.619C128.329 154.281 133.033 152.275 134.695 148.137C136.357 143.999 134.351 139.294 130.214 137.632C126.076 135.965 121.372 137.976 119.711 142.114Z" fill="#F5F5F5"/>
<path d="M81.38 147.963C81.38 147.963 81.4721 147.57 81.8742 146.974C82.2714 146.393 83.0563 145.603 84.3159 145.24C84.936 145.065 85.6627 144.992 86.4136 145.148C87.1597 145.303 87.9396 145.632 88.5743 146.218C88.8989 146.499 89.1847 146.843 89.4221 147.226C89.6643 147.609 89.8484 148.035 89.9647 148.491C90.2118 149.397 90.1488 150.415 89.7854 151.345C89.4076 152.266 88.7487 153.046 87.9396 153.53C87.5424 153.782 87.1112 153.962 86.6752 154.068C86.2392 154.184 85.7935 154.233 85.3623 154.209C84.4951 154.189 83.7054 153.889 83.0611 153.482C82.4119 153.07 81.9371 152.518 81.6077 151.96C80.9488 150.826 80.9295 149.712 81.0457 149.019C81.1765 148.312 81.38 147.963 81.38 147.963C81.4091 147.972 81.2395 148.336 81.1523 149.034C81.0651 149.717 81.1184 150.793 81.7724 151.868C82.097 152.396 82.5621 152.92 83.1822 153.303C83.8023 153.68 84.5581 153.957 85.3768 153.971C85.7838 153.991 86.2053 153.937 86.6171 153.831C87.0288 153.724 87.4358 153.554 87.8137 153.317C88.5743 152.857 89.1944 152.12 89.5529 151.248C89.8969 150.371 89.9599 149.412 89.7273 148.554C89.6207 148.123 89.4463 147.716 89.2235 147.352C89.0006 146.989 88.7342 146.659 88.4241 146.393C87.8234 145.836 87.087 145.511 86.3748 145.356C85.6627 145.201 84.965 145.259 84.3643 145.414C83.1531 145.739 82.3683 146.48 81.9565 147.032C81.535 147.599 81.4091 147.977 81.38 147.963Z" fill="#263238"/>
<path d="M77.2379 143.66C77.2379 143.665 77.1846 143.66 77.0829 143.645C76.9666 143.631 76.8116 143.607 76.6129 143.578C76.1818 143.515 75.5568 143.423 74.7526 143.301L74.7962 143.277C74.4038 144.271 73.8903 145.574 73.2653 147.149L73.2411 147.071C73.8709 147.502 74.5685 147.982 75.3146 148.496L75.3533 148.52L75.3485 148.564C75.2468 149.402 75.2468 150.313 75.3872 151.258L75.3969 151.306L75.3533 151.335C74.7187 151.796 74.0308 152.295 73.3186 152.818L73.3477 152.707C73.866 153.913 74.4135 155.192 74.99 156.534L74.8786 156.476C75.644 156.336 76.487 156.181 77.3542 156.021L77.4171 156.011L77.4559 156.06C77.9694 156.719 78.6235 157.378 79.3792 157.935L79.4325 157.974L79.4228 158.041C79.3017 158.812 79.1661 159.66 79.0256 160.527L78.9577 160.401C80.1737 160.886 81.4818 161.414 82.8238 161.952L82.6833 161.995C83.129 161.351 83.6183 160.643 84.1124 159.921L84.156 159.859L84.2287 159.868C85.062 159.97 85.9921 159.97 86.9126 159.834L86.9853 159.825L87.0289 159.888C87.4891 160.527 87.9978 161.225 88.5065 161.928L88.3563 161.884C89.5675 161.365 90.8707 160.808 92.1836 160.246L92.106 160.387C91.9607 159.607 91.8105 158.759 91.6555 157.911L91.641 157.833L91.7039 157.785C92.3773 157.261 93.0265 156.607 93.5788 155.871L93.6273 155.808L93.7048 155.822C94.538 155.958 95.3665 156.089 96.1901 156.22L96.0496 156.297C96.5728 154.994 97.0912 153.705 97.6047 152.43L97.6483 152.581C96.9507 152.101 96.2627 151.621 95.5796 151.146L95.5167 151.103L95.5263 151.025C95.6378 150.124 95.6232 149.218 95.4973 148.346L95.4876 148.273L95.5506 148.229C96.2385 147.73 96.9216 147.241 97.5902 146.756L97.5514 146.902C96.9943 145.593 96.4517 144.314 95.9188 143.069L96.0496 143.137C95.2114 143.287 94.383 143.437 93.574 143.587L93.5061 143.602L93.4625 143.549C92.9006 142.827 92.2514 142.192 91.5489 141.668L91.4956 141.63L91.5053 141.562C91.6458 140.709 91.7766 139.885 91.9074 139.076L91.9752 139.192C90.6188 138.645 89.3349 138.126 88.1141 137.632L88.2303 137.598C87.7265 138.325 87.2517 139.008 86.7963 139.662L86.7624 139.706L86.7091 139.701C85.7547 139.58 84.8585 139.604 84.0155 139.725L83.9671 139.73L83.938 139.687C83.4051 138.945 82.9255 138.277 82.4701 137.642L82.5621 137.666C81.0748 138.291 79.8104 138.829 78.7252 139.285L78.7591 139.222C78.9335 140.21 79.074 141.024 79.1951 141.702L79.2 141.727L79.1806 141.741C78.4587 142.298 77.9888 142.802 77.6933 143.137C77.5528 143.301 77.4462 143.427 77.3687 143.524C77.2718 143.621 77.2379 143.66 77.2379 143.66C77.2379 143.655 77.267 143.607 77.3299 143.519C77.3978 143.427 77.4947 143.292 77.64 143.122C77.9307 142.778 78.3861 142.264 79.1079 141.688L79.0934 141.727C78.9674 141.053 78.8124 140.239 78.6235 139.251L78.6138 139.207L78.6574 139.188C79.7377 138.722 80.9973 138.175 82.4798 137.535L82.5331 137.511L82.567 137.56C83.0272 138.189 83.5117 138.853 84.0494 139.595L83.9671 139.561C84.8197 139.435 85.7354 139.406 86.7043 139.522L86.6171 139.561C87.0725 138.902 87.5424 138.218 88.0414 137.487L88.085 137.424L88.1577 137.453C89.3785 137.942 90.6623 138.456 92.0237 138.999L92.1012 139.033L92.0867 139.115C91.9607 139.924 91.8251 140.748 91.6894 141.601L91.6458 141.494C92.3677 142.032 93.0314 142.672 93.6079 143.413L93.4965 143.369C94.3055 143.219 95.1339 143.069 95.9721 142.914L96.0641 142.894L96.1029 142.982C96.6358 144.227 97.1832 145.501 97.7403 146.81L97.7791 146.897L97.7016 146.955C97.033 147.439 96.3548 147.934 95.662 148.433L95.7104 148.317C95.8413 149.213 95.8558 150.143 95.7444 151.064L95.6911 150.948C96.3742 151.418 97.0621 151.897 97.7597 152.377L97.8421 152.435L97.8033 152.527C97.2946 153.797 96.7763 155.086 96.253 156.394L96.2143 156.491L96.1126 156.476C95.2938 156.346 94.4605 156.21 93.6273 156.079L93.7484 156.031C93.1864 156.786 92.5178 157.455 91.8251 157.993L91.8735 157.867C92.0285 158.715 92.1836 159.563 92.3241 160.343L92.3434 160.445L92.2514 160.484C90.9336 161.046 89.6353 161.598 88.4193 162.117L88.3272 162.155L88.2691 162.073C87.7604 161.37 87.2566 160.673 86.7963 160.033L86.9126 160.081C85.9679 160.217 85.0184 160.217 84.1657 160.11L84.282 160.057C83.7878 160.774 83.2937 161.482 82.848 162.126L82.7947 162.204L82.7075 162.17C81.3655 161.627 80.0575 161.104 78.8463 160.614L78.7591 160.58L78.7736 160.488C78.9141 159.626 79.0498 158.773 79.1757 158.003L79.2193 158.109C78.4491 157.533 77.7853 156.859 77.2621 156.186L77.3639 156.224C76.4967 156.379 75.6537 156.534 74.8883 156.67L74.8107 156.685L74.7817 156.612C74.21 155.265 73.6674 153.986 73.1539 152.779L73.1248 152.711L73.1829 152.668C73.8999 152.154 74.5879 151.655 75.2274 151.2L75.1935 151.282C75.0578 150.323 75.0627 149.397 75.1741 148.544L75.208 148.617C74.4668 148.098 73.7691 147.614 73.1442 147.178L73.1006 147.149L73.12 147.1C73.7595 145.53 74.2924 144.232 74.6945 143.243L74.709 143.214L74.7429 143.219C75.5423 143.355 76.1575 143.461 76.5839 143.534C76.7873 143.573 76.9424 143.597 77.0586 143.621C77.1798 143.645 77.233 143.655 77.2379 143.66Z" fill="#263238"/>
<path fill-rule="evenodd" clip-rule="evenodd" d="M67.7763 92.5252C68.566 90.3738 69.6366 88.3629 70.935 86.541L68.096 80.9444L76.0848 74.3158L81.0603 78.1389C83.095 77.1989 85.2654 76.5205 87.523 76.1377L89.4705 70.1777L99.8041 71.142L100.618 77.3588C102.769 78.1486 104.78 79.2194 106.601 80.518L112.197 77.6786L118.824 85.6688L115.002 90.6451C115.942 92.6803 116.62 94.8462 117.003 97.109L122.966 99.0569L122.002 109.392L115.787 110.206C114.997 112.358 113.926 114.369 112.628 116.191L115.467 121.787L107.478 128.416L102.503 124.593C100.468 125.533 98.2974 126.211 96.0398 126.594L94.0923 132.559L83.7587 131.594L82.9448 125.378C80.7938 124.588 78.7833 123.517 76.9617 122.218L71.3662 125.058L64.7387 117.068L68.5611 112.091C67.6213 110.056 66.943 107.885 66.5603 105.627L60.5966 103.68L61.5606 93.3441L67.7763 92.5252ZM80.7308 99.8613C80.1592 105.986 84.6598 111.413 90.7834 111.985C96.907 112.557 102.333 108.055 102.905 101.93C103.476 95.8056 98.9757 90.3786 92.8521 89.8069C86.7285 89.2399 81.3025 93.7414 80.7308 99.8613Z" fill="#E0E0E0"/>
<path d="M245.75 179.56C245.75 179.627 201.494 179.681 146.92 179.681C92.3207 179.681 48.0796 179.627 48.0796 179.56C48.0796 179.492 92.3255 179.438 146.92 179.438C201.494 179.443 245.75 179.497 245.75 179.56Z" fill="#263238"/>
<path d="M139.428 31.0107C136.381 32.3481 134.608 35.6334 133.939 38.8992C133.276 42.1602 133.494 45.5327 133.203 48.8519C132.912 52.1711 132.006 55.6356 129.584 57.9227C127.326 60.0547 124.008 60.922 122.084 63.3545C120.66 65.1618 120.239 67.7154 121.014 69.8862C121.789 72.057 123.732 73.7675 125.98 74.2617C124.458 76.6699 125.219 80.0327 127.166 82.1114C129.109 84.1901 131.968 85.1835 134.782 85.6099C139.733 86.3658 145.014 85.5323 149.195 82.7752C153.376 80.0182 156.302 75.2308 156.292 70.2254" fill="black"/>
<path d="M126.227 80.2316C126.227 80.2316 125.95 79.8876 125.689 79.1511C125.427 78.4194 125.243 77.2613 125.495 75.8803C125.621 75.1923 125.849 74.4558 126.193 73.7095C126.551 72.9682 127.021 72.222 127.593 71.5C128.726 70.0415 130.253 68.6993 131.783 67.2602C133.314 65.8114 134.719 64.3723 135.858 62.9477C137.011 61.5377 137.878 60.1276 138.464 58.8872C139.05 57.6419 139.365 56.5662 139.52 55.8103C139.612 55.4372 139.637 55.1367 139.68 54.9381C139.714 54.7394 139.738 54.6328 139.748 54.6328C139.758 54.6328 139.748 54.7394 139.729 54.9429C139.7 55.1464 139.69 55.4469 139.612 55.8297C139.482 56.5952 139.191 57.6903 138.614 58.9598C138.038 60.2245 137.18 61.6588 136.027 63.0882C134.889 64.5322 133.479 65.9858 131.943 67.4395C130.403 68.8883 128.886 70.2159 127.762 71.6454C127.196 72.3528 126.726 73.0845 126.367 73.8065C126.018 74.5333 125.791 75.2504 125.655 75.9239C125.389 77.271 125.544 78.4048 125.771 79.1365C126.009 79.8585 126.251 80.2219 126.227 80.2316Z" fill="black"/>
<path d="M175.865 41.957C175.865 46.4343 177.928 50.5384 179.789 52.0502C182.415 54.1871 186.271 55.2192 188.814 55.9266C192.516 56.9636 195.616 60.2003 196.081 64.0186C196.542 67.832 194.047 71.9119 190.326 72.8713C192.666 75.2602 191.968 79.3692 190.045 82.102C186.397 87.2819 179.115 89.2734 173.074 87.3594C167.033 85.4454 162.406 80.0911 160.604 74.0149" fill="black"/>
<path d="M185.074 86.0608C185.06 86.0221 185.665 86.0221 186.499 85.4358C186.906 85.145 187.347 84.6944 187.69 84.0693C188.044 83.454 188.301 82.6593 188.33 81.7629C188.354 80.8713 188.088 79.8925 187.579 78.9719C187.07 78.0464 186.319 77.179 185.404 76.4183C183.568 74.8726 181.078 73.9083 178.665 72.5177C177.463 71.8102 176.349 70.9962 175.463 70.0029C175.022 69.5086 174.639 68.9756 174.344 68.4087C174.048 67.8418 173.845 67.2409 173.719 66.6449C173.462 65.4481 173.486 64.2852 173.564 63.2191C173.646 62.1483 173.782 61.1598 173.874 60.2585C174.072 58.456 174.048 56.9781 173.806 55.9945C173.738 55.7522 173.68 55.539 173.631 55.3452C173.578 55.1611 173.501 55.0109 173.457 54.8849C173.36 54.6378 173.312 54.5021 173.316 54.5021C173.326 54.4972 173.384 54.6232 173.501 54.8655C173.554 54.9866 173.636 55.1368 173.699 55.321C173.757 55.5148 173.825 55.728 173.898 55.9703C174.174 56.9636 174.222 58.4609 174.043 60.2731C173.961 61.1792 173.835 62.1677 173.762 63.2288C173.694 64.29 173.68 65.4335 173.937 66.5965C174.184 67.7545 174.76 68.8932 175.642 69.8429C176.504 70.8072 177.604 71.6116 178.791 72.3045C181.174 73.6806 183.689 74.6545 185.554 76.239C186.484 77.0191 187.25 77.9107 187.763 78.8653C188.277 79.8198 188.538 80.8277 188.504 81.758C188.466 82.6835 188.185 83.4976 187.812 84.1226C187.443 84.7574 186.983 85.208 186.557 85.4988C186.135 85.7992 185.738 85.9058 185.486 85.9882C185.215 86.0512 185.074 86.0705 185.074 86.0608Z" fill="black"/>
<path d="M193.795 71.1223C193.751 71.1078 194.182 70.754 194.245 69.877C194.265 69.4506 194.182 68.9128 193.901 68.3652C193.625 67.8225 193.179 67.2508 192.53 66.8486C191.871 66.4464 191.048 66.1944 190.151 66.0442C189.25 65.8892 188.267 65.831 187.235 65.6711C185.171 65.3513 182.972 64.5373 180.971 63.1902C178.975 61.8383 177.396 60.0939 176.339 58.2914C175.274 56.4889 174.717 54.6621 174.44 53.1164C174.164 51.561 174.179 50.277 174.242 49.3999C174.276 48.959 174.314 48.6246 174.358 48.3969C174.392 48.1692 174.416 48.048 174.426 48.0529C174.455 48.0577 174.373 48.5374 174.334 49.4096C174.3 50.2818 174.31 51.5562 174.605 53.0873C174.901 54.6137 175.472 56.4114 176.528 58.18C177.575 59.9486 179.135 61.659 181.102 62.9916C183.073 64.3144 185.239 65.1236 187.269 65.4531C188.286 65.6178 189.27 65.6808 190.185 65.8504C191.096 66.0103 191.944 66.2768 192.622 66.7081C193.305 67.1393 193.751 67.7401 194.027 68.3119C194.308 68.8837 194.381 69.4458 194.347 69.8867C194.308 70.3325 194.148 70.6523 194.027 70.851C193.964 70.9479 193.901 71.0109 193.862 71.0593C193.819 71.1029 193.799 71.1223 193.795 71.1223Z" fill="black"/>
<path d="M141.603 94.4472C142.243 87.7556 142.79 80.7005 142.79 80.7005C142.79 80.7005 134.317 78.4231 133.639 67.0023C132.99 56.1145 137.195 31.5235 137.195 31.5235C150.091 27.6859 164.451 32.4975 172.318 43.2981L166.243 97.558C165.536 103.857 159.562 108.267 152.824 107.462C146.012 106.648 140.993 100.824 141.603 94.4472Z" fill="#B78876"/>
<path d="M138.479 51.1813C138.377 51.9421 138.934 52.6544 139.724 52.7707C140.513 52.8918 141.235 52.3782 141.337 51.6174C141.439 50.8567 140.882 50.1444 140.092 50.0233C139.302 49.907 138.58 50.4206 138.479 51.1813Z" fill="black"/>
<path d="M136.299 49.3356C136.458 49.5391 137.631 48.8413 139.181 48.9964C140.731 49.132 141.792 50.043 141.981 49.8686C142.073 49.791 141.923 49.4373 141.463 49.0254C141.012 48.6184 140.213 48.1872 139.244 48.0951C138.275 48.003 137.427 48.2792 136.928 48.599C136.415 48.9188 136.216 49.2435 136.299 49.3356Z" fill="black"/>
<path d="M154.33 53.0182C154.229 53.779 154.786 54.4913 155.575 54.6076C156.365 54.7287 157.087 54.2102 157.189 53.4543C157.29 52.6936 156.733 51.9813 155.944 51.8602C155.154 51.7439 154.432 52.2575 154.33 53.0182Z" fill="black"/>
<path d="M152.431 51.4918C152.591 51.6953 153.763 50.9976 155.314 51.1526C156.864 51.2883 157.925 52.1992 158.114 52.0248C158.206 51.9473 158.056 51.5936 157.596 51.1817C157.145 50.7747 156.346 50.3434 155.377 50.2514C154.408 50.1593 153.56 50.4355 153.061 50.7553C152.547 51.0751 152.349 51.3997 152.431 51.4918Z" fill="black"/>
<path d="M145.668 62.4474C145.683 62.3602 144.738 62.0985 143.193 61.7448C142.8 61.6624 142.432 61.551 142.393 61.2699C142.33 60.9744 142.534 60.5625 142.771 60.1216C143.236 59.2009 143.725 58.2318 144.239 57.2191C146.288 53.0859 147.814 49.6698 147.645 49.5875C147.475 49.5051 145.683 52.7903 143.629 56.9284C143.134 57.9508 142.66 58.9199 142.209 59.8551C142.015 60.2912 141.705 60.7757 141.851 61.3911C141.928 61.6963 142.199 61.9435 142.446 62.0355C142.694 62.1373 142.916 62.1664 143.11 62.1954C144.68 62.4329 145.654 62.5346 145.668 62.4474Z" fill="black"/>
<path d="M142.79 80.7002C142.79 80.7002 150.304 81.931 158.24 78.166C158.24 78.166 153.826 85.5312 142.679 83.3701L142.79 80.7002Z" fill="#AA6550"/>
<path d="M145.954 66.2518C146.584 65.5686 147.601 65.2585 148.56 65.462C149.229 65.6025 149.873 65.9902 150.232 66.5813C150.585 67.1676 150.595 67.9574 150.174 68.442C149.699 68.9895 148.807 69.038 148.09 68.7569C147.369 68.4759 146.782 67.9235 146.225 67.376C146.07 67.2258 145.915 67.0659 145.828 66.872C145.741 66.6782 145.741 66.436 145.886 66.2954" fill="#AA6550"/>
<path d="M150.125 63.9694C149.873 63.9306 149.704 65.612 148.149 66.6684C146.593 67.7247 144.815 67.3613 144.777 67.5938C144.743 67.6956 145.145 67.9621 145.901 68.0542C146.642 68.1511 147.751 68.0202 148.706 67.3758C149.655 66.7313 150.13 65.7865 150.256 65.1033C150.392 64.4055 150.241 63.9694 150.125 63.9694Z" fill="black"/>
<path d="M166.965 55.2956C168.191 55.1793 169.455 55.3392 170.56 55.8819C171.664 56.4246 172.59 57.3791 172.972 58.5469C173.36 59.7195 173.181 61.0278 172.648 62.1422C172.12 63.2567 171.262 64.187 170.303 64.9623C169.615 65.5196 168.845 66.0138 167.978 66.1979C167.11 66.3772 166.127 66.1979 165.512 65.5632" fill="#B78876"/>
<path d="M166.912 62.6509C166.771 62.68 167.222 63.4601 168.351 63.2711C168.893 63.1839 169.455 62.7672 169.823 62.2196C170.196 61.6576 170.463 61.0325 170.618 60.2814C170.768 59.5401 170.676 58.726 170.318 58.1155C169.978 57.5001 169.368 57.0931 168.83 57.0253C167.701 56.8896 167.275 57.6358 167.401 57.6746C167.483 57.7763 167.963 57.4129 168.685 57.6649C169.383 57.8635 169.983 58.9102 169.707 60.1118C169.45 61.3378 168.864 62.4232 168.176 62.6412C167.459 62.9222 166.999 62.5588 166.912 62.6509Z" fill="#AA6550"/>
<path d="M142.626 36.3355C140.969 40.1876 137.423 43.1676 133.348 44.1513C133.106 41.3748 132.946 38.5644 133.402 35.817C133.857 33.0696 134.976 30.3561 136.977 28.4228C138.983 26.4894 141.952 25.4476 144.646 26.1648" fill="black"/>
<path d="M143.401 31.2385C142.001 34.7563 142.577 38.9864 144.864 42.0052C147.151 45.0239 151.065 46.7199 154.829 46.3225C155.566 46.245 156.341 46.0996 157.029 46.3661C157.77 46.652 158.254 47.3449 158.695 48.0039C160.488 50.6835 162.382 53.4648 165.202 55.0154C168.026 56.5659 172.067 56.4157 173.956 53.804C174.876 52.5345 175.143 50.9209 175.356 49.3655C176.073 44.1469 176.364 38.5407 173.878 33.8987C172.033 30.4487 168.787 27.8806 165.192 26.3251C161.602 24.7697 157.668 24.1495 153.764 23.9121C151.491 23.7716 149.142 23.7716 147.039 24.6292C144.932 25.4917 143.115 27.4008 142.994 29.6734" fill="black"/>
<path d="M174.862 50.839C174.852 50.839 174.809 50.7081 174.726 50.4562C174.649 50.1994 174.518 49.8311 174.348 49.3562C173.995 48.4114 173.404 47.0692 172.435 45.5477C171.461 44.0359 170.085 42.3545 168.234 40.8572C166.389 39.3454 164.044 38.1341 161.505 37.068C158.962 36.002 156.481 35.125 154.306 34.1074C152.131 33.0996 150.275 31.956 148.875 30.7931C147.48 29.6254 146.54 28.4721 145.998 27.6145C145.726 27.1832 145.533 26.844 145.421 26.5969C145.3 26.3595 145.242 26.2287 145.252 26.2287C145.261 26.2238 145.334 26.3449 145.465 26.5775C145.591 26.815 145.799 27.1445 146.075 27.566C146.637 28.3994 147.587 29.5236 148.987 30.6623C150.387 31.7961 152.233 32.9154 154.403 33.9088C156.569 34.9118 159.054 35.7791 161.602 36.85C164.146 37.916 166.519 39.1516 168.375 40.6876C170.24 42.2091 171.616 43.9196 172.58 45.4556C173.539 47.0013 174.111 48.3678 174.436 49.3223C174.595 49.802 174.712 50.18 174.775 50.4416C174.838 50.7033 174.872 50.839 174.862 50.839Z" fill="black"/>
<path d="M171.369 50.2237C171.359 50.2285 171.296 50.1171 171.18 49.9039C171.059 49.6955 170.875 49.3854 170.603 49.0123C170.07 48.2661 169.16 47.2679 167.813 46.3182C166.476 45.354 164.707 44.4866 162.697 43.6338C161.694 43.2026 160.633 42.7568 159.558 42.2431C158.482 41.7295 157.387 41.1529 156.302 40.5036C154.127 39.205 152.203 37.7174 150.658 36.1524C149.108 34.5921 147.945 32.9689 147.136 31.5201C146.317 30.0712 145.857 28.8017 145.586 27.915C145.46 27.4692 145.368 27.1203 145.319 26.8829C145.266 26.6455 145.247 26.5195 145.251 26.5146C145.261 26.5146 145.3 26.6358 145.363 26.8684C145.426 27.1058 145.532 27.445 145.668 27.8859C145.964 28.7581 146.448 30.0083 147.276 31.4328C148.1 32.8574 149.268 34.4516 150.808 35.9924C152.349 37.5333 154.258 39.0064 156.418 40.2953C157.499 40.9397 158.584 41.5115 159.655 42.0299C160.725 42.5436 161.781 42.9894 162.784 43.4303C164.79 44.2976 166.573 45.1892 167.91 46.1825C169.257 47.1613 170.163 48.1886 170.676 48.959C170.938 49.3418 171.112 49.6616 171.219 49.8797C171.325 50.1026 171.374 50.2188 171.369 50.2237Z" fill="black"/>
<path d="M133.387 48.6149C133.377 48.6197 133.343 48.5277 133.276 48.3581C133.213 48.1837 133.116 47.9317 133.009 47.5973C132.83 46.9238 132.578 45.9305 132.525 44.6707C132.471 43.4205 132.568 41.9039 133.024 40.3C133.479 38.7058 134.23 36.9954 135.427 35.4884C136.003 34.718 136.691 34.0687 137.374 33.4776C138.077 32.9058 138.798 32.4164 139.486 31.9658C140.872 31.0645 142.107 30.2408 142.984 29.3637C143.876 28.5012 144.418 27.6387 144.694 27.004C144.975 26.3692 145.038 25.9864 145.062 25.9913C145.072 25.9913 145.058 26.0882 145.019 26.2674C144.98 26.4467 144.907 26.7132 144.777 27.0379C144.52 27.692 143.992 28.5884 143.096 29.48C142.219 30.3861 140.974 31.2389 139.603 32.145C138.92 32.6054 138.203 33.0899 137.515 33.6568C136.846 34.2383 136.173 34.8779 135.606 35.6338C134.429 37.1117 133.682 38.7882 133.222 40.3582C132.762 41.933 132.651 43.4254 132.68 44.661C132.714 45.9063 132.936 46.8899 133.087 47.5683C133.179 47.8832 133.251 48.14 133.309 48.3387C133.372 48.518 133.397 48.6101 133.387 48.6149Z" fill="black"/>
<path d="M161.152 71.034C158.526 71.034 155.895 70.1376 153.952 68.3932L154.262 68.0492C157.629 71.0776 163.181 71.4313 166.907 68.8487C170.628 66.266 172.246 60.9408 170.589 56.7253L171.015 56.5557C172.75 60.9602 171.059 66.5277 167.169 69.2266C165.42 70.4429 163.288 71.034 161.152 71.034Z" fill="#F6CA13"/>
<path d="M157.407 69.0619C157.407 70.2927 156.409 71.2957 155.173 71.2957C153.943 71.2957 152.94 70.2975 152.94 69.0619C152.94 67.8263 153.938 66.8281 155.173 66.8281C156.404 66.8281 157.407 67.8311 157.407 69.0619Z" fill="#F6CA13"/>
<path d="M179.731 58.6153C180.233 54.5167 177.319 50.7867 173.221 50.2841C169.123 49.7816 165.393 52.6969 164.891 56.7955C164.389 60.8942 167.303 64.6242 171.401 65.1267C175.499 65.6292 179.228 62.714 179.731 58.6153Z" fill="#F6CA13"/>
<path d="M171.102 56.6723C171.054 56.6674 171.073 55.9891 171.146 54.7777C171.17 54.1623 171.199 53.421 171.233 52.5633C171.243 51.7008 171.272 50.7172 171.238 49.6318C171.238 49.0891 171.199 48.5222 171.17 47.931C171.151 47.3398 171.083 46.7293 171.02 46.0946C170.972 45.4598 170.85 44.8153 170.768 44.1418C170.705 43.8075 170.642 43.4731 170.579 43.134C170.521 42.7899 170.448 42.4459 170.356 42.1019C169.722 39.3351 168.53 36.3696 166.442 33.8597C164.359 31.3448 161.631 29.6586 158.991 28.6362C156.341 27.5993 153.792 27.1002 151.651 26.7901C149.505 26.4897 147.746 26.3976 146.53 26.3152C145.314 26.2619 144.641 26.2086 144.641 26.1602C144.641 26.1117 145.314 26.0681 146.535 26.0342C147.756 26.0342 149.529 26.0487 151.709 26.2861C153.885 26.5333 156.486 26.9839 159.223 28.016C161.951 29.0335 164.809 30.7682 166.989 33.3993C169.169 36.0208 170.385 39.117 170.996 41.9565C171.083 42.3102 171.156 42.6639 171.209 43.0128C171.267 43.3617 171.33 43.7057 171.383 44.0498C171.456 44.733 171.567 45.3968 171.606 46.0413C171.655 46.6857 171.708 47.3059 171.713 47.9068C171.732 48.5076 171.751 49.0794 171.737 49.6269C171.737 50.722 171.674 51.7105 171.626 52.5778C171.553 53.4452 171.485 54.1914 171.417 54.7971C171.267 56.0133 171.151 56.6771 171.102 56.6723Z" fill="#F6CA13"/>
<g opacity="0.4">
<path opacity="0.4" d="M177.662 57.7143C177.662 60.5586 175.356 62.8602 172.517 62.8602C169.673 62.8602 167.372 60.5586 167.372 57.7143C167.372 54.87 169.678 52.5684 172.517 52.5684C175.361 52.5684 177.662 54.87 177.662 57.7143Z" fill="black"/>
</g>
<path d="M170.826 52.9128C170.821 52.9031 170.904 52.8643 171.054 52.7916C171.209 52.7238 171.446 52.6414 171.766 52.5784C172.391 52.467 173.399 52.4621 174.435 53.0339C174.949 53.315 175.453 53.7511 175.806 54.3471C176.17 54.9382 176.364 55.6796 176.359 56.4597C176.354 57.235 176.112 58.0635 175.598 58.7468C175.085 59.43 174.3 59.9291 173.423 60.1374C172.551 60.3506 171.621 60.2731 170.85 59.9048C170.075 59.5366 169.494 58.9018 169.135 58.2138C168.777 57.5209 168.641 56.765 168.695 56.0769C168.758 55.384 169.019 54.7783 169.329 54.2841C169.959 53.2907 170.831 52.7771 171.461 52.622C171.776 52.5348 172.032 52.53 172.202 52.5397C172.372 52.5542 172.459 52.5688 172.459 52.5784C172.459 52.6124 172.095 52.5251 171.485 52.7141C170.884 52.8886 170.066 53.407 169.475 54.3761C169.184 54.8558 168.946 55.4421 168.893 56.0963C168.85 56.7504 168.985 57.4627 169.329 58.1169C169.673 58.7661 170.225 59.3573 170.947 59.6965C171.669 60.0357 172.536 60.1132 173.365 59.9097C174.188 59.711 174.93 59.2459 175.409 58.6062C175.894 57.9715 176.121 57.1914 176.136 56.4597C176.15 55.7232 175.971 55.0157 175.637 54.4536C175.312 53.8867 174.838 53.4603 174.353 53.1841C173.374 52.6124 172.401 52.593 171.781 52.6705C171.156 52.7674 170.836 52.9419 170.826 52.9128Z" fill="black"/>
<path d="M172.473 62.782C172.41 62.7917 172.265 62.2538 172.241 61.5657C172.212 60.8825 172.309 60.3301 172.376 60.335C172.444 60.3398 172.454 60.8874 172.483 61.5561C172.502 62.2247 172.541 62.7723 172.473 62.782Z" fill="black"/>
<path d="M175.312 61.784C175.249 61.8082 175.012 61.3431 174.779 60.7422C174.547 60.1414 174.406 59.6374 174.469 59.6132C174.532 59.589 174.77 60.0542 175.002 60.655C175.235 61.2558 175.375 61.7598 175.312 61.784Z" fill="black"/>
<path d="M177.226 59.546C177.182 59.5944 176.829 59.3473 176.436 58.9936C176.044 58.6399 175.768 58.3104 175.811 58.2619C175.855 58.2135 176.209 58.4606 176.601 58.8143C176.989 59.168 177.27 59.4975 177.226 59.546Z" fill="black"/>
<path d="M177.362 56.4202C177.337 56.4832 177.085 56.4493 176.79 56.3427C176.499 56.2361 176.276 56.1004 176.301 56.0375C176.325 55.9745 176.577 56.0084 176.872 56.115C177.163 56.2216 177.381 56.3573 177.362 56.4202Z" fill="black"/>
<path d="M169.111 61.6292C169.048 61.6098 169.184 61.0622 169.499 60.4469C169.814 59.8315 170.177 59.4051 170.23 59.4438C170.288 59.4826 170.017 59.9575 169.712 60.5583C169.407 61.1543 169.179 61.6534 169.111 61.6292Z" fill="black"/>
<path d="M167.58 59.0079C167.532 58.9595 167.827 58.5961 168.234 58.1987C168.641 57.7966 169.009 57.5155 169.058 57.5591C169.106 57.6076 168.811 57.971 168.404 58.3683C167.992 58.7705 167.624 59.0564 167.58 59.0079Z" fill="black"/>
<path d="M168.777 55.4413C168.796 55.5043 168.583 55.6158 168.312 55.6884C168.036 55.7611 167.803 55.7708 167.784 55.703C167.764 55.64 167.978 55.5285 168.249 55.4559C168.525 55.3832 168.762 55.3783 168.777 55.4413Z" fill="black"/>
<path d="M207.878 96.3472C207.394 93.6095 206.323 92.122 205.528 91.3418C204.777 90.6102 204.056 89.8494 203.159 89.3067C202.074 88.6429 200.597 87.824 199.652 87.6205C198.484 87.3685 198.198 85.847 199.177 85.4158C200.156 84.9845 203.392 85.5999 206.507 87.8918C209.617 90.1838 208.048 84.3837 207.51 82.2565C206.972 80.1342 205.625 73.4959 206.153 72.832C206.924 71.8581 208.14 72.5219 208.624 74.6491C209.113 76.8053 211.017 83.0803 212.132 82.775C213.226 82.4746 210.354 71.6982 210.354 71.6982C210.354 71.6982 209.365 69.4838 210.639 69.0864C212.936 68.3693 215.145 80.0227 215.329 81.1372C215.455 81.9125 216.681 81.6218 216.497 80.798C216.312 79.9501 213.377 70.1137 215.707 69.3578C217.495 68.7812 217.616 78.9325 219.36 80.6624C221.109 82.3922 218.478 72.9532 220.212 72.4735C220.857 72.2942 221.365 72.2506 222.087 77.8665C222.475 80.8852 222.223 85.0475 223.4 90.8088" fill="#B78876"/>
<path d="M202.074 118.016L212.664 133.217L207.578 94.0165L222.717 88.0469C222.717 88.0469 241.824 161.306 216.196 162.338C216.196 162.338 198.465 161.854 185.229 131.148L202.074 118.016Z" fill="#B78876"/>
<path d="M219.059 87.7559C219.088 87.7947 218.73 88.0321 218.26 88.5554C217.8 89.0691 217.243 89.9122 217.02 90.9976L216.962 91.2834L216.753 91.0751C216.516 90.8377 216.259 90.6002 215.968 90.387C214.869 89.573 213.638 89.229 212.752 89.1369C211.855 89.04 211.293 89.1369 211.284 89.0836C211.274 89.0497 211.831 88.8704 212.766 88.9092C213.691 88.9431 215 89.2677 216.157 90.1254C216.463 90.3483 216.734 90.6002 216.976 90.8522L216.705 90.9297C216.962 89.7717 217.587 88.9092 218.11 88.4101C218.638 87.9061 219.045 87.7269 219.059 87.7559Z" fill="#AA6550"/>
<path d="M194.463 149.71L181.649 133.449L178.321 150.079C176.974 156.814 177.667 163.801 180.317 170.139L181.969 174.093H122.632L124.114 168.811C124.953 162.338 123.829 155.578 124.027 146.309L122.38 135.857L113.403 174.098H87.0095C87.0095 174.098 101.495 114.745 110.569 103C122.007 88.1919 141.996 90.1446 141.996 90.1446L154.243 109.343L166.2 92.0344C166.2 92.0344 186.751 87.6637 202.796 115.293L211.381 130.009L207.394 99.7096L225.973 95.4214C225.973 95.4214 232.682 125.187 232.242 141.129C231.849 155.365 225.789 162.837 217.393 163.569C204.201 164.722 194.463 149.71 194.463 149.71Z" fill="#F6CA13"/>
<path d="M141.996 90.1447L142.204 87.7559C142.204 87.7559 151.273 89.7716 154.316 105.612C154.316 105.612 157.368 90.9927 167.135 89.5196L168.782 93.7304L162.784 109.352L152.247 112.434L142.001 109.352L137.34 100.093L141.996 90.1447Z" fill="#F6CA13"/>
<path d="M116.722 96.4443C116.731 96.4443 116.746 96.5849 116.77 96.8562C116.789 97.1469 116.818 97.5394 116.857 98.0337C116.925 99.0561 117.032 100.539 117.177 102.366C117.468 106.024 117.971 111.063 118.761 116.606C119.556 122.15 120.486 127.131 121.232 130.721C121.605 132.519 121.915 133.968 122.138 134.971C122.244 135.455 122.327 135.843 122.385 136.124C122.438 136.391 122.462 136.531 122.458 136.531C122.448 136.531 122.409 136.396 122.341 136.134C122.269 135.853 122.172 135.47 122.051 134.99C121.799 133.997 121.46 132.548 121.067 130.755C120.277 127.17 119.318 122.188 118.524 116.64C117.734 111.092 117.259 106.043 117.007 102.38C116.881 100.548 116.799 99.0658 116.765 98.0385C116.746 97.5443 116.736 97.1469 116.726 96.8562C116.712 96.5849 116.712 96.4443 116.722 96.4443Z" fill="black"/>
<path d="M168.564 91.468C168.569 91.4729 168.525 91.5504 168.433 91.6958C168.326 91.8605 168.191 92.0689 168.026 92.3257C167.653 92.8974 167.14 93.6776 166.515 94.6321C165.245 96.5849 163.53 99.308 161.752 102.38C161.68 102.501 161.612 102.622 161.549 102.734L161.433 102.932L161.336 102.724C160.972 101.944 160.599 101.183 160.032 100.626C159.475 100.074 158.72 99.7393 158.012 99.8701C157.305 99.9816 156.743 100.466 156.346 100.965C155.944 101.474 155.687 102.031 155.512 102.564C155.168 103.625 154.97 104.522 154.718 105.103C154.602 105.399 154.481 105.612 154.403 105.757C154.316 105.898 154.267 105.971 154.258 105.966C154.238 105.956 154.422 105.66 154.636 105.069C154.858 104.483 155.033 103.596 155.357 102.511C155.522 101.968 155.779 101.382 156.191 100.844C156.598 100.316 157.189 99.7877 157.974 99.6569C158.763 99.5019 159.601 99.875 160.192 100.461C160.798 101.052 161.181 101.842 161.549 102.622L161.336 102.613C161.399 102.501 161.471 102.38 161.539 102.259C163.322 99.1821 165.061 96.4686 166.369 94.5352C167.023 93.571 167.561 92.7957 167.944 92.2675C168.123 92.0204 168.273 91.8217 168.389 91.6618C168.496 91.531 168.554 91.4632 168.564 91.468Z" fill="black"/>
<path d="M159.926 100.436C159.931 100.441 159.897 100.509 159.829 100.64C159.742 100.795 159.635 100.979 159.509 101.202C159.204 101.715 158.792 102.408 158.293 103.247C157.765 104.114 157.145 105.131 156.462 106.26C156.113 106.827 155.75 107.419 155.372 108.034C155.178 108.344 154.984 108.659 154.786 108.974C154.728 109.056 154.66 109.139 154.558 109.207C154.456 109.274 154.306 109.299 154.19 109.255C153.948 109.177 153.826 108.959 153.73 108.814C152.024 106.251 150.76 103.78 149.762 102.04C149.273 101.163 148.87 100.46 148.585 99.9759C148.304 99.4913 148.144 99.2248 148.158 99.2151C148.163 99.2103 148.212 99.2733 148.299 99.3944C148.381 99.5155 148.512 99.6948 148.662 99.9322C148.972 100.402 149.398 101.095 149.907 101.958C150.939 103.678 152.233 106.139 153.923 108.683C154.03 108.848 154.127 108.988 154.258 109.027C154.374 109.071 154.49 108.979 154.592 108.838C154.786 108.523 154.979 108.213 155.173 107.913C155.556 107.302 155.924 106.711 156.273 106.144C156.975 105.03 157.61 104.017 158.148 103.159C158.676 102.336 159.107 101.662 159.432 101.158C159.577 100.945 159.693 100.766 159.79 100.62C159.873 100.494 159.916 100.431 159.926 100.436Z" fill="black"/>
<path d="M192.777 101.842C192.787 101.847 192.738 101.953 192.642 102.157C192.53 102.38 192.385 102.675 192.206 103.044C191.818 103.809 191.275 104.924 190.626 106.31C189.972 107.695 189.236 109.367 188.461 111.237C187.695 113.113 186.896 115.191 186.135 117.401C185.38 119.615 184.73 121.742 184.178 123.695C183.64 125.648 183.19 127.417 182.856 128.909C182.512 130.401 182.255 131.618 182.09 132.456C182.008 132.858 181.94 133.178 181.891 133.42C181.843 133.643 181.814 133.754 181.804 133.754C181.795 133.754 181.809 133.633 181.843 133.41C181.882 133.163 181.935 132.839 181.998 132.436C182.134 131.589 182.366 130.367 182.691 128.87C183.006 127.368 183.437 125.59 183.965 123.632C184.503 121.675 185.152 119.538 185.908 117.323C186.673 115.109 187.477 113.03 188.257 111.155C189.047 109.285 189.798 107.618 190.471 106.242C191.14 104.861 191.707 103.756 192.123 103.005C192.322 102.646 192.482 102.356 192.598 102.138C192.709 101.939 192.772 101.837 192.777 101.842Z" fill="black"/>
<path d="M165.638 162.056C165.638 162.066 165.512 162.061 165.265 162.042C164.998 162.022 164.649 161.993 164.204 161.959C163.743 161.926 163.181 161.872 162.532 161.79C161.883 161.712 161.137 161.635 160.323 161.509C158.686 161.286 156.748 160.947 154.611 160.506C152.48 160.045 150.145 159.474 147.727 158.761C145.315 158.039 143.047 157.245 141.008 156.46C138.973 155.66 137.166 154.885 135.679 154.178C134.928 153.838 134.264 153.494 133.673 153.204C133.082 152.918 132.583 152.651 132.181 152.428C131.793 152.215 131.483 152.046 131.246 151.92C131.033 151.803 130.926 151.735 130.926 151.726C130.931 151.716 131.047 151.769 131.265 151.876C131.502 151.992 131.822 152.147 132.219 152.346C132.631 152.554 133.135 152.806 133.731 153.082C134.322 153.359 134.991 153.693 135.746 154.022C137.243 154.711 139.055 155.466 141.085 156.251C143.125 157.022 145.387 157.807 147.795 158.529C150.208 159.241 152.528 159.818 154.655 160.288C156.787 160.743 158.715 161.097 160.343 161.339C161.156 161.475 161.898 161.562 162.542 161.654C163.191 161.746 163.748 161.814 164.209 161.863C164.649 161.916 164.998 161.959 165.265 161.989C165.512 162.027 165.638 162.047 165.638 162.056Z" fill="black"/>
<path d="M163.012 163.093C163.012 163.103 162.93 163.122 162.77 163.156C162.581 163.19 162.348 163.239 162.062 163.292C161.447 163.408 160.551 163.549 159.441 163.699C157.223 164.004 154.141 164.319 150.731 164.44C147.315 164.557 144.22 164.46 141.986 164.305C140.872 164.227 139.966 164.15 139.346 164.082C139.055 164.048 138.823 164.019 138.629 164C138.464 163.975 138.382 163.961 138.382 163.956C138.382 163.946 138.469 163.946 138.634 163.951C138.823 163.961 139.065 163.975 139.351 163.99C139.976 164.033 140.877 164.087 141.991 164.14C144.224 164.247 147.31 164.319 150.716 164.203C154.122 164.082 157.198 163.796 159.417 163.534C160.527 163.404 161.423 163.287 162.043 163.205C162.334 163.171 162.566 163.137 162.76 163.118C162.925 163.089 163.012 163.084 163.012 163.093Z" fill="black"/>
<path d="M184.013 136.443C184.004 136.443 184.028 136.322 184.081 136.094C184.144 135.847 184.226 135.518 184.328 135.106C184.551 134.224 184.866 132.993 185.249 131.481C186.029 128.419 187.061 124.179 188.33 119.528C188.969 117.202 189.623 114.997 190.263 113.006C190.907 111.019 191.527 109.241 192.099 107.763C192.37 107.021 192.651 106.362 192.889 105.781C193.121 105.199 193.339 104.7 193.523 104.298C193.698 103.911 193.838 103.605 193.945 103.373C194.042 103.164 194.1 103.053 194.105 103.058C194.114 103.063 194.071 103.179 193.988 103.392C193.892 103.63 193.766 103.944 193.611 104.337C193.441 104.744 193.237 105.243 193.015 105.829C192.792 106.416 192.525 107.075 192.264 107.821C191.711 109.299 191.116 111.082 190.481 113.069C189.861 115.06 189.212 117.265 188.572 119.586C187.303 124.233 186.242 128.468 185.423 131.52C185.016 133.047 184.677 134.277 184.43 135.13C184.309 135.537 184.212 135.862 184.139 136.104C184.062 136.332 184.018 136.448 184.013 136.443Z" fill="black"/>
<path d="M122.07 135.648C122.065 135.653 121.978 135.551 121.818 135.357C121.663 135.159 121.416 134.878 121.14 134.48C120.568 133.71 119.808 132.533 119.023 131.001C118.233 129.47 117.458 127.566 116.804 125.385C116.145 123.205 115.627 120.748 115.258 118.151C114.551 112.942 114.435 108.189 114.222 104.763C114.125 103.048 114.038 101.662 113.965 100.707C113.931 100.247 113.907 99.8787 113.883 99.6025C113.868 99.3505 113.863 99.2148 113.868 99.2148C113.873 99.2148 113.897 99.3457 113.931 99.5976C113.96 99.8496 114.009 100.218 114.057 100.698C114.159 101.652 114.275 103.038 114.391 104.753C114.648 108.179 114.793 112.928 115.496 118.117C115.864 120.705 116.373 123.152 117.012 125.322C117.652 127.493 118.407 129.397 119.173 130.929C119.933 132.465 120.665 133.647 121.212 134.432C121.474 134.834 121.711 135.125 121.852 135.333C122.002 135.532 122.075 135.643 122.07 135.648Z" fill="black"/>
<path d="M119.817 124.979C119.832 125.051 119.129 125.202 118.383 125.642C117.632 126.074 117.158 126.612 117.104 126.568C117.051 126.534 117.468 125.899 118.262 125.434C119.052 124.969 119.812 124.92 119.817 124.979Z" fill="black"/>
<path d="M119.367 118.758C119.376 118.83 118.495 118.908 117.56 119.407C116.615 119.897 116.053 120.58 116 120.531C115.946 120.507 116.45 119.717 117.448 119.199C118.437 118.666 119.372 118.7 119.367 118.758Z" fill="black"/>
<path d="M118.005 113.069C118.01 113.141 117.313 113.175 116.571 113.553C115.82 113.917 115.375 114.45 115.317 114.406C115.263 114.377 115.656 113.737 116.465 113.34C117.264 112.933 118.015 113.006 118.005 113.069Z" fill="black"/>
<path d="M117.342 107.196C117.351 107.264 116.736 107.385 116.038 107.685C115.336 107.981 114.827 108.344 114.784 108.291C114.74 108.247 115.205 107.777 115.946 107.467C116.678 107.147 117.337 107.133 117.342 107.196Z" fill="black"/>
<path d="M116.959 102.448C116.969 102.521 116.344 102.632 115.651 102.962C114.953 103.286 114.469 103.693 114.42 103.64C114.372 103.601 114.808 103.088 115.549 102.744C116.286 102.395 116.959 102.385 116.959 102.448Z" fill="black"/>
<path d="M185.258 129.185C185.2 129.224 184.885 128.803 184.309 128.575C183.737 128.333 183.214 128.42 183.199 128.347C183.17 128.289 183.742 128.081 184.396 128.352C185.055 128.618 185.317 129.166 185.258 129.185Z" fill="black"/>
<path d="M187.061 124.334C186.998 124.363 186.746 123.641 185.995 123.166C185.254 122.672 184.493 122.745 184.493 122.672C184.488 122.643 184.672 122.58 184.982 122.59C185.292 122.6 185.723 122.706 186.126 122.963C186.528 123.225 186.799 123.574 186.935 123.85C187.07 124.131 187.085 124.325 187.061 124.334Z" fill="black"/>
<path d="M188.412 119.004C188.354 119.047 187.967 118.447 187.187 118.151C186.416 117.836 185.724 118.006 185.709 117.933C185.699 117.904 185.864 117.822 186.15 117.778C186.436 117.734 186.852 117.763 187.274 117.928C187.69 118.093 188.01 118.359 188.194 118.587C188.378 118.815 188.437 118.989 188.412 119.004Z" fill="black"/>
<path d="M190.001 113.877C189.938 113.911 189.686 113.436 189.129 113.15C188.577 112.85 188.044 112.908 188.034 112.84C188.03 112.811 188.16 112.753 188.383 112.739C188.606 112.724 188.931 112.777 189.241 112.937C189.551 113.102 189.774 113.339 189.89 113.533C190.006 113.722 190.03 113.863 190.001 113.877Z" fill="black"/>
<path d="M191.866 109.173C191.803 109.207 191.547 108.63 190.883 108.339C190.229 108.024 189.623 108.199 189.609 108.131C189.599 108.107 189.735 108.015 189.992 107.971C190.248 107.928 190.621 107.952 190.985 108.121C191.348 108.291 191.61 108.557 191.741 108.78C191.871 109.003 191.891 109.163 191.866 109.173Z" fill="black"/>
<path d="M161.408 102.448C161.413 102.452 161.379 102.53 161.307 102.67C161.215 102.835 161.103 103.039 160.967 103.291C160.667 103.824 160.221 104.594 159.659 105.539C159.097 106.484 158.419 107.598 157.644 108.824C157.256 109.435 156.84 110.074 156.399 110.728C155.953 111.383 155.493 112.056 154.931 112.701C154.786 112.861 154.65 113.016 154.432 113.146C154.379 113.185 154.301 113.195 154.219 113.19C154.141 113.185 154.098 113.151 154.035 113.132C153.933 113.074 153.841 113.016 153.759 112.943C153.429 112.672 153.168 112.361 152.911 112.056C152.402 111.446 151.956 110.825 151.535 110.229C150.702 109.037 149.994 107.937 149.408 107.012C148.827 106.082 148.367 105.321 148.057 104.793C147.916 104.546 147.8 104.342 147.708 104.177C147.63 104.037 147.592 103.959 147.601 103.954C147.606 103.95 147.659 104.017 147.751 104.153C147.853 104.313 147.984 104.507 148.139 104.744C148.493 105.287 148.972 106.023 149.554 106.92C150.154 107.836 150.876 108.926 151.719 110.103C152.141 110.69 152.591 111.305 153.09 111.906C153.342 112.202 153.609 112.507 153.909 112.754C154.054 112.87 154.238 113.001 154.325 112.928C154.461 112.846 154.616 112.691 154.747 112.541C155.285 111.92 155.75 111.242 156.196 110.598C156.641 109.948 157.058 109.314 157.45 108.703C158.235 107.487 158.928 106.377 159.509 105.447C160.076 104.536 160.536 103.79 160.88 103.242C161.035 103 161.156 102.806 161.258 102.646C161.35 102.511 161.403 102.443 161.408 102.448Z" fill="black"/>
<path d="M151.089 109.342C151.06 109.347 151.002 109.178 151.026 108.901C151.046 108.625 151.167 108.242 151.433 107.903C151.7 107.564 152.044 107.356 152.31 107.273C152.577 107.186 152.751 107.205 152.756 107.234C152.775 107.302 152.102 107.423 151.622 108.053C151.123 108.659 151.157 109.342 151.089 109.342Z" fill="black"/>
<path d="M154.272 113.161C154.209 113.171 154.045 112.318 154.04 111.252C154.03 110.186 154.185 109.333 154.248 109.338C154.316 109.348 154.272 110.2 154.282 111.247C154.282 112.303 154.34 113.156 154.272 113.161Z" fill="black"/>
<path d="M157.886 108.296C157.818 108.315 157.668 107.777 157.164 107.37C156.67 106.949 156.118 106.896 156.123 106.823C156.123 106.794 156.268 106.76 156.496 106.799C156.724 106.833 157.038 106.954 157.315 107.186C157.591 107.419 157.765 107.705 157.838 107.923C157.92 108.141 157.915 108.286 157.886 108.296Z" fill="black"/>
<path d="M160.246 104.347C160.178 104.357 160.095 103.814 159.65 103.349C159.219 102.874 158.676 102.753 158.691 102.685C158.695 102.656 158.841 102.641 159.064 102.704C159.286 102.767 159.577 102.922 159.824 103.184C160.066 103.446 160.202 103.746 160.25 103.974C160.299 104.197 160.275 104.342 160.246 104.347Z" fill="black"/>
<path d="M148.681 105.728C148.652 105.733 148.575 105.544 148.565 105.219C148.551 104.894 148.628 104.439 148.861 103.998C149.098 103.557 149.432 103.237 149.709 103.072C149.985 102.903 150.183 102.859 150.193 102.888C150.232 102.951 149.5 103.286 149.069 104.114C148.623 104.928 148.749 105.723 148.681 105.728Z" fill="black"/>
<g opacity="0.4">
<g opacity="0.4">
<path opacity="0.4" d="M141.875 90.1059C142.912 94.0889 144.646 100.572 146.521 105.65C146.608 105.883 146.7 106.125 146.879 106.295C147.354 106.75 148.173 106.469 148.623 105.989C149.05 105.534 149.297 104.943 149.646 104.429C149.994 103.911 150.508 103.436 151.133 103.412C151.642 103.392 152.116 103.693 152.451 104.076C152.785 104.458 153.008 104.923 153.26 105.364C153.395 105.602 153.565 105.859 153.831 105.917C154.098 105.97 154.393 105.728 154.238 105.437L152.577 101.134C152.577 101.134 151.816 97.9799 149.176 98.4693C146.225 99.0168 147.562 103.862 147.562 103.862C147.562 103.862 141.831 89.9412 141.875 90.1059Z" fill="black"/>
</g>
</g>
<path d="M154.321 105.606C154.311 105.611 154.262 105.514 154.18 105.325C154.093 105.136 153.977 104.855 153.826 104.497C153.526 103.741 153.114 102.694 152.606 101.41C152.475 101.086 152.334 100.746 152.184 100.398C152.029 100.049 151.86 99.7046 151.579 99.4187C151.026 98.8567 150.169 98.4739 149.282 98.5611C148.851 98.6192 148.396 98.7937 148.071 99.1038C147.742 99.4187 147.577 99.8839 147.417 100.359C147.262 100.814 147.267 101.323 147.315 101.832C147.364 102.341 147.465 102.859 147.587 103.373C147.635 103.562 147.679 103.751 147.722 103.925L147.495 103.993C146.816 102.04 146.031 100.233 145.319 98.595C144.602 96.9572 143.948 95.489 143.435 94.2437C142.921 92.9985 142.543 91.9761 142.316 91.2589C142.195 90.9052 142.122 90.6193 142.069 90.4303C142.015 90.2414 141.991 90.1396 142.001 90.1348C142.01 90.1348 142.049 90.2268 142.112 90.4158C142.18 90.5999 142.267 90.8761 142.403 91.2298C142.655 91.9324 143.057 92.9452 143.59 94.1759C144.123 95.4115 144.791 96.87 145.518 98.5029C146.245 100.136 147.034 101.943 147.717 103.911L147.49 103.978C147.446 103.804 147.398 103.61 147.354 103.421C147.233 102.898 147.126 102.375 147.078 101.846C147.029 101.323 147.02 100.78 147.194 100.276C147.354 99.8015 147.533 99.2976 147.911 98.9342C148.299 98.5805 148.774 98.4012 149.258 98.3382C150.232 98.2461 151.133 98.6677 151.724 99.2782C152.024 99.5883 152.208 99.9711 152.354 100.32C152.504 100.674 152.64 101.018 152.765 101.342C153.245 102.636 153.638 103.692 153.919 104.453C154.049 104.802 154.151 105.083 154.233 105.301C154.292 105.5 154.325 105.606 154.321 105.606Z" fill="black"/>
<g opacity="0.4">
<g opacity="0.4">
<path opacity="0.4" d="M154.553 105.49C154.451 105.558 154.524 105.738 154.645 105.762C154.766 105.786 154.883 105.718 154.98 105.641C155.595 105.161 155.944 104.424 156.375 103.78C156.811 103.131 157.445 102.51 158.225 102.506C159.054 102.501 159.718 103.198 160.129 103.916C160.536 104.638 160.817 105.452 161.408 106.038C164.373 101.687 166.747 96.9284 168.438 91.9424C167.464 92.6159 166.83 93.6625 166.219 94.6801C164.645 97.3064 163.075 99.9278 161.5 102.554C161.171 101.788 160.779 101.028 160.173 100.456C159.563 99.8842 158.695 99.5304 157.886 99.7243C156.966 99.9375 156.331 100.771 155.881 101.599C155.222 102.816 154.795 104.153 154.621 105.519" fill="black"/>
</g>
</g>
<path d="M216.424 144.308C216.409 144.318 216.298 144.129 216.109 143.78C215.92 143.431 215.658 142.922 215.353 142.283C214.738 141.008 213.958 139.211 213.226 137.175C212.5 135.14 211.962 133.255 211.623 131.879C211.453 131.191 211.332 130.634 211.255 130.241C211.177 129.854 211.143 129.636 211.163 129.631C211.177 129.626 211.245 129.839 211.347 130.217C211.463 130.644 211.608 131.186 211.788 131.831C212.165 133.192 212.727 135.063 213.449 137.093C214.176 139.118 214.932 140.921 215.503 142.21C215.78 142.82 216.007 143.334 216.187 143.736C216.356 144.1 216.438 144.298 216.424 144.308Z" fill="black"/>
<path d="M211.817 143.397C211.802 143.402 211.734 143.213 211.623 142.869C211.511 142.525 211.371 142.016 211.216 141.386C210.906 140.126 210.581 138.358 210.421 136.381C210.266 134.404 210.315 132.601 210.421 131.312C210.475 130.668 210.533 130.144 210.591 129.786C210.644 129.427 210.683 129.229 210.698 129.233C210.712 129.233 210.707 129.437 210.683 129.796C210.654 130.154 210.62 130.677 210.591 131.322C210.528 132.611 210.509 134.399 210.664 136.361C210.819 138.324 211.119 140.087 211.386 141.352C211.516 141.982 211.633 142.496 211.715 142.844C211.792 143.193 211.831 143.392 211.817 143.397Z" fill="black"/>
<path d="M226.622 100.979C226.627 100.969 226.743 101.013 226.995 101.119L227.068 101.153L226.99 101.182C225.939 101.56 222.252 102.728 217.742 103.547C215.038 104.046 212.563 104.332 210.77 104.477C209.874 104.55 209.147 104.594 208.643 104.613C208.14 104.632 207.863 104.632 207.863 104.618C207.863 104.603 208.14 104.569 208.639 104.521C209.181 104.468 209.893 104.395 210.756 104.313C212.543 104.124 215.004 103.813 217.698 103.314C222.194 102.495 225.89 101.405 226.971 101.124L226.966 101.182C226.724 101.052 226.617 100.989 226.622 100.979Z" fill="black"/>
<path d="M222.446 98.8765C222.441 98.8716 222.494 98.799 222.644 98.7553C222.79 98.7117 223.037 98.736 223.264 98.891C223.483 99.0412 223.73 99.3465 223.667 99.7535C223.633 99.9473 223.497 100.136 223.313 100.238C223.129 100.345 222.906 100.383 222.693 100.354C222.48 100.325 222.276 100.238 222.121 100.088C221.966 99.9376 221.889 99.7244 221.893 99.5306C221.908 99.1284 222.179 98.8668 222.412 98.736C222.654 98.6051 222.891 98.5954 223.037 98.6342C223.187 98.673 223.245 98.7408 223.24 98.7456C223.235 98.7893 222.911 98.6051 222.499 98.8765C222.31 99.0025 222.111 99.2399 222.116 99.5258C222.107 99.8165 222.378 100.068 222.727 100.107C223.066 100.156 223.4 99.9764 223.453 99.7002C223.512 99.4289 223.342 99.1624 223.168 99.0218C222.988 98.8765 222.795 98.828 222.664 98.8426C222.528 98.8571 222.46 98.9007 222.446 98.8765Z" fill="black"/>
<path d="M150.455 109.105C150.459 109.11 150.367 109.193 150.188 109.338C150.004 109.479 149.752 109.706 149.389 109.953C148.681 110.472 147.596 111.145 146.167 111.785C144.738 112.429 142.936 112.996 140.877 113.292C139.845 113.423 138.755 113.505 137.626 113.466C136.497 113.428 135.33 113.287 134.157 113.035C131.813 112.507 129.7 111.64 127.714 111.107C126.721 110.83 125.762 110.637 124.856 110.545C123.95 110.457 123.092 110.477 122.327 110.569C120.786 110.758 119.609 111.281 118.897 111.775C118.18 112.265 117.87 112.647 117.845 112.623C117.845 112.623 118.131 112.221 118.843 111.698C119.546 111.174 120.738 110.612 122.303 110.399C123.082 110.293 123.95 110.268 124.875 110.346C125.795 110.433 126.769 110.622 127.772 110.893C129.778 111.422 131.895 112.279 134.211 112.798C135.368 113.045 136.521 113.185 137.636 113.229C138.755 113.268 139.83 113.195 140.853 113.069C142.887 112.793 144.675 112.25 146.104 111.63C147.533 111.01 148.623 110.365 149.34 109.876C149.709 109.643 149.97 109.425 150.164 109.299C150.348 109.164 150.45 109.096 150.455 109.105Z" fill="#FAFAFA"/>
<path d="M181.242 129.059C181.242 129.064 181.189 129.04 181.097 128.991C180.99 128.938 180.855 128.865 180.68 128.773C180.496 128.681 180.259 128.584 179.983 128.458C179.697 128.361 179.377 128.221 178.994 128.124C177.492 127.669 175.177 127.441 172.396 127.882C171.006 128.085 169.504 128.463 167.905 128.899C166.306 129.335 164.601 129.844 162.765 130.217C160.934 130.595 158.947 130.794 156.913 130.576C154.873 130.387 152.829 129.81 150.779 129.132C148.735 128.444 146.778 127.673 144.854 127.034C142.936 126.38 141.037 125.895 139.196 125.648C135.504 125.144 132.118 125.522 129.39 126.181C128.024 126.515 126.823 126.942 125.781 127.349C125.267 127.572 124.788 127.77 124.357 127.979C123.93 128.197 123.528 128.376 123.189 128.57C122.845 128.759 122.54 128.933 122.273 129.083C122.017 129.238 121.799 129.374 121.619 129.486C121.45 129.587 121.319 129.67 121.217 129.733C121.125 129.786 121.077 129.815 121.077 129.81C121.077 129.805 121.12 129.771 121.208 129.713C121.305 129.645 121.435 129.558 121.6 129.447C121.774 129.331 121.983 129.185 122.244 129.025C122.511 128.87 122.811 128.691 123.15 128.492C123.494 128.294 123.892 128.105 124.313 127.882C124.744 127.664 125.224 127.46 125.737 127.232C126.779 126.816 127.985 126.375 129.361 126.026C132.098 125.338 135.514 124.94 139.234 125.44C141.095 125.682 143.008 126.171 144.937 126.825C146.87 127.465 148.827 128.235 150.866 128.919C152.901 129.592 154.931 130.164 156.946 130.353C158.957 130.576 160.914 130.382 162.731 130.014C164.553 129.65 166.258 129.151 167.861 128.72C169.465 128.289 170.972 127.92 172.377 127.727C175.182 127.3 177.522 127.557 179.028 128.046C179.411 128.153 179.731 128.298 180.017 128.405C180.293 128.536 180.53 128.642 180.709 128.744C180.879 128.846 181.015 128.923 181.116 128.982C181.199 129.025 181.242 129.054 181.242 129.059Z" fill="#FAFAFA"/>
<path d="M156.83 108.761C156.84 108.732 157.261 108.926 158.07 109.032C158.875 109.149 160.076 109.124 161.486 108.761C162.905 108.417 164.49 107.675 166.297 106.963C167.203 106.609 168.181 106.28 169.228 106.091C170.274 105.907 171.383 105.829 172.507 105.902C174.765 106.033 176.858 106.639 178.655 107.38C180.457 108.126 181.984 108.993 183.238 109.759C184.493 110.525 185.476 111.193 186.155 111.654C186.474 111.877 186.731 112.056 186.93 112.196C187.104 112.322 187.196 112.39 187.191 112.4C187.187 112.405 187.09 112.351 186.906 112.24C186.702 112.114 186.436 111.944 186.106 111.736C185.413 111.3 184.416 110.655 183.156 109.909C181.896 109.168 180.365 108.32 178.573 107.593C176.785 106.871 174.717 106.28 172.498 106.154C171.388 106.086 170.303 106.159 169.271 106.333C168.239 106.517 167.28 106.837 166.374 107.181C164.577 107.884 162.968 108.611 161.525 108.94C160.086 109.289 158.865 109.289 158.051 109.144C157.237 108.984 156.83 108.761 156.83 108.761Z" fill="#FAFAFA"/>
<path d="M185.142 96.609C185.147 96.6236 184.9 96.7011 184.454 96.8174C184.231 96.8804 183.955 96.9482 183.631 97.0112C183.306 97.0742 182.943 97.1614 182.531 97.2196C181.712 97.3601 180.729 97.4715 179.634 97.5297C178.539 97.5781 177.328 97.5733 176.068 97.4667C174.804 97.3552 173.612 97.1566 172.541 96.924C171.471 96.6769 170.521 96.4055 169.741 96.1293C169.344 96.0033 169 95.858 168.695 95.7368C168.385 95.6205 168.128 95.5043 167.92 95.4073C167.498 95.2135 167.27 95.1021 167.275 95.0827C167.28 95.0682 167.522 95.1505 167.953 95.3201C168.167 95.4073 168.433 95.5091 168.743 95.6109C169.053 95.7175 169.402 95.8531 169.794 95.9646C170.579 96.2214 171.524 96.4734 172.59 96.7059C173.656 96.924 174.838 97.113 176.088 97.2244C177.338 97.3262 178.539 97.3407 179.624 97.3019C180.709 97.2535 181.688 97.1614 182.502 97.0451C182.914 96.9967 183.277 96.924 183.602 96.8707C183.926 96.8222 184.202 96.7641 184.425 96.7156C184.885 96.6333 185.137 96.5896 185.142 96.609Z" fill="#FAFAFA"/>
<path d="M116.915 99.7192C116.91 99.7144 116.983 99.6465 117.128 99.5302C117.274 99.4139 117.482 99.2443 117.763 99.0311C118.32 98.6047 119.139 98.0039 120.181 97.3062C122.259 95.9155 125.272 94.1081 128.949 92.9743C132.631 91.8404 136.207 91.8017 138.673 92.2959C139.908 92.5333 140.882 92.8483 141.531 93.1148C141.86 93.2359 142.103 93.3668 142.272 93.4394C142.437 93.517 142.524 93.5654 142.519 93.5703C142.509 93.5896 142.156 93.4346 141.497 93.202C140.843 92.9646 139.869 92.6738 138.643 92.4655C136.197 92.0197 132.665 92.0827 129.022 93.2069C125.379 94.331 122.37 96.0996 120.273 97.4515C119.221 98.1299 118.393 98.7065 117.816 99.1087C117.545 99.2976 117.327 99.4479 117.153 99.569C117.007 99.6756 116.925 99.7289 116.915 99.7192Z" fill="#FAFAFA"/>
<path d="M177.895 150.534C177.895 150.539 177.851 150.549 177.759 150.573C177.652 150.597 177.521 150.626 177.352 150.66C177.173 150.704 176.95 150.738 176.683 150.762C176.548 150.776 176.407 150.791 176.252 150.805C176.097 150.81 175.932 150.815 175.763 150.82C174.368 150.878 172.362 150.52 170.007 149.759C168.825 149.391 167.546 148.94 166.156 148.528C164.766 148.116 163.249 147.796 161.626 147.651C158.38 147.341 154.781 147.733 151.08 148.407C147.369 149.076 143.866 149.919 140.605 150.306C137.355 150.709 134.375 150.738 131.919 150.364C129.453 150.03 127.554 149.284 126.319 148.673C126.013 148.513 125.737 148.373 125.505 148.242C125.282 148.102 125.093 147.981 124.933 147.879C124.788 147.787 124.676 147.709 124.584 147.651C124.507 147.598 124.468 147.569 124.473 147.569C124.473 147.564 124.516 147.588 124.599 147.632C124.691 147.685 124.812 147.753 124.957 147.84C125.117 147.937 125.311 148.048 125.539 148.179C125.781 148.3 126.052 148.436 126.362 148.586C127.607 149.168 129.497 149.885 131.948 150.195C134.39 150.544 137.35 150.5 140.586 150.088C143.827 149.691 147.325 148.843 151.046 148.174C154.757 147.496 158.38 147.108 161.655 147.433C163.288 147.588 164.824 147.918 166.219 148.339C167.614 148.761 168.888 149.221 170.066 149.599C172.41 150.374 174.387 150.757 175.768 150.728C175.937 150.728 176.102 150.728 176.257 150.728C176.407 150.713 176.553 150.704 176.683 150.694C176.95 150.679 177.173 150.65 177.352 150.616C177.521 150.592 177.657 150.568 177.759 150.553C177.846 150.539 177.895 150.534 177.895 150.534Z" fill="#FAFAFA"/>
<g opacity="0.3">
<g opacity="0.3">
<path opacity="0.3" d="M135.209 153.873C137.403 159.353 141.652 163.244 147.499 164.049C153.347 164.853 159.262 163.516 164.955 161.965C154.602 160.516 145.445 159.082 135.209 153.873Z" fill="black"/>
</g>
</g>
<path d="M179.377 168.942C179.377 168.947 179.329 168.928 179.232 168.889C179.125 168.845 178.994 168.787 178.82 168.715C178.447 168.55 177.924 168.317 177.255 168.022C175.894 167.421 173.941 166.505 171.505 165.449C170.279 164.935 168.918 164.412 167.401 164.058C165.89 163.699 164.209 163.578 162.479 163.83C161.617 163.956 160.74 164.155 159.863 164.426C158.991 164.703 158.114 165.037 157.242 165.42C155.493 166.18 153.754 167.135 151.961 168.094C150.169 169.054 148.386 169.94 146.574 170.599C144.767 171.254 142.931 171.68 141.153 171.704C139.37 171.753 137.699 171.331 136.245 170.74C134.782 170.154 133.513 169.417 132.355 168.763C131.197 168.104 130.156 167.503 129.206 167.043C128.257 166.587 127.419 166.229 126.706 166.025C126.358 165.899 126.033 165.836 125.757 165.769C125.481 165.696 125.243 165.657 125.049 165.633C124.865 165.604 124.72 165.58 124.609 165.565C124.512 165.546 124.458 165.536 124.458 165.531C124.458 165.526 124.512 165.531 124.609 165.541C124.72 165.55 124.87 165.57 125.054 165.589C125.248 165.609 125.49 165.638 125.771 165.706C126.052 165.769 126.382 165.822 126.735 165.943C127.457 166.132 128.305 166.486 129.269 166.931C130.228 167.382 131.28 167.978 132.442 168.627C133.605 169.272 134.874 169.994 136.323 170.57C137.767 171.147 139.404 171.554 141.153 171.496C142.902 171.467 144.709 171.045 146.501 170.391C148.294 169.737 150.067 168.85 151.855 167.896C153.642 166.936 155.387 165.982 157.155 165.221C158.037 164.838 158.918 164.499 159.805 164.223C160.691 163.956 161.578 163.753 162.455 163.627C164.213 163.375 165.924 163.511 167.454 163.879C168.985 164.242 170.356 164.78 171.577 165.303C174.014 166.384 175.952 167.324 177.304 167.949C177.967 168.264 178.486 168.511 178.854 168.686C179.019 168.768 179.154 168.831 179.256 168.884C179.333 168.913 179.377 168.937 179.377 168.942Z" fill="#FAFAFA"/>
</g>
<defs>
<clipPath id="clip0">
<rect width="292" height="191" fill="white"/>
</clipPath>
</defs>
</svg>
