<svg width="308" height="274" viewBox="0 0 308 274" fill="none" xmlns="http://www.w3.org/2000/svg">
<path d="M217.019 162.624H297.417C303.054 162.624 307.666 158.013 307.666 152.377C307.666 146.741 303.054 142.13 297.417 142.13H217.019C211.383 142.13 206.771 146.741 206.771 152.377C206.771 158.013 211.383 162.624 217.019 162.624Z" fill="#FFF1F0"/>
<path d="M196.769 126.392H278.375C283.679 126.392 288.019 122.053 288.019 116.75C288.019 111.446 283.679 107.107 278.375 107.107H196.769C191.465 107.107 187.125 111.446 187.125 116.75C187.125 122.053 191.465 126.392 196.769 126.392Z" fill="#FFF1F0"/>
<path d="M6.17166 77.3672H262.258C265.652 77.3672 268.43 74.5907 268.43 71.1963C268.43 67.8026 265.653 65.0254 262.258 65.0254H6.17166C2.77683 65.0261 0 67.8026 0 71.1963C0 74.5907 2.77683 77.3672 6.17166 77.3672Z" fill="#FFF1F0"/>
<path d="M252.349 194.44H281.17C285.748 194.44 289.493 190.695 289.493 186.118C289.493 181.541 285.748 177.796 281.17 177.796H252.349C247.772 177.796 244.027 181.541 244.027 186.118C244.026 190.694 247.771 194.44 252.349 194.44Z" fill="#FFF1F0"/>
<path d="M79.8652 55.6233H137.368C141.946 55.6233 145.691 51.8787 145.691 47.3017C145.691 42.7241 141.946 38.9795 137.368 38.9795H79.8652C75.2876 38.9795 71.5425 42.7241 71.5425 47.3011C71.5418 51.8781 75.2876 55.6233 79.8652 55.6233Z" fill="#FFF1F0"/>
<path d="M33.2107 202.761H62.0318C66.6093 202.761 70.3544 199.016 70.3544 194.439C70.3544 189.862 66.6093 186.118 62.0318 186.118H33.2107C28.6332 186.118 24.8881 189.862 24.8881 194.439C24.8881 199.016 28.6332 202.761 33.2107 202.761Z" fill="#FFF1F0"/>
<path d="M90.741 210.113H211.475C216.052 210.113 219.797 206.368 219.797 201.791C219.797 197.214 216.052 193.469 211.475 193.469H90.741C86.1634 193.469 82.4183 197.214 82.4183 201.791C82.4183 206.368 86.1634 210.113 90.741 210.113Z" fill="#FFF1F0"/>
<path d="M141.183 92.1996H219.43C225.658 92.1996 230.753 87.1047 230.753 80.8773C230.753 74.6499 225.658 69.5551 219.43 69.5551H141.183C134.955 69.5551 129.859 74.6499 129.859 80.8773C129.859 87.1047 134.955 92.1996 141.183 92.1996Z" fill="#FFF1F0"/>
<path d="M57.8825 179.947H228.682C236.063 179.947 242.101 173.909 242.101 166.53C242.101 159.15 236.063 153.113 228.682 153.113H57.8825C50.5021 153.113 44.4636 159.15 44.4636 166.53C44.4636 173.909 50.5021 179.947 57.8825 179.947Z" fill="#FFF1F0"/>
<path d="M152.156 117.68V162.644H258.407V142.111H248.671C246.506 142.111 244.539 141.236 243.112 139.81C241.686 138.383 240.801 136.418 240.801 134.254C240.801 129.925 244.342 126.387 248.671 126.387H258.407V117.68H152.156Z" fill="#FFF1F0"/>
<path d="M115.445 157.868H35.0467C29.4105 157.868 24.7985 153.258 24.7985 147.622C24.7985 141.986 29.4098 137.375 35.0467 137.375H115.445C121.081 137.375 125.693 141.985 125.693 147.622C125.693 153.258 121.081 157.868 115.445 157.868Z" fill="#FFF1F0"/>
<path d="M180.23 112.936V157.9H74.0437V137.368H83.7948C85.9588 137.368 87.9265 136.486 89.3536 135.061C90.7794 133.634 91.6645 131.672 91.6645 129.507C91.6645 125.179 88.1234 121.643 83.7948 121.643H74.0437V112.936H180.23Z" fill="#FFF1F0"/>
<path d="M113.23 76.6792V121.643H219.481V107.088H192.945C189.122 107.088 186.013 103.979 186.013 100.156V99.1509C186.013 95.3283 189.122 92.2094 192.945 92.2094H219.481V76.6799H113.23V76.6792Z" fill="#FFF1F0"/>
<path d="M103.159 92.1996H24.9121C18.6839 92.1996 13.5884 87.1047 13.5884 80.8773C13.5884 74.6499 18.6839 69.5551 24.9121 69.5551H103.159C109.387 69.5551 114.483 74.6499 114.483 80.8773C114.483 87.1047 109.387 92.1996 103.159 92.1996Z" fill="#FFF1F0"/>
<path d="M131.104 76.6881V121.637H32.1541C28.1412 121.637 24.8881 118.385 24.8881 114.372C24.8881 110.36 28.1412 107.107 32.1541 107.107H51.3969C55.22 107.107 58.3484 103.978 58.3484 100.155V99.15C58.3484 95.3274 55.22 92.1994 51.3969 92.1994H24.8881V76.6881H131.104Z" fill="#FFF1F0"/>
<g clip-path="url(#clip0)">
<path d="M199.06 71.8873L209.677 56.6142C205.303 51.9884 202.622 45.75 202.622 38.8836C202.622 24.6197 214.196 13.0568 228.474 13.0568C242.752 13.0568 254.326 24.6197 254.326 38.8836C254.326 53.1475 242.752 64.7104 228.474 64.7104C224.72 64.7104 221.152 63.9094 217.933 62.4715L199.06 71.8873Z" fill="white"/>
<path d="M199.06 72.9458C198.76 72.9458 198.465 72.8188 198.258 72.5806C197.942 72.2154 197.912 71.6808 198.19 71.2839L208.325 56.7059C203.957 51.7837 201.563 45.4889 201.563 38.8853C201.563 24.0604 213.635 12 228.474 12C243.314 12 255.386 24.0604 255.386 38.8853C255.386 53.7103 243.314 65.7706 228.474 65.7706C224.824 65.7706 221.29 65.0543 217.963 63.6412L199.534 72.8347C199.383 72.9087 199.221 72.9458 199.06 72.9458ZM228.474 14.1171C214.804 14.1171 203.682 25.2283 203.682 38.8853C203.682 45.2348 206.085 51.2738 210.449 55.8891C210.793 56.2525 210.834 56.8083 210.55 57.2193L202.297 69.0927L217.462 61.5276C217.746 61.3865 218.078 61.3794 218.368 61.5082C221.557 62.9319 224.958 63.6553 228.478 63.6553C242.148 63.6553 253.27 52.5441 253.27 38.8871C253.267 25.2265 242.145 14.1171 228.474 14.1171Z" fill="#364756"/>
<path d="M259.487 91.348L251.762 86.7355L244.036 82.121V91.348V100.575L251.762 95.9625L259.487 91.348Z" fill="#FA7268"/>
<path d="M247.051 95.836C246.846 95.836 246.641 95.7838 246.456 95.6794C246.078 95.4645 245.845 95.0649 245.845 94.6312V76.1772C245.845 75.7435 246.078 75.3439 246.456 75.1291C246.834 74.9142 247.296 74.9202 247.67 75.1411L263.155 84.3681C263.521 84.5849 263.744 84.9785 263.744 85.4022C263.744 85.8259 263.521 86.2195 263.155 86.4364L247.67 95.6633C247.479 95.7798 247.266 95.836 247.051 95.836ZM248.257 78.2998V92.5107L260.182 85.4042L248.257 78.2998Z" fill="#364756"/>
<path d="M41.3182 137.075L49.0106 132.461L56.7029 127.846V137.075V146.302L49.0106 141.688L41.3182 137.075Z" fill="#FA7268"/>
<path d="M53.6878 141.561C53.4727 141.561 53.2597 141.505 53.0687 141.391L37.6459 132.164C37.2821 131.947 37.059 131.553 37.059 131.129C37.059 130.706 37.2821 130.314 37.6459 130.095L53.0687 120.868C53.4406 120.645 53.9049 120.639 54.2827 120.854C54.6606 121.069 54.8938 121.469 54.8938 121.903V140.356C54.8938 140.79 54.6606 141.19 54.2827 141.405C54.0978 141.509 53.8928 141.561 53.6878 141.561ZM40.6127 131.129L52.4818 138.23V124.027L40.6127 131.129Z" fill="#364756"/>
<path d="M252.771 132.069H220.066V133.013H252.771V132.069Z" fill="#364756"/>
<path d="M253.475 131.366H219.363V133.716H253.475V131.366Z" fill="#364756"/>
<path d="M174.087 39.4842V34.0103L178.889 36.7472L174.087 39.4842ZM175.092 35.7392V37.7553L176.859 36.7472L175.092 35.7392Z" fill="#364756"/>
<path d="M230.569 123.563V118.093L235.381 120.828L230.569 123.563ZM231.574 119.82V121.838L233.349 120.83L231.574 119.82Z" fill="#364756"/>
<path d="M54.0898 72.9744L49.4025 70.2254L54.0898 67.4764V72.9744ZM51.3884 70.2254L53.0868 71.2214V69.2314L51.3884 70.2254Z" fill="#364756"/>
<path d="M33.8993 76.2616H22V88.1492H33.8993V76.2616Z" fill="#FA7268"/>
<path d="M39.8348 93.3661H25.5236V79.0688H39.8348V93.3661ZM27.9356 90.9564H37.4228V81.4785H27.9356V90.9564Z" fill="#364756"/>
<path d="M70.9739 105.051H66.9539V102.641H70.9739V105.051ZM62.9338 105.051H58.9138V102.641H62.9338V105.051ZM54.8938 105.051H50.8738V102.641H54.8938V105.051Z" fill="#364756"/>
<path d="M277 133.766H272.98V131.356H277V133.766ZM268.96 133.766H264.94V131.356H268.96V133.766ZM260.92 133.766H256.9V131.356H260.92V133.766Z" fill="#364756"/>
<path d="M180.978 12.6949C184.487 12.6949 187.331 9.85303 187.331 6.34744C187.331 2.84184 184.487 0 180.978 0C177.469 0 174.624 2.84184 174.624 6.34744C174.624 9.85303 177.469 12.6949 180.978 12.6949Z" fill="#FA7268"/>
<path d="M185.06 4.55428C188.222 4.55428 190.785 7.11454 190.785 10.2732C190.785 13.4319 188.222 15.9921 185.06 15.9921C181.898 15.9921 179.336 13.4319 179.336 10.2732C179.336 7.11454 181.898 4.55428 185.06 4.55428ZM185.06 3.92577C181.557 3.92577 178.706 6.77318 178.706 10.2732C178.706 13.7732 181.557 16.6206 185.06 16.6206C188.564 16.6206 191.414 13.7732 191.414 10.2732C191.414 6.77318 188.564 3.92577 185.06 3.92577Z" fill="#364756"/>
<path d="M185.06 17.3234C181.169 17.3234 178.003 14.1607 178.003 10.2732C178.003 6.38559 181.169 3.22292 185.06 3.22292C188.951 3.22292 192.117 6.38559 192.117 10.2732C192.117 14.1607 188.951 17.3234 185.06 17.3234ZM185.06 5.25707C182.292 5.25707 180.039 7.50809 180.039 10.2732C180.039 13.0382 182.292 15.2893 185.06 15.2893C187.828 15.2893 190.081 13.0382 190.081 10.2732C190.079 7.50809 187.828 5.25707 185.06 5.25707Z" fill="#364756"/>
<path fill-rule="evenodd" clip-rule="evenodd" d="M174.624 73L125.728 73C120.908 73 117 76.908 117 81.729L117 199.126C117 203.947 120.908 207.855 125.728 207.855H174.624C179.445 207.855 183.353 203.947 183.353 199.126V81.729C183.353 76.908 179.445 73 174.624 73Z" fill="#3A3768"/>
<path fill-rule="evenodd" clip-rule="evenodd" d="M173.992 76.5039H166.381V77.4199C166.381 77.9889 166.269 78.5539 166.05 79.0799C165.832 79.6069 165.513 80.0849 165.109 80.4879C164.706 80.8909 164.228 81.2109 163.701 81.4279C163.175 81.6459 162.61 81.7579 162.04 81.7579H137.834C137.264 81.7579 136.7 81.6459 136.173 81.4279C135.646 81.2109 135.168 80.8909 134.765 80.4879C134.362 80.0849 134.042 79.6069 133.824 79.0799C133.605 78.5539 133.493 77.9889 133.493 77.4199V76.5039H126.368C124.97 76.5039 123.63 77.0589 122.641 78.0469C121.653 79.0359 121.098 80.3759 121.098 81.7739L121.098 199.073C121.098 200.471 121.653 201.811 122.641 202.799C123.63 203.787 124.97 204.343 126.368 204.343H173.992C175.39 204.343 176.73 203.787 177.719 202.799C178.707 201.811 179.262 200.471 179.262 199.073L179.262 81.7829C179.263 81.0899 179.128 80.4039 178.863 79.7629C178.599 79.1229 178.211 78.5409 177.722 78.0509C177.232 77.5599 176.651 77.1709 176.011 76.9059C175.371 76.6409 174.685 76.5039 173.992 76.5039Z" fill="white"/>
<path fill-rule="evenodd" clip-rule="evenodd" d="M152.175 77.027H144.642C144.163 77.027 143.776 77.415 143.776 77.894V78.041C143.776 78.52 144.163 78.908 144.642 78.908H152.175C152.653 78.908 153.041 78.52 153.041 78.041V77.894C153.041 77.415 152.653 77.027 152.175 77.027Z" fill="#E6E8EC"/>
<path fill-rule="evenodd" clip-rule="evenodd" d="M155.51 79.0359C156.1 79.0359 156.578 78.5579 156.578 77.9679C156.578 77.3789 156.1 76.8999 155.51 76.8999C154.92 76.8999 154.442 77.3789 154.442 77.9679C154.442 78.5579 154.92 79.0359 155.51 79.0359Z" fill="#E6E8EC"/>
<path fill-rule="evenodd" clip-rule="evenodd" d="M158.897 131.876L156.026 129.675L148.419 139.595L144.194 136.356L141.991 139.227L147.651 143.562L149.103 144.65L158.897 131.876Z" fill="white"/>
<g clip-path="url(#clip1)">
<path d="M240.799 45.0213C238.293 42.5153 238.458 42.674 238.387 42.622L231.754 37.7244L234.327 35.1513C236.396 35.8885 238.738 35.3788 240.315 33.8024C242.032 32.0848 242.483 29.459 241.437 27.2684C241.193 26.758 240.516 26.6424 240.117 27.042L237.995 29.1634C237.676 29.4831 237.156 29.4831 236.836 29.1634C236.515 28.8429 236.515 28.3242 236.836 28.0037L238.957 25.8822C239.357 25.4823 239.241 24.806 238.731 24.5625C236.54 23.516 233.914 23.9668 232.197 25.6843C230.62 27.2611 230.111 29.6037 230.848 31.6721L227.88 34.6396C227.276 34.1696 228.073 34.9723 222.382 28.9378L222.979 28.3412C223.356 27.9639 223.277 27.3322 222.821 27.0582L218.429 24.4228C217.277 23.732 215.81 23.9126 214.861 24.862C213.911 25.8114 213.731 27.2786 214.421 28.4299L217.057 32.8221C217.331 33.2797 217.963 33.3567 218.34 32.9801L218.902 32.4174C224.564 38.4208 223.819 37.6053 224.266 38.1808C224.277 38.1944 224.289 38.2064 224.3 38.2192L221.669 40.8506C219.6 40.1136 217.258 40.6227 215.681 42.1996C213.963 43.9171 213.512 46.5428 214.559 48.7335C214.803 49.244 215.479 49.3595 215.879 48.9599L218 46.8385C218.32 46.5187 218.84 46.5188 219.16 46.8385C219.48 47.159 219.48 47.6777 219.16 47.9982L217.038 50.1196C216.638 50.5196 216.755 51.1958 217.265 51.4395C218.052 51.8156 218.896 51.9983 219.733 51.9983C221.226 51.9983 222.699 51.4178 223.799 50.3177C225.376 48.7408 225.885 46.3983 225.148 44.3298L227.395 42.0825L232.628 48.4416C232.668 48.4898 232.536 48.3554 234.877 50.6958C235.729 51.5477 236.861 51.9894 237.975 51.9894C238.792 51.9894 239.6 51.7514 240.278 51.2632C242.346 49.7731 242.59 46.8122 240.799 45.0213ZM219.516 30.6779C219.198 30.3409 218.666 30.3349 218.34 30.6607L217.923 31.0777L215.828 27.5861C215.525 27.0813 215.604 26.438 216.02 26.0217C216.437 25.6054 217.08 25.5263 217.585 25.8292L221.076 27.9242L220.659 28.3412C220.346 28.6548 220.338 29.161 220.642 29.4836C227.182 36.4174 226.153 35.374 226.711 35.8082L225.467 37.0527C225.037 36.4995 226.035 37.5903 219.516 30.6779ZM223.601 43.5572C223.355 43.803 223.291 44.177 223.441 44.4906C224.188 46.0553 223.866 47.9309 222.639 49.1578C221.853 49.9439 220.801 50.3587 219.735 50.3586C219.543 50.3586 219.351 50.3452 219.159 50.318L220.32 49.1578C221.281 48.1964 221.281 46.6401 220.32 45.6786C219.36 44.7194 217.8 44.7195 216.84 45.6786L215.68 46.8389C215.503 45.5846 215.913 44.2866 216.84 43.3592C218.067 42.1322 219.943 41.8101 221.508 42.5576C221.821 42.7073 222.195 42.6433 222.441 42.3975L232.395 32.4445C232.64 32.1988 232.705 31.8248 232.555 31.5112C231.807 29.9465 232.13 28.0708 233.356 26.8439C234.284 25.9164 235.582 25.506 236.836 25.6837L235.676 26.8439C235.211 27.3085 234.955 27.9264 234.955 28.5835C234.955 29.2407 235.211 29.8584 235.676 30.3231C236.635 31.2824 238.196 31.2823 239.155 30.3231L240.315 29.1629C240.493 30.4171 240.082 31.7152 239.155 32.6425C237.928 33.8695 236.052 34.1917 234.488 33.4442C234.174 33.2944 233.8 33.3585 233.554 33.6043L223.601 43.5572ZM228.557 40.9209L230.581 38.8971L232.644 40.42L230.179 42.8845C228.503 40.8483 228.608 40.971 228.557 40.9209ZM239.319 49.9324C238.362 50.6212 236.951 50.451 236.036 49.5361L233.869 47.3688L231.226 44.1569L233.978 41.4052L237.363 43.9049L239.639 46.1809C240.68 47.2212 240.613 49.0004 239.319 49.9324Z" fill="black"/>
<path d="M238.466 47.1985L235.185 43.9183C234.865 43.5981 234.346 43.5981 234.026 43.9183C233.705 44.2386 233.705 44.7578 234.026 45.078L237.306 48.3582C237.626 48.6784 238.145 48.6785 238.466 48.3582C238.786 48.038 238.786 47.5188 238.466 47.1985Z" fill="black"/>
<path d="M228.061 44.7179C227.787 44.7179 227.509 44.7018 227.237 44.6689L227.352 43.7115C227.822 43.7677 228.308 43.7669 228.778 43.7107L228.894 44.6673C228.619 44.701 228.34 44.7179 228.061 44.7179ZM225.626 44.2745C225.108 44.0785 224.615 43.8199 224.158 43.5042L224.706 42.7107C225.099 42.9813 225.523 43.2038 225.968 43.3725L225.626 44.2745ZM230.504 44.2721L230.162 43.3709C230.605 43.2022 231.03 42.9797 231.422 42.7083L231.971 43.501C231.514 43.8159 231.021 44.0753 230.504 44.2721ZM222.917 42.407C222.548 41.9926 222.231 41.5348 221.973 41.0464L222.827 40.5966C223.049 41.0167 223.321 41.4103 223.638 41.7669L222.917 42.407ZM233.21 42.4022L232.488 41.7629C232.805 41.4062 233.078 41.0119 233.299 40.591L234.153 41.0392C233.895 41.5291 233.578 41.9878 233.21 42.4022ZM221.383 39.4978C221.252 38.9628 221.184 38.4102 221.183 37.8544L222.148 37.8536C222.149 38.3315 222.207 38.8078 222.32 39.2673L221.383 39.4978ZM234.741 39.4906L233.804 39.2608C233.918 38.8014 233.975 38.3251 233.975 37.8472V37.8327H234.94V37.8472C234.939 38.403 234.872 38.9556 234.741 39.4906ZM222.318 36.4399L221.38 36.211C221.512 35.6737 221.709 35.1516 221.966 34.6608L222.821 35.1082C222.6 35.5299 222.43 35.9781 222.318 36.4399ZM233.8 36.4207C233.686 35.9596 233.515 35.5122 233.292 35.0913L234.145 34.6407C234.404 35.1307 234.604 35.6512 234.737 36.1885L233.8 36.4207ZM223.631 33.9355L222.908 33.2969C223.274 32.8825 223.692 32.5122 224.146 32.1973L224.696 32.9893C224.304 33.2608 223.946 33.5789 223.631 33.9355ZM232.48 33.9219C232.164 33.566 231.804 33.2488 231.412 32.9789L231.959 32.1853C232.415 32.4994 232.833 32.868 233.201 33.2817L232.48 33.9219ZM225.956 32.3251L225.612 31.4246C226.129 31.2279 226.671 31.0937 227.221 31.0271L227.338 31.9837C226.865 32.0415 226.4 32.1564 225.956 32.3251ZM230.149 32.3186C229.704 32.1507 229.238 32.0375 228.764 31.9813L228.878 31.0238C229.429 31.0889 229.971 31.2214 230.49 31.4166L230.149 32.3186Z" fill="white"/>
</g>
<circle cx="149.775" cy="131.775" r="16.775" transform="rotate(90 149.775 131.775)" fill="#FA7268"/>
<path fill-rule="evenodd" clip-rule="evenodd" d="M158.515 127.167L155.644 124.966L148.037 134.886L143.812 131.647L141.609 134.518L147.269 138.853L148.721 139.941L158.515 127.167Z" fill="white"/>
<path d="M173.595 157.861L208.095 255.812L224.109 220.994L250.609 248.888L265.953 233.299L240.345 205.717L273.366 189.618L173.595 157.861Z" fill="#FFB5F0"/>
<path d="M173.595 157.861L208.095 255.812L224.109 220.994L250.609 248.888L258.548 240.823L173.641 157.875L173.595 157.861Z" fill="#D659C4"/>
<path d="M172.172 132L171.588 149.571L173.676 149.64L174.259 132.069L172.172 132Z" fill="#364756"/>
<path d="M151.377 143.285L150.298 145.071L165.363 154.155L166.442 152.368L151.377 143.285Z" fill="#364756"/>
<path d="M165.292 160.001L150 168.706L151.034 170.519L166.326 161.814L165.292 160.001Z" fill="#364756"/>
<path d="M171.399 164.729L171.535 182.31L173.623 182.293L173.487 164.712L171.399 164.729Z" fill="#364756"/>
</g>
<defs>
<clipPath id="clip0">
<rect x="22" width="255" height="274" fill="white"/>
</clipPath>
<clipPath id="clip1">
<rect x="214" y="24" width="28" height="28" fill="white"/>
</clipPath>
</defs>
</svg>
