<svg width="216" height="115" viewBox="0 0 216 115" fill="none" xmlns="http://www.w3.org/2000/svg">
<path d="M169.527 47.1523H158.706V94.8636H169.527V47.1523Z" fill="url(#paint0_linear)"/>
<path d="M181.328 97H147.392L159.443 93.3206H168.541L181.328 97Z" fill="url(#paint1_linear)"/>
<path d="M111 22.7044C111 22.7044 156.743 0.869479 216 22.7044V41.5728C216 41.5728 169.526 55.1033 111.002 41.5728L111 22.7044Z" fill="url(#paint2_linear)"/>
<path d="M114.321 23.184C114.321 23.184 157.166 2.72705 212.68 23.184V40.862C212.68 40.862 169.145 53.5364 114.321 40.862V23.184Z" fill="url(#paint3_linear)"/>
<path d="M176.408 33.6243H150.344V44.3058H176.408V33.6243Z" fill="url(#paint4_linear)"/>
<path d="M174.195 34.53H152.557V43.3981H174.195V34.53Z" fill="url(#paint5_linear)"/>
<g opacity="0.1">
<path opacity="0.1" d="M172.499 60.5844L164.277 53.7476L156.985 60.3445L150.658 53.4308L144.075 60.4703L143.845 60.426C146.5 56.685 143.867 46.0802 143.845 45.9731L143.744 45.5759L150.665 53.1384L156.435 46.9654L164.285 53.496L171.464 46.9922L177.545 53.6905L183.447 46.0302L184.924 45.8881L184.89 45.9743C184.847 46.0837 180.815 56.3402 183.107 59.8181L183.652 60.4191L183.435 60.4738C183.199 60.2797 183.012 60.0729 182.875 59.8577L177.567 54.0073L172.499 60.5844ZM164.413 53.6206L172.448 60.3072L177.422 53.8536L171.442 47.2671L164.413 53.6206ZM150.783 53.2817L156.985 60.0731L164.123 53.6229L156.447 47.2252L150.783 53.2817ZM144.166 46.3446C144.586 48.1709 146.22 55.9617 144.492 59.7214L150.525 53.2817L144.166 46.3446ZM177.69 53.8512L182.533 59.1856C181.061 55.3886 184.222 47.0598 184.618 46.0418L183.636 46.1362L177.69 53.8512Z" fill="url(#paint6_linear)"/>
</g>
<g opacity="0.1">
<path opacity="0.1" d="M151.077 60.5994L144.977 53.2279L145.206 53.1837L151.09 60.2884L156.985 53.7951L149.125 46.8255L149.34 46.7684L157.108 53.6577L162.998 47.1726H163.071L180.561 46.3748L164.359 60.3315L157.137 53.9256L151.077 60.5994ZM157.262 53.7893L164.362 60.0858L180.122 46.511L163.172 47.2844L157.262 53.7893Z" fill="url(#paint7_linear)"/>
</g>
<g opacity="0.1">
<path opacity="0.1" d="M177.163 60.2329L177.038 60.1164L162.53 46.586L162.749 46.5312L177.132 59.9441L182.537 53.1841L182.766 53.2272L177.163 60.2329Z" fill="url(#paint8_linear)"/>
</g>
<path d="M163.869 44.1868C152.325 44.1868 142.969 44.931 142.969 45.8488C142.969 46.7666 152.327 47.5109 163.869 47.5109C175.411 47.5109 184.769 46.7666 184.769 45.8488C184.769 44.931 175.411 44.1868 163.869 44.1868ZM163.869 46.7981C153.276 46.7981 144.69 46.3194 144.69 45.73C144.69 45.1407 153.276 44.6631 163.869 44.6631C174.463 44.6631 183.046 45.1395 183.046 45.73C183.046 46.3205 174.461 46.7981 163.869 46.7981Z" fill="url(#paint9_linear)"/>
<g opacity="0.2">
<path opacity="0.2" d="M163.869 44.1868C152.325 44.1868 142.969 44.931 142.969 45.8488C142.969 46.7666 152.327 47.5109 163.869 47.5109C175.411 47.5109 184.769 46.7666 184.769 45.8488C184.769 44.931 175.411 44.1868 163.869 44.1868ZM163.869 46.7981C153.276 46.7981 144.69 46.3194 144.69 45.73C144.69 45.1407 153.276 44.6631 163.869 44.6631C174.463 44.6631 183.046 45.1395 183.046 45.73C183.046 46.3205 174.461 46.7981 163.869 46.7981Z" fill="url(#paint10_linear)"/>
</g>
<path d="M163.869 43.8315C152.325 43.8315 142.969 44.5758 142.969 45.4936C142.969 46.4113 152.327 47.1556 163.869 47.1556C175.411 47.1556 184.769 46.4113 184.769 45.4936C184.769 44.5758 175.411 43.8315 163.869 43.8315ZM163.869 46.4428C153.276 46.4428 144.69 45.9641 144.69 45.3748C144.69 44.7854 153.278 44.3067 163.869 44.3067C174.461 44.3067 183.046 44.7796 183.046 45.3736C183.046 45.9676 174.461 46.4416 163.869 46.4416V46.4428Z" fill="url(#paint11_linear)"/>
<path d="M169.412 47.3H158.794V94.1216H169.412V47.3Z" fill="#E8EAF1"/>
<path d="M180.995 96.2178H147.694L159.519 92.6072H168.447L180.995 96.2178Z" fill="#E8EAF1"/>
<path d="M111.979 23.3063C111.979 23.3063 156.864 1.87552 215.02 23.3063V41.8252C215.02 41.8252 169.412 55.103 111.979 41.8252V23.3063Z" fill="#E8EAF1"/>
<path d="M115.238 23.7787C115.238 23.7787 157.285 3.70255 211.763 23.7787V41.1259C211.763 41.1259 169.051 53.5639 115.238 41.1259V23.7787Z" fill="#F3F5F7"/>
<path d="M176.169 34.0212H150.59V44.5036H176.169V34.0212Z" fill="white"/>
<path d="M173.997 34.9124H152.761V43.6151H173.997V34.9124Z" fill="#F3F5F7"/>
<path opacity="0.1" d="M172.332 60.4807L164.262 53.7673L157.093 60.2443L150.884 53.4598L144.436 60.3689L144.212 60.3258C146.828 56.6535 144.233 46.2467 144.212 46.1419L144.113 45.7517L150.906 53.1733L156.569 47.1168L164.272 53.5227L171.335 47.1401L177.303 53.7137L183.094 46.1955L184.542 46.0557L184.509 46.1407C184.465 46.249 180.508 56.3134 182.759 59.7272L183.295 60.3165L183.08 60.3701C182.848 60.1796 182.664 59.9768 182.53 59.7656L177.317 54.0235L172.332 60.4807ZM164.398 53.6462L172.284 60.2082L177.163 53.8756L171.297 47.4114L164.398 53.6462ZM151.019 53.3177L157.115 59.9799L164.113 53.6497L156.572 47.3742L151.019 53.3177ZM144.525 46.5099C144.938 48.3013 146.54 55.9442 144.844 59.6375L150.754 53.3177L144.525 46.5099ZM177.424 53.8721L182.175 59.1052C180.727 55.3781 183.83 47.2053 184.221 46.2071L183.256 46.3003L177.424 53.8721Z" fill="black"/>
<path opacity="0.1" d="M151.31 60.4957L145.323 53.2617L145.547 53.2186L151.322 60.1941L157.113 53.8184L149.391 46.9792L149.604 46.9233L157.227 53.6787L163.018 47.3147H163.088L180.253 46.532L164.343 60.2325L157.256 53.9431L151.31 60.4957ZM157.379 53.8126L164.345 59.9914L179.814 46.6694L163.18 47.4276L157.379 53.8126Z" fill="black"/>
<path opacity="0.1" d="M176.91 60.137L176.785 60.0217L162.547 46.744L162.762 46.6904L176.877 59.8528L182.183 53.2186L182.407 53.2606L176.91 60.137Z" fill="black"/>
<path d="M163.862 44.3887C152.535 44.3887 143.351 45.119 143.351 46.0193C143.351 46.9196 152.535 47.6499 163.862 47.6499C175.189 47.6499 184.374 46.9196 184.374 46.0193C184.374 45.119 175.189 44.3887 163.862 44.3887ZM163.862 46.9511C153.466 46.9511 145.04 46.4852 145.04 45.9028C145.04 45.3204 153.466 44.8546 163.862 44.8546C174.258 44.8546 182.685 45.3204 182.685 45.9028C182.685 46.4852 174.258 46.9511 163.862 46.9511Z" fill="#5F546F"/>
<path opacity="0.2" d="M163.862 44.3887C152.535 44.3887 143.351 45.119 143.351 46.0193C143.351 46.9196 152.535 47.6499 163.862 47.6499C175.189 47.6499 184.374 46.9196 184.374 46.0193C184.374 45.119 175.189 44.3887 163.862 44.3887ZM163.862 46.9511C153.466 46.9511 145.04 46.4852 145.04 45.9028C145.04 45.3204 153.466 44.8546 163.862 44.8546C174.258 44.8546 182.685 45.3204 182.685 45.9028C182.685 46.4852 174.258 46.9511 163.862 46.9511Z" fill="black"/>
<path d="M163.862 44.0383C152.535 44.0383 143.351 44.7686 143.351 45.6689C143.351 46.5692 152.535 47.2994 163.862 47.2994C175.189 47.2994 184.374 46.5692 184.374 45.6689C184.374 44.7686 175.189 44.0383 163.862 44.0383ZM163.862 46.6006C153.466 46.6006 145.04 46.1348 145.04 45.5524C145.04 44.9701 153.466 44.5042 163.862 44.5042C174.258 44.5042 182.685 44.9701 182.685 45.5524C182.685 46.1348 174.258 46.6006 163.862 46.6006Z" fill="#5F546F"/>
<path opacity="0.1" d="M169.293 92.3159H158.675V92.8983H169.293V92.3159Z" fill="black"/>
<path opacity="0.3" d="M140.011 16.7299L115.238 28.7811V31.6347L143.351 16.2092L140.011 16.7299Z" fill="white"/>
<path opacity="0.3" d="M148.561 15.5703L115.238 35.9435V38.9636L156.874 14.9717L148.561 15.5703Z" fill="white"/>
<path d="M4.87705 105.999C7.00877 105.721 10.9494 102.665 10.9494 102.665C11.2351 102.276 11.6257 101.959 12.0837 101.747C12.5417 101.534 13.0519 101.433 13.5653 101.451L17.4786 96.4314C18.9955 94.0536 20.795 91.8354 22.8444 89.817C23.1794 89.4781 23.5255 89.1494 23.8828 88.8308C24.9383 87.8736 26.0724 86.9913 27.2753 86.1917C28.0667 85.6534 28.8138 85.0629 29.5106 84.4249C30.1547 83.8398 30.7646 83.224 31.3378 82.5803L34.0603 79.1023L34.243 78.8661C34.1735 78.5265 34.155 78.1797 34.1882 77.8355C34.1882 77.7549 34.2064 77.6744 34.2186 77.5938L45.4558 65.5428L48.8057 59.309C48.8453 59.3395 48.9792 59.4423 49.1894 59.5868L49.2503 59.4284V59.3562V58.8312C49.2673 54.5162 48.0933 50.2668 45.8365 46.4746C45.0785 45.2015 44.6818 43.7757 44.6823 42.327C44.6823 42.2104 44.6823 42.0937 44.6823 41.977L44.7402 41.9187C44.8468 41.8103 45.0904 41.5603 45.4041 41.1908C45.3645 41.1186 45.3218 41.0436 45.2822 40.9742C43.8875 38.6351 41.9476 38.2351 41.9476 38.2351C35.4185 37.4016 30.7104 33.3874 30.7104 33.3874C25.8379 30.8872 26.7515 28.6648 26.7515 28.6648L31.155 18.9696L33.8958 13.8442L34.6541 11.4884C34.9025 9.92151 35.2533 8.36954 35.7047 6.84082C36.3534 4.58509 39.5845 3.94337 41.1437 5.79074C41.1802 5.83519 41.2198 5.88242 41.2563 5.93242C41.9466 6.8425 42.2399 7.95476 42.0789 9.05166C41.9178 10.1486 41.3139 11.1512 40.3854 11.8635C38.8627 13.0469 37.538 14.2609 37.538 14.2609C34.7972 14.9526 32.97 27.8342 32.97 27.8342L34.7972 28.9454C36.1985 29.0117 37.5695 29.3422 38.8237 29.9159C40.078 30.4897 41.1883 31.2943 42.0847 32.279H47.8159C47.8159 32.2568 47.8007 32.2346 47.7916 32.2096L48.7417 32.0151L51.4825 31.4595L52.4966 31.2511L52.5118 31.3095L52.7981 31.2511V31.2873C53.183 30.7309 53.5288 30.1528 53.8335 29.5566C53.7517 29.5678 53.6686 29.5678 53.5868 29.5566C53.5655 29.5149 53.5472 29.4732 53.532 29.4316H53.4345C53.0112 28.5982 53.3767 27.5564 52.9686 26.7063C52.7483 26.3477 52.5042 26.0017 52.2377 25.6701C51.6287 24.7117 51.7017 23.5116 51.8814 22.4115C52.0763 21.2281 52.3748 20.0197 53.1209 19.0335C53.867 18.0473 55.1551 17.325 56.4707 17.4806C57.5061 17.6056 58.4136 18.2529 59.4551 18.314C60.1921 18.3529 60.8986 18.089 61.5868 17.8834C62.3404 17.662 63.1139 17.5011 63.8982 17.4028C64.419 17.3361 65.0311 17.3278 65.3813 17.6806L65.4118 17.7167C65.4558 17.7474 65.4965 17.7819 65.5336 17.8195C65.6711 17.9761 65.7744 18.1553 65.8381 18.3473L66.5111 20.0391C66.5458 20.0966 66.5639 20.1611 66.5639 20.2266C66.5639 20.2922 66.5458 20.3567 66.5111 20.4142C66.4502 20.4836 66.3436 20.503 66.2614 20.5503C65.7285 20.8642 66.4441 21.6393 66.0025 22.0198C65.7376 22.2476 65.1712 22.2726 64.6108 22.2699C65.1206 23.0027 65.4292 23.8368 65.5106 24.7015C65.5919 25.5663 65.4436 26.4362 65.0782 27.2375C64.7128 28.0389 64.141 28.7481 63.4113 29.3051C62.6816 29.862 61.8155 30.2504 60.8864 30.4372C60.8864 30.5289 60.8864 30.6205 60.8864 30.715C60.8719 31.4476 60.9351 32.1798 61.0752 32.9013L61.5198 32.9374C62.2598 32.9735 63.7551 33.0263 65.0615 32.9707C65.499 32.9549 65.9351 32.9169 66.368 32.8568C66.368 32.8568 66.4197 33.3624 66.5202 34.1375L66.8248 34.2153C69.6648 34.9597 72.1311 36.5847 73.7985 38.8101L80.6322 42.4215C80.6322 42.4215 83.6775 41.7298 92.4754 48.6553L98.8523 51.7111C98.8523 51.7111 108.594 54.328 106.773 56.956C104.952 59.584 95.8405 53.7724 95.8405 53.7724L92.1861 52.2501L81.1012 47.8053C81.1012 47.8053 77.4468 45.5829 74.7243 44.7495C72.0018 43.9161 69.258 41.4159 69.258 41.4159L68.5728 41.3825L68.2682 41.3659C68.3136 41.4405 68.3634 41.5128 68.4175 41.5825C68.4449 41.6214 68.4753 41.6575 68.5058 41.6909V63.9899L68.5545 64.6094H68.5332L69.2641 73.6796C69.2641 73.6796 69.1118 77.8466 69.7209 80.1885C70.3299 82.5303 69.2641 92.1005 69.2641 92.1005C69.2641 92.1005 68.8651 92.1005 68.2165 92.0589L68.2347 92.3367L68.5027 96.2564C68.5027 96.2564 69.0143 97.7677 66.0665 98.5538C65.3914 98.7323 64.7489 99.001 64.1601 99.3511L60.7616 101.382L57.2686 103.326L56.5621 104.679L56.5286 104.746L57.2716 104.332C57.2716 104.332 57.8807 105.721 55.9043 107.518C55.1642 108.122 54.5868 108.874 54.2171 109.715C53.8474 110.556 53.6952 111.463 53.7726 112.366C53.7726 112.366 53.468 115.7 51.6408 114.866C51.6408 114.866 48.7569 114.311 48.9001 109.741C48.9001 109.741 50.0512 105.935 48.7113 104.327C48.6747 104.282 48.6361 104.24 48.5955 104.199C47.0729 102.676 49.0523 100.31 49.0523 100.31C49.0523 100.31 52.5697 99.015 52.7676 101.165L52.9138 101.107C53.5472 100.829 54.6831 100.154 55.886 98.5094C55.886 98.5094 57.8594 93.9396 60.8955 93.5229L60.387 90.8921L60.3291 90.5893C59.2846 90.1393 58.438 89.5587 58.0116 88.8114L57.9934 88.7781V88.7642V88.7447V88.7253V88.7058L57.9781 88.678V88.6558L57.9629 88.6253L57.9446 88.5919V88.5641L57.9233 88.5252L57.8655 88.4975L57.8441 88.4558L57.8259 88.4197L57.8015 88.3725L57.7802 88.3336L57.7558 88.2863L57.7284 88.2363L57.7071 88.1974L57.6767 88.1391L57.6553 88.1002L57.5244 87.8419L57.5061 87.8085L57.4696 87.7363L57.4422 87.6835L57.4026 87.603L57.3782 87.5557L57.3325 87.4613L57.3143 87.4224L57.2655 87.3252L57.2412 87.2779L57.1924 87.1779L57.1711 87.1335L57.1194 87.0279L57.098 86.9862L57.0432 86.8751L57.025 86.8335L56.9701 86.7168L56.9519 86.6779L56.891 86.5529V86.5306C55.9195 84.4694 54.6983 81.5052 54.7592 79.7495C54.7513 79.6098 54.7513 79.4698 54.7592 79.3301H54.7958V79.3023C54.7958 79.2439 54.8202 79.1884 54.8384 79.1356L46.6404 80.8024L41.768 85.65H41.7466H41.7284H41.707H41.6827H41.6583L41.6279 85.6361H41.6005L41.5609 85.6195L41.5304 85.6056L41.4878 85.5861L41.4512 85.5695L41.3995 85.5444L41.366 85.5278L41.3081 85.5L41.2716 85.4806L41.2107 85.4528L41.168 85.4306L41.101 85.3972L41.0584 85.3778L40.9884 85.3417L40.9396 85.3167L40.8635 85.2778L40.8117 85.1639L40.7264 85.1194L40.6808 85.0972L40.5925 85.0527L40.5407 85.025L40.4493 84.9777L40.4006 84.95L40.3032 84.8972L40.2514 84.8694L40.1509 84.8138L40.1022 84.7861L39.9956 84.7277H39.9773L39.8068 84.9083L37.6751 87.164C35.5433 87.9974 30.6891 92.1506 30.6891 92.1506C30.1288 93.3757 27.7565 95.1258 26.5444 95.9647C26.1979 96.1985 25.8301 96.4048 25.4451 96.5815C24.7812 96.8954 23.8463 97.6427 22.9906 98.3983C21.8739 99.405 20.6758 100.334 19.4062 101.176C18.2322 101.993 17.1879 102.954 16.3031 104.032L16.1995 104.154C16.9243 106.377 12.7766 108.635 12.7766 108.635C11.2539 108.357 6.55198 112.247 6.55198 112.247C6.55198 112.247 2.14845 115.433 0.327362 111.969C-1.49374 108.505 4.87705 105.999 4.87705 105.999ZM12.9228 102.287L13.5318 101.501C13.3665 101.572 13.2242 101.681 13.119 101.818C13.0138 101.954 12.9494 102.113 12.9319 102.279L12.9228 102.287Z" fill="url(#paint12_linear)"/>
<path d="M50.7923 34.2846C50.7923 34.2846 66.1559 42.4492 62.8731 37.821C61.4532 35.8717 60.7104 33.5773 60.7414 31.2372C60.742 30.4731 60.8546 29.7126 61.0763 28.9759L54.6629 26.2534C54.774 27.0548 54.6951 27.8686 54.4315 28.6397C53.5331 31.5344 50.7923 34.2846 50.7923 34.2846Z" fill="#DB8B8B"/>
<path opacity="0.1" d="M54.4401 28.6427C55.0488 29.6346 55.9902 30.4222 57.126 30.8897C58.2618 31.3572 59.532 31.4801 60.75 31.2401C60.7506 30.4761 60.8633 29.7156 61.085 28.9788L54.6716 26.2563C54.7827 27.0577 54.7037 27.8715 54.4401 28.6427Z" fill="black"/>
<path d="M59.5168 31.0866C56.3044 31.0866 53.7002 28.711 53.7002 25.7806C53.7002 22.8502 56.3044 20.4746 59.5168 20.4746C62.7292 20.4746 65.3333 22.8502 65.3333 25.7806C65.3333 28.711 62.7292 31.0866 59.5168 31.0866Z" fill="#DB8B8B"/>
<path opacity="0.1" d="M63.2346 22.9583C62.6725 23.0633 62.1762 23.3617 61.849 23.7917C61.4653 24.3473 61.4744 25.1085 60.9354 25.5418C60.5286 25.8161 60.0202 25.9338 59.5193 25.8696C59.0243 25.804 58.5228 25.7881 58.024 25.8224C57.217 25.9419 56.5562 26.4863 56.1085 27.1086C55.7015 27.7539 55.3394 28.422 55.0244 29.1088C54.8956 29.3812 54.7117 29.6291 54.4823 29.8394C54.3664 29.9437 54.2253 30.0216 54.0703 30.067C53.9153 30.1124 53.7508 30.1239 53.59 30.1005C53.1728 29.2671 53.5322 28.2559 53.1332 27.4253C52.9175 27.0735 52.6785 26.7339 52.4176 26.4086C51.8085 25.4668 51.8907 24.2889 52.0704 23.2083C52.2623 22.0443 52.5546 20.8581 53.2885 19.8914C54.0225 18.9246 55.2863 18.2246 56.5653 18.3662C57.5824 18.4885 58.4747 19.1246 59.498 19.1802C60.2197 19.2191 60.9171 18.9607 61.6053 18.7579C62.345 18.5405 63.1042 18.3824 63.8741 18.2857C64.3857 18.2218 64.9856 18.2107 65.3298 18.5635C65.4665 18.7164 65.5699 18.8918 65.6343 19.0802L66.2951 20.747C66.3293 20.8036 66.3471 20.8671 66.3471 20.9317C66.3471 20.9963 66.3293 21.0599 66.2951 21.1165C66.2342 21.1831 66.1307 21.2026 66.0515 21.2526C65.5277 21.5609 66.2312 22.3221 65.7987 22.6972C65.3663 23.0722 63.8406 22.8277 63.2346 22.9583Z" fill="black"/>
<path d="M63.0858 22.8218C62.5237 22.9268 62.0275 23.2253 61.7002 23.6552C61.3165 24.2108 61.3256 24.972 60.7866 25.4054C60.3798 25.6796 59.8714 25.7973 59.3705 25.7332C58.8755 25.6675 58.3741 25.6517 57.8753 25.6859C57.0683 25.8054 56.4074 26.3499 55.9597 26.9722C55.5527 27.6174 55.1906 28.2855 54.8756 28.9723C54.7468 29.2448 54.563 29.4926 54.3336 29.7029C54.2177 29.8072 54.0765 29.8852 53.9215 29.9305C53.7665 29.9759 53.602 29.9874 53.4413 29.9641C53.0241 29.1307 53.3834 28.1195 52.9845 27.2888C52.7687 26.937 52.5298 26.5975 52.2688 26.2721C51.6598 25.3304 51.742 24.1525 51.9217 23.0718C52.1135 21.9078 52.4059 20.7216 53.1398 19.7549C53.8737 18.7881 55.1375 18.0881 56.4165 18.2298C57.4337 18.352 58.326 18.9882 59.3492 19.0437C60.0709 19.0826 60.7683 18.8243 61.4565 18.6215C62.1962 18.404 62.9554 18.246 63.7253 18.1492C64.2369 18.0853 64.8368 18.0742 65.181 18.427C65.3177 18.5799 65.4211 18.7553 65.4855 18.9437L66.1463 20.6105C66.1804 20.6671 66.1983 20.7307 66.1983 20.7953C66.1983 20.8599 66.1804 20.9234 66.1463 20.98C66.0854 21.0467 65.9819 21.0661 65.9027 21.1161C65.3789 21.4245 66.0824 22.1856 65.6499 22.5607C65.2175 22.9357 63.6918 22.6912 63.0858 22.8218Z" fill="black"/>
<path d="M31.1029 33.8749C31.1029 33.8749 35.7257 37.8197 42.1391 38.6364C42.1391 38.6364 44.0455 39.0309 45.4159 41.3283C45.9151 42.1918 46.2693 43.1189 46.4665 44.0785L53.3489 33.4415L53.7752 32.7831H42.2914C41.4097 31.8176 40.3184 31.0292 39.0862 30.4674C37.854 29.9056 36.5076 29.5827 35.1318 29.519L33.3412 28.43C33.3412 28.43 35.1318 15.7762 37.8147 15.0956C37.8147 15.0956 39.1242 13.901 40.6134 12.7398C41.5276 12.0398 42.1222 11.0534 42.2805 9.97418C42.4388 8.89494 42.1494 7.80069 41.4691 6.906C41.4326 6.85877 41.396 6.81155 41.3564 6.7671C39.8338 4.95306 36.6514 5.58367 36.0119 7.80052C35.5678 9.30638 35.2231 10.8352 34.9796 12.3787L34.2335 14.6928L31.5475 19.7265L27.2232 29.2495C27.2232 29.2495 26.3309 31.4275 31.1029 33.8749Z" fill="#DB8B8B"/>
<path d="M65.4084 34.4197L66.3037 41.6425L68.3166 41.7453L68.9897 41.7786C68.9897 41.7786 71.6756 44.2288 74.3585 45.0428C77.0415 45.8567 80.6227 48.0375 80.6227 48.0375L91.5097 52.3823L95.088 53.8796C95.088 53.8796 104.038 59.6051 105.829 57.0076C107.619 54.4102 98.0633 51.8267 98.0633 51.8267L91.799 48.832C83.1473 42.0286 80.1659 42.7204 80.1659 42.7204L73.4663 39.184C71.8289 36.9978 69.4067 35.4013 66.6174 34.6697C66.2216 34.5594 65.8175 34.4759 65.4084 34.4197Z" fill="#DB8B8B"/>
<path opacity="0.1" d="M45.4164 41.3296C45.9157 42.1932 46.2698 43.1203 46.467 44.0799L53.3494 33.4428C53.1853 33.2353 53.0417 33.015 52.92 32.7844C52.7439 32.4585 52.6051 32.1168 52.5059 31.7649L51.51 31.9705L48.8149 32.5261L47.88 32.7178C47.88 32.74 47.8983 32.7622 47.9044 32.7844C49.1591 36.1458 46.7929 39.6656 45.4164 41.3296Z" fill="black"/>
<path opacity="0.1" d="M65.4092 34.4197L66.3045 41.6426L68.3175 41.7454C67.4617 40.3563 66.8801 36.6782 66.6151 34.6808C66.2207 34.5669 65.8177 34.4796 65.4092 34.4197Z" fill="black"/>
<path d="M45.9578 46.5956C48.1954 50.356 49.3481 54.5737 49.3076 58.8522V59.3855V59.455C49.3076 59.455 47.6662 63.5359 49.3076 63.5359C50.9491 63.5359 50.7998 65.5777 52.8859 65.9861C54.9719 66.3944 62.2837 69.2502 64.519 68.0279C66.7542 66.8056 68.2465 64.2193 68.2465 64.2193V42.0397C68.216 42.0063 68.1855 41.9702 68.1581 41.9313C66.87 40.2645 66.1574 33.3195 66.1574 33.3195C65.7316 33.3793 65.3026 33.4173 64.8722 33.4334C63.5902 33.489 62.1315 33.4334 61.3945 33.4001L60.9377 33.3751C59.6495 34.2946 57.8924 34.428 57.0214 34.428C56.7157 34.429 56.4104 34.4494 56.1078 34.4891C53.5893 34.8113 52.8219 31.7583 52.8219 31.7583L51.8261 31.9639L49.131 32.5195L48.1961 32.7112C49.8741 37.0476 45.4553 41.6841 44.898 42.2453L44.8401 42.3036C44.7927 43.799 45.1782 45.2794 45.9578 46.5956Z" fill="#F6CA13"/>
<path opacity="0.3" d="M64.8697 33.4456C64.8697 35.2485 65.3417 41.224 68.2409 42.088V42.0407C68.2104 42.0074 68.18 41.9713 68.1526 41.9324C66.8644 40.2656 66.1518 33.3206 66.1518 33.3206C65.7273 33.3839 65.2993 33.4256 64.8697 33.4456Z" fill="white"/>
<path opacity="0.3" d="M44.8838 42.2538C50.341 41.9982 49.6954 35.4866 49.1168 32.5308L48.1819 32.7224C49.8599 37.0561 45.4442 41.6927 44.8838 42.2538Z" fill="white"/>
<g opacity="0.1">
<path opacity="0.1" d="M44.8258 42.4491C44.8274 42.435 44.8339 42.4218 44.8443 42.4113C44.8547 42.4008 44.8685 42.3936 44.8837 42.3908C46.1018 42.113 44.7497 42.5158 46.1018 42.113C46.1536 42.0963 46.0287 41.9102 46.0287 41.9102C45.9876 43.404 46.3783 44.8814 47.1615 46.1938C49.3991 49.9542 50.5519 54.1719 50.5114 58.4504V58.9838V59.0505C50.5114 59.0505 48.87 63.1314 50.5114 63.1314C52.1528 63.1314 52.0036 65.1732 54.0896 65.5816C56.0021 65.9566 62.2907 68.3818 65.0528 67.8456C64.8823 67.9595 64.7087 68.0679 64.529 68.1651C62.2907 69.3902 54.9819 66.5316 52.8959 66.1233C50.8098 65.7149 50.956 63.6731 49.3176 63.6731C47.6793 63.6731 49.3176 59.5922 49.3176 59.5922V59.5227V58.9893C49.3581 54.7108 48.2054 50.4932 45.9678 46.7328C45.1813 45.4212 44.7875 43.9437 44.8258 42.4491Z" fill="black"/>
<path opacity="0.1" d="M60.5762 33.6649C60.6463 33.6203 60.7194 33.5728 60.7864 33.5254H60.9447C60.8229 33.5812 60.698 33.6231 60.5762 33.6649Z" fill="black"/>
</g>
<path d="M13.5046 101.77L15.2922 105.442C15.8025 104.677 16.3618 103.939 16.9671 103.234C17.8355 102.176 18.8604 101.232 20.0124 100.431C21.2593 99.6033 22.4361 98.6914 23.5328 97.7028C24.3733 96.961 25.293 96.2249 25.9447 95.9165C26.3233 95.7431 26.685 95.5405 27.0258 95.3109C28.2134 94.4775 30.5462 92.769 31.0974 91.5662C31.0974 91.5662 35.8694 87.4853 37.9584 86.6686L40.0414 84.4462L42.4351 81.8988L36.3201 76.3206L34.5203 78.618L31.8435 82.0349C30.6326 83.4074 29.2475 84.6439 27.7171 85.7185C26.1925 86.7272 24.7844 87.8749 23.5145 89.1438C21.5125 91.1298 19.756 93.3107 18.2766 95.647L14.4304 100.578L14.403 100.617L13.7939 101.392L13.5046 101.77Z" fill="#DB8B8B"/>
<path d="M51.3879 102.179L53.7755 107.349L55.7123 105.443L56.5101 103.915L57.2045 102.585L60.6365 100.679L63.9864 98.6843C64.5649 98.3404 65.196 98.0764 65.8593 97.9009C68.7553 97.1286 68.2559 95.6452 68.2559 95.6452L67.991 91.7949L67.8083 89.1141L59.8904 88.2974L60.2863 90.3392L60.7858 92.9227C57.8014 93.3311 55.8645 97.8204 55.8645 97.8204C54.686 99.4344 53.5684 100.104 52.9441 100.371C52.7816 100.445 52.6098 100.502 52.4325 100.54L51.3879 102.179Z" fill="#DB8B8B"/>
<path opacity="0.1" d="M14.4032 100.622L14.4732 100.584H14.4306L14.4032 100.622Z" fill="black"/>
<path opacity="0.1" d="M13.5048 101.77L15.2924 105.443C15.8027 104.677 16.3619 103.94 16.9673 103.234C16.6932 103.473 15.1614 104.745 14.6711 103.584C14.4832 103.111 14.2667 102.647 14.0225 102.195C13.8711 101.955 13.7942 101.681 13.8002 101.404L13.5048 101.77Z" fill="black"/>
<path opacity="0.1" d="M13.6507 101.529L14.2598 100.754L14.2872 100.715L18.1334 95.7838C19.616 93.4489 21.3756 91.2699 23.3805 89.286C24.6503 88.0171 26.0584 86.8695 27.583 85.8607C29.1134 84.7861 30.4986 83.5496 31.7094 82.1771L34.3771 78.774L36.1769 76.4766L36.4388 76.7155L34.8278 78.774L32.151 82.1909C30.9385 83.5597 29.5523 84.7925 28.0215 85.8635C26.4969 86.8722 25.0888 88.0199 23.819 89.2888C21.8175 91.2722 20.061 93.4503 18.5811 95.7838L14.7288 100.72L14.7014 100.759L14.0923 101.534L13.7878 101.912L15.3896 105.201C15.2221 105.443 15.1277 105.585 15.1277 105.585L13.3371 101.912L13.6507 101.529Z" fill="black"/>
<path opacity="0.1" d="M51.3879 102.178L53.7754 107.348L55.7123 105.442L56.5101 103.915L54.2201 105.304C51.9696 104.02 52.8375 100.739 52.941 100.373C52.7785 100.447 52.6067 100.504 52.4294 100.542L51.3879 102.178Z" fill="black"/>
<path d="M52.8044 100.479C52.8044 100.479 51.6867 104.09 54.0712 105.446L57.2048 103.54C57.2048 103.54 57.8139 104.901 55.8619 106.671C55.1357 107.265 54.5695 108.003 54.2071 108.829C53.8448 109.655 53.6962 110.546 53.7728 111.432C53.7728 111.432 53.4682 114.697 51.6837 113.883C51.6837 113.883 48.8485 113.327 48.9977 108.849C48.9977 108.849 50.1275 105.112 48.812 103.532C48.7754 103.489 48.7379 103.448 48.6993 103.407C47.2071 101.909 49.1469 99.5981 49.1469 99.5981C49.1469 99.5981 52.6551 98.3036 52.8044 100.479Z" fill="black"/>
<path opacity="0.1" d="M49.3 63.5402C50.9414 63.5402 50.7922 65.5821 52.8782 65.9904C54.9643 66.3988 62.2761 69.2546 64.5113 68.0323C66.7466 66.8099 68.2388 64.2236 68.2388 64.2236V63.9458C64.5113 65.7154 59.8855 63.9458 59.8855 63.9458C56.5905 64.5236 50.9231 60.5816 49.2969 59.3843V59.4537C49.2969 59.4537 47.6616 63.5402 49.3 63.5402Z" fill="black"/>
<path opacity="0.1" d="M67.7968 89.1167L59.879 88.3L60.2749 90.3418C62.7263 91.3807 66.2559 91.7002 67.9673 91.7974L67.7968 89.1167Z" fill="black"/>
<path opacity="0.1" d="M34.5266 78.6242C34.9012 81.1244 37.9648 83.2718 40.0478 84.458L42.4414 81.9106L36.3264 76.3323L34.5266 78.6242Z" fill="black"/>
<path d="M59.8915 64.2167C59.8915 64.2167 64.5143 65.9863 68.2448 64.2167L68.9909 73.4703C68.9909 73.4703 68.8417 77.5512 69.4386 79.8597C70.0355 82.1682 68.9909 91.5607 68.9909 91.5607C68.9909 91.5607 59.7423 91.4246 57.9547 88.2966C57.9547 88.2966 54.078 81.2209 54.8211 78.7735L46.7662 80.407L41.9912 85.1629C41.9912 85.1629 33.7871 81.6265 34.5332 77.2706L45.5725 65.439L48.8523 59.3274C48.8523 59.3274 56.0118 64.8973 59.8915 64.2167Z" fill="#6C63FF"/>
<path d="M41.9906 85.1629L46.7626 80.4014L54.8205 78.7735C54.8022 78.8346 54.787 78.8985 54.7718 78.9652C54.747 79.0955 54.7328 79.2274 54.7292 79.3596C54.6043 82.1904 57.9511 88.2993 57.9511 88.2993C59.7418 91.4301 68.9873 91.5634 68.9873 91.5634C68.9873 91.5634 70.0471 82.1793 69.438 79.8652C68.829 77.5512 68.9904 73.4758 68.9904 73.4758L68.2717 64.5667L68.2443 64.225C67.2029 64.7033 66.0597 64.9688 64.8944 65.0029C63.2439 65.0464 61.5995 64.8022 60.0493 64.2834L59.891 64.225C59.8037 64.2398 59.7143 64.2519 59.623 64.2611C56.4193 64.5834 51.2819 61.0998 49.4943 59.8024C49.0892 59.508 48.8547 59.3274 48.8547 59.3274L45.5719 65.439L34.5357 77.2761C34.512 77.4122 34.4977 77.5496 34.4931 77.6873C34.3012 81.8543 41.9906 85.1629 41.9906 85.1629Z" fill="#F6CA13"/>
<path opacity="0.3" d="M51.8123 31.9718C55.1348 37.4474 60.0347 34.4165 61.3929 33.4109L60.9361 33.3859C59.6479 34.3054 57.8908 34.4387 57.0198 34.4387C56.7141 34.4398 56.4088 34.4602 56.1062 34.4999C53.5877 34.8221 52.8203 31.769 52.8203 31.769L51.8123 31.9718Z" fill="white"/>
<path d="M14.3176 100.72C13.8068 100.694 13.2973 100.79 12.8396 100.999C12.3818 101.207 11.9917 101.521 11.7078 101.909C11.7078 101.909 7.83416 104.887 5.74812 105.165C5.74812 105.165 -0.516096 107.615 1.27455 111.016C3.0652 114.416 7.38955 111.294 7.38955 111.294C7.38955 111.294 12.0123 107.485 13.5045 107.757C13.5045 107.757 17.6066 105.512 16.8544 103.334C16.8544 103.334 15.0577 105.001 14.5156 103.721C14.3288 103.247 14.1133 102.783 13.87 102.332C13.5807 101.809 13.4315 101.129 14.3176 100.72Z" fill="black"/>
<path opacity="0.1" d="M60.872 64.2506C62.4312 64.6645 65.5679 65.2173 68.2417 63.9478L68.2904 64.5561C65.0471 65.6312 61.4598 64.4589 60.872 64.2506Z" fill="black"/>
<path opacity="0.1" d="M57.4819 63.7717C58.2587 64.0012 59.0828 64.0649 59.8908 63.9579C59.8908 63.9579 60.2197 64.0829 60.7678 64.2357C59.8146 64.3829 58.6696 64.169 57.4819 63.7717Z" fill="black"/>
<path opacity="0.1" d="M34.4902 77.6906C34.6333 81.727 41.9908 84.8995 41.9908 84.8995L42.0943 84.7967C40.057 83.7772 34.8252 80.7964 35.4282 77.2795L46.4674 65.4396L49.4944 59.7919C49.0894 59.4975 48.8549 59.3169 48.8549 59.3169L45.5721 65.4285L34.5359 77.2656C34.5105 77.4062 34.4952 77.5482 34.4902 77.6906Z" fill="black"/>
<path opacity="0.1" d="M55.7128 78.7737C54.9667 81.2238 58.8464 88.2965 58.8464 88.2965C59.3763 89.2216 60.5548 89.8855 61.9556 90.3605C60.1772 89.8772 58.5906 89.141 57.9511 88.0243C57.9511 88.0243 54.5099 81.7461 54.7352 78.9709L55.7128 78.7737Z" fill="black"/>
<path opacity="0.3" d="M58.2492 43.4688C60.3505 43.4688 62.0528 45.6912 62.0528 48.4358C62.0528 51.1805 60.3505 53.4029 58.2492 53.4029C56.1479 53.4029 54.4456 51.1805 54.4456 48.4358C54.4456 45.6912 56.1479 43.4688 58.2492 43.4688ZM58.2492 51.3611C59.4856 51.3611 60.4905 50.0526 60.4905 48.4358C60.4905 46.819 59.4886 45.5106 58.2492 45.5106C57.0098 45.5106 56.0079 46.819 56.0079 48.4358C56.0079 50.0526 57.0128 51.3611 58.2492 51.3611Z" fill="white"/>
<path d="M33.3208 8.41505C33.3208 8.57617 33.3208 8.73545 33.3208 8.89287C33.3208 8.97899 33.3208 9.0651 33.3421 9.14844C33.4698 10.5755 33.9938 11.9493 34.8647 13.1404C34.9226 13.221 34.9835 13.2988 35.0444 13.3766C35.8749 14.4389 36.9712 15.3051 38.2424 15.9032C39.5136 16.5014 40.9228 16.8142 42.3532 16.8157C42.5572 16.8157 42.7612 16.8157 42.9622 16.7963C43.1632 16.7768 43.3368 16.7685 43.5226 16.7463C44.8136 16.5866 46.0514 16.174 47.1511 15.5367C48.2508 14.8994 49.1863 14.0525 49.8934 13.0543C49.9421 12.9904 49.9878 12.921 50.0304 12.8571V12.8432C50.9234 11.51 51.3946 9.97741 51.3916 8.41505C51.3922 7.9986 51.3596 7.58265 51.2942 7.1705L51.2455 6.8927C50.9985 5.62168 50.4337 4.41967 49.5951 3.37999C48.7564 2.34031 47.6663 1.49093 46.4095 0.897764L46.0806 0.75053C45.0117 0.300552 43.8559 0.0475603 42.6796 0.00608535C41.5032 -0.0353896 40.3294 0.135461 39.2256 0.508836C38.9382 0.606318 38.6566 0.717597 38.3821 0.8422C36.3591 1.76135 34.7791 3.32924 33.9451 5.24534C33.9146 5.30924 33.8902 5.37035 33.8659 5.43425C33.4906 6.3902 33.306 7.39973 33.3208 8.41505Z" fill="#FB745B"/>
<path opacity="0.5" d="M33.902 5.4351C34.4813 5.59184 35.0823 5.67137 35.6865 5.67123H35.7901H36.0276C36.1738 5.67123 36.3169 5.65457 36.454 5.6379C37.6384 5.50871 38.7732 5.12814 39.7673 4.5267C42.4258 2.05428 45.0296 1.20977 46.4365 0.9153L46.1076 0.768066C44.725 1.08754 42.4806 1.87926 40.1449 3.87942C39.5427 4.39917 38.8323 4.80347 38.0558 5.0684C37.5221 5.24838 36.9671 5.37052 36.4022 5.43232C36.2804 5.43232 36.1616 5.45455 36.0429 5.46288H35.8023C35.1849 5.47828 34.5687 5.40707 33.9751 5.25175C33.9538 5.3212 33.9264 5.38232 33.902 5.4351Z" fill="white"/>
<path opacity="0.5" d="M33.3359 8.89229C33.3359 8.97841 33.3359 9.06452 33.3572 9.14786C34.1361 8.69346 34.9686 8.32071 35.8391 8.03669L36.0675 7.96169C38.1429 7.32564 40.2868 6.89353 42.4627 6.67272C47.5788 6.07825 50.1308 6.63384 51.3459 7.16164L51.2972 6.88385C49.9816 6.35604 47.39 5.87546 42.4323 6.45049C40.2578 6.67199 38.1146 7.09931 36.0371 7.72556L35.8087 7.80056C34.9435 8.08157 34.1143 8.44764 33.3359 8.89229Z" fill="white"/>
<path opacity="0.5" d="M35.8087 7.82112C35.8087 7.89613 35.8269 7.97114 35.8361 8.04892C35.8888 8.42858 35.964 8.82584 36.0614 9.24069C36.1365 9.55368 36.2198 9.85463 36.3111 10.1435C36.3355 10.2186 36.3599 10.2936 36.3842 10.3658C37.5414 13.7466 39.8955 15.4607 41.7561 16.3163C42.1512 16.4995 42.558 16.6609 42.9743 16.7997L43.5346 16.7497C42.9501 16.5837 42.3817 16.3737 41.8353 16.1218C40.0081 15.2884 37.6968 13.5855 36.57 10.238C36.5456 10.1713 36.5243 10.1019 36.503 10.0324C36.4177 9.76388 36.3406 9.48608 36.2716 9.19901C36.1721 8.78231 36.0959 8.37487 36.0432 7.97669C36.0432 7.90168 36.0249 7.8239 36.0157 7.74889C35.938 7.05991 35.938 6.36548 36.0157 5.6765C36.0157 5.60427 36.031 5.53204 36.0432 5.46259C36.2288 3.9662 36.9403 2.56478 38.0713 1.46781C38.4407 1.1148 38.8489 0.797359 39.2894 0.520508C39.002 0.61799 38.7204 0.729269 38.4459 0.853873C38.2672 0.996477 38.0906 1.15204 37.916 1.32058C36.752 2.46263 36.0245 3.91765 35.8422 5.46815C35.8422 5.5376 35.8239 5.60983 35.8148 5.67928C35.7313 6.3911 35.7293 7.10891 35.8087 7.82112Z" fill="white"/>
<path opacity="0.5" d="M34.8889 13.1431C34.9468 13.2237 35.0077 13.3015 35.0686 13.3792C35.3243 12.368 35.7343 11.3945 36.2867 10.4873C36.3158 10.4422 36.3516 10.4011 36.3933 10.3651C36.4542 10.3145 36.5229 10.2723 36.5973 10.2401C37.7698 9.70948 41.2719 10.5984 43.8756 11.8819C45.8794 12.8709 48.5014 13.0459 49.9358 13.057L50.0728 12.8598V12.8459C48.7024 12.8459 46.0104 12.6959 43.9822 11.6958C41.5459 10.5012 37.922 9.47336 36.5273 10.029C36.4534 10.0584 36.383 10.0947 36.3172 10.1373C36.2215 10.1996 36.1407 10.279 36.0796 10.3707C35.552 11.2435 35.1517 12.1756 34.8889 13.1431Z" fill="white"/>
<defs>
<linearGradient id="paint0_linear" x1="164.116" y1="94.8636" x2="164.116" y2="47.1523" gradientUnits="userSpaceOnUse">
<stop stop-color="#808080" stop-opacity="0.25"/>
<stop offset="0.54" stop-color="#808080" stop-opacity="0.12"/>
<stop offset="1" stop-color="#808080" stop-opacity="0.1"/>
</linearGradient>
<linearGradient id="paint1_linear" x1="9744.1" y1="2980.81" x2="9744.1" y2="2864.57" gradientUnits="userSpaceOnUse">
<stop stop-color="#808080" stop-opacity="0.25"/>
<stop offset="0.54" stop-color="#808080" stop-opacity="0.12"/>
<stop offset="1" stop-color="#808080" stop-opacity="0.1"/>
</linearGradient>
<linearGradient id="paint2_linear" x1="39591" y1="14439.7" x2="39591" y2="4168.21" gradientUnits="userSpaceOnUse">
<stop stop-color="#808080" stop-opacity="0.25"/>
<stop offset="0.54" stop-color="#808080" stop-opacity="0.12"/>
<stop offset="1" stop-color="#808080" stop-opacity="0.1"/>
</linearGradient>
<linearGradient id="paint3_linear" x1="37097.3" y1="13225.8" x2="37097.3" y2="4211.26" gradientUnits="userSpaceOnUse">
<stop stop-color="#808080" stop-opacity="0.25"/>
<stop offset="0.54" stop-color="#808080" stop-opacity="0.12"/>
<stop offset="1" stop-color="#808080" stop-opacity="0.1"/>
</linearGradient>
<linearGradient id="paint4_linear" x1="7414.69" y1="3583.42" x2="7414.69" y2="2603.82" gradientUnits="userSpaceOnUse">
<stop stop-color="#808080" stop-opacity="0.25"/>
<stop offset="0.54" stop-color="#808080" stop-opacity="0.12"/>
<stop offset="1" stop-color="#808080" stop-opacity="0.1"/>
</linearGradient>
<linearGradient id="paint5_linear" x1="6183.43" y1="2912.59" x2="6183.43" y2="2237.37" gradientUnits="userSpaceOnUse">
<stop stop-color="#808080" stop-opacity="0.25"/>
<stop offset="0.54" stop-color="#808080" stop-opacity="0.12"/>
<stop offset="1" stop-color="#808080" stop-opacity="0.1"/>
</linearGradient>
<linearGradient id="paint6_linear" x1="15768.7" y1="7980.58" x2="15768.7" y2="6046.73" gradientUnits="userSpaceOnUse">
<stop stop-color="#808080" stop-opacity="0.25"/>
<stop offset="0.54" stop-color="#808080" stop-opacity="0.12"/>
<stop offset="1" stop-color="#808080" stop-opacity="0.1"/>
</linearGradient>
<linearGradient id="paint7_linear" x1="13417.1" y1="7568.79" x2="13417.1" y2="5831.11" gradientUnits="userSpaceOnUse">
<stop stop-color="#808080" stop-opacity="0.25"/>
<stop offset="0.54" stop-color="#808080" stop-opacity="0.12"/>
<stop offset="1" stop-color="#808080" stop-opacity="0.1"/>
</linearGradient>
<linearGradient id="paint8_linear" x1="6580.13" y1="6473.85" x2="6580.13" y2="4861.98" gradientUnits="userSpaceOnUse">
<stop stop-color="#808080" stop-opacity="0.25"/>
<stop offset="0.54" stop-color="#808080" stop-opacity="0.12"/>
<stop offset="1" stop-color="#808080" stop-opacity="0.1"/>
</linearGradient>
<linearGradient id="paint9_linear" x1="15923.8" y1="1428.49" x2="15923.8" y2="1333.65" gradientUnits="userSpaceOnUse">
<stop stop-color="#808080" stop-opacity="0.25"/>
<stop offset="0.54" stop-color="#808080" stop-opacity="0.12"/>
<stop offset="1" stop-color="#808080" stop-opacity="0.1"/>
</linearGradient>
<linearGradient id="paint10_linear" x1="15923.8" y1="1428.49" x2="15923.8" y2="1333.65" gradientUnits="userSpaceOnUse">
<stop stop-color="#808080" stop-opacity="0.25"/>
<stop offset="0.54" stop-color="#808080" stop-opacity="0.12"/>
<stop offset="1" stop-color="#808080" stop-opacity="0.1"/>
</linearGradient>
<linearGradient id="paint11_linear" x1="15923.8" y1="1417.95" x2="15923.8" y2="1323.12" gradientUnits="userSpaceOnUse">
<stop stop-color="#808080" stop-opacity="0.25"/>
<stop offset="0.54" stop-color="#808080" stop-opacity="0.12"/>
<stop offset="1" stop-color="#808080" stop-opacity="0.1"/>
</linearGradient>
<linearGradient id="paint12_linear" x1="-73223.3" y1="74598.7" x2="-73223.3" y2="30833.3" gradientUnits="userSpaceOnUse">
<stop stop-color="#808080" stop-opacity="0.25"/>
<stop offset="0.54" stop-color="#808080" stop-opacity="0.12"/>
<stop offset="1" stop-color="#808080" stop-opacity="0.1"/>
</linearGradient>
</defs>
</svg>
