<svg width="73" height="124" viewBox="0 0 73 124" fill="none" xmlns="http://www.w3.org/2000/svg">
<g clip-path="url(#clip0)">
<path d="M32.0039 61.9854C32.0039 61.9854 34.4589 65.2933 42.7705 66.5747C51.0821 67.8561 53.2413 66.1277 53.2413 66.1277V61.9854L46.5566 56.1445L34.7843 58.022L32.0039 61.9854Z" fill="#D5FCFF"/>
<path d="M20.6459 46.8466C20.6459 46.8466 19.5219 51.7041 25.3193 54.0286L27.6264 48.9029L24.9348 44.552L20.6459 46.8466Z" fill="#AA9517"/>
<path d="M26.4136 78.7034C26.4136 78.7034 29.4897 86.3621 38.8957 84.7529L39.8127 79.4484L44.2791 79.21L41.3508 86.6601C41.3508 86.6601 46.4087 89.8488 54.5428 85.9449L50.7272 76.9749L36.1449 70.1804L28.3953 76.1107L26.4136 78.7034Z" fill="#D7D5CA"/>
<path d="M12.068 85.617L11.4764 87.1369L10.7961 88.4779C10.7961 88.4779 10.7074 89.0739 9.93832 89.2825C9.16927 89.4911 7.69034 89.5507 6.77341 90.4447C5.85647 91.3387 4.37754 93.8122 3.22398 95.1532C2.07041 96.4942 0.561901 96.6134 0.0886435 95.5406C-0.384614 94.438 1.15347 87.8819 1.9521 86.2131C2.75072 84.5442 3.22398 84.1568 3.16482 83.4714C3.07608 82.786 3.63808 81.1172 3.99302 80.1338C4.34796 79.1801 4.46628 78.2563 5.29448 78.1073C6.12268 77.9583 9.19885 80.0146 10.7665 80.2828C12.3046 80.551 13.3694 80.5808 13.3103 81.594C13.192 82.5476 12.068 85.617 12.068 85.617Z" fill="#F6CA13"/>
<path d="M10.6482 81.8623C8.93265 81.3855 6.15226 81.1769 4.46628 81.5643C4.14091 81.6239 3.81555 81.6239 3.51976 81.5643C3.31271 82.3093 3.13524 83.0543 3.16482 83.4417C3.25355 84.1271 2.75072 84.5145 1.9521 86.1834C1.15347 87.8522 -0.384614 94.4381 0.0886435 95.5109C0.561901 96.6135 2.07041 96.4943 3.22398 95.1235C4.37754 93.7825 5.82689 91.309 6.77341 90.415C7.69034 89.521 9.16927 89.4614 9.93832 89.2528C10.7074 89.0442 10.7961 88.4482 10.7961 88.4482L11.4764 87.1072L12.068 85.5873C12.068 85.5873 12.9553 83.1735 13.2215 81.9517C12.275 82.0709 11.2989 82.0709 10.6482 81.8623Z" fill="#F6CA13"/>
<path d="M5.26494 78.0774C4.43674 78.2264 4.31842 79.1503 3.96348 80.1039C3.60853 81.0575 3.04654 82.7561 3.13528 83.4415C3.22401 84.1269 2.72118 84.5144 1.92255 86.1832C1.12393 87.852 -0.414155 94.4379 0.0591025 95.5107C0.295731 96.0174 0.739411 96.2558 1.27183 96.2558C1.27183 94.5273 2.04087 91.4281 2.51413 89.9083C3.07612 88.15 4.02264 86.0938 4.70294 84.9316C5.38325 83.7693 5.47199 81.7429 6.0044 80.4019C6.27061 79.7761 6.71429 79.1503 7.09881 78.7033C6.30019 78.3158 5.61988 78.0178 5.26494 78.0774Z" fill="#E5FACF"/>
<path d="M0.0886888 95.5109C0.118267 95.5705 0.147846 95.6301 0.177425 95.6897C0.207003 95.7195 0.207003 95.7493 0.236582 95.7493C0.26616 95.7791 0.26616 95.8089 0.295739 95.8387C0.325318 95.8685 0.354896 95.8983 0.384475 95.9281C0.414053 95.9579 0.414053 95.9579 0.443632 95.9877C0.473211 96.0175 0.502789 96.0473 0.561947 96.0771L0.591525 96.1069C0.621104 96.1367 0.680261 96.1665 0.70984 96.1665H0.739418C0.798575 96.1963 0.828154 96.1963 0.887311 96.2261C0.887311 96.2261 0.887311 96.2261 0.91689 96.2261C0.976047 96.2261 1.0352 96.2559 1.09436 96.2559C1.15352 96.2559 1.21268 96.2559 1.30141 96.2559C1.30141 94.5275 2.07046 91.4283 2.54371 89.9084C3.10571 88.1502 4.05222 86.094 4.73253 84.9317C5.26494 84.0377 5.44242 82.6073 5.7382 81.4153C5.26494 81.4451 4.85084 81.5047 4.46632 81.5941C4.14096 81.6537 3.81559 81.6537 3.51981 81.5941C3.43107 81.8623 3.37191 82.1305 3.31276 82.3987V82.4285C3.28318 82.4881 3.28318 82.5775 3.2536 82.6371C3.2536 82.6669 3.2536 82.6669 3.2536 82.6967C3.2536 82.7563 3.22402 82.8159 3.22402 82.8457C3.22402 82.8755 3.22402 82.9053 3.22402 82.9351C3.22402 82.9947 3.22402 83.0245 3.19444 83.0543C3.19444 83.0841 3.19444 83.1139 3.19444 83.1139C3.19444 83.1437 3.19444 83.2033 3.19444 83.2331C3.19444 83.2629 3.19444 83.2629 3.19444 83.2927C3.19444 83.3523 3.19444 83.4119 3.19444 83.4417C3.19444 83.5609 3.19444 83.6801 3.19444 83.7993C3.16486 83.9185 3.13529 84.0377 3.07613 84.1569C3.04655 84.2463 2.98739 84.3357 2.92823 84.4251C2.72118 84.8125 2.39582 85.349 2.0113 86.1834C1.56762 87.137 0.887311 89.6104 0.473211 91.8157C0.414053 92.1733 0.325318 92.5309 0.295739 92.8885C0.236582 93.2163 0.207003 93.5441 0.177425 93.8421C0.147846 94.0507 0.147846 94.2295 0.118267 94.4083C0.118267 94.4977 0.118267 94.5871 0.118267 94.6467C-4.69871e-05 95.0639 0.0295316 95.3619 0.0886888 95.5109Z" fill="#F6CA13"/>
<path d="M31.3827 108.415L32.0039 109.934L32.418 111.365C32.418 111.365 32.7729 111.842 32.3588 112.527C31.9447 113.212 30.9095 114.285 30.8799 115.567C30.8207 116.848 31.4419 119.649 31.5306 121.437C31.6193 123.196 30.6137 124.358 29.5193 123.881C28.4249 123.434 25.0233 117.593 24.4613 115.835C23.8993 114.077 23.9585 113.451 23.4557 113.004C22.9232 112.557 22.1838 110.948 21.7697 110.024C21.3556 109.1 20.8232 108.325 21.326 107.64C21.8288 106.954 25.467 106.299 26.7685 105.405C28.0699 104.54 28.8685 103.795 29.4897 104.57C30.0813 105.405 31.3827 108.415 31.3827 108.415Z" fill="#F6CA13"/>
<path opacity="0.8" d="M31.4125 108.534L31.3533 108.414C31.3533 108.414 30.0519 105.405 29.4307 104.63C28.8096 103.855 28.011 104.57 26.7095 105.464C25.408 106.328 21.7699 107.014 21.267 107.699C20.7642 108.385 21.2966 109.13 21.7107 110.083C22.1248 111.007 22.8643 112.616 23.3967 113.063C23.9291 113.51 23.8404 114.136 24.4024 115.894C24.8165 117.206 26.8278 120.782 28.2772 122.719C27.5673 119.47 27.5377 114.434 27.5377 112.557C27.5377 110.381 28.9575 109.934 28.9575 109.934L29.2828 108.057C29.2828 107.997 30.7026 108.385 31.4125 108.534Z" fill="#F6CA13"/>
<path d="M34.6069 102.872C34.6069 102.872 34.1337 101.829 32.7139 102.186C31.2941 102.544 28.6616 105.405 28.1884 106.06C27.7447 106.746 27.2419 107.908 27.7447 108.772C28.2475 109.636 29.342 110.262 30.1406 110.083C30.9392 109.905 32.004 110.53 32.3885 111.365C32.3885 111.365 32.1815 110.054 33.1872 109.458C34.1928 108.862 36.8253 108.772 36.9437 107.491C37.0324 106.209 34.6069 102.872 34.6069 102.872Z" fill="#F2D611"/>
<path d="M35.0209 103.438C34.7843 103.08 34.6364 102.872 34.6364 102.872C34.6364 102.872 34.1632 101.829 32.7434 102.186C31.3236 102.544 28.6911 105.405 28.2179 106.06C27.7742 106.746 27.2714 107.908 27.7742 108.772C28.0404 109.249 28.4841 109.636 28.9869 109.875C29.5193 109.07 30.2588 108.206 31.1757 107.55C33.335 106.06 34.2223 106.865 34.2223 106.865C33.1871 105.345 33.3941 102.961 33.3941 102.961C33.3941 102.961 34.7547 103.497 35.0209 103.438Z" fill="#E0AD0B"/>
<path d="M15.9428 82.3987C14.9371 82.0411 13.9019 82.3689 13.0737 82.1901C12.8666 82.1305 12.7187 82.1007 12.5708 82.0709C11.6835 81.9517 10.6778 81.5941 9.9679 82.1603C9.25802 82.7265 8.57771 84.6635 8.96223 85.4979C9.37633 86.3324 11.0919 86.839 10.7961 88.3886C10.7961 88.3886 11.6835 87.6138 12.0384 87.7032C12.3933 87.7926 13.0441 89.074 14.1385 88.9846C15.2329 88.8952 16.6527 83.7695 16.6527 83.7695C16.6527 83.7695 16.9485 82.7563 15.9428 82.3987Z" fill="#F2D611"/>
<path d="M15.7061 85.4386L14.3455 88.2101C14.3455 88.2101 13.7244 87.6736 13.8131 86.6604C13.8723 86.1538 14.3751 84.7532 14.8484 83.5314C14.2864 83.3824 13.6061 83.3228 12.8074 82.9354C11.2989 82.2201 10.6778 81.8625 10.6778 81.8625C10.4411 81.8923 10.2045 81.9817 10.027 82.1308C9.31716 82.697 8.63685 84.634 9.02137 85.4684C9.43547 86.3028 11.151 86.8094 10.8552 88.3591C10.8552 88.3591 11.7426 87.5843 12.0975 87.6737C12.4525 87.7631 13.1032 89.0445 14.1976 88.9551C14.9963 88.8955 15.9428 86.2432 16.416 84.7532C16.3273 84.7532 16.2386 84.6936 16.1794 84.6638L15.7061 85.4386Z" fill="#E0AD0B"/>
<path d="M40.1087 80.7301C40.1087 80.7301 36.5592 87.2267 34.1042 89.9087C31.6492 92.5908 29.5195 93.1272 27.0053 92.8888C24.4911 92.6504 14.1682 88.1505 14.1682 88.1505C14.1682 88.1505 14.4048 84.783 15.6767 83.2334C15.6767 83.2334 20.3797 84.0678 22.4502 84.0082C24.4911 83.9188 25.6447 83.3228 27.8335 84.4552C27.8335 84.4552 28.2476 78.0183 31.3534 74.4422C34.4591 70.8364 37.979 74.9786 37.979 74.9786L40.1087 80.7301Z" fill="#FFBF8F"/>
<path d="M37.979 74.9784C37.979 74.9784 34.4591 70.8659 31.3534 74.442C28.2476 78.0479 27.8335 84.455 27.8335 84.455C25.6151 83.2928 24.4911 83.9186 22.4502 84.008C20.4093 84.0974 15.6767 83.2332 15.6767 83.2332C14.3753 84.753 14.1682 88.1503 14.1682 88.1503C14.1682 88.1503 24.5207 92.6799 27.0053 92.8885C28.1589 93.0077 29.2237 92.9481 30.2886 92.5905C29.3125 92.3819 28.1589 92.0541 27.1236 91.5475C24.6095 90.2959 24.3137 86.6304 27.6561 86.69C30.9984 86.7496 32.5365 79.0611 32.5365 79.0611C35.1099 79.2697 37.3283 82.2498 38.3339 83.7994C39.3692 82.0709 40.1087 80.7299 40.1087 80.7299L37.979 74.9784Z" fill="#E8A370"/>
<path d="M52.7682 83.4716C52.7682 83.4716 42.327 79.538 42.1791 82.965C42.0608 85.4683 43.9538 93.3058 43.9538 93.3058C41.2917 94.1104 39.3987 96.1667 37.5352 98.5805C35.6718 100.965 33.3942 102.961 33.3942 102.961C33.3942 102.961 33.7492 105.107 35.9084 107.044C35.9084 107.044 39.517 105.435 42.534 103.736C50.1949 99.4447 51.7921 95.9581 51.8809 95.7197C52.2062 94.8256 52.295 91.9946 52.295 91.8754C52.6795 87.9417 52.7682 83.4716 52.7682 83.4716Z" fill="#FFBF8F"/>
<path d="M42.1494 82.9651C42.0311 85.4684 43.9241 93.3059 43.9241 93.3059C41.2621 94.1105 39.369 96.1668 37.5056 98.5806C35.6421 100.965 33.3646 102.961 33.3646 102.961C33.3646 102.961 33.5716 104.243 34.6956 105.733C35.5534 104.571 36.8253 103.021 38.4521 101.352C41.8832 97.8952 45.9059 95.9284 46.6158 94.3191C47.3552 92.7099 45.6397 89.7596 46.0538 87.614C46.4679 85.4684 48.5088 85.7068 51.0526 85.7664C51.7329 85.7664 52.2653 85.7962 52.6794 85.7962C52.7386 84.4253 52.7386 83.5015 52.7386 83.5015C52.7386 83.5015 42.3269 79.5679 42.1494 82.9651Z" fill="#E8A370"/>
<path d="M49.7807 68.4521L51.8808 66.3065C51.8808 66.3065 52.2061 62.4622 50.7864 59.4225C49.3666 56.3531 43.5396 51.9724 43.5396 51.9724L35.583 55.0121L34.0745 61.4192L49.7807 68.4521Z" fill="#E8A370"/>
<path d="M17.3034 34.3008L15.5878 33.3472L14.9667 34.3902L14.4343 34.5094L13.9314 35.5524L13.9019 35.8206L13.5173 35.8802L13.2216 37.251L13.2511 38.5027L15.2329 39.4861L17.4513 37.6384L17.3034 34.3008Z" fill="#E8A370"/>
<path d="M39.6353 11.9801L39.6945 11.8907C40.079 11.2649 40.4931 10.6093 40.8185 9.95368L40.7002 10.1325L39.9311 9.62587L40.4339 8.85106L41.1143 9.29807C41.1438 9.26827 41.1438 9.20867 41.1734 9.17887L40.5227 8.73186L41.0255 7.95705L41.4988 8.28485C41.4988 8.22525 41.5284 8.19545 41.5284 8.13585L41.0847 7.83784L41.5875 7.06303C41.5875 6.97363 41.5875 6.88423 41.6171 6.76502L41.5579 6.85443L40.7889 6.34782L41.2917 5.573L41.7058 5.84121C41.7058 5.78161 41.7058 5.72201 41.7058 5.6922L41.3805 5.4538L41.7058 4.97699C41.7058 4.88759 41.7058 4.79819 41.7058 4.73859L41.2917 5.3644L40.5227 4.85779L41.0255 4.08298L41.7058 4.52998C41.7058 4.44058 41.7058 4.44058 41.7058 4.44058L41.6762 4.32138L41.1143 3.93397L41.4396 3.45717L41.3805 3.27836L40.9959 3.84457L40.2269 3.33796L40.7297 2.56315L41.2621 2.92076L41.203 2.71215L40.8185 2.50355L40.9664 2.29494L40.8776 2.17574L40.7297 2.41415L39.9311 1.90754L40.2565 1.43073L40.1677 1.31153L39.8424 1.81814L39.0733 1.31153L39.4283 0.775118L39.31 0.685716L38.955 1.22213L38.186 0.715517L38.4226 0.35791C38.3634 0.35791 38.3043 0.35791 38.2451 0.35791L38.0677 0.626115L37.7127 0.387711C37.624 0.387711 37.5648 0.387711 37.4761 0.387711L37.9789 0.715517L37.4761 1.49033L36.707 0.983721L37.0916 0.417511C37.0324 0.417511 36.9732 0.417511 36.9141 0.417511L36.5887 0.92412L35.938 0.477112C35.7901 0.477112 35.7014 0.477112 35.7014 0.477112C35.7014 0.477112 35.6422 0.506913 35.5831 0.536713L35.1394 1.22213L34.7253 0.953921C34.6661 0.983721 34.6365 1.01352 34.5774 1.01352L35.0506 1.34133L34.5478 2.11614L33.7788 1.60953L33.9266 1.37113C33.8379 1.40093 33.7492 1.46053 33.69 1.49033L33.6604 1.52013H33.6309C33.5717 1.54993 33.5421 1.57973 33.483 1.57973L33.5717 1.63933L33.0689 2.41415L32.6252 2.11614C32.5956 2.14594 32.5365 2.17574 32.5069 2.20554L33.0097 2.56315L32.5069 3.33796L31.7378 2.83135L31.8266 2.71215C31.6491 2.86116 31.5012 2.98036 31.4125 3.09956L31.0575 3.63597H31.0279C30.9984 3.66577 30.9688 3.72537 30.9688 3.75517L30.7322 4.11278C30.4659 4.55979 30.1702 5.09619 29.904 5.6326L30.673 6.13921L30.1702 6.91403L29.5194 6.46702C29.4899 6.49682 29.4899 6.55642 29.4603 6.58622L30.0814 7.00343L29.549 7.74844L29.0758 7.45044C29.0462 7.51004 29.0462 7.53984 29.0166 7.56964L29.4603 7.86764L28.9574 8.64246L28.78 8.52326C28.78 8.58286 28.78 8.64246 28.78 8.67226L28.8687 8.73186L28.78 8.88086C28.78 8.94046 28.78 9.02986 28.8095 9.08947L28.987 8.82126L29.7561 9.32787L29.2532 10.1325L28.9574 9.95368C28.987 10.0133 28.987 10.0729 29.0166 10.1623L29.1941 10.2815L29.1053 10.4305C29.1349 10.4901 29.1349 10.5497 29.1645 10.6093L29.3124 10.3709L30.0814 10.8775L29.5786 11.6523L29.5194 11.6225C29.549 11.7119 29.5786 11.7715 29.6082 11.8609L30.3772 12.3675L30.111 12.7847C30.1406 12.8145 30.1702 12.8443 30.1997 12.9039L30.4955 12.4569L31.2646 12.9635L30.9096 13.4999L31.0279 13.5893L31.3829 13.0529L32.1519 13.5595L31.797 14.096L31.9153 14.1854L32.2702 13.6489L33.0393 14.1556L32.7435 14.6026C32.8027 14.6026 32.8322 14.6324 32.8914 14.6324L33.1576 14.2152L33.9266 14.7218V14.7516C34.0154 14.7516 34.1041 14.7516 34.1929 14.7218L34.1337 14.692L34.6365 13.9172L35.4056 14.4238L35.2873 14.5728C35.3464 14.5728 35.4056 14.543 35.4647 14.543L35.4943 14.4834L35.5535 14.5132C35.6126 14.5132 35.6718 14.4834 35.7605 14.4834L35.5831 14.3642L36.0859 13.5893L36.8549 14.096L36.7366 14.2748C36.7958 14.2748 36.8549 14.245 36.9141 14.245L36.9732 14.1854L37.0324 14.245C37.062 14.245 37.062 14.245 37.0916 14.245C37.1211 14.245 37.1803 14.2152 37.2099 14.2152L37.0324 14.096L37.5352 13.3211L38.1564 13.7383C38.186 13.7085 38.2451 13.6787 38.2747 13.6489L37.5944 13.2019L38.0972 12.4271L38.8663 12.9337L38.5409 13.4403C38.6592 13.3211 38.7775 13.2317 38.8663 13.1125C39.0437 12.8741 39.2508 12.6059 39.4578 12.3079L39.5762 12.1291C39.6057 12.0695 39.6353 12.0099 39.6353 11.9801ZM30.7026 5.99021L29.9335 5.4836L30.4364 4.70879L31.2054 5.2154L30.7026 5.99021ZM31.2942 5.09619L30.5251 4.58959L31.0279 3.81477L31.797 4.32138L31.2942 5.09619ZM31.8857 4.20218L31.1167 3.69557L31.6195 2.92076L32.3886 3.42736L31.8857 4.20218ZM29.8448 9.23847L29.0758 8.73186L29.5786 7.95705L30.3476 8.46365L29.8448 9.23847ZM30.4068 8.34445L29.6377 7.83784L30.1406 7.06303L30.9096 7.56964L30.4068 8.34445ZM30.9984 7.45044L30.2293 6.94383L30.7322 6.16901L31.5012 6.67562L30.9984 7.45044ZM31.5899 6.55642L30.8209 6.04981L31.3237 5.275L32.0928 5.78161L31.5899 6.55642ZM32.1815 5.6922L31.4125 5.1856L31.9153 4.41078L32.6843 4.91739L32.1815 5.6922ZM32.7731 4.79819L32.004 4.29158L32.5069 3.51677L33.2759 4.02338L32.7731 4.79819ZM33.3647 3.90417L32.5956 3.39756L33.0984 2.62275L33.8675 3.12936L33.3647 3.90417ZM33.9562 3.01016L33.1872 2.50355L33.69 1.72873L34.4591 2.23534L33.9562 3.01016ZM30.111 10.7285L29.342 10.2219L29.8448 9.44707L30.6138 9.95368L30.111 10.7285ZM30.7026 9.83448L29.9335 9.32787L30.4364 8.55306L31.2054 9.05966L30.7026 9.83448ZM31.2942 8.94046L30.5251 8.43385L31.0279 7.65904L31.797 8.16565L31.2942 8.94046ZM31.8857 8.04645L31.1167 7.53984L31.6195 6.76502L32.3886 7.27163L31.8857 8.04645ZM32.4773 7.15243L31.7082 6.64582L32.2111 5.87101L32.9801 6.37762L32.4773 7.15243ZM33.0689 6.28822L32.2998 5.78161L32.8027 5.00679L33.5717 5.5134L33.0689 6.28822ZM33.6604 5.3942L32.8914 4.88759L33.3942 4.11278L34.1633 4.61939L33.6604 5.3942ZM34.252 4.50018L33.483 3.99357L33.9858 3.21876L34.7548 3.72537L34.252 4.50018ZM34.8436 3.60617L34.0745 3.09956L34.5774 2.32475L35.3464 2.83135L34.8436 3.60617ZM35.4352 2.71215L34.6661 2.20554L35.1689 1.43073L35.938 1.93734L35.4352 2.71215ZM35.9971 1.84794L35.2281 1.34133L35.7309 0.566514L36.5 1.07312L35.9971 1.84794ZM30.4068 12.1887L29.6377 11.6821L30.1406 10.9073L30.9096 11.4139L30.4068 12.1887ZM30.9984 11.3245L30.2293 10.8179L30.7322 10.0431L31.5012 10.5497L30.9984 11.3245ZM31.5899 10.4305L30.8209 9.92388L31.3237 9.14907L32.0928 9.65568L31.5899 10.4305ZM32.1815 9.53647L31.4125 9.02986L31.9153 8.25505L32.6843 8.76166L32.1815 9.53647ZM32.7731 8.64246L32.004 8.13585L32.5069 7.36103L33.2759 7.86764L32.7731 8.64246ZM33.3647 7.74844L32.5956 7.24183L33.0984 6.46702L33.8675 6.97363L33.3647 7.74844ZM33.9562 6.85443L33.1872 6.34782L33.69 5.573L34.4591 6.07961L33.9562 6.85443ZM34.5478 5.99021L33.7788 5.4836L34.2816 4.70879L35.0506 5.2154L34.5478 5.99021ZM35.1394 5.09619L34.3703 4.58959L34.8732 3.81477L35.6422 4.32138L35.1394 5.09619ZM35.7014 4.20218L34.9323 3.69557L35.4352 2.92076L36.2042 3.42736L35.7014 4.20218ZM36.2929 3.30816L35.5239 2.80155L36.0267 2.02674L36.7958 2.53335L36.2929 3.30816ZM36.8845 2.41415L36.1155 1.90754L36.6183 1.13272L37.3873 1.63933L36.8845 2.41415ZM31.2942 12.7847L30.5251 12.2781L31.0279 11.5033L31.797 12.0099L31.2942 12.7847ZM31.8857 11.8907L31.1167 11.3841L31.6195 10.6093L32.3886 11.1159L31.8857 11.8907ZM32.4773 11.0265L31.7082 10.5199L32.2111 9.74508L32.9801 10.2517L32.4773 11.0265ZM33.0689 10.1325L32.2998 9.62587L32.8027 8.85106L33.5717 9.35767L33.0689 10.1325ZM33.6604 9.23847L32.8914 8.73186L33.3942 7.95705L34.1633 8.46365L33.6604 9.23847ZM34.252 8.34445L33.483 7.83784L33.9858 7.06303L34.7548 7.56964L34.252 8.34445ZM34.8436 7.45044L34.0745 6.94383L34.5774 6.16901L35.3464 6.67562L34.8436 7.45044ZM35.4056 6.58622L34.6365 6.07961L35.1394 5.3048L35.9084 5.81141L35.4056 6.58622ZM35.9971 5.6922L35.2281 5.1856L35.7309 4.41078L36.5 4.91739L35.9971 5.6922ZM36.5887 4.79819L35.8197 4.29158L36.3225 3.51677L37.0916 4.02338L36.5887 4.79819ZM37.1803 3.90417L36.4113 3.39756L36.9141 2.62275L37.6831 3.12936L37.1803 3.90417ZM37.7719 3.01016L37.0028 2.50355L37.5057 1.72873L38.2747 2.23534L37.7719 3.01016ZM38.3634 2.14594L37.5944 1.63933L38.0972 0.864519L38.8663 1.37113L38.3634 2.14594ZM32.1815 13.3807L31.4125 12.8741L31.9153 12.0993L32.6843 12.6059L32.1815 13.3807ZM32.7731 12.4867L32.004 11.9801L32.5069 11.2053L33.2759 11.7119L32.7731 12.4867ZM33.3647 11.6225L32.5956 11.1159L33.0984 10.3411L33.8675 10.8477L33.3647 11.6225ZM33.9562 10.7285L33.1872 10.2219L33.69 9.44707L34.4591 9.95368L33.9562 10.7285ZM34.5478 9.83448L33.7788 9.32787L34.2816 8.55306L35.0506 9.05966L34.5478 9.83448ZM35.1098 8.94046L34.3407 8.43385L34.8436 7.65904L35.6126 8.16565L35.1098 8.94046ZM35.7014 8.04645L34.9323 7.53984L35.4352 6.76502L36.2042 7.27163L35.7014 8.04645ZM36.2929 7.15243L35.5239 6.64582L36.0267 5.87101L36.7958 6.37762L36.2929 7.15243ZM36.8845 6.28822L36.1155 5.78161L36.6183 5.00679L37.3873 5.5134L36.8845 6.28822ZM37.4761 5.3942L36.707 4.88759L37.2099 4.11278L37.9789 4.61939L37.4761 5.3942ZM38.0677 4.50018L37.2986 3.99357L37.8014 3.21876L38.5705 3.72537L38.0677 4.50018ZM38.6592 3.60617L37.8902 3.09956L38.393 2.32475L39.1621 2.83135L38.6592 3.60617ZM39.2508 2.71215L38.4818 2.20554L38.9846 1.43073L39.7536 1.93734L39.2508 2.71215ZM33.0689 13.9768L32.2998 13.4701L32.8027 12.6953L33.5717 13.2019L33.0689 13.9768ZM33.6604 13.0827L32.8914 12.5761L33.3942 11.8013L34.1633 12.3079L33.6604 13.0827ZM34.252 12.1887L33.483 11.6821L33.9858 10.9073L34.7548 11.4139L34.252 12.1887ZM34.814 11.3245L34.045 10.8179L34.5478 10.0431L35.3168 10.5497L34.814 11.3245ZM35.4056 10.4305L34.6365 9.92388L35.1394 9.14907L35.9084 9.65568L35.4056 10.4305ZM35.9971 9.53647L35.2281 9.02986L35.7309 8.25505L36.5 8.76166L35.9971 9.53647ZM36.5887 8.64246L35.8197 8.13585L36.3225 7.36103L37.0916 7.86764L36.5887 8.64246ZM37.1803 7.74844L36.4113 7.24183L36.9141 6.46702L37.6831 6.97363L37.1803 7.74844ZM37.7719 6.88423L37.0028 6.37762L37.5057 5.6028L38.2747 6.10941L37.7719 6.88423ZM38.3634 5.99021L37.5944 5.4836L38.0972 4.70879L38.8663 5.2154L38.3634 5.99021ZM38.955 5.09619L38.186 4.58959L38.6888 3.81477L39.4578 4.32138L38.955 5.09619ZM39.5466 4.20218L38.7775 3.69557L39.2804 2.92076L40.0494 3.42736L39.5466 4.20218ZM40.1382 3.30816L39.3691 2.80155L39.872 2.02674L40.641 2.53335L40.1382 3.30816ZM33.9562 14.5728L33.1872 14.0662L33.69 13.2913L34.4591 13.7979L33.9562 14.5728ZM34.5182 13.6787L33.7492 13.1721L34.252 12.3973L35.0211 12.9039L34.5182 13.6787ZM35.1098 12.7847L34.3407 12.2781L34.8436 11.5033L35.6126 12.0099L35.1098 12.7847ZM35.7014 11.9205L34.9323 11.4139L35.4352 10.6391L36.2042 11.1457L35.7014 11.9205ZM36.2929 11.0265L35.5239 10.5199L36.0267 9.74508L36.7958 10.2517L36.2929 11.0265ZM36.8845 10.1325L36.1155 9.62587L36.6183 8.85106L37.3873 9.35767L36.8845 10.1325ZM37.4761 9.23847L36.707 8.73186L37.2099 7.95705L37.9789 8.46365L37.4761 9.23847ZM38.0677 8.34445L37.2986 7.83784L37.8014 7.06303L38.5705 7.56964L38.0677 8.34445ZM38.6592 7.45044L37.8902 6.94383L38.393 6.16901L39.1621 6.67562L38.6592 7.45044ZM39.2508 6.58622L38.4818 6.07961L38.9846 5.3048L39.7536 5.81141L39.2508 6.58622ZM39.8424 5.6922L39.0733 5.1856L39.5762 4.41078L40.3452 4.91739L39.8424 5.6922ZM40.4044 4.79819L39.6353 4.29158L40.1382 3.51677L40.9072 4.02338L40.4044 4.79819ZM35.4056 14.2748L34.6365 13.7681L35.1394 12.9933L35.9084 13.4999L35.4056 14.2748ZM35.9971 13.3807L35.2281 12.8741L35.7309 12.0993L36.5 12.6059L35.9971 13.3807ZM36.5887 12.4867L35.8197 11.9801L36.3225 11.2053L37.0916 11.7119L36.5887 12.4867ZM37.1803 11.6225L36.4113 11.1159L36.9141 10.3411L37.6831 10.8477L37.1803 11.6225ZM37.7719 10.7285L37.0028 10.2219L37.5057 9.44707L38.2747 9.95368L37.7719 10.7285ZM38.3634 9.83448L37.5944 9.32787L38.0972 8.55306L38.8663 9.05966L38.3634 9.83448ZM38.955 8.94046L38.186 8.43385L38.6888 7.65904L39.4578 8.16565L38.955 8.94046ZM39.5466 8.04645L38.7775 7.53984L39.2804 6.76502L40.0494 7.27163L39.5466 8.04645ZM40.1086 7.18223L39.3395 6.67562L39.8424 5.90081L40.6114 6.40742L40.1086 7.18223ZM40.7002 6.28822L39.9311 5.78161L40.4339 5.00679L41.203 5.5134L40.7002 6.28822ZM36.8845 13.9768L36.1155 13.4701L36.6183 12.6953L37.3873 13.2019L36.8845 13.9768ZM37.4761 13.0827L36.707 12.5761L37.2099 11.8013L37.9789 12.3079L37.4761 13.0827ZM38.0677 12.2185L37.2986 11.7119L37.8014 10.9371L38.5705 11.4437L38.0677 12.2185ZM38.6592 11.3245L37.8902 10.8179L38.393 10.0431L39.1621 10.5497L38.6592 11.3245ZM39.2508 10.4305L38.4818 9.92388L38.9846 9.14907L39.7536 9.65568L39.2508 10.4305ZM39.8424 9.53647L39.0733 9.02986L39.5762 8.25505L40.3452 8.76166L39.8424 9.53647ZM40.4044 8.64246L39.6353 8.13585L40.1382 7.36103L40.9072 7.86764L40.4044 8.64246ZM40.9959 7.74844L40.2269 7.24183L40.7297 6.46702L41.4988 6.97363L40.9959 7.74844ZM38.955 12.7847L38.186 12.2781L38.6888 11.5033L39.4578 12.0099L38.955 12.7847ZM39.5466 11.9205L38.7775 11.4139L39.2804 10.6391L40.0494 11.1457L39.5466 11.9205ZM40.1086 11.0265L39.3395 10.5199L39.8424 9.74508L40.6114 10.2517L40.1086 11.0265Z" fill="#D6FFA6"/>
<path d="M40.0198 0.715505C37.0323 -1.31093 32.1518 1.16251 29.8151 4.70878C27.8038 7.74843 28.0108 11.1159 30.1997 13.2913C30.4067 13.4701 30.4954 13.7383 30.525 13.9767C30.5546 14.2151 30.4954 14.4833 30.3476 14.7218L18.5753 32.4829L17.1259 33.2875L18.9598 34.5093L19.1373 32.8405L30.9095 15.0794C30.9983 14.9304 31.1462 14.8112 31.2941 14.7218C31.5899 14.5429 31.9448 14.5429 32.2997 14.6622C35.1393 15.884 38.3042 14.7814 40.3155 11.7417C42.6227 8.22524 43.0072 2.74194 40.0198 0.715505ZM31.5011 13.5595C28.6912 11.6821 28.2179 8.28484 30.318 5.09618C32.4476 1.87773 37.0027 -0.506317 39.6352 1.28171C42.2677 3.06975 41.8536 8.19544 39.6944 11.4139C37.6239 14.5727 34.3111 15.437 31.5011 13.5595Z" fill="#F6CA13"/>
<path d="M18.9306 34.5054L17.1102 33.281L12.9061 39.626L14.7266 40.8503L18.9306 34.5054Z" fill="#F0443C"/>
<path d="M14.73 40.8568L12.8962 39.635L12.5708 39.9628L14.5821 41.3336L14.73 40.8568Z" fill="#F6CA13"/>
<path d="M26.7094 44.8202L23.3079 45.9527C23.3079 45.9527 20.5867 47.9493 19.4331 48.9625C19.4035 48.2175 19.3148 47.4725 19.0782 46.9063C18.3387 44.999 18.4274 43.2408 18.6049 41.3634C18.7824 39.4859 19.581 37.9959 19.5218 36.7741C19.4627 35.5523 19.0486 35.2245 18.2204 34.5689C17.3922 33.9132 16.564 33.347 16.3569 33.9132C16.1203 34.4795 17.2443 34.5689 17.3626 35.4927C17.4513 36.4165 16.4752 37.0721 16.3273 38.0555C16.3273 38.0555 15.4104 39.1879 15.1146 39.8138C14.8188 40.4396 14.7005 40.8568 14.7005 40.8568C14.7005 40.8568 15.3808 41.8104 15.1442 43.1216C14.9076 44.4328 12.8666 53.373 13.9019 55.2504C14.9371 57.1279 18.1021 56.5318 20.143 55.8464C22.036 55.3696 27.8038 51.585 28.6912 49.7671C29.6081 47.9195 26.7094 44.8202 26.7094 44.8202Z" fill="#FFBF8F"/>
<path d="M28.6024 50.0055L25.4375 45.2673L23.367 45.9527C23.367 45.9527 22.6571 46.4891 21.7993 47.1447C21.8289 47.1745 21.8584 47.1745 21.888 47.2043C23.8402 48.6943 24.1064 51.9426 24.1064 51.9426C24.1064 51.9426 18.4865 54.4756 17.4512 54.8034C16.3864 55.1312 16.061 53.7008 15.9131 51.9426C15.7357 50.1545 16.2977 44.8798 16.5639 43.3898C16.8597 41.8998 16.0019 41.2144 16.0019 40.1118C15.9723 39.0091 17.185 39.337 17.185 39.337C17.185 39.337 16.8892 38.7409 16.8301 37.7873C16.8301 37.5191 16.8597 37.1913 16.9484 36.8933C16.7118 37.2509 16.5047 37.6383 16.4456 38.0555C16.4456 38.0555 15.5286 39.188 15.2328 39.8138C14.9371 40.4396 14.8187 40.8568 14.8187 40.8568C14.8187 40.8568 15.499 41.8104 15.2624 43.1216C15.0258 44.4328 12.9849 53.373 14.0201 55.2504C15.0554 57.1279 18.2203 56.5318 20.2612 55.8464C21.9768 55.3696 27.3601 51.9128 28.6024 50.0055Z" fill="#E8A370"/>
<path d="M16.3864 35.0756C16.3864 35.0756 16.0314 33.3472 15.4103 33.228C14.7891 33.1088 14.375 33.8836 14.8779 34.8074C15.3807 35.7312 16.1498 36.1782 16.3568 35.9398C16.6526 35.6418 16.3864 35.0756 16.3864 35.0756Z" fill="#FFBF8F"/>
<path d="M15.5583 35.8207C15.5583 35.8207 14.671 34.3009 14.0498 34.3903C13.4287 34.4797 13.2808 35.3737 14.0498 36.0591C14.8189 36.7743 15.6767 36.9531 15.8245 36.6253C15.9724 36.2379 15.5583 35.8207 15.5583 35.8207Z" fill="#FFBF8F"/>
<path d="M14.9667 37.0126C14.9667 37.0126 13.8131 35.6716 13.2216 35.8802C12.63 36.0888 12.63 36.9828 13.5173 37.5192C14.4047 38.0854 15.2921 38.1152 15.3512 37.7874C15.44 37.3702 14.9667 37.0126 14.9667 37.0126Z" fill="#FFBF8F"/>
<path d="M14.4343 38.3534C14.4343 38.3534 13.2807 37.0124 12.6891 37.221C12.0976 37.4296 12.0976 38.3236 12.9849 38.86C13.8723 39.4262 14.7596 39.456 14.8188 39.1282C14.9075 38.711 14.4343 38.3534 14.4343 38.3534Z" fill="#FFBF8F"/>
<path d="M72.3196 14.4833C72.0534 14.3343 72.1421 15.139 72.2013 16.0628C72.2605 16.9866 72.0238 17.7912 72.0238 17.7912C72.0238 17.7912 72.0534 16.3906 71.9055 15.4966C71.728 14.5727 71.2548 13.2615 70.959 13.2913C70.6336 13.3211 70.8703 14.2151 71.0477 15.139C71.2548 16.033 70.8998 17.076 70.8998 17.076C70.8998 17.076 70.8998 15.7648 70.7224 14.8409C70.5153 13.9469 69.6575 12.3973 69.3913 12.5165C69.0955 12.6357 69.3322 13.1423 69.6575 14.0065C69.8646 14.5727 69.9533 15.5562 69.9829 16.182C69.8646 15.3178 69.4505 14.3045 69.273 13.9171C69.066 13.4403 68.4448 12.6953 68.149 12.8145C67.8532 12.9337 68.8589 15.2284 68.7406 16.182C68.6223 17.1356 67.38 19.162 67.38 19.162C66.9067 17.523 65.7532 16.3012 65.3982 16.5396C65.0433 16.778 66.1968 19.162 66.2264 19.8474C66.2264 20.2646 66.4926 21.2183 66.6997 21.9037C66.6997 21.9037 66.6997 21.9037 66.6701 21.9037C66.0785 23.0659 62.7066 27.8042 60.6952 29.622C59.0388 31.112 58.0036 32.7809 57.2641 33.8239C57.205 33.8537 57.1162 33.9133 57.0571 33.9431C56.081 34.4497 51.2005 34.9861 51.2005 34.9861C51.2005 34.9861 52.6203 40.678 54.602 40.678C55.8739 40.678 58.6247 39.3668 60.6361 38.4728C60.6361 38.4728 61.9967 37.549 63.0615 36.1781C63.1207 36.1185 63.1502 36.0887 63.2094 36.0291C63.3869 35.8205 63.5643 35.6417 63.7122 35.4629C64.9545 33.9431 68.3561 25.8373 69.4505 23.7513C69.8942 23.3043 71.1956 21.9633 71.6985 21.1885C72.4971 19.907 72.8816 18.3872 72.9999 17.1356C73.0887 15.8542 72.5858 14.6323 72.3196 14.4833Z" fill="#FFBF8F"/>
<path d="M72.9703 16.3608C72.852 16.8972 72.1717 20.1157 71.1364 21.1289C70.0125 22.2613 69.1547 22.6785 68.7406 22.6785C68.3561 22.6785 67.7053 21.9037 67.7053 21.9037C67.7053 21.9037 67.7053 22.7083 68.4152 23.3342C68.4152 23.3342 66.8771 27.3274 65.3982 29.9499C63.9193 32.5723 61.2868 35.9398 60.429 36.4166C59.6008 36.8934 55.7556 38.7112 55.7556 38.7112C55.7556 38.7112 55.3711 35.7908 54.0696 35.2544C53.3301 34.9564 52.8569 37.0424 52.6202 38.9198C53.1527 39.9032 53.8034 40.6781 54.5428 40.7079C55.8147 40.7079 58.5655 39.3966 60.5769 38.5026C60.5769 38.5026 61.9375 37.5788 63.0023 36.208C63.0615 36.1484 63.0911 36.1186 63.1502 36.059C63.3277 35.8504 63.5052 35.6716 63.6531 35.4928C64.8954 33.9729 68.2969 25.8672 69.3913 23.7812C69.835 23.3342 71.1364 21.9931 71.6393 21.2183C72.4379 19.9369 72.8224 18.4171 72.9407 17.1655C72.9999 16.8376 72.9999 16.5992 72.9703 16.3608Z" fill="#E8A370"/>
<path d="M53.0935 34.0327C53.0935 34.0327 51.3483 34.1817 49.13 34.1221C48.0947 34.0923 47.0299 34.0625 46.0242 34.1221C45.5509 34.0625 45.0777 34.0625 44.6044 34.1519C42.7114 34.4201 39.6352 35.4929 39.6352 35.4929L31.5898 37.3704C31.5898 37.3704 28.839 38.8604 27.6559 39.7246C26.4727 40.5888 24.4022 43.3901 23.0712 44.6715C21.7106 45.9529 20.6458 46.8469 20.6458 46.8469C20.6458 46.8469 23.1599 47.0257 24.5205 49.4694C25.8812 51.913 25.3192 53.9991 25.3192 53.9991C25.3192 53.9991 30.9095 50.721 31.5011 49.4694C31.5011 49.4694 32.8913 51.2872 33.6308 53.5521C34.3702 55.8169 32.0927 59.7208 32.0039 61.9856C32.0039 61.9856 41.6466 58.7076 47.8581 61.2704C53.5372 63.5948 53.271 65.9193 53.1822 66.3067C53.3005 65.8001 54.2766 61.9856 53.2118 59.4228C52.0878 56.6513 50.9934 55.9659 50.8159 51.8832C50.6385 47.7708 50.7272 44.7907 50.3723 43.1517C50.3723 43.1517 53.3597 42.4365 54.7203 42.2279C54.9274 42.2875 55.1048 42.2875 55.2823 42.1981C55.2823 42.1683 55.6372 35.9101 53.0935 34.0327Z" fill="#F6CA13"/>
<path d="M37.8606 27.1484C39.1325 24.675 38.5705 22.3804 38.5705 22.3804C38.3634 23.334 38.038 23.8108 38.038 23.8108C38.4226 20.5029 36.5887 17.6719 36.5887 17.6719C36.5887 17.6719 35.8197 18.3871 33.9562 19.4003C32.9209 19.9665 31.442 20.1751 30.0814 20.7115C30.4955 20.1155 30.9688 19.8175 30.9688 19.8175C25.6742 21.5757 26.4728 24.9134 26.8278 25.8372C26.8573 25.9266 26.8869 26.0458 26.8869 26.1352C26.4728 26.7908 26.0883 27.9829 26.6207 29.9795C27.0052 31.4099 27.9222 32.3337 29.0166 32.8701C29.0166 32.8701 31.5308 34.1814 30.7617 36.0886C30.7617 36.0886 33.0097 35.284 32.2998 33.5556C32.7435 33.5258 33.1576 33.4662 33.4534 33.3469C35.1393 32.7211 39.1325 30.0093 39.1325 30.0093V28.4597L37.8606 27.1484Z" fill="#5E4942"/>
<path d="M34.4294 23.2444C35.1985 23.2146 35.9379 23.5722 36.4112 24.198C36.7365 24.6152 37.1211 25.092 37.269 25.3602C37.5943 25.8668 37.5943 26.4033 38.1267 26.6417C38.6296 26.8801 39.0733 27.0589 39.3395 28.0125C39.6057 28.9661 40.2268 30.9925 40.0493 31.827C39.9015 32.6614 39.0733 32.1846 38.8958 33.317C38.7183 34.4494 38.9254 35.6116 39.2803 36.1182L39.6057 37.6679C39.6057 37.6679 38.4817 37.7275 38.0676 37.4891C37.6535 37.2506 37.8901 36.595 36.8844 36.6844C35.9083 36.7738 32.004 36.5056 32.004 36.5056C32.004 36.5056 32.2406 34.7176 32.004 34.0024C31.7673 33.2872 31.442 31.976 31.442 31.976C31.442 31.976 30.4659 31.8866 29.6968 31.0223C28.9574 30.1581 29.756 28.9661 30.6433 29.3535L31.2053 29.5025L31.442 29.2641C31.442 29.2641 31.2053 27.9529 30.6433 27.3867C30.0814 26.8205 30.4067 25.1516 30.7912 24.7344C31.8561 23.5424 33.3646 23.2742 34.4294 23.2444Z" fill="#FFBF8F"/>
<path d="M39.3395 36.0889C38.9549 35.5823 38.7479 34.42 38.9549 33.2876C39.1028 32.3638 39.6648 32.5128 39.9606 32.1552C39.9606 32.1552 39.369 32.6022 37.9493 32.6916C36.9732 32.7512 34.9322 32.5724 34.0153 32.3936C33.335 32.2744 32.5364 31.3506 32.5364 31.3506C32.5364 31.3506 32.7138 31.887 31.5307 31.887C31.5307 31.887 31.8561 33.1982 32.0927 33.9134C32.3293 34.6286 32.0927 36.4167 32.0927 36.4167C32.0927 36.4167 35.9675 36.6849 36.9732 36.5955C37.9493 36.5061 37.7126 37.1617 38.1563 37.4001C38.5704 37.6385 39.6944 37.5789 39.6944 37.5789L39.3395 36.0889Z" fill="#E8A370"/>
<path d="M30.0222 30.0094C30.0222 30.0094 30.8799 29.8306 31.294 30.3074C31.7377 30.7842 31.3828 30.9928 31.1461 30.9332C30.8799 30.8736 30.9095 30.5756 30.9983 30.4564C30.9983 30.4564 30.7616 30.0988 30.0222 30.0094Z" fill="#E8A370"/>
<path d="M32.1519 35.4631C32.1519 35.4631 32.2702 36.2677 33.0688 36.3273C33.8674 36.387 37.269 36.0889 37.7422 36.4764C38.1859 36.8638 38.2747 37.132 38.6592 37.3406C39.0437 37.5492 39.6649 37.6386 39.6649 37.6386C39.6649 37.6386 39.5761 37.579 39.0733 37.8174C38.5704 38.0558 38.2155 39.7842 37.8901 39.6948C37.5648 39.6352 34.0745 38.2048 33.2759 37.9664C32.4773 37.7578 31.8265 37.7876 31.6491 37.3108C31.442 36.8638 31.442 35.6717 32.1519 35.4631Z" fill="#F0443C"/>
<path d="M38.8959 34.7477C38.8959 34.7477 39.3987 34.5987 39.9311 35.1053C40.4635 35.612 41.7058 37.847 41.2622 37.7874C40.7889 37.7278 39.6649 37.6384 39.6649 37.6384C39.6649 37.6384 39.4579 36.3272 39.2804 35.9696C39.0733 35.6119 38.9255 35.1351 38.8959 34.7477Z" fill="#F0443C"/>
<path d="M34.104 61.3893C34.104 61.3893 46.0833 59.6907 51.8808 66.2766C51.8808 66.2766 54.2175 77.422 54.5428 85.945C54.5428 85.945 46.1721 82.5477 41.3508 86.6602L40.1085 82.5179L38.8662 84.7529C38.8662 84.7529 38.5408 80.0445 34.7843 78.2862C30.6433 76.3492 26.4136 78.7034 26.4136 78.7034C26.4136 78.7034 28.4841 73.2797 30.4363 69.5845C32.3885 65.8892 33.4533 62.9986 34.104 61.3893Z" fill="#434C51"/>
<path d="M37.5648 61.2107C35.4943 61.2107 34.1041 61.4193 34.1041 61.4193C33.4534 62.9987 32.4181 65.8894 30.4659 69.6145C28.5137 73.3395 26.4432 78.7334 26.4432 78.7334C26.4432 78.7334 30.3476 76.558 34.3111 78.1076C34.1337 76.707 34.1041 74.9487 34.814 73.6077C36.1746 70.9853 31.8265 73.6077 33.2759 69.4952C33.9858 67.3496 35.8788 63.9821 37.5648 61.2107Z" fill="black"/>
<path d="M52.2949 68.3924C52.0583 67.0812 51.8808 66.3064 51.8808 66.3064C46.0834 59.7205 34.1041 61.4191 34.1041 61.4191C33.8675 61.9555 33.6012 62.6707 33.2759 63.5052C36.6478 63.3264 46.113 63.386 52.2949 68.3924Z" fill="black"/>
<path d="M21.2964 107.67C20.7936 108.355 21.326 109.1 21.7401 110.054C22.1542 110.978 22.8937 112.587 23.4261 113.034C23.9585 113.481 23.8698 114.107 24.4318 115.865C24.9938 117.623 28.3953 123.434 29.4897 123.911C29.9926 124.12 30.4954 124.001 30.8503 123.613C29.6672 122.361 28.0995 119.59 27.3896 118.13C26.591 116.491 25.8516 114.345 25.5558 113.034C25.26 111.723 23.9289 110.203 23.3965 108.862C23.1303 108.206 23.0416 107.491 23.012 106.895C22.2134 107.133 21.5035 107.402 21.2964 107.67Z" fill="#E5FACF"/>
<path d="M24.5502 116.163C24.5798 116.252 24.6094 116.342 24.6685 116.431C24.6981 116.52 24.7572 116.64 24.8164 116.759C24.8164 116.789 24.846 116.818 24.846 116.848C24.9051 116.967 24.9643 117.087 25.0235 117.206C25.0826 117.325 25.1418 117.444 25.2009 117.593C25.2305 117.623 25.2305 117.653 25.2601 117.683C25.3192 117.802 25.408 117.951 25.4671 118.07C25.5559 118.219 25.615 118.338 25.7038 118.487C25.7333 118.517 25.7333 118.547 25.7629 118.577C25.9108 118.875 26.0883 119.173 26.2658 119.471C26.2953 119.5 26.2953 119.53 26.3249 119.56C26.5024 119.858 26.6799 120.156 26.8573 120.454C26.8869 120.484 26.8869 120.514 26.9165 120.514C27.094 120.812 27.2714 121.11 27.4785 121.378C27.4785 121.408 27.5081 121.408 27.5081 121.437C27.6855 121.706 27.863 121.974 28.0405 122.242C28.0405 122.272 28.07 122.272 28.07 122.302C28.1588 122.421 28.2475 122.54 28.3363 122.659C28.0996 121.527 27.9222 120.186 27.8038 118.845C27.6559 118.577 27.5376 118.338 27.4193 118.1C26.6207 116.461 25.8812 114.315 25.5854 113.004C25.2897 111.693 23.9586 110.173 23.4262 108.832C23.16 108.176 23.0713 107.461 23.0417 106.865C22.6276 107.014 22.2431 107.133 21.9177 107.282C21.829 107.312 21.7698 107.342 21.7106 107.372C21.6515 107.401 21.5923 107.431 21.5628 107.461C21.5628 107.461 21.5628 107.461 21.5332 107.461C21.474 107.491 21.4444 107.521 21.4149 107.55C21.4149 107.55 21.4149 107.55 21.3853 107.58C21.3557 107.61 21.3261 107.64 21.2965 107.67C21.0303 108.057 21.0599 108.444 21.2374 108.921C21.267 109.011 21.3261 109.13 21.3557 109.219C21.3853 109.279 21.4149 109.338 21.4149 109.368C21.5036 109.577 21.6219 109.815 21.7402 110.054C22.036 110.709 22.4501 111.663 22.8642 112.348C22.8938 112.408 22.9529 112.467 22.9825 112.527C23.1304 112.765 23.2783 112.944 23.3966 113.034C23.6037 113.212 23.6924 113.391 23.8107 113.66C23.8403 113.689 23.8403 113.749 23.8699 113.809C23.929 114.017 23.9882 114.226 24.0474 114.524C24.1361 114.881 24.2544 115.328 24.4319 115.865C24.4615 115.924 24.491 116.014 24.5206 116.103C24.5206 116.133 24.5502 116.133 24.5502 116.163Z" fill="#F6CA13"/>
<path d="M19.4627 48.9626C19.4627 48.9626 19.6106 50.2142 19.1965 51.2274C19.1965 51.2274 19.9064 49.9162 19.8768 48.605L19.4627 48.9626Z" fill="#E8A370"/>
<path d="M68.5336 19.6984C68.5336 19.6984 70.0717 19.162 70.8999 19.6984C70.9294 19.6984 69.835 18.5659 68.5336 19.6984Z" fill="#E8A370"/>
<path d="M57.0571 33.9133C57.0571 33.9133 58.2402 33.4663 59.4234 35.0457C59.4234 35.0457 59.4529 33.9133 57.5007 33.4663L57.0571 33.9133Z" fill="#E8A370"/>
<path d="M40.1381 82.5479C40.1381 82.5479 44.9298 79.7764 47.0299 75.4255C47.0299 75.4255 46.2313 79.0016 46.2313 81.5645C46.2313 84.1273 46.7341 84.6637 46.7341 84.6637C46.7341 84.6637 42.5339 85.1703 41.3804 86.6603L40.1381 82.5479Z" fill="black"/>
<path d="M30.7912 27.3871C30.7025 26.9997 30.6138 26.4037 30.6729 25.9865C30.7617 25.2713 31.5011 24.3177 33.1871 23.513C33.3646 23.4236 33.542 23.364 33.7195 23.3044C32.773 23.4236 31.649 23.7813 30.88 24.6753C30.4955 25.0925 30.1701 26.7613 30.7321 27.3275C30.7321 27.3275 30.7617 27.3573 30.7912 27.3871Z" fill="#E8A370"/>
<path d="M48.9526 38.2641C50.0766 39.6647 50.402 43.0918 50.402 43.0918C50.402 43.0918 53.3894 42.3766 54.75 42.168C54.9571 42.2276 55.1346 42.2276 55.312 42.1382C55.312 42.1382 55.4008 40.7078 55.1937 39.0091C54.0697 39.5157 51.7922 40.4098 51.2006 39.4561C50.402 38.2045 48.9526 38.2641 48.9526 38.2641Z" fill="#FFD79D"/>
<path d="M31.5012 49.4693C31.5012 49.4693 32.8914 51.2872 33.6309 53.552C34.3703 55.8168 32.0928 59.7207 32.004 61.9855C32.004 61.9855 35.169 60.9127 39.0438 60.4657C37.6536 59.6909 36.0267 58.4393 36.2338 57.0089C36.5887 54.5354 37.1507 53.6116 35.5831 51.9428C34.0154 50.2739 34.3999 48.4561 34.0745 46.6979C33.7492 44.9396 32.0336 43.1516 32.0336 43.1516C31.9153 45.5655 30.9392 47.3237 29.6082 48.6051C28.8391 49.3203 26.7095 50.0653 25.0235 50.5719C25.7038 52.509 25.3489 53.999 25.3489 53.999C25.3489 53.999 30.9096 50.7507 31.5012 49.4693Z" fill="#FFD79D"/>
<path d="M48.0595 11.8486L48.8968 9.65063L48.5378 9.51183L47.7005 11.7097L48.0595 11.8486Z" fill="#F24141"/>
<path d="M48.0398 11.868L48.2306 11.3672L47.8716 11.2283L47.6808 11.7291L48.0398 11.868Z" fill="#D33333"/>
<path d="M47.6814 11.7114C46.9715 11.3836 46.5574 10.6982 46.794 10.1022C47.0306 9.50615 47.7997 9.26775 48.5392 9.50615L47.6814 11.7114ZM50.6688 14.1848C51.0238 14.1252 50.8759 13.6484 50.8759 13.6484C50.8759 13.6484 51.29 13.9762 51.497 13.708C51.7041 13.3802 51.29 13.0822 51.29 13.0822C51.29 13.0822 51.8224 13.2014 51.9111 12.9034C52.0294 12.6054 51.5266 12.3372 51.5266 12.3372C52.059 12.5458 52.2365 12.218 52.2365 12.218C52.2365 12.218 52.3252 11.8604 51.7928 11.6518C51.7928 11.6518 52.3548 11.771 52.4435 11.473C52.5618 11.175 52.0886 10.9068 52.0886 10.9068C52.0886 10.9068 52.621 10.9664 52.6802 10.579C52.7393 10.2512 52.2069 10.1916 52.2069 10.1916C52.2069 10.1916 52.621 9.95316 52.4139 9.65516C52.2069 9.35715 51.3491 9.62535 50.8759 9.74456C50.0477 9.92336 49.5448 9.83396 48.9237 9.62535L48.5096 10.728L48.0955 11.8306C48.687 12.0988 49.1307 12.3372 49.604 13.0524C49.8406 13.4696 50.3139 14.2444 50.6688 14.1848Z" fill="#F0BAFF"/>
<path d="M47.6808 11.7114C47.0004 11.4134 46.6159 10.7876 46.7342 10.2512C46.9709 10.579 47.3258 10.9366 47.8582 11.2346L47.6808 11.7114ZM48.2427 11.3836L48.0653 11.8604C48.6568 12.1287 49.1005 12.3671 49.5738 13.0823C49.84 13.4697 50.3132 14.2445 50.6682 14.1849C51.0231 14.1253 50.8752 13.6485 50.8752 13.6485C50.8752 13.6485 51.2893 13.9763 51.4964 13.7081C50.7273 11.771 48.2427 11.3836 48.2427 11.3836Z" fill="#F0BAFF"/>
</g>
<defs>
<clipPath id="clip0">
<rect width="73" height="124" fill="white"/>
</clipPath>
</defs>
</svg>
