<svg width="187" height="219" viewBox="0 0 187 219" fill="none" xmlns="http://www.w3.org/2000/svg">
<path d="M94.0791 1.14062V171.034H130.085V182.051" stroke="#4E5053" stroke-linecap="round"/>
<path d="M169.97 13.9626C172.708 16.1325 174.981 18.8262 176.656 21.8848C178.331 24.9434 179.375 28.305 179.724 31.7714C179.776 32.2875 180.022 32.765 180.413 33.1075C180.804 33.4501 181.311 33.6322 181.831 33.6172L184.995 33.5249C185.277 33.5169 185.555 33.4513 185.811 33.332C186.067 33.2127 186.296 33.0424 186.483 32.8316C186.67 32.6208 186.812 32.3739 186.899 32.1064C186.986 31.8388 187.018 31.5562 186.991 31.2761C186.179 22.7272 182.093 14.8175 175.581 9.18727C169.07 3.55701 160.632 0.638132 152.017 1.03591C151.735 1.04892 151.458 1.11943 151.204 1.24308C150.95 1.36674 150.724 1.54091 150.541 1.75484C150.357 1.96876 150.22 2.2179 150.137 2.48686C150.054 2.75581 150.027 3.03887 150.058 3.31854L150.41 6.45023C150.467 6.96379 150.716 7.43699 151.109 7.77481C151.502 8.11263 152.008 8.29004 152.527 8.27142C158.84 8.01156 165.035 10.0328 169.97 13.9626Z" fill="url(#paint0_radial)"/>
<path d="M167.446 17.1128C162.6 13.2504 156.535 11.2269 150.33 11.4032C150.045 11.412 149.765 11.4795 149.508 11.6014C149.251 11.7233 149.022 11.897 148.836 12.1115C148.649 12.326 148.51 12.5767 148.425 12.8476C148.341 13.1186 148.314 13.404 148.346 13.6858L148.609 16.0207C148.666 16.528 148.911 16.9959 149.296 17.3328C149.681 17.6696 150.179 17.8512 150.691 17.8419C155.584 17.7561 160.335 19.4751 164.03 22.6681C167.726 25.8611 170.105 30.3023 170.709 35.137C170.769 35.6458 171.019 36.1138 171.408 36.449C171.797 36.7842 172.298 36.9625 172.813 36.949L175.17 36.8813C175.454 36.874 175.734 36.8081 175.991 36.6878C176.249 36.5675 176.478 36.3955 176.665 36.1824C176.853 35.9694 176.994 35.7201 177.079 35.4501C177.165 35.1802 177.193 34.8955 177.163 34.614C176.779 31.204 175.723 27.9029 174.055 24.8998C172.388 21.8967 170.142 19.2506 167.446 17.1128Z" fill="url(#paint1_radial)"/>
<path d="M157.602 29.3939C160.449 31.6527 162.34 34.8938 162.901 38.4752C162.973 38.9759 163.227 39.433 163.615 39.76C164.003 40.087 164.497 40.2614 165.005 40.2502L166.145 40.2164C166.437 40.2075 166.724 40.137 166.987 40.0096C167.25 39.8821 167.482 39.7006 167.67 39.477C167.857 39.2535 167.994 38.9929 168.073 38.7126C168.151 38.4322 168.169 38.1385 168.125 37.8507C167.435 33.1722 165.08 28.8962 161.489 25.801C157.899 22.7058 153.311 20.9972 148.562 20.9863C148.274 20.9895 147.991 21.053 147.729 21.1726C147.467 21.2922 147.234 21.4653 147.044 21.6805C146.854 21.8958 146.712 22.1485 146.626 22.4222C146.541 22.6958 146.514 22.9844 146.548 23.269L146.675 24.401C146.735 24.9033 146.978 25.3661 147.358 25.7022C147.737 26.0383 148.227 26.2244 148.735 26.2253C151.963 26.2695 155.083 27.3846 157.602 29.3939Z" fill="url(#paint2_radial)"/>
<path d="M17.0298 13.9626C14.2924 16.1325 12.0191 18.8262 10.344 21.8848C8.66877 24.9434 7.62561 28.305 7.27598 31.7714C7.22458 32.2875 6.97854 32.765 6.5875 33.1075C6.19645 33.4501 5.6895 33.6322 5.16888 33.6172L2.00514 33.5249C1.72269 33.5169 1.4449 33.4513 1.18898 33.332C0.933059 33.2127 0.704465 33.0424 0.51735 32.8316C0.330236 32.6208 0.188592 32.3739 0.101198 32.1064C0.0138035 31.8388 -0.0174856 31.5562 0.00927788 31.2761C0.821552 22.7272 4.90711 14.8175 11.4187 9.18727C17.9304 3.55701 26.3685 0.638132 34.9833 1.03591C35.2656 1.04892 35.5423 1.11943 35.7961 1.24308C36.0499 1.36674 36.2756 1.54091 36.4592 1.75484C36.6428 1.96876 36.7804 2.2179 36.8634 2.48686C36.9465 2.75581 36.9733 3.03887 36.9421 3.31854L36.5899 6.44408C36.5333 6.95763 36.2836 7.43084 35.8911 7.76865C35.4985 8.10647 34.9921 8.28388 34.4736 8.26526C28.1591 8.00714 21.9638 10.0306 17.0298 13.9626Z" fill="url(#paint3_radial)"/>
<path d="M19.554 17.1128C24.3997 13.2504 30.4656 11.2269 36.6703 11.4032C36.955 11.412 37.2348 11.4795 37.492 11.6014C37.7492 11.7233 37.9782 11.897 38.1646 12.1115C38.351 12.326 38.4907 12.5767 38.5749 12.8476C38.6591 13.1186 38.6859 13.404 38.6538 13.6858L38.3912 16.0207C38.3343 16.528 38.0893 16.9959 37.7041 17.3328C37.3189 17.6696 36.8213 17.8512 36.3088 17.8419C31.4166 17.7561 26.6654 19.4751 22.9698 22.6681C19.2743 25.8611 16.8955 30.3023 16.2914 35.137C16.2307 35.6458 15.9813 36.1138 15.592 36.449C15.2028 36.7842 14.7018 36.9625 14.1874 36.949L11.83 36.8813C11.5458 36.874 11.2662 36.8081 11.0088 36.6878C10.7515 36.5675 10.5219 36.3955 10.3347 36.1824C10.1474 35.9694 10.0066 35.7201 9.92096 35.4501C9.83534 35.1802 9.80684 34.8955 9.83724 34.614C10.2216 31.204 11.2777 27.9029 12.945 24.8998C14.6123 21.8967 16.8582 19.2506 19.554 17.1128Z" fill="url(#paint4_radial)"/>
<path d="M29.3978 29.3939C26.5508 31.6527 24.6597 34.8938 24.0992 38.4752C24.0268 38.9759 23.7728 39.433 23.3852 39.76C22.9976 40.087 22.5031 40.2614 21.9952 40.2502L20.8551 40.2164C20.5629 40.2075 20.276 40.137 20.0132 40.0096C19.7504 39.8821 19.5177 39.7006 19.3306 39.477C19.1434 39.2535 19.006 38.9929 18.9274 38.7126C18.8488 38.4322 18.8309 38.1385 18.8747 37.8507C19.5654 33.1722 21.9203 28.8962 25.5109 25.801C29.1014 22.7058 33.6887 20.9972 38.4379 20.9863C38.7257 20.9895 39.0096 21.053 39.2712 21.1726C39.5328 21.2922 39.7661 21.4653 39.9561 21.6805C40.1461 21.8958 40.2885 22.1485 40.374 22.4222C40.4594 22.6958 40.4861 22.9844 40.4523 23.269L40.3256 24.401C40.2653 24.9033 40.0223 25.3661 39.6426 25.7022C39.263 26.0383 38.7729 26.2244 38.2649 26.2253C35.0374 26.2695 31.917 27.3846 29.3978 29.3939Z" fill="url(#paint5_radial)"/>
<path d="M138.244 34.7695H51.0758C43.3942 34.7695 37.167 40.9707 37.167 48.6202V116.013C37.167 123.662 43.3942 129.863 51.0758 129.863H138.244C145.925 129.863 152.153 123.662 152.153 116.013V48.6202C152.153 40.9707 145.925 34.7695 138.244 34.7695Z" fill="#CCCCCC"/>
<path d="M134.422 39.4082H54.8983C47.6715 39.4082 41.813 45.1738 41.813 52.286V112.347C41.813 119.459 47.6715 125.225 54.8983 125.225H134.422C141.648 125.225 147.507 119.459 147.507 112.347V52.286C147.507 45.1738 141.648 39.4082 134.422 39.4082Z" fill="white"/>
<path d="M99.2061 74.25C99.5951 74.2508 99.9679 74.4051 100.243 74.6789C100.518 74.9528 100.673 75.324 100.674 75.7113V88.2719C100.673 88.6592 100.518 89.0304 100.243 89.3043C99.9679 89.5781 99.5951 89.7323 99.2061 89.7331H87.7932C87.4043 89.7323 87.0314 89.5781 86.7564 89.3043C86.4814 89.0304 86.3265 88.6592 86.3257 88.2719V75.7113C86.3265 75.324 86.4814 74.9528 86.7564 74.6789C87.0314 74.4051 87.4043 74.2508 87.7932 74.25H99.2092H99.2061ZM99.2092 73.6348H87.7932C87.2401 73.6348 86.7097 73.8535 86.3186 74.243C85.9275 74.6324 85.7078 75.1606 85.7078 75.7113V88.2719C85.7078 88.8226 85.9275 89.3508 86.3186 89.7402C86.7097 90.1296 87.2401 90.3484 87.7932 90.3484H99.2092C99.7623 90.3484 100.293 90.1296 100.684 89.7402C101.075 89.3508 101.295 88.8226 101.295 88.2719V75.7113C101.295 75.1606 101.075 74.6324 100.684 74.243C100.293 73.8535 99.7623 73.6348 99.2092 73.6348Z" fill="#4E5053"/>
<path d="M93.5 78.2695V81.795" stroke="#DA5BC1" stroke-miterlimit="10" stroke-linecap="round"/>
<path d="M94.9827 79.8148C95.6044 80.1451 96.0969 80.6734 96.3813 81.3154C96.6657 81.9573 96.7256 82.6757 96.5514 83.3556C96.3772 84.0355 95.9789 84.6375 95.4204 85.0653C94.8619 85.4931 94.1754 85.722 93.4707 85.7152C92.7661 85.7085 92.0841 85.4667 91.5339 85.0283C90.9837 84.59 90.5971 83.9805 90.436 83.2974C90.2748 82.6144 90.3485 81.8972 90.6452 81.2608C90.9418 80.6244 91.4444 80.1055 92.0723 79.7871" stroke="#DA5BC1" stroke-miterlimit="10" stroke-linecap="round"/>
<path d="M130.085 194.807V202.924" stroke="#4E5053" stroke-linecap="round"/>
<rect x="122.455" y="203.424" width="15.2606" height="9.43713" stroke="#4E5053"/>
<path d="M126.6 213.361V218" stroke="#4E5053" stroke-linecap="round"/>
<path d="M133.569 213.361V218" stroke="#4E5053" stroke-linecap="round"/>
<path d="M135.892 192.486L145.184 197.125" stroke="#4E5053" stroke-linecap="round"/>
<path d="M134.731 185.529L142.56 180.891V184.95L149.83 180.891" stroke="#4E5053" stroke-linecap="round"/>
<path d="M123.545 188.653L118.658 191.534L115.938 187.733L110.192 192.966" stroke="#4E5053" stroke-linecap="round"/>
<defs>
<radialGradient id="paint0_radial" cx="0" cy="0" r="1" gradientUnits="userSpaceOnUse" gradientTransform="translate(126.833 -60.9743) scale(142.988 126.209)">
<stop stop-color="#FB72AD"/>
<stop offset="1" stop-color="#B643D5"/>
</radialGradient>
<radialGradient id="paint1_radial" cx="0" cy="0" r="1" gradientUnits="userSpaceOnUse" gradientTransform="translate(130.217 -37.1659) scale(111.596 98.8876)">
<stop stop-color="#FB72AD"/>
<stop offset="1" stop-color="#B643D5"/>
</radialGradient>
<radialGradient id="paint2_radial" cx="0" cy="0" r="1" gradientUnits="userSpaceOnUse" gradientTransform="translate(132.957 -15.6161) scale(83.6352 74.5395)">
<stop stop-color="#FB72AD"/>
<stop offset="1" stop-color="#B643D5"/>
</radialGradient>
<radialGradient id="paint3_radial" cx="0" cy="0" r="1" gradientUnits="userSpaceOnUse" gradientTransform="translate(-23.2122 -60.9743) scale(142.988 126.209)">
<stop stop-color="#FB72AD"/>
<stop offset="1" stop-color="#B643D5"/>
</radialGradient>
<radialGradient id="paint4_radial" cx="0" cy="0" r="1" gradientUnits="userSpaceOnUse" gradientTransform="translate(-8.29063 -37.1659) scale(111.596 98.8876)">
<stop stop-color="#FB72AD"/>
<stop offset="1" stop-color="#B643D5"/>
</radialGradient>
<radialGradient id="paint5_radial" cx="0" cy="0" r="1" gradientUnits="userSpaceOnUse" gradientTransform="translate(5.27427 -15.6161) scale(83.6354 74.5395)">
<stop stop-color="#FB72AD"/>
<stop offset="1" stop-color="#B643D5"/>
</radialGradient>
</defs>
</svg>
