<svg width="226" height="186" viewBox="0 0 226 186" fill="none" xmlns="http://www.w3.org/2000/svg">
<path opacity="0.1" fill-rule="evenodd" clip-rule="evenodd" d="M131.308 24.9391C116.82 24.4351 103.021 19.7591 89.844 14.6411C76.667 9.52412 63.616 3.85312 49.475 1.14212C40.379 -0.601877 29.976 -0.847877 22.6492 4.02812C15.5953 8.72912 13.3163 16.8221 12.0918 24.3391C11.1695 29.9941 10.6277 35.9471 13.1529 41.2391C14.908 44.9151 18.0197 48.0041 20.1733 51.5251C27.666 63.7751 22.3694 78.8821 14.2521 90.8431C10.4464 96.4551 6.02509 101.813 3.08579 107.781C0.14639 113.749 -1.21241 120.597 1.35979 126.691C3.90729 132.735 9.98079 137.266 16.5601 140.456C29.923 146.937 45.662 148.791 61.022 149.841C95.011 152.167 129.179 151.159 163.258 150.152C175.87 149.778 188.537 149.4 200.943 147.45C207.834 146.366 214.946 144.649 219.949 140.499C226.298 135.231 227.872 126.312 223.616 119.706C216.479 108.627 196.752 105.876 191.758 93.9861C189.013 87.4401 191.832 80.1511 195.823 74.0801C204.384 61.0601 218.731 49.6361 219.486 34.7531C220.005 24.5321 213.108 14.2941 202.443 9.45712C191.265 4.38812 175.763 5.02412 167.52 13.4171C159.025 22.0581 144.102 25.3821 131.308 24.9391Z" fill="#FA7268"/>
<path opacity="0.1" fill-rule="evenodd" clip-rule="evenodd" d="M121.237 182.044C158.819 182.044 189.285 177.922 189.285 172.838C189.285 167.754 158.819 163.633 121.237 163.633C83.655 163.633 53.189 167.754 53.189 172.838C53.189 177.922 83.655 182.044 121.237 182.044Z" fill="#B643D5"/>
<path fill-rule="evenodd" clip-rule="evenodd" d="M158.372 62.882H157.414C157.13 62.882 156.901 63.111 156.901 63.394V78.716C156.901 78.999 157.13 79.229 157.414 79.229H158.372C158.655 79.229 158.884 78.999 158.884 78.716V63.394C158.884 63.111 158.655 62.882 158.372 62.882Z" fill="#3A3768"/>
<path fill-rule="evenodd" clip-rule="evenodd" d="M91.589 50.074H91.501C91.218 50.074 90.989 50.304 90.989 50.587V54.943C90.989 55.226 91.218 55.456 91.501 55.456H91.589C91.872 55.456 92.101 55.226 92.101 54.943V50.587C92.101 50.304 91.872 50.074 91.589 50.074Z" fill="#3A3768"/>
<path fill-rule="evenodd" clip-rule="evenodd" d="M91.688 59.929H91.46C91.177 59.929 90.947 60.158 90.947 60.441V68.783C90.947 69.066 91.177 69.295 91.46 69.295H91.688C91.971 69.295 92.201 69.066 92.201 68.783V60.441C92.201 60.158 91.971 59.929 91.688 59.929Z" fill="#3A3768"/>
<path fill-rule="evenodd" clip-rule="evenodd" d="M91.649 72.572H91.481C91.198 72.572 90.969 72.802 90.969 73.085V81.507C90.969 81.79 91.198 82.019 91.481 82.019H91.649C91.932 82.019 92.162 81.79 92.162 81.507V73.085C92.162 72.802 91.932 72.572 91.649 72.572Z" fill="#3A3768"/>
<path fill-rule="evenodd" clip-rule="evenodd" d="M149.243 32.29H100.347C95.527 32.29 91.619 36.198 91.619 41.019V158.416C91.619 163.237 95.527 167.145 100.347 167.145H149.243C154.064 167.145 157.972 163.237 157.972 158.416V41.019C157.972 36.198 154.064 32.29 149.243 32.29Z" fill="#3A3768"/>
<path fill-rule="evenodd" clip-rule="evenodd" d="M148.611 35.794H141V36.71C141 37.279 140.888 37.844 140.669 38.37C140.451 38.897 140.132 39.375 139.728 39.778C139.325 40.181 138.847 40.501 138.32 40.718C137.794 40.936 137.229 41.048 136.659 41.048H112.453C111.883 41.048 111.319 40.936 110.792 40.718C110.265 40.501 109.787 40.181 109.384 39.778C108.981 39.375 108.661 38.897 108.443 38.37C108.224 37.844 108.112 37.279 108.112 36.71V35.794H100.987C99.589 35.794 98.249 36.349 97.26 37.337C96.272 38.326 95.717 39.666 95.717 41.064V158.363C95.717 159.761 96.272 161.101 97.26 162.089C98.249 163.077 99.589 163.633 100.987 163.633H148.611C150.009 163.633 151.349 163.077 152.338 162.089C153.326 161.101 153.881 159.761 153.881 158.363V41.073C153.882 40.38 153.747 39.694 153.482 39.053C153.218 38.413 152.83 37.831 152.341 37.341C151.851 36.85 151.27 36.461 150.63 36.196C149.99 35.931 149.304 35.794 148.611 35.794Z" fill="white"/>
<path fill-rule="evenodd" clip-rule="evenodd" d="M126.794 36.317H119.261C118.782 36.317 118.395 36.705 118.395 37.184V37.331C118.395 37.81 118.782 38.198 119.261 38.198H126.794C127.272 38.198 127.66 37.81 127.66 37.331V37.184C127.66 36.705 127.272 36.317 126.794 36.317Z" fill="#E6E8EC"/>
<path fill-rule="evenodd" clip-rule="evenodd" d="M130.129 38.326C130.719 38.326 131.197 37.848 131.197 37.258C131.197 36.669 130.719 36.19 130.129 36.19C129.539 36.19 129.061 36.669 129.061 37.258C129.061 37.848 129.539 38.326 130.129 38.326Z" fill="#E6E8EC"/>
<path fill-rule="evenodd" clip-rule="evenodd" d="M180.944 26.376C180.944 26.376 162.094 25.239 164.315 38.447C164.315 38.447 163.867 40.782 165.99 41.841C165.99 41.841 166.023 40.862 167.924 41.196C168.601 41.308 169.288 41.341 169.972 41.295C170.895 41.234 171.774 40.875 172.475 40.271C172.475 40.271 177.774 38.082 179.833 29.423C179.833 29.423 181.358 27.533 181.297 27.048L178.116 28.407C178.116 28.407 179.204 30.701 178.34 32.609C178.34 32.609 178.237 28.489 177.626 28.579C177.503 28.597 175.974 29.374 175.974 29.374C175.974 29.374 177.843 33.37 176.433 36.275C176.433 36.275 176.968 31.35 175.39 29.662L173.151 30.97C173.151 30.97 175.336 35.098 173.854 38.467C173.854 38.467 174.235 33.3 172.679 31.288L170.651 32.87C170.651 32.87 172.703 36.938 171.452 39.732C171.452 39.732 171.289 33.719 170.212 33.264C170.212 33.264 168.436 34.832 168.166 35.472C168.166 35.472 169.571 38.427 168.698 39.985C168.698 39.985 168.163 35.978 167.725 35.955C167.725 35.955 165.956 38.61 165.773 40.433C165.773 40.433 165.849 37.726 167.297 35.705C167.297 35.705 165.587 35.998 164.588 37.106C164.588 37.106 164.864 35.23 167.734 35.064C167.734 35.064 169.195 33.05 169.585 32.929C169.585 32.929 166.733 32.689 165.002 33.457C165.002 33.457 166.525 31.686 170.109 32.492L172.112 30.856C172.112 30.856 168.356 30.343 166.762 30.909C166.762 30.909 168.595 29.342 172.652 30.484L174.832 29.181C174.832 29.181 171.629 28.492 169.721 28.733C169.721 28.733 171.736 27.648 175.473 28.825L177.04 28.125C177.04 28.125 174.693 27.663 174.006 27.589C173.319 27.516 173.283 27.328 173.283 27.328C174.769 27.08 176.295 27.249 177.691 27.818C177.691 27.818 181 26.584 180.944 26.376Z" fill="#FA7268"/>
<path fill-rule="evenodd" clip-rule="evenodd" d="M161.609 20.501C161.609 20.501 153.102 19.989 154.096 25.957C154.096 25.957 153.897 27.011 154.853 27.49C154.853 27.49 154.868 27.043 155.728 27.197C156.033 27.248 156.344 27.264 156.652 27.242C157.07 27.214 157.467 27.051 157.783 26.776C157.783 26.776 160.178 25.787 161.11 21.874C161.11 21.874 161.797 21.021 161.77 20.801L160.333 21.415C160.333 21.415 160.823 22.451 160.438 23.313C160.438 23.313 160.391 21.453 160.116 21.495C160.06 21.495 159.368 21.856 159.368 21.856C159.368 21.856 160.214 23.662 159.576 24.974C159.576 24.974 159.818 22.749 159.104 21.985L158.092 22.585C158.092 22.585 159.079 24.45 158.41 25.973C158.41 25.973 158.582 23.638 157.879 22.729L156.964 23.445C156.964 23.445 157.89 25.283 157.326 26.546C157.326 26.546 157.25 23.828 156.764 23.622C156.764 23.622 155.963 24.329 155.84 24.62C155.84 24.62 156.476 25.964 156.082 26.66C156.082 26.66 155.84 24.849 155.634 24.84C155.634 24.84 154.835 26.04 154.752 26.855C154.792 26.095 155.03 25.359 155.441 24.719C154.98 24.806 154.555 25.026 154.217 25.352C154.217 25.352 154.342 24.504 155.638 24.43C155.638 24.43 156.31 23.519 156.476 23.463C156.476 23.463 155.186 23.356 154.405 23.703C154.405 23.703 155.092 22.903 156.711 23.266L157.606 22.527C157.606 22.527 155.907 22.303 155.188 22.552C155.188 22.552 156.017 21.844 157.85 22.359L158.835 21.771C158.835 21.771 157.387 21.459 156.525 21.571C156.525 21.571 157.436 21.081 159.124 21.612L159.829 21.296C159.829 21.296 158.768 21.088 158.457 21.054C158.146 21.021 158.13 20.936 158.13 20.936C158.802 20.824 159.492 20.901 160.122 21.159C160.122 21.159 161.636 20.595 161.609 20.501Z" fill="#FA7268"/>
<path fill-rule="evenodd" clip-rule="evenodd" d="M70.943 142.095C70.943 142.095 79.45 141.582 78.456 147.551C78.456 147.551 78.655 148.605 77.699 149.084C77.699 149.084 77.684 148.636 76.824 148.791C76.519 148.842 76.208 148.857 75.899 148.836C75.482 148.808 75.085 148.644 74.769 148.37C74.769 148.37 72.373 147.38 71.442 143.467C71.442 143.467 70.755 142.614 70.782 142.395L72.219 143.008C72.219 143.008 71.729 144.045 72.114 144.907C72.114 144.907 72.161 143.046 72.436 143.089C72.492 143.089 73.184 143.449 73.184 143.449C73.184 143.449 72.338 145.256 72.976 146.568C72.976 146.568 72.734 144.343 73.448 143.579L74.46 144.179C74.46 144.179 73.473 146.044 74.142 147.566C74.142 147.566 73.97 145.231 74.673 144.322L75.588 145.039C75.588 145.039 74.661 146.877 75.225 148.139C75.225 148.139 75.302 145.422 75.787 145.216C75.787 145.216 76.589 145.923 76.712 146.214C76.712 146.214 76.076 147.557 76.47 148.254C76.47 148.254 76.712 146.442 76.918 146.434C76.918 146.434 77.717 147.633 77.8 148.448C77.76 147.689 77.522 146.952 77.11 146.313C77.572 146.4 77.997 146.62 78.335 146.946C78.335 146.946 78.21 146.098 76.913 146.024C76.913 146.024 76.242 145.113 76.076 145.057C76.076 145.057 77.366 144.949 78.147 145.296C78.147 145.296 77.46 144.497 75.841 144.86L74.946 144.121C74.946 144.121 76.645 143.897 77.363 144.146C77.363 144.146 76.535 143.438 74.702 143.953L73.717 143.364C73.717 143.364 75.165 143.053 76.027 143.165C76.027 143.165 75.116 142.675 73.428 143.205L72.723 142.89C72.723 142.89 73.784 142.682 74.095 142.648C74.406 142.614 74.422 142.529 74.422 142.529C73.75 142.418 73.06 142.495 72.429 142.753C72.429 142.753 70.916 142.189 70.943 142.095Z" fill="#FA7268"/>
<path fill-rule="evenodd" clip-rule="evenodd" d="M63.97 106.993C63.97 106.993 51.936 106.296 53.342 114.403C53.342 114.403 53.06 115.835 54.413 116.486C54.413 116.486 54.435 115.877 55.651 116.087C56.083 116.157 56.522 116.177 56.959 116.148C57.549 116.111 58.111 115.888 58.558 115.516C58.558 115.516 61.946 114.172 63.264 108.856C63.264 108.856 64.236 107.698 64.198 107.4L62.165 108.233C62.165 108.233 62.858 109.641 62.314 110.812C62.314 110.812 62.247 108.285 61.858 108.343C61.778 108.343 60.8 108.832 60.8 108.832C60.8 108.832 61.997 111.286 61.094 113.068C61.094 113.068 61.436 110.045 60.426 109.008L58.995 109.823C58.995 109.823 60.391 112.356 59.445 114.424C59.445 114.424 59.688 111.253 58.694 110.018L57.399 110.991C57.399 110.991 58.71 113.487 57.912 115.202C57.912 115.202 57.804 111.511 57.117 111.231C57.117 111.231 55.983 112.192 55.809 112.587C55.809 112.587 56.709 114.412 56.151 115.357C56.151 115.357 55.809 112.898 55.518 112.885C55.518 112.885 54.387 114.515 54.27 115.622C54.327 114.59 54.663 113.59 55.245 112.721C54.593 112.84 53.991 113.139 53.513 113.582C53.513 113.582 53.691 112.429 55.524 112.329C55.524 112.329 56.474 111.091 56.709 111.015C56.709 111.015 54.884 110.869 53.779 111.341C53.779 111.341 54.751 110.255 57.041 110.748L58.308 109.744C58.308 109.744 55.904 109.44 54.888 109.778C54.888 109.778 56.059 108.817 58.653 109.516L60.046 108.717C60.046 108.717 57.997 108.294 56.778 108.446C56.778 108.446 58.067 107.78 60.455 108.501L61.452 108.072C61.452 108.072 59.951 107.789 59.511 107.744C59.071 107.698 59.049 107.582 59.049 107.582C59.999 107.431 60.975 107.536 61.867 107.886C61.867 107.886 64.008 107.12 63.97 106.993Z" fill="#FA7268"/>
<path opacity="0.1" fill-rule="evenodd" clip-rule="evenodd" d="M33.3934 180.503C36.7229 180.503 39.422 180.047 39.422 179.484C39.422 178.922 36.7229 178.466 33.3934 178.466C30.0639 178.466 27.3647 178.922 27.3647 179.484C27.3647 180.047 30.0639 180.503 33.3934 180.503Z" fill="#6C63FF"/>
<path opacity="0.1" fill-rule="evenodd" clip-rule="evenodd" d="M56.712 185.968C60.042 185.968 62.741 185.512 62.741 184.949C62.741 184.387 60.042 183.931 56.712 183.931C53.383 183.931 50.684 184.387 50.684 184.949C50.684 185.512 53.383 185.968 56.712 185.968Z" fill="#6C63FF"/>
<path fill-rule="evenodd" clip-rule="evenodd" d="M193.261 183.563C198.232 183.563 202.262 182.882 202.262 182.041C202.262 181.2 198.232 180.519 193.261 180.519C188.289 180.519 184.259 181.2 184.259 182.041C184.259 182.882 188.289 183.563 193.261 183.563Z" fill="#FA7268"/>
<path fill-rule="evenodd" clip-rule="evenodd" d="M196.983 179.551C197.394 179.216 197.693 178.764 197.841 178.255C197.953 177.742 197.733 177.136 197.241 176.937C196.69 176.726 196.101 177.109 195.656 177.494C195.21 177.879 194.698 178.32 194.113 178.237C194.414 177.965 194.639 177.62 194.767 177.235C194.894 176.85 194.92 176.439 194.841 176.041C194.815 175.876 194.744 175.721 194.637 175.593C194.333 175.266 193.778 175.405 193.413 175.665C192.249 176.482 191.924 178.065 191.917 179.486C191.799 178.974 191.899 178.439 191.895 177.919C191.891 177.4 191.749 176.8 191.304 176.525C191.029 176.377 190.72 176.305 190.409 176.314C189.885 176.294 189.303 176.348 188.944 176.731C188.497 177.205 188.618 178.002 189.003 178.521C189.388 179.041 189.976 179.374 190.518 179.735C190.952 179.993 191.321 180.346 191.6 180.767C191.633 180.826 191.66 180.888 191.68 180.953H194.951C195.688 180.579 196.372 180.108 196.983 179.551Z" fill="#FA7268"/>
<path fill-rule="evenodd" clip-rule="evenodd" d="M76.126 172.187C81.097 172.187 85.127 171.506 85.127 170.665C85.127 169.824 81.097 169.143 76.126 169.143C71.154 169.143 67.124 169.824 67.124 170.665C67.124 171.506 71.154 172.187 76.126 172.187Z" fill="#FA7268"/>
<path fill-rule="evenodd" clip-rule="evenodd" d="M79.848 168.175C80.258 167.84 80.557 167.388 80.706 166.879C80.817 166.366 80.598 165.76 80.106 165.561C79.555 165.35 78.966 165.733 78.521 166.118C78.075 166.503 77.563 166.944 76.978 166.861C77.279 166.589 77.504 166.244 77.632 165.859C77.759 165.474 77.785 165.063 77.706 164.665C77.68 164.5 77.609 164.345 77.502 164.217C77.198 163.89 76.642 164.029 76.278 164.289C75.113 165.106 74.789 166.689 74.782 168.11C74.663 167.598 74.764 167.063 74.76 166.543C74.755 166.024 74.614 165.424 74.169 165.149C73.894 165.001 73.585 164.929 73.273 164.938C72.749 164.918 72.167 164.972 71.809 165.355C71.361 165.829 71.482 166.626 71.867 167.146C72.252 167.665 72.841 167.998 73.383 168.359C73.816 168.617 74.186 168.97 74.464 169.391C74.498 169.45 74.525 169.512 74.545 169.577H77.815C78.553 169.203 79.237 168.732 79.848 168.175Z" fill="#FA7268"/>
<path fill-rule="evenodd" clip-rule="evenodd" d="M59.311 161.967C59.311 162.533 59.248 162.992 59.17 162.992C59.091 162.992 59.029 162.533 59.029 161.967C59.029 161.401 59.107 161.667 59.186 161.667C59.264 161.667 59.311 161.401 59.311 161.967Z" fill="#FFD037"/>
<path fill-rule="evenodd" clip-rule="evenodd" d="M60.095 162.953C59.598 163.224 59.164 163.387 59.128 163.318C59.093 163.248 59.462 162.973 59.959 162.702C60.456 162.431 60.261 162.628 60.297 162.702C60.333 162.776 60.592 162.682 60.095 162.953Z" fill="#FFD037"/>
<path fill-rule="evenodd" clip-rule="evenodd" d="M76.182 97.554C76.214 97.584 76.255 97.604 76.299 97.61C76.343 97.615 76.388 97.607 76.426 97.585C76.344 97.586 76.262 97.576 76.182 97.554Z" fill="url(#paint0_linear)"/>
<path fill-rule="evenodd" clip-rule="evenodd" d="M103.008 53.005C102.536 52.866 101.864 52.64 101.052 52.356C101.895 51.254 102.511 49.996 102.865 48.655L102.796 48.682C102.807 48.6405 102.819 48.5997 102.831 48.559C102.842 48.5182 102.854 48.4775 102.865 48.436C101.311 49.076 99.59 47.988 98.495 46.598C98.0193 45.9941 97.6096 45.3258 97.2001 44.6578L97.2001 44.6577C96.6671 43.7884 96.1345 42.9195 95.457 42.194C94.957 41.686 94.419 41.217 93.848 40.791C93.494 40.513 93.111 40.224 92.679 40.211C92.2678 40.1992 91.9083 40.4342 91.5445 40.6721C91.2908 40.8379 91.035 41.0051 90.758 41.091C90.314 41.192 89.851 41.175 89.415 41.041C88.7496 40.886 88.0933 40.6813 87.4376 40.4767L87.4376 40.4767C86.3796 40.1467 85.3233 39.8171 84.233 39.698C83.283 39.579 82.319 39.689 81.421 40.018C80.8438 40.2405 80.4712 40.6036 80.0871 40.978C79.8756 41.1841 79.6606 41.3936 79.406 41.585C78.7793 42.0585 77.6523 42.1416 76.7591 42.2075C76.5449 42.2232 76.3442 42.238 76.167 42.257C75.057 42.385 73.939 42.432 72.822 42.398C72.18 42.34 71.533 42.364 70.897 42.47C69.567 42.765 68.5 43.835 67.503 44.865C67.23 45.1 67.034 45.412 66.942 45.761C66.929 45.859 66.929 45.958 66.942 46.056C66.931 46.324 66.977 46.591 67.076 46.84C67.377 47.765 67.806 48.644 68.352 49.45C68.4393 49.5766 68.5295 49.7016 68.6198 49.8268L68.6199 49.8268L68.6199 49.8268C68.951 50.2855 69.2833 50.7456 69.471 51.294C69.581 51.638 69.639 51.997 69.644 52.358C69.631 52.741 69.591 53.124 69.525 53.502C69.349 54.544 69.06 55.564 68.663 56.544C68.6366 56.6095 68.6097 56.6749 68.5828 56.7404C68.396 57.195 68.208 57.6525 68.159 58.149C68.153 58.263 68.153 58.376 68.159 58.49C68.122 59.4583 68.6398 60.2779 69.1665 61.1118C69.5929 61.7867 70.0251 62.4709 70.174 63.251C70.201 63.395 70.217 63.541 70.223 63.688C70.185 64.776 69.574 65.839 68.674 66.26C68.7314 66.2825 68.7892 66.3029 68.8476 66.3235L68.914 66.347C68.836 66.396 68.756 66.441 68.674 66.482C68.838 66.544 69.006 66.598 69.176 66.647C68.146 67.549 67.282 68.623 66.621 69.822C63.608 75.537 43.071 86.748 43.071 86.748C43.071 86.748 43.187 86.813 43.375 86.925C43.3094 86.9656 43.2407 87.0115 43.1652 87.0619L43.1648 87.0621L43.129 87.086C41.352 88.286 37.1789 91.787 40.951 96.202C40.951 96.202 43.895 91.49 45.957 89.486C46.051 89.397 46.14 89.314 46.227 89.235C46.274 89.306 46.304 89.385 46.318 89.469C46.332 89.552 46.329 89.637 46.308 89.719L59.814 82.025C59.814 82.025 64.613 78.617 65.952 77.847C65.9935 77.8233 66.0406 77.7958 66.0932 77.7651L66.0932 77.7651C66.626 77.4544 67.7144 76.8198 68.994 76.524L68.838 76.594C69.342 76.453 69.863 76.377 70.387 76.37C72.778 76.408 75.366 78.183 76.221 85.215C77.365 94.631 76.834 96.327 76.467 96.56C76.421 96.557 76.376 96.549 76.333 96.536C76.344 96.546 76.356 96.555 76.368 96.562C76.318 96.559 76.269 96.55 76.221 96.536C76.246 96.56 76.278 96.578 76.313 96.586C76.347 96.595 76.383 96.594 76.418 96.585C76.4431 96.592 76.469 96.594 76.494 96.591C76.5201 96.588 76.545 96.58 76.568 96.567H76.749C76.749 96.6253 76.7429 96.686 76.7368 96.7465L76.7368 96.7466L76.7368 96.7467C76.734 96.7743 76.7312 96.8018 76.729 96.829C76.711 96.829 76.621 96.88 76.729 96.887C76.702 97.418 76.704 98.006 76.729 98.6C75.54 98.667 74.354 98.738 73.313 98.803L73.407 98.304L73.449 98.08C74.36 98.006 75.227 97.736 75.327 96.983C75.551 95.336 73.313 94.456 71.421 94.346C69.529 94.236 58.139 95.007 58.139 95.007C58.139 95.007 56.431 97.245 61.846 97.941C62.008 98.027 62.175 98.121 62.346 98.219C64.466 99.446 67.344 101.702 68.721 102.815L68.914 102.97L68.296 103.469C71.1936 104.133 73.9944 113.882 75.8541 120.356L75.8542 120.356C76.1497 121.385 76.4215 122.33 76.666 123.144C78.45 129.079 82.359 128.86 85.596 127.982C88.629 127.156 89.017 118.226 89.053 117.104V116.99L94.445 123.731L94.855 124.244C95.014 124.326 95.168 124.405 95.321 124.479C99.406 126.451 103.919 122.672 102.634 118.374C101.338 114.031 99.323 107.613 97.98 104.899C96.861 102.627 95.404 98.855 94.522 96.486C94.636 96.439 94.747 96.386 94.855 96.325C94.855 96.325 94.835 96.22 94.799 96.025L94.855 95.996C94.855 95.996 93.557 89.157 93.485 84.301V84.046V83.887C94.461 83.663 95.079 83.574 95.079 83.574L95.097 83.363L94.983 83.388L95.524 77.088C95.524 77.088 97.517 72.792 95.992 71.001C95.528 70.476 95.218 69.832 95.097 69.141C94.842 67.493 95.097 64.751 98.65 62.47C104.119 58.953 106.241 56.094 106.241 56.094C106.241 56.094 106.357 53.994 103.008 53.005ZM92.146 57.375V54.464C92.623 54.441 93.1049 54.4551 93.5877 54.4692C94.1313 54.4851 94.6758 54.5011 95.215 54.464C95.716 54.429 96.213 54.345 96.697 54.214L96.944 54.386C95.453 55.547 93.846 56.549 92.146 57.375ZM77.841 103.869C77.445 103.576 77.042 103.283 76.642 103.001C77.306 104.075 77.868 105.209 78.321 106.388C78.305 106.319 78.088 105.304 77.841 103.869Z" fill="url(#paint1_linear)"/>
<path fill-rule="evenodd" clip-rule="evenodd" d="M85.4091 101.162L85.1671 102.474L84.9811 103.477L84.6431 105.313L81.3661 107.607C81.3661 107.607 81.0701 107.354 80.5821 106.956C79.2391 105.85 76.4161 103.598 74.3431 102.389C73.8101 102.049 73.2331 101.783 72.6281 101.599L85.4091 101.162Z" fill="#FFBDC6"/>
<path opacity="0.1" fill-rule="evenodd" clip-rule="evenodd" d="M85.4091 101.162L85.1671 102.474C84.4441 102.513 83.7191 102.476 83.0041 102.362L75.3571 102.472C74.9971 102.449 74.6591 102.422 74.3431 102.389C73.8101 102.049 73.2331 101.783 72.6281 101.599L85.4091 101.162Z" fill="black"/>
<path fill-rule="evenodd" clip-rule="evenodd" d="M83.003 102.139C83.003 102.139 86.825 102.795 87.049 101.163C87.272 99.531 85.081 98.649 83.225 98.539C81.369 98.429 70.225 99.195 70.225 99.195C70.225 99.195 68.26 101.816 75.358 102.255L83.003 102.139Z" fill="#474463"/>
<path opacity="0.1" fill-rule="evenodd" clip-rule="evenodd" d="M85.4091 101.162L85.1671 102.474L84.9811 103.477L84.6431 105.313L81.3661 107.607C81.3661 107.607 81.0701 107.354 80.5821 106.956C79.2391 105.85 76.4161 103.598 74.3431 102.389C73.8101 102.049 73.2331 101.783 72.6281 101.599L85.4091 101.162Z" fill="black"/>
<path opacity="0.1" fill-rule="evenodd" clip-rule="evenodd" d="M85.4091 101.162L85.1671 102.474C84.4441 102.513 83.7191 102.476 83.0041 102.362L75.3571 102.472C74.9971 102.449 74.6591 102.422 74.3431 102.389C73.8101 102.049 73.2331 101.783 72.6281 101.599L85.4091 101.162Z" fill="black"/>
<path opacity="0.1" fill-rule="evenodd" clip-rule="evenodd" d="M83.004 102.135C83.004 102.135 86.828 102.789 87.047 101.15C87.267 99.511 85.079 98.638 83.224 98.528C81.368 98.419 70.224 99.184 70.224 99.184C70.224 99.184 68.258 101.806 75.357 102.242L83.004 102.135Z" fill="black"/>
<path fill-rule="evenodd" clip-rule="evenodd" d="M91.359 48.285H71.368V71.99H91.359V48.285Z" fill="#474463"/>
<path opacity="0.1" fill-rule="evenodd" clip-rule="evenodd" d="M91.359 48.393H71.368V72.098H91.359V48.393Z" fill="black"/>
<path fill-rule="evenodd" clip-rule="evenodd" d="M47.941 88.866C47.612 88.948 47.191 89.266 46.723 89.727C44.708 91.722 41.823 96.403 41.823 96.403C38.1334 92.009 42.217 88.536 43.956 87.343C44.379 87.054 44.664 86.896 44.664 86.896L47.941 88.866Z" fill="#FFBDC6"/>
<path fill-rule="evenodd" clip-rule="evenodd" d="M85.189 55.767C85.189 55.767 86.172 62.648 89.559 64.287C92.946 65.926 85.189 68.988 85.189 68.988L74.594 65.053C74.594 65.053 80.602 63.085 79.4 57.296L85.189 55.767Z" fill="#FFBDC6"/>
<path fill-rule="evenodd" clip-rule="evenodd" d="M73.827 97.169L73.587 98.476L73.393 99.484L73.055 101.319L69.777 103.612C69.777 103.612 69.482 103.361 68.994 102.963C67.651 101.857 64.828 99.605 62.752 98.396C62.219 98.055 61.643 97.79 61.038 97.605L73.827 97.169Z" fill="#FFBDC6"/>
<path opacity="0.1" fill-rule="evenodd" clip-rule="evenodd" d="M73.826 97.169L73.587 98.476C72.864 98.516 72.139 98.478 71.424 98.364L63.777 98.474C63.417 98.452 63.076 98.425 62.761 98.391C62.228 98.051 61.651 97.785 61.046 97.601L73.826 97.169Z" fill="black"/>
<path fill-rule="evenodd" clip-rule="evenodd" d="M71.4251 98.152C71.4251 98.152 75.2491 98.806 75.4661 97.17C75.6831 95.533 73.5001 94.656 71.6421 94.546C69.7841 94.436 58.6451 95.202 58.6451 95.202C58.6451 95.202 56.6771 97.823 63.7781 98.262L71.4251 98.152Z" fill="#474463"/>
<path opacity="0.1" fill-rule="evenodd" clip-rule="evenodd" d="M73.393 99.483L73.055 101.319L69.778 103.611C69.778 103.611 69.482 103.361 68.994 102.962L73.328 99.407L73.393 99.483Z" fill="black"/>
<path fill-rule="evenodd" clip-rule="evenodd" d="M95.039 124.491C94.889 124.417 94.739 124.341 94.592 124.267L94.189 123.759L88.903 117.057C88.903 117.057 88.903 117.097 88.903 117.173C88.867 118.292 88.487 127.162 85.518 127.981C82.351 128.854 78.529 129.074 76.788 123.175C75.046 117.276 71.863 104.386 68.594 103.62L73.457 99.633C73.457 99.633 76.676 103.399 77.988 107.003C77.938 106.779 75.715 96.392 77.54 94.554H93.49C93.49 94.554 95.953 101.567 97.641 105.042C98.955 107.739 100.927 114.117 102.196 118.434C103.454 122.696 99.037 126.459 95.039 124.491Z" fill="#B643D5"/>
<path opacity="0.1" fill-rule="evenodd" clip-rule="evenodd" d="M94.583 96.513C92.121 97.971 81.311 97.377 77.794 97.14L76.835 97.071C76.733 97.071 76.851 97.012 76.851 97.012L76.95 96.021L79.571 89.359L93.607 81.219C93.323 82.076 93.229 83.388 93.251 84.89C93.316 89.717 94.583 96.513 94.583 96.513Z" fill="black"/>
<path fill-rule="evenodd" clip-rule="evenodd" d="M94.584 96.184C92.121 97.642 81.311 97.048 77.794 96.811L76.836 96.744L76.677 96.731L76.851 96.686L77.715 96.462L79.571 89.034L93.608 80.896C93.323 81.754 93.229 83.066 93.252 84.568C93.317 89.39 94.584 96.184 94.584 96.184Z" fill="#F6F6F6"/>
<path opacity="0.1" fill-rule="evenodd" clip-rule="evenodd" d="M93.244 84.563C90.39 85.222 84.108 87.154 81.695 91.817C80.085 94.922 78.731 96.254 77.786 96.811L76.828 96.744C76.834 96.725 76.84 96.705 76.844 96.686L77.708 96.462L79.564 89.034L93.6 80.896C93.318 81.749 93.222 83.061 93.244 84.563Z" fill="black"/>
<path opacity="0.1" fill-rule="evenodd" clip-rule="evenodd" d="M44.6631 86.9L47.9401 88.866C47.6111 88.949 47.1901 89.267 46.7231 89.728C46.4491 88.931 44.7351 87.818 43.9561 87.344C44.3791 87.059 44.6631 86.9 44.6631 86.9Z" fill="black"/>
<path opacity="0.1" fill-rule="evenodd" clip-rule="evenodd" d="M76.243 96.871C76.207 96.89 76.167 96.897 76.126 96.891C76.086 96.886 76.049 96.868 76.02 96.84C76.092 96.861 76.168 96.872 76.243 96.871Z" fill="black"/>
<path fill-rule="evenodd" clip-rule="evenodd" d="M83.658 63.851C83.658 63.851 80.708 64.178 78.633 61.993C78.633 61.993 69.902 64.507 66.945 70.186C63.987 75.866 43.887 87.01 43.887 87.01C43.887 87.01 47.383 88.975 47.054 89.958L60.274 82.311C60.274 82.311 64.975 78.926 66.28 78.16C67.585 77.395 74.802 72.698 76.331 85.478C77.86 98.259 76.331 96.73 76.331 96.73C76.331 96.73 78.516 97.496 81.684 91.377C84.852 85.259 94.681 83.84 94.681 83.84L95.228 77.397C95.228 77.397 97.177 73.125 95.675 71.352C95.22 70.828 94.918 70.188 94.8 69.503C94.552 67.867 94.8 65.14 98.279 62.875C103.631 59.378 105.707 56.539 105.707 56.539C105.707 56.539 105.816 54.462 102.539 53.479C99.262 52.496 85.935 47.144 85.935 47.144L85.487 49.002L96.002 56.423C96.002 56.423 90.759 60.676 86.6 60.573C86.6 60.573 87.372 63.741 83.658 63.851Z" fill="#B643D5"/>
<path opacity="0.1" fill-rule="evenodd" clip-rule="evenodd" d="M85.683 58.762C85.425 57.887 85.223 56.995 85.079 56.094L79.29 57.623C79.545 58.728 79.499 59.881 79.158 60.963C80.341 61.279 81.592 61.238 82.753 60.847C83.913 60.456 84.933 59.73 85.683 58.762Z" fill="black"/>
<path fill-rule="evenodd" clip-rule="evenodd" d="M80.8739 60.847C84.3119 60.847 87.0989 58.06 87.0989 54.621C87.0989 51.183 84.3119 48.396 80.8739 48.396C77.4349 48.396 74.6479 51.183 74.6479 54.621C74.6479 58.06 77.4349 60.847 80.8739 60.847Z" fill="#FFBDC6"/>
<path opacity="0.1" fill-rule="evenodd" clip-rule="evenodd" d="M84.186 40.461C85.914 40.656 87.555 41.399 89.256 41.804C89.681 41.937 90.134 41.955 90.568 41.856C91.229 41.65 91.766 40.96 92.451 40.981C92.872 40.981 93.246 41.281 93.593 41.556C94.15 41.981 94.673 42.448 95.16 42.953C96.333 44.227 97.06 45.941 98.13 47.327C99.2 48.713 100.888 49.79 102.408 49.154C101.374 53.184 97.987 56.253 94.322 56.503C92.861 56.602 91.363 56.298 89.948 56.727C89.595 56.871 89.224 56.961 88.844 56.996C88.03 56.996 87.374 56.248 86.865 55.521C85.675 53.81 84.732 51.867 83.391 50.307C82.943 49.792 82.426 49.302 81.799 49.208C81.173 49.114 80.597 49.411 80.04 49.7C79.12 50.177 78.18 50.672 77.465 51.491C76.751 52.31 76.301 53.528 76.597 54.625C76.756 55.221 77.118 55.758 77.125 56.38C77.139 57.372 76.261 58.1 76.089 59.067C76.05 59.473 76.036 59.881 76.046 60.289C75.97 61.614 75.104 62.7 74.199 63.533C73.846 63.857 73.456 64.204 73.353 64.706C73.284 65.046 73.353 65.409 73.308 65.754C73.176 66.613 72.319 67.05 71.56 67.164C70.673 67.293 69.768 67.186 68.936 66.853C69.997 66.349 70.651 64.923 70.405 63.643C70.067 61.87 68.285 60.598 68.437 58.791C68.521 58.238 68.687 57.7 68.93 57.195C69.318 56.221 69.6 55.208 69.771 54.173C69.906 53.372 69.97 52.523 69.72 51.762C69.496 51.066 69.028 50.515 68.632 49.929C68.094 49.13 67.67 48.26 67.371 47.345C67.262 47.075 67.221 46.782 67.251 46.492C67.338 46.145 67.529 45.832 67.799 45.597C68.773 44.574 69.814 43.508 71.119 43.217C71.741 43.112 72.375 43.087 73.004 43.143C74.097 43.179 75.192 43.132 76.279 43.004C77.174 42.899 78.688 42.915 79.447 42.333C80.154 41.789 80.553 41.11 81.423 40.766C82.306 40.441 83.254 40.337 84.186 40.461Z" fill="black"/>
<path opacity="0.1" fill-rule="evenodd" clip-rule="evenodd" d="M87.646 104.761C87.646 104.761 91.25 111.862 90.158 114.044L87.646 104.761Z" fill="black"/>
<path opacity="0.1" fill-rule="evenodd" clip-rule="evenodd" d="M94.181 123.75L88.902 117.056C88.902 117.056 88.902 117.097 88.902 117.173C88.902 117.173 88.598 115.006 89.603 115.733C91.806 117.327 95.329 119.94 95.405 120.39C95.482 120.84 94.691 122.637 94.181 123.75Z" fill="black"/>
<g opacity="0.1">
<path opacity="0.1" fill-rule="evenodd" clip-rule="evenodd" d="M86.719 60.574C86.719 60.574 87.166 62.418 85.725 63.341C87.941 62.962 88.039 61.236 87.963 60.486C87.552 60.552 87.135 60.581 86.719 60.574Z" fill="black"/>
<path opacity="0.1" fill-rule="evenodd" clip-rule="evenodd" d="M45.209 86.571C45.209 86.571 65.307 75.429 68.267 69.75C70.382 65.673 75.482 63.229 78.191 62.172C76.216 62.843 69.563 65.375 67.065 70.186C64.116 75.866 44.007 87.01 44.007 87.01L45.209 86.571Z" fill="black"/>
<path opacity="0.1" fill-rule="evenodd" clip-rule="evenodd" d="M90.6309 59.705C94.0519 58.641 97.3199 55.986 97.3199 55.986L86.8249 48.554L87.0649 47.538L86.0599 47.135L85.6229 48.993L96.1109 56.421C94.4299 57.742 92.5889 58.846 90.6309 59.705Z" fill="black"/>
<path opacity="0.1" fill-rule="evenodd" clip-rule="evenodd" d="M90.6909 84.879C92.0309 84.422 93.4059 84.075 94.8019 83.84L94.8189 83.63C93.4129 83.939 92.0329 84.357 90.6909 84.879Z" fill="black"/>
<path opacity="0.1" fill-rule="evenodd" clip-rule="evenodd" d="M77.9799 96.323H77.8839C77.8479 96.341 77.8069 96.348 77.7669 96.343C77.7269 96.337 77.6899 96.319 77.6599 96.292C77.7329 96.313 77.8079 96.323 77.8839 96.323C78.2419 96.115 78.7789 94.483 77.6599 85.04C76.4559 74.966 71.7159 75.752 69.1239 76.912C71.7749 76.182 75.4209 76.813 76.4579 85.477C77.5879 94.919 77.0489 96.551 76.6819 96.76C77.1469 96.742 77.5979 96.591 77.9799 96.323Z" fill="black"/>
<path opacity="0.1" fill-rule="evenodd" clip-rule="evenodd" d="M76.6819 96.761C76.6059 96.761 76.5309 96.751 76.4579 96.729C76.4879 96.757 76.5249 96.775 76.5649 96.78C76.6049 96.786 76.6459 96.779 76.6819 96.761Z" fill="black"/>
</g>
<path fill-rule="evenodd" clip-rule="evenodd" d="M84.186 40.242C85.914 40.439 87.555 41.18 89.256 41.586C89.681 41.718 90.134 41.735 90.568 41.635C91.228 41.431 91.766 40.739 92.451 40.76C92.871 40.773 93.245 41.06 93.592 41.335C94.149 41.761 94.673 42.228 95.159 42.732C96.332 44.006 97.06 45.72 98.13 47.106C99.2 48.492 100.888 49.569 102.408 48.933C101.374 52.963 97.987 56.032 94.322 56.282C92.86 56.383 91.363 56.079 89.948 56.506C89.595 56.651 89.223 56.741 88.844 56.775C88.029 56.775 87.373 56.027 86.865 55.3C85.674 53.589 84.732 51.648 83.391 50.088C82.943 49.571 82.426 49.081 81.799 48.987C81.172 48.893 80.597 49.193 80.04 49.481C79.119 49.958 78.179 50.451 77.465 51.272C76.751 52.094 76.301 53.307 76.597 54.407C76.755 55.002 77.118 55.539 77.125 56.162C77.138 57.156 76.261 57.881 76.088 58.848C76.049 59.254 76.035 59.662 76.046 60.07C75.97 61.396 75.103 62.479 74.199 63.314C73.845 63.637 73.456 63.986 73.353 64.485C73.283 64.827 73.353 65.188 73.308 65.535C73.176 66.395 72.319 66.831 71.56 66.943C70.673 67.074 69.767 66.967 68.936 66.632C69.997 66.13 70.651 64.702 70.404 63.424C70.066 61.651 68.284 60.377 68.437 58.573C68.52 58.019 68.686 57.481 68.929 56.976C69.318 56.001 69.6 54.987 69.771 53.952C69.905 53.153 69.97 52.304 69.719 51.541C69.496 50.847 69.028 50.294 68.631 49.708C68.094 48.909 67.67 48.041 67.371 47.126C67.263 46.855 67.221 46.562 67.25 46.271C67.34 45.928 67.531 45.62 67.799 45.387C68.773 44.364 69.813 43.301 71.119 43.007C71.741 42.904 72.375 42.88 73.004 42.936C74.097 42.97 75.192 42.924 76.279 42.797C77.174 42.692 78.687 42.705 79.446 42.125C80.154 41.583 80.552 40.903 81.423 40.558C82.305 40.231 83.253 40.123 84.186 40.242Z" fill="#474463"/>
<path fill-rule="evenodd" clip-rule="evenodd" d="M125.199 113.925C132.132 113.925 137.752 108.305 137.752 101.372C137.752 94.44 132.132 88.82 125.199 88.82C118.267 88.82 112.647 94.44 112.647 101.372C112.647 108.305 118.267 113.925 125.199 113.925Z" fill="white"/>
<path opacity="0.1" fill-rule="evenodd" clip-rule="evenodd" d="M188.029 171.038C191.358 171.038 194.057 170.582 194.057 170.019C194.057 169.456 191.358 169 188.029 169C184.699 169 182 169.456 182 170.019C182 170.582 184.699 171.038 188.029 171.038Z" fill="#6C63FF"/>
<path fill-rule="evenodd" clip-rule="evenodd" d="M108 95.775C108 86.4984 115.498 79 124.775 79C134.052 79 141.55 86.4984 141.55 95.775C141.55 105.052 134.052 112.55 124.775 112.55C115.498 112.55 108 105.052 108 95.775ZM130.797 104.163L133.163 101.797L127.14 95.775L133.163 89.7528L130.797 87.3875L124.775 93.4097L118.753 87.3875L116.387 89.7528L122.41 95.775L116.387 101.797L118.753 104.163L124.775 98.1403L130.797 104.163Z" fill="#FA7268"/>
<defs>
<linearGradient id="paint0_linear" x1="76.334" y1="97.612" x2="76.334" y2="97.554" gradientUnits="userSpaceOnUse">
<stop stop-color="#808080" stop-opacity="0.25"/>
<stop offset="0.54" stop-color="#808080" stop-opacity="0.12"/>
<stop offset="1" stop-color="#808080" stop-opacity="0.1"/>
</linearGradient>
<linearGradient id="paint1_linear" x1="37511.7" y1="54454.7" x2="37511.7" y2="19239.7" gradientUnits="userSpaceOnUse">
<stop stop-color="#808080" stop-opacity="0.25"/>
<stop offset="0.54" stop-color="#808080" stop-opacity="0.12"/>
<stop offset="1" stop-color="#808080" stop-opacity="0.1"/>
</linearGradient>
</defs>
</svg>
