<svg width="154" height="105" viewBox="0 0 154 105" fill="none" xmlns="http://www.w3.org/2000/svg">
<path d="M154 20.1741C154 20.2096 147.551 20.2804 139.616 20.2804C131.681 20.2804 125.231 20.245 125.231 20.1741C125.231 20.1387 131.681 20.0679 139.616 20.0679C147.551 20.0679 154 20.1033 154 20.1741Z" fill="black"/>
<path d="M144.869 21.8387C144.869 21.8741 138.42 21.9449 130.485 21.9449C122.55 21.9449 116.1 21.9095 116.1 21.8387C116.1 21.8033 122.55 21.7324 130.485 21.7324C138.456 21.7678 144.869 21.8033 144.869 21.8387Z" fill="black"/>
<path d="M93.0559 93.3382C93.0559 93.3736 86.1716 93.4445 77.693 93.4445C69.2144 93.4445 62.3301 93.409 62.3301 93.3382C62.3301 93.3028 69.2144 93.2319 77.693 93.2319C86.1716 93.2319 93.0559 93.2674 93.0559 93.3382Z" fill="black"/>
<path d="M78.3449 95.6038C78.3449 95.6392 73.1635 95.7101 66.7864 95.7101C60.4094 95.7101 55.228 95.6747 55.228 95.6038C55.228 95.533 60.4094 95.4976 66.7864 95.4976C73.1997 95.4976 78.3449 95.533 78.3449 95.6038Z" fill="black"/>
<path d="M86.1345 58.8452L58.8508 69.7879C56.9305 70.567 55.2637 71.8773 54.1043 73.5772L38.3428 96.6667L45.0097 100.491C45.0097 100.491 60.8074 81.8285 62.5104 79.7037C62.5104 79.7037 87.7288 75.5957 88.9969 75.2416C95.1566 73.5064 95.9175 68.3006 95.9175 68.3006L86.1345 58.8452Z" fill="#B78876"/>
<path d="M37.4733 97.7999L42.7996 90.186L50.01 94.6127L43.8141 101.943L37.4733 97.7999Z" fill="#EBEBEB"/>
<path d="M49.0322 95.6757C49.0322 95.6757 48.996 95.6757 48.9598 95.6403C48.8873 95.6048 48.8148 95.5694 48.7424 95.534C48.5612 95.4278 48.3076 95.2861 47.9815 95.1091C47.3293 94.7549 46.4234 94.2237 45.4814 93.6217C44.5031 93.0197 43.6697 92.4531 43.0537 91.9927C42.7639 91.7802 42.5102 91.6032 42.3291 91.4615C42.2566 91.4261 42.1841 91.3553 42.1479 91.3199C42.1117 91.2845 42.0754 91.2845 42.0754 91.249C42.0754 91.2136 42.1117 91.249 42.1479 91.2845C42.2204 91.3199 42.2928 91.3553 42.3291 91.4261C42.5465 91.5678 42.7639 91.7448 43.0537 91.9219C43.6697 92.3469 44.5031 92.9135 45.4814 93.5155C46.4597 94.1175 47.3293 94.6487 47.9815 95.0028C48.2713 95.1799 48.525 95.3215 48.7424 95.4278C48.8148 95.4632 48.8873 95.4986 48.9598 95.534C48.996 95.6402 49.0322 95.6757 49.0322 95.6757Z" fill="#E8505B"/>
<path d="M48.7416 96.101C48.7416 96.101 48.7054 96.101 48.6691 96.0655C48.5967 96.0301 48.5242 95.9947 48.4517 95.9593C48.2706 95.8531 48.0169 95.7114 47.6908 95.5343C47.0386 95.1802 46.1328 94.649 45.1907 94.047C44.2124 93.445 43.3791 92.8784 42.7631 92.418C42.4732 92.2055 42.2196 92.0284 42.0384 91.8868C41.966 91.8514 41.8935 91.7806 41.8573 91.7451C41.821 91.7097 41.7848 91.7097 41.7848 91.6743C41.7848 91.6743 41.821 91.6743 41.8573 91.7097C41.9297 91.7451 42.0022 91.7806 42.0384 91.8514C42.2558 91.993 42.4732 92.1701 42.7631 92.3472C43.3791 92.7721 44.2124 93.3387 45.1907 93.9408C46.169 94.5428 47.0386 95.074 47.6908 95.4281C47.9807 95.6052 48.2343 95.7468 48.4517 95.8531C48.5242 95.8885 48.5967 95.9239 48.6691 95.9593C48.7054 96.101 48.7416 96.101 48.7416 96.101Z" fill="#E8505B"/>
<path d="M37.3647 97.5877C39.6474 99.1813 41.7489 100.633 44.1766 101.519L42.5823 103.785L42.1475 103.537C40.2634 102.404 32.7268 97.6585 31.7848 96.4899C30.734 95.1442 37.3647 97.5877 37.3647 97.5877Z" fill="#F6CA13"/>
<path d="M42.8 103.68C42.8 103.68 42.7638 103.645 42.6913 103.609C42.5826 103.538 42.4739 103.467 42.3652 103.397C42.0391 103.184 41.6406 102.936 41.1333 102.653C40.1188 102.016 38.7057 101.095 37.1839 100.068C35.6621 99.0408 34.2852 98.0493 33.3069 97.341C32.8359 96.9869 32.4735 96.7036 32.1474 96.4911C32.0387 96.4203 31.93 96.314 31.8213 96.2432C31.7489 96.1724 31.7126 96.1724 31.7126 96.1724C31.7126 96.1724 31.7489 96.2078 31.8213 96.2432C31.93 96.314 32.0387 96.3848 32.1474 96.4557C32.4735 96.6681 32.8721 96.9514 33.3069 97.2702C34.2852 97.9784 35.6621 98.9346 37.1839 99.9616C38.7057 100.989 40.1188 101.909 41.1333 102.582C41.6043 102.901 42.0029 103.149 42.329 103.361C42.4377 103.432 42.5464 103.503 42.6551 103.574C42.7638 103.645 42.8 103.68 42.8 103.68Z" fill="black"/>
<path d="M41.6405 100.35C41.6405 100.386 40.8433 100.421 39.865 100.492C38.8867 100.563 38.0896 100.563 38.0896 100.563C38.0896 100.527 38.8867 100.492 39.865 100.421C40.8433 100.35 41.6405 100.315 41.6405 100.35Z" fill="#FAFAFA"/>
<path d="M40.4809 99.6069C40.4809 99.6423 39.72 99.7132 38.8142 99.784C37.8721 99.8548 37.1475 99.8903 37.1475 99.8903C37.1475 99.8548 37.9084 99.784 38.8142 99.7132C39.72 99.6424 40.4809 99.6069 40.4809 99.6069Z" fill="#FAFAFA"/>
<path d="M35.0818 97.7999C35.0455 97.7999 35.1908 97.5874 35.2271 97.3395C35.2634 97.0562 35.1908 96.8438 35.1908 96.8438C35.1908 96.8438 35.336 97.0562 35.2997 97.3395C35.2634 97.6229 35.0818 97.7999 35.0818 97.7999Z" fill="black"/>
<path d="M34.3567 97.4818C34.3204 97.4818 34.4656 97.3047 34.5382 97.0568C34.5746 96.8089 34.5019 96.6318 34.5382 96.6318C34.5382 96.6318 34.6835 96.8089 34.6109 97.0922C34.5382 97.3401 34.3567 97.4818 34.3567 97.4818Z" fill="black"/>
<path d="M35.8069 98.0836C35.7706 98.0836 35.9159 97.8711 35.9522 97.5878C35.9885 97.3045 35.9159 97.0921 35.9159 97.0566C35.9159 97.0566 36.0611 97.2691 36.0248 97.5878C35.9885 97.9066 35.8069 98.0836 35.8069 98.0836Z" fill="black"/>
<path d="M36.2774 97.2336C36.2774 97.2336 36.2412 97.1982 36.1687 97.1274C36.0962 97.0565 36.0238 96.9503 35.9513 96.8087C35.8788 96.667 35.7701 96.4545 35.7701 96.242C35.7701 96.1358 35.7701 95.9941 35.8064 95.8879C35.8426 95.7817 35.9513 95.64 36.0962 95.6046C36.2412 95.5692 36.3499 95.6754 36.3861 95.7817C36.4223 95.8879 36.4586 95.9941 36.4586 96.1004C36.4586 96.3129 36.4586 96.4899 36.4223 96.6316C36.3861 96.9503 36.2774 97.1628 36.2412 97.269V97.3044V97.269C36.2412 97.2336 36.2412 97.1982 36.2412 97.1982C36.2412 97.1982 36.2412 97.2336 36.2774 97.269C36.3136 97.1628 36.3861 96.9503 36.4223 96.6316C36.4223 96.4899 36.4586 96.3129 36.4223 96.1004C36.4223 95.9941 36.3861 95.9233 36.3499 95.8171C36.3136 95.7108 36.2412 95.6754 36.1325 95.6754C35.9151 95.7462 35.8426 96.0296 35.8426 96.242C35.8426 96.4545 35.9151 96.6316 36.0238 96.8087C36.1687 97.0566 36.3136 97.2336 36.2774 97.2336Z" fill="black"/>
<path d="M36.2773 97.1629C36.2773 97.1629 36.2773 97.1275 36.3136 97.0567C36.3498 96.9859 36.4223 96.8796 36.4947 96.8088C36.6034 96.7026 36.7121 96.5963 36.8571 96.4901C36.9295 96.4547 37.002 96.3839 37.1107 96.3485C37.1832 96.313 37.3643 96.313 37.4368 96.4193C37.5093 96.5255 37.4368 96.6672 37.3643 96.738C37.2919 96.8088 37.2194 96.8796 37.1469 96.9151C37.002 97.0213 36.8571 97.0921 36.7121 97.1275C36.5672 97.1629 36.4585 97.1984 36.386 97.1984C36.3136 97.1984 36.2773 97.1984 36.2773 97.1984C36.2773 97.1984 36.4585 97.163 36.7121 97.0567C36.8571 97.0213 37.002 96.9151 37.1469 96.8088C37.2919 96.7026 37.5093 96.5609 37.4006 96.3839C37.3643 96.313 37.2556 96.313 37.1832 96.3485C37.1107 96.3839 37.002 96.4193 36.9295 96.4901C36.7846 96.5963 36.6397 96.7026 36.5672 96.8088C36.386 97.0213 36.2773 97.1629 36.2773 97.1629Z" fill="black"/>
<path d="M42.7273 100.917C42.7273 100.917 42.5461 100.952 42.22 100.988C41.8215 101.059 41.4229 101.094 40.9881 101.165C40.5171 101.236 40.0823 101.271 39.7562 101.307C39.6475 101.307 39.5025 101.342 39.3938 101.342C39.3214 101.342 39.2489 101.342 39.2489 101.342C39.2489 101.342 39.4301 101.307 39.7562 101.271C40.1547 101.2 40.5533 101.165 40.9881 101.094C41.4591 101.023 41.8939 100.988 42.22 100.952C42.3287 100.952 42.4737 100.917 42.5824 100.917C42.6911 100.917 42.7273 100.917 42.7273 100.917Z" fill="#FAFAFA"/>
<path d="M82.8372 56.2248L98.0189 83.8118C99.6856 86.8573 102.548 89.0884 105.918 90.0091L138.02 98.7562L140.376 91.6381L110.048 80.8371L98.9248 55.0562L82.8372 56.2248Z" fill="#B78876"/>
<path d="M138.926 99.0752L129.832 96.6671L131.752 88.522L140.883 91.8508L138.926 99.0752Z" fill="#EBEBEB"/>
<path d="M133.129 89.0879C133.129 89.0879 133.129 89.1233 133.129 89.1587C133.129 89.2295 133.092 89.3004 133.092 89.4066C133.056 89.6191 133.02 89.9024 132.947 90.2565C132.803 90.9648 132.621 91.9563 132.331 93.0542C132.078 94.152 131.788 95.1081 131.571 95.8164C131.462 96.1705 131.353 96.4538 131.317 96.6309C131.281 96.7017 131.281 96.7725 131.244 96.8434C131.208 96.8788 131.208 96.9142 131.208 96.9142C131.208 96.9142 131.208 96.8788 131.208 96.8434C131.244 96.7725 131.244 96.7017 131.281 96.6309C131.353 96.383 131.426 96.0997 131.534 95.781C131.752 95.0727 132.005 94.1165 132.295 93.0187C132.549 91.9209 132.766 90.9294 132.911 90.2211C132.984 89.9024 133.02 89.6191 133.092 89.3712C133.092 89.3004 133.129 89.2295 133.129 89.1233C133.092 89.1233 133.092 89.0879 133.129 89.0879Z" fill="#E8505B"/>
<path d="M133.636 89.2305C133.636 89.2305 133.636 89.2659 133.636 89.3013C133.636 89.3721 133.6 89.4429 133.6 89.5492C133.563 89.7617 133.527 90.045 133.455 90.3991C133.31 91.1074 133.129 92.0989 132.839 93.1967C132.585 94.2945 132.295 95.2507 132.078 95.959C131.969 96.3131 131.86 96.5964 131.824 96.7735C131.788 96.8443 131.788 96.9151 131.752 96.9859C131.715 97.0213 131.715 97.0568 131.715 97.0568C131.715 97.0568 131.715 97.0213 131.715 96.9859C131.752 96.9151 131.752 96.8443 131.788 96.7735C131.86 96.5256 131.933 96.2423 132.042 95.9235C132.259 95.2153 132.513 94.2591 132.802 93.1613C133.056 92.0635 133.273 91.0719 133.418 90.3637C133.491 90.045 133.527 89.7617 133.6 89.5138C133.6 89.4429 133.636 89.3721 133.636 89.2659V89.2305Z" fill="#E8505B"/>
<path d="M138.782 99.2166C139.579 96.596 140.304 94.1879 140.34 91.6382L143.058 92.3819L142.949 92.8422C142.478 94.9316 140.376 103.466 139.543 104.706C138.601 106.158 138.782 99.2166 138.782 99.2166Z" fill="#F6CA13"/>
<path d="M142.912 92.2407C142.912 92.2407 142.912 92.2761 142.876 92.3824C142.84 92.4886 142.84 92.6303 142.804 92.7719C142.731 93.1615 142.586 93.6218 142.478 94.153C142.188 95.3217 141.753 96.9153 141.246 98.6505C140.738 100.421 140.231 101.979 139.869 103.113C139.688 103.644 139.543 104.104 139.434 104.458C139.398 104.6 139.362 104.706 139.289 104.812C139.253 104.883 139.253 104.954 139.253 104.954C139.253 104.954 139.253 104.919 139.289 104.812C139.325 104.706 139.362 104.565 139.398 104.458C139.506 104.104 139.651 103.644 139.833 103.113C140.195 101.979 140.666 100.386 141.173 98.6505C141.68 96.9153 142.115 95.3217 142.405 94.153C142.55 93.6218 142.659 93.1615 142.767 92.7719C142.804 92.6303 142.84 92.524 142.876 92.4178C142.876 92.2761 142.912 92.2407 142.912 92.2407Z" fill="black"/>
<path d="M140.05 94.4004C140.086 94.4004 140.376 95.1087 140.775 95.994C141.137 96.8794 141.427 97.623 141.427 97.623C141.391 97.623 141.101 96.9148 140.702 96.0294C140.304 95.1087 140.014 94.4004 140.05 94.4004Z" fill="#FAFAFA"/>
<path d="M139.724 95.7104C139.76 95.7104 140.05 96.3833 140.448 97.1978C140.811 98.0477 141.137 98.7206 141.1 98.7206C141.064 98.7206 140.774 98.0477 140.376 97.2332C139.977 96.3833 139.687 95.7104 139.724 95.7104Z" fill="#FAFAFA"/>
<path d="M139.724 101.306C139.724 101.341 139.507 101.27 139.217 101.306C138.963 101.341 138.782 101.518 138.746 101.483C138.746 101.483 138.891 101.27 139.18 101.235C139.507 101.164 139.724 101.27 139.724 101.306Z" fill="black"/>
<path d="M139.651 102.05C139.651 102.085 139.434 102.014 139.216 102.05C138.963 102.085 138.818 102.227 138.781 102.191C138.781 102.191 138.926 102.014 139.18 101.979C139.47 101.943 139.687 102.05 139.651 102.05Z" fill="black"/>
<path d="M139.76 100.527C139.76 100.562 139.507 100.491 139.217 100.527C138.927 100.598 138.746 100.739 138.709 100.704C138.709 100.704 138.891 100.491 139.181 100.456C139.543 100.385 139.76 100.491 139.76 100.527Z" fill="black"/>
<path d="M138.782 100.35C138.782 100.35 138.745 100.385 138.709 100.491C138.673 100.562 138.564 100.668 138.456 100.81C138.347 100.952 138.166 101.093 137.948 101.164C137.84 101.2 137.731 101.235 137.586 101.235C137.441 101.235 137.296 101.2 137.224 101.058C137.151 100.952 137.224 100.81 137.296 100.739C137.369 100.668 137.477 100.633 137.586 100.598C137.767 100.527 137.948 100.456 138.129 100.456C138.456 100.385 138.709 100.42 138.782 100.42H138.818H138.782C138.745 100.456 138.709 100.456 138.709 100.456C138.709 100.456 138.709 100.456 138.745 100.42C138.637 100.42 138.419 100.42 138.093 100.491C137.948 100.527 137.767 100.562 137.586 100.668C137.513 100.704 137.405 100.739 137.332 100.81C137.26 100.881 137.224 100.987 137.26 101.058C137.405 101.235 137.695 101.2 137.912 101.129C138.129 101.058 138.274 100.916 138.383 100.81C138.673 100.527 138.782 100.35 138.782 100.35Z" fill="black"/>
<path d="M138.71 100.386C138.71 100.386 138.674 100.386 138.601 100.386C138.529 100.386 138.42 100.35 138.275 100.279C138.13 100.244 137.985 100.138 137.84 100.031C137.768 99.9606 137.695 99.9252 137.623 99.8544C137.55 99.7836 137.478 99.6419 137.587 99.5357C137.695 99.4294 137.84 99.4648 137.913 99.5003C138.021 99.5357 138.094 99.6065 138.166 99.6419C138.311 99.7482 138.456 99.8544 138.529 99.9606C138.637 100.067 138.674 100.173 138.71 100.244C138.746 100.315 138.746 100.35 138.746 100.35C138.746 100.35 138.674 100.209 138.456 99.9961C138.348 99.8898 138.239 99.7836 138.094 99.6773C137.949 99.6065 137.732 99.4294 137.587 99.5711C137.514 99.6419 137.55 99.7127 137.623 99.7836C137.695 99.8544 137.768 99.9252 137.84 99.9606C137.985 100.067 138.13 100.138 138.275 100.209C138.565 100.35 138.71 100.386 138.71 100.386Z" fill="black"/>
<path d="M140.231 93.1958C140.231 93.1958 140.34 93.3729 140.485 93.6562C140.666 94.0103 140.847 94.3645 141.064 94.754C141.282 95.179 141.499 95.5685 141.608 95.8519C141.644 95.9581 141.717 96.0643 141.753 96.206C141.789 96.2768 141.789 96.3477 141.789 96.3477C141.789 96.3477 141.68 96.1706 141.535 95.8873C141.354 95.5331 141.173 95.179 140.956 94.7894C140.738 94.3645 140.521 93.9749 140.412 93.6916C140.376 93.5854 140.304 93.4791 140.267 93.3375C140.267 93.2312 140.231 93.1958 140.231 93.1958Z" fill="#FAFAFA"/>
<path d="M108.165 83.2104C108.129 83.175 108.382 82.5376 108.962 81.8647C109.505 81.1919 110.085 80.7669 110.121 80.8023C110.158 80.8378 109.65 81.2981 109.107 81.971C108.563 82.6438 108.237 83.2458 108.165 83.2104Z" fill="#AA6550"/>
<path d="M107.15 82.4311C107.113 82.3957 107.621 81.8645 108.454 81.4395C109.287 81.0146 110.048 80.9437 110.048 80.9791C110.048 81.05 109.36 81.1916 108.563 81.5812C107.766 81.9707 107.222 82.4665 107.15 82.4311Z" fill="#AA6550"/>
<path d="M41.3142 71.0276L43.3433 68.6549C43.3433 68.6549 35.6618 63.7324 32.582 61.1119C29.5021 58.4913 26.7122 52.7897 25.8788 51.3024C25.0455 49.8504 23.3063 40.218 13.7407 37.987C5.66063 36.11 2.21847 40.7846 2.21847 40.7846C-2.96289 48.2214 2.07354 53.8875 5.7331 56.7914C9.35643 59.6953 14.0305 60.1203 17.8713 60.2619C22.4004 60.4036 28.5238 61.8555 30.4442 62.7763C31.8211 63.4137 41.3142 71.0276 41.3142 71.0276ZM23.27 55.6582C23.27 55.6582 18.1974 62.9533 7.10997 56.0832C2.83444 53.4272 1.4938 50.2045 1.20394 47.6548C0.732904 43.7239 3.26924 40.0763 7.1462 38.9431C9.9724 38.0932 13.7407 37.987 18.9945 41.8116C18.9583 41.847 27.0383 48.611 23.27 55.6582ZM22.1106 59.9078C21.7482 59.8016 20.4801 59.6245 22.3642 58.1725C24.5382 56.4727 24.6831 55.0916 24.973 54.2771C25.0817 53.9584 25.1904 53.7459 25.2991 53.6042C25.444 53.4272 25.7339 53.4272 25.8788 53.5688C27.1108 54.702 30.7703 60.439 30.2993 61.1119C29.7558 61.8909 22.6903 60.0849 22.1106 59.9078Z" fill="#D7D5CA"/>
<path d="M24.248 51.4442C24.2118 51.4796 24.1756 51.5504 24.1393 51.5858C23.7408 51.2671 23.3422 50.9484 22.9074 50.5942C23.2697 50.1339 23.6321 49.7089 23.9219 49.3194C23.9219 49.2839 23.8857 49.2485 23.8857 49.2131C23.4871 48.8944 23.0886 48.5757 22.69 48.2215C22.9074 47.9737 23.0886 47.7258 23.2697 47.4779C23.2697 47.4779 23.2697 47.4425 23.2335 47.4425C23.0523 47.6549 22.8349 47.9028 22.6175 48.1861C22.219 47.8674 21.7842 47.5133 21.3856 47.1946C21.7842 46.6988 22.1103 46.2738 22.4001 45.9197C22.3639 45.8489 22.3277 45.778 22.2914 45.7072C21.9291 45.4239 21.5668 45.1052 21.1682 44.8219C21.2769 44.7156 21.3494 44.6094 21.4218 44.5031C21.4218 44.5031 21.4218 44.5031 21.4218 44.4677C21.3494 44.574 21.2407 44.6802 21.1682 44.7864C20.7696 44.4677 20.3348 44.1136 19.9 43.7949C20.0812 43.547 20.2261 43.3699 20.3711 43.1928C20.2261 43.3345 20.0812 43.547 19.9 43.7949C19.6464 43.5824 19.3565 43.3699 19.1029 43.1574C18.958 43.0512 18.813 42.9095 18.6681 42.8033C18.9217 42.4846 19.1029 42.2367 19.2478 42.0596C19.1029 42.2367 18.8855 42.4846 18.6319 42.8033C18.1971 42.4492 17.7985 42.1304 17.3637 41.8117C17.5811 41.5284 17.7623 41.3159 17.9072 41.1389C17.9072 41.1389 17.9072 41.1389 17.871 41.1389C17.726 41.3159 17.5449 41.5284 17.3275 41.8117C16.8927 41.4576 16.4941 41.1389 16.0593 40.8201C16.2042 40.6431 16.3492 40.466 16.4579 40.3244C16.4579 40.3244 16.4579 40.3244 16.4216 40.3244C16.3129 40.466 16.168 40.6431 16.0231 40.8201C15.5883 40.466 15.1897 40.1473 14.7549 39.8286C14.8274 39.7577 14.8636 39.6869 14.9361 39.6161H14.8998C14.8636 39.6869 14.7911 39.7577 14.7187 39.8286C14.5013 39.6515 14.2839 39.4744 14.0665 39.2974C13.994 39.262 13.9578 39.262 13.8853 39.2265C14.1389 39.439 14.4288 39.6515 14.6824 39.864C14.3926 40.2181 14.0302 40.6431 13.6317 41.1389C13.1969 40.7847 12.7983 40.466 12.3997 40.1473C12.7258 39.7223 13.0157 39.3682 13.2693 39.0495H13.2331C12.9795 39.3682 12.6896 39.7223 12.3635 40.1473C11.9287 39.7932 11.5301 39.4744 11.1316 39.1557C11.2403 39.0141 11.3852 38.837 11.4939 38.6953C11.4577 38.6953 11.4577 38.6953 11.4214 38.6953C11.3127 38.837 11.204 38.9786 11.0953 39.1203C10.8779 38.9432 10.6968 38.8016 10.4794 38.6245C10.4431 38.6245 10.4069 38.6245 10.3707 38.6245C10.5881 38.8016 10.8055 38.9786 11.0229 39.1557C10.6968 39.5453 10.3707 39.9702 9.97211 40.4306C9.53731 40.0765 9.13874 39.7577 8.74018 39.439C8.95758 39.1557 9.17498 38.9078 9.39238 38.6599C9.35614 38.6599 9.35614 38.6599 9.31991 38.6599C9.13874 38.9078 8.92134 39.1557 8.70394 39.4036C8.45031 39.2265 8.23291 39.0495 8.01551 38.8724C7.97928 38.8724 7.97928 38.8724 7.94304 38.8724C8.16044 39.0495 8.41408 39.262 8.66771 39.439C8.34161 39.8286 7.97928 40.2889 7.61694 40.7139C7.25461 40.4306 6.92851 40.1827 6.63865 39.9348C6.89228 39.6161 7.14591 39.2974 7.39954 39.0141C7.36331 39.0141 7.32708 39.0495 7.29084 39.0495C7.07344 39.3328 6.81981 39.6161 6.60241 39.8994C6.42125 39.7577 6.24008 39.6161 6.09515 39.4744C6.09515 39.4744 6.05891 39.4744 6.05891 39.5098C6.24008 39.6515 6.42125 39.7932 6.60241 39.9348C6.27631 40.3598 5.91398 40.7847 5.55165 41.2097C5.18931 40.9264 4.82698 40.6431 4.50088 40.3952L4.46465 40.4306C4.79075 40.6785 5.11685 40.9618 5.51541 41.2805C5.18931 41.7055 4.82698 42.1304 4.46465 42.5554C3.99361 42.2013 3.59505 41.8471 3.23271 41.5638L3.19648 41.5992C3.55881 41.918 3.99361 42.2367 4.42841 42.5908C4.10231 43.0158 3.73998 43.4407 3.41388 43.8657C3.41388 43.8657 3.41388 43.8657 3.37765 43.9011C2.94285 43.547 2.54428 43.2283 2.18195 42.9449C2.18195 42.9449 2.18195 42.9804 2.14572 42.9804C2.50805 43.2637 2.90661 43.5824 3.30518 43.9365C2.94285 44.3615 2.61675 44.8219 2.25441 45.2114C1.96455 44.9635 1.67468 44.751 1.42105 44.5386V44.574C1.67468 44.7864 1.92832 44.9989 2.21818 45.2114C1.85585 45.6364 1.52975 46.0967 1.16742 46.4863C1.13118 46.4509 1.09495 46.4155 1.05872 46.4155C1.05872 46.4509 1.05872 46.4509 1.05872 46.4863C1.09495 46.5217 1.09495 46.5217 1.13118 46.5571C1.09495 46.5925 1.09495 46.6279 1.05872 46.6634C1.05872 46.6988 1.05872 46.7342 1.05872 46.7696C1.09495 46.6988 1.13118 46.6634 1.20365 46.5925C1.52975 46.8404 1.85585 47.1237 2.18195 47.3716C1.85585 47.7612 1.52975 48.1861 1.23988 48.5403C1.23988 48.5757 1.23988 48.6111 1.23988 48.6111C1.56598 48.2215 1.89208 47.7966 2.21818 47.3716C2.61675 47.6903 3.01531 48.0091 3.45011 48.3632C3.08778 48.7882 2.76168 49.2485 2.43558 49.6381C2.03701 49.3194 1.63845 49.0006 1.27612 48.7173C1.27612 48.7527 1.27612 48.7882 1.31235 48.8236C1.67468 49.1069 2.03702 49.3902 2.39935 49.7089C2.21818 49.9568 2.00078 50.2047 1.81962 50.4172C1.81962 50.4526 1.85585 50.4526 1.85585 50.488C2.03702 50.2401 2.25441 49.9922 2.47181 49.7443C2.87038 50.063 3.26895 50.3818 3.70375 50.7359C3.34141 51.1963 3.01531 51.6212 2.68921 52.0108C2.72545 52.0816 2.76168 52.1524 2.79791 52.1878C3.16025 52.4712 3.55881 52.7899 3.92115 53.1086C3.84868 53.2148 3.77621 53.2857 3.70375 53.3919L3.73998 53.4273C3.81245 53.3211 3.88491 53.2503 3.95738 53.144C4.35595 53.4627 4.75451 53.7815 5.18931 54.1356C5.08061 54.2772 4.97191 54.4189 4.86321 54.5605L4.89945 54.596C5.00815 54.4543 5.11685 54.3127 5.22555 54.171C5.62411 54.4897 6.05891 54.8084 6.45748 55.1626C6.34878 55.3042 6.24008 55.4459 6.13138 55.5875L6.16761 55.623C6.27631 55.4813 6.38501 55.3396 6.49371 55.2334C6.85605 55.5167 7.18215 55.8 7.54448 56.0833C7.61694 56.1187 7.65318 56.1896 7.72564 56.225C7.65318 56.3312 7.58071 56.402 7.50824 56.5083L7.54448 56.5437C7.61694 56.4375 7.68941 56.3666 7.76188 56.2604C8.16044 56.5791 8.59524 56.9332 8.99381 57.252L8.95758 57.2874C8.99381 57.2874 8.99381 57.3228 9.03004 57.3228L9.06628 57.2874C9.13874 57.3228 9.17498 57.3936 9.24744 57.429C9.35614 57.4645 9.42861 57.5353 9.53731 57.5707C9.39238 57.4644 9.24744 57.3228 9.10251 57.2166C9.42861 56.827 9.79094 56.402 10.117 55.9417C10.5156 56.2604 10.9504 56.6145 11.349 56.9332C11.0591 57.2874 10.7692 57.6415 10.4794 57.9956C10.5156 57.9956 10.5156 57.9957 10.5518 58.0311C10.8055 57.7123 11.0953 57.3582 11.3852 57.0041C11.82 57.3228 12.2186 57.6769 12.6171 57.9956C12.436 58.2081 12.291 58.4206 12.1099 58.5977C12.1461 58.5977 12.1461 58.5977 12.1823 58.6331C12.3273 58.456 12.5084 58.2435 12.6534 58.0311C13.0519 58.3498 13.4867 58.6685 13.8491 58.9872C13.8853 58.9872 13.9215 58.9872 13.994 59.0226C14.3201 58.5977 14.6824 58.1727 15.0085 57.7478C15.4433 58.1019 15.8419 58.4206 16.2405 58.7393C16.1318 58.881 15.9868 59.0226 15.8781 59.1997C15.9144 59.1997 15.9506 59.1997 15.9868 59.1997C16.0955 59.0581 16.2042 58.9164 16.3129 58.8102C16.4579 58.9164 16.6028 59.0581 16.7477 59.1643C16.784 59.1643 16.8202 59.1643 16.8202 59.1643C16.639 59.0226 16.4941 58.9164 16.3129 58.7747C16.639 58.3498 17.0014 57.9248 17.3637 57.4999C17.7985 57.854 18.1971 58.1727 18.5956 58.4914C18.4869 58.6331 18.342 58.8102 18.2333 58.9518C18.2695 58.9518 18.3058 58.9164 18.342 58.9164C18.4507 58.7747 18.5594 58.6685 18.6681 58.5268C18.7768 58.5977 18.8493 58.6685 18.9217 58.7393C18.958 58.7393 18.958 58.7393 18.9942 58.7039C18.8855 58.6331 18.813 58.5623 18.7043 58.456C18.9217 58.1727 19.1754 57.8894 19.3928 57.6061C19.5015 57.4645 19.6102 57.3228 19.7551 57.1811C20.0812 57.429 20.4073 57.7123 20.6972 57.9248L20.7334 57.8894C20.4435 57.6415 20.1174 57.3936 19.7551 57.1103C20.1174 56.6854 20.4435 56.2604 20.8059 55.8354C21.2769 56.225 21.7117 56.5437 22.1103 56.8978L22.1465 56.8624C21.7479 56.5437 21.2769 56.1896 20.8421 55.8C21.2044 55.3751 21.5305 54.9147 21.8929 54.5251C22.3639 54.9147 22.8349 55.2688 23.2697 55.623C23.2697 55.623 23.2697 55.5875 23.306 55.5875C22.8712 55.2334 22.4364 54.8793 21.9653 54.4897C22.3277 54.0293 22.6538 53.6044 23.0161 53.2148C23.3422 53.4627 23.6321 53.7106 23.9582 53.9585C23.9582 53.9231 23.9582 53.9231 23.9582 53.8877C23.6683 53.6398 23.3784 53.3919 23.0523 53.144C23.4147 52.6836 23.777 52.2587 24.1031 51.8691C24.1393 51.9045 24.1756 51.94 24.2118 51.9754C24.2118 51.94 24.2118 51.94 24.2118 51.9045C24.1756 51.8691 24.1756 51.8691 24.1393 51.8337C24.1756 51.7983 24.1756 51.7629 24.2118 51.7275C24.248 51.515 24.248 51.4796 24.248 51.4442ZM23.8857 49.284C23.5596 49.6735 23.2335 50.0985 22.8349 50.5588C22.4364 50.2401 22.0378 49.9214 21.603 49.5673C21.9653 49.1069 22.3277 48.6819 22.6175 48.2924C23.0886 48.6465 23.4871 48.9652 23.8857 49.284ZM7.03721 46.7342C7.43578 47.0529 7.83434 47.3716 8.26914 47.7258C8.23291 47.7612 8.23291 47.7612 8.19668 47.7966C7.87058 48.1861 7.54448 48.6111 7.21838 49.0006C6.78358 48.6819 6.38501 48.3278 5.98645 48.0091C6.31255 47.6195 6.63865 47.1946 7.00098 46.7696L7.03721 46.7342ZM9.64601 48.7173C10.0083 48.2924 10.3344 47.8674 10.6605 47.4425C11.0591 47.7612 11.4577 48.0799 11.8925 48.434C11.5664 48.859 11.204 49.284 10.8779 49.7089C10.4431 49.3902 10.0446 49.0361 9.64601 48.7173ZM10.8055 49.7797C10.7692 49.8152 10.733 49.886 10.6968 49.9214C10.4069 50.3109 10.0808 50.6651 9.79094 51.0546C9.39238 50.7359 8.95758 50.3818 8.55901 50.063C8.84888 49.6735 9.17498 49.2839 9.50108 48.8944C9.53731 48.859 9.57354 48.8236 9.60978 48.7882C10.0083 49.1069 10.4069 49.4256 10.8055 49.7797ZM14.5013 48.257C14.4288 48.2215 14.3926 48.1861 14.3201 48.1153C14.6824 47.6903 15.0085 47.2654 15.3346 46.8404C15.4071 46.9112 15.4796 46.9467 15.552 47.0175C15.8781 47.3008 16.2042 47.5487 16.5666 47.832C16.2405 48.257 15.8781 48.6819 15.552 49.1069C15.2259 48.8236 14.8636 48.5403 14.5013 48.257ZM15.5158 49.1777C15.1897 49.6027 14.8274 50.0276 14.5013 50.4526C14.1389 50.1693 13.7404 49.8506 13.378 49.5318C13.3418 49.4964 13.3056 49.4964 13.2693 49.461C13.6317 49.0361 13.9578 48.6111 14.2839 48.1861C14.3563 48.2215 14.3926 48.257 14.465 48.3278C14.8274 48.6111 15.1897 48.8944 15.5158 49.1777ZM14.2839 48.0799C13.8853 47.7612 13.4505 47.407 13.0519 47.0883C13.4143 46.6634 13.7404 46.2384 14.0665 45.8134C14.465 46.1322 14.8636 46.4509 15.2984 46.805C15.0085 47.23 14.6462 47.6549 14.2839 48.0799ZM14.2476 48.1507C13.9215 48.5757 13.5592 49.0006 13.2331 49.4256C12.8345 49.1069 12.3997 48.7527 12.0012 48.434C12.3635 48.0091 12.6896 47.5841 13.0157 47.1591C13.4143 47.4779 13.8491 47.7966 14.2476 48.1507ZM11.9287 48.3986C11.5301 48.0799 11.0953 47.7258 10.6968 47.407C11.0591 46.9821 11.3852 46.5571 11.7113 46.1322C12.1099 46.4509 12.5084 46.7696 12.9432 47.1237C12.6171 47.5133 12.291 47.9382 11.9287 48.3986ZM10.6605 47.3362C10.2257 47.0175 9.82718 46.6634 9.42861 46.3446C9.79094 45.9197 10.117 45.4947 10.4431 45.0698C10.8417 45.3885 11.2403 45.7072 11.6751 46.0613C11.349 46.4863 11.0229 46.9113 10.6605 47.3362ZM10.6243 47.407C10.2982 47.832 9.93588 48.257 9.60978 48.6819C9.21121 48.3632 8.77641 48.0091 8.37784 47.6903C8.74018 47.2654 9.06628 46.8404 9.39238 46.4155C9.79094 46.7342 10.1895 47.0883 10.6243 47.407ZM11.9649 48.4694C12.3635 48.7882 12.7621 49.1069 13.1969 49.461C12.8708 49.886 12.5084 50.3109 12.1823 50.7359C11.7838 50.4172 11.349 50.063 10.9504 49.7443C11.2765 49.3194 11.6026 48.8944 11.9649 48.4694ZM13.2331 49.5318C13.2693 49.5673 13.3056 49.5673 13.3418 49.6027C13.7404 49.9214 14.1027 50.2047 14.465 50.5234C14.1389 50.9484 13.7766 51.3733 13.4505 51.7983C13.0519 51.4796 12.6534 51.1609 12.2548 50.8421C12.2548 50.8421 12.2186 50.8421 12.2186 50.8067C12.5447 50.3464 12.907 49.9214 13.2331 49.5318ZM14.5013 50.5588C14.8998 50.8776 15.3346 51.2317 15.7332 51.5504C15.4071 51.9754 15.0448 52.4003 14.7187 52.8253C14.3201 52.5066 13.9215 52.1878 13.4867 51.8337C13.8491 51.3733 14.1752 50.9484 14.5013 50.5588ZM14.5737 50.488C14.9361 50.063 15.2622 49.6381 15.5883 49.2131C15.9868 49.5318 16.4216 49.886 16.8202 50.2047C16.4941 50.6297 16.1318 51.0546 15.8057 51.4796C15.3709 51.1609 14.9723 50.8067 14.5737 50.488ZM16.8564 50.2401C17.2912 50.5588 17.6898 50.913 18.0884 51.2317C17.7623 51.6567 17.3999 52.0816 17.0738 52.5066C16.6753 52.1878 16.2767 51.8691 15.8419 51.515C16.2042 51.09 16.5303 50.6651 16.8564 50.2401ZM16.9289 50.1693C17.2912 49.7443 17.6173 49.3194 17.9434 48.8944C18.3782 49.2131 18.7768 49.5673 19.1754 49.886C18.8493 50.3109 18.4869 50.7359 18.1608 51.1609C17.726 50.8421 17.3275 50.5234 16.9289 50.1693ZM16.8564 50.1339C16.4579 49.8152 16.0593 49.4964 15.6245 49.1423C15.9868 48.7173 16.3129 48.2924 16.639 47.8674C17.0376 48.1861 17.4724 48.5403 17.871 48.859C17.5449 49.284 17.2188 49.7089 16.8564 50.1339ZM16.7115 47.832C17.0738 47.3716 17.3999 46.9467 17.726 46.5571C18.1608 46.8758 18.5594 47.23 18.958 47.5487C18.6319 47.9382 18.3058 48.3632 17.9434 48.8236C17.5449 48.4694 17.1101 48.1507 16.7115 47.832ZM16.639 47.7966C16.3129 47.5487 15.9868 47.2654 15.6245 46.9821C15.552 46.9113 15.4796 46.8404 15.4071 46.805C15.7694 46.3446 16.0955 45.9197 16.4216 45.5301C16.5303 45.601 16.639 45.7072 16.7115 45.778C17.0376 46.0259 17.3275 46.2738 17.6536 46.5217C17.3637 46.9113 17.0014 47.3362 16.639 47.7966ZM15.3709 46.7342C14.9723 46.4155 14.5375 46.0613 14.1389 45.7426C14.5013 45.2822 14.8274 44.8573 15.1535 44.4677C15.552 44.7864 15.9868 45.1406 16.3854 45.4593C16.0593 45.8843 15.7332 46.3092 15.3709 46.7342ZM14.1027 45.7072C13.6679 45.3885 13.2693 45.0343 12.8708 44.7156C13.2331 44.2552 13.5592 43.8303 13.8853 43.4407C14.2839 43.7595 14.7187 44.1136 15.1172 44.4323C14.7911 44.8573 14.465 45.2822 14.1027 45.7072ZM14.0302 45.778C13.7041 46.203 13.3418 46.6279 13.0157 47.0529C12.6171 46.7342 12.1823 46.38 11.7838 46.0613C12.1461 45.6364 12.4722 45.2114 12.7983 44.7864C13.1969 45.1052 13.6317 45.4593 14.0302 45.778ZM11.7475 46.0259C11.3127 45.7072 10.9142 45.3531 10.5156 45.0343C10.8779 44.6094 11.204 44.1844 11.5301 43.7595C11.9287 44.0782 12.3273 44.3969 12.7621 44.751C12.436 45.176 12.0736 45.601 11.7475 46.0259ZM10.4431 44.9989C10.0083 44.6802 9.60978 44.3261 9.21121 44.0073C9.57354 43.5824 9.89964 43.122 10.2257 42.7325C10.6243 43.0512 11.0229 43.3699 11.4577 43.724C11.1316 44.1136 10.8055 44.5386 10.4431 44.9989ZM10.4069 45.0343C10.0808 45.4593 9.71848 45.8843 9.39238 46.3092C8.95758 45.9905 8.55901 45.6364 8.16044 45.3177C8.52278 44.8927 8.84888 44.4677 9.17498 44.0428C9.57354 44.3969 9.97211 44.7156 10.4069 45.0343ZM8.08798 45.2822C7.65318 44.9281 7.25461 44.6094 6.85605 44.2907C7.21838 43.8657 7.54448 43.4407 7.87058 43.0158C8.26914 43.3345 8.66771 43.6532 9.10251 44.0073C8.77641 44.4323 8.45031 44.8573 8.08798 45.2822ZM8.05174 45.3531C7.72564 45.778 7.36331 46.203 7.03721 46.6279C6.60241 46.2738 6.20385 45.9551 5.80528 45.6364C6.16761 45.2114 6.49371 44.7864 6.85605 44.3615C7.21838 44.6802 7.61694 44.9989 8.05174 45.3531ZM8.08798 45.3885C8.48654 45.7072 8.88511 46.0259 9.31991 46.3801C8.99381 46.805 8.63148 47.23 8.30538 47.6549C7.87058 47.3362 7.47201 46.9821 7.07345 46.6634C7.43578 46.2384 7.76188 45.8134 8.08798 45.3885ZM8.26914 47.832C8.30538 47.7966 8.30538 47.7966 8.34161 47.7612C8.74018 48.0799 9.13874 48.3986 9.57354 48.7528C9.53731 48.7882 9.50108 48.8236 9.46484 48.859C9.13874 49.2485 8.84888 49.6381 8.52278 50.0276C8.12421 49.7089 7.68941 49.3548 7.29084 49.0361C7.61694 48.6465 7.90681 48.257 8.26914 47.832ZM8.45031 50.063C8.08798 50.488 7.76188 50.913 7.43578 51.3379C7.00098 51.0192 6.60241 50.6651 6.20385 50.3464C6.52994 49.9214 6.89228 49.4964 7.21838 49.0715C7.65318 49.4256 8.05174 49.7443 8.45031 50.063ZM8.52278 50.1339C8.92134 50.4526 9.31991 50.7713 9.75471 51.1254C9.39238 51.5504 9.06628 51.9754 8.74018 52.4003C8.34161 52.0816 7.90681 51.7275 7.50824 51.4088C7.83434 50.9838 8.16044 50.5588 8.52278 50.1339ZM9.79094 51.1609C10.1895 51.4796 10.5881 51.7983 11.0229 52.1524C10.6605 52.5774 10.3344 53.0024 10.0083 53.4273L9.97211 53.3919C9.57354 53.0732 9.17498 52.7545 8.81264 52.4357C9.10251 52.0108 9.46484 51.5858 9.79094 51.1609ZM9.86341 51.09C10.1533 50.7359 10.4431 50.3464 10.7692 49.9568C10.8055 49.9214 10.8417 49.8506 10.8779 49.8152C11.2765 50.1339 11.6751 50.4526 12.1099 50.8067C12.0736 50.8776 12.0012 50.9484 11.9649 50.9838C11.6751 51.3379 11.3852 51.6921 11.0953 52.0816C10.6605 51.7275 10.262 51.4088 9.86341 51.09ZM12.0012 51.0546C12.0374 50.9838 12.1099 50.913 12.1461 50.8776C12.1461 50.8776 12.1461 50.8776 12.1823 50.913C12.5809 51.2317 12.9795 51.5504 13.378 51.8691C13.3056 51.94 13.2693 52.0108 13.1969 52.117C12.907 52.4712 12.6171 52.8253 12.3635 53.144C11.9649 52.8253 11.5664 52.5066 11.1316 52.1524C11.4214 51.7629 11.7113 51.4088 12.0012 51.0546ZM13.2693 52.117C13.3418 52.0462 13.378 51.9754 13.4505 51.8691C13.8491 52.1879 14.2839 52.542 14.6824 52.8607C14.61 52.9669 14.5375 53.0378 14.465 53.144C14.1752 53.4981 13.9215 53.8169 13.6679 54.1356C13.2693 53.8169 12.8708 53.4981 12.436 53.144C12.6896 52.7899 12.9795 52.4712 13.2693 52.117ZM14.5013 53.1794C14.5737 53.0732 14.6462 53.0024 14.7187 52.8961C15.1172 53.2148 15.552 53.569 15.9506 53.8877C15.8781 53.9939 15.7694 54.1002 15.697 54.2064C15.4433 54.5251 15.1897 54.8439 14.9361 55.1626C14.5375 54.8439 14.1389 54.5251 13.7041 54.171C13.9578 53.8523 14.2476 53.4981 14.5013 53.1794ZM14.7549 52.8607C15.1172 52.4357 15.4433 52.0108 15.7694 51.5858C16.168 51.9045 16.6028 52.2587 17.0014 52.5774C16.6753 53.0024 16.3129 53.4273 15.9868 53.8523C15.5883 53.4981 15.1897 53.1794 14.7549 52.8607ZM17.0738 52.6128C17.5086 52.9315 17.9072 53.2857 18.3058 53.6044C17.9797 54.0293 17.6173 54.4543 17.2912 54.8793C16.8927 54.5606 16.4941 54.2418 16.0593 53.8877C16.3854 53.4273 16.7477 53.0024 17.0738 52.6128ZM17.1101 52.542C17.4724 52.117 17.7985 51.6921 18.1246 51.2671C18.5594 51.5858 18.958 51.94 19.3565 52.2587C19.0304 52.6836 18.6681 53.1086 18.342 53.5336C17.9434 53.2148 17.5449 52.8961 17.1101 52.542ZM18.1971 51.1963C18.5594 50.7713 18.8855 50.3109 19.2116 49.9214C19.6464 50.2755 20.045 50.5942 20.4435 50.913C20.1174 51.3379 19.7551 51.7629 19.429 52.1878C19.0304 51.8691 18.6319 51.5504 18.1971 51.1963ZM19.2841 49.886C19.6464 49.4256 19.9725 49.0006 20.2986 48.6111C20.7334 48.9652 21.132 49.2839 21.5305 49.6027C21.2044 49.9922 20.8783 50.4172 20.516 50.8776C20.0812 50.5588 19.6826 50.2047 19.2841 49.886ZM19.2116 49.8506C18.813 49.5318 18.4145 49.2131 17.9797 48.859C18.342 48.3986 18.6681 47.9737 18.9942 47.5841C19.429 47.9382 19.8276 48.257 20.2261 48.5757C19.9363 48.9652 19.5739 49.3902 19.2116 49.8506ZM19.0667 47.5133C19.429 47.0529 19.7913 46.6279 20.0812 46.2384C20.516 46.5925 20.9146 46.9113 21.3131 47.23C20.987 47.6195 20.6609 48.0445 20.2986 48.5049C19.9 48.1861 19.4652 47.8674 19.0667 47.5133ZM18.9942 47.4779C18.5956 47.1591 18.1608 46.805 17.7623 46.4863C18.1246 46.0259 18.4869 45.601 18.7768 45.2114C19.2116 45.5655 19.6102 45.8843 20.0087 46.203C19.7189 46.5925 19.3928 47.0175 18.9942 47.4779ZM17.726 46.4509C17.4362 46.203 17.1101 45.9551 16.784 45.7072C16.6753 45.6364 16.5666 45.5301 16.4941 45.4593C16.8564 44.9989 17.2188 44.574 17.5086 44.1844C17.6173 44.2907 17.7623 44.3969 17.871 44.4677C18.1608 44.7156 18.4507 44.9281 18.7406 45.176C18.4507 45.5655 18.0884 45.9905 17.726 46.4509ZM16.4579 45.4239C16.0231 45.1052 15.6245 44.751 15.2259 44.4323C15.5883 43.9719 15.9506 43.547 16.2405 43.1574C16.639 43.4762 17.0738 43.8303 17.4724 44.149C17.1463 44.5386 16.8202 44.9635 16.4579 45.4239ZM15.1535 44.3969C14.7187 44.0782 14.3201 43.724 13.9215 43.4053C14.2839 42.9449 14.6462 42.52 14.9361 42.1304C15.3346 42.4492 15.7694 42.8033 16.168 43.122C15.8781 43.5116 15.552 43.9365 15.1535 44.3969ZM13.8853 43.3699C13.4505 43.0158 13.0519 42.6971 12.6534 42.3783C13.0157 41.918 13.378 41.493 13.6679 41.1035C14.0665 41.4222 14.5013 41.7763 14.8998 42.095C14.61 42.4846 14.2476 42.9095 13.8853 43.3699ZM13.8491 43.4053C13.523 43.7949 13.1969 44.2198 12.8345 44.6802C12.3997 44.3615 12.0012 44.0074 11.6026 43.6886C11.9649 43.2283 12.291 42.8033 12.6171 42.4137C13.0157 42.7679 13.4143 43.0866 13.8491 43.4053ZM11.5301 43.6532C11.0953 43.2991 10.6968 42.9804 10.2982 42.6616C10.6605 42.2013 10.9866 41.7763 11.3127 41.3868C11.7113 41.7055 12.1099 42.0242 12.5447 42.3783C12.2186 42.8033 11.8925 43.2283 11.5301 43.6532ZM10.2257 42.6262C9.79094 42.2721 9.39238 41.9534 8.99381 41.6347C9.35614 41.1743 9.68224 40.7493 10.0083 40.3598C10.4069 40.6785 10.8055 40.9972 11.2403 41.3513C10.9504 41.7763 10.5881 42.2013 10.2257 42.6262ZM10.1895 42.6971C9.86341 43.122 9.50108 43.547 9.17498 43.9719C8.74018 43.6178 8.34161 43.2991 7.94304 42.9804C8.30538 42.5554 8.63148 42.095 8.95758 41.7055C9.35614 42.0242 9.75471 42.3429 10.1895 42.6971ZM7.87058 42.9449C7.43578 42.5908 7.03721 42.2721 6.63865 41.9534C7.00098 41.493 7.32708 41.068 7.68941 40.6785C8.08798 40.9972 8.48654 41.3159 8.92134 41.6701C8.59524 42.0596 8.23291 42.4846 7.87058 42.9449ZM7.83434 42.9804C7.50824 43.4053 7.14591 43.8303 6.78358 44.2552C6.34878 43.9011 5.95021 43.5824 5.55165 43.2637C5.91398 42.8387 6.24008 42.3783 6.60241 41.9888C7.00098 42.3075 7.39954 42.6616 7.83434 42.9804ZM6.78358 44.3261C6.45748 44.751 6.09515 45.176 5.73281 45.601C5.29801 45.2468 4.89945 44.9281 4.50088 44.6094C4.86321 44.1844 5.18931 43.7595 5.55165 43.3345C5.91398 43.6532 6.34878 43.9719 6.78358 44.3261ZM5.69658 45.6364C5.33425 46.0613 5.00815 46.4863 4.64581 46.9113C4.21101 46.5571 3.81245 46.2384 3.41388 45.9197C3.73998 45.4947 4.10231 45.0698 4.46465 44.6448C4.86321 44.9635 5.26178 45.3176 5.69658 45.6364ZM5.73281 45.7072C6.13138 46.0259 6.52995 46.3446 6.96475 46.6988L6.92851 46.7342C6.60241 47.1591 6.24008 47.5841 5.91398 47.9737C5.47918 47.6195 5.08061 47.3008 4.68205 46.9821C5.04438 46.5571 5.40671 46.1322 5.73281 45.7072ZM5.91398 48.0091C5.55165 48.434 5.22555 48.859 4.89945 49.284C4.46465 48.9298 4.06608 48.6111 3.66751 48.2924C3.99361 47.8674 4.35595 47.4425 4.71828 47.0175C5.08061 47.3362 5.47918 47.6903 5.91398 48.0091ZM5.95021 48.0445C6.34878 48.3632 6.74734 48.6819 7.18215 49.0361C6.81981 49.461 6.49371 49.886 6.16761 50.3109C5.73281 49.9922 5.33425 49.6381 4.93568 49.3194C5.26178 48.9298 5.62411 48.5049 5.95021 48.0445ZM6.09515 50.3818C5.73281 50.8067 5.40671 51.2317 5.08061 51.6566C4.64581 51.3025 4.24725 50.9838 3.84868 50.6651C4.17478 50.2401 4.53711 49.8152 4.86321 49.3902C5.29801 49.7089 5.69658 50.0276 6.09515 50.3818ZM6.16761 50.4172C6.56618 50.7359 6.96475 51.0546 7.39954 51.4088C7.03721 51.8337 6.71111 52.2587 6.38501 52.6836C5.95021 52.3649 5.55165 52.0108 5.15308 51.6921C5.47918 51.2671 5.80528 50.8421 6.16761 50.4172ZM7.43578 51.4442C7.83434 51.7629 8.23291 52.0816 8.66771 52.4357C8.30538 52.8607 7.97928 53.2857 7.65318 53.7106C7.25461 53.3919 6.81981 53.0378 6.42125 52.7191C6.74734 52.3295 7.10968 51.9045 7.43578 51.4442ZM8.74018 52.4712C9.13874 52.7899 9.50108 53.1086 9.89964 53.4273L9.93588 53.4627C9.57354 53.8877 9.24744 54.3127 8.92134 54.7376C8.88511 54.7022 8.84888 54.6668 8.81264 54.6314C8.45031 54.3481 8.05174 54.0293 7.68941 53.746C8.01551 53.3565 8.37784 52.9315 8.74018 52.4712ZM10.0083 53.4981C10.4069 53.8169 10.8417 54.171 11.2403 54.4897C10.8779 54.9147 10.5518 55.3396 10.2257 55.7646C9.82718 55.4459 9.42861 55.1272 8.99381 54.773C9.31991 54.3835 9.64601 53.9585 10.0083 53.4981ZM10.0446 53.4627C10.3707 53.0378 10.733 52.6128 11.0591 52.1878C11.4577 52.5066 11.8925 52.8607 12.291 53.1794C11.9287 53.6044 11.6026 54.0293 11.2765 54.4543C10.8779 54.1002 10.4794 53.7815 10.0446 53.4627ZM12.3635 53.2148C12.7621 53.5336 13.1969 53.8877 13.5954 54.2064C13.2331 54.6314 12.907 55.0563 12.5809 55.4813C12.1823 55.1626 11.7838 54.8439 11.349 54.4897C11.6751 54.0648 12.0012 53.6398 12.3635 53.2148ZM13.6679 54.2418C14.0665 54.5606 14.5013 54.9147 14.8998 55.2334C14.5375 55.6584 14.2114 56.0833 13.8853 56.5083C13.4867 56.1896 13.0882 55.8708 12.6534 55.5167C12.9432 55.0917 13.3056 54.6668 13.6679 54.2418ZM14.9361 55.2688C15.3709 55.5875 15.7694 55.9417 16.168 56.2604C15.8057 56.6854 15.4796 57.1103 15.1535 57.5353C14.7549 57.2166 14.3563 56.8978 13.9215 56.5437C14.2476 56.1187 14.5737 55.6938 14.9361 55.2688ZM14.9723 55.198C15.2259 54.8793 15.4796 54.5606 15.7694 54.2418C15.8419 54.1356 15.9506 54.0293 16.0231 53.9231C16.4579 54.2418 16.8564 54.596 17.255 54.9147C17.1463 55.0209 17.0738 55.1626 16.9651 55.2688C16.7115 55.5875 16.4579 55.9063 16.2042 56.1896C15.8057 55.8708 15.4071 55.5521 14.9723 55.198ZM17.0014 55.3042C17.1101 55.198 17.1825 55.0563 17.2912 54.9501C17.726 55.3042 18.1246 55.623 18.5232 55.9417C18.4145 56.0833 18.3058 56.1896 18.1971 56.3312C17.9434 56.6145 17.726 56.9332 17.4724 57.2166C17.0738 56.8978 16.6753 56.5791 16.2405 56.225C16.4941 55.9417 16.7477 55.623 17.0014 55.3042ZM17.3275 54.9147C17.6898 54.4897 18.0159 54.0648 18.342 53.6398C18.7768 53.9939 19.1754 54.3127 19.5739 54.6314C19.2478 55.0563 18.8855 55.4813 18.5232 55.9063C18.1608 55.5875 17.7623 55.2334 17.3275 54.9147ZM18.4145 53.569C18.7768 53.144 19.1029 52.7191 19.429 52.2941C19.8638 52.6482 20.2624 52.9669 20.6609 53.2857C20.3348 53.7106 19.9725 54.1356 19.6102 54.5605C19.2478 54.2418 18.813 53.9231 18.4145 53.569ZM19.4652 52.2587C19.8276 51.8337 20.1537 51.3733 20.4798 50.9838C20.9146 51.3379 21.3131 51.6566 21.7117 51.9754C21.3856 52.4003 21.0233 52.8253 20.6609 53.2503C20.2986 52.8961 19.9 52.5774 19.4652 52.2587ZM20.5522 50.913C20.9146 50.4526 21.2407 50.0276 21.5668 49.6381C22.0016 49.9922 22.4001 50.3109 22.7987 50.6297C22.4726 51.0192 22.1103 51.4442 21.7479 51.9045C21.3856 51.5858 20.987 51.2671 20.5522 50.913ZM22.6175 48.257C22.2914 48.6465 21.9653 49.0715 21.5668 49.5318C21.1682 49.2131 20.7696 48.8944 20.3348 48.5403C20.6972 48.0799 21.0595 47.6549 21.3494 47.2654C21.7842 47.6195 22.219 47.9382 22.6175 48.257ZM22.4001 45.9197C22.1103 46.2738 21.7842 46.6988 21.3494 47.1946C20.9508 46.8758 20.516 46.5217 20.1174 46.203C20.516 45.7072 20.8421 45.2822 21.132 44.9281C21.5668 45.2468 22.0016 45.5655 22.4001 45.9197ZM21.132 44.8927C20.8421 45.2468 20.516 45.6718 20.0812 46.1676C19.6826 45.8488 19.2478 45.4947 18.8493 45.176C19.2478 44.6802 19.5739 44.2552 19.8638 43.9011C20.2986 44.2198 20.6972 44.5386 21.132 44.8927ZM19.0304 43.1928C19.2841 43.4053 19.5739 43.6178 19.8276 43.8303C19.5377 44.1844 19.2116 44.6094 18.813 45.1052C18.5232 44.8573 18.2333 44.6448 17.9434 44.3969C17.8347 44.2907 17.6898 44.1844 17.5811 44.1136C17.9797 43.6178 18.3058 43.1928 18.5956 42.8387C18.7406 42.9804 18.8855 43.0866 19.0304 43.1928ZM18.5594 42.8387C18.2695 43.1928 17.9072 43.6178 17.5449 44.1136C17.1101 43.7595 16.7115 43.4407 16.3129 43.122C16.7115 42.6262 17.0376 42.2013 17.3275 41.8471C17.726 42.1659 18.1246 42.4846 18.5594 42.8387ZM17.255 41.8117C16.9651 42.1659 16.6028 42.5908 16.2405 43.0866C15.8057 42.7325 15.4071 42.4137 15.0085 42.095C15.4071 41.5992 15.7332 41.1743 16.0231 40.8201C16.4216 41.1034 16.8564 41.4576 17.255 41.8117ZM14.7549 39.7577C15.1535 40.0765 15.5883 40.4306 16.0231 40.7493C15.7332 41.1035 15.3709 41.5284 14.9723 42.0242C14.5375 41.6701 14.1389 41.3513 13.7404 41.0326C14.1027 40.5368 14.465 40.1119 14.7549 39.7577ZM13.6317 41.068C13.3056 41.4576 12.9795 41.8825 12.6171 42.3429C12.1823 41.9888 11.7838 41.6701 11.3852 41.3513C11.7475 40.891 12.1099 40.466 12.3997 40.0765C12.7983 40.3952 13.1969 40.7139 13.6317 41.068ZM11.0953 39.0495C11.4939 39.3682 11.8925 39.6869 12.3273 40.041C12.0012 40.4306 11.6751 40.8556 11.2765 41.3159C10.8417 40.9618 10.4431 40.6431 10.0446 40.3244C10.4431 39.864 10.8055 39.439 11.0953 39.0495ZM8.74018 39.3328C9.13874 39.6515 9.53731 39.9702 9.97211 40.3244C9.64601 40.7139 9.28368 41.1389 8.92134 41.5992C8.48654 41.2451 8.08798 40.9264 7.68941 40.6077C8.08798 40.1827 8.41408 39.7577 8.74018 39.3328ZM6.63865 39.8286C6.96475 40.0765 7.29084 40.3598 7.61694 40.6077C7.29084 41.0326 6.92851 41.4576 6.56618 41.8825C6.20385 41.5992 5.87775 41.3513 5.58788 41.1035C5.95021 40.6785 6.31255 40.2535 6.63865 39.8286ZM5.58788 41.1743C5.91398 41.4222 6.24008 41.7055 6.56618 41.9534C6.24008 42.3783 5.87775 42.8033 5.51541 43.2283C5.15308 42.9449 4.82698 42.6971 4.53711 42.4492C4.89945 42.0242 5.22555 41.5992 5.58788 41.1743ZM3.48635 43.7595C3.84868 43.3345 4.17478 42.9095 4.50088 42.4846C4.82698 42.7325 5.15308 43.0158 5.47918 43.2637C5.15308 43.6886 4.79075 44.1136 4.42841 44.5386C4.10231 44.2907 3.77621 44.0428 3.48635 43.7595C3.45011 43.7949 3.48635 43.7595 3.48635 43.7595ZM3.41388 43.8303C3.73998 44.0782 4.06608 44.3615 4.39218 44.6094C4.02985 45.0343 3.70375 45.4593 3.34141 45.8843C3.01531 45.601 2.65298 45.3531 2.36311 45.1052C2.72545 44.6802 3.08778 44.2552 3.41388 43.8303ZM1.31235 46.4509C1.63845 46.0259 2.00078 45.601 2.36311 45.176C2.68921 45.4239 3.01531 45.7072 3.34141 45.9551C2.97908 46.38 2.65298 46.8404 2.29065 47.23C1.96455 46.9467 1.63845 46.6988 1.31235 46.4509ZM2.36311 47.2654C2.68921 46.8404 3.05155 46.4155 3.41388 45.9905C3.81245 46.3092 4.21101 46.6279 4.64581 46.9821C4.28348 47.407 3.95738 47.832 3.63128 48.257C3.16025 47.9382 2.76168 47.5841 2.36311 47.2654ZM2.58051 49.6381C2.90661 49.2131 3.26895 48.7882 3.63128 48.3632C4.02985 48.6819 4.42841 49.0006 4.86321 49.3548C4.50088 49.7797 4.17478 50.2401 3.84868 50.6297C3.37765 50.2755 2.97908 49.9568 2.58051 49.6381ZM2.76168 52.0108C3.08778 51.6212 3.45011 51.1963 3.77621 50.7359C4.17478 51.0546 4.57335 51.3733 5.00815 51.7275C4.64581 52.1878 4.31971 52.6128 3.99361 53.0024C3.59505 52.6482 3.19648 52.3295 2.76168 52.0108ZM4.06608 53.0378C4.39218 52.6482 4.75451 52.2233 5.08061 51.7629C5.47918 52.0816 5.87775 52.4003 6.31255 52.7545C5.95021 53.2148 5.62411 53.6398 5.29801 54.0293C4.86321 53.6752 4.46465 53.3565 4.06608 53.0378ZM5.33425 54.0648C5.66035 53.6752 6.02268 53.2503 6.34878 52.7899C6.74735 53.1086 7.14591 53.4273 7.58071 53.7815C7.21838 54.2418 6.89228 54.6668 6.56618 55.0563C6.16761 54.7022 5.73281 54.3835 5.33425 54.0648ZM7.68941 55.9063C7.32708 55.623 7.00098 55.3396 6.63865 55.0563C6.96475 54.6668 7.29084 54.2418 7.65318 53.7815C8.01551 54.0648 8.37784 54.3835 8.77641 54.6668C8.81264 54.7022 8.84888 54.7376 8.88511 54.773C8.52278 55.2334 8.19668 55.6584 7.87058 56.0479C7.79811 56.0125 7.72564 55.9771 7.68941 55.9063ZM9.13874 57.1103C8.74018 56.7916 8.30538 56.4375 7.90681 56.1187C8.23291 55.7292 8.55901 55.3042 8.92134 54.8439C9.31991 55.1626 9.75471 55.5167 10.1533 55.8354C9.82718 56.2604 9.46484 56.6854 9.13874 57.1103ZM10.262 55.8C10.5881 55.3751 10.9504 54.9501 11.2765 54.5251C11.6751 54.8439 12.1099 55.198 12.5084 55.5167C12.1461 55.9417 11.82 56.3666 11.4939 56.7916C11.0953 56.4729 10.6968 56.1542 10.262 55.8ZM11.5664 56.827C11.8925 56.402 12.2548 55.9771 12.5809 55.5521C13.0157 55.8708 13.4143 56.225 13.8128 56.5437C13.4505 56.9687 13.1244 57.3936 12.7983 57.8186C12.3635 57.4999 11.9649 57.1811 11.5664 56.827ZM14.0665 58.8456C13.6679 58.5269 13.2693 58.2081 12.8345 57.854C13.1606 57.429 13.523 57.0041 13.8491 56.5791C14.2839 56.8978 14.6824 57.252 15.081 57.5707C14.7187 57.9956 14.3926 58.456 14.0665 58.8456ZM16.4216 58.5623C16.0231 58.2435 15.6245 57.9248 15.1897 57.5707C15.5158 57.1457 15.8781 56.7208 16.2042 56.2958C16.639 56.6499 17.0376 56.9687 17.4362 57.2874C17.0738 57.7123 16.7477 58.1373 16.4216 58.5623ZM19.4652 57.3936C19.2478 57.6769 18.9942 57.9602 18.7768 58.2435C18.3782 57.9248 17.9797 57.6061 17.5449 57.252C17.7985 56.9687 18.0159 56.6499 18.2695 56.3666C18.3782 56.225 18.4869 56.1187 18.5956 55.9771C19.0304 56.3312 19.429 56.6499 19.8276 56.9687C19.6826 57.1103 19.5739 57.252 19.4652 57.3936ZM19.8276 56.9332C19.429 56.6145 19.0304 56.2958 18.5956 55.9417C18.958 55.5167 19.2841 55.0918 19.6102 54.6668C20.045 55.0209 20.4435 55.3396 20.8421 55.6584C20.5522 56.0479 20.1899 56.4729 19.8276 56.9332ZM20.9146 55.5875C20.516 55.2688 20.1174 54.9501 19.6826 54.596C20.045 54.171 20.3711 53.746 20.6972 53.3211C21.132 53.6752 21.5305 53.9939 21.9291 54.3127C21.603 54.7376 21.2769 55.1626 20.9146 55.5875ZM22.0016 54.2418C21.603 53.9231 21.2044 53.6044 20.7696 53.2503C21.132 52.7899 21.4581 52.3649 21.7842 51.9754C22.219 52.3295 22.6175 52.6482 23.0161 52.9669C22.69 53.3919 22.3277 53.8169 22.0016 54.2418ZM23.0523 52.9315C22.6538 52.6128 22.2552 52.2941 21.8204 51.94C22.1827 51.4796 22.5088 51.0546 22.8349 50.6651C23.2697 51.0192 23.6683 51.3379 24.0669 51.6566C23.777 52.0462 23.4147 52.4712 23.0523 52.9315Z" fill="black"/>
<path d="M36.278 67.062L38.0172 65.1143L43.3072 68.6556L41.3144 71.0283L36.278 67.062Z" fill="#F5F5F5"/>
<path d="M68.8153 8.45304C68.4167 7.07192 68.7428 5.54915 69.6486 4.41593C70.5545 3.31812 72.04 2.68068 73.4894 2.75151C74.6126 2.82234 75.772 3.28271 76.8228 2.89316C77.4388 2.68068 77.8736 2.1849 78.3084 1.72453C78.7069 1.22874 79.1055 0.732955 79.649 0.378823C80.1925 0.0246906 80.8809 -0.152375 81.4607 0.166344C82.0404 0.44965 82.294 1.29957 81.8592 1.72453C82.9825 1.19333 84.5405 1.37039 85.3014 2.36196C86.0985 3.31812 85.8087 5.01795 84.6492 5.51374C85.9174 5.26585 87.2218 6.18659 87.5479 7.42605C87.874 8.66551 87.258 9.9758 86.2435 10.7549C85.2289 11.534 83.8883 11.7819 82.5839 11.6756C81.3157 11.5694 80.0838 11.109 78.9243 10.5424C77.7649 9.9758 76.6417 9.33836 75.4822 8.84258C74.7213 8.48845 73.8879 8.20514 73.0183 8.27597C72.185 8.3468 71.3154 8.80717 71.0255 9.62167" fill="black"/>
<path d="M62.692 24.8844C61.8224 24.9552 61.1339 24.2115 60.7716 23.4324C60.4093 22.6533 60.2281 21.8034 59.7208 21.1305C59.3585 20.6347 58.8512 20.2806 58.5976 19.714C58.344 19.112 58.4164 18.4391 58.199 17.8371C57.9092 16.9872 57.112 16.3851 56.7859 15.5352C56.3511 14.3666 57.0758 12.9146 58.2715 12.5605C59.5034 12.2063 60.9165 13.0209 61.2064 14.2249" fill="black"/>
<path d="M71.026 11.1089L71.4245 12.2775L77.6929 29.8072C78.4176 31.8611 77.2219 34.0922 74.9754 34.8359C72.7289 35.5795 70.2651 34.5526 69.5042 32.4986C68.707 30.3384 67.8012 28.1073 67.8012 28.1073C67.8012 28.1073 64.7938 28.6739 62.8735 25.2388C61.8952 23.539 60.9169 20.5643 60.156 18.1207C59.5038 15.8897 60.8444 13.5878 63.1271 13.0212L71.026 11.1089Z" fill="#B78876"/>
<path d="M67.801 28.1066C67.801 28.1066 70.3374 27.3629 72.2577 25.061C72.2577 25.061 71.9679 27.965 68.1634 28.9565L67.801 28.1066Z" fill="#AA6550"/>
<path d="M79.5764 23.2552C79.5764 23.2552 79.5764 23.2906 79.5764 23.3614C79.5764 23.4323 79.5764 23.5385 79.5402 23.6802C79.4677 23.9635 79.2141 24.353 78.7068 24.5655C78.2358 24.8134 77.4749 24.7425 76.9314 24.353C76.6415 24.1405 76.3879 23.8572 76.2067 23.5385C76.0256 23.2198 75.9169 22.7594 76.1343 22.3699C76.243 22.1928 76.4241 22.0157 76.6415 21.9803C76.8589 21.9449 77.0763 21.9803 77.2575 22.122C77.4387 22.2636 77.4749 22.5115 77.4387 22.6886C77.3662 22.8657 77.2213 23.0427 77.0401 23.1135C76.6778 23.2552 76.3154 23.1844 76.0256 23.0781C75.7357 22.9365 75.5183 22.7594 75.3371 22.5469C75.011 22.1574 74.9023 21.697 74.9023 21.4137C74.9023 21.2721 74.9023 21.1658 74.9386 21.095C74.9386 21.0242 74.9748 20.9888 74.9748 20.9888C74.9748 20.9888 74.9748 21.1304 74.9748 21.4137C75.011 21.697 75.1197 22.0866 75.4458 22.4407C75.627 22.6178 75.8444 22.7948 76.098 22.9011C76.3517 23.0073 76.6778 23.0781 76.9676 22.9365C77.1126 22.8657 77.2213 22.7594 77.2575 22.6178C77.2937 22.4761 77.2575 22.3345 77.1488 22.2282C77.0401 22.122 76.8589 22.0866 76.714 22.122C76.5691 22.1574 76.4241 22.2636 76.3517 22.4407C76.1705 22.7594 76.243 23.1136 76.4241 23.4323C76.5691 23.751 76.8227 23.9989 77.0763 24.1759C77.6198 24.5655 78.272 24.6363 78.7068 24.4238C79.1779 24.2114 79.4315 23.8926 79.504 23.6447C79.5764 23.3969 79.5764 23.2552 79.5764 23.2552Z" fill="black"/>
<path d="M78.526 19.3237C78.526 19.3237 78.7072 19.5362 78.5985 19.9258C78.5623 20.1028 78.4536 20.3507 78.2362 20.5278C78.055 20.7049 77.7651 20.8465 77.439 20.882C76.8231 20.9882 76.2796 20.7049 75.9535 20.5278C75.6274 20.3153 75.4824 20.1383 75.4824 20.1028C75.5187 20.0674 75.6998 20.2091 76.0259 20.3862C76.352 20.5632 76.8593 20.7757 77.4028 20.6695C77.6927 20.6341 77.91 20.5278 78.0912 20.3507C78.2724 20.2091 78.3811 19.9966 78.4173 19.8549C78.5985 19.5716 78.4898 19.3591 78.526 19.3237Z" fill="black"/>
<path d="M59.5035 19.9614C59.5035 19.9614 59.3948 19.9614 59.2499 19.8906C59.0687 19.8552 58.8513 19.7489 58.5614 19.6427C58.2716 19.5011 57.9455 19.324 57.6918 19.0053C57.402 18.6865 57.2933 18.1907 57.2933 17.7304C57.2933 17.27 57.3657 16.8096 57.3657 16.4201C57.3657 16.0305 57.3295 15.6764 57.2208 15.4285C56.9672 14.8619 56.5686 14.7556 56.6048 14.7202C56.6048 14.7202 56.7136 14.7202 56.8585 14.8265C57.0034 14.9327 57.2208 15.1098 57.3295 15.3931C57.4744 15.6764 57.5469 16.0659 57.5469 16.4555C57.5469 16.845 57.4744 17.3054 57.5107 17.7304C57.5107 18.1907 57.6194 18.5803 57.873 18.899C58.0904 19.2177 58.4165 19.3948 58.6702 19.5365C59.1412 19.7844 59.5397 19.926 59.5035 19.9614Z" fill="black"/>
<path d="M59.974 18.1206C59.974 18.1206 59.9378 17.554 59.3218 16.2083C58.6696 14.7918 63.235 11.9588 71.315 13.2336L72.2933 15.0751C72.2933 15.0751 60.9886 14.4731 59.974 18.1206Z" fill="#E8505B"/>
<path d="M66.3878 9.72778C66.6052 10.861 66.7863 12.0297 66.6052 13.1629C66.3878 14.2961 65.7718 15.3939 64.721 15.9251C63.8877 16.3501 62.9456 16.3501 62.0398 16.3501C61.1702 16.3501 60.2643 16.3855 59.3947 16.3855C58.8875 16.3855 58.344 16.3855 57.8367 16.2438C56.8222 15.8897 56.1337 14.8627 56.025 13.8003C55.8801 12.313 56.7497 10.861 58.0179 10.0111C59.286 9.16117 60.8441 8.91327 62.3659 8.9841C63.8877 9.05493 65.3732 9.47989 66.8226 9.90485" fill="black"/>
<path d="M73.4528 16.7388C73.4528 16.7388 73.6702 16.7034 74.0325 16.668C74.3949 16.6326 74.9746 16.5618 75.6268 16.4201C76.279 16.243 77.0761 15.9951 77.6559 15.3223C77.9457 15.0036 78.1994 14.614 78.3443 14.1537C78.4892 13.6933 78.4168 13.1975 78.1994 12.7725C77.982 12.3476 77.6196 11.9934 77.2211 11.7101C76.8225 11.4622 76.3877 11.2852 75.9529 11.1435C75.0833 10.8956 74.2862 10.7186 73.634 10.4707C72.9818 10.2228 72.5107 9.90407 72.2571 9.65617C72.1122 9.51452 72.0397 9.40828 71.9672 9.33745C71.8948 9.26663 71.8948 9.1958 71.8948 9.1958C71.8948 9.1958 72.0397 9.37287 72.2933 9.62076C72.5832 9.86865 73.0542 10.152 73.6702 10.3644C74.3224 10.6123 75.1195 10.7186 75.9891 11.0019C76.4239 11.1435 76.895 11.3206 77.2935 11.5685C77.7283 11.8518 78.0907 12.2059 78.3443 12.6663C78.5979 13.1267 78.6342 13.6933 78.4892 14.1891C78.3443 14.6849 78.0907 15.0744 77.7646 15.4285C77.1124 16.1014 76.279 16.3847 75.6268 16.5263C74.9384 16.668 74.3949 16.7034 73.9963 16.7034C73.634 16.7742 73.4528 16.7742 73.4528 16.7388Z" fill="black"/>
<path d="M58.0906 15.889C58.0906 15.889 58.0543 15.8536 57.9819 15.7828C57.9094 15.712 57.8007 15.6057 57.692 15.4641C57.4384 15.1808 57.076 14.7558 56.7499 14.1184C56.605 13.7996 56.4601 13.4455 56.4601 13.0205C56.4238 12.5956 56.5325 12.1706 56.7137 11.7457C57.1485 10.8957 58.0181 10.2229 59.0689 9.97498C60.1196 9.72708 61.2066 9.90415 62.0762 10.1875C62.9821 10.4708 63.7067 10.8957 64.3227 11.1436C64.9387 11.4269 65.5184 11.4269 65.8807 11.3207C66.2431 11.2145 66.388 11.0374 66.388 11.0374C66.388 11.0374 66.3518 11.0728 66.2793 11.1436C66.2068 11.2145 66.0619 11.2853 65.8807 11.3561C65.6996 11.4269 65.4459 11.4623 65.1561 11.4623C64.8662 11.4623 64.5401 11.3915 64.214 11.2499C63.5618 11.002 62.8371 10.577 61.9675 10.3291C61.0979 10.0458 60.0834 9.90415 59.0689 10.152C58.0543 10.3999 57.221 11.0728 56.8224 11.8519C56.3876 12.631 56.5325 13.4809 56.8224 14.0829C57.1123 14.685 57.4746 15.1099 57.692 15.4287C57.9456 15.712 58.0906 15.889 58.0906 15.889Z" fill="black"/>
<path d="M72.5838 10.0102C72.5838 10.0102 72.6562 10.1164 72.5838 10.2935C72.5475 10.3997 72.4751 10.4705 72.3664 10.5768C72.2577 10.6476 72.0765 10.7184 71.9316 10.7184C71.2069 10.683 70.4822 10.1518 69.5402 9.90394C69.0691 9.79771 68.5981 9.83312 68.2358 9.93935C67.8372 10.081 67.5111 10.2935 67.2937 10.506C66.8227 10.9309 66.714 11.3204 66.6777 11.3204C66.6777 11.3204 66.6777 11.2142 66.7502 11.0371C66.8227 10.8601 66.9676 10.6476 67.185 10.3997C67.4024 10.1518 67.7285 9.93935 68.1633 9.76229C68.5619 9.62064 69.1054 9.54982 69.5764 9.69147C70.5547 9.93936 71.3156 10.506 71.9316 10.5414C72.2577 10.5768 72.4388 10.3997 72.5113 10.2581C72.5838 10.1164 72.5475 10.0102 72.5838 10.0102Z" fill="black"/>
<path d="M71.7136 45.8492L65.8076 36.8896L55.771 47.6907L37.292 58.9167L35.0455 58.8105C34.647 58.8459 34.1759 58.8459 33.6324 58.8459C33.1614 58.8459 32.6904 58.7751 32.2556 58.598C31.7121 58.421 31.0236 58.1376 30.6613 57.8543C30.2265 57.5356 29.6105 57.8543 29.7555 58.3147C29.8642 58.7751 31.0236 59.7312 32.6904 60.1562C34.3571 60.5812 31.8932 61.679 30.9874 62.1039C30.9874 62.1039 29.7917 62.4581 29.6105 62.7414C29.4294 63.0247 29.9004 63.7684 31.6034 63.4851C31.6034 63.4851 31.241 64.1933 31.857 64.4766C32.328 64.6537 33.3788 64.2641 33.3788 64.2641C33.3788 64.2641 32.9802 64.6891 33.2701 65.0787C33.6687 65.6807 34.8644 65.2203 34.8644 65.2203C34.8644 65.2203 34.6107 66.2119 35.4803 66.2473C36.1325 66.2827 36.8572 65.6807 38.1978 64.7245L39.5022 63.6267L61.4958 54.313L71.7136 45.8492Z" fill="#B78876"/>
<path d="M124.687 35.1184C124.143 34.3393 127.622 35.9329 127.912 35.2954C128.02 35.0475 128.057 34.8705 125.919 34.233C124.759 33.8789 122.513 33.5248 120.629 33.2415L120.411 33.206L104.143 25.8047C103.273 25.4151 102.295 25.2026 101.316 25.2026H84.0332L86.1347 33.5602L102.15 32.5686L118.274 38.3056L118.962 39.0138C119.143 39.2263 119.361 39.4388 119.614 39.6867C119.868 40.0054 120.085 40.3241 120.267 40.7137C120.448 41.174 120.665 41.7761 120.701 42.1656C120.738 42.626 121.281 42.8385 121.535 42.4843C121.752 42.1302 121.752 40.8553 121.064 39.545C120.375 38.2347 122.513 39.1909 123.31 39.5096C124.107 39.8637 126.607 40.7845 126.897 40.6074C127.332 40.3595 127.151 39.8637 126.354 39.545C125.557 39.2263 123.238 38.0931 123.419 37.7035C123.6 37.314 127.622 39.0846 127.622 39.0846C127.622 39.0846 128.419 39.6158 128.673 39.1555C129.107 38.341 124.723 36.7474 124.288 36.6057C123.999 36.4995 124.18 36.0745 124.506 36.1808C124.832 36.3224 128.455 38.0222 128.89 37.2077C129.18 36.5703 125.23 35.8975 124.687 35.1184Z" fill="#B78876"/>
<path d="M68.8877 65.787L73.2357 77.9692C73.2357 77.9692 84.7941 76.0569 86.6058 75.7028C87.9826 75.4549 90.6639 75.2778 92.4031 73.6488L94.3597 77.2255L97.1497 82.3251L109.469 77.261L100.012 56.7212L78.562 61.8915L68.8877 65.787Z" fill="black"/>
<path d="M96.6429 67.7344C96.6429 67.7344 96.6792 68.1239 96.5705 68.7968C96.4618 69.4696 96.1357 70.4258 95.4472 71.4528C94.7588 72.4444 93.6356 73.5068 92.1138 74.1796C90.6282 74.8525 88.8528 75.3128 87.0049 75.6316C83.3091 76.3044 79.9394 76.9064 77.4755 77.3668C76.2798 77.5793 75.3015 77.7564 74.5769 77.8626C74.2508 77.9334 73.9971 77.9688 73.7797 78.0043C73.5986 78.0397 73.4899 78.0397 73.4899 78.0397C73.4899 78.0397 73.5986 78.0043 73.7435 77.9688C73.9247 77.9334 74.2145 77.8626 74.5406 77.7918C75.2291 77.6501 76.2074 77.4731 77.4031 77.2252C79.8669 76.7648 83.2004 76.1274 86.8962 75.4545C88.7441 75.1358 90.4833 74.6754 91.9688 74.038C93.4544 73.4005 94.5777 72.3735 95.2661 71.4174C95.9907 70.4258 96.2806 69.505 96.4255 68.8322C96.6429 68.1239 96.6067 67.7344 96.6429 67.7344Z" fill="black"/>
<path d="M97.3307 82.1835C97.2945 82.2189 96.2437 80.342 94.9755 78.0401C93.7073 75.7383 92.729 73.8259 92.8015 73.7905C92.8377 73.7551 93.8885 75.632 95.1567 77.9339C96.3886 80.2712 97.3669 82.1481 97.3307 82.1835Z" fill="black"/>
<path d="M87.1859 59.6963C87.1859 59.6963 87.2222 59.7671 87.2222 59.9088C87.2222 60.0504 87.2584 60.2629 87.2584 60.5108C87.2584 61.042 87.2222 61.8211 86.9323 62.7772C86.7874 63.2376 86.57 63.7334 86.2076 64.1938C85.8453 64.6541 85.338 65.0437 84.7945 65.3978C83.6713 66.0707 82.3669 66.6373 80.9538 67.1331C78.1638 68.1601 75.555 68.9391 73.6709 69.5058C72.7651 69.7891 72.0042 70.037 71.4607 70.214C71.207 70.2848 71.0259 70.3557 70.8447 70.3911C70.6998 70.4265 70.6273 70.4619 70.6273 70.4619C70.6273 70.4619 70.6998 70.4265 70.8447 70.3557C70.9896 70.2848 71.2071 70.214 71.4245 70.1432C71.9317 69.9661 72.6926 69.6828 73.6347 69.3995C75.4826 68.7975 78.0914 68.0184 80.8813 66.956C82.2944 66.4248 83.5988 65.8936 84.6858 65.2207C85.2293 64.8666 85.7366 64.5125 86.0627 64.0875C86.3888 63.6272 86.6062 63.1668 86.7874 62.7064C87.0772 61.7857 87.1497 61.0066 87.1859 60.4754C87.1859 60.1921 87.1859 60.015 87.1859 59.8734C87.1859 59.7671 87.1859 59.6963 87.1859 59.6963Z" fill="#EBEBEB"/>
<path d="M89.1783 59.3418C89.1783 59.3418 89.2146 59.4126 89.2508 59.5897C89.287 59.7313 89.3233 59.9792 89.3957 60.298C89.4682 60.9 89.5407 61.8207 89.3595 62.9186C89.2508 63.4498 89.0696 64.0518 88.7798 64.6538C88.4899 65.2559 88.0551 65.8225 87.5116 66.3537C86.3884 67.3807 84.7941 67.9473 83.1998 68.5493C79.9751 69.7534 77.0039 70.7095 74.8299 71.347C73.7429 71.6657 72.8733 71.9136 72.2574 72.0552C71.6414 72.1969 71.2791 72.2323 71.2791 72.1615C71.2791 72.2677 72.6197 71.8782 74.7937 71.2053C76.9315 70.5325 79.9026 69.5409 83.1274 68.3368C84.7216 67.6994 86.2797 67.1682 87.4029 66.1766C87.9464 65.6808 88.345 65.1142 88.6348 64.5476C88.9247 63.981 89.1059 63.3789 89.2146 62.8477C89.432 61.7853 89.3595 60.8646 89.3233 60.2626C89.287 59.9438 89.2508 59.7313 89.2146 59.5543C89.1783 59.448 89.1783 59.3418 89.1783 59.3418Z" fill="#EBEBEB"/>
<path d="M100.265 80.7316C100.265 80.7316 100.193 80.6253 100.048 80.3774C99.9031 80.1295 99.7219 79.8108 99.5045 79.4213C99.0335 78.6068 98.4175 77.5089 97.7291 76.2695C97.0044 75.0654 96.3522 73.9676 95.8812 73.1531C95.6638 72.7989 95.4826 72.4802 95.3377 72.1969C95.1927 71.9844 95.1565 71.8428 95.1565 71.8428C95.1565 71.8428 95.2652 71.949 95.4101 72.1615C95.5551 72.374 95.7725 72.6927 96.0261 73.0822C96.5334 73.8613 97.1856 74.9592 97.9102 76.1632C98.6349 77.3673 99.2146 78.5005 99.6494 79.315C99.8668 79.74 100.012 80.0587 100.12 80.3066C100.229 80.5899 100.265 80.7316 100.265 80.7316Z" fill="black"/>
<path d="M100.556 56.6156L94.7226 48.4705L88.7803 33.1011L88.563 25.0269L84.7222 25.0977C81.425 25.1685 78.2002 25.9122 75.2291 27.3287C73.9609 27.9308 72.7652 28.6744 71.6782 29.5598L69.7216 31.1534C67.2215 33.4198 64.033 36.7487 62.0039 39.5818L56.7139 46.0624L65.0475 52.3306L71.0985 46.452L79.1423 55.9428L78.5626 61.9276L100.556 56.6156Z" fill="#F6CA13"/>
<path d="M87.3668 25.0967L93.6714 24.9551L94.6497 34.1272L88.4538 34.8354L87.3668 25.0967Z" fill="#F6CA13"/>
<path d="M70.0476 44.7505C70.0476 45.7421 70.0838 46.769 70.3012 47.7606C70.5549 48.7522 71.0259 49.7083 71.823 50.3104C72.6926 50.9832 73.8159 51.2311 74.9029 51.1957C75.9899 51.1603 77.0769 50.877 78.1276 50.5937" fill="#F6CA13"/>
<g opacity="0.2">
<path opacity="0.2" d="M70.229 47.3005C70.229 47.3005 70.3739 48.3275 70.8812 49.1774C71.3885 50.0627 72.1131 50.5939 72.9827 50.9126C73.7799 51.196 75.2654 51.196 75.2654 51.196C75.2654 51.196 77.4032 53.9582 78.2003 54.8435C79.1424 55.9059 79.9395 55.4456 79.9395 55.4456C80.3381 55.1623 80.3381 54.3477 80.3381 54.4186C80.3381 54.5248 80.2656 53.7811 80.0845 53.2853C79.3598 51.0543 77.9829 49.0712 76.2075 47.513C76.2075 47.513 76.1713 47.513 76.1713 47.4776C74.7582 46.2381 72.6566 46.0256 70.9899 46.8755L70.229 47.3005Z" fill="black"/>
</g>
<g opacity="0.2">
<path opacity="0.2" d="M89.3964 34.6933C88.5993 33.0289 88.237 31.2228 88.3457 29.3813C89.6501 30.8333 90.1936 32.9227 89.795 34.7996" fill="black"/>
</g>
<path d="M72.1857 44.2201C72.1495 44.2201 72.548 43.6181 72.7654 42.5203C73.0191 41.4579 72.9828 39.8289 72.1495 38.3061C71.3161 36.8187 69.9392 35.898 68.8522 35.5085C67.8015 35.1189 67.0406 35.1189 67.0768 35.0835C67.0768 35.0835 67.113 35.0835 67.2217 35.0835C67.2942 35.0835 67.4391 35.0835 67.5841 35.1189C67.9102 35.1543 68.3812 35.2251 68.9247 35.4376C69.4682 35.6147 70.0842 35.9334 70.7001 36.3938C71.3161 36.8542 71.8958 37.4916 72.3306 38.2353C72.7654 39.0144 72.9828 39.8289 73.0553 40.5725C73.1278 41.3162 73.0553 41.9891 72.9104 42.5557C72.7654 43.1223 72.5843 43.5472 72.4393 43.8305C72.3669 43.9722 72.2944 44.0784 72.2582 44.1493C72.2219 44.1847 72.1857 44.2201 72.1857 44.2201Z" fill="black"/>
<path d="M87.1136 28.1421C87.1136 28.1421 87.1498 28.2483 87.2223 28.4254C87.2947 28.6379 87.4034 28.8858 87.5121 29.1691C87.7658 29.8065 88.0556 30.6918 88.418 31.6834C88.7803 32.675 89.0702 33.5603 89.2876 34.1977C89.505 34.8352 89.6137 35.2601 89.5774 35.2601C89.5412 35.2601 89.3963 34.8706 89.1426 34.2332C88.889 33.5957 88.5629 32.7104 88.2368 31.7188C87.8745 30.7272 87.5846 29.8419 87.4034 29.1691C87.186 28.567 87.0773 28.1421 87.1136 28.1421Z" fill="black"/>
<path d="M92.9834 50.1343C92.9834 50.1343 92.8747 50.2051 92.6935 50.3113C92.5123 50.4176 92.1863 50.5592 91.8239 50.7009C91.4254 50.8425 90.9543 50.9842 90.447 51.0904C89.9035 51.1966 89.3238 51.2675 88.6716 51.2675C88.0557 51.2675 87.4397 51.1966 86.8962 51.0904C86.3527 50.9842 85.8817 50.8425 85.5193 50.7009C85.1208 50.5592 84.8309 50.4176 84.6497 50.3113C84.4323 50.2051 84.3599 50.1343 84.3599 50.1343C84.3599 50.0988 84.8309 50.3467 85.5918 50.5946C85.9904 50.7363 86.4252 50.8425 86.9687 50.9487C87.5122 51.055 88.0919 51.0904 88.7079 51.0904C89.3238 51.0904 89.9035 51.0196 90.447 50.9487C90.9543 50.8425 91.4254 50.7363 91.8239 50.5946C92.5124 50.3467 92.9834 50.0988 92.9834 50.1343Z" fill="black"/>
<path d="M69.9393 36.0747C69.9393 36.0747 69.8306 36.2518 69.577 36.6059C69.3596 36.9246 68.9973 37.385 68.5625 37.9516C67.6929 39.0848 66.4609 40.643 65.0841 42.3429C63.7072 44.0427 62.4028 45.5301 61.4607 46.6279C60.9897 47.1591 60.5911 47.5841 60.3375 47.9028C60.0476 48.1861 59.9027 48.3632 59.9027 48.3632C59.9027 48.3632 60.0114 48.1861 60.3013 47.8674C60.5911 47.5487 60.9535 47.0883 61.3883 46.5571C62.2941 45.4593 63.5985 43.9365 64.9754 42.2366C66.3522 40.5368 67.6204 39.014 68.49 37.8808C68.9248 37.3496 69.2871 36.8892 69.5408 36.5705C69.7944 36.2518 69.9393 36.0747 69.9393 36.0747Z" fill="#EBEBEB"/>
<path d="M68.3083 35.2955C68.3083 35.2955 68.1996 35.4726 67.9822 35.7913C67.7648 36.11 67.4025 36.5704 66.9677 37.137C66.0981 38.2702 64.9024 39.793 63.5618 41.4574C62.1849 43.1218 60.9167 44.5738 60.0109 45.6361C59.5399 46.1673 59.1775 46.5923 58.8877 46.8756C58.634 47.1589 58.4529 47.336 58.4529 47.3006C58.4529 47.3006 58.5616 47.1235 58.8152 46.8048C59.1051 46.4861 59.4312 46.0611 59.866 45.5299C60.7718 44.4675 62.0037 42.9802 63.3806 41.3157C64.7575 39.6513 65.9532 38.1286 66.8228 37.0307C67.2576 36.4996 67.5837 36.0746 67.8735 35.7205C68.1272 35.4372 68.2721 35.2601 68.3083 35.2955Z" fill="#EBEBEB"/>
<path d="M93.6354 25.5919C93.6354 25.6273 93.2006 25.6273 92.476 25.6273C91.7513 25.6273 90.773 25.6273 89.686 25.6627C88.599 25.6982 87.6207 25.6981 86.896 25.7336C86.1714 25.769 85.7366 25.769 85.7366 25.7336C85.7366 25.6981 86.1714 25.6627 86.896 25.5919C87.6207 25.5211 88.599 25.4856 89.686 25.4502C90.773 25.4148 91.7513 25.4502 92.476 25.4856C93.2006 25.5211 93.6354 25.5565 93.6354 25.5919Z" fill="#EBEBEB"/>
<path d="M93.9253 26.6549C93.9253 26.6903 92.2586 26.7611 90.1933 26.7965C88.128 26.8319 86.4613 26.7965 86.4613 26.7611C86.4613 26.7257 88.128 26.6549 90.1933 26.6195C92.2586 26.584 93.9253 26.584 93.9253 26.6549Z" fill="#EBEBEB"/>
<path d="M72.5476 9.62052C72.765 9.833 72.9824 10.0455 73.236 10.2225C73.7795 10.5413 74.4317 10.6475 75.0114 10.86C75.9535 11.2141 76.7144 11.9932 77.0767 12.9494C77.4391 13.9055 77.3304 14.9679 76.8594 15.8533C76.6057 16.3136 76.2434 16.7386 76.1347 17.2344C76.026 17.7656 76.1709 18.3322 76.2071 18.8634C76.2071 19.7487 75.8086 20.5986 75.1202 21.1653C74.4317 21.6965 73.4534 21.9089 72.5838 21.7319C71.9316 21.5902 71.3157 21.1653 71.1345 20.5278C70.9533 19.7841 71.3881 19.005 71.207 18.2968C71.0258 17.5885 70.3011 17.1281 70.0475 16.4199C69.7939 15.6054 70.2287 14.6492 69.7939 13.9409C69.3591 13.2327 68.3808 13.1973 67.5836 12.9494C66.3879 12.5598 65.4821 11.462 65.3372 10.2225L65.9894 9.86842C66.1343 9.37263 66.3517 8.87684 66.8227 8.45188C66.7865 8.38106 69.1779 6.99994 72.5476 9.62052Z" fill="black"/>
<path d="M27.6181 25.7339C27.6181 25.7339 27.5456 25.7693 27.3645 25.8401C27.1833 25.911 26.9297 25.9818 26.6398 26.0526C26.0238 26.2651 25.118 26.5838 24.0672 27.115C23.0165 27.6462 21.8208 28.3899 20.6251 29.3815C20.0453 29.8773 19.4656 30.4439 18.8859 31.0813C18.3424 31.7187 17.7989 32.3916 17.2916 33.1353C16.6032 34.1623 16.0959 35.2247 15.6973 36.2517L15.6249 36.3933L15.5162 36.2871C14.6828 35.2247 13.6683 34.4456 12.69 33.879C11.7117 33.3123 10.7334 32.9936 9.90002 32.7811C9.06665 32.6041 8.41445 32.5333 7.94342 32.4978C7.72602 32.4978 7.54485 32.4978 7.39992 32.4978C7.29122 32.4978 7.21875 32.4978 7.21875 32.4978C7.21875 32.4978 7.29122 32.4978 7.39992 32.4624C7.50862 32.4624 7.68978 32.427 7.94342 32.4624C8.41445 32.4624 9.10288 32.4978 9.93625 32.6749C10.7696 32.852 11.7479 33.1707 12.7624 33.7373C13.777 34.3039 14.7915 35.1184 15.6611 36.1808L15.5162 36.2162C15.9147 35.1893 16.4582 34.0914 17.1467 33.0645C17.6177 32.3208 18.1974 31.6125 18.7409 30.9751C19.3207 30.3376 19.9004 29.771 20.5164 29.2752C21.7121 28.2836 22.944 27.54 23.9948 27.0088C25.0455 26.4776 25.9876 26.1943 26.6036 25.9818C26.9297 25.911 27.1471 25.8401 27.3645 25.8047C27.5456 25.7339 27.6181 25.7339 27.6181 25.7339Z" fill="black"/>
<path d="M23.4512 23.8572C23.4512 23.8218 24.0671 23.7864 24.7918 23.8218C25.5165 23.8572 26.1324 23.9281 26.1324 23.9635C26.1324 23.9989 25.5165 24.0343 24.7918 23.9989C24.0309 23.9635 23.4512 23.8926 23.4512 23.8572Z" fill="black"/>
<path d="M24.7557 21.6617C24.792 21.6263 25.263 21.8034 25.8065 22.0867C26.35 22.37 26.7848 22.6533 26.7486 22.6887C26.7123 22.7242 26.2413 22.5471 25.6978 22.2638C25.1905 21.9804 24.7557 21.6971 24.7557 21.6617Z" fill="black"/>
<path d="M30.1185 29.6299C30.0823 29.6299 29.9374 28.9925 30.0461 28.2134C30.1548 27.4343 30.4809 26.8677 30.5171 26.8677C30.5533 26.9031 30.3359 27.4697 30.2272 28.2134C30.1185 28.9925 30.191 29.5945 30.1185 29.6299Z" fill="black"/>
<path d="M33.8503 29.7365C33.8141 29.7719 33.5242 29.2053 33.1981 28.4616C32.9083 27.7533 32.6909 27.1512 32.7271 27.1158C32.7633 27.0804 33.0532 27.647 33.3793 28.3907C33.7054 29.1344 33.9228 29.7365 33.8503 29.7365Z" fill="black"/>
<path d="M31.2049 24.7076C32.8058 24.7076 34.1036 23.4392 34.1036 21.8746C34.1036 20.3099 32.8058 19.0415 31.2049 19.0415C29.6041 19.0415 28.3063 20.3099 28.3063 21.8746C28.3063 23.4392 29.6041 24.7076 31.2049 24.7076Z" fill="black"/>
<path d="M30.444 24.7426C30.4078 24.7426 30.589 24.4947 30.6977 24.0344C30.8064 23.6094 30.8064 22.9366 30.444 22.3346C30.0817 21.7325 29.502 21.4138 29.0672 21.2722C28.6324 21.1305 28.3425 21.1659 28.3063 21.1305C28.3063 21.1305 28.5961 21.0243 29.0672 21.1659C29.5382 21.2722 30.1904 21.6263 30.589 22.2637C30.9875 22.9012 30.9513 23.6448 30.8064 24.0698C30.6977 24.5302 30.4803 24.778 30.444 24.7426Z" fill="black"/>
<path d="M33.8502 23.3273C33.8502 23.3627 33.5241 23.2919 33.1255 23.044C32.6907 22.7961 32.1472 22.3357 31.8211 21.6628C31.495 20.99 31.4226 20.2817 31.495 19.8213C31.5675 19.3255 31.7124 19.0776 31.7124 19.0776C31.7487 19.0776 31.64 19.3609 31.64 19.8213C31.6037 20.2817 31.6762 20.9546 32.0023 21.5566C32.3284 22.194 32.7994 22.6544 33.198 22.9023C33.5966 23.221 33.8864 23.2919 33.8502 23.3273Z" fill="black"/>
</svg>
