<svg width="217" height="195" viewBox="0 0 217 195" fill="none" xmlns="http://www.w3.org/2000/svg">
<path opacity="0.1" fill-rule="evenodd" clip-rule="evenodd" d="M126.079 20.465C112.168 20.051 98.918 16.214 86.266 12.014C73.614 7.81501 61.083 3.16201 47.505 0.937005C38.771 -0.493995 28.782 -0.695995 21.747 3.30501C14.9742 7.16301 12.786 13.804 11.6103 19.972C10.7247 24.613 10.2045 29.497 12.6291 33.84C14.3143 36.856 17.3021 39.391 19.3699 42.281C26.564 52.333 21.479 64.729 13.6845 74.544C10.0304 79.149 5.78519 83.545 2.96289 88.443C0.140588 93.34 -1.16411 98.96 1.30559 103.96C3.75169 108.92 9.58329 112.638 15.9006 115.256C28.731 120.574 43.844 122.095 58.592 122.956C91.227 124.865 124.035 124.038 156.756 123.212C168.867 122.905 181.028 122.595 192.941 120.994C199.557 120.105 206.386 118.696 211.19 115.291C217.286 110.968 218.797 103.65 214.711 98.229C207.858 89.137 188.917 86.88 184.122 77.123C181.486 71.752 184.192 65.771 188.025 60.789C196.245 50.105 210.021 40.73 210.745 28.518C211.244 20.13 204.621 11.73 194.381 7.76001C183.649 3.60101 168.763 4.123 160.849 11.01C152.692 18.1 138.363 20.828 126.079 20.465Z" fill="#FA7268"/>
<path fill-rule="evenodd" clip-rule="evenodd" d="M149.002 194.161C153.973 194.161 158.003 193.479 158.003 192.638C158.003 191.798 153.973 191.116 149.002 191.116C144.03 191.116 140 191.798 140 192.638C140 193.479 144.03 194.161 149.002 194.161Z" fill="#FA7268"/>
<path fill-rule="evenodd" clip-rule="evenodd" d="M152.724 190.149C153.134 189.813 153.433 189.362 153.582 188.853C153.693 188.34 153.474 187.733 152.982 187.534C152.431 187.324 151.842 187.707 151.397 188.092C150.951 188.477 150.439 188.918 149.854 188.835C150.155 188.563 150.38 188.218 150.508 187.833C150.635 187.448 150.661 187.036 150.582 186.639C150.556 186.474 150.485 186.319 150.378 186.191C150.074 185.864 149.518 186.003 149.154 186.263C147.989 187.08 147.665 188.662 147.658 190.084C147.539 189.571 147.64 189.036 147.636 188.517C147.631 187.998 147.49 187.398 147.045 187.122C146.77 186.975 146.461 186.902 146.149 186.912C145.625 186.892 145.043 186.945 144.685 187.328C144.237 187.803 144.358 188.6 144.743 189.119C145.128 189.639 145.717 189.972 146.259 190.333C146.692 190.591 147.062 190.944 147.34 191.365C147.374 191.423 147.401 191.486 147.421 191.55H150.691C151.429 191.177 152.113 190.705 152.724 190.149Z" fill="#FA7268"/>
<path fill-rule="evenodd" clip-rule="evenodd" d="M203.5 164.161C209.851 164.161 215 163.29 215 162.216C215 161.142 209.851 160.271 203.5 160.271C197.149 160.271 192 161.142 192 162.216C192 163.29 197.149 164.161 203.5 164.161Z" fill="#FA7268"/>
<path fill-rule="evenodd" clip-rule="evenodd" d="M208.256 159.036C208.78 158.607 209.162 158.03 209.351 157.38C209.494 156.725 209.214 155.95 208.585 155.695C207.881 155.427 207.129 155.916 206.56 156.407C205.991 156.899 205.336 157.463 204.589 157.357C204.973 157.01 205.261 156.568 205.424 156.077C205.587 155.585 205.619 155.059 205.519 154.551C205.485 154.341 205.395 154.143 205.258 153.979C204.869 153.562 204.16 153.739 203.694 154.071C202.207 155.115 201.792 157.137 201.784 158.953C201.632 158.298 201.761 157.614 201.755 156.951C201.749 156.287 201.569 155.521 201 155.169C200.649 154.981 200.254 154.888 199.856 154.9C199.187 154.875 198.443 154.943 197.985 155.432C197.413 156.039 197.568 157.057 198.06 157.72C198.552 158.384 199.304 158.81 199.996 159.27C200.55 159.6 201.022 160.051 201.377 160.589C201.42 160.664 201.455 160.744 201.48 160.826H205.659C206.601 160.349 207.475 159.747 208.256 159.036Z" fill="#FA7268"/>
<path fill-rule="evenodd" clip-rule="evenodd" d="M96.289 126.835C97.593 127.002 98.946 127.108 100.195 126.703C100.392 126.642 100.608 126.506 100.589 126.309C100.575 126.238 100.544 126.171 100.5 126.113C100.029 125.406 99.634 124.653 99.32 123.864C99.307 123.823 99.282 123.787 99.247 123.762C99.206 123.747 99.162 123.747 99.121 123.762C98.545 123.913 98.047 124.285 97.475 124.445C97.183 124.525 96.878 124.547 96.578 124.511C96.318 124.482 95.964 124.268 95.728 124.295C95.862 125.155 96.188 125.957 96.289 126.835Z" fill="#6C63FF"/>
<path fill-rule="evenodd" clip-rule="evenodd" d="M120.953 124.657C121.813 124.066 122.704 123.447 123.212 122.536C123.248 122.482 123.269 122.418 123.273 122.353C123.264 122.289 123.239 122.228 123.2 122.176C122.716 121.408 122.094 120.736 121.365 120.195C120.984 120.464 120.64 120.782 120.342 121.139C120.125 121.368 119.527 121.73 119.521 122.078C119.521 122.274 119.75 122.503 119.856 122.668C119.999 122.88 120.135 123.097 120.265 123.317C120.34 123.425 121.022 124.613 120.953 124.657Z" fill="#6C63FF"/>
<path fill-rule="evenodd" clip-rule="evenodd" d="M101.401 129.469C101.417 129.671 101.361 129.873 101.244 130.039C101.152 130.132 101.038 130.199 100.913 130.236C99.09 130.889 96.979 130.075 95.16 130.718C94.786 130.85 94.432 131.04 94.056 131.166C93.608 131.301 93.146 131.383 92.679 131.41C92.036 131.471 91.389 131.511 90.744 131.528C90.254 131.563 89.761 131.52 89.284 131.4C89.046 131.339 88.823 131.229 88.63 131.076C88.437 130.923 88.279 130.731 88.165 130.513C88.066 130.318 88.046 130.092 88.11 129.882C88.138 129.81 88.179 129.743 88.23 129.685C88.353 129.547 88.498 129.429 88.659 129.337L89.329 128.904C89.644 128.682 89.986 128.501 90.346 128.365C90.612 128.279 90.893 128.241 91.163 128.169C92.105 127.893 92.825 127.146 93.494 126.428L94.406 125.454C94.492 125.347 94.6 125.26 94.723 125.2C94.85 125.158 94.984 125.145 95.116 125.163C96.003 125.226 96.859 125.513 97.605 125.997C97.795 126.14 98.001 126.261 98.218 126.359C98.754 126.567 99.44 126.41 99.934 126.146C100.168 126.021 100.117 125.95 100.215 125.726C100.313 125.501 100.553 125.358 100.762 125.562C100.825 125.633 100.869 125.718 100.892 125.81C101.088 126.459 101.014 127.158 101.014 127.838C101.008 127.945 101.021 128.051 101.053 128.153C101.103 128.255 101.163 128.353 101.232 128.444C101.246 128.468 101.258 128.493 101.269 128.519C101.39 128.82 101.435 129.146 101.401 129.469Z" fill="#514E7F"/>
<path fill-rule="evenodd" clip-rule="evenodd" d="M101.401 129.467C101.417 129.669 101.361 129.871 101.244 130.037C101.152 130.13 101.038 130.197 100.913 130.234C99.09 130.887 96.979 130.073 95.16 130.716C94.786 130.848 94.432 131.038 94.056 131.164C93.608 131.299 93.146 131.381 92.679 131.408C92.036 131.469 91.389 131.509 90.744 131.526C90.254 131.561 89.761 131.518 89.284 131.398C89.046 131.337 88.823 131.227 88.63 131.074C88.437 130.921 88.279 130.729 88.165 130.511C88.066 130.316 88.046 130.09 88.11 129.88C88.138 129.808 88.179 129.741 88.23 129.683C88.336 129.905 88.413 130.2 88.48 130.307C88.57 130.464 88.693 130.6 88.84 130.707C88.987 130.813 89.155 130.886 89.333 130.922C89.6 130.939 89.867 130.905 90.12 130.822C91.772 130.413 93.529 130.407 95.116 129.787C95.661 129.573 96.181 129.288 96.753 129.158C97.325 129.028 97.933 129.063 98.523 129.014C99.456 128.94 100.359 128.658 101.277 128.511C101.396 128.815 101.438 129.143 101.401 129.467Z" fill="#464353"/>
<path fill-rule="evenodd" clip-rule="evenodd" d="M125.129 124.536C125.043 125.229 124.604 125.825 124.122 126.33C123.64 126.836 123.095 127.29 122.712 127.872C122.24 128.594 122.027 129.489 121.414 130.099C121.178 130.321 120.913 130.509 120.627 130.66C120.306 130.849 119.966 131.005 119.614 131.126C118.697 131.419 117.71 131.352 116.752 131.281C116.441 131.278 116.133 131.219 115.843 131.106C115.711 131.039 115.585 130.962 115.465 130.874C115.225 130.726 115.023 130.524 114.875 130.284C114.803 130.153 114.782 130 114.818 129.855C114.873 129.695 114.967 129.552 115.092 129.438C115.307 129.214 115.538 129.006 115.784 128.815C116.121 128.597 116.424 128.332 116.685 128.028C116.845 127.787 116.963 127.521 117.033 127.241C117.172 126.75 117.257 126.246 117.287 125.736C117.286 125.398 117.321 125.06 117.391 124.729C117.537 124.21 117.922 123.746 117.879 123.209C117.861 123.132 117.868 123.051 117.899 122.978C117.944 122.922 118.008 122.882 118.079 122.866C118.38 122.746 118.697 122.673 119.02 122.648C119.182 122.637 119.344 122.662 119.495 122.721C119.646 122.78 119.782 122.872 119.893 122.99C120.027 123.151 120.115 123.384 120.312 123.447C120.41 123.473 120.512 123.477 120.611 123.458C121.095 123.409 121.606 123.348 121.988 123.035C122.164 122.877 122.306 122.684 122.404 122.469C122.502 122.253 122.555 122.019 122.558 121.782C122.558 121.603 122.478 121.417 122.755 121.389C122.964 121.361 123.129 121.586 123.235 121.723C123.619 122.237 124.012 122.774 124.156 123.399C124.212 123.378 124.271 123.366 124.331 123.366C124.453 123.365 124.575 123.393 124.684 123.449C124.793 123.505 124.887 123.586 124.958 123.687C125.115 123.94 125.176 124.242 125.129 124.536Z" fill="#514E7F"/>
<path fill-rule="evenodd" clip-rule="evenodd" d="M125.129 124.537C125.043 125.229 124.604 125.825 124.122 126.331C123.64 126.836 123.095 127.291 122.712 127.873C122.24 128.595 122.027 129.49 121.413 130.1C121.178 130.321 120.913 130.51 120.627 130.66C120.306 130.85 119.966 131.006 119.614 131.126C118.697 131.42 117.71 131.353 116.752 131.282C116.441 131.279 116.133 131.22 115.843 131.107C115.711 131.04 115.585 130.962 115.465 130.875C115.225 130.727 115.023 130.525 114.875 130.285C115.059 130.196 115.261 130.148 115.465 130.143C115.89 130.167 116.201 130.568 116.608 130.692C117.188 130.867 117.767 130.458 118.355 130.318C118.738 130.227 119.142 130.251 119.521 130.121C119.838 129.999 120.13 129.822 120.385 129.598C120.734 129.348 121.045 129.049 121.307 128.709C121.525 128.369 121.707 128.007 121.848 127.629C122.159 126.904 122.524 126.205 122.942 125.536C123.004 125.43 123.078 125.332 123.164 125.245C123.257 125.16 123.361 125.101 123.465 125.027C123.858 124.73 124.022 124.24 124.159 123.76C124.197 123.614 124.249 123.472 124.315 123.337C124.438 123.336 124.559 123.364 124.668 123.42C124.777 123.476 124.871 123.558 124.942 123.658C125.112 123.917 125.178 124.231 125.129 124.537Z" fill="#464353"/>
<path fill-rule="evenodd" clip-rule="evenodd" d="M83.8819 63.207C84.3719 63.574 84.7749 64.044 85.0619 64.584C85.3379 65.123 86.9249 69.305 86.8329 69.913C87.3499 69.392 89.3899 69.307 89.9129 68.786C90.1309 68.567 91.3099 67.478 91.4869 67.224C91.6639 66.97 92.9779 66.437 93.1209 66.17C93.6579 65.208 89.3129 61.563 89.8699 60.613C89.8999 60.569 89.9159 60.517 89.9149 60.463C89.9019 60.418 89.8769 60.378 89.8419 60.347C89.4859 59.983 89.0139 59.757 88.5849 59.488C88.1559 59.218 87.7429 58.842 87.6269 58.347C87.2179 58.535 86.8429 58.789 86.5159 59.098C85.7189 59.781 84.9349 60.478 84.1649 61.189C83.8639 61.468 83.2819 61.84 83.1419 62.239C82.9769 62.668 83.5949 62.973 83.8819 63.207Z" fill="#FFCDD3"/>
<path fill-rule="evenodd" clip-rule="evenodd" d="M90.916 61.661C90.25 62.109 89.627 62.619 89.055 63.184C88.517 63.717 88.005 64.334 87.875 65.08C87.82 65.373 87.828 65.67 87.783 65.967C87.586 67.255 86.473 68.2 85.981 69.405C85.839 69.778 85.734 70.163 85.668 70.556C85.53 71.301 85.454 72.057 85.442 72.814C85.43 73.548 86.15 74.054 86.414 74.738C86.677 75.423 86.748 76.127 86.882 76.829C87.134 78.155 87.596 79.433 88.062 80.704C89.032 83.383 92.175 90.789 93.145 93.47C96.117 92.725 104.029 91.011 106.661 89.44C107.538 88.916 100.573 83.013 101.511 82.606C101.564 82.598 101.615 82.577 101.66 82.546C101.704 82.514 101.74 82.473 101.766 82.425C101.791 82.377 101.805 82.324 101.807 82.27C101.808 82.216 101.797 82.162 101.774 82.112C100.836 78.009 97.901 74.638 96.57 70.643C96.107 69.256 95.277 68.072 94.648 66.754C94.077 65.56 93.772 64.24 93.09 63.105C92.961 62.871 92.793 62.661 92.592 62.485C92.422 62.355 92.238 62.243 92.043 62.153C91.654 61.964 91.292 61.852 90.916 61.661Z" fill="#F7F6FF"/>
<path fill-rule="evenodd" clip-rule="evenodd" d="M84.0399 62.742C86.6089 62.742 88.6919 60.659 88.6919 58.09C88.6919 55.52 86.6089 53.438 84.0399 53.438C81.4699 53.438 79.3879 55.52 79.3879 58.09C79.3879 60.659 81.4699 62.742 84.0399 62.742Z" fill="#FFCDD3"/>
<path fill-rule="evenodd" clip-rule="evenodd" d="M88.772 60.276C89.004 60.062 89.295 59.923 89.607 59.878C89.919 59.833 90.238 59.884 90.521 60.024C90.835 60.187 91.111 60.518 91.04 60.864L93.347 60.899C93.715 60.889 94.082 60.923 94.441 60.999C94.803 61.078 95.125 61.281 95.354 61.572C95.381 61.609 95.413 61.654 95.46 61.66C95.498 61.661 95.536 61.648 95.566 61.625C95.921 61.447 96.321 61.378 96.715 61.428C97.962 61.509 99.115 62.132 100.092 62.911C100.269 63.033 100.405 63.203 100.486 63.401C100.566 63.663 100.47 63.991 100.682 64.178C100.682 66.342 101.426 68.364 101.922 70.473C102.01 70.848 102.37 71.181 102.62 71.476C102.929 71.803 103.181 72.179 103.365 72.589C103.786 73.683 103.206 74.969 103.615 76.067C103.788 76.531 104.123 76.913 104.402 77.316C104.77 77.782 105.003 78.34 105.075 78.929C105.093 79.193 105.059 79.458 105.075 79.716C105.101 80.07 105.167 80.421 105.272 80.76C105.439 81.395 105.615 82.029 105.799 82.662C106.098 83.685 106.487 84.789 107.404 85.334C105.191 85.709 102.858 86.077 100.749 85.308C100.455 85.208 100.176 85.068 99.919 84.893C99.158 84.35 98.79 83.422 98.462 82.544C98.096 81.561 97.724 80.56 97.649 79.513C97.65 79.18 97.603 78.849 97.51 78.53C97.295 77.959 96.723 77.615 96.203 77.298C95.617 76.977 95.086 76.564 94.63 76.075C94.404 75.828 94.23 75.538 94.121 75.222C94.011 74.906 93.967 74.571 93.993 74.238C94.032 73.913 94.16 73.6 94.172 73.274C94.183 72.947 94.038 72.574 93.725 72.487C92.114 71.999 91.345 70.091 90.987 68.447C90.832 67.597 90.763 66.734 90.78 65.87L90.759 64.192C90.536 63.99 90.358 63.744 90.233 63.471C90.109 63.197 90.041 62.901 90.035 62.601C90.056 62.425 90.053 62.248 90.025 62.073C89.947 61.86 89.821 61.668 89.655 61.513C89.299 61.148 89.002 60.731 88.772 60.276Z" fill="#B643D5"/>
<path fill-rule="evenodd" clip-rule="evenodd" d="M83.818 65.594C83.764 66.113 83.882 66.646 83.766 67.156C83.721 67.352 83.643 67.549 83.585 67.732C83.411 68.465 83.487 69.236 83.8 69.921C84.113 70.6 84.487 71.249 84.919 71.859C85.065 72.067 85.185 72.292 85.277 72.529C85.352 72.779 85.398 73.035 85.415 73.295C85.529 74.336 85.711 75.369 85.962 76.387C86.182 77.268 88.684 84.802 89.266 85.5C89.372 85.655 89.532 85.764 89.715 85.805C89.846 85.81 89.977 85.783 90.096 85.726L91.277 85.274C91.377 85.243 91.47 85.192 91.55 85.124C91.661 84.995 91.721 84.83 91.719 84.66C91.804 83.7 89.296 76.113 88.977 75.207C88.013 72.469 86.731 69.829 86.103 66.994C85.928 66.207 85.836 64.996 85.259 64.368C85.021 64.109 85.102 64.219 84.817 64.354C84.673 64.417 84.533 64.49 84.4 64.573C84.233 64.689 84.094 64.841 83.993 65.017C83.892 65.194 83.832 65.391 83.818 65.594Z" fill="#B643D5"/>
<path fill-rule="evenodd" clip-rule="evenodd" d="M87.399 70.788C87.716 72.462 88.042 74.132 88.367 75.806L92.986 74.597C93.023 74.113 92.765 73.664 92.592 73.22C92.171 72.163 92.161 70.987 91.821 69.901C91.563 69.075 91.115 68.316 90.873 67.484C90.733 67 90.662 66.5 90.525 66.01C90.377 65.529 90.196 65.059 89.982 64.604C89.723 63.943 89.384 63.317 88.975 62.737C88.385 62.958 87.755 63.213 87.419 63.746C87.246 64.047 87.148 64.384 87.132 64.73C87.051 65.767 87.427 66.809 87.303 67.84C87.175 68.821 87.208 69.817 87.399 70.788Z" fill="#DADADA"/>
<path fill-rule="evenodd" clip-rule="evenodd" d="M93.0629 93.055C93.3219 94.039 92.9459 95.074 92.6399 96.047C92.1779 97.514 91.8629 99.023 91.6989 100.552C91.6789 100.941 91.6009 101.325 91.4669 101.691C91.3219 102.019 91.0739 102.297 90.9049 102.609C90.4399 103.432 90.4519 104.435 90.5529 105.375C90.6189 105.995 90.7199 106.612 90.8439 107.222C90.9949 107.968 91.1819 108.746 90.9639 109.474C91.3299 109.394 91.5769 109.868 91.5539 110.239C91.5299 110.611 91.4099 111.026 91.5889 111.347C92.0419 111.512 92.0459 112.134 92.0319 112.616C92.0389 113.451 92.1449 114.283 92.3469 115.094C93.0309 118.386 93.7579 121.668 94.5259 124.941C96.1879 125.457 98.1299 125.993 99.7149 125.279C100.01 125.148 100.305 124.937 100.372 124.619C100.389 124.447 100.368 124.273 100.309 124.111L99.5579 121.377C99.3749 120.716 99.1919 120.033 99.2879 119.355C99.3609 118.849 99.5809 118.304 99.3329 117.858C99.2489 117.704 99.1149 117.584 99.0169 117.439C98.6229 116.862 98.8299 116.091 98.8609 115.393C98.8739 115.236 98.8629 115.079 98.8299 114.925C98.7759 114.745 98.7009 114.573 98.6059 114.412C97.9849 113.206 97.6859 111.86 97.7399 110.505C97.7639 110.332 97.7399 110.156 97.6709 109.996C97.6239 109.929 97.5809 109.86 97.5429 109.787C97.5139 109.661 97.5289 109.528 97.5849 109.411C97.3589 109.24 97.1559 109.042 96.9789 108.821C97.0879 108.753 97.1799 108.662 97.2489 108.553C97.3169 108.444 97.3599 108.321 97.3739 108.194C97.3879 108.066 97.3729 107.937 97.3299 107.816C97.2859 107.695 97.2159 107.585 97.1239 107.495C97.2049 107.479 97.2789 107.441 97.3389 107.385C97.3989 107.33 97.4419 107.258 97.4639 107.179C97.4849 107.101 97.4849 107.017 97.4619 106.939C97.4399 106.86 97.3949 106.789 97.3349 106.734C97.2389 106.667 97.1109 106.638 97.0419 106.537C96.9359 106.392 97.0219 106.189 97.1089 106.034L97.5669 105.206C97.9089 104.59 97.9859 103.829 98.3539 103.239C98.8809 102.379 99.2249 101.421 99.5659 100.473L100.889 96.82L101.78 97.593C102.077 97.82 102.326 98.104 102.512 98.427C102.639 98.747 102.719 99.084 102.75 99.427C103.077 101.409 104.324 103.129 104.786 105.082C104.888 105.517 104.957 105.973 105.207 106.345C105.296 106.459 105.377 106.58 105.447 106.707C105.512 106.9 105.546 107.103 105.547 107.307C105.589 107.706 105.715 108.092 105.919 108.438C106.123 108.784 106.398 109.083 106.728 109.313C107.166 109.614 107.711 109.82 107.949 110.296C107.997 110.444 108.063 110.585 108.146 110.715C108.358 110.971 108.817 111.001 108.907 111.321C108.958 111.5 108.864 111.715 108.964 111.872C109.021 111.945 109.096 112.001 109.182 112.035L110.463 112.675C111.895 113.391 112.627 115.035 113.683 116.233C114.048 116.623 114.371 117.05 114.647 117.508C115.103 118.324 115.314 119.349 116.085 119.868C116.292 119.976 116.481 120.116 116.643 120.283C116.885 120.602 116.797 121.048 116.818 121.45C116.84 121.851 117.147 122.329 117.529 122.207C117.395 122.693 117.395 123.206 117.529 123.692C119.204 123.606 120.802 122.959 122.065 121.855C122.438 121.528 122.798 121.111 122.802 120.616C122.808 120.53 122.789 120.445 122.747 120.37C122.672 120.273 122.572 120.198 122.458 120.151C121.26 119.502 120.9 117.997 120.294 116.776C119.765 115.698 118.982 114.77 118.327 113.768C116.903 111.614 115.931 109.008 113.777 107.586C113.303 107.273 112.753 106.996 112.515 106.478C112.383 106.189 112.367 105.859 112.263 105.56C112.159 105.261 111.909 104.97 111.59 104.97C111.767 104.537 111.732 104.01 111.744 103.542C111.756 103.334 111.732 103.126 111.673 102.926C111.591 102.711 111.485 102.507 111.356 102.316C110.794 101.365 110.513 100.274 110.546 99.169C110.561 98.6 110.662 98.014 110.491 97.471C110.404 97.198 110.253 96.948 110.148 96.685C109.991 96.207 109.908 95.708 109.902 95.205L109.784 93.315C109.767 92.685 109.685 92.059 109.54 91.446C109.147 89.979 108.754 83.832 107.406 83.139C106.059 82.447 103.744 87.178 102.227 87.27C101.556 87.298 100.893 87.426 100.26 87.65C99.2509 88.028 98.4049 88.732 97.5809 89.42L94.7919 91.763C94.2009 92.249 93.7139 92.713 93.0629 93.055Z" fill="#464353"/>
<path fill-rule="evenodd" clip-rule="evenodd" d="M79.675 52.925C80.289 52.087 81.343 51.643 82.381 51.605C83.42 51.568 84.443 51.895 85.373 52.357C85.648 52.513 85.942 52.633 86.247 52.715C86.738 52.815 87.285 52.681 87.73 52.912C88.32 53.224 88.434 54.021 88.383 54.682C88.332 55.343 88.208 56.077 88.56 56.649C88.685 56.812 88.799 56.984 88.9 57.162C89.052 57.503 88.963 57.896 88.873 58.256C88.643 58.059 88.513 57.762 88.308 57.534C88.104 57.306 87.748 57.153 87.494 57.324C87.24 57.495 87.244 57.806 87.23 58.085C87.216 58.364 87.146 58.699 86.882 58.789C86.772 58.814 86.657 58.806 86.552 58.765C86.447 58.724 86.356 58.652 86.292 58.559C85.842 58.008 86.022 57.129 85.576 56.574C85.322 56.259 84.899 56.106 84.665 55.776C84.48 55.516 84.433 55.185 84.272 54.906C84.111 54.627 83.735 54.422 83.485 54.615C83.4 54.696 83.329 54.792 83.275 54.896C83.119 55.119 82.892 55.284 82.632 55.362C82.371 55.441 82.092 55.429 81.839 55.329C81.645 55.21 81.436 55.12 81.217 55.06C81.074 55.052 80.931 55.085 80.806 55.155C80.68 55.224 80.577 55.328 80.507 55.453C80.366 55.703 80.298 55.988 80.31 56.275C80.31 56.669 80.381 57.088 80.157 57.402C80.071 57.521 79.965 57.622 79.842 57.701C79.514 57.912 79.055 58.053 78.752 57.813C78.65 57.718 78.573 57.597 78.531 57.464C78.488 57.33 78.48 57.188 78.508 57.05C78.567 56.776 78.645 56.507 78.74 56.244C78.914 55.634 78.687 54.947 78.876 54.373C79.074 53.856 79.343 53.369 79.675 52.925Z" fill="#464353"/>
<path fill-rule="evenodd" clip-rule="evenodd" d="M82.167 66.802C82.138 66.945 82.153 67.094 82.21 67.228C82.269 67.32 82.348 67.396 82.442 67.451C83.104 67.863 83.856 68.107 84.634 68.161C84.74 68.163 84.843 68.19 84.937 68.239C85.122 68.361 85.133 68.633 85.065 68.849C84.973 69.053 84.925 69.275 84.925 69.498C84.982 69.909 85.47 70.088 85.881 70.149C86.457 70.222 87.089 70.185 87.545 69.825C87.854 69.543 88.09 69.19 88.231 68.796C89.361 66.202 89.756 63.334 90.899 60.747C90.985 60.578 91.043 60.396 91.07 60.208C91.082 60.114 91.069 60.018 91.031 59.931C90.994 59.844 90.934 59.768 90.857 59.712C90.645 59.581 90.315 59.655 90.171 59.449C90.1 59.344 90.108 59.203 90.045 59.093C89.913 58.859 89.567 58.896 89.331 58.76C89.146 58.662 89.018 58.459 88.812 58.42C88.71 58.414 88.609 58.432 88.516 58.473C88.423 58.513 88.34 58.574 88.275 58.652C87.604 59.278 87.252 60.165 86.878 61.003C86.307 62.287 85.639 63.526 84.88 64.709C84.968 64.571 84.455 63.528 84.254 63.483C83.902 63.412 83.452 64.03 83.261 64.26C82.662 64.986 82.283 65.868 82.167 66.802Z" fill="#DADADA"/>
<path opacity="0.1" fill-rule="evenodd" clip-rule="evenodd" d="M89.313 58.942C89.172 58.945 89.033 58.979 88.907 59.042C88.78 59.106 88.67 59.196 88.584 59.308C88.373 59.582 88.332 59.944 88.279 60.292C88.1 61.395 87.706 62.452 87.12 63.404" fill="black"/>
<path opacity="0.1" fill-rule="evenodd" clip-rule="evenodd" d="M90.3169 59.729C90.1219 59.733 89.9309 59.788 89.7639 59.888C89.5969 59.989 89.4589 60.131 89.3629 60.301C89.2329 60.61 89.1519 60.938 89.1229 61.273C88.9539 62.014 88.6289 62.711 88.1689 63.316" fill="black"/>
<path fill-rule="evenodd" clip-rule="evenodd" d="M137.065 98.183V95.74C137.065 93.942 136.35 92.217 135.078 90.946C133.806 89.674 132.081 88.96 130.283 88.96H33.801C32.003 88.96 30.278 89.674 29.006 90.946C27.734 92.217 27.02 93.942 27.019 95.74V100.245L137.065 98.183Z" fill="#33323D"/>
<path fill-rule="evenodd" clip-rule="evenodd" d="M60.641 86.096C60.641 86.096 60.366 103.182 63.395 108.804C66.424 114.426 67.723 138.882 67.723 138.882C67.723 138.882 99.479 142.167 121.608 134.948C143.737 127.729 190.824 124.776 190.824 124.776L182.889 71.294C182.889 71.294 143.688 68.78 121.388 79.416C99.087 90.052 60.641 86.096 60.641 86.096Z" fill="#8DD070"/>
<path opacity="0.1" fill-rule="evenodd" clip-rule="evenodd" d="M60.641 86.096C60.641 86.096 60.366 103.182 63.395 108.804C66.424 114.426 67.723 138.882 67.723 138.882C67.723 138.882 99.479 142.167 121.608 134.948C143.737 127.729 190.824 124.776 190.824 124.776L182.889 71.294C182.889 71.294 143.688 68.78 121.388 79.416C99.087 90.052 60.641 86.096 60.641 86.096Z" fill="black"/>
<path fill-rule="evenodd" clip-rule="evenodd" d="M67.6699 92.337C67.6699 92.337 66.6769 106.434 69.1689 110.939C71.6609 115.444 71.7769 135.553 71.7769 135.553C71.7769 135.553 100.356 136.878 120.686 129.958C141.015 123.038 183.735 118.55 183.735 118.55L178.881 74.812C178.881 74.812 143.533 74.448 122.903 84.189C102.272 93.93 67.6699 92.337 67.6699 92.337Z" fill="#8DD070"/>
<path opacity="0.1" fill-rule="evenodd" clip-rule="evenodd" d="M122.589 121.952C126.655 121.445 129.071 113.965 127.984 105.243C126.898 96.522 122.721 89.863 118.655 90.369C114.588 90.876 112.173 98.356 113.259 107.077C114.345 115.799 118.522 122.458 122.589 121.952Z" fill="black"/>
<path opacity="0.2" fill-rule="evenodd" clip-rule="evenodd" d="M161.398 45.24C161.398 45.24 123.314 54.879 105.355 71.844C87.395 88.81 49.589 96.844 49.589 96.844C49.589 96.844 54.569 113.188 59.176 117.61C63.783 122.032 72.521 144.912 72.521 144.912C72.521 144.912 103.751 138.291 122.596 124.624C141.44 110.957 185.358 93.696 185.358 93.696L161.398 45.24Z" fill="black"/>
<path fill-rule="evenodd" clip-rule="evenodd" d="M49.016 94.397C49.016 94.397 53.995 110.743 58.598 115.165C63.2 119.587 71.942 142.466 71.942 142.466C71.942 142.466 103.177 135.847 122.023 122.18C140.869 108.513 184.783 91.258 184.783 91.258L160.823 42.796C160.823 42.796 122.741 52.434 104.782 69.4C86.823 86.366 49.016 94.397 49.016 94.397Z" fill="#8DD070"/>
<path opacity="0.1" fill-rule="evenodd" clip-rule="evenodd" d="M49.016 94.397C49.016 94.397 53.995 110.743 58.598 115.165C63.2 119.587 71.942 142.466 71.942 142.466C71.942 142.466 103.177 135.847 122.023 122.18C140.869 108.513 184.783 91.258 184.783 91.258L160.823 42.796C160.823 42.796 122.741 52.434 104.782 69.4C86.823 86.366 49.016 94.397 49.016 94.397Z" fill="black"/>
<path fill-rule="evenodd" clip-rule="evenodd" d="M57.614 98.183C57.614 98.183 60.996 111.907 64.751 115.428C68.506 118.949 74.783 138.049 74.783 138.049C74.783 138.049 102.388 130.539 119.613 117.714C136.839 104.888 176.125 87.525 176.125 87.525L158.085 47.374C158.085 47.374 124.332 57.872 107.685 73.475C91.038 89.077 57.614 98.183 57.614 98.183Z" fill="#8DD070"/>
<path opacity="0.1" fill-rule="evenodd" clip-rule="evenodd" d="M118.977 109.514C122.691 107.784 122.695 99.923 118.985 91.956C115.275 83.988 109.256 78.932 105.541 80.662C101.826 82.392 101.823 90.253 105.533 98.22C109.243 106.187 115.262 111.244 118.977 109.514Z" fill="black"/>
<path opacity="0.1" fill-rule="evenodd" clip-rule="evenodd" d="M139.67 100.582V168.445C139.67 169.215 139.518 169.978 139.223 170.691C138.928 171.403 138.495 172.049 137.95 172.594C137.405 173.139 136.758 173.571 136.046 173.866C135.334 174.161 134.571 174.313 133.8 174.312H32.891C31.335 174.312 29.843 173.693 28.743 172.593C27.643 171.493 27.025 170 27.025 168.445V93.74C29.916 94.814 29.916 94.814 32.891 94.724H133.8C135.355 94.724 136.846 95.341 137.946 96.439C139.047 97.537 139.666 99.027 139.67 100.582Z" fill="black"/>
<path fill-rule="evenodd" clip-rule="evenodd" d="M139.67 101.445V169.308C139.669 170.864 139.05 172.357 137.95 173.457C136.849 174.557 135.356 175.176 133.8 175.176H32.891C31.335 175.175 29.843 174.557 28.743 173.456C27.643 172.356 27.025 170.864 27.025 169.308V94.602C29.916 95.674 29.916 95.674 32.891 95.585H133.8C135.355 95.585 136.846 96.202 137.947 97.301C139.047 98.399 139.667 99.89 139.67 101.445Z" fill="#504F60"/>
<path opacity="0.1" fill-rule="evenodd" clip-rule="evenodd" d="M139.382 126.535V148.238H118.335C115.482 148.199 112.76 147.039 110.756 145.008C108.752 142.977 107.629 140.239 107.629 137.386C107.629 134.533 108.752 131.795 110.756 129.765C112.76 127.734 115.482 126.574 118.335 126.535H139.382Z" fill="black"/>
<path fill-rule="evenodd" clip-rule="evenodd" d="M139.67 125.957V147.663H118.623C115.77 147.625 113.047 146.465 111.044 144.434C109.04 142.403 107.917 139.665 107.917 136.812C107.917 133.959 109.04 131.221 111.044 129.19C113.047 127.16 115.77 125.999 118.623 125.961L139.67 125.957Z" fill="#33323D"/>
<path opacity="0.1" fill-rule="evenodd" clip-rule="evenodd" d="M119.631 141.617C121.968 141.617 123.862 139.723 123.862 137.386C123.862 135.05 121.968 133.155 119.631 133.155C117.294 133.155 115.4 135.05 115.4 137.386C115.4 139.723 117.294 141.617 119.631 141.617Z" fill="black"/>
<path fill-rule="evenodd" clip-rule="evenodd" d="M119.919 141.043C122.255 141.043 124.15 139.149 124.15 136.812C124.15 134.475 122.255 132.581 119.919 132.581C117.582 132.581 115.688 134.475 115.688 136.812C115.688 139.149 117.582 141.043 119.919 141.043Z" fill="#FA7268"/>
<path fill-rule="evenodd" clip-rule="evenodd" d="M106.723 82.813C106.34 83.154 105.985 83.526 105.663 83.926C105.339 84.331 105.166 84.837 105.175 85.356C105.177 85.507 105.225 85.653 105.313 85.775C105.358 85.834 105.42 85.877 105.49 85.898C105.561 85.92 105.636 85.919 105.706 85.895C105.785 85.855 105.853 85.795 105.903 85.722C106.111 85.472 106.331 85.233 106.564 85.006C106.648 84.921 106.761 84.833 106.875 84.864C106.926 84.883 106.972 84.913 107.008 84.953C107.141 85.067 107.237 85.218 107.286 85.386C107.355 85.687 107.18 85.988 106.981 86.224C106.782 86.46 106.548 86.686 106.467 86.983C106.437 87.061 106.437 87.148 106.467 87.227C106.505 87.284 106.559 87.329 106.621 87.357C106.903 87.512 107.215 87.603 107.536 87.624C107.857 87.645 108.178 87.596 108.478 87.479C108.871 87.319 109.221 87.046 109.627 86.904C109.802 86.856 109.972 86.79 110.134 86.708C110.25 86.63 110.349 86.531 110.427 86.415C110.504 86.299 110.558 86.17 110.584 86.033C110.636 85.76 110.646 85.481 110.614 85.205C110.565 84.136 110.336 83.083 109.937 82.091C109.914 82.027 109.875 81.97 109.823 81.926C109.764 81.89 109.696 81.871 109.627 81.873C109.123 81.819 108.297 81.562 107.811 81.749C107.641 81.842 107.494 81.972 107.382 82.13C107.292 82.231 106.723 82.681 106.723 82.813Z" fill="#FFCDD3"/>
<path fill-rule="evenodd" clip-rule="evenodd" d="M106.564 82.37C106.564 81.89 105.974 80.731 106.912 80.654C106.912 80.141 106.186 79.822 106.322 79.277C106.365 79.096 106.519 78.949 106.537 78.764C106.596 78.239 105.647 77.954 105.805 77.45C105.864 77.253 106.072 77.139 106.118 76.945C106.224 76.49 105.411 76.288 105.396 75.821C105.396 75.664 105.484 75.516 105.476 75.359C105.476 75.162 105.305 75.013 105.211 74.842C104.965 74.403 105.085 73.724 104.636 73.498C104.933 73.524 105.03 73.083 104.908 72.814C104.786 72.544 104.536 72.31 104.534 72.011C104.549 71.903 104.549 71.793 104.534 71.685C104.452 71.397 103.981 71.374 103.903 71.095C103.893 70.987 103.889 70.88 103.893 70.772C103.861 70.55 103.633 70.408 103.419 70.345C103.196 70.307 102.982 70.231 102.785 70.119C102.648 70.015 102.488 69.842 102.341 69.922C102.286 69.956 102.258 70.019 102.217 70.066C102.04 70.272 101.702 70.182 101.479 70.03C100.822 69.584 100.496 68.783 100.356 68.002C100.216 67.221 100.22 66.415 100.045 65.642C99.9919 65.401 99.9209 65.164 99.8329 64.934C99.7579 64.737 99.5179 64.428 99.5019 64.23C99.4669 63.777 100.403 64.086 100.759 64.131C101.105 64.165 101.447 64.231 101.78 64.328C102.136 64.462 102.485 64.615 102.825 64.786C104.245 65.414 105.96 65.49 107.101 66.545C107.477 66.891 107.794 67.345 108.281 67.503C108.505 67.546 108.726 67.603 108.942 67.674C109.483 67.928 109.568 68.646 109.863 69.165C109.956 69.302 110.037 69.447 110.105 69.598C110.162 69.775 110.188 69.962 110.183 70.148L110.225 71.512C110.292 73.795 110.359 76.085 110.115 78.355C110.036 79.104 109.918 79.875 110.14 80.595C110.199 80.792 110.282 80.977 110.337 81.176C110.386 81.409 110.411 81.646 110.412 81.884L110.443 82.767C110.454 82.836 110.439 82.906 110.4 82.964C110.367 82.99 110.329 83.009 110.287 83.019C110.246 83.029 110.203 83.03 110.162 83.021C108.932 82.911 107.689 82.218 106.529 82.637" fill="#B643D5"/>
<path fill-rule="evenodd" clip-rule="evenodd" d="M175.185 148.23C174.929 147.135 174.77 146.173 174.77 146.173C174.77 146.173 174.829 144.981 174.294 144.086V143.787V141.584C174.446 141.183 174.632 140.797 174.85 140.429C175.244 139.736 174.85 137.199 174.85 137.199C174.85 137.199 173.381 133.621 173.737 131.351C174.093 129.081 170.72 121.272 170.72 121.272C170.74 120.519 170.847 119.77 171.036 119.041C171.072 118.888 171.087 118.73 171.079 118.573C171.079 118.553 171.079 118.536 171.079 118.516C171.079 118.496 171.079 118.528 171.079 118.534C171.028 117.037 169.844 114.232 169.844 114.232L170.004 108.885C170.004 108.885 170.759 105.738 169.527 101.499C169.097 100.022 168.821 98.84 168.646 97.927C168.627 97.825 168.607 97.73 168.591 97.63C171.127 97.237 173.064 96.922 173.064 96.922C173.064 96.922 171.593 90.767 170.6 89.689C169.606 88.611 168.811 85.226 168.811 85.226C168.811 85.226 168.294 80.881 169.13 79.61C169.966 78.339 170.084 76.148 170.084 76.148C170.084 76.148 171.99 74.771 172.23 74.147C172.47 73.524 172.866 72.147 172.866 71.417C172.866 70.687 172.628 70.04 172.706 69.647C172.785 69.253 172.15 67.8 172.468 67.107C172.551 66.895 172.593 66.669 172.594 66.441C172.595 66.434 172.595 66.427 172.594 66.421C172.597 65.815 172.541 65.21 172.427 64.615C171.876 64.15 171.232 63.806 170.539 63.606L170.497 63.441L170.389 63.008C170.329 62.968 170.266 62.931 170.202 62.898V62.74L170.184 62.115L170.483 60.711C171.074 58.267 167.81 57.904 167.81 57.904C167.612 57.529 167.283 57.24 166.886 57.093C166.231 56.863 166.778 60.768 167.082 61.027C167.313 61.224 168.025 62.44 168.369 63.041L168.424 63.14C168.37 63.188 168.32 63.241 168.274 63.297L168.398 64.145L168.418 64.275C168.202 64.543 168.026 64.842 167.897 65.162C167.897 65.162 168.487 65.815 168.375 66.539C168.263 67.263 168.558 68.181 168.572 68.231C168.536 68.189 168.117 67.737 167.698 67.847C167.279 67.957 166.109 68.309 166.109 68.309C166.109 68.309 165.235 68.463 165.322 68.655C165.409 68.848 164.732 69.694 164.732 69.694L162.383 67.467C162.36 67.4 162.334 67.334 162.314 67.271C162.219 66.95 162.153 66.62 162.118 66.287C162.374 66.226 162.625 66.147 162.869 66.049C163.116 65.964 163.339 65.821 163.518 65.632C163.756 65.351 163.801 64.969 163.898 64.619C164.083 63.934 164.488 63.327 164.769 62.676C165.246 61.575 165.399 60.362 165.212 59.178C165.176 58.813 165.052 58.462 164.852 58.155C164.468 57.628 163.772 57.414 163.266 56.993C162.761 56.572 162.434 55.929 161.844 55.616C161.311 55.331 160.664 55.364 160.062 55.462C158.886 55.656 157.757 56.067 156.732 56.674C156.39 56.871 156.012 57.113 155.619 57.04C155.28 56.979 155.028 56.71 154.816 56.45C154.818 56.439 154.822 56.429 154.826 56.418C154.816 56.409 154.808 56.398 154.8 56.387C154.551 56.939 154.426 57.54 154.434 58.145C154.434 58.24 154.434 58.342 154.446 58.427V58.525C154.446 58.553 154.446 58.58 154.446 58.606C154.446 58.648 154.44 58.689 154.428 58.73C154.379 58.85 154.304 58.958 154.208 59.046C154.136 59.128 154.07 59.216 154.011 59.308C154.011 59.277 154.031 59.245 154.043 59.212C153.893 59.431 153.808 59.688 153.799 59.953C153.788 60.146 153.851 60.336 153.976 60.484C154.094 60.599 154.222 60.701 154.36 60.791C154.313 61.051 154.289 61.314 154.289 61.578C154.293 62.36 154.499 63.128 154.887 63.807C155.275 64.486 155.832 65.054 156.504 65.455C156.531 65.52 156.557 65.587 156.582 65.652C156.883 66.439 157.11 67.363 157.009 68.209C157.009 68.27 156.992 68.333 156.982 68.394C156.972 68.455 156.923 68.459 156.897 68.492C156.897 68.492 153.016 68.531 152.103 67.705C151.191 66.879 149.798 69.725 149.798 69.725C149.798 69.725 148.407 69.995 148.128 69.725C147.849 69.456 146.222 69.688 146.222 69.688C145.555 69.095 144.688 68.779 143.797 68.803C143.256 68.392 142.66 68.061 142.026 67.819L141.983 67.804C141.703 67.702 141.404 67.664 141.108 67.694C141.108 67.694 139.2 66.12 138.643 65.27C138.086 64.42 135.437 61.283 135.425 61.269V61.118L135.395 60.661C135.317 60.674 135.237 60.68 135.157 60.681C135.144 60.636 135.124 60.583 135.104 60.522C134.952 60.077 134.763 59.644 134.542 59.229C134.542 59.229 134.542 58.653 134.709 58.507C134.876 58.362 134.64 56.247 134.64 56.247C134.64 56.247 132.921 52.229 131.381 55.228C131.381 55.228 128.469 57.17 130.912 59.432C130.912 59.432 131.896 59.904 132.026 60.278C132.116 60.52 132.447 61.198 132.669 61.655L132.769 61.851L132.742 61.875L132.777 62.253L132.793 62.398C132.333 62.66 132.02 62.919 132.097 63.114C132.232 63.447 132.325 63.796 132.374 64.153C132.374 64.153 135.753 68.386 136.19 70.194C136.19 70.194 145.252 75.579 148.232 75.963L147.705 78.648C147.628 79.377 147.589 80.109 147.587 80.841C147.626 81.418 147.229 84.034 147.229 84.034C147.229 84.034 146.712 87.881 146.275 88.42C145.838 88.959 145.917 91.267 145.917 91.267C145.814 92.371 145.617 93.465 145.327 94.536C144.89 95.997 145.207 97.807 145.207 97.807C145.207 97.807 143.698 101.269 147.314 98.922C147.314 98.922 149.084 98.812 151.134 98.741C151.134 98.808 151.134 98.877 151.134 98.938C151.134 99.202 151.134 99.487 151.12 99.786C151.092 101.769 151.081 104.507 151.171 106.568C151.33 110.223 152.444 117.456 152.444 117.456V121.097C152.372 121.438 152.336 121.786 152.338 122.135C152.314 123.416 152.655 124.678 153.321 125.772L153.6 128.196C153.6 128.196 154.253 129.793 154.265 130.753C154.263 130.83 154.253 130.907 154.238 130.983C154.212 131.105 154.202 131.23 154.206 131.355C154.169 132.456 154.832 135.092 154.832 135.092C154.832 135.092 154.871 137.746 155.268 137.901C155.609 138.033 154.814 139.43 154.578 139.831C154.572 139.806 154.567 139.781 154.564 139.756L154.515 139.835C154.433 140.05 154.391 140.278 154.391 140.508C154.369 140.689 154.398 140.873 154.476 141.038C154.554 141.203 154.678 141.342 154.832 141.44C155.587 141.902 155.992 142.286 155.351 142.439C155.115 142.476 154.881 142.525 154.651 142.587C154.651 142.557 154.627 142.526 154.617 142.498C154.527 142.534 154.451 142.599 154.404 142.684C154.356 142.768 154.339 142.867 154.356 142.962C154.362 143.274 154.442 143.581 154.59 143.855C155.225 145.28 155.666 145.822 155.666 145.822L155.971 145.789C155.926 145.906 155.866 146.016 155.794 146.118C155.678 146.283 155.524 146.417 155.345 146.511C155.179 146.611 154.993 146.674 154.8 146.698C154.585 146.705 154.373 146.757 154.179 146.851C153.986 146.946 153.814 147.08 153.675 147.245C153.282 147.758 153.03 148.456 153.813 149.07L156.655 150.054C156.655 150.054 161.545 150.689 161.286 149.591C161.026 148.494 160.869 147.534 160.869 147.534C160.89 146.864 160.755 146.198 160.475 145.588C160.424 145.489 160.366 145.393 160.302 145.301L160.475 145.284C160.475 145.284 160.833 142.858 161.309 142.398C161.419 142.292 161.445 142.201 161.419 142.146C161.469 142.014 161.343 141.938 161.183 141.892L161.148 141.989C160.992 141.955 160.833 141.937 160.674 141.936C160.674 141.936 160.515 140.667 161.032 140.205C161.074 140.152 161.104 140.091 161.121 140.026C161.139 139.961 161.142 139.893 161.132 139.827C161.136 139.653 161.118 139.479 161.077 139.31C161.072 139.321 161.066 139.331 161.059 139.341C160.8 138.188 159.918 136.357 159.918 136.357C159.918 136.357 159.879 135.204 160.198 134.742C160.516 134.28 160.156 128.471 160.156 128.471C160.156 128.471 160.276 125.664 159.918 124.356C159.56 123.048 160.355 121.508 160.355 121.508C160.355 121.508 160.355 121.478 160.355 121.425V121.406L160.31 120.963C160.309 120.972 160.309 120.981 160.31 120.991C160.229 120.247 160.078 118.9 159.966 118.278C159.806 117.393 160.007 113.164 160.007 113.164L160.721 111.354L161.994 114.472L163.345 118.626C163.345 118.626 164.014 119.503 164.03 120.396C164.03 120.44 164.03 120.483 164.03 120.526C164.019 120.618 164.013 120.711 164.014 120.804C163.99 121.329 164.134 121.847 164.425 122.285C164.425 122.285 164.783 124.252 165.34 124.746C165.896 125.239 165.896 126.207 165.896 126.207C165.896 126.207 166.571 129.055 166.88 129.551C167.147 129.972 167.161 131.125 167.159 131.485C167.159 131.55 167.159 131.587 167.159 131.587C167.159 131.587 167.254 132.606 167.25 133.46C167.25 133.566 167.25 133.668 167.25 133.765C167.251 133.757 167.251 133.75 167.25 133.743C167.249 133.976 167.222 134.209 167.167 134.435L167.155 134.475C167.155 134.425 167.155 134.378 167.169 134.331C167.031 134.911 166.965 135.505 166.972 136.101C166.955 137.124 167.11 138.336 167.73 139.052C168.804 140.283 169.478 140.13 169.478 140.13C169.478 140.13 168.963 141.668 168.326 141.977C168.302 141.988 168.279 142.003 168.259 142.02C168.259 141.989 168.247 141.959 168.243 141.93C168.172 142.006 168.118 142.097 168.084 142.196C168.05 142.295 168.037 142.4 168.046 142.504C168.001 143.181 168.428 144.274 168.833 144.784C168.984 144.931 169.168 145.039 169.37 145.099C169.338 145.121 169.305 145.142 169.27 145.16C169.199 145.198 169.126 145.233 169.051 145.264C168.948 145.308 168.839 145.336 168.727 145.348C168.511 145.354 168.299 145.406 168.105 145.5C167.911 145.595 167.74 145.729 167.602 145.895C167.208 146.407 166.957 147.105 167.739 147.719L170.582 148.702C170.582 148.702 175.44 149.326 175.185 148.23Z" fill="url(#paint0_linear)"/>
<path fill-rule="evenodd" clip-rule="evenodd" d="M156.516 150.049L153.762 149.065C153.003 148.452 153.245 147.753 153.628 147.24C153.76 147.076 153.926 146.943 154.114 146.848C154.302 146.754 154.508 146.701 154.718 146.693C154.904 146.669 155.084 146.606 155.243 146.506C155.418 146.411 155.567 146.277 155.68 146.113C155.881 145.794 155.989 145.426 155.993 145.049C155.993 145.049 159.014 144.164 159.84 145.049C159.988 145.209 160.111 145.39 160.206 145.586C160.481 146.197 160.615 146.861 160.599 147.531C160.599 147.531 160.753 148.491 161.003 149.589C161.253 150.686 156.516 150.049 156.516 150.049Z" fill="#2D293D"/>
<path fill-rule="evenodd" clip-rule="evenodd" d="M169.978 148.692L167.224 147.708C166.465 147.094 166.707 146.396 167.09 145.885C167.221 145.72 167.386 145.586 167.574 145.492C167.762 145.397 167.968 145.345 168.178 145.338C168.287 145.327 168.393 145.298 168.493 145.253C168.565 145.222 168.636 145.188 168.705 145.149C169.474 144.726 169.455 143.687 169.455 143.687C169.455 143.687 172.474 142.802 173.302 143.687C173.413 143.807 173.51 143.939 173.591 144.081C174.109 144.976 174.052 146.17 174.052 146.17C174.052 146.17 174.205 147.132 174.445 148.227C174.685 149.323 169.978 148.692 169.978 148.692Z" fill="#2D293D"/>
<path opacity="0.1" fill-rule="evenodd" clip-rule="evenodd" d="M159.841 145.046C159.989 145.206 160.112 145.387 160.207 145.583L155.683 146.108C155.884 145.79 155.992 145.421 155.996 145.044C155.996 145.044 159.015 144.161 159.841 145.046Z" fill="black"/>
<path opacity="0.1" fill-rule="evenodd" clip-rule="evenodd" d="M173.596 144.085V144.932C172.891 146.091 169.486 145.837 168.497 145.257C168.57 145.226 168.641 145.192 168.71 145.153C169.479 144.73 169.459 143.691 169.459 143.691C169.459 143.691 172.478 142.806 173.306 143.691C173.417 143.811 173.514 143.943 173.596 144.085Z" fill="black"/>
<path fill-rule="evenodd" clip-rule="evenodd" d="M174.133 140.431C173.922 140.8 173.742 141.186 173.596 141.585V144.624C172.824 145.893 168.825 145.47 168.285 144.778C167.744 144.085 167.179 142.283 167.787 141.971C168.395 141.658 168.902 140.124 168.902 140.124C168.902 140.124 168.247 140.277 167.209 139.046C166.17 137.814 166.479 135.084 166.672 134.431C166.864 133.778 166.672 131.585 166.672 131.585C166.672 131.585 166.711 130.045 166.404 129.545C166.097 129.045 165.442 126.201 165.442 126.201C165.442 126.201 165.442 125.239 164.903 124.739C164.364 124.24 164.018 122.277 164.018 122.277C163.703 121.786 163.567 121.202 163.634 120.622C163.749 119.661 162.979 118.622 162.979 118.622L161.671 114.466L160.44 111.35L159.748 113.157C159.748 113.157 159.551 117.389 159.71 118.272C159.87 119.155 160.104 121.504 160.104 121.504C160.104 121.504 159.334 123.042 159.681 124.35C160.027 125.658 159.901 128.469 159.901 128.469C159.901 128.469 160.247 134.276 159.938 134.738C159.63 135.2 159.669 136.355 159.669 136.355C159.669 136.355 161.242 139.738 160.747 140.2C160.251 140.663 160.401 141.931 160.401 141.931C160.401 141.931 161.477 141.931 161.016 142.394C160.556 142.856 160.208 145.279 160.208 145.279L155.556 145.824C155.556 145.824 155.131 145.287 154.515 143.857C153.9 142.427 154.629 142.588 155.249 142.433C155.869 142.278 155.477 141.896 154.745 141.434C154.014 140.971 154.438 139.933 154.438 139.933C154.438 139.933 155.554 138.048 155.168 137.895C154.783 137.742 154.745 135.086 154.745 135.086C154.745 135.086 153.976 131.939 154.169 131.085C154.362 130.231 153.553 128.201 153.553 128.201L153.284 125.778C152.461 124.403 152.16 122.777 152.438 121.199V117.461C152.438 117.461 151.36 110.23 151.207 106.576C151.108 104.235 151.136 101.04 151.167 99.048C151.187 97.931 151.207 97.189 151.207 97.189L167.824 95.458C167.824 95.458 167.808 96.225 168.125 97.927C168.296 98.839 168.562 100.022 168.979 101.499C170.171 105.73 169.441 108.883 169.441 108.883L169.286 114.231C169.286 114.231 170.747 117.808 170.44 119.039C170.255 119.77 170.151 120.519 170.13 121.273C170.13 121.273 173.399 129.083 173.053 131.353C172.706 133.623 174.129 137.201 174.129 137.201C174.129 137.201 174.518 139.738 174.133 140.431Z" fill="#B643D5"/>
<path opacity="0.05" fill-rule="evenodd" clip-rule="evenodd" d="M164.631 120.39L169.691 119.715C169.691 119.715 166.825 122.64 164.631 120.39Z" fill="black"/>
<path opacity="0.1" fill-rule="evenodd" clip-rule="evenodd" d="M168.959 114.771C168.959 114.771 169.132 116.561 168.037 117.234C168.037 117.234 169.998 116.927 168.959 114.771Z" fill="black"/>
<path opacity="0.1" fill-rule="evenodd" clip-rule="evenodd" d="M168.648 109.079C168.648 109.079 164.419 112.561 162.881 112.272C161.343 111.982 168.648 109.079 168.648 109.079Z" fill="black"/>
<path opacity="0.1" fill-rule="evenodd" clip-rule="evenodd" d="M158.36 122.023C158.36 122.023 155.148 122.753 155.051 124.044C154.955 125.334 158.36 122.023 158.36 122.023Z" fill="black"/>
<path opacity="0.05" fill-rule="evenodd" clip-rule="evenodd" d="M159.067 138.065C159.067 138.065 154.529 138.911 155.817 139.488C157.106 140.064 159.222 140.526 159.222 140.526C159.222 140.526 160.688 140.603 159.067 138.065Z" fill="black"/>
<g opacity="0.05">
<path opacity="0.05" fill-rule="evenodd" clip-rule="evenodd" d="M154.9 140.403C154.786 140.332 154.69 140.236 154.618 140.122C154.546 140.008 154.501 139.88 154.485 139.746L154.438 139.827C154.438 139.827 154.015 140.865 154.747 141.326C154.829 141.379 154.91 141.432 154.983 141.483C155.119 141.457 155.264 141.438 155.404 141.402C156.023 141.249 155.632 140.865 154.9 140.403Z" fill="black"/>
<path opacity="0.05" fill-rule="evenodd" clip-rule="evenodd" d="M160.747 140.093C160.873 139.979 160.869 139.684 160.792 139.307C160.595 139.604 160.538 140.068 160.534 140.42C160.582 140.298 160.654 140.187 160.747 140.093Z" fill="black"/>
<path opacity="0.05" fill-rule="evenodd" clip-rule="evenodd" d="M160.048 120.958C159.88 121.413 159.777 121.889 159.741 122.372C159.828 122.038 159.946 121.713 160.093 121.401L160.048 120.958Z" fill="black"/>
<path opacity="0.05" fill-rule="evenodd" clip-rule="evenodd" d="M170.442 118.939C170.472 118.8 170.486 118.659 170.483 118.518C170.426 118.805 170.386 119.07 170.357 119.304C170.383 119.184 170.41 119.07 170.442 118.939Z" fill="black"/>
<path opacity="0.05" fill-rule="evenodd" clip-rule="evenodd" d="M159.94 134.633C160.003 134.539 160.039 134.22 160.054 133.777C159.912 134.12 159.837 134.486 159.832 134.857C159.859 134.778 159.895 134.703 159.94 134.633Z" fill="black"/>
<path opacity="0.05" fill-rule="evenodd" clip-rule="evenodd" d="M160.884 141.889C160.645 142.66 160.468 143.45 160.355 144.249L155.703 144.786C155.703 144.786 155.278 144.249 154.662 142.819C154.613 142.709 154.569 142.596 154.53 142.481C154.251 142.609 154.137 142.898 154.507 143.742C155.122 145.166 155.549 145.709 155.549 145.709L160.201 145.17C160.201 145.17 160.548 142.746 161.008 142.284C161.244 142.062 161.098 141.946 160.884 141.889Z" fill="black"/>
<path opacity="0.05" fill-rule="evenodd" clip-rule="evenodd" d="M154.747 134.98C154.747 134.98 154.784 137.634 155.169 137.787C155.366 137.348 155.494 136.931 155.321 136.863C154.928 136.709 154.898 134.054 154.898 134.054C154.898 134.054 154.129 130.906 154.322 130.053C154.514 129.199 153.706 127.169 153.706 127.169L153.437 124.746C152.613 123.37 152.313 121.745 152.591 120.166V116.429C152.591 116.429 151.513 109.198 151.359 105.543C151.261 103.203 151.289 100.008 151.32 98.015C151.32 97.656 151.332 97.337 151.338 97.067L151.206 97.081C151.206 97.081 151.184 97.821 151.167 98.94C151.135 100.933 151.106 104.127 151.206 106.466C151.359 110.121 152.435 117.353 152.435 117.353V121.091C152.159 122.669 152.46 124.294 153.283 125.668L153.551 128.092C153.551 128.092 154.359 130.129 154.166 130.977C153.974 131.825 154.747 134.98 154.747 134.98Z" fill="black"/>
<path opacity="0.05" fill-rule="evenodd" clip-rule="evenodd" d="M168.441 143.748C168.063 143.201 167.811 142.577 167.704 141.921C167.23 142.35 167.774 144.014 168.294 144.675C168.831 145.367 172.832 145.79 173.605 144.519V143.788C172.556 144.816 168.949 144.403 168.441 143.748Z" fill="black"/>
<path opacity="0.05" fill-rule="evenodd" clip-rule="evenodd" d="M174.288 139.402C174.077 139.771 173.896 140.157 173.749 140.556V141.101C173.837 140.904 173.961 140.641 174.142 140.33C174.264 140.027 174.321 139.702 174.311 139.376C174.311 139.376 174.293 139.394 174.288 139.402Z" fill="black"/>
<path opacity="0.05" fill-rule="evenodd" clip-rule="evenodd" d="M168.678 140.01C168.824 139.714 168.951 139.408 169.057 139.095C169.057 139.095 168.402 139.249 167.364 138.017C166.608 137.122 166.565 135.431 166.673 134.325C166.476 134.98 166.172 137.71 167.21 138.942C167.889 139.746 168.402 139.959 168.678 140.01Z" fill="black"/>
<path opacity="0.05" fill-rule="evenodd" clip-rule="evenodd" d="M166.671 131.479C166.738 132.237 166.764 132.998 166.747 133.759C166.767 133.639 166.793 133.52 166.826 133.403C167.023 132.748 166.826 130.556 166.826 130.556C166.826 130.556 166.865 129.016 166.557 128.516C166.248 128.017 165.604 125.169 165.604 125.169C165.604 125.169 165.604 124.207 165.066 123.707C164.527 123.207 164.18 121.244 164.18 121.244C163.862 120.755 163.723 120.17 163.787 119.59C163.903 118.628 163.134 117.59 163.134 117.59L161.826 113.435L160.594 110.319L159.9 112.129C159.9 112.129 159.9 112.357 159.876 112.719L160.439 111.25L161.67 114.36L162.978 118.514C162.978 118.514 163.748 119.553 163.632 120.515C163.568 121.095 163.707 121.679 164.025 122.169C164.025 122.169 164.371 124.136 164.91 124.632C165.449 125.127 165.447 126.093 165.447 126.093C165.447 126.093 166.102 128.939 166.409 129.437C166.716 129.935 166.671 131.479 166.671 131.479Z" fill="black"/>
</g>
<path fill-rule="evenodd" clip-rule="evenodd" d="M169.901 60.705L169.612 62.11L169.63 62.735L169.641 63.196L168.036 63.361L167.857 63.029C167.525 62.427 166.834 61.203 166.612 61.014C166.315 60.766 165.786 56.86 166.416 57.092C166.803 57.242 167.121 57.53 167.309 57.9C167.309 57.9 170.47 58.262 169.901 60.705Z" fill="#FFCDD3"/>
<path opacity="0.1" fill-rule="evenodd" clip-rule="evenodd" d="M169.641 63.197L168.036 63.362L167.857 63.03C168.073 62.784 168.367 62.621 168.69 62.568C169.013 62.514 169.344 62.575 169.627 62.739L169.641 63.197Z" fill="black"/>
<path fill-rule="evenodd" clip-rule="evenodd" d="M170.047 63.958L167.93 64.448L167.885 64.133L167.765 63.285C167.765 63.285 168.603 62.168 169.815 63.006L169.921 63.437L170.047 63.958Z" fill="white"/>
<path fill-rule="evenodd" clip-rule="evenodd" d="M135.761 60.86L133.501 62.072L133.304 61.647C133.09 61.196 132.769 60.518 132.681 60.27C132.547 59.896 131.605 59.424 131.605 59.424C129.244 57.164 132.057 55.221 132.057 55.221C133.548 52.221 135.204 56.239 135.204 56.239C135.204 56.239 135.436 58.358 135.273 58.5C135.11 58.641 135.11 59.222 135.11 59.222C135.325 59.637 135.507 60.069 135.655 60.514C135.724 60.728 135.761 60.86 135.761 60.86Z" fill="#FFCDD3"/>
<path opacity="0.1" fill-rule="evenodd" clip-rule="evenodd" d="M135.761 60.86L133.501 62.072L133.304 61.647C133.623 61.379 134.754 60.467 135.126 60.504C135.303 60.526 135.482 60.531 135.661 60.518C135.724 60.728 135.761 60.86 135.761 60.86Z" fill="black"/>
<path fill-rule="evenodd" clip-rule="evenodd" d="M135.992 61.542L133.452 62.793L133.401 62.248L133.366 61.87C133.366 61.87 134.837 60.609 135.272 60.659C135.492 60.69 135.715 60.69 135.935 60.659L135.964 61.115L135.992 61.542Z" fill="white"/>
<path fill-rule="evenodd" clip-rule="evenodd" d="M163.747 70.036C163.747 70.036 152.676 71.285 154.746 70.612C156.185 70.142 156.758 69.235 156.878 68.212C156.976 67.361 156.756 66.442 156.467 65.655C156.207 64.957 155.877 64.287 155.483 63.655C155.483 63.655 163.941 59.001 162.252 63.232C161.991 63.872 161.829 64.548 161.772 65.236C161.721 65.921 161.795 66.608 161.99 67.266C162.309 68.334 162.917 69.292 163.747 70.036Z" fill="#FFCDD3"/>
<path opacity="0.1" fill-rule="evenodd" clip-rule="evenodd" d="M162.245 63.226C161.985 63.866 161.823 64.542 161.765 65.23C160.969 65.901 160.095 65.856 158.972 65.856C158.11 65.856 157.154 66.064 156.466 65.649C156.206 64.951 155.876 64.281 155.482 63.649C155.482 63.649 163.939 58.995 162.245 63.226Z" fill="black"/>
<path fill-rule="evenodd" clip-rule="evenodd" d="M158.822 66.15C161.35 66.15 163.399 64.1 163.399 61.572C163.399 59.044 161.35 56.995 158.822 56.995C156.294 56.995 154.245 59.044 154.245 61.572C154.245 64.1 156.294 66.15 158.822 66.15Z" fill="#FFCDD3"/>
<path opacity="0.1" fill-rule="evenodd" clip-rule="evenodd" d="M163.747 70.035C163.747 70.035 152.676 71.284 154.746 70.612C156.185 70.142 156.758 69.235 156.878 68.212C157.429 67.622 158.536 67.183 159.238 66.955C159.888 66.737 160.588 66.725 161.245 66.922C161.503 66.999 161.748 67.113 161.974 67.26C162.297 68.331 162.91 69.292 163.747 70.035Z" fill="black"/>
<path opacity="0.1" fill-rule="evenodd" clip-rule="evenodd" d="M170.047 63.958L167.93 64.448L167.885 64.133C168.112 63.822 168.429 63.588 168.793 63.463C169.158 63.338 169.551 63.329 169.921 63.437L170.047 63.958Z" fill="black"/>
<path opacity="0.1" fill-rule="evenodd" clip-rule="evenodd" d="M135.991 61.542L133.452 62.793L133.4 62.248C134.223 61.806 135.078 61.427 135.958 61.113L135.991 61.542Z" fill="black"/>
<path opacity="0.1" fill-rule="evenodd" clip-rule="evenodd" d="M168.125 97.931C163.835 98.615 157.737 99.488 156.77 99.193C155.965 98.949 153.4 98.975 151.167 99.052C151.187 97.934 151.207 97.193 151.207 97.193L167.824 95.462C167.824 95.462 167.809 96.229 168.125 97.931Z" fill="black"/>
<path fill-rule="evenodd" clip-rule="evenodd" d="M172.401 96.923C172.401 96.923 158.283 99.347 156.769 98.89C155.254 98.434 147.475 98.928 147.475 98.928C143.973 101.274 145.435 97.812 145.435 97.812C145.435 97.812 145.128 96.005 145.551 94.543C145.835 93.47 146.029 92.375 146.131 91.27C146.131 91.27 146.054 88.961 146.477 88.422C146.9 87.883 147.402 84.037 147.402 84.037C147.402 84.037 147.785 81.421 147.748 80.845C147.711 80.268 147.862 78.651 147.862 78.651L148.364 75.958C145.478 75.575 136.707 70.189 136.707 70.189C136.284 68.381 133.015 64.15 133.015 64.15C132.967 63.795 132.877 63.446 132.745 63.112C132.515 62.496 135.977 61.265 135.977 61.265C135.977 61.265 138.554 64.412 139.093 65.266C139.632 66.119 141.477 67.689 141.477 67.689C141.764 67.66 142.053 67.697 142.323 67.799L142.368 67.813C142.986 68.056 143.566 68.387 144.089 68.796C144.957 68.776 145.798 69.093 146.436 69.682C146.436 69.682 148.01 69.45 148.283 69.719C148.556 69.988 149.898 69.719 149.898 69.719C149.898 69.719 151.243 66.873 152.129 67.699C153.014 68.525 156.769 68.486 156.769 68.486C157.268 67.821 158.486 67.345 159.247 67.109C159.897 66.891 160.597 66.88 161.254 67.075C161.537 67.16 161.803 67.293 162.041 67.469L164.324 69.699C164.324 69.699 164.977 68.852 164.901 68.661C164.824 68.47 165.67 68.315 165.67 68.315C165.67 68.315 166.785 67.968 167.208 67.852C167.631 67.736 168.018 68.195 168.054 68.236C168.04 68.187 167.751 67.252 167.857 66.544C167.963 65.836 167.395 65.167 167.395 65.167C168.74 61.859 171.779 64.628 171.779 64.628C171.779 64.628 172.126 66.436 171.819 67.128C171.512 67.821 172.126 69.282 172.049 69.668C171.972 70.053 172.204 70.706 172.204 71.438C172.204 72.17 171.811 73.553 171.589 74.168C171.366 74.784 169.511 76.169 169.511 76.169C169.511 76.169 169.395 78.362 168.587 79.631C167.778 80.9 168.286 85.239 168.286 85.239C168.286 85.239 169.055 88.624 170.017 89.702C170.979 90.78 172.401 96.923 172.401 96.923Z" fill="#B643D5"/>
<path opacity="0.1" fill-rule="evenodd" clip-rule="evenodd" d="M151.823 71.61C151.823 71.61 151.4 70.342 151.014 70.233C150.631 70.093 150.259 69.926 149.899 69.734L150.147 69.26C150.147 69.26 151.591 69.653 151.823 70.08C152.055 70.507 151.823 71.61 151.823 71.61Z" fill="black"/>
<path opacity="0.1" fill-rule="evenodd" clip-rule="evenodd" d="M144.089 68.805C144.013 69.198 140.588 69.535 140.588 69.535L142.319 67.8L142.362 67.816C142.983 68.06 143.565 68.393 144.089 68.805Z" fill="black"/>
<path fill-rule="evenodd" clip-rule="evenodd" d="M134.184 63.831C134.353 63.831 134.491 63.694 134.491 63.525C134.491 63.355 134.353 63.218 134.184 63.218C134.014 63.218 133.877 63.355 133.877 63.525C133.877 63.694 134.014 63.831 134.184 63.831Z" fill="#575988"/>
<path fill-rule="evenodd" clip-rule="evenodd" d="M134.577 64.447C134.747 64.447 134.884 64.309 134.884 64.14C134.884 63.97 134.747 63.833 134.577 63.833C134.408 63.833 134.271 63.97 134.271 64.14C134.271 64.309 134.408 64.447 134.577 64.447Z" fill="#575988"/>
<path fill-rule="evenodd" clip-rule="evenodd" d="M134.962 65.016C135.132 65.016 135.269 64.879 135.269 64.709C135.269 64.54 135.132 64.402 134.962 64.402C134.793 64.402 134.655 64.54 134.655 64.709C134.655 64.879 134.793 65.016 134.962 65.016Z" fill="#575988"/>
<path fill-rule="evenodd" clip-rule="evenodd" d="M135.366 65.629C135.535 65.629 135.673 65.492 135.673 65.322C135.673 65.153 135.535 65.016 135.366 65.016C135.196 65.016 135.059 65.153 135.059 65.322C135.059 65.492 135.196 65.629 135.366 65.629Z" fill="#575988"/>
<path fill-rule="evenodd" clip-rule="evenodd" d="M171.626 65.54C171.764 65.54 171.876 65.428 171.876 65.29C171.876 65.152 171.764 65.04 171.626 65.04C171.488 65.04 171.376 65.152 171.376 65.29C171.376 65.428 171.488 65.54 171.626 65.54Z" fill="#575988"/>
<path fill-rule="evenodd" clip-rule="evenodd" d="M171.665 66.107C171.803 66.107 171.915 65.995 171.915 65.857C171.915 65.719 171.803 65.607 171.665 65.607C171.527 65.607 171.416 65.719 171.416 65.857C171.416 65.995 171.527 66.107 171.665 66.107Z" fill="#575988"/>
<path fill-rule="evenodd" clip-rule="evenodd" d="M171.699 66.673C171.837 66.673 171.949 66.562 171.949 66.424C171.949 66.286 171.837 66.174 171.699 66.174C171.561 66.174 171.449 66.286 171.449 66.424C171.449 66.562 171.561 66.673 171.699 66.673Z" fill="#575988"/>
<path opacity="0.1" fill-rule="evenodd" clip-rule="evenodd" d="M151.836 82.037C151.799 81.992 160.471 92.943 167.203 86.615C167.208 86.617 156.573 88.058 151.836 82.037Z" fill="black"/>
<path opacity="0.1" fill-rule="evenodd" clip-rule="evenodd" d="M146.859 87.729C146.859 87.729 152.048 87.87 152.591 89.363V90.917C152.444 90.999 152.277 91.042 152.108 91.042C151.939 91.042 151.773 90.999 151.626 90.917C151.102 90.634 147.965 89.041 146.859 89.808V87.729Z" fill="black"/>
<path fill-rule="evenodd" clip-rule="evenodd" d="M146.956 87.729C146.956 87.729 151.918 87.864 152.438 89.288V90.768C152.296 90.846 152.137 90.887 151.975 90.887C151.814 90.887 151.655 90.846 151.513 90.768C151.014 90.5 148.014 88.98 146.956 89.711V87.729Z" fill="#DADADA"/>
<path opacity="0.1" fill-rule="evenodd" clip-rule="evenodd" d="M149.691 76.462C150.222 77.689 150.897 78.848 151.704 79.914C152.581 81.092 153.644 82.12 154.851 82.957C154.851 82.957 149.778 77.174 149.691 76.462Z" fill="black"/>
<path opacity="0.1" fill-rule="evenodd" clip-rule="evenodd" d="M147.994 70.433C147.994 70.433 148.86 74.17 151.09 75.439L147.994 70.433Z" fill="black"/>
<path opacity="0.1" fill-rule="evenodd" clip-rule="evenodd" d="M146.666 70.811C146.644 70.742 145.897 73.761 149.542 75.439C149.542 75.439 147.994 74.914 146.666 70.811Z" fill="black"/>
<path opacity="0.1" fill-rule="evenodd" clip-rule="evenodd" d="M169.325 68.303C169.267 68.303 171.122 69.483 171.628 70.034C171.628 70.034 170.42 68.225 169.325 68.303Z" fill="black"/>
<path fill-rule="evenodd" clip-rule="evenodd" d="M157.586 65.722C157.586 65.822 157.608 65.921 157.648 66.012C157.689 66.103 157.748 66.185 157.822 66.252C157.896 66.319 157.983 66.37 158.078 66.402C158.173 66.433 158.273 66.445 158.372 66.436C159.767 66.523 161.221 66.584 162.503 66.043C162.744 65.957 162.96 65.814 163.133 65.626C163.361 65.344 163.406 64.963 163.499 64.613C163.68 63.928 164.065 63.32 164.342 62.669C164.812 61.569 164.969 60.361 164.797 59.178C164.76 58.815 164.641 58.466 164.447 58.157C164.077 57.628 163.402 57.413 162.912 56.992C162.423 56.571 162.108 55.928 161.535 55.615C161.02 55.328 160.389 55.364 159.808 55.462C158.667 55.656 157.573 56.066 156.586 56.672C156.254 56.868 155.89 57.11 155.508 57.038C155.174 56.975 154.93 56.693 154.722 56.43C154.453 57.059 154.341 57.744 154.393 58.426C154.408 58.526 154.404 58.628 154.383 58.727C154.335 58.847 154.262 58.955 154.169 59.044C153.825 59.437 153.61 60.077 153.951 60.482C154.098 60.657 154.326 60.753 154.47 60.932C154.728 61.253 154.641 61.719 154.635 62.128C154.621 62.271 154.657 62.415 154.737 62.534C154.812 62.603 154.903 62.652 155.002 62.676C155.101 62.699 155.204 62.697 155.302 62.669C155.497 62.611 155.701 62.591 155.904 62.612C156.117 62.682 156.301 62.82 156.427 63.006C157.062 63.834 157.314 64.735 157.586 65.722Z" fill="#2D293D"/>
<g opacity="0.1">
<path opacity="0.1" fill-rule="evenodd" clip-rule="evenodd" d="M163.296 65.279C163.123 65.467 162.907 65.61 162.666 65.696C161.376 66.233 159.924 66.172 158.536 66.09C158.387 66.091 158.239 66.058 158.105 65.993C157.892 65.869 157.812 65.61 157.747 65.374C157.475 64.39 157.226 63.487 156.58 62.667C156.456 62.478 156.272 62.336 156.057 62.264C155.855 62.245 155.65 62.264 155.455 62.321C155.358 62.349 155.254 62.352 155.155 62.328C155.056 62.305 154.965 62.256 154.891 62.187C154.81 62.068 154.774 61.925 154.788 61.782C154.788 61.369 154.881 60.906 154.623 60.586C154.48 60.407 154.251 60.31 154.104 60.133C154.008 60.003 153.949 59.849 153.933 59.687C153.917 59.526 153.946 59.363 154.015 59.217C153.769 59.61 153.665 60.104 153.95 60.442C154.098 60.617 154.326 60.714 154.47 60.893C154.727 61.215 154.641 61.68 154.635 62.089C154.62 62.231 154.655 62.375 154.735 62.494C154.81 62.564 154.901 62.613 155.001 62.637C155.1 62.66 155.204 62.658 155.302 62.63C155.497 62.571 155.701 62.552 155.904 62.573C156.117 62.642 156.301 62.78 156.427 62.966C157.07 63.786 157.322 64.687 157.593 65.675C157.625 65.918 157.747 66.14 157.934 66.298C158.069 66.363 158.217 66.395 158.366 66.393C159.761 66.479 161.215 66.542 162.497 65.999C162.738 65.914 162.954 65.771 163.127 65.582C163.213 65.471 163.28 65.346 163.323 65.212C163.325 65.238 163.312 65.26 163.296 65.279Z" fill="black"/>
<path opacity="0.1" fill-rule="evenodd" clip-rule="evenodd" d="M154.393 58.608C154.455 58.541 154.503 58.462 154.533 58.376C154.551 58.277 154.551 58.175 154.533 58.075C154.495 57.515 154.567 56.952 154.747 56.419L154.722 56.39C154.453 57.018 154.34 57.703 154.393 58.384C154.399 58.459 154.399 58.534 154.393 58.608Z" fill="black"/>
</g>
<path opacity="0.1" fill-rule="evenodd" clip-rule="evenodd" d="M156.769 68.496C156.769 68.496 162.487 69.255 163.001 68.396L156.769 68.496Z" fill="black"/>
<path opacity="0.1" fill-rule="evenodd" clip-rule="evenodd" d="M167.885 66.128C167.885 66.128 171.064 66.128 171.762 67.324L167.885 66.128Z" fill="black"/>
<path opacity="0.1" fill-rule="evenodd" clip-rule="evenodd" d="M164.65 155.362C177.241 155.362 187.448 152.905 187.448 149.874C187.448 146.843 177.241 144.386 164.65 144.386C152.059 144.386 141.853 146.843 141.853 149.874C141.853 152.905 152.059 155.362 164.65 155.362Z" fill="#B643D5"/>
<path fill-rule="evenodd" clip-rule="evenodd" d="M57.256 36.328C57.256 36.328 41.34 35.368 43.216 46.52C43.216 46.52 42.838 48.492 44.629 49.386C44.629 49.386 44.658 48.56 46.263 48.842C46.834 48.936 47.414 48.964 47.992 48.925C48.772 48.874 49.513 48.57 50.105 48.061C50.105 48.061 54.58 46.212 56.319 38.901C56.319 38.901 57.606 37.306 57.555 36.895L54.869 38.043C54.869 38.043 55.787 39.98 55.058 41.591C55.058 41.591 54.971 38.113 54.455 38.188C54.351 38.203 53.06 38.859 53.06 38.859C53.06 38.859 54.638 42.233 53.447 44.687C53.447 44.687 53.899 40.528 52.566 39.103L50.676 40.207C50.676 40.207 52.521 43.693 51.27 46.537C51.27 46.537 51.591 42.175 50.277 40.476L48.565 41.812C48.565 41.812 50.298 45.246 49.242 47.605C49.242 47.605 49.104 42.528 48.194 42.145C48.194 42.145 46.695 43.468 46.467 44.008C46.467 44.008 47.654 46.503 46.917 47.819C46.917 47.819 46.465 44.436 46.094 44.417C46.094 44.417 44.601 46.658 44.446 48.197C44.446 48.197 44.51 45.912 45.733 44.205C45.733 44.205 44.289 44.453 43.446 45.388C43.446 45.388 43.679 43.804 46.102 43.664C46.102 43.664 47.336 41.963 47.665 41.861C47.665 41.861 45.257 41.659 43.796 42.307C43.796 42.307 45.081 40.812 48.107 41.492L49.799 40.111C49.799 40.111 46.627 39.678 45.282 40.156C45.282 40.156 46.83 38.833 50.255 39.797L52.096 38.697C52.096 38.697 49.391 38.115 47.78 38.319C47.78 38.319 49.482 37.402 52.636 38.396L53.96 37.805C53.96 37.805 51.979 37.415 51.398 37.353C50.818 37.29 50.788 37.132 50.788 37.132C52.043 36.922 53.331 37.066 54.51 37.546C54.51 37.546 57.303 36.504 57.256 36.328Z" fill="#FA7268"/>
<path fill-rule="evenodd" clip-rule="evenodd" d="M42.905 24.496C42.905 24.496 34.56 24 35.543 29.76C35.543 29.76 35.345 30.778 36.285 31.24C36.285 31.24 36.3 30.814 37.141 30.959C37.44 31.008 37.745 31.022 38.048 31.002C38.456 30.976 38.845 30.819 39.156 30.556C39.156 30.556 41.501 29.601 42.413 25.825C42.413 25.825 43.088 25.001 43.061 24.789L41.653 25.382C41.653 25.382 42.135 26.382 41.752 27.214C41.752 27.214 41.707 25.418 41.436 25.457C41.382 25.465 40.705 25.803 40.705 25.803C40.705 25.803 41.532 27.546 40.908 28.813C40.908 28.813 41.145 26.665 40.446 25.929L39.455 26.499C39.455 26.499 40.422 28.3 39.766 29.769C39.766 29.769 39.935 27.516 39.246 26.638L38.348 27.328C38.348 27.328 39.257 29.102 38.703 30.321C38.703 30.321 38.63 27.698 38.154 27.5C38.154 27.5 37.368 28.183 37.248 28.463C37.248 28.463 37.87 29.751 37.484 30.431C37.484 30.431 37.247 28.683 37.053 28.674C37.053 28.674 36.27 29.831 36.189 30.626C36.189 30.626 36.222 29.446 36.863 28.564C36.863 28.564 36.106 28.692 35.664 29.175C35.664 29.175 35.786 28.357 37.057 28.285C37.057 28.285 37.704 27.406 37.876 27.354C37.876 27.354 36.614 27.249 35.848 27.584C35.848 27.584 36.522 26.812 38.108 27.163L38.995 26.45C38.995 26.45 37.332 26.226 36.627 26.473C36.627 26.473 37.438 25.79 39.234 26.288L40.199 25.719C40.199 25.719 38.781 25.419 37.937 25.524C37.937 25.524 38.829 25.051 40.483 25.564L41.176 25.259C41.176 25.259 40.138 25.057 39.834 25.025C39.529 24.993 39.513 24.911 39.513 24.911C40.171 24.803 40.847 24.877 41.465 25.125C41.465 25.125 42.93 24.587 42.905 24.496Z" fill="#FA7268"/>
<path fill-rule="evenodd" clip-rule="evenodd" d="M11.8547 116.681C11.8547 116.681 0.971415 123.794 7.33451 129.835C7.33451 129.835 7.99391 131.247 9.58101 130.936C9.58101 130.936 9.21941 130.407 10.4018 129.805C10.8203 129.588 11.2139 129.324 11.5748 129.019C12.0625 128.61 12.4096 128.061 12.5636 127.457C12.5636 127.457 14.6479 124.137 12.4237 118.738C12.4237 118.738 12.5339 117.12 12.3116 116.889L11.0776 118.906C11.0776 118.906 12.572 119.668 12.8345 121.025C12.8345 121.025 11.1767 118.9 10.873 119.197C10.8117 119.257 10.2666 120.291 10.2666 120.291C10.2666 120.291 12.8551 121.629 13.2031 123.735C13.2031 123.735 11.5854 120.925 10.0552 120.682L9.32321 122.286C9.32321 122.286 12.1378 123.564 12.6262 125.943C12.6262 125.943 10.8291 123.069 9.18511 122.646L8.67671 124.309C8.67671 124.309 11.3946 125.609 11.7872 127.592C11.7872 127.592 9.35991 124.494 8.58681 124.696C8.58681 124.696 8.21241 126.247 8.31121 126.694C8.31121 126.694 10.2383 127.674 10.3602 128.851C10.3602 128.851 8.50661 126.961 8.25481 127.129C8.25481 127.129 8.30701 129.25 8.91351 130.284C8.91351 130.284 7.90381 128.828 7.92051 127.172C7.92051 127.172 7.08711 128.026 6.96471 129.018C6.96471 129.018 6.38811 127.918 7.91351 126.657C7.91351 126.657 7.94031 124.998 8.10911 124.775C8.10911 124.775 6.43611 125.816 5.77601 126.928C5.77601 126.928 5.93111 125.374 8.22961 124.331L8.70351 122.651C8.70351 122.651 6.42341 123.918 5.76061 124.868C5.76061 124.868 6.16721 123.293 8.85791 122.234L9.55941 120.657C9.55941 120.657 7.51691 121.605 6.55431 122.512C6.55431 122.512 7.24841 121.117 9.77571 120.208L10.3715 119.198C10.3715 119.198 8.89271 119.915 8.48331 120.157C8.07381 120.399 7.98091 120.315 7.98091 120.315C8.70791 119.577 9.61922 119.042 10.6131 118.77C10.6131 118.77 11.9666 116.767 11.8547 116.681Z" fill="#FA7268"/>
<path fill-rule="evenodd" clip-rule="evenodd" d="M10.5038 180.272C14.9061 180.272 18.4749 176.48 18.4749 171.801C18.4749 167.123 14.9061 163.331 10.5038 163.331C6.10151 163.331 2.53271 167.123 2.53271 171.801C2.53271 176.48 6.10151 180.272 10.5038 180.272Z" fill="#FBD56F"/>
<path opacity="0.1" fill-rule="evenodd" clip-rule="evenodd" d="M10.5038 180.272C14.9061 180.272 18.4749 176.48 18.4749 171.801C18.4749 167.123 14.9061 163.331 10.5038 163.331C6.10151 163.331 2.53271 167.123 2.53271 171.801C2.53271 176.48 6.10151 180.272 10.5038 180.272Z" fill="black"/>
<path fill-rule="evenodd" clip-rule="evenodd" d="M11.8788 180.273C16.2811 180.273 19.8499 176.565 19.8499 171.991C19.8499 167.418 16.2811 163.71 11.8788 163.71C7.47651 163.71 3.90771 167.418 3.90771 171.991C3.90771 176.565 7.47651 180.273 11.8788 180.273Z" fill="#FBD56F"/>
<path fill-rule="evenodd" clip-rule="evenodd" d="M15.1091 179.494L14.2793 179.033C14.2793 179.033 13.891 180.652 14.0183 181.808C14.0303 181.924 14.0774 182.034 14.1532 182.123C14.229 182.211 14.33 182.275 14.4428 182.305C16.3528 182.779 25.44 184.799 31.692 181.952C31.783 181.911 31.861 181.847 31.919 181.766C31.977 181.685 32.013 181.59 32.023 181.491C32.102 180.782 31.83 179.318 31.722 179.033C31.495 178.419 15.1091 179.494 15.1091 179.494Z" fill="#FBD56F"/>
<path opacity="0.1" fill-rule="evenodd" clip-rule="evenodd" d="M15.1091 179.494L14.2793 179.033C14.2793 179.033 13.891 180.652 14.0183 181.808C14.0303 181.924 14.0774 182.034 14.1532 182.123C14.229 182.211 14.33 182.275 14.4428 182.305C16.3528 182.779 25.44 184.799 31.692 181.952C31.783 181.911 31.861 181.847 31.919 181.766C31.977 181.685 32.013 181.59 32.023 181.491C32.102 180.782 31.83 179.318 31.722 179.033C31.495 178.419 15.1091 179.494 15.1091 179.494Z" fill="black"/>
<path fill-rule="evenodd" clip-rule="evenodd" d="M23.004 181.003C27.822 181.003 31.728 180.122 31.728 179.034C31.728 177.946 27.822 177.064 23.004 177.064C18.1854 177.064 14.2793 177.946 14.2793 179.034C14.2793 180.122 18.1854 181.003 23.004 181.003Z" fill="#FBD56F"/>
<path fill-rule="evenodd" clip-rule="evenodd" d="M18.4493 176.59L17.6216 176.129C17.6216 176.129 17.2333 177.748 17.3606 178.904C17.3725 179.02 17.4195 179.129 17.4953 179.218C17.5712 179.306 17.6723 179.369 17.785 179.399C19.695 179.874 28.782 181.895 35.034 179.048C35.125 179.006 35.203 178.942 35.261 178.861C35.319 178.781 35.355 178.686 35.366 178.587C35.442 177.877 35.17 176.414 35.062 176.129C34.826 175.515 18.4493 176.59 18.4493 176.59Z" fill="#FBD56F"/>
<path opacity="0.1" fill-rule="evenodd" clip-rule="evenodd" d="M18.4493 176.59L17.6216 176.129C17.6216 176.129 17.2333 177.748 17.3606 178.904C17.3725 179.02 17.4195 179.129 17.4953 179.218C17.5712 179.306 17.6723 179.369 17.785 179.399C19.695 179.874 28.782 181.895 35.034 179.048C35.125 179.006 35.203 178.942 35.261 178.861C35.319 178.781 35.355 178.686 35.366 178.587C35.442 177.877 35.17 176.414 35.062 176.129C34.826 175.515 18.4493 176.59 18.4493 176.59Z" fill="black"/>
<path fill-rule="evenodd" clip-rule="evenodd" d="M26.336 178.099C31.154 178.099 35.06 177.217 35.06 176.13C35.06 175.042 31.154 174.16 26.336 174.16C21.517 174.16 17.6113 175.042 17.6113 176.13C17.6113 177.217 21.517 178.099 26.336 178.099Z" fill="#FBD56F"/>
<path fill-rule="evenodd" clip-rule="evenodd" d="M21.388 172.773L20.5586 172.312C20.5586 172.312 20.1703 173.93 20.2976 175.086C20.3096 175.202 20.3567 175.312 20.4325 175.401C20.5083 175.49 20.6093 175.553 20.7221 175.583C22.632 176.057 31.722 178.077 37.971 175.231C38.062 175.189 38.14 175.125 38.199 175.044C38.257 174.963 38.294 174.869 38.305 174.77C38.381 174.06 38.109 172.596 38.001 172.312C37.774 171.698 21.388 172.773 21.388 172.773Z" fill="#FBD56F"/>
<path opacity="0.1" fill-rule="evenodd" clip-rule="evenodd" d="M21.388 172.773L20.5586 172.312C20.5586 172.312 20.1703 173.93 20.2976 175.086C20.3096 175.202 20.3567 175.312 20.4325 175.401C20.5083 175.49 20.6093 175.553 20.7221 175.583C22.632 176.057 31.722 178.077 37.971 175.231C38.062 175.189 38.14 175.125 38.199 175.044C38.257 174.963 38.294 174.869 38.305 174.77C38.381 174.06 38.109 172.596 38.001 172.312C37.774 171.698 21.388 172.773 21.388 172.773Z" fill="black"/>
<path fill-rule="evenodd" clip-rule="evenodd" d="M29.283 174.282C34.101 174.282 38.007 173.4 38.007 172.312C38.007 171.225 34.101 170.343 29.283 170.343C24.465 170.343 20.5586 171.225 20.5586 172.312C20.5586 173.4 24.465 174.282 29.283 174.282Z" fill="#FBD56F"/>
<path fill-rule="evenodd" clip-rule="evenodd" d="M18.1246 168.803L17.2948 168.339C17.2948 168.339 16.9086 169.96 17.0338 171.114C17.0461 171.23 17.0932 171.34 17.169 171.429C17.2447 171.517 17.3456 171.581 17.4582 171.611C19.3682 172.085 28.456 174.105 34.706 171.261C34.796 171.219 34.875 171.155 34.933 171.074C34.992 170.994 35.028 170.899 35.039 170.8C35.115 170.09 34.843 168.626 34.735 168.339C34.51 167.723 18.1246 168.803 18.1246 168.803Z" fill="#FBD56F"/>
<path opacity="0.1" fill-rule="evenodd" clip-rule="evenodd" d="M18.1246 168.803L17.2948 168.339C17.2948 168.339 16.9086 169.96 17.0338 171.114C17.0461 171.23 17.0932 171.34 17.169 171.429C17.2447 171.517 17.3456 171.581 17.4582 171.611C19.3682 172.085 28.456 174.105 34.706 171.261C34.796 171.219 34.875 171.155 34.933 171.074C34.992 170.994 35.028 170.899 35.039 170.8C35.115 170.09 34.843 168.626 34.735 168.339C34.51 167.723 18.1246 168.803 18.1246 168.803Z" fill="black"/>
<path fill-rule="evenodd" clip-rule="evenodd" d="M26.019 170.306C30.838 170.306 34.744 169.424 34.744 168.337C34.744 167.249 30.838 166.367 26.019 166.367C21.201 166.367 17.2949 167.249 17.2949 168.337C17.2949 169.424 21.201 170.306 26.019 170.306Z" fill="#FBD56F"/>
<path fill-rule="evenodd" clip-rule="evenodd" d="M25.465 165.616L24.638 165.153C24.638 165.153 24.249 166.774 24.377 167.927C24.388 168.044 24.435 168.154 24.511 168.242C24.587 168.331 24.688 168.395 24.801 168.425C26.711 168.898 35.799 170.919 42.048 168.074C42.139 168.032 42.217 167.968 42.276 167.887C42.334 167.807 42.371 167.712 42.382 167.613C42.458 166.903 42.186 165.437 42.078 165.153C41.851 164.535 25.465 165.616 25.465 165.616Z" fill="#FBD56F"/>
<path opacity="0.1" fill-rule="evenodd" clip-rule="evenodd" d="M25.465 165.616L24.638 165.153C24.638 165.153 24.249 166.774 24.377 167.927C24.388 168.044 24.435 168.154 24.511 168.242C24.587 168.331 24.688 168.395 24.801 168.425C26.711 168.898 35.799 170.919 42.048 168.074C42.139 168.032 42.217 167.968 42.276 167.887C42.334 167.807 42.371 167.712 42.382 167.613C42.458 166.903 42.186 165.437 42.078 165.153C41.851 164.535 25.465 165.616 25.465 165.616Z" fill="black"/>
<path fill-rule="evenodd" clip-rule="evenodd" d="M33.36 167.118C38.179 167.118 42.085 166.236 42.085 165.148C42.085 164.06 38.179 163.179 33.36 163.179C28.542 163.179 24.636 164.06 24.636 165.148C24.636 166.236 28.542 167.118 33.36 167.118Z" fill="#FBD56F"/>
<path fill-rule="evenodd" clip-rule="evenodd" d="M20.5055 163.467L19.6757 163.004C19.6757 163.004 19.2894 164.625 19.4146 165.778C19.4269 165.894 19.4741 166.004 19.5498 166.093C19.6256 166.181 19.7264 166.245 19.8391 166.275C21.749 166.749 30.836 168.77 37.086 165.925C37.177 165.884 37.256 165.819 37.314 165.739C37.373 165.658 37.409 165.563 37.42 165.464C37.496 164.754 37.224 163.288 37.116 163.004C36.891 162.39 20.5055 163.467 20.5055 163.467Z" fill="#FBD56F"/>
<path opacity="0.1" fill-rule="evenodd" clip-rule="evenodd" d="M20.5055 163.467L19.6757 163.004C19.6757 163.004 19.2894 164.625 19.4146 165.778C19.4269 165.894 19.4741 166.004 19.5498 166.093C19.6256 166.181 19.7264 166.245 19.8391 166.275C21.749 166.749 30.836 168.77 37.086 165.925C37.177 165.884 37.256 165.819 37.314 165.739C37.373 165.658 37.409 165.563 37.42 165.464C37.496 164.754 37.224 163.288 37.116 163.004C36.891 162.39 20.5055 163.467 20.5055 163.467Z" fill="black"/>
<path fill-rule="evenodd" clip-rule="evenodd" d="M28.4 164.974C33.219 164.974 37.125 164.092 37.125 163.005C37.125 161.917 33.219 161.035 28.4 161.035C23.582 161.035 19.6758 161.917 19.6758 163.005C19.6758 164.092 23.582 164.974 28.4 164.974Z" fill="#FBD56F"/>
<path fill-rule="evenodd" clip-rule="evenodd" d="M23.816 159.329L22.989 158.866C22.989 158.866 22.6 160.487 22.728 161.641C22.74 161.757 22.786 161.867 22.862 161.956C22.938 162.044 23.039 162.108 23.152 162.138C25.062 162.611 34.15 164.632 40.402 161.787C40.492 161.746 40.57 161.682 40.628 161.601C40.686 161.52 40.722 161.425 40.733 161.326C40.809 160.617 40.537 159.153 40.429 158.866C40.204 158.252 23.816 159.329 23.816 159.329Z" fill="#FBD56F"/>
<path opacity="0.1" fill-rule="evenodd" clip-rule="evenodd" d="M23.816 159.329L22.989 158.866C22.989 158.866 22.6 160.487 22.728 161.641C22.74 161.757 22.786 161.867 22.862 161.956C22.938 162.044 23.039 162.108 23.152 162.138C25.062 162.611 34.15 164.632 40.402 161.787C40.492 161.746 40.57 161.682 40.628 161.601C40.686 161.52 40.722 161.425 40.733 161.326C40.809 160.617 40.537 159.153 40.429 158.866C40.204 158.252 23.816 159.329 23.816 159.329Z" fill="black"/>
<path fill-rule="evenodd" clip-rule="evenodd" d="M31.713 160.835C36.532 160.835 40.438 159.954 40.438 158.866C40.438 157.778 36.532 156.896 31.713 156.896C26.895 156.896 22.989 157.778 22.989 158.866C22.989 159.954 26.895 160.835 31.713 160.835Z" fill="#FBD56F"/>
<path fill-rule="evenodd" clip-rule="evenodd" d="M25.453 154.417L24.623 153.954C24.623 153.954 24.237 155.575 24.362 156.728C24.374 156.845 24.421 156.954 24.497 157.043C24.573 157.132 24.674 157.195 24.786 157.226C26.696 157.699 35.784 159.72 42.034 156.875C42.124 156.834 42.203 156.77 42.261 156.689C42.32 156.608 42.356 156.513 42.367 156.414C42.443 155.704 42.172 154.241 42.063 153.954C41.836 153.34 25.453 154.417 25.453 154.417Z" fill="#FBD56F"/>
<path opacity="0.1" fill-rule="evenodd" clip-rule="evenodd" d="M25.453 154.417L24.623 153.954C24.623 153.954 24.237 155.575 24.362 156.728C24.374 156.845 24.421 156.954 24.497 157.043C24.573 157.132 24.674 157.195 24.786 157.226C26.696 157.699 35.784 159.72 42.034 156.875C42.124 156.834 42.203 156.77 42.261 156.689C42.32 156.608 42.356 156.513 42.367 156.414C42.443 155.704 42.172 154.241 42.063 153.954C41.836 153.34 25.453 154.417 25.453 154.417Z" fill="black"/>
<path fill-rule="evenodd" clip-rule="evenodd" d="M33.346 155.923C38.164 155.923 42.07 155.041 42.07 153.954C42.07 152.866 38.164 151.984 33.346 151.984C28.527 151.984 24.621 152.866 24.621 153.954C24.621 155.041 28.527 155.923 33.346 155.923Z" fill="#FBD56F"/>
<path fill-rule="evenodd" clip-rule="evenodd" d="M40.178 180.636L39.349 180.173C39.349 180.173 38.96 181.794 39.088 182.947C39.1 183.063 39.147 183.173 39.223 183.262C39.298 183.351 39.399 183.414 39.512 183.444C41.422 183.918 50.509 185.938 56.762 183.094C56.852 183.052 56.93 182.987 56.988 182.906C57.046 182.825 57.082 182.73 57.093 182.631C57.171 181.921 56.899 180.457 56.791 180.173C56.564 179.559 40.178 180.636 40.178 180.636Z" fill="#FBD56F"/>
<path opacity="0.1" fill-rule="evenodd" clip-rule="evenodd" d="M40.178 180.636L39.349 180.173C39.349 180.173 38.96 181.794 39.088 182.947C39.1 183.063 39.147 183.173 39.223 183.262C39.298 183.351 39.399 183.414 39.512 183.444C41.422 183.918 50.509 185.938 56.762 183.094C56.852 183.052 56.93 182.987 56.988 182.906C57.046 182.825 57.082 182.73 57.093 182.631C57.171 181.921 56.899 180.457 56.791 180.173C56.564 179.559 40.178 180.636 40.178 180.636Z" fill="black"/>
<path fill-rule="evenodd" clip-rule="evenodd" d="M48.074 182.142C52.892 182.142 56.798 181.26 56.798 180.173C56.798 179.085 52.892 178.203 48.074 178.203C43.255 178.203 39.349 179.085 39.349 180.173C39.349 181.26 43.255 182.142 48.074 182.142Z" fill="#FBD56F"/>
<path fill-rule="evenodd" clip-rule="evenodd" d="M43.1249 176.817L42.2949 176.354C42.2949 176.354 41.9089 177.975 42.0339 179.129C42.0459 179.245 42.0929 179.355 42.1689 179.443C42.2449 179.532 42.3459 179.596 42.4579 179.626C44.3679 180.1 53.4559 182.12 59.7059 179.275C59.7959 179.234 59.8749 179.17 59.9329 179.089C59.9919 179.008 60.0279 178.914 60.0389 178.814C60.1149 178.105 59.8429 176.639 59.7349 176.354C59.5099 175.74 43.1249 176.817 43.1249 176.817Z" fill="#FBD56F"/>
<path opacity="0.1" fill-rule="evenodd" clip-rule="evenodd" d="M43.1249 176.817L42.2949 176.354C42.2949 176.354 41.9089 177.975 42.0339 179.129C42.0459 179.245 42.0929 179.355 42.1689 179.443C42.2449 179.532 42.3459 179.596 42.4579 179.626C44.3679 180.1 53.4559 182.12 59.7059 179.275C59.7959 179.234 59.8749 179.17 59.9329 179.089C59.9919 179.008 60.0279 178.914 60.0389 178.814C60.1149 178.105 59.8429 176.639 59.7349 176.354C59.5099 175.74 43.1249 176.817 43.1249 176.817Z" fill="black"/>
<path fill-rule="evenodd" clip-rule="evenodd" d="M51.0189 178.325C55.8369 178.325 59.7429 177.443 59.7429 176.355C59.7429 175.267 55.8369 174.386 51.0189 174.386C46.2009 174.386 42.2939 175.267 42.2939 176.355C42.2939 177.443 46.2009 178.325 51.0189 178.325Z" fill="#FBD56F"/>
<path fill-rule="evenodd" clip-rule="evenodd" d="M39.8599 172.839L39.0329 172.378C39.0329 172.378 38.6439 173.997 38.7719 175.152C38.7839 175.268 38.8309 175.378 38.9059 175.466C38.9819 175.555 39.0829 175.618 39.1959 175.647C41.1059 176.123 50.1939 178.144 56.4459 175.297C56.5359 175.256 56.6149 175.191 56.6729 175.111C56.7309 175.03 56.7669 174.935 56.7769 174.836C56.8529 174.126 56.5809 172.662 56.4729 172.378C56.2479 171.776 39.8599 172.839 39.8599 172.839Z" fill="#FBD56F"/>
<path opacity="0.1" fill-rule="evenodd" clip-rule="evenodd" d="M39.8599 172.839L39.0329 172.378C39.0329 172.378 38.6439 173.997 38.7719 175.152C38.7839 175.268 38.8309 175.378 38.9059 175.466C38.9819 175.555 39.0829 175.618 39.1959 175.647C41.1059 176.123 50.1939 178.144 56.4459 175.297C56.5359 175.256 56.6149 175.191 56.6729 175.111C56.7309 175.03 56.7669 174.935 56.7769 174.836C56.8529 174.126 56.5809 172.662 56.4729 172.378C56.2479 171.776 39.8599 172.839 39.8599 172.839Z" fill="black"/>
<path fill-rule="evenodd" clip-rule="evenodd" d="M47.757 174.352C52.576 174.352 56.482 173.47 56.482 172.383C56.482 171.295 52.576 170.413 47.757 170.413C42.939 170.413 39.033 171.295 39.033 172.383C39.033 173.47 42.939 174.352 47.757 174.352Z" fill="#FBD56F"/>
<path fill-rule="evenodd" clip-rule="evenodd" d="M47.203 169.652L46.374 169.191C46.374 169.191 45.985 170.81 46.113 171.953C46.124 172.069 46.171 172.179 46.247 172.268C46.323 172.357 46.424 172.421 46.537 172.45C48.447 172.926 57.534 174.945 63.786 172.1C63.877 172.059 63.955 171.994 64.013 171.914C64.072 171.833 64.107 171.738 64.117 171.639C64.194 170.929 63.924 169.465 63.816 169.181C63.589 168.59 47.203 169.652 47.203 169.652Z" fill="#FBD56F"/>
<path opacity="0.1" fill-rule="evenodd" clip-rule="evenodd" d="M47.203 169.652L46.374 169.191C46.374 169.191 45.985 170.81 46.113 171.953C46.124 172.069 46.171 172.179 46.247 172.268C46.323 172.357 46.424 172.421 46.537 172.45C48.447 172.926 57.534 174.945 63.786 172.1C63.877 172.059 63.955 171.994 64.013 171.914C64.072 171.833 64.107 171.738 64.117 171.639C64.194 170.929 63.924 169.465 63.816 169.181C63.589 168.59 47.203 169.652 47.203 169.652Z" fill="black"/>
<path fill-rule="evenodd" clip-rule="evenodd" d="M55.098 171.162C59.916 171.162 63.822 170.28 63.822 169.192C63.822 168.104 59.916 167.223 55.098 167.223C50.28 167.223 46.374 168.104 46.374 169.192C46.374 170.28 50.28 171.162 55.098 171.162Z" fill="#FBD56F"/>
<path fill-rule="evenodd" clip-rule="evenodd" d="M42.241 167.51L41.414 167.049C41.414 167.049 41.025 168.668 41.153 169.823C41.165 169.939 41.212 170.049 41.288 170.137C41.364 170.226 41.464 170.289 41.577 170.318C43.487 170.794 52.574 172.813 58.826 169.968C58.917 169.927 58.995 169.863 59.054 169.782C59.112 169.701 59.147 169.606 59.158 169.507C59.234 168.797 58.962 167.333 58.854 167.049C58.629 166.435 42.241 167.51 42.241 167.51Z" fill="#FBD56F"/>
<path opacity="0.1" fill-rule="evenodd" clip-rule="evenodd" d="M42.241 167.51L41.414 167.049C41.414 167.049 41.025 168.668 41.153 169.823C41.165 169.939 41.212 170.049 41.288 170.137C41.364 170.226 41.464 170.289 41.577 170.318C43.487 170.794 52.574 172.813 58.826 169.968C58.917 169.927 58.995 169.863 59.054 169.782C59.112 169.701 59.147 169.606 59.158 169.507C59.234 168.797 58.962 167.333 58.854 167.049C58.629 166.435 42.241 167.51 42.241 167.51Z" fill="black"/>
<path fill-rule="evenodd" clip-rule="evenodd" d="M50.1379 169.02C54.9559 169.02 58.8629 168.138 58.8629 167.05C58.8629 165.963 54.9559 165.081 50.1379 165.081C45.3199 165.081 41.4139 165.963 41.4139 167.05C41.4139 168.138 45.3199 169.02 50.1379 169.02Z" fill="#FBD56F"/>
<path fill-rule="evenodd" clip-rule="evenodd" d="M45.554 163.371L44.725 162.91C44.725 162.91 44.336 164.529 44.464 165.685C44.476 165.801 44.523 165.911 44.598 166C44.674 166.088 44.775 166.152 44.888 166.182C46.798 166.656 55.885 168.676 62.135 165.829C62.226 165.788 62.304 165.724 62.363 165.643C62.421 165.562 62.458 165.467 62.469 165.368C62.545 164.659 62.273 163.195 62.165 162.91C61.94 162.296 45.554 163.371 45.554 163.371Z" fill="#FBD56F"/>
<path opacity="0.1" fill-rule="evenodd" clip-rule="evenodd" d="M45.554 163.371L44.725 162.91C44.725 162.91 44.336 164.529 44.464 165.685C44.476 165.801 44.523 165.911 44.598 166C44.674 166.088 44.775 166.152 44.888 166.182C46.798 166.656 55.885 168.676 62.135 165.829C62.226 165.788 62.304 165.724 62.363 165.643C62.421 165.562 62.458 165.467 62.469 165.368C62.545 164.659 62.273 163.195 62.165 162.91C61.94 162.296 45.554 163.371 45.554 163.371Z" fill="black"/>
<path fill-rule="evenodd" clip-rule="evenodd" d="M53.449 164.881C58.267 164.881 62.174 163.999 62.174 162.912C62.174 161.824 58.267 160.942 53.449 160.942C48.631 160.942 44.725 161.824 44.725 162.912C44.725 163.999 48.631 164.881 53.449 164.881Z" fill="#FBD56F"/>
<path fill-rule="evenodd" clip-rule="evenodd" d="M47.1859 158.46L46.3579 157.999C46.3579 157.999 45.9699 159.618 46.0969 160.774C46.1089 160.89 46.1559 161 46.2319 161.088C46.3079 161.177 46.4089 161.241 46.5219 161.271C48.4319 161.745 57.5189 163.765 63.7709 160.918C63.8619 160.877 63.9399 160.813 63.9979 160.732C64.0559 160.651 64.0919 160.556 64.1019 160.457C64.1789 159.747 63.9069 158.284 63.7989 157.999C63.5739 157.385 47.1859 158.46 47.1859 158.46Z" fill="#FBD56F"/>
<path opacity="0.1" fill-rule="evenodd" clip-rule="evenodd" d="M47.1859 158.46L46.3579 157.999C46.3579 157.999 45.9699 159.618 46.0969 160.774C46.1089 160.89 46.1559 161 46.2319 161.088C46.3079 161.177 46.4089 161.241 46.5219 161.271C48.4319 161.745 57.5189 163.765 63.7709 160.918C63.8619 160.877 63.9399 160.813 63.9979 160.732C64.0559 160.651 64.0919 160.556 64.1019 160.457C64.1789 159.747 63.9069 158.284 63.7989 157.999C63.5739 157.385 47.1859 158.46 47.1859 158.46Z" fill="black"/>
<path fill-rule="evenodd" clip-rule="evenodd" d="M55.083 159.969C59.902 159.969 63.808 159.087 63.808 158C63.808 156.912 59.902 156.03 55.083 156.03C50.265 156.03 46.359 156.912 46.359 158C46.359 159.087 50.265 159.969 55.083 159.969Z" fill="#FBD56F"/>
<path opacity="0.1" fill-rule="evenodd" clip-rule="evenodd" d="M67.2099 157.381C67.2099 157.381 63.2279 159.263 62.8799 160.092C62.5319 160.92 67.2099 157.381 67.2099 157.381Z" fill="black"/>
<path opacity="0.1" fill-rule="evenodd" clip-rule="evenodd" d="M66.955 159.8C66.955 159.8 63.347 161.329 62.863 161.712C62.38 162.094 66.955 159.8 66.955 159.8Z" fill="black"/>
<path opacity="0.1" fill-rule="evenodd" clip-rule="evenodd" d="M65.2989 163.065C65.2989 163.065 63.7049 164.255 62.8249 163.32C61.9439 162.385 65.2989 163.065 65.2989 163.065Z" fill="black"/>
<path fill-rule="evenodd" clip-rule="evenodd" d="M28.61 192.356C33.013 192.356 36.581 188.564 36.581 183.885C36.581 179.207 33.013 175.415 28.61 175.415C24.208 175.415 20.6392 179.207 20.6392 183.885C20.6392 188.564 24.208 192.356 28.61 192.356Z" fill="#FBD56F"/>
<path opacity="0.1" fill-rule="evenodd" clip-rule="evenodd" d="M28.61 192.356C33.013 192.356 36.581 188.564 36.581 183.885C36.581 179.207 33.013 175.415 28.61 175.415C24.208 175.415 20.6392 179.207 20.6392 183.885C20.6392 188.564 24.208 192.356 28.61 192.356Z" fill="black"/>
<path fill-rule="evenodd" clip-rule="evenodd" d="M29.986 192.357C34.389 192.357 37.957 188.649 37.957 184.075C37.957 179.502 34.389 175.794 29.986 175.794C25.584 175.794 22.015 179.502 22.015 184.075C22.015 188.649 25.584 192.357 29.986 192.357Z" fill="#FBD56F"/>
<defs>
<linearGradient id="paint0_linear" x1="175.19" y1="150.231" x2="175.19" y2="54.109" gradientUnits="userSpaceOnUse">
<stop stop-color="#808080" stop-opacity="0.25"/>
<stop offset="0.54" stop-color="#808080" stop-opacity="0.12"/>
<stop offset="1" stop-color="#808080" stop-opacity="0.1"/>
</linearGradient>
</defs>
</svg>
