<svg width="375" height="277" viewBox="0 0 375 277" fill="none" xmlns="http://www.w3.org/2000/svg">
<path fill-rule="evenodd" clip-rule="evenodd" d="M0 277.2V0C25.924 2.44792 51.5964 10.5032 75.7965 24.008C94.5738 34.487 112.383 48.086 130.08 61.798C131.72 63.0688 133.362 64.3433 135.004 65.619C157.498 83.087 180.253 100.758 204.76 111.665C232.588 124.052 261.972 127.861 291.009 126.884C319.168 125.93 347.144 120.557 375 114.469V277.2H0Z" fill="#F8E7F8"/>
<path fill-rule="evenodd" clip-rule="evenodd" d="M0 276.561V36.2002C25.924 38.1568 51.5964 44.5944 75.7965 55.3839C94.5738 63.7539 112.383 74.6189 130.08 85.5719C131.71 86.5805 133.34 87.5921 134.972 88.6046C157.476 102.569 180.241 116.694 204.76 125.417C232.588 135.307 261.972 138.351 291.009 137.566C319.168 136.807 347.144 132.515 375 127.654V276.561H0Z" fill="#F0BAFF"/>
<path fill-rule="evenodd" clip-rule="evenodd" d="M0 277.492V68C25.924 69.5547 51.5964 74.6702 75.7965 83.2467C94.5738 89.8967 112.383 98.5317 130.08 107.237C131.715 108.041 133.35 108.847 134.987 109.654C157.487 120.746 180.247 131.967 204.76 138.896C232.588 146.757 261.972 149.183 291.009 148.557C319.168 147.957 347.144 144.545 375 140.682V277.492H0Z" fill="url(#paint0_radial)"/>
<defs>
<radialGradient id="paint0_radial" cx="0" cy="0" r="1" gradientUnits="userSpaceOnUse" gradientTransform="translate(7.99998 86.4918) rotate(33.517) scale(642.9 629.54)">
<stop stop-color="#B643D5"/>
<stop offset="1" stop-color="#FB72AD"/>
</radialGradient>
</defs>
</svg>
