<svg width="62" height="62" viewBox="0 0 62 62" fill="none" xmlns="http://www.w3.org/2000/svg">
<path fill-rule="evenodd" clip-rule="evenodd" d="M38.2843 0.458189L38.2694 0.443427C37.9978 0.156493 37.6231 -0.0040427 37.2321 0.000570384C37.1839 -0.00173616 37.1353 0.00287693 37.088 0.0157935H14.9548C10.9763 0.0167162 7.7518 3.31969 7.75 7.39489V54.6209C7.7518 58.6956 10.9763 61.9986 14.9548 62H47.0452C51.0237 61.9986 54.2486 58.6956 54.25 54.6209V17.4002C54.2473 17.0095 54.0978 16.6344 53.832 16.353L38.2843 0.458189ZM39.0653 5.33933L48.9522 15.4893H42.7875C41.3857 15.4893 39.0653 13.5491 39.0653 11.4976V5.33933ZM47.4555 58.6487H15.3893C13.0076 58.6417 11.0791 56.6613 11.0714 54.2168V6.94497C11.0714 5.07253 13.0076 3.20675 15.3893 3.19983H36.2006V11.0966C36.202 15.1748 39.4231 18.4809 43.3967 18.4828H50.987V54.2168C50.9915 56.6604 48.9807 58.6487 47.4555 58.6487Z" fill="#CACACA"/>
</svg>
