<svg width="241" height="251" viewBox="0 0 241 251" fill="none" xmlns="http://www.w3.org/2000/svg">
<g opacity="0.1">
<path d="M125.504 154.874C103.159 154.874 85.0451 136.972 85.0451 114.887C85.0451 92.8032 103.159 74.9004 125.504 74.9004C147.849 74.9004 165.964 92.8032 165.964 114.887C165.964 136.972 147.849 154.874 125.504 154.874Z" fill="white" stroke="#090909" stroke-width="1.782"/>
<path d="M59.758 1C82.522 1 100.976 18.9028 100.976 40.987C100.976 49.1332 98.465 56.7103 94.1531 63.0299C102.735 71.201 108.056 82.5722 108.056 95.1467C108.056 120.026 87.2248 140.195 61.5281 140.195C35.8313 140.195 15 120.026 15 95.1467C15 83.5982 19.4882 73.0647 26.868 65.0921C21.6412 58.3904 18.5402 50.04 18.5402 40.987C18.5402 18.9028 36.994 1 59.758 1Z" fill="white" stroke="#090909" stroke-width="1.782"/>
<path fill-rule="evenodd" clip-rule="evenodd" d="M61.7809 68.6016H62.2866C62.8452 68.6016 63.2981 69.0548 63.2981 69.6139V163.112L60.7694 164.248V69.6139C60.7694 69.0548 61.2223 68.6016 61.7809 68.6016Z" fill="#090909"/>
<path fill-rule="evenodd" clip-rule="evenodd" d="M126.01 107.351H126.516C127.074 107.351 127.527 107.804 127.527 108.363V167.42L124.999 167.988V108.363C124.999 107.804 125.451 107.351 126.01 107.351Z" fill="#090909"/>
<path d="M67.0684 162.973C75.4224 162.973 82.1946 169.814 82.1946 178.253C82.1946 178.438 82.1939 178.624 82.192 178.812C83.2065 178.45 84.2984 178.253 85.4359 178.253C89.1754 178.253 92.4219 180.385 94.0488 183.511C95.0562 182.846 96.259 182.46 97.5507 182.46C98.9289 182.46 100.206 182.9 101.253 183.648C101.595 178.811 105.57 174.994 110.424 174.994C112.355 174.994 114.146 175.598 115.625 176.63C117.279 171.352 122.147 167.528 127.895 167.528C135.005 167.528 140.769 173.378 140.769 180.594C140.769 180.752 140.768 180.912 140.766 181.072C141.63 180.762 142.559 180.594 143.527 180.594C148.098 180.594 151.803 184.354 151.803 188.993C151.803 190.585 151.366 192.074 150.608 193.343L92.749 193.343C92.7488 193.343 92.7487 193.343 92.7485 193.343L25.9358 193.343C24.6437 191.972 23.8506 190.117 23.8506 188.075C23.8506 183.856 27.2367 180.435 31.4137 180.435C33.0332 180.435 34.5337 180.95 35.7635 181.825C36.1656 176.168 40.8367 171.704 46.5399 171.704C48.8081 171.704 50.913 172.41 52.6507 173.617C54.5938 167.445 60.3141 162.973 67.0684 162.973Z" stroke="#090909" stroke-width="1.782"/>
<path d="M41.0076 96.0469C42.8 108.322 49.687 115.221 61.6685 116.744" stroke="#090909" stroke-width="3.564" stroke-linecap="round" stroke-linejoin="round"/>
<path d="M47.9365 68.6016C47.8183 77.8504 52.1149 83.0248 60.8264 84.1248" stroke="#090909" stroke-width="3.564" stroke-linecap="round" stroke-linejoin="round"/>
<path d="M78.676 77.4873C78.676 91.5472 73.0193 99.3835 61.706 100.996" stroke="#090909" stroke-width="3.564" stroke-linecap="round" stroke-linejoin="round"/>
<path d="M109.209 117.869C110.768 127.52 116.387 132.957 126.067 134.179" stroke="#090909" stroke-width="3.564" stroke-linecap="round" stroke-linejoin="round"/>
<path d="M139.005 105.38C138.899 116.101 134.652 121.989 126.263 123.042" stroke="#090909" stroke-width="3.564" stroke-linecap="round" stroke-linejoin="round"/>
</g>
<g opacity="0.4">
<path d="M70.185 169.94H65.339V192.622H70.185V169.94Z" fill="#090909" stroke="#090909" stroke-width="1.782"/>
<path d="M168.531 169.94H163.685V192.622H168.531V169.94Z" fill="#090909" stroke="#090909" stroke-width="1.782"/>
<path d="M69.6623 136.561H66.2416V169.085H69.6623V136.561Z" fill="#090909" stroke="#090909" stroke-width="1.782"/>
<path d="M168.009 136.561H164.588V169.085H168.009V136.561Z" fill="#090909" stroke="#090909" stroke-width="1.782"/>
<path d="M180.836 133.137H53.4138V138.7H180.836V133.137Z" fill="white" stroke="#090909" stroke-width="1.782"/>
<path d="M180.836 143.836H53.4138V149.399H180.836V143.836Z" fill="white" stroke="#090909" stroke-width="1.782"/>
<path d="M180.836 154.534H53.4138V160.098H180.836V154.534Z" fill="white" stroke="#090909" stroke-width="1.782"/>
<path d="M187.25 168.656H47V170.796H187.25V168.656Z" fill="white" stroke="#090909" stroke-width="1.782"/>
<path d="M67.952 136.988C68.4243 136.988 68.8072 136.605 68.8072 136.132C68.8072 135.66 68.4243 135.276 67.952 135.276C67.4797 135.276 67.0968 135.66 67.0968 136.132C67.0968 136.605 67.4797 136.988 67.952 136.988Z" fill="#090909"/>
<path d="M166.298 136.988C166.771 136.988 167.153 136.605 167.153 136.132C167.153 135.66 166.771 135.276 166.298 135.276C165.826 135.276 165.443 135.66 165.443 136.132C165.443 136.605 165.826 136.988 166.298 136.988Z" fill="#090909"/>
<path d="M166.298 147.687C166.771 147.687 167.153 147.304 167.153 146.831C167.153 146.359 166.771 145.976 166.298 145.976C165.826 145.976 165.443 146.359 165.443 146.831C165.443 147.304 165.826 147.687 166.298 147.687Z" fill="#090909"/>
<path d="M166.298 158.386C166.771 158.386 167.153 158.002 167.153 157.53C167.153 157.057 166.771 156.674 166.298 156.674C165.826 156.674 165.443 157.057 165.443 157.53C165.443 158.002 165.826 158.386 166.298 158.386Z" fill="#090909"/>
<path d="M67.952 147.687C68.4243 147.687 68.8072 147.304 68.8072 146.831C68.8072 146.359 68.4243 145.976 67.952 145.976C67.4797 145.976 67.0968 146.359 67.0968 146.831C67.0968 147.304 67.4797 147.687 67.952 147.687Z" fill="#090909"/>
<path d="M67.952 157.958C68.4243 157.958 68.8072 157.575 68.8072 157.102C68.8072 156.629 68.4243 156.246 67.952 156.246C67.4797 156.246 67.0968 156.629 67.0968 157.102C67.0968 157.575 67.4797 157.958 67.952 157.958Z" fill="#090909"/>
<path fill-rule="evenodd" clip-rule="evenodd" d="M223.304 48.4971L222.033 188.593H227.053L224.771 48.4971H223.304Z" stroke="#090909" stroke-width="1.782"/>
<path fill-rule="evenodd" clip-rule="evenodd" d="M217.395 38.1104L220.069 48.158C220.122 48.358 220.303 48.4972 220.51 48.4972H227.663C227.87 48.4972 228.051 48.358 228.104 48.158L230.779 38.1104C230.843 37.8667 230.699 37.6165 230.455 37.5515C230.417 37.5413 230.377 37.5361 230.338 37.5361H217.835C217.583 37.5361 217.379 37.7406 217.379 37.9928C217.379 38.0325 217.384 38.0721 217.395 38.1104Z" fill="#B643D5" stroke="#090909" stroke-width="1.782"/>
<path fill-rule="evenodd" clip-rule="evenodd" d="M217.242 34.9456V37.079C217.242 37.2051 217.344 37.3074 217.47 37.3074H230.703C230.829 37.3074 230.932 37.2051 230.932 37.079V34.9417C230.932 34.8959 230.918 34.8512 230.892 34.8133C228.711 31.6044 226.48 30 224.199 30C221.918 30 219.613 31.6038 217.285 34.8113C217.257 34.8503 217.242 34.8973 217.242 34.9456Z" fill="#090909"/>
<path fill-rule="evenodd" clip-rule="evenodd" d="M222.288 37.9639L222.716 47.8068H222.288L219.295 37.9639H222.288Z" fill="#DA5BC1"/>
<path fill-rule="evenodd" clip-rule="evenodd" d="M220.409 48.4971H227.764C227.89 48.4971 227.992 48.5993 227.992 48.7254C227.992 48.7953 227.96 48.8614 227.906 48.9047L224.086 51.9224L220.267 48.9047C220.168 48.8265 220.151 48.6829 220.23 48.5839C220.273 48.5291 220.339 48.4971 220.409 48.4971Z" fill="#090909"/>
<path d="M216.557 37.1934H231.388" stroke="black" stroke-width="1.782" stroke-linecap="round"/>
<path fill-rule="evenodd" clip-rule="evenodd" d="M220.967 130.764H227.626C228.25 130.764 228.758 131.265 228.767 131.889L229.641 192.817H218.952L219.826 131.889C219.835 131.265 220.343 130.764 220.967 130.764Z" fill="#090909" stroke="#090909" stroke-width="1.782"/>
</g>
<path d="M95.9126 41.8125C100.807 48.9491 114.895 62.8154 132.087 61.1874" stroke="black" stroke-linecap="round"/>
<path d="M1 147.024C5.89463 154.161 19.9821 168.027 37.1748 166.399" stroke="black" stroke-linecap="round"/>
<path d="M96.4644 50.2402C98.6675 54.1317 105.305 61.8959 114.229 61.8209" stroke="black" stroke-linecap="round"/>
<path d="M1.55176 155.452C3.75492 159.344 10.3922 167.108 19.316 167.033" stroke="black" stroke-linecap="round"/>
<path d="M100.541 244H99.4489L95.0569 237.34V244H93.9649V235.624H95.0569L99.4489 242.272V235.624H100.541V244ZM105.48 244.108C104.864 244.108 104.304 243.968 103.8 243.688C103.304 243.408 102.912 243.012 102.624 242.5C102.344 241.98 102.204 241.38 102.204 240.7C102.204 240.028 102.348 239.436 102.636 238.924C102.932 238.404 103.332 238.008 103.836 237.736C104.34 237.456 104.904 237.316 105.528 237.316C106.152 237.316 106.716 237.456 107.22 237.736C107.724 238.008 108.12 238.4 108.408 238.912C108.704 239.424 108.852 240.02 108.852 240.7C108.852 241.38 108.7 241.98 108.396 242.5C108.1 243.012 107.696 243.408 107.184 243.688C106.672 243.968 106.104 244.108 105.48 244.108ZM105.48 243.148C105.872 243.148 106.24 243.056 106.584 242.872C106.928 242.688 107.204 242.412 107.412 242.044C107.628 241.676 107.736 241.228 107.736 240.7C107.736 240.172 107.632 239.724 107.424 239.356C107.216 238.988 106.944 238.716 106.608 238.54C106.272 238.356 105.908 238.264 105.516 238.264C105.116 238.264 104.748 238.356 104.412 238.54C104.084 238.716 103.82 238.988 103.62 239.356C103.42 239.724 103.32 240.172 103.32 240.7C103.32 241.236 103.416 241.688 103.608 242.056C103.808 242.424 104.072 242.7 104.4 242.884C104.728 243.06 105.088 243.148 105.48 243.148ZM119.907 240.46C119.907 240.668 119.895 240.888 119.871 241.12H114.615C114.655 241.768 114.875 242.276 115.275 242.644C115.683 243.004 116.175 243.184 116.751 243.184C117.223 243.184 117.615 243.076 117.927 242.86C118.247 242.636 118.471 242.34 118.599 241.972H119.775C119.599 242.604 119.247 243.12 118.719 243.52C118.191 243.912 117.535 244.108 116.751 244.108C116.127 244.108 115.567 243.968 115.071 243.688C114.583 243.408 114.199 243.012 113.919 242.5C113.639 241.98 113.499 241.38 113.499 240.7C113.499 240.02 113.635 239.424 113.907 238.912C114.179 238.4 114.559 238.008 115.047 237.736C115.543 237.456 116.111 237.316 116.751 237.316C117.375 237.316 117.927 237.452 118.407 237.724C118.887 237.996 119.255 238.372 119.511 238.852C119.775 239.324 119.907 239.86 119.907 240.46ZM118.779 240.232C118.779 239.816 118.687 239.46 118.503 239.164C118.319 238.86 118.067 238.632 117.747 238.48C117.435 238.32 117.087 238.24 116.703 238.24C116.151 238.24 115.679 238.416 115.287 238.768C114.903 239.12 114.683 239.608 114.627 240.232H118.779ZM124.007 242.992L126.047 237.424H127.211L124.631 244H123.359L120.779 237.424H121.955L124.007 242.992ZM134.495 240.46C134.495 240.668 134.483 240.888 134.459 241.12H129.203C129.243 241.768 129.463 242.276 129.863 242.644C130.271 243.004 130.763 243.184 131.339 243.184C131.811 243.184 132.203 243.076 132.515 242.86C132.835 242.636 133.059 242.34 133.187 241.972H134.363C134.187 242.604 133.835 243.12 133.307 243.52C132.779 243.912 132.123 244.108 131.339 244.108C130.715 244.108 130.155 243.968 129.659 243.688C129.171 243.408 128.787 243.012 128.507 242.5C128.227 241.98 128.087 241.38 128.087 240.7C128.087 240.02 128.223 239.424 128.495 238.912C128.767 238.4 129.147 238.008 129.635 237.736C130.131 237.456 130.699 237.316 131.339 237.316C131.963 237.316 132.515 237.452 132.995 237.724C133.475 237.996 133.843 238.372 134.099 238.852C134.363 239.324 134.495 239.86 134.495 240.46ZM133.367 240.232C133.367 239.816 133.275 239.46 133.091 239.164C132.907 238.86 132.655 238.632 132.335 238.48C132.023 238.32 131.675 238.24 131.291 238.24C130.739 238.24 130.267 238.416 129.875 238.768C129.491 239.12 129.271 239.608 129.215 240.232H133.367ZM139.351 237.304C140.151 237.304 140.799 237.548 141.295 238.036C141.791 238.516 142.039 239.212 142.039 240.124V244H140.959V240.28C140.959 239.624 140.795 239.124 140.467 238.78C140.139 238.428 139.691 238.252 139.123 238.252C138.547 238.252 138.087 238.432 137.743 238.792C137.407 239.152 137.239 239.676 137.239 240.364V244H136.147V237.424H137.239V238.36C137.455 238.024 137.747 237.764 138.115 237.58C138.491 237.396 138.903 237.304 139.351 237.304ZM145.365 238.324V242.2C145.365 242.52 145.433 242.748 145.569 242.884C145.705 243.012 145.941 243.076 146.277 243.076H147.081V244H146.097C145.489 244 145.033 243.86 144.729 243.58C144.425 243.3 144.273 242.84 144.273 242.2V238.324H143.421V237.424H144.273V235.768H145.365V237.424H147.081V238.324H145.365ZM150.942 244.108C150.438 244.108 149.986 244.024 149.586 243.856C149.186 243.68 148.87 243.44 148.638 243.136C148.406 242.824 148.278 242.468 148.254 242.068H149.382C149.414 242.396 149.566 242.664 149.838 242.872C150.118 243.08 150.482 243.184 150.93 243.184C151.346 243.184 151.674 243.092 151.914 242.908C152.154 242.724 152.274 242.492 152.274 242.212C152.274 241.924 152.146 241.712 151.89 241.576C151.634 241.432 151.238 241.292 150.702 241.156C150.214 241.028 149.814 240.9 149.502 240.772C149.198 240.636 148.934 240.44 148.71 240.184C148.494 239.92 148.386 239.576 148.386 239.152C148.386 238.816 148.486 238.508 148.686 238.228C148.886 237.948 149.17 237.728 149.538 237.568C149.906 237.4 150.326 237.316 150.798 237.316C151.526 237.316 152.114 237.5 152.562 237.868C153.01 238.236 153.25 238.74 153.282 239.38H152.19C152.166 239.036 152.026 238.76 151.77 238.552C151.522 238.344 151.186 238.24 150.762 238.24C150.37 238.24 150.058 238.324 149.826 238.492C149.594 238.66 149.478 238.88 149.478 239.152C149.478 239.368 149.546 239.548 149.682 239.692C149.826 239.828 150.002 239.94 150.21 240.028C150.426 240.108 150.722 240.2 151.098 240.304C151.57 240.432 151.954 240.56 152.25 240.688C152.546 240.808 152.798 240.992 153.006 241.24C153.222 241.488 153.334 241.812 153.342 242.212C153.342 242.572 153.242 242.896 153.042 243.184C152.842 243.472 152.558 243.7 152.19 243.868C151.83 244.028 151.414 244.108 150.942 244.108Z" fill="#4E5053"/>
</svg>
