<svg width="241" height="251" viewBox="0 0 241 251" fill="none" xmlns="http://www.w3.org/2000/svg">
  <g opacity="0.1">
    <path d="M125.504 154.874C103.159 154.874 85.0451 136.972 85.0451 114.887C85.0451 92.8032 103.159 74.9004 125.504 74.9004C147.849 74.9004 165.964 92.8032 165.964 114.887C165.964 136.972 147.849 154.874 125.504 154.874Z" fill="white" stroke="#090909" stroke-width="1.782" />
    <path d="M59.758 1C82.522 1 100.976 18.9028 100.976 40.987C100.976 49.1332 98.465 56.7103 94.1531 63.0299C102.735 71.201 108.056 82.5722 108.056 95.1467C108.056 120.026 87.2248 140.195 61.5281 140.195C35.8313 140.195 15 120.026 15 95.1467C15 83.5982 19.4882 73.0647 26.868 65.0921C21.6412 58.3904 18.5402 50.04 18.5402 40.987C18.5402 18.9028 36.994 1 59.758 1Z" fill="white" stroke="#090909" stroke-width="1.782" />
    <path fill-rule="evenodd" clip-rule="evenodd" d="M61.7809 68.6016H62.2866C62.8452 68.6016 63.2981 69.0548 63.2981 69.6139V163.112L60.7694 164.248V69.6139C60.7694 69.0548 61.2223 68.6016 61.7809 68.6016Z" fill="#090909" />
    <path fill-rule="evenodd" clip-rule="evenodd" d="M126.01 107.352H126.516C127.074 107.352 127.527 107.805 127.527 108.364V167.421L124.999 167.989V108.364C124.999 107.805 125.451 107.352 126.01 107.352Z" fill="#090909" />
    <path d="M67.0684 162.973C75.4224 162.973 82.1946 169.814 82.1946 178.253C82.1946 178.438 82.1939 178.624 82.192 178.812C83.2065 178.45 84.2984 178.253 85.4359 178.253C89.1754 178.253 92.4219 180.385 94.0488 183.511C95.0562 182.846 96.259 182.46 97.5507 182.46C98.9289 182.46 100.206 182.9 101.253 183.648C101.595 178.811 105.57 174.994 110.424 174.994C112.355 174.994 114.146 175.598 115.625 176.63C117.279 171.352 122.147 167.528 127.895 167.528C135.005 167.528 140.769 173.378 140.769 180.594C140.769 180.752 140.768 180.912 140.766 181.072C141.63 180.762 142.559 180.594 143.527 180.594C148.098 180.594 151.803 184.354 151.803 188.993C151.803 190.585 151.366 192.074 150.608 193.343L92.749 193.343C92.7488 193.343 92.7487 193.343 92.7485 193.343L25.9358 193.343C24.6437 191.972 23.8506 190.117 23.8506 188.075C23.8506 183.856 27.2367 180.435 31.4137 180.435C33.0332 180.435 34.5337 180.95 35.7635 181.825C36.1656 176.168 40.8367 171.704 46.5399 171.704C48.8081 171.704 50.913 172.41 52.6507 173.617C54.5938 167.445 60.3141 162.973 67.0684 162.973Z" stroke="#090909" stroke-width="1.782" />
    <path d="M41.0076 96.0469C42.8 108.322 49.687 115.221 61.6685 116.744" stroke="#090909" stroke-width="3.564" stroke-linecap="round" stroke-linejoin="round" />
    <path d="M47.9365 68.6016C47.8183 77.8504 52.1149 83.0248 60.8264 84.1248" stroke="#090909" stroke-width="3.564" stroke-linecap="round" stroke-linejoin="round" />
    <path d="M78.676 77.4883C78.676 91.5481 73.0193 99.3845 61.706 100.997" stroke="#090909" stroke-width="3.564" stroke-linecap="round" stroke-linejoin="round" />
    <path d="M109.209 117.869C110.768 127.52 116.387 132.957 126.067 134.179" stroke="#090909" stroke-width="3.564" stroke-linecap="round" stroke-linejoin="round" />
    <path d="M139.005 105.379C138.899 116.1 134.652 121.988 126.263 123.041" stroke="#090909" stroke-width="3.564" stroke-linecap="round" stroke-linejoin="round" />
  </g>
  <g opacity="0.4">
    <path d="M70.185 169.941H65.339V192.623H70.185V169.941Z" fill="#090909" stroke="#090909" stroke-width="1.782" />
    <path d="M168.531 169.941H163.685V192.623H168.531V169.941Z" fill="#090909" stroke="#090909" stroke-width="1.782" />
    <path d="M69.6623 136.561H66.2416V169.085H69.6623V136.561Z" fill="#090909" stroke="#090909" stroke-width="1.782" />
    <path d="M168.009 136.561H164.588V169.085H168.009V136.561Z" fill="#090909" stroke="#090909" stroke-width="1.782" />
    <path d="M180.836 133.137H53.4138V138.7H180.836V133.137Z" fill="white" stroke="#090909" stroke-width="1.782" />
    <path d="M180.836 143.836H53.4138V149.399H180.836V143.836Z" fill="white" stroke="#090909" stroke-width="1.782" />
    <path d="M180.836 154.535H53.4138V160.099H180.836V154.535Z" fill="white" stroke="#090909" stroke-width="1.782" />
    <path d="M187.25 168.656H47V170.796H187.25V168.656Z" fill="white" stroke="#090909" stroke-width="1.782" />
    <path d="M67.952 136.989C68.4243 136.989 68.8072 136.606 68.8072 136.133C68.8072 135.661 68.4243 135.277 67.952 135.277C67.4797 135.277 67.0968 135.661 67.0968 136.133C67.0968 136.606 67.4797 136.989 67.952 136.989Z" fill="#090909" />
    <path d="M166.298 136.989C166.771 136.989 167.153 136.606 167.153 136.133C167.153 135.661 166.771 135.277 166.298 135.277C165.826 135.277 165.443 135.661 165.443 136.133C165.443 136.606 165.826 136.989 166.298 136.989Z" fill="#090909" />
    <path d="M166.298 147.686C166.771 147.686 167.153 147.303 167.153 146.831C167.153 146.358 166.771 145.975 166.298 145.975C165.826 145.975 165.443 146.358 165.443 146.831C165.443 147.303 165.826 147.686 166.298 147.686Z" fill="#090909" />
    <path d="M166.298 158.386C166.771 158.386 167.153 158.002 167.153 157.53C167.153 157.057 166.771 156.674 166.298 156.674C165.826 156.674 165.443 157.057 165.443 157.53C165.443 158.002 165.826 158.386 166.298 158.386Z" fill="#090909" />
    <path d="M67.952 147.686C68.4243 147.686 68.8072 147.303 68.8072 146.831C68.8072 146.358 68.4243 145.975 67.952 145.975C67.4797 145.975 67.0968 146.358 67.0968 146.831C67.0968 147.303 67.4797 147.686 67.952 147.686Z" fill="#090909" />
    <path d="M67.952 157.958C68.4243 157.958 68.8072 157.575 68.8072 157.102C68.8072 156.629 68.4243 156.246 67.952 156.246C67.4797 156.246 67.0968 156.629 67.0968 157.102C67.0968 157.575 67.4797 157.958 67.952 157.958Z" fill="#090909" />
    <path fill-rule="evenodd" clip-rule="evenodd" d="M223.304 48.4961L222.033 188.592H227.053L224.771 48.4961H223.304Z" stroke="#090909" stroke-width="1.782" />
    <path fill-rule="evenodd" clip-rule="evenodd" d="M217.395 38.1094L220.069 48.1571C220.122 48.357 220.303 48.4962 220.51 48.4962H227.663C227.87 48.4962 228.051 48.357 228.104 48.1571L230.779 38.1094C230.843 37.8657 230.699 37.6155 230.455 37.5505C230.417 37.5403 230.377 37.5352 230.338 37.5352H217.835C217.583 37.5352 217.379 37.7396 217.379 37.9919C217.379 38.0316 217.384 38.0711 217.395 38.1094Z" fill="#B643D5" stroke="#090909" stroke-width="1.782" />
    <path fill-rule="evenodd" clip-rule="evenodd" d="M217.242 34.9456V37.079C217.242 37.2051 217.344 37.3074 217.47 37.3074H230.703C230.829 37.3074 230.932 37.2051 230.932 37.079V34.9417C230.932 34.8959 230.918 34.8512 230.892 34.8133C228.711 31.6044 226.48 30 224.199 30C221.918 30 219.613 31.6038 217.285 34.8113C217.257 34.8503 217.242 34.8973 217.242 34.9456Z" fill="#090909" />
    <path fill-rule="evenodd" clip-rule="evenodd" d="M222.288 37.9629L222.716 47.8058H222.288L219.295 37.9629H222.288Z" fill="#DA5BC1" />
    <path fill-rule="evenodd" clip-rule="evenodd" d="M220.409 48.4961H227.764C227.89 48.4961 227.992 48.5983 227.992 48.7244C227.992 48.7943 227.96 48.8604 227.906 48.9037L224.086 51.9214L220.267 48.9037C220.168 48.8255 220.151 48.6819 220.23 48.583C220.273 48.5281 220.339 48.4961 220.409 48.4961Z" fill="#090909" />
    <path d="M216.557 37.1934H231.388" stroke="black" stroke-width="1.782" stroke-linecap="round" />
    <path fill-rule="evenodd" clip-rule="evenodd" d="M220.967 130.764H227.626C228.25 130.764 228.758 131.265 228.767 131.889L229.641 192.817H218.952L219.826 131.889C219.835 131.265 220.343 130.764 220.967 130.764Z" fill="#090909" stroke="#090909" stroke-width="1.782" />
  </g>
  <path d="M95.9126 41.8125C100.807 48.9491 114.895 62.8154 132.087 61.1874" stroke="black" stroke-linecap="round" />
  <path d="M1 147.023C5.89463 154.16 19.9821 168.026 37.1748 166.398" stroke="black" stroke-linecap="round" />
  <path d="M96.4644 50.2402C98.6675 54.1317 105.305 61.8959 114.229 61.8209" stroke="black" stroke-linecap="round" />
  <path d="M1.55176 155.453C3.75492 159.345 10.3922 167.109 19.316 167.034" stroke="black" stroke-linecap="round" />
  <path d="M83.9473 235.624V242.272L79.5553 235.624H78.4633V244H79.5553V237.34L83.9473 244H85.0393V235.624H83.9473ZM93.3508 240.7C93.3508 238.624 91.8988 237.316 90.0268 237.316C88.1668 237.316 86.7028 238.624 86.7028 240.7C86.7028 242.788 88.1188 244.108 89.9788 244.108C91.8508 244.108 93.3508 242.788 93.3508 240.7ZM87.8188 240.7C87.8188 239.044 88.8628 238.264 90.0148 238.264C91.1428 238.264 92.2348 239.044 92.2348 240.7C92.2348 242.368 91.1188 243.148 89.9788 243.148C88.8388 243.148 87.8188 242.368 87.8188 240.7ZM98.4058 244H99.4978V237.424H98.4058V244ZM98.9698 236.356C99.3658 236.356 99.6898 236.032 99.6898 235.612C99.6898 235.192 99.3658 234.868 98.9698 234.868C98.5498 234.868 98.2258 235.192 98.2258 235.612C98.2258 236.032 98.5498 236.356 98.9698 236.356ZM106.381 244H107.461V240.124C107.461 238.24 106.297 237.304 104.773 237.304C103.885 237.304 103.093 237.676 102.661 238.36V237.424H101.569V244H102.661V240.364C102.661 238.948 103.429 238.252 104.545 238.252C105.649 238.252 106.381 238.936 106.381 240.28V244ZM109.659 244H110.751V238.324H112.131V237.424H110.751V236.956C110.751 236.104 111.075 235.744 112.059 235.744V234.832C110.379 234.832 109.659 235.492 109.659 236.956V237.424H108.807V238.324H109.659V244ZM119.854 240.7C119.854 238.624 118.402 237.316 116.53 237.316C114.67 237.316 113.206 238.624 113.206 240.7C113.206 242.788 114.622 244.108 116.482 244.108C118.354 244.108 119.854 242.788 119.854 240.7ZM114.322 240.7C114.322 239.044 115.366 238.264 116.518 238.264C117.646 238.264 118.738 239.044 118.738 240.7C118.738 242.368 117.622 243.148 116.482 243.148C115.342 243.148 114.322 242.368 114.322 240.7ZM122.592 240.424C122.592 238.9 123.384 238.432 124.428 238.432H124.716V237.304C123.672 237.304 122.964 237.76 122.592 238.492V237.424H121.5V244H122.592V240.424ZM135.678 244H136.758V240.124C136.758 238.24 135.594 237.304 134.094 237.304C133.086 237.304 132.15 237.82 131.766 238.768C131.334 237.784 130.434 237.304 129.354 237.304C128.49 237.304 127.71 237.676 127.278 238.372V237.424H126.186V244H127.278V240.376C127.278 238.96 128.034 238.252 129.138 238.252C130.218 238.252 130.938 238.936 130.938 240.28V244H132.018V240.376C132.018 238.96 132.774 238.252 133.878 238.252C134.958 238.252 135.678 238.936 135.678 240.28V244ZM138.352 240.688C138.352 242.728 139.708 244.108 141.46 244.108C142.672 244.108 143.524 243.484 143.92 242.776V244H145.024V237.424H143.92V238.624C143.536 237.94 142.696 237.316 141.472 237.316C139.708 237.316 138.352 238.636 138.352 240.688ZM143.92 240.7C143.92 242.248 142.888 243.148 141.688 243.148C140.488 243.148 139.468 242.236 139.468 240.688C139.468 239.14 140.488 238.264 141.688 238.264C142.888 238.264 143.92 239.176 143.92 240.7ZM147.319 242.2C147.319 243.52 147.979 244 149.143 244H150.127V243.076H149.323C148.651 243.076 148.411 242.848 148.411 242.2V238.324H150.127V237.424H148.411V235.768H147.319V237.424H146.467V238.324H147.319V242.2ZM151.66 244H152.752V237.424H151.66V244ZM152.224 236.356C152.62 236.356 152.944 236.032 152.944 235.612C152.944 235.192 152.62 234.868 152.224 234.868C151.804 234.868 151.48 235.192 151.48 235.612C151.48 236.032 151.804 236.356 152.224 236.356ZM161.063 240.7C161.063 238.624 159.611 237.316 157.739 237.316C155.879 237.316 154.415 238.624 154.415 240.7C154.415 242.788 155.831 244.108 157.691 244.108C159.563 244.108 161.063 242.788 161.063 240.7ZM155.531 240.7C155.531 239.044 156.575 238.264 157.727 238.264C158.855 238.264 159.947 239.044 159.947 240.7C159.947 242.368 158.831 243.148 157.691 243.148C156.551 243.148 155.531 242.368 155.531 240.7ZM167.521 244H168.601V240.124C168.601 238.24 167.437 237.304 165.913 237.304C165.025 237.304 164.233 237.676 163.801 238.36V237.424H162.709V244H163.801V240.364C163.801 238.948 164.569 238.252 165.685 238.252C166.789 238.252 167.521 238.936 167.521 240.28V244Z" fill="#4E5053" />
</svg>