<svg width="296" height="249" viewBox="0 0 296 249" fill="none" xmlns="http://www.w3.org/2000/svg">
<g clip-path="url(#clip0)">
<path d="M254.792 151.504L25.9562 152.105L26.0759 198.015L254.912 197.414L254.792 151.504Z" fill="#F9F9F9"/>
<path d="M262.196 110.148L244.679 110.194L244.906 197.391L262.423 197.345L262.196 110.148Z" fill="#F9F9F9"/>
<path d="M33.3413 175.469L15.8241 175.516L15.8829 198.035L33.4 197.989L33.3413 175.469Z" fill="#F9F9F9"/>
<path d="M242.056 121.767L220.821 121.823L221.012 195.086L242.247 195.03L242.056 121.767Z" fill="#F9F9F9"/>
<path d="M272.754 171.932L255.237 171.978L255.303 197.371L272.82 197.325L272.754 171.932Z" fill="#F9F9F9"/>
<path d="M97.2897 197.89L75.7328 197.946L75.4528 89.0097L96.9817 78.9128L97.2897 197.89Z" fill="#F9F9F9"/>
<path d="M185.464 182.671L163.907 182.727L163.662 87.513L185.198 78.6809L185.464 182.671Z" fill="#F9F9F9"/>
<path d="M129.174 105.509L104.537 105.574L104.745 185.569L129.383 185.504L129.174 105.509Z" fill="#F9F9F9"/>
<path d="M37.5759 127.908H25.0646V197.679H37.5759V127.908Z" fill="#F9F9F9"/>
<path d="M71.8821 197.813L47.2516 197.876L47.0066 105.564L59.1048 95.6216L71.6441 105.501L71.8821 197.813Z" fill="#F9F9F9"/>
<path d="M214.204 181.983L192.962 182.032L192.759 102.451L203.184 93.8721L213.994 102.395L214.204 181.983Z" fill="#F9F9F9"/>
<path d="M155.449 182.13L134.207 182.186L134.046 119.504L144.485 112.745L155.288 119.448L155.449 182.13Z" fill="#F9F9F9"/>
<path d="M288.684 196.794L0 197.546" stroke="black" stroke-width="0.5" stroke-miterlimit="10"/>
<path d="M122.025 94.3563L110.823 94.3857L110.864 110.195L122.066 110.166L122.025 94.3563Z" fill="#F9F9F9"/>
<path d="M53.9186 111.349L50.6491 111.358L50.6656 117.682L53.9351 117.673L53.9186 111.349Z" fill="#F9F9F9"/>
<path d="M92.7179 130.529H89.4483V136.852H92.7179V130.529Z" fill="#F9F9F9"/>
<path d="M30.8715 133.185L27.6019 133.193L27.6184 139.517L30.888 139.508L30.8715 133.185Z" fill="#F9F9F9"/>
<path d="M141.486 125.748L138.216 125.757L138.233 132.081L141.502 132.072L141.486 125.748Z" fill="#F9F9F9"/>
<path d="M124.872 112.21L121.602 112.219L121.619 118.542L124.888 118.534L124.872 112.21Z" fill="#F9F9F9"/>
<path d="M111.376 126.769L108.107 126.777L108.123 133.101L111.393 133.092L111.376 126.769Z" fill="#F9F9F9"/>
<path d="M181.294 87.9401L178.025 87.9487L178.041 94.2724L181.311 94.2638L181.294 87.9401Z" fill="#F9F9F9"/>
<path d="M210.044 107.539L206.774 107.547L206.791 113.871L210.06 113.862L210.044 107.539Z" fill="#F9F9F9"/>
<path d="M238.801 127.607L235.532 127.616L235.548 133.94L238.818 133.931L238.801 127.607Z" fill="#F9F9F9"/>
<path d="M230.169 127.623L226.899 127.632L226.916 133.955L230.185 133.947L230.169 127.623Z" fill="#F9F9F9"/>
<path d="M251.607 114.456L248.338 114.464L248.354 120.788L251.624 120.779L251.607 114.456Z" fill="#F9F9F9"/>
<path d="M259.594 135.275L256.324 135.283L256.341 141.607L259.61 141.598L259.594 135.275Z" fill="#F9F9F9"/>
<path d="M171.085 111.386L167.815 111.394L167.832 117.718L171.101 117.709L171.085 111.386Z" fill="#F9F9F9"/>
<path d="M82.1172 94.2856L78.8476 94.2942L78.8641 100.618L82.1337 100.609L82.1172 94.2856Z" fill="#F9F9F9"/>
<path d="M140.46 235.587H271.811" stroke="black" stroke-width="0.5" stroke-miterlimit="10"/>
<path d="M137.771 226.579H125.638V210.65C125.638 209.85 125.795 209.058 126.1 208.319C126.405 207.58 126.852 206.908 127.416 206.342C127.979 205.777 128.649 205.328 129.385 205.022C130.122 204.716 130.911 204.558 131.708 204.558C133.317 204.56 134.859 205.203 135.996 206.345C137.133 207.487 137.771 209.036 137.771 210.65V226.579Z" fill="#3F7BD3"/>
<path d="M131.764 218.175V235.973" stroke="black" stroke-width="0.5" stroke-miterlimit="10"/>
<path d="M128.347 219.637L131.764 223.937" stroke="black" stroke-width="0.5" stroke-miterlimit="10"/>
<path d="M14.5486 226.579H2.41544V210.65C2.41544 209.85 2.57244 209.058 2.8775 208.319C3.18255 207.58 3.62967 206.908 4.19333 206.342C4.75699 205.777 5.42615 205.328 6.16261 205.022C6.89907 204.716 7.6884 204.558 8.48554 204.558C10.0942 204.56 11.6364 205.203 12.7732 206.345C13.9101 207.487 14.5487 209.036 14.5486 210.65V226.579Z" fill="#3F7BD3"/>
<path d="M8.54155 218.175V235.973" stroke="black" stroke-width="0.5" stroke-miterlimit="10"/>
<path d="M5.12493 219.637L8.54155 223.937" stroke="black" stroke-width="0.5" stroke-miterlimit="10"/>
<path d="M273.316 195.297H266.161V185.903C266.161 184.951 266.537 184.038 267.208 183.364C267.879 182.691 268.789 182.313 269.738 182.313C270.687 182.313 271.597 182.691 272.268 183.364C272.939 184.038 273.316 184.951 273.316 185.903V195.297Z" fill="#F6CA13"/>
<path d="M269.773 190.337V200.841" stroke="black" stroke-width="0.5" stroke-miterlimit="10"/>
<path d="M267.757 191.201L269.773 193.745" stroke="black" stroke-width="0.5" stroke-miterlimit="10"/>
<path d="M23.1392 196.471H15.9769V187.077C15.9769 186.122 16.3546 185.207 17.0268 184.533C17.6991 183.858 18.6109 183.479 19.5616 183.479C20.032 183.479 20.4978 183.572 20.9323 183.753C21.3668 183.934 21.7615 184.199 22.0938 184.533C22.4261 184.867 22.6895 185.264 22.8689 185.7C23.0483 186.137 23.1401 186.604 23.1392 187.077V196.471Z" fill="#F6CA13"/>
<path d="M19.5896 191.51V202.015" stroke="black" stroke-width="0.5" stroke-miterlimit="10"/>
<path d="M17.5802 192.375L19.5896 194.911" stroke="black" stroke-width="0.5" stroke-miterlimit="10"/>
<path d="M265.894 226.579H253.761V210.65C253.761 209.85 253.918 209.058 254.223 208.319C254.528 207.58 254.976 206.908 255.539 206.342C256.103 205.777 256.772 205.328 257.508 205.022C258.245 204.716 259.034 204.558 259.831 204.558C261.44 204.56 262.982 205.203 264.119 206.345C265.256 207.487 265.894 209.036 265.894 210.65V226.579Z" fill="#3F7BD3"/>
<path d="M259.887 218.175V235.973" stroke="black" stroke-width="0.5" stroke-miterlimit="10"/>
<path d="M256.471 219.637L259.887 223.937" stroke="black" stroke-width="0.5" stroke-miterlimit="10"/>
<path d="M129.839 236.177H107.666C107.667 234.996 108.136 233.865 108.968 233.031C109.8 232.197 110.928 231.729 112.104 231.729H125.407C126.582 231.731 127.708 232.2 128.539 233.034C129.369 233.867 129.837 234.998 129.839 236.177Z" fill="#3F7BD3"/>
<path d="M276.746 236.177H254.58C254.58 234.997 255.047 233.866 255.879 233.032C256.71 232.198 257.837 231.729 259.012 231.729H272.315C273.49 231.729 274.617 232.198 275.448 233.032C276.28 233.866 276.746 234.997 276.746 236.177Z" fill="#3F7BD3"/>
<path d="M128.039 36.7417C128.167 34.7407 128.747 32.7952 129.735 31.0525C130.723 29.3099 132.094 27.8159 133.743 26.6838C135.392 25.5517 137.276 24.8111 139.252 24.5183C141.229 24.2254 143.246 24.388 145.15 24.9936C147.224 21.5602 150.386 18.9251 154.13 17.511C157.874 16.0969 161.983 15.9858 165.798 17.1954C169.612 18.405 172.911 20.8653 175.166 24.1817C177.421 27.498 178.5 31.4782 178.232 35.4839H194.446" stroke="black" stroke-miterlimit="10"/>
<path d="M253.873 71.6065C254.063 68.479 253.205 65.3777 251.437 62.7953C249.669 60.2129 247.092 58.2975 244.115 57.3536C241.138 56.4096 237.932 56.4912 235.007 57.5854C232.081 58.6796 229.604 60.7236 227.969 63.3926C226.476 62.9154 224.895 62.7857 223.346 63.0135C221.796 63.2412 220.319 63.8204 219.026 64.7071C217.732 65.5937 216.658 66.7645 215.883 68.1304C215.108 69.4964 214.654 71.0216 214.554 72.5902H202.281" stroke="black" stroke-miterlimit="10"/>
<path d="M104.564 62.8867C104.754 59.7593 103.896 56.6579 102.128 54.0755C100.36 51.4931 97.7829 49.5778 94.8058 48.6339C91.8288 47.6899 88.6229 47.7715 85.6974 48.8657C82.7719 49.9599 80.2947 52.0039 78.6593 54.6729C77.886 54.4293 77.0872 54.2761 76.2789 54.2162C73.5429 54.0311 70.8456 54.9441 68.7804 56.7546C66.7151 58.5651 65.4509 61.1247 65.2659 63.8704H52.9716" stroke="black" stroke-miterlimit="10"/>
<path d="M151.774 243.674H172.315" stroke="black" stroke-width="0.5" stroke-miterlimit="10"/>
<path d="M275.465 211.353H296" stroke="black" stroke-width="0.5" stroke-miterlimit="10"/>
<path d="M212.923 248.824H233.458" stroke="black" stroke-width="0.5" stroke-miterlimit="10"/>
<path d="M55.6251 230.556H87.831" stroke="black" stroke-width="0.5" stroke-miterlimit="10"/>
<path d="M39.2912 244.138H59.8259" stroke="black" stroke-width="0.5" stroke-miterlimit="10"/>
<path d="M1.01518 235.706H21.5499" stroke="black" stroke-width="0.5" stroke-miterlimit="10"/>
<path d="M20.1497 212.287H40.6914" stroke="black" stroke-width="0.5" stroke-miterlimit="10"/>
<path d="M91.5627 213.222H112.104" stroke="black" stroke-width="0.5" stroke-miterlimit="10"/>
<path d="M82.2373 89.5691L82.237 89.6675L82.489 89.6683L82.4893 89.5699L82.2373 89.5691Z" fill="white"/>
<path d="M285.967 226.579H273.834V210.65C273.834 209.036 274.473 207.487 275.609 206.345C276.746 205.203 278.288 204.56 279.897 204.558C280.694 204.558 281.484 204.716 282.22 205.022C282.956 205.328 283.626 205.777 284.189 206.342C284.753 206.908 285.2 207.58 285.505 208.319C285.81 209.058 285.967 209.85 285.967 210.65V226.579Z" fill="#F6CA13"/>
<path d="M279.96 218.175V235.973" stroke="black" stroke-width="0.5" stroke-miterlimit="10"/>
<path d="M276.543 219.637L279.96 223.937" stroke="black" stroke-width="0.5" stroke-miterlimit="10"/>
<path d="M35.5525 236.177H13.3864C13.3864 234.997 13.8534 233.866 14.6845 233.032C15.5156 232.198 16.6429 231.729 17.8183 231.729H31.1207C32.2961 231.729 33.4233 232.198 34.2544 233.032C35.0856 233.866 35.5525 234.997 35.5525 236.177Z" fill="#F6CA13"/>
<path d="M217.481 121.775L290.865 164.297L180.29 228.369L106.913 185.847L217.481 121.775Z" fill="#F9F9F9" stroke="black"/>
<path d="M161.694 175.069L180.29 185.847L198.885 175.069L180.29 164.297L161.694 175.069Z" fill="#F6CA13"/>
<path d="M180.297 186.156L180.164 186.079L161.169 175.075L180.297 163.995L199.417 175.075L180.297 186.156ZM162.227 175.075L180.297 185.545L198.36 175.075L180.297 164.606L162.227 175.075Z" fill="white"/>
<path d="M198.885 196.625L217.481 185.847L198.885 175.068L180.29 185.847L198.885 196.625Z" fill="#F6CA13"/>
<path d="M198.885 196.928L198.759 196.85L179.765 185.847L198.885 174.766L218.013 185.847L198.885 196.928ZM180.822 185.847L198.885 196.316L216.956 185.847L198.885 175.378L180.822 185.847Z" fill="white"/>
<path d="M136.903 189.437L161.695 175.068L198.885 196.625L174.094 210.987L136.903 189.437Z" fill="#F6CA13"/>
<path d="M174.094 211.296L173.961 211.219L136.378 189.437L161.702 174.759L199.417 196.597L174.094 211.296ZM137.435 189.444L174.094 210.685L198.36 196.632L161.702 175.378L137.435 189.444Z" fill="white"/>
<path d="M174.094 160.707L130.707 185.847L136.903 189.438L180.29 164.297L174.094 160.707Z" fill="#F6CA13"/>
<path d="M136.903 189.747L130.182 185.847L174.094 160.405L180.822 164.297L136.903 189.747ZM131.239 185.847L136.91 189.135L179.765 164.276L174.094 160.988L131.239 185.847Z" fill="white"/>
<path d="M223.684 189.438L217.481 185.847L174.094 210.987L180.29 214.578L223.684 189.438Z" fill="#F6CA13"/>
<path d="M180.297 214.866L173.569 210.973L217.481 185.524L224.209 189.423L180.297 214.866ZM174.647 210.994L180.325 214.276L223.18 189.444L217.509 186.156L174.647 210.994Z" fill="white"/>
<path d="M198.885 153.519L180.29 164.297L198.885 175.069L217.481 164.297L198.885 153.519Z" fill="#F6CA13"/>
<path d="M198.885 175.378L179.765 164.276L198.885 153.196L218.013 164.276L198.885 175.378ZM180.822 164.276L198.885 174.745L216.956 164.276L198.885 153.807L180.822 164.276Z" fill="white"/>
<path d="M236.076 175.069L217.481 164.297L198.885 175.069L217.481 185.847L236.076 175.069Z" fill="#F6CA13"/>
<path d="M217.481 186.156L217.355 186.058L198.36 175.054L217.481 163.974L236.608 175.054L217.481 186.156ZM199.417 175.076L217.481 185.545L235.558 175.076L217.488 164.606L199.417 175.076Z" fill="white"/>
<path d="M223.684 139.157L198.885 153.519L236.076 175.068L260.868 160.707L223.684 139.157Z" fill="#F6CA13"/>
<path d="M236.076 175.378L198.36 153.526L223.656 138.855L261.372 160.707L236.076 175.378ZM199.417 153.526L236.076 174.766L260.343 160.714L223.656 139.459L199.417 153.526Z" fill="white"/>
<path d="M217.481 135.566L174.094 160.707L180.29 164.297L223.684 139.157L217.481 135.566Z" fill="#F6CA13"/>
<path d="M180.297 164.606L173.569 160.707L217.481 135.257L224.209 139.157L180.297 164.606ZM174.647 160.707L180.325 163.995L223.18 139.157L217.509 135.869L174.647 160.707Z" fill="white"/>
<path d="M267.071 164.297L260.868 160.707L217.481 185.847L223.684 189.438L267.071 164.297Z" fill="#F6CA13"/>
<path d="M223.656 189.747L216.928 185.847L260.847 160.405L267.568 164.297L223.656 189.747ZM217.985 185.847L223.656 189.135L266.546 164.276L260.875 160.988L217.985 185.847Z" fill="white"/>
<path d="M173.023 160.545L173.765 160.981V153.238L173.023 152.809V160.545Z" fill="black"/>
<path d="M174.507 160.545V152.809L173.765 153.238V160.981L174.507 160.545Z" fill="#272425"/>
<path d="M173.765 152.38L173.023 152.809L173.765 153.238L174.507 152.809L173.765 152.38Z" fill="#59595B"/>
<g opacity="0.26">
<path opacity="0.26" d="M223.684 182.257V189.438L174.094 160.707V153.519L223.684 182.257Z" fill="white"/>
</g>
<g opacity="0.62">
<path opacity="0.62" d="M223.684 182.257V183.535L174.094 154.798V153.519L223.684 182.257Z" fill="white"/>
</g>
<path d="M223.194 189.606L223.936 190.035V182.292L223.194 181.863V189.606Z" fill="black"/>
<path d="M224.678 189.606V181.863L223.936 182.292V190.035L224.678 189.606Z" fill="#272425"/>
<path d="M223.936 181.434L223.194 181.863L223.936 182.292L224.678 181.863L223.936 181.434Z" fill="#59595B"/>
<path d="M105.915 185.854V192.185L180.297 235.277V228.947L105.915 185.854Z" fill="black"/>
<path d="M291.862 164.297V170.621L180.297 235.277V228.947L291.862 164.297Z" fill="black"/>
<path fill-rule="evenodd" clip-rule="evenodd" d="M85.624 79L36.728 79C31.908 79 28 82.908 28 87.729L28 205.126C28 209.947 31.908 213.855 36.728 213.855H85.624C90.445 213.855 94.353 209.947 94.353 205.126L94.353 87.729C94.353 82.908 90.445 79 85.624 79Z" fill="#3A3768"/>
<path fill-rule="evenodd" clip-rule="evenodd" d="M84.9921 82.5039H77.3811V83.4199C77.3811 83.9889 77.2691 84.5539 77.0501 85.0799C76.8321 85.6069 76.5131 86.0849 76.1091 86.4879C75.7061 86.8909 75.2281 87.2109 74.7011 87.4279C74.1751 87.6459 73.6101 87.7579 73.0401 87.7579H48.8341C48.2641 87.7579 47.7001 87.6459 47.1731 87.4279C46.6461 87.2109 46.1681 86.8909 45.7651 86.4879C45.3621 86.0849 45.0421 85.6069 44.8241 85.0799C44.6051 84.5539 44.4931 83.9889 44.4931 83.4199V82.5039H37.3681C35.9701 82.5039 34.6301 83.0589 33.6411 84.0469C32.6531 85.0359 32.0981 86.3759 32.0981 87.7739L32.0981 205.073C32.0981 206.471 32.6531 207.811 33.6411 208.799C34.6301 209.787 35.9701 210.343 37.3681 210.343H84.9921C86.3901 210.343 87.7301 209.787 88.7191 208.799C89.7071 207.811 90.2621 206.471 90.2621 205.073L90.2621 87.7829C90.2631 87.0899 90.1281 86.4039 89.8631 85.7629C89.5991 85.1229 89.2111 84.5409 88.7221 84.0509C88.2321 83.5599 87.6511 83.1709 87.0111 82.9059C86.3711 82.6409 85.6851 82.5039 84.9921 82.5039Z" fill="white"/>
<path fill-rule="evenodd" clip-rule="evenodd" d="M63.1751 83.0269H55.6421C55.1631 83.0269 54.7761 83.4149 54.7761 83.8939V84.0409C54.7761 84.5199 55.1631 84.9079 55.6421 84.9079H63.1751C63.6531 84.9079 64.0411 84.5199 64.0411 84.0409V83.8939C64.0411 83.4149 63.6531 83.0269 63.1751 83.0269Z" fill="#E6E8EC"/>
<path fill-rule="evenodd" clip-rule="evenodd" d="M66.5101 85.0359C67.1001 85.0359 67.5781 84.5579 67.5781 83.9679C67.5781 83.3789 67.1001 82.8999 66.5101 82.8999C65.9201 82.8999 65.4421 83.3789 65.4421 83.9679C65.4421 84.5579 65.9201 85.0359 66.5101 85.0359Z" fill="#E6E8EC"/>
<circle cx="61.1562" cy="142.485" r="16.775" transform="rotate(90 61.1562 142.485)" fill="#F6CA13"/>
<path fill-rule="evenodd" clip-rule="evenodd" d="M69.8967 137.877L67.0257 135.676L59.4187 145.596L55.1937 142.357L52.9907 145.228L58.6507 149.563L60.1027 150.651L69.8967 137.877Z" fill="white"/>
<path d="M86 188H37V198H86V188Z" fill="#3F7BD3"/>
<path d="M50.7427 196V189.602H52.8345C53.5288 189.602 54.0503 189.745 54.3989 190.032C54.7505 190.319 54.9263 190.744 54.9263 191.307C54.9263 191.605 54.8413 191.871 54.6714 192.102C54.5015 192.331 54.27 192.508 53.9771 192.634C54.3228 192.73 54.5952 192.915 54.7944 193.188C54.9966 193.457 55.0977 193.779 55.0977 194.154C55.0977 194.729 54.9116 195.18 54.5396 195.508C54.1675 195.836 53.6416 196 52.9619 196H50.7427ZM51.5864 193.007V195.31H52.9795C53.3721 195.31 53.6812 195.209 53.9067 195.007C54.1353 194.802 54.2495 194.521 54.2495 194.163C54.2495 193.393 53.8306 193.007 52.9927 193.007H51.5864ZM51.5864 192.331H52.8608C53.23 192.331 53.5244 192.238 53.7441 192.054C53.9668 191.869 54.0781 191.619 54.0781 191.302C54.0781 190.951 53.9756 190.696 53.7705 190.538C53.5654 190.376 53.2534 190.296 52.8345 190.296H51.5864V192.331ZM61.272 193.007C61.272 193.634 61.1665 194.182 60.9556 194.651C60.7446 195.117 60.4458 195.473 60.0591 195.719C59.6724 195.965 59.2212 196.088 58.7056 196.088C58.2017 196.088 57.7549 195.965 57.3652 195.719C56.9756 195.47 56.6724 195.117 56.4556 194.66C56.2417 194.2 56.1318 193.668 56.126 193.064V192.603C56.126 191.988 56.2329 191.444 56.4468 190.973C56.6606 190.501 56.9624 190.141 57.3521 189.892C57.7446 189.64 58.1929 189.514 58.6968 189.514C59.2095 189.514 59.6606 189.638 60.0503 189.887C60.4429 190.133 60.7446 190.492 60.9556 190.964C61.1665 191.433 61.272 191.979 61.272 192.603V193.007ZM60.4326 192.594C60.4326 191.835 60.2803 191.254 59.9756 190.85C59.6709 190.442 59.2446 190.239 58.6968 190.239C58.1636 190.239 57.7432 190.442 57.4355 190.85C57.1309 191.254 56.9741 191.816 56.9653 192.537V193.007C56.9653 193.743 57.1191 194.321 57.4268 194.743C57.7373 195.162 58.1636 195.372 58.7056 195.372C59.2505 195.372 59.6724 195.174 59.9712 194.778C60.27 194.38 60.4238 193.81 60.4326 193.069V192.594ZM67.4595 193.007C67.4595 193.634 67.354 194.182 67.1431 194.651C66.9321 195.117 66.6333 195.473 66.2466 195.719C65.8599 195.965 65.4087 196.088 64.8931 196.088C64.3892 196.088 63.9424 195.965 63.5527 195.719C63.1631 195.47 62.8599 195.117 62.6431 194.66C62.4292 194.2 62.3193 193.668 62.3135 193.064V192.603C62.3135 191.988 62.4204 191.444 62.6343 190.973C62.8481 190.501 63.1499 190.141 63.5396 189.892C63.9321 189.64 64.3804 189.514 64.8843 189.514C65.397 189.514 65.8481 189.638 66.2378 189.887C66.6304 190.133 66.9321 190.492 67.1431 190.964C67.354 191.433 67.4595 191.979 67.4595 192.603V193.007ZM66.6201 192.594C66.6201 191.835 66.4678 191.254 66.1631 190.85C65.8584 190.442 65.4321 190.239 64.8843 190.239C64.3511 190.239 63.9307 190.442 63.623 190.85C63.3184 191.254 63.1616 191.816 63.1528 192.537V193.007C63.1528 193.743 63.3066 194.321 63.6143 194.743C63.9248 195.162 64.3511 195.372 64.8931 195.372C65.438 195.372 65.8599 195.174 66.1587 194.778C66.4575 194.38 66.6113 193.81 66.6201 193.069V192.594ZM70.3511 193.025L69.5688 193.838V196H68.7251V189.602H69.5688V192.766L72.4121 189.602H73.4316L70.9136 192.427L73.6294 196H72.6187L70.3511 193.025Z" fill="white"/>
</g>
<defs>
<clipPath id="clip0">
<rect width="296" height="249" fill="white"/>
</clipPath>
</defs>
</svg>
