<svg width="322" height="148" viewBox="0 0 322 148" fill="none" xmlns="http://www.w3.org/2000/svg">
  <g opacity="0.1">
    <path fill-rule="evenodd" clip-rule="evenodd" d="M335.716 99.129H321.803V164.803H335.716V99.129Z" fill="white" fill-opacity="0.2" />
    <path fill-rule="evenodd" clip-rule="evenodd" d="M218.245 83.667H332.57C335.892 83.667 338.588 86.429 338.588 89.833V200.833C338.588 204.237 335.892 207 332.57 207H218.245C204.952 207 194.176 195.955 194.176 182.333V77.5C194.176 67.282 202.257 59 212.227 59H308.502C311.824 59 314.519 61.763 314.519 65.167V77.5H302.485V71.333H212.227C208.912 71.333 206.21 74.102 206.21 77.5C206.21 80.898 208.912 83.667 212.227 83.667H218.245ZM290.451 145.333C290.451 152.147 295.836 157.667 302.485 157.667C309.134 157.667 314.519 152.147 314.519 145.333C314.519 138.519 309.134 133 302.485 133C295.836 133 290.451 138.519 290.451 145.333Z" fill="white" />
  </g>
  <defs>
  </defs>
</svg>
