<svg width="24" height="24" viewBox="0 0 24 24" fill="none" xmlns="http://www.w3.org/2000/svg">
<path fill-rule="evenodd" clip-rule="evenodd" d="M14.965 14.2559H15.755L20.745 19.2559L19.255 20.7459L14.255 15.7559V14.9659L13.985 14.6859C12.845 15.6659 11.365 16.2559 9.755 16.2559C6.165 16.2559 3.255 13.3459 3.255 9.75586C3.255 6.16586 6.165 3.25586 9.755 3.25586C13.345 3.25586 16.255 6.16586 16.255 9.75586C16.255 11.3659 15.665 12.8459 14.685 13.9859L14.965 14.2559ZM5.255 9.75586C5.255 12.2459 7.26501 14.2559 9.755 14.2559C12.245 14.2559 14.255 12.2459 14.255 9.75586C14.255 7.26586 12.245 5.25586 9.755 5.25586C7.26501 5.25586 5.255 7.26586 5.255 9.75586Z" fill="#F6CA13"/>
</svg>
