<svg width="30" height="29" viewBox="0 0 30 29" fill="none" xmlns="http://www.w3.org/2000/svg">
<path d="M29.6594 13.2376L17.4491 0.946751C17.4335 0.930931 17.4172 0.915579 17.4007 0.900696C16.0674 -0.296433 14.0527 -0.30071 12.7143 0.890794C12.6976 0.905618 12.6814 0.920911 12.6657 0.936614L0.344056 13.234C-0.11403 13.6912 -0.114792 14.4332 0.342415 14.8913C0.799681 15.3494 1.54165 15.3501 1.99968 14.8929L2.92968 13.9648V24.083C2.92968 26.6676 5.03249 28.7705 7.61718 28.7705H11.8359C12.4832 28.7705 13.0078 28.2458 13.0078 27.5986V18.0478H17.1094V27.5986C17.1094 28.2458 17.634 28.7705 18.2812 28.7705H22.3828C24.9675 28.7705 27.0703 26.6676 27.0703 24.083C27.0703 23.4357 26.5457 22.9111 25.8984 22.9111C25.2512 22.9111 24.7266 23.4357 24.7266 24.083C24.7266 25.3753 23.6752 26.4267 22.3828 26.4267H19.4531V16.8759C19.4531 16.2287 18.9285 15.7041 18.2812 15.7041H11.8359C11.1887 15.7041 10.6641 16.2287 10.6641 16.8759V26.4267H7.61718C6.32484 26.4267 5.27343 25.3753 5.27343 24.083V11.6611C5.27343 11.6494 5.27326 11.6377 5.2729 11.6261L14.2937 2.62312C14.7327 2.25029 15.3767 2.25169 15.814 2.62634L24.7266 11.5976V18.2236C24.7266 18.8708 25.2512 19.3955 25.8984 19.3955C26.5457 19.3955 27.0703 18.8708 27.0703 18.2236V13.9568L27.9968 14.8894C28.2258 15.12 28.5269 15.2354 28.8281 15.2354C29.1268 15.2354 29.4255 15.1219 29.6541 14.8948C30.1132 14.4387 30.1157 13.6967 29.6594 13.2376Z" fill="black"/>
</svg>
