<svg width="21" height="21" viewBox="0 0 21 21" fill="none" xmlns="http://www.w3.org/2000/svg">
<path fill-rule="evenodd" clip-rule="evenodd" d="M12.9675 3.5H16.625C17.5875 3.5 18.375 4.2875 18.375 5.25V17.5C18.375 18.4625 17.5875 19.25 16.625 19.25H4.375C4.2525 19.25 4.13875 19.2412 4.025 19.2237C3.68375 19.1537 3.3775 18.9788 3.14125 18.7425C2.98375 18.5763 2.8525 18.3925 2.765 18.1825C2.6775 17.9725 2.625 17.7362 2.625 17.5V5.25C2.625 5.005 2.6775 4.7775 2.765 4.57625C2.8525 4.36625 2.98375 4.17375 3.14125 4.01625C3.3775 3.78 3.68375 3.605 4.025 3.535C4.13875 3.50875 4.2525 3.5 4.375 3.5H8.0325C8.4 2.485 9.3625 1.75 10.5 1.75C11.6375 1.75 12.6 2.485 12.9675 3.5ZM14.5163 7.5075L15.75 8.75L8.75 15.75L5.25 12.25L6.48375 11.0162L8.75 13.2737L14.5163 7.5075ZM10.5 3.28125C10.8588 3.28125 11.1562 3.57875 11.1562 3.9375C11.1562 4.29625 10.8588 4.59375 10.5 4.59375C10.1413 4.59375 9.84375 4.29625 9.84375 3.9375C9.84375 3.57875 10.1413 3.28125 10.5 3.28125ZM4.375 17.5H16.625V5.25H4.375V17.5Z" fill="black"/>
</svg>
