<svg width="16" height="16" viewBox="0 0 16 16" fill="none" xmlns="http://www.w3.org/2000/svg">
<path fill-rule="evenodd" clip-rule="evenodd" d="M1.33325 7.99967C1.33325 4.31967 4.31992 1.33301 7.99992 1.33301C11.6799 1.33301 14.6666 4.31967 14.6666 7.99967C14.6666 11.6797 11.6799 14.6663 7.99992 14.6663C4.31992 14.6663 1.33325 11.6797 1.33325 7.99967ZM2.66659 7.99967C2.66659 10.9397 5.05992 13.333 7.99992 13.333C10.9399 13.333 13.3333 10.9397 13.3333 7.99967C13.3333 5.05967 10.9399 2.66634 7.99992 2.66634C5.05992 2.66634 2.66659 5.05967 2.66659 7.99967ZM9.99992 4.33301V5.99967H7.33325V7.33301H9.99992V8.99967L12.3333 6.66634L9.99992 4.33301ZM3.66659 9.33301L5.99992 6.99967V8.66634H8.66659V9.99967H5.99992V11.6663L3.66659 9.33301Z" fill="black"/>
</svg>
