<svg width="16" height="18" viewBox="0 0 16 18" fill="none" xmlns="http://www.w3.org/2000/svg">
<path fill-rule="evenodd" clip-rule="evenodd" d="M14.2222 1.77778H10.5067C10.1333 0.746667 9.15556 0 8 0C6.84444 0 5.86667 0.746667 5.49333 1.77778H1.77778C1.65333 1.77778 1.53778 1.78667 1.42222 1.81333C1.07556 1.88444 0.764444 2.06222 0.524444 2.30222C0.364444 2.46222 0.231111 2.65778 0.142222 2.87111C0.0533333 3.07556 0 3.30667 0 3.55556V16C0 16.24 0.0533333 16.48 0.142222 16.6933C0.231111 16.9067 0.364444 17.0933 0.524444 17.2622C0.764444 17.5022 1.07556 17.68 1.42222 17.7511C1.53778 17.7689 1.65333 17.7778 1.77778 17.7778H14.2222C15.2 17.7778 16 16.9778 16 16V3.55556C16 2.57778 15.2 1.77778 14.2222 1.77778ZM8 1.55556C8.36444 1.55556 8.66667 1.85778 8.66667 2.22222C8.66667 2.58667 8.36444 2.88889 8 2.88889C7.63556 2.88889 7.33333 2.58667 7.33333 2.22222C7.33333 1.85778 7.63556 1.55556 8 1.55556ZM1.77778 3.55556V16H14.2222V3.55556H1.77778Z" fill="black"/>
<path d="M10.2222 5.33301V7.55523H6.66666V9.33301H10.2222V11.5552L13.3333 8.44412L10.2222 5.33301Z" fill="black"/>
<path d="M5.77777 8.88867L2.66666 11.9998L5.77777 15.1109V12.8887H9.33332V11.1109H5.77777V8.88867Z" fill="black"/>
</svg>
