<svg width="17" height="19" viewBox="0 0 17 19" fill="none" xmlns="http://www.w3.org/2000/svg">
<path fill-rule="evenodd" clip-rule="evenodd" d="M10.9675 2.5H14.625C15.5875 2.5 16.375 3.2875 16.375 4.25V16.5C16.375 17.4625 15.5875 18.25 14.625 18.25H2.375C2.2525 18.25 2.13875 18.2412 2.025 18.2237C1.68375 18.1537 1.3775 17.9788 1.14125 17.7425C0.98375 17.5763 0.8525 17.3925 0.765 17.1825C0.6775 16.9725 0.625 16.7362 0.625 16.5V4.25C0.625 4.005 0.6775 3.7775 0.765 3.57625C0.8525 3.36625 0.98375 3.17375 1.14125 3.01625C1.3775 2.78 1.68375 2.605 2.025 2.535C2.13875 2.50875 2.2525 2.5 2.375 2.5H6.0325C6.4 1.485 7.3625 0.75 8.5 0.75C9.6375 0.75 10.6 1.485 10.9675 2.5ZM7.625 11.25V6H9.375V11.25H7.625ZM7.625 14.75V13H9.375V14.75H7.625ZM8.5 2.28125C8.85875 2.28125 9.15625 2.57875 9.15625 2.9375C9.15625 3.29625 8.85875 3.59375 8.5 3.59375C8.14125 3.59375 7.84375 3.29625 7.84375 2.9375C7.84375 2.57875 8.14125 2.28125 8.5 2.28125ZM2.375 16.5H14.625V4.25H2.375V16.5Z" fill="black"/>
</svg>
