<svg width="18" height="18" viewBox="0 0 18 18" fill="none" xmlns="http://www.w3.org/2000/svg">
<path fill-rule="evenodd" clip-rule="evenodd" d="M8.9915 0.666016C4.3915 0.666016 0.666504 4.39935 0.666504 8.99935C0.666504 13.5993 4.3915 17.3327 8.9915 17.3327C13.5998 17.3327 17.3332 13.5993 17.3332 8.99935C17.3332 4.39935 13.5998 0.666016 8.9915 0.666016ZM8.99989 15.6661C5.31655 15.6661 2.33322 12.6827 2.33322 8.9994C2.33322 5.31607 5.31655 2.33274 8.99989 2.33274C12.6832 2.33274 15.6666 5.31607 15.6666 8.9994C15.6666 12.6827 12.6832 15.6661 8.99989 15.6661ZM8.1665 4.83274H9.4165V9.20774L13.1665 11.4327L12.5415 12.4577L8.1665 9.83274V4.83274Z" fill="#F6CA13"/>
</svg>
