<svg width="48" height="62" viewBox="0 0 48 62" fill="none" xmlns="http://www.w3.org/2000/svg">
<path fill-rule="evenodd" clip-rule="evenodd" d="M31.2843 0.458189L31.2694 0.443427C30.9978 0.156493 30.6231 -0.0040427 30.2321 0.000570384C30.1839 -0.00173616 30.1353 0.00287693 30.088 0.0157935H7.95478C3.9763 0.0167162 0.751802 3.31969 0.75 7.39489V54.6209C0.751802 58.6956 3.9763 61.9986 7.95478 62H40.0452C44.0237 61.9986 47.2486 58.6956 47.25 54.6209V17.4002C47.2473 17.0095 47.0978 16.6344 46.832 16.353L31.2843 0.458189ZM32.0653 5.33933L41.9522 15.4893H35.7875C34.3857 15.4893 32.0653 13.5491 32.0653 11.4976V5.33933ZM40.4555 58.6487H8.38926C6.00765 58.6417 4.07906 56.6613 4.07141 54.2168V6.94497C4.07141 5.07253 6.00765 3.20675 8.38926 3.19983H29.2006V11.0966C29.202 15.1748 32.4231 18.4809 36.3967 18.4828H43.987V54.2168C43.9915 56.6604 41.9807 58.6487 40.4555 58.6487Z" fill="#CACACA"/>
</svg>
