<svg width="24" height="24" viewBox="0 0 24 24" fill="none" xmlns="http://www.w3.org/2000/svg">
<path fill-rule="evenodd" clip-rule="evenodd" d="M4.96875 0C4.19208 0 3.5625 0.629578 3.5625 1.40625V4.26562C3.5625 5.0422 4.19208 5.67188 4.96875 5.67188C5.74542 5.67188 6.375 5.0422 6.375 4.26562V1.40625C6.375 0.629578 5.74542 0 4.96875 0ZM12 0C11.2233 0 10.5938 0.629578 10.5938 1.40625V4.26562C10.5938 5.0422 11.2233 5.67188 12 5.67188C12.7767 5.67188 13.4062 5.0422 13.4062 4.26562V1.40625C13.4062 0.629578 12.7767 0 12 0ZM17.625 1.40625C17.625 0.629578 18.2546 0 19.0312 0C19.8079 0 20.4375 0.629578 20.4375 1.40625V4.26562C20.4375 5.0422 19.8079 5.67188 19.0312 5.67188C18.2546 5.67188 17.625 5.0422 17.625 4.26562V1.40625ZM21.8438 4.26562V2.85938C23.0069 2.85938 24 3.80559 24 4.96875V8.48438H0V4.96875C0 3.80559 0.993094 2.85938 2.15625 2.85938V4.26562C2.15625 5.81677 3.41761 7.07812 4.96875 7.07812C6.51989 7.07812 7.78125 5.81677 7.78125 4.26562V2.85938H9.1875V4.26562C9.1875 5.81677 10.4489 7.07812 12 7.07812C13.5511 7.07812 14.8125 5.81677 14.8125 4.26562V2.85938H16.2188V4.26562C16.2188 5.81677 17.4801 7.07812 19.0312 7.07812C20.5824 7.07812 21.8438 5.81677 21.8438 4.26562ZM0 9.89062V21.8906C0 23.0538 0.993094 24 2.15625 24H21.8438C23.0069 24 24 23.0538 24 21.8906V9.89062H0Z" fill="url(#paint0_radial)"/>
<defs>
<radialGradient id="paint0_radial" cx="0" cy="0" r="1" gradientUnits="userSpaceOnUse" gradientTransform="translate(-15.075 -45.6) scale(92.8628)">
<stop stop-color="#FB72AD"/>
<stop offset="1" stop-color="#B643D5"/>
</radialGradient>
</defs>
</svg>
