<svg width="24" height="24" viewBox="0 0 24 24" fill="none" xmlns="http://www.w3.org/2000/svg">
<path d="M23.3474 3.41925C22.9381 3.02798 22.4041 2.8125 21.8438 2.8125H21.1406V2.10938C21.1406 0.946266 20.1944 0 19.0312 0C17.8681 0 16.9219 0.946266 16.9219 2.10938V2.8125H14.1094V2.10938C14.1094 0.946266 13.1631 0 12 0C10.8369 0 9.89062 0.946266 9.89062 2.10938V2.8125H7.03125V2.10938C7.03125 0.946266 6.08498 0 4.92188 0C3.75877 0 2.8125 0.946266 2.8125 2.10938V2.8125H2.10938C0.946266 2.8125 0 3.75877 0 4.92188V21.8906C0 23.0537 0.946266 24 2.10938 24H21.8438C22.4041 24 22.9381 23.7845 23.3474 23.3932C23.7682 22.991 24 22.4573 24 21.8906V4.92188C24 4.3552 23.7682 3.82153 23.3474 3.41925ZM18.3281 2.10938C18.3281 1.72167 18.6435 1.40625 19.0312 1.40625C19.419 1.40625 19.7344 1.72167 19.7344 2.10938V4.92188C19.7344 5.30958 19.419 5.625 19.0312 5.625C18.6435 5.625 18.3281 5.30958 18.3281 4.92188V2.10938ZM11.2969 2.10938C11.2969 1.72167 11.6123 1.40625 12 1.40625C12.3877 1.40625 12.7031 1.72167 12.7031 2.10938V4.92188C12.7031 5.30958 12.3877 5.625 12 5.625C11.6123 5.625 11.2969 5.30958 11.2969 4.92188V2.10938ZM4.21875 2.10938C4.21875 1.72167 4.53417 1.40625 4.92188 1.40625C5.30958 1.40625 5.625 1.72167 5.625 2.10938V4.92188C5.625 5.30958 5.30958 5.625 4.92188 5.625C4.53417 5.625 4.21875 5.30958 4.21875 4.92188V2.10938ZM22.5938 21.8906C22.5938 22.2652 22.2433 22.5938 21.8438 22.5938H2.10938C1.72167 22.5938 1.40625 22.2783 1.40625 21.8906V9.84375H22.5938V21.8906ZM22.5938 8.4375H1.40625V4.92188C1.40625 4.53417 1.72167 4.21875 2.10938 4.21875H2.8125V4.92188C2.8125 6.08498 3.75877 7.03125 4.92188 7.03125C6.08498 7.03125 7.03125 6.08498 7.03125 4.92188V4.21875H9.89062V4.92188C9.89062 6.08498 10.8369 7.03125 12 7.03125C13.1631 7.03125 14.1094 6.08498 14.1094 4.92188V4.21875H16.9219V4.92188C16.9219 6.08498 17.8681 7.03125 19.0312 7.03125C20.1944 7.03125 21.1406 6.08498 21.1406 4.92188V4.21875H21.8438C22.2433 4.21875 22.5938 4.5473 22.5938 4.92188V8.4375Z" fill="#DADADA"/>
</svg>
